<svg width="67" height="24" viewBox="0 0 67 24" fill="none" xmlns="http://www.w3.org/2000/svg">
<g clip-path="url(#clip0)">
<path d="M7.5636 -0.0002723C9.1668 -0.0002723 9.67056 1.17119 10.0932 2.34081C10.2707 2.83749 14.4369 14.4603 14.5622 14.8092C14.5955 14.9065 14.573 15.0662 14.4261 15.1241C14.2783 15.181 12.1137 16.0385 11.9938 16.0844C11.8739 16.1312 11.7397 16.0633 11.6964 15.9412C11.6513 15.8209 10.7529 13.287 10.6519 13.0042H4.47706C4.37973 13.287 3.47044 15.8264 3.42989 15.9412C3.38843 16.0577 3.25957 16.1367 3.1316 16.0844C3.00363 16.033 0.830887 15.1755 0.701117 15.1241C0.576755 15.0745 0.51998 14.9304 0.563237 14.8092C0.716437 14.374 4.81951 2.93756 5.02858 2.34081C5.43591 1.18863 5.9568 -0.0002723 7.5636 -0.0002723ZM0.233405 20.7968C0.103635 20.7968 0 20.907 0 21.0411V23.7576C0 23.8917 0.103635 24 0.233405 24H14.8875C15.02 24 15.1236 23.8917 15.1236 23.7576V21.0411C15.1236 20.907 15.02 20.7968 14.8875 20.7968H0.233405ZM7.54918 3.79504L5.46205 10.1802H9.67056L7.57621 3.79504H7.54918V3.79504ZM38.8679 14.2648C38.5606 14.3703 38.3578 14.396 38.1163 14.396C37.617 14.396 37.3404 14.195 37.3404 13.6735C37.3404 13.13 37.6918 12.9482 38.3821 12.9482C38.5507 12.9482 38.7165 12.973 38.794 13.0006V13.3898C38.794 13.8094 38.8165 14.0848 38.8679 14.2648V14.2648ZM40.6423 14.8872C40.2737 14.3171 40.1773 13.9811 40.1773 13.2622V11.8025C40.1773 11.0166 40.0872 10.7329 39.8835 10.4465C39.5996 10.0407 39.1265 9.86443 38.2569 9.86443C37.6414 9.86443 37.0439 9.93236 36.4653 10.0829L36.6744 11.1203C37.0655 11.0643 37.4755 11.0166 37.7648 11.0166C38.6885 11.0166 38.794 11.1525 38.794 11.8585V12.122C38.5885 12.066 38.3578 12.0256 38.0901 12.0256C36.6996 12.0256 35.9652 12.7187 35.9652 13.8663C35.9652 14.9423 36.7501 15.5289 37.7062 15.5289C38.0631 15.5289 38.4362 15.4619 38.7318 15.3389C38.9102 15.2599 38.9877 15.2131 39.2184 15.0607C39.3572 15.2664 39.6357 15.4766 39.7492 15.5161L40.6423 14.8872V14.8872ZM54.397 14.2648C54.0879 14.3703 53.8887 14.396 53.6454 14.396C53.1443 14.396 52.8641 14.195 52.8641 13.6735C52.8641 13.13 53.22 12.9482 53.9122 12.9482C54.0807 12.9482 54.2474 12.973 54.3231 13.0006V13.3898C54.3231 13.8094 54.3447 14.0848 54.397 14.2648V14.2648ZM56.1732 14.8872C55.8019 14.3171 55.7073 13.9811 55.7073 13.2622V11.8025C55.7073 11.0166 55.6154 10.7329 55.4099 10.4465C55.1296 10.0407 54.6556 9.86443 53.7833 9.86443C53.1687 9.86443 52.5676 9.93236 51.989 10.0829L52.1954 11.1203C52.5874 11.0643 52.9984 11.0166 53.2957 11.0166C54.214 11.0166 54.3231 11.1525 54.3231 11.8585V12.122C54.1176 12.066 53.8887 12.0256 53.6157 12.0256C52.2233 12.0256 51.4862 12.7187 51.4862 13.8663C51.4862 14.9423 52.2729 15.5289 53.2336 15.5289C53.5949 15.5289 53.9644 15.4619 54.2573 15.3389C54.4384 15.2599 54.5132 15.2131 54.7439 15.0607C54.8845 15.2664 55.163 15.4766 55.2774 15.5161L56.1732 14.8872V14.8872ZM67 15.4068C67 15.4068 66.2376 13.7515 66.051 13.3751C65.8411 12.951 65.6464 12.6581 65.2175 12.5525V12.5287C65.5049 12.4727 65.7338 12.2955 65.9844 11.7538C66.2214 11.2259 66.2917 11.1121 66.4313 10.9863C66.5683 10.8615 66.7558 10.9064 66.7558 10.9064L66.8261 9.93053C66.6269 9.90298 66.4061 9.90207 66.1781 9.91492C65.7996 9.93787 65.6041 10.049 65.4175 10.2399C65.2715 10.3859 65.1724 10.6044 65.0498 10.855C64.9201 11.1286 64.8173 11.3489 64.6822 11.6271C64.5479 11.9126 64.4848 12.0412 64.1234 12.0412H63.8882V7.71797H62.4959V15.4068H63.8882V13.1961L64.0784 13.1924C64.4776 13.1924 64.5479 13.2943 64.7588 13.7231C65.0057 14.2345 65.4788 15.4068 65.4788 15.4068H67V15.4068ZM27.7771 15.4068H29.3839L26.9534 7.8465C26.6974 7.75928 26.3811 7.70512 26.0432 7.70512C25.6746 7.70512 25.543 7.75469 25.2547 7.8465L22.6827 15.4068H24.2246C24.2246 15.4068 24.4328 14.744 24.6779 13.9223H27.3418C27.5797 14.7431 27.7771 15.4068 27.7771 15.4068ZM25.069 12.6545C25.069 12.6545 25.5142 11.1369 25.5836 10.9009C25.7602 10.2895 26.0288 9.31817 26.0288 9.31817H26.0729C26.0729 9.31817 26.3216 10.3244 26.4839 10.8899C26.5451 11.1148 26.9705 12.6545 26.9705 12.6545H25.069ZM43.0142 11.7896C42.5231 11.7896 42.1238 12.1982 42.1238 12.6985C42.1238 13.2025 42.5231 13.6083 43.0142 13.6083C43.5062 13.6083 43.9037 13.2025 43.9037 12.6985C43.9037 12.1982 43.5062 11.7896 43.0142 11.7896ZM31.2917 7.71797H29.8957V15.4059H31.2917V7.71797V7.71797ZM59.0254 11.0864C59.7969 11.1029 59.8924 11.2654 59.8924 11.9246V15.4068H61.2757V11.8025C61.2757 11.0166 61.1856 10.7329 60.9801 10.4465C60.6962 10.0407 60.1384 9.86443 59.1949 9.86443C58.2612 9.86443 57.6665 9.96541 56.9014 10.1977V15.4068H58.2991V11.1525C58.6659 11.0983 58.7308 11.0864 59.0254 11.0864V11.0864ZM34.7441 7.58118C33.8717 7.58118 33.3968 7.75745 33.1174 8.16232C32.912 8.44968 32.821 8.73979 32.821 9.52749V10.1977H32.1279V11.3471H32.821V15.4068H34.2052L34.2016 11.3471H35.5813V10.1977H34.2016L34.2052 9.58166C34.2052 8.87658 34.3106 8.73979 35.2352 8.73979C35.3352 8.73979 35.4479 8.7453 35.5677 8.75448L35.7858 7.65003C35.4443 7.60413 35.0946 7.58118 34.7441 7.58118V7.58118ZM45.8502 7.65279C46.3251 7.62433 47.3867 7.58393 48.0527 7.58393C48.1743 7.58393 48.3005 7.58485 48.4267 7.59127C49.7361 7.59127 50.4868 8.5626 50.4868 9.70284C50.4868 10.4786 50.138 10.9937 49.3206 11.3003C50.2822 11.517 50.786 12.2817 50.786 13.2172C50.786 13.9039 50.5958 14.4493 50.2471 14.8211C49.7947 15.2746 49.1098 15.5289 48.1978 15.5289C47.3867 15.5289 46.3684 15.5032 45.8502 15.472V7.65279V7.65279ZM48.0527 8.91238C47.822 8.91238 47.5363 8.91697 47.2533 8.92707V10.7733H48.0536C48.3708 10.7733 48.6258 10.6833 48.7998 10.5098C48.9656 10.3464 49.0521 10.1151 49.0521 9.84056C49.0521 9.25023 48.7385 8.91606 48.1554 8.91238H48.0527V8.91238ZM48.0815 14.2032H48.1419C48.8692 14.2032 49.3143 13.8094 49.3197 13.0162C49.3125 12.7316 49.2053 12.469 49.0133 12.279C48.8034 12.0641 48.506 11.9521 48.1572 11.9521H47.2533V14.195C47.5084 14.2005 47.7895 14.2014 48.0815 14.2032" fill="white"/>
</g>
<defs>
<clipPath id="clip0">
<rect width="67" height="24" fill="white"/>
</clipPath>
</defs>
</svg>
