<svg width="54" height="23" viewBox="0 0 54 23" fill="none" xmlns="http://www.w3.org/2000/svg">
<g clip-path="url(#clip0)">
<path d="M9.8696 2.8808C9.23678 3.63555 8.22428 4.23085 7.21178 4.14581C7.08522 3.1253 7.58092 2.04101 8.161 1.3713C8.79381 0.595295 9.90124 0.0425211 10.7977 0C10.9032 1.06303 10.4919 2.10479 9.8696 2.8808ZM10.7872 4.34778C9.32116 4.26274 8.06608 5.18757 7.36999 5.18757C6.66335 5.18757 5.59811 4.3903 4.43795 4.41156C2.92975 4.43282 1.52702 5.29387 0.757095 6.66518C-0.824936 9.40779 0.345767 13.4686 1.87506 15.7009C2.62389 16.8065 3.52038 18.0183 4.70163 17.9758C5.8196 17.9333 6.26256 17.2423 7.61256 17.2423C8.97311 17.2423 9.36335 17.9758 10.5446 17.9545C11.768 17.9333 12.538 16.849 13.2868 15.7434C14.1411 14.4891 14.4891 13.2666 14.5102 13.2028C14.4891 13.1815 12.1477 12.278 12.1266 9.55661C12.1055 7.28174 13.9723 6.19745 14.0567 6.13367C13.002 4.56039 11.3567 4.3903 10.7872 4.34778ZM19.2563 1.265V17.8376H21.8087V12.1717H25.3419C28.5692 12.1717 30.8368 9.9393 30.8368 6.7077C30.8368 3.4761 28.6114 1.265 25.4262 1.265H19.2563V1.265ZM21.8087 3.43358H24.7512C26.9661 3.43358 28.2317 4.62417 28.2317 6.71833C28.2317 8.81249 26.9661 10.0137 24.7407 10.0137H21.8087V3.43358V3.43358ZM35.4985 17.9652C37.1016 17.9652 38.5887 17.1466 39.2637 15.8497H39.3165V17.8376H41.679V9.5885C41.679 7.19669 39.7805 5.6553 36.8591 5.6553C34.1485 5.6553 32.1446 7.21795 32.0708 9.36527H34.37C34.5598 8.34476 35.4985 7.67506 36.7852 7.67506C38.3462 7.67506 39.2216 8.40854 39.2216 9.75859V10.6728L36.0364 10.8641C33.0727 11.0449 31.4696 12.2673 31.4696 14.3934C31.4696 16.5407 33.1255 17.9652 35.4985 17.9652ZM36.1841 15.9986C34.8235 15.9986 33.9587 15.3395 33.9587 14.3296C33.9587 13.2878 34.7919 12.6819 36.3844 12.5862L39.2216 12.4055V13.341C39.2216 14.893 37.9137 15.9986 36.1841 15.9986ZM44.8325 22.3448C47.3216 22.3448 48.4923 21.3881 49.5153 18.486L53.9977 5.81476H51.4032L48.3973 15.6052H48.3446L45.3387 5.81476H42.6704L46.9946 17.8801L46.7626 18.6136C46.3723 19.8573 45.7395 20.3357 44.611 20.3357C44.4106 20.3357 44.0204 20.3144 43.8622 20.2932V22.281C44.0098 22.3236 44.6426 22.3448 44.8325 22.3448Z" fill="white"/>
</g>
<defs>
<clipPath id="clip0">
<rect width="54" height="22.3448" fill="white"/>
</clipPath>
</defs>
</svg>
