<svg width="20" height="20" viewBox="0 0 20 20" fill="none" xmlns="http://www.w3.org/2000/svg">
<path d="M18.0469 1.71875H16.1849V1.17188C16.1849 0.525703 15.6592 0 15.013 0C14.3668 0 13.8411 0.525703 13.8411 1.17188V1.71875H7.27863V1.17188C7.27863 0.525703 6.75293 0 6.10676 0C5.46059 0 4.93488 0.525703 4.93488 1.17188V1.7332C4.90168 1.72402 4.86688 1.71875 4.83074 1.71875H3.27434C2.19738 1.71875 1.32121 2.59492 1.32121 3.67188V10.3255C1.32121 10.5413 1.49613 10.7161 1.71184 10.7161C1.92754 10.7161 2.10246 10.5413 2.10246 10.3255V5.74219H16.1849C16.4006 5.74219 16.5755 5.5673 16.5755 5.35156C16.5755 5.13582 16.4006 4.96094 16.1849 4.96094H2.10246V3.67188C2.10246 3.0257 2.62816 2.5 3.27434 2.5H4.83074C4.86688 2.5 4.90168 2.49469 4.93488 2.48555V2.98828C4.93488 3.63445 5.46059 4.16016 6.10676 4.16016C6.75293 4.16016 7.27863 3.63445 7.27863 2.98828V2.5H13.8411V2.98828C13.8411 3.63445 14.3668 4.16016 15.013 4.16016C15.6592 4.16016 16.1849 3.63445 16.1849 2.98828V2.5H18.0469C18.693 2.5 19.2188 3.0257 19.2188 3.67188V18.5154C19.2188 18.9032 18.9032 19.2188 18.5154 19.2188C18.1275 19.2188 17.812 18.9032 17.812 18.5154V17.5049C17.812 17.2891 17.6371 17.1143 17.4214 17.1143H12.8776C12.6619 17.1143 12.487 17.2891 12.487 17.5049C12.487 17.7206 12.6619 17.8955 12.8776 17.8955H17.0308V18.5154C17.0308 18.7697 17.0952 19.0093 17.2083 19.2188H1.48438C1.09668 19.2188 0.78125 18.9033 0.78125 18.5156V17.8955H9.52441C9.74012 17.8955 9.91504 17.7206 9.91504 17.5049C9.91504 17.2891 9.74012 17.1143 9.52441 17.1143H5.62145C6.30402 16.5264 6.73746 15.6569 6.73746 14.6875C6.73746 12.9213 5.30055 11.4844 3.53434 11.4844C1.76812 11.4844 0.331211 12.9213 0.331211 14.6875C0.331211 15.6569 0.764648 16.5264 1.44723 17.1143H0.390625C0.174922 17.1143 0 17.2891 0 17.5049V18.5156C0 19.3341 0.665898 20 1.48438 20H18.5154C19.334 20 20 19.334 20 18.5154V3.67188C20 2.59492 19.1238 1.71875 18.0469 1.71875ZM6.49738 2.98828C6.49738 3.20367 6.32215 3.37891 6.10676 3.37891C5.89137 3.37891 5.71613 3.20367 5.71613 2.98828V1.17188C5.71613 0.956484 5.89137 0.78125 6.10676 0.78125C6.32215 0.78125 6.49738 0.956484 6.49738 1.17188V2.98828ZM15.4036 2.98828C15.4036 3.20367 15.2284 3.37891 15.013 3.37891C14.7976 3.37891 14.6224 3.20367 14.6224 2.98828V1.17188C14.6224 0.956484 14.7976 0.78125 15.013 0.78125C15.2284 0.78125 15.4036 0.956484 15.4036 1.17188V2.98828ZM1.11246 14.6875C1.11246 13.3521 2.19891 12.2656 3.53434 12.2656C4.86977 12.2656 5.95621 13.3521 5.95621 14.6875C5.95621 16.0229 4.86977 17.1094 3.53434 17.1094C2.19891 17.1094 1.11246 16.0229 1.11246 14.6875Z" fill="#613654"/>
<path d="M18.2937 5.07539C18.2211 5.00273 18.1203 4.96094 18.0176 4.96094C17.9148 4.96094 17.8141 5.00273 17.7414 5.07539C17.6688 5.14805 17.627 5.24883 17.627 5.35156C17.627 5.4543 17.6687 5.55508 17.7414 5.62773C17.8141 5.70039 17.9148 5.74219 18.0176 5.74219C18.1203 5.74219 18.2211 5.70039 18.2937 5.62773C18.3664 5.55508 18.4082 5.4543 18.4082 5.35156C18.4082 5.24883 18.3664 5.14805 18.2937 5.07539Z" fill="#613654"/>
<path d="M11.6668 17.2286C11.5941 17.1559 11.4934 17.1145 11.3906 17.1145C11.2879 17.1145 11.1871 17.1559 11.1145 17.2286C11.0418 17.3016 11 17.402 11 17.5047C11 17.6079 11.0418 17.7083 11.1145 17.7813C11.1871 17.854 11.2879 17.8954 11.3906 17.8954C11.4934 17.8954 11.5941 17.854 11.6668 17.7813C11.7394 17.7083 11.7812 17.6075 11.7812 17.5047C11.7812 17.402 11.7395 17.3016 11.6668 17.2286Z" fill="#613654"/>
<path d="M8.83789 11.875C8.01941 11.875 7.35352 12.5409 7.35352 13.3594C7.35352 14.1779 8.01941 14.8438 8.83789 14.8438C9.65637 14.8438 10.3223 14.1779 10.3223 13.3594C10.3223 12.5409 9.65637 11.875 8.83789 11.875ZM8.83789 14.0625C8.4502 14.0625 8.13477 13.7471 8.13477 13.3594C8.13477 12.9717 8.4502 12.6562 8.83789 12.6562C9.22559 12.6562 9.54102 12.9717 9.54102 13.3594C9.54102 13.7471 9.22559 14.0625 8.83789 14.0625Z" fill="#613654"/>
<path d="M12.4844 11.875C11.6659 11.875 11 12.5409 11 13.3594C11 14.1779 11.6659 14.8438 12.4844 14.8438C13.3029 14.8438 13.9688 14.1779 13.9688 13.3594C13.9688 12.5409 13.3029 11.875 12.4844 11.875ZM12.4844 14.0625C12.0967 14.0625 11.7812 13.7471 11.7812 13.3594C11.7812 12.9717 12.0967 12.6562 12.4844 12.6562C12.8721 12.6562 13.1875 12.9717 13.1875 13.3594C13.1875 13.7471 12.8721 14.0625 12.4844 14.0625Z" fill="#613654"/>
<path d="M16.1289 11.875C15.3104 11.875 14.6445 12.5409 14.6445 13.3594C14.6445 14.1779 15.3104 14.8438 16.1289 14.8438C16.9474 14.8438 17.6133 14.1779 17.6133 13.3594C17.6133 12.5409 16.9474 11.875 16.1289 11.875ZM16.1289 14.0625C15.7412 14.0625 15.4258 13.7471 15.4258 13.3594C15.4258 12.9717 15.7412 12.6562 16.1289 12.6562C16.5166 12.6562 16.832 12.9717 16.832 13.3594C16.832 13.7471 16.5166 14.0625 16.1289 14.0625Z" fill="#613654"/>
<path d="M5.19141 7.8125C4.37293 7.8125 3.70703 8.4784 3.70703 9.29688C3.70703 10.1154 4.37293 10.7812 5.19141 10.7812C6.00988 10.7812 6.67578 10.1154 6.67578 9.29688C6.67578 8.4784 6.00988 7.8125 5.19141 7.8125ZM5.19141 10C4.80371 10 4.48828 9.68457 4.48828 9.29688C4.48828 8.90918 4.80371 8.59375 5.19141 8.59375C5.5791 8.59375 5.89453 8.90918 5.89453 9.29688C5.89453 9.68457 5.5791 10 5.19141 10Z" fill="#613654"/>
<path d="M12.4844 7.8125C11.6659 7.8125 11 8.4784 11 9.29688C11 10.1154 11.6659 10.7812 12.4844 10.7812C13.3029 10.7812 13.9688 10.1154 13.9688 9.29688C13.9688 8.4784 13.3029 7.8125 12.4844 7.8125ZM12.4844 10C12.0967 10 11.7812 9.68457 11.7812 9.29688C11.7812 8.90918 12.0967 8.59375 12.4844 8.59375C12.8721 8.59375 13.1875 8.90918 13.1875 9.29688C13.1875 9.68457 12.8721 10 12.4844 10Z" fill="#613654"/>
<path d="M16.1289 7.8125C15.3104 7.8125 14.6445 8.4784 14.6445 9.29688C14.6445 10.1154 15.3104 10.7812 16.1289 10.7812C16.9474 10.7812 17.6133 10.1154 17.6133 9.29688C17.6133 8.4784 16.9474 7.8125 16.1289 7.8125ZM16.1289 10C15.7412 10 15.4258 9.68457 15.4258 9.29688C15.4258 8.90918 15.7412 8.59375 16.1289 8.59375C16.5166 8.59375 16.832 8.90918 16.832 9.29688C16.832 9.68457 16.5166 10 16.1289 10Z" fill="#613654"/>
<path d="M8.83789 7.8125C8.01941 7.8125 7.35352 8.4784 7.35352 9.29688C7.35352 10.1154 8.01941 10.7812 8.83789 10.7812C9.65637 10.7812 10.3223 10.1154 10.3223 9.29688C10.3223 8.4784 9.65637 7.8125 8.83789 7.8125ZM8.83789 10C8.4502 10 8.13477 9.68457 8.13477 9.29688C8.13477 8.90918 8.4502 8.59375 8.83789 8.59375C9.22559 8.59375 9.54102 8.90918 9.54102 9.29688C9.54102 9.68457 9.22559 10 8.83789 10Z" fill="#613654"/>
<path d="M4.92615 13.7355C4.77358 13.583 4.52631 13.583 4.3737 13.7355L3.10159 15.0077L2.66686 14.5729C2.51429 14.4204 2.26702 14.4204 2.1144 14.5729C1.96187 14.7255 1.96187 14.9728 2.1144 15.1254L2.82538 15.8363C2.89866 15.9095 2.998 15.9507 3.10159 15.9507C3.20518 15.9507 3.30452 15.9095 3.3778 15.8363L4.92615 14.2879C5.07869 14.1354 5.07869 13.888 4.92615 13.7355Z" fill="#613654"/>
</svg>
