<svg width="48" height="79" viewBox="0 0 48 79" fill="none" xmlns="http://www.w3.org/2000/svg">
<path fill-rule="evenodd" clip-rule="evenodd" d="M12.0345 17.6146C12.1993 19.0847 12.9393 25.6877 7.40936 26.8758C1.87556 28.0695 -0.182893 21.6624 0.425059 18.6606C0.425059 18.6606 1.08022 12.1776 5.56834 11.7778C9.13308 11.466 11.7602 15.369 12.0334 17.6042L12.0345 17.6146ZM23.2361 7.87691C23.2361 12.2327 20.7629 15.7588 17.7031 15.7588C14.6411 15.7588 12.1621 12.2327 12.1621 7.87691C12.1621 3.5204 14.6418 0 17.7031 0C20.7629 0 23.2361 3.5204 23.2361 7.87691ZM38.1403 9.13359C37.6153 12.4444 34.9911 16.8138 30.8949 16.2774C26.803 15.7531 25.8782 12.0518 26.2766 8.33967C26.6035 5.30492 30.2312 0.653012 33.1372 1.32104C36.0303 1.98121 38.6767 5.82704 38.1403 9.13359ZM40.9226 15.4828C45.8048 15.4828 47.1158 20.2563 47.1158 21.8398C47.1158 21.9599 47.1196 22.1092 47.124 22.2827C47.1778 24.4127 47.3238 30.1889 41.7122 30.3132C35.6369 30.4448 35.3837 26.2077 35.3837 23.1701C35.3837 19.9873 36.0303 15.4828 40.9226 15.4828ZM30.8949 25.5476C34.5905 30.8432 40.9226 35.7411 40.9226 35.7411C40.9226 35.7411 45.666 39.4525 42.6334 46.5992C39.6044 53.7516 28.5196 50.0345 28.5196 50.0345C28.5196 50.0345 24.4313 48.717 19.6793 49.7748C14.9372 50.8355 10.8482 50.4357 10.8482 50.4357C10.8482 50.4357 5.30012 50.5688 3.71802 43.5544C2.37678 37.5896 7.31146 33.9175 9.15223 32.5477C9.47789 32.3054 9.70671 32.1351 9.78681 32.0369C9.91851 31.8706 10.247 31.5895 10.7028 31.1995C12.0737 30.0264 14.596 27.868 16.377 24.8846C18.7573 20.9193 25.8768 17.7393 30.8949 25.5476ZM18.687 28.9126V33.6246H14.8476C14.8476 33.6246 11.0103 33.9429 9.66709 38.2923C9.22912 41.007 9.97137 42.6785 10.1955 43.1833C10.2112 43.2185 10.2243 43.248 10.2343 43.2718C10.3895 43.6365 11.6297 45.7608 14.7439 46.3845H21.9484V28.9641L18.687 28.9126ZM18.629 43.525H15.7266C15.7266 43.525 13.7046 43.4198 13.0888 41.0917C12.7712 40.0603 13.136 38.8688 13.2962 38.4003C13.4428 37.9311 14.1216 36.8468 15.5213 36.4291H18.6283L18.629 43.525ZM23.7136 34.0473V43.2195C23.7136 43.2195 23.8638 45.5019 27.0824 46.3337H35.3735V34.0459H31.7951V43.2703H28.3806C28.3806 43.2703 27.2891 43.1115 27.0838 42.2347V33.993L23.7136 34.0473Z" fill="white"/>
<path fill-rule="evenodd" clip-rule="evenodd" d="M6 60C3.23858 60 1 62.2386 1 65V74C1 76.7614 3.23858 79 6 79H42C44.7614 79 47 76.7614 47 74V65C47 62.2386 44.7614 60 42 60H6ZM31.5609 73.566C32.2515 73.9953 33.1055 74.21 34.1229 74.21C35.2429 74.21 36.1435 73.9393 36.8249 73.398C37.5062 72.8567 37.8469 72.1053 37.8469 71.144C37.8469 70.164 37.5062 69.45 36.8249 69.002C36.4982 68.778 36.1809 68.6007 35.8729 68.47C35.6022 68.358 35.2195 68.2273 34.7249 68.078C34.0622 67.882 33.6142 67.7093 33.3809 67.56C33.1569 67.4107 33.0449 67.2287 33.0449 67.014C33.0449 66.818 33.1242 66.664 33.2829 66.552C33.4415 66.4307 33.6655 66.37 33.9549 66.37C34.6642 66.37 35.1729 66.734 35.4809 67.462L37.5809 66.23C37.2449 65.5113 36.7595 64.9607 36.1249 64.578C35.4902 64.186 34.7622 63.99 33.9409 63.99C32.9795 63.99 32.1675 64.27 31.5049 64.83C30.8609 65.39 30.5389 66.1227 30.5389 67.028C30.5389 67.8307 30.7862 68.4747 31.2809 68.96C31.7755 69.4453 32.4989 69.8233 33.4509 70.094C34.1229 70.29 34.5335 70.416 34.6829 70.472C35.1215 70.6587 35.3409 70.892 35.3409 71.172C35.3409 71.6107 34.9582 71.83 34.1929 71.83C33.2689 71.83 32.6249 71.396 32.2609 70.528L30.1189 71.774C30.3989 72.5393 30.8795 73.1367 31.5609 73.566ZM20.395 74H17.693L17.273 72.586H14.011L13.591 74H10.875L14.109 64.2H17.161L20.395 74ZM15.635 67.098L14.655 70.43H16.629L15.635 67.098ZM21.1076 64.2H25.0976C26.4416 64.2 27.5709 64.6713 28.4856 65.614C29.4002 66.5567 29.8576 67.7187 29.8576 69.1C29.8576 70.4907 29.4002 71.6573 28.4856 72.6C27.5802 73.5333 26.4509 74 25.0976 74H21.1076V64.2ZM23.6836 71.578H25.0976C25.7696 71.578 26.3249 71.354 26.7636 70.906C27.1929 70.4487 27.4076 69.8467 27.4076 69.1C27.4076 68.344 27.1929 67.7467 26.7636 67.308C26.3342 66.8507 25.7789 66.622 25.0976 66.622H23.6836V71.578Z" fill="white"/>
</svg>
