<svg width="47" height="81" viewBox="0 0 47 81" fill="none" xmlns="http://www.w3.org/2000/svg">
<path fill-rule="evenodd" clip-rule="evenodd" d="M11.4826 17.2692C11.6441 18.7105 12.3696 25.1841 6.94813 26.3488C1.52284 27.5191 -0.495254 21.2377 0.100778 18.2947C0.100778 18.2947 0.743091 11.9389 5.14321 11.5469C8.63806 11.2412 11.2136 15.0677 11.4815 17.259L11.4826 17.2692ZM22.4646 7.72247C22.4646 11.9929 20.0398 15.4498 17.04 15.4498C14.0381 15.4498 11.6077 11.9929 11.6077 7.72247C11.6077 3.45137 14.0388 0 17.04 0C20.0398 0 22.4646 3.45137 22.4646 7.72247ZM37.0765 8.9545C36.5618 12.2004 33.989 16.4841 29.9732 15.9582C25.9615 15.4442 25.0549 11.8154 25.4454 8.17615C25.7659 5.2009 29.3225 0.640208 32.1715 1.29514C35.0079 1.94236 37.6024 5.71279 37.0765 8.9545ZM39.8042 15.1792C44.5907 15.1792 45.876 19.8591 45.876 21.4116C45.876 21.5293 45.8797 21.6757 45.884 21.8458C45.9368 23.934 46.0799 29.5969 40.5783 29.7188C34.6222 29.8479 34.374 25.6939 34.374 22.7158C34.374 19.5954 35.0079 15.1792 39.8042 15.1792ZM29.9732 25.0466C33.5964 30.2384 39.8042 35.0403 39.8042 35.0403C39.8042 35.0403 44.4546 38.6789 41.4815 45.6855C38.5119 52.6976 27.6444 49.0534 27.6444 49.0534C27.6444 49.0534 23.6363 47.7618 18.9775 48.7989C14.3284 49.8388 10.3196 49.4468 10.3196 49.4468C10.3196 49.4468 4.88025 49.5772 3.32917 42.7004C2.01423 36.8526 6.85215 33.2525 8.65682 31.9095C8.9761 31.6719 9.20044 31.505 9.27897 31.4088C9.40808 31.2457 9.73013 30.9701 10.1769 30.5878C11.521 29.4377 13.9938 27.3216 15.7399 24.3966C18.0736 20.5091 25.0535 17.3915 29.9732 25.0466ZM18.0049 28.3457V32.9653H14.2408C14.2408 32.9653 10.4788 33.2774 9.16188 37.5415C8.73249 40.203 9.46019 41.8417 9.67997 42.3366C9.69528 42.3711 9.70813 42.4 9.71794 42.4233C9.87011 42.7809 11.086 44.8635 14.1391 45.475H21.2024V28.3962L18.0049 28.3457ZM17.9481 42.6715H15.1026C15.1026 42.6715 13.1202 42.5685 12.5165 40.286C12.2051 39.2749 12.5628 38.1066 12.7198 37.6473C12.8636 37.1873 13.529 36.1243 14.9013 35.7148H17.9474L17.9481 42.6715ZM22.9322 33.3797V42.3721C22.9322 42.3721 23.0794 44.6097 26.2349 45.4252H34.3634V33.3783H30.8552V42.4219H27.5076C27.5076 42.4219 26.4376 42.2662 26.2363 41.4065V33.3264L22.9322 33.3797Z" fill="#3865AF"/>
<rect x="1.15625" y="62.5" width="45" height="18" rx="4.5" stroke="#3865AF"/>
<path d="M25.6562 62H41.6562C44.4177 62 46.6562 64.2386 46.6562 67V76C46.6562 78.7614 44.4177 81 41.6562 81H25.6562V62Z" fill="#3865AF"/>
<g clip-path="url(#clip0)">
<path d="M41.2308 75.4564L39.2557 73.4813C39.6149 72.7631 39.8543 71.9252 39.8543 71.0873C39.8543 68.2743 37.5799 66 34.767 66C31.954 66 29.6797 68.2743 29.6797 71.0873C29.6797 73.9002 31.954 76.1746 34.767 76.1746C35.6049 76.1746 36.4428 75.9352 37.161 75.5761L39.136 77.5511C39.7346 78.1496 40.6323 78.1496 41.2308 77.5511C41.7695 76.9526 41.7695 76.0549 41.2308 75.4564ZM34.767 74.9776C32.6124 74.9776 30.8767 73.2419 30.8767 71.0873C30.8767 68.9327 32.6124 67.197 34.767 67.197C36.9216 67.197 38.6572 68.9327 38.6572 71.0873C38.6572 73.2419 36.9216 74.9776 34.767 74.9776Z" fill="white"/>
</g>
<defs>
<clipPath id="clip0">
<rect width="12" height="12" fill="white" transform="translate(29.6562 66)"/>
</clipPath>
</defs>
</svg>
