<svg width="47" height="79" viewBox="0 0 47 79" fill="none" xmlns="http://www.w3.org/2000/svg">
<path fill-rule="evenodd" clip-rule="evenodd" d="M7.08709 26.8758C12.617 25.6877 11.877 19.0847 11.7123 17.6146L11.7111 17.6042C11.4379 15.369 8.81082 11.466 5.24607 11.7778C1.51068 12.1106 0.43037 16.6571 0.173071 18.1728C0.117771 18.4985 0.0630576 18.8205 0.0302562 19.1493C-0.284214 22.3014 1.83792 28.0081 7.08709 26.8758ZM17.3808 15.7588C20.4406 15.7588 22.9139 12.2327 22.9139 7.87691C22.9139 3.5204 20.4406 0 17.3808 0C14.3196 0 11.8399 3.5204 11.8399 7.87691C11.8399 12.2327 14.3189 15.7588 17.3808 15.7588ZM30.5727 16.2774C34.6688 16.8138 37.293 12.4444 37.818 9.13359C38.3544 5.82704 35.7081 1.98121 32.8149 1.32104C29.9089 0.653012 26.2812 5.30492 25.9544 8.33967C25.556 12.0518 26.4808 15.7531 30.5727 16.2774ZM46.7935 21.8398C46.7935 20.2563 45.4825 15.4828 40.6003 15.4828C35.7081 15.4828 35.0615 19.9873 35.0615 23.1701C35.0615 26.2077 35.3147 30.4448 41.3899 30.3132C47.0015 30.1889 46.8555 24.4127 46.8017 22.2827C46.7973 22.1092 46.7935 21.9599 46.7935 21.8398ZM40.6198 35.7569C40.6055 35.7452 40.5941 35.7364 40.5795 35.725C40.181 35.4141 34.1451 30.6667 30.5727 25.5476C25.5545 17.7393 18.4351 20.9193 16.0547 24.8846C14.2737 27.868 11.7514 30.0264 10.3805 31.1995L10.3805 31.1995C9.92474 31.5895 9.59624 31.8706 9.46455 32.0369C9.38445 32.1351 9.15564 32.3054 8.82999 32.5477L8.82996 32.5477C6.9892 33.9175 2.05451 37.5896 3.39575 43.5544C4.65758 49.1488 8.44217 50.1967 9.92277 50.3917C10.3242 50.4445 10.7259 50.456 11.1304 50.4764C12.4369 50.5423 15.7031 50.5921 19.357 49.7748C23.7881 48.7885 27.642 49.8673 28.1424 50.0176C28.1801 50.0289 28.2103 50.0389 28.2477 50.0509C29.0578 50.3104 39.4014 53.4699 42.3111 46.5992C45.2296 39.7214 40.9462 36.0253 40.6198 35.7569ZM16.0273 33.6246C17.3182 33.6246 18.3647 32.5781 18.3647 31.2872V30.5693C18.3647 29.6586 19.1106 28.9244 20.0212 28.9388C20.9117 28.9529 21.6262 29.6787 21.6262 30.5693V39.8298C21.6262 43.4498 18.6915 46.3845 15.0715 46.3845C14.6393 46.3845 14.2048 46.3503 13.7894 46.231C11.1376 45.4694 10.0563 43.6108 9.91201 43.2718C9.90203 43.248 9.88899 43.2187 9.87344 43.1837L9.87328 43.1833C9.64911 42.6785 8.90685 41.007 9.34483 38.2923C10.5296 34.4559 13.6549 33.7558 14.3756 33.644C14.4761 33.6284 14.5762 33.6246 14.6779 33.6246H16.0273ZM15.3324 43.5179C15.381 43.5239 15.4288 43.525 15.4778 43.525C17.0402 43.525 18.3066 42.2584 18.3065 40.696L18.3063 39.1401C18.3062 37.6428 17.0923 36.4291 15.595 36.4291C15.3324 36.4291 15.0685 36.4607 14.8263 36.5622C13.6774 37.0435 13.1069 37.9748 12.9739 38.4003C12.8137 38.8688 12.449 40.0603 12.7665 41.0917C13.313 43.1578 14.9669 43.4731 15.3324 43.5179ZM23.4442 43.5108C23.396 43.3192 23.3914 43.1207 23.3914 42.9231V35.7055C23.3914 34.7854 24.1294 34.0354 25.0493 34.0206C25.9905 34.0054 26.7616 34.7642 26.7616 35.7055V41.3937C26.7616 41.9525 26.7754 42.5816 27.2215 42.9181C27.432 43.0769 27.6671 43.168 27.8345 43.2176C27.9815 43.2612 28.1353 43.2703 28.2887 43.2703C30.0473 43.2703 31.4729 41.8447 31.4729 40.0862V35.8351C31.4729 34.8469 32.2739 34.0459 33.262 34.0459C34.2502 34.0459 35.0512 34.8469 35.0512 35.8351V40.1898C35.0512 43.583 32.3005 46.3337 28.9073 46.3337H27.6953C27.0744 46.3337 26.4456 46.2772 25.872 46.0395C24.0899 45.3013 23.5847 44.0695 23.4442 43.5108ZM0.679688 65C0.679688 62.2386 2.91826 60 5.67969 60H41.6797C44.4411 60 46.6797 62.2386 46.6797 65V74C46.6797 76.7614 44.4411 79 41.6797 79H5.67969C2.91826 79 0.679688 76.7614 0.679688 74V65ZM33.8026 74.21C32.7852 74.21 31.9312 73.9953 31.2406 73.566C30.8627 73.3279 30.5466 73.0382 30.2922 72.6968C29.9292 72.2096 30.1811 71.5514 30.7064 71.2459C31.3605 70.8654 32.1798 71.2366 32.8464 71.5949C33.1379 71.7516 33.4799 71.83 33.8726 71.83C34.6379 71.83 35.0206 71.6107 35.0206 71.172C35.0206 70.892 34.8012 70.6587 34.3626 70.472C34.2132 70.416 33.8026 70.29 33.1306 70.094C32.1786 69.8233 31.4552 69.4453 30.9606 68.96C30.4659 68.4747 30.2186 67.8307 30.2186 67.028C30.2186 66.1227 30.5406 65.39 31.1846 64.83C31.8472 64.27 32.6592 63.99 33.6206 63.99C34.4419 63.99 35.1699 64.186 35.8046 64.578C36.1381 64.7791 36.4304 65.0266 36.6814 65.3204C37.0795 65.7865 36.8564 66.4671 36.3277 66.7773C35.7092 67.1401 34.9333 66.7647 34.2713 66.4889C34.0809 66.4096 33.8687 66.37 33.6346 66.37C33.3452 66.37 33.1212 66.4307 32.9626 66.552C32.8039 66.664 32.7246 66.818 32.7246 67.014C32.7246 67.2287 32.8366 67.4107 33.0606 67.56C33.2939 67.7093 33.7419 67.882 34.4046 68.078C34.8992 68.2273 35.2819 68.358 35.5526 68.47C35.8606 68.6007 36.1779 68.778 36.5046 69.002C37.1859 69.45 37.5266 70.164 37.5266 71.144C37.5266 72.1053 37.1859 72.8567 36.5046 73.398C35.8232 73.9393 34.9226 74.21 33.8026 74.21ZM17.1627 73.293C17.2873 73.7124 17.6727 74 18.1102 74H18.3196C19.1842 74 19.7956 73.1543 19.5247 72.3333L17.3189 65.6491C17.0335 64.7842 16.2255 64.2 15.3147 64.2C14.4039 64.2 13.5959 64.7842 13.3105 65.6491L11.1076 72.3246C10.8352 73.1499 11.4498 74 12.3189 74H12.5332C12.9707 74 13.3561 73.7124 13.4807 73.293C13.6053 72.8736 13.9907 72.586 14.4282 72.586H16.2152C16.6527 72.586 17.0381 72.8736 17.1627 73.293ZM15.3197 70.43C14.8277 70.43 14.4738 69.9571 14.6126 69.485C14.8197 68.781 15.8162 68.7791 16.026 69.4823C16.167 69.9549 15.8129 70.43 15.3197 70.43ZM24.7773 64.2C22.5737 64.2 20.7873 65.9864 20.7873 68.19V70.01C20.7873 72.2136 22.5737 74 24.7773 74C26.1306 74 27.2599 73.5333 28.1653 72.6C29.0799 71.6573 29.5373 70.4907 29.5373 69.1C29.5373 67.7187 29.0799 66.5567 28.1653 65.614C27.2506 64.6713 26.1213 64.2 24.7773 64.2ZM24.7773 71.578C23.9963 71.578 23.3633 70.9449 23.3633 70.164V68.036C23.3633 67.2551 23.9963 66.622 24.7773 66.622C25.4586 66.622 26.0139 66.8507 26.4433 67.308C26.8726 67.7467 27.0873 68.344 27.0873 69.1C27.0873 69.8467 26.8726 70.4487 26.4433 70.906C26.0046 71.354 25.4493 71.578 24.7773 71.578Z" fill="url(#paint0_linear)"/>
<defs>
<linearGradient id="paint0_linear" x1="6.70594" y1="14.9089" x2="3.11554" y2="69.2959" gradientUnits="userSpaceOnUse">
<stop stop-color="#1D13DA"/>
<stop offset="1" stop-color="#1C15A6"/>
</linearGradient>
</defs>
</svg>
