<svg width="50" height="75" viewBox="0 0 50 75" fill="none" xmlns="http://www.w3.org/2000/svg">
<path fill-rule="evenodd" clip-rule="evenodd" d="M6.94813 26.3488C12.3696 25.1841 11.6441 18.7105 11.4826 17.2692L11.4815 17.259C11.2136 15.0677 8.63806 11.2412 5.14321 11.5469C0.743091 11.9389 0.100778 18.2947 0.100778 18.2947C-0.495254 21.2377 1.52284 27.5191 6.94813 26.3488ZM17.04 15.4498C20.0398 15.4498 22.4646 11.9929 22.4646 7.72247C22.4646 3.45137 20.0398 0 17.04 0C14.0388 0 11.6077 3.45137 11.6077 7.72247C11.6077 11.9929 14.0381 15.4498 17.04 15.4498ZM29.9732 15.9582C33.989 16.4841 36.5618 12.2004 37.0765 8.9545C37.6024 5.71279 35.0079 1.94236 32.1715 1.29514C29.3225 0.640208 25.7659 5.2009 25.4454 8.17615C25.0549 11.8154 25.9615 15.4442 29.9732 15.9582ZM45.876 21.4116C45.876 19.8591 44.5907 15.1792 39.8042 15.1792C35.0079 15.1792 34.374 19.5954 34.374 22.7158C34.374 25.6939 34.6222 29.8479 40.5783 29.7188C46.0799 29.5969 45.9368 23.934 45.884 21.8458V21.8457C45.8797 21.6756 45.876 21.5293 45.876 21.4116ZM39.8042 35.0403C39.8042 35.0403 33.5964 30.2384 29.9732 25.0466C25.0535 17.3915 18.0736 20.5091 15.7399 24.3966C13.9938 27.3216 11.521 29.4377 10.1769 30.5878C9.73013 30.9701 9.40808 31.2457 9.27897 31.4088C9.20044 31.505 8.97611 31.6719 8.65684 31.9095L8.65682 31.9095C6.85215 33.2525 2.01423 36.8526 3.32917 42.7004C4.88025 49.5772 10.3196 49.4468 10.3196 49.4468C10.3196 49.4468 14.3284 49.8388 18.9775 48.7989C23.6363 47.7618 27.6444 49.0534 27.6444 49.0534C27.6444 49.0534 38.5119 52.6976 41.4815 45.6855C44.4546 38.6789 39.8042 35.0403 39.8042 35.0403ZM18.0049 32.9653V28.3457L21.2024 28.3962V45.475H14.1391C11.086 44.8635 9.87011 42.7809 9.71794 42.4233C9.70813 42.4 9.69528 42.3711 9.67997 42.3366C9.46019 41.8417 8.73249 40.203 9.16188 37.5415C10.4788 33.2774 14.2408 32.9653 14.2408 32.9653H18.0049ZM15.1026 42.6715H17.9481L17.9474 35.7148H14.9013C13.529 36.1243 12.8636 37.1873 12.7198 37.6473C12.5628 38.1066 12.2051 39.2749 12.5165 40.286C13.1202 42.5685 15.1026 42.6715 15.1026 42.6715ZM22.9322 42.3721V33.3797L26.2363 33.3264V41.4065C26.4376 42.2662 27.5076 42.4219 27.5076 42.4219H30.8552V33.3783H34.3634V45.4252H26.2349C23.0794 44.6097 22.9322 42.3721 22.9322 42.3721ZM4.95369 73.8883C5.94601 74.5051 7.17301 74.8136 8.63467 74.8136C10.2438 74.8136 11.5379 74.4247 12.5168 73.6469C13.4957 72.8692 13.9852 71.7897 13.9852 70.4085C13.9852 69.0004 13.4957 67.9746 12.5168 67.3309C12.0475 67.0091 11.5915 66.7543 11.149 66.5666C10.7601 66.4057 10.2103 66.2179 9.4996 66.0034C8.54751 65.7218 7.90384 65.4737 7.56859 65.2591C7.24676 65.0446 7.08584 64.7831 7.08584 64.4746C7.08584 64.193 7.19982 63.9718 7.42779 63.8109C7.65576 63.6365 7.97759 63.5494 8.39329 63.5494C8.72967 63.5494 9.03464 63.6063 9.3082 63.7203C9.37574 63.7484 9.4441 63.7773 9.51315 63.8064L9.51354 63.8066L9.51401 63.8068L9.51411 63.8068C10.4172 64.188 11.4375 64.6187 12.2627 64.1345C13.0223 63.6889 13.3429 62.711 12.7709 62.0414C12.4102 61.6192 11.9902 61.2636 11.5111 60.9747C10.5992 60.4115 9.55324 60.1299 8.37318 60.1299C6.99197 60.1299 5.82532 60.5322 4.87323 61.3368C3.94796 62.1413 3.48532 63.194 3.48532 64.4948C3.48532 65.648 3.84068 66.5733 4.5514 67.2706C5.26211 67.9679 6.30137 68.511 7.66917 68.8999C8.63467 69.1815 9.2247 69.3625 9.43925 69.443C10.0695 69.7112 10.3846 70.0464 10.3846 70.4487C10.3846 71.079 9.83484 71.3941 8.73524 71.3941C8.17115 71.3941 7.67968 71.2815 7.26085 71.0563C6.30318 70.5415 5.126 70.0082 4.18615 70.5549C3.43154 70.9939 3.06951 71.9394 3.59115 72.6394C3.95667 73.13 4.41085 73.5462 4.95369 73.8883ZM20.2022 70.0967C20.2022 69.5246 20.666 69.0608 21.2381 69.0608H23.3903C24.3068 69.0608 25.0498 68.3178 25.0498 67.4013C25.0498 66.4848 24.3068 65.7419 23.3903 65.7419H21.1777C20.6389 65.7419 20.2022 65.3051 20.2022 64.7663C20.2022 64.2275 20.6389 63.7907 21.1777 63.7907H23.8731C24.8007 63.7907 25.5527 63.0388 25.5527 62.1112C25.5527 61.1836 24.8007 60.4316 23.8731 60.4316H21.0772C18.6054 60.4316 16.6016 62.4354 16.6016 64.9071V69.9861C16.6016 72.4856 18.6279 74.5119 21.1274 74.5119H23.9636C24.8968 74.5119 25.6532 73.7554 25.6532 72.8222C25.6532 71.8891 24.8968 71.1326 23.9636 71.1326H21.2381C20.666 71.1326 20.2022 70.6688 20.2022 70.0967ZM40.6441 72.7015C39.2093 74.1096 37.466 74.8136 35.4143 74.8136C33.3358 74.8136 31.5858 74.1096 30.1644 72.7015C28.743 71.2801 28.0323 69.5368 28.0323 67.4717C28.0323 65.4066 28.743 63.6701 30.1644 62.262C31.5858 60.8406 33.3358 60.1299 35.4143 60.1299C37.4794 60.1299 39.2227 60.8406 40.6441 62.262C41.7242 63.3219 42.3977 64.5679 42.6648 66H48.1553C48.9837 66 49.6553 66.6716 49.6553 67.5C49.6553 68.3284 48.9837 69 48.1553 69H42.6528C42.3779 70.4035 41.7083 71.6374 40.6441 72.7015ZM32.6989 70.2274C33.4364 70.9382 34.3416 71.2935 35.4143 71.2935C36.4871 71.2935 37.3923 70.9382 38.1298 70.2274C38.8539 69.5033 39.216 68.5847 39.216 67.4717C39.216 66.3453 38.8539 65.4334 38.1298 64.7361C37.4057 64.012 36.5005 63.6499 35.4143 63.6499C34.3281 63.6499 33.423 64.012 32.6989 64.7361C31.9747 65.4334 31.6127 66.3453 31.6127 67.4717C31.6127 68.5847 31.9747 69.5033 32.6989 70.2274Z" fill="url(#paint0_linear)"/>
<defs>
<linearGradient id="paint0_linear" x1="3.72134" y1="51.8424" x2="17.5451" y2="-8.19022" gradientUnits="userSpaceOnUse">
<stop stop-color="#7B22D5"/>
<stop offset="1" stop-color="#211DBE"/>
</linearGradient>
</defs>
</svg>
