<svg width="34" height="57" viewBox="0 0 34 57" fill="none" xmlns="http://www.w3.org/2000/svg">
<path fill-rule="evenodd" clip-rule="evenodd" d="M8.45063 12.7093C8.5695 13.77 9.1034 18.5342 5.11347 19.3914C1.40148 20.1921 -0.143223 16.2528 0.010376 13.9545C0.0324091 13.6248 0.0886526 13.3008 0.149098 12.9759C0.373539 11.7697 1.194 8.72875 3.78514 8.49792C6.35717 8.27292 8.25265 11.089 8.44979 12.7017L8.45063 12.7093ZM16.5328 5.68334C16.5328 8.82614 14.7483 11.3703 12.5406 11.3703C10.3313 11.3703 8.54268 8.82614 8.54268 5.68334C8.54268 2.54004 10.3318 0 12.5406 0C14.7483 0 16.5328 2.54004 16.5328 5.68334ZM27.2864 6.59006C26.9076 8.97889 25.0142 12.1315 22.0587 11.7444C19.1064 11.3662 18.4391 8.69557 18.7266 6.01723C18.9624 3.8276 21.5798 0.471161 23.6766 0.953159C25.764 1.42948 27.6735 4.20432 27.2864 6.59006ZM29.2939 11.1711C32.8165 11.1711 33.7624 14.6153 33.7624 15.7578C33.7624 15.8445 33.7651 15.9522 33.7683 16.0774C33.8072 17.6142 33.9125 21.7818 29.8636 21.8716C25.4802 21.9665 25.2975 18.9094 25.2975 16.7177C25.2975 14.4212 25.764 11.1711 29.2939 11.1711ZM22.0587 18.4331C24.6233 22.1079 28.9473 25.5173 29.2742 25.7726C29.2888 25.784 29.2989 25.7918 29.3132 25.8036C29.5855 26.0295 32.6196 28.6937 30.5283 33.6222C28.4447 38.542 21.0785 36.334 20.3957 36.1173C20.3582 36.1054 20.3282 36.0954 20.2904 36.0842C19.8739 35.9608 17.1231 35.2108 13.9664 35.9135C11.476 36.4706 9.23516 36.4693 8.20007 36.4274C7.79547 36.411 7.39081 36.4009 6.99157 36.3332C5.82896 36.1362 3.31609 35.2647 2.4501 31.4253C1.48237 27.1216 5.04284 24.4721 6.37098 23.4838C6.60595 23.3089 6.77106 23.1861 6.82885 23.1153C6.92387 22.9953 7.16089 22.7924 7.48972 22.511C8.47884 21.6646 10.2987 20.1073 11.5838 17.9547C13.3012 15.0937 18.4381 12.7993 22.0587 18.4331ZM14.4456 20.8799C13.7886 20.8695 13.2504 21.3992 13.2504 22.0563V22.5743C13.2504 23.5057 12.4954 24.2608 11.564 24.2608H10.5904C10.517 24.2608 10.4447 24.2635 10.3722 24.2748C9.85222 24.3554 7.59728 24.8605 6.74242 27.6286C6.42642 29.5873 6.96197 30.7933 7.12371 31.1575C7.13498 31.1829 7.14443 31.2042 7.15166 31.2214C7.25573 31.466 8.03597 32.807 9.94927 33.3565C10.249 33.4426 10.5625 33.4672 10.8743 33.4672C13.4863 33.4672 15.6037 31.3499 15.6037 28.7379V22.0563C15.6037 21.4137 15.0881 20.89 14.4456 20.8799ZM13.2084 29.3629C13.2085 30.4902 12.2947 31.404 11.1675 31.404C11.1321 31.404 11.0976 31.4033 11.0625 31.399C10.7989 31.3666 9.60555 31.1391 9.21124 29.6484C8.98211 28.9043 9.2453 28.0445 9.3609 27.7065C9.45683 27.3995 9.86848 26.7276 10.6974 26.3803C10.8722 26.3071 11.0626 26.2842 11.252 26.2842C12.3324 26.2842 13.2082 27.16 13.2083 28.2403L13.2084 29.3629ZM18.0751 24.5463C17.4113 24.557 16.8788 25.0982 16.8788 25.762V30.9696C16.8788 31.1122 16.8821 31.2554 16.9169 31.3937C17.0183 31.7968 17.3829 32.6855 18.6686 33.2182C19.0825 33.3897 19.5362 33.4305 19.9842 33.4305H20.8587C23.3069 33.4305 25.2916 31.4458 25.2916 28.9975V25.8555C25.2916 25.1425 24.7136 24.5646 24.0007 24.5646C23.2877 24.5646 22.7098 25.1425 22.7098 25.8555V28.9228C22.7098 30.1916 21.6812 31.2202 20.4123 31.2202C20.3017 31.2202 20.1907 31.2136 20.0846 31.1821C19.9639 31.1464 19.7942 31.0806 19.6423 30.966C19.3205 30.7232 19.3105 30.2693 19.3105 29.8661V25.762C19.3105 25.0828 18.7541 24.5354 18.0751 24.5463Z" fill="url(#paint0_linear)"/>
<path fill-rule="evenodd" clip-rule="evenodd" d="M5.49219 43.291C2.73076 43.291 0.492188 45.5296 0.492188 48.291V51.9999C0.492188 54.7613 2.73077 56.9999 5.49219 56.9999H28.6821C31.4435 56.9999 33.6821 54.7613 33.6821 51.9999V48.291C33.6821 45.5296 31.4435 43.291 28.6821 43.291H5.49219ZM22.5424 53.0791C23.0408 53.3889 23.6569 53.5438 24.391 53.5438C25.1991 53.5438 25.8489 53.3485 26.3405 52.9579C26.8321 52.5673 27.0779 52.0252 27.0779 51.3316C27.0779 50.6245 26.8321 50.1094 26.3405 49.7861C26.1048 49.6245 25.8759 49.4966 25.6536 49.4023C25.4583 49.3215 25.1822 49.2272 24.8253 49.1194C24.3472 48.978 24.024 48.8534 23.8556 48.7457C23.694 48.6379 23.6132 48.5066 23.6132 48.3517C23.6132 48.2103 23.6704 48.0992 23.7849 48.0184C23.8994 47.9309 24.061 47.8871 24.2698 47.8871C24.4387 47.8871 24.5918 47.9157 24.7292 47.9729C25.2068 48.1718 25.7667 48.4427 26.2129 48.1809C26.5944 47.9572 26.7554 47.4661 26.4681 47.1298C26.287 46.9178 26.0761 46.7392 25.8355 46.5941C25.3775 46.3113 24.8523 46.1699 24.2597 46.1699C23.566 46.1699 22.9802 46.3719 22.502 46.7759C22.0374 47.18 21.805 47.7086 21.805 48.3618C21.805 48.941 21.9835 49.4056 22.3404 49.7558C22.6973 50.106 23.2192 50.3787 23.9061 50.574C24.391 50.7154 24.6873 50.8064 24.795 50.8468C25.1115 50.9814 25.2698 51.1498 25.2698 51.3518C25.2698 51.6683 24.9937 51.8266 24.4415 51.8266C24.1582 51.8266 23.9114 51.77 23.7011 51.657C23.2201 51.3984 22.629 51.1306 22.157 51.4052C21.778 51.6256 21.5962 52.1004 21.8582 52.452C22.0418 52.6983 22.2698 52.9074 22.5424 53.0791ZM14.0892 52.1897C14.2847 52.7821 13.8435 53.3923 13.2197 53.3923H13.0686C12.753 53.3923 12.4749 53.1848 12.385 52.8822C12.2951 52.5796 12.017 52.372 11.7013 52.372H10.412C10.0963 52.372 9.81823 52.5796 9.72835 52.8822C9.63847 53.1848 9.36036 53.3923 9.04469 53.3923H8.8901C8.26306 53.3923 7.81959 52.7789 8.01609 52.1835L9.60554 47.367C9.81147 46.7429 10.3945 46.3214 11.0516 46.3214C11.7088 46.3214 12.2918 46.7429 12.4977 47.367L14.0892 52.1897ZM11.5648 50.1327C11.4135 49.6253 10.6945 49.6267 10.5451 50.1346C10.4449 50.4752 10.7002 50.8165 11.0552 50.8165C11.4111 50.8165 11.6666 50.4737 11.5648 50.1327ZM15.0002 49.2002C15.0002 47.6103 16.2891 46.3214 17.879 46.3214C18.8488 46.3214 19.6636 46.6615 20.3236 47.3416C20.9835 48.0218 21.3135 48.8602 21.3135 49.8568C21.3135 50.8602 20.9835 51.702 20.3236 52.3821C19.6703 53.0556 18.8555 53.3923 17.879 53.3923C16.2891 53.3923 15.0002 52.1034 15.0002 50.5134V49.2002ZM16.8588 50.6245C16.8588 51.188 17.3156 51.6448 17.879 51.6448C18.3639 51.6448 18.7646 51.4831 19.0811 51.1599C19.3909 50.8299 19.5458 50.3956 19.5458 49.8568C19.5458 49.3114 19.3909 48.8804 19.0811 48.5639C18.7713 48.2339 18.3706 48.0689 17.879 48.0689C17.3156 48.0689 16.8588 48.5257 16.8588 49.0891V50.6245Z" fill="url(#paint1_linear)"/>
<defs>
<linearGradient id="paint0_linear" x1="4.83846" y1="6.94442" x2="3.75609" y2="32.3417" gradientUnits="userSpaceOnUse">
<stop stop-color="#1D13DA"/>
<stop offset="1" stop-color="#1C15A6"/>
</linearGradient>
<linearGradient id="paint1_linear" x1="5.24641" y1="45.8782" x2="5.09329" y2="55.3546" gradientUnits="userSpaceOnUse">
<stop stop-color="#1D13DA"/>
<stop offset="1" stop-color="#1C15A6"/>
</linearGradient>
</defs>
</svg>
