<svg width="47" height="81" viewBox="0 0 47 81" fill="none" xmlns="http://www.w3.org/2000/svg">
<path fill-rule="evenodd" clip-rule="evenodd" d="M11.8264 17.2692C11.9879 18.7105 12.7134 25.1841 7.29188 26.3488C1.86659 27.5191 -0.151504 21.2377 0.444528 18.2947C0.444528 18.2947 1.08684 11.9389 5.48696 11.5469C8.98181 11.2412 11.5574 15.0677 11.8252 17.259L11.8264 17.2692ZM22.8083 7.72247C22.8083 11.9929 20.3835 15.4498 17.3837 15.4498C14.3819 15.4498 11.9514 11.9929 11.9514 7.72247C11.9514 3.45137 14.3826 0 17.3837 0C20.3835 0 22.8083 3.45137 22.8083 7.72247ZM37.4202 8.9545C36.9055 12.2004 34.3328 16.4841 30.3169 15.9582C26.3053 15.4442 25.3986 11.8154 25.7892 8.17615C26.1097 5.2009 29.6662 0.640208 32.5152 1.29514C35.3516 1.94236 37.9461 5.71279 37.4202 8.9545ZM40.1479 15.1792C44.9344 15.1792 46.2198 19.8591 46.2198 21.4116C46.2198 21.5293 46.2235 21.6757 46.2278 21.8458C46.2805 23.934 46.4237 29.5969 40.9221 29.7188C34.966 29.8479 34.7177 25.6939 34.7177 22.7158C34.7177 19.5954 35.3516 15.1792 40.1479 15.1792ZM30.3169 25.0466C33.9401 30.2384 40.1479 35.0403 40.1479 35.0403C40.1479 35.0403 44.7984 38.6789 41.8252 45.6855C38.8556 52.6976 27.9882 49.0534 27.9882 49.0534C27.9882 49.0534 23.9801 47.7618 19.3212 48.7989C14.6722 49.8388 10.6633 49.4468 10.6633 49.4468C10.6633 49.4468 5.224 49.5772 3.67292 42.7004C2.35798 36.8526 7.1959 33.2525 9.00057 31.9095C9.31985 31.6719 9.54419 31.505 9.62272 31.4088C9.75183 31.2457 10.0739 30.9701 10.5207 30.5878C11.8647 29.4377 14.3376 27.3216 16.0837 24.3966C18.4173 20.5091 25.3972 17.3915 30.3169 25.0466ZM18.3486 28.3457V32.9653H14.5845C14.5845 32.9653 10.8225 33.2774 9.50563 37.5415C9.07624 40.203 9.80394 41.8417 10.0237 42.3366C10.039 42.3711 10.0519 42.4 10.0617 42.4233C10.2139 42.7809 11.4298 44.8635 14.4828 45.475H21.5462V28.3962L18.3486 28.3457ZM18.2918 42.6715H15.4463C15.4463 42.6715 13.464 42.5685 12.8602 40.286C12.5489 39.2749 12.9065 38.1066 13.0636 37.6473C13.2073 37.1873 13.8728 36.1243 15.2451 35.7148H18.2911L18.2918 42.6715ZM23.2759 33.3797V42.3721C23.2759 42.3721 23.4232 44.6097 26.5787 45.4252H34.7071V33.3783H31.199V42.4219H27.8514C27.8514 42.4219 26.7813 42.2662 26.5801 41.4065V33.3264L23.2759 33.3797Z" fill="white"/>
<rect x="1.5" y="62.5" width="45" height="18" rx="4.5" stroke="white"/>
<path d="M26 62H42C44.7614 62 47 64.2386 47 67V76C47 78.7614 44.7614 81 42 81H26V62Z" fill="white"/>
<path d="M41.5726 75.4564L39.5975 73.4813C39.9566 72.7631 40.196 71.9252 40.196 71.0873C40.196 68.2743 37.9217 66 35.1088 66C32.2958 66 30.0215 68.2743 30.0215 71.0873C30.0215 73.9002 32.2958 76.1746 35.1088 76.1746C35.9467 76.1746 36.7846 75.9352 37.5028 75.5761L39.4778 77.5511C40.0763 78.1496 40.9741 78.1496 41.5726 77.5511C42.1113 76.9526 42.1113 76.0549 41.5726 75.4564ZM35.1088 74.9776C32.9542 74.9776 31.2185 73.2419 31.2185 71.0873C31.2185 68.9327 32.9542 67.197 35.1088 67.197C37.2634 67.197 38.999 68.9327 38.999 71.0873C38.999 73.2419 37.2634 74.9776 35.1088 74.9776Z" fill="#456AB7"/>
</svg>
