<svg width="50" height="75" viewBox="0 0 50 75" fill="none" xmlns="http://www.w3.org/2000/svg">
<path fill-rule="evenodd" clip-rule="evenodd" d="M11.8264 17.2692C11.9879 18.7105 12.7134 25.1841 7.29188 26.3488C1.86659 27.5191 -0.151504 21.2377 0.444528 18.2947C0.444528 18.2947 1.08684 11.9389 5.48696 11.5469C8.98181 11.2412 11.5574 15.0677 11.8252 17.259L11.8264 17.2692ZM22.8083 7.72247C22.8083 11.9929 20.3835 15.4498 17.3837 15.4498C14.3819 15.4498 11.9514 11.9929 11.9514 7.72247C11.9514 3.45137 14.3826 0 17.3837 0C20.3835 0 22.8083 3.45137 22.8083 7.72247ZM37.4202 8.9545C36.9055 12.2004 34.3328 16.4841 30.3169 15.9582C26.3053 15.4442 25.3986 11.8154 25.7892 8.17615C26.1097 5.2009 29.6662 0.640208 32.5152 1.29514C35.3516 1.94236 37.9461 5.71279 37.4202 8.9545ZM40.1479 15.1792C44.9344 15.1792 46.2198 19.8591 46.2198 21.4116C46.2198 21.5293 46.2235 21.6757 46.2278 21.8458C46.2805 23.934 46.4237 29.5969 40.9221 29.7188C34.966 29.8479 34.7177 25.6939 34.7177 22.7158C34.7177 19.5954 35.3516 15.1792 40.1479 15.1792ZM30.3169 25.0466C33.9401 30.2384 40.1479 35.0403 40.1479 35.0403C40.1479 35.0403 44.7984 38.6789 41.8252 45.6855C38.8556 52.6976 27.9882 49.0534 27.9882 49.0534C27.9882 49.0534 23.9801 47.7618 19.3212 48.7989C14.6722 49.8388 10.6633 49.4468 10.6633 49.4468C10.6633 49.4468 5.224 49.5772 3.67292 42.7004C2.35798 36.8526 7.1959 33.2525 9.00057 31.9095C9.31985 31.6719 9.54419 31.505 9.62272 31.4088C9.75183 31.2457 10.0739 30.9701 10.5207 30.5878C11.8647 29.4377 14.3376 27.3216 16.0837 24.3966C18.4173 20.5091 25.3972 17.3915 30.3169 25.0466ZM18.3486 28.3457V32.9653H14.5845C14.5845 32.9653 10.8225 33.2774 9.50563 37.5415C9.07624 40.203 9.80394 41.8417 10.0237 42.3366C10.039 42.3711 10.0519 42.4 10.0617 42.4233C10.2139 42.7809 11.4298 44.8635 14.4828 45.475H21.5462V28.3962L18.3486 28.3457ZM18.2918 42.6715H15.4463C15.4463 42.6715 13.464 42.5685 12.8602 40.286C12.5489 39.2749 12.9065 38.1066 13.0636 37.6473C13.2073 37.1873 13.8728 36.1243 15.2451 35.7148H18.2911L18.2918 42.6715ZM23.2759 33.3797V42.3721C23.2759 42.3721 23.4232 44.6097 26.5787 45.4252H34.7071V33.3783H31.199V42.4219H27.8514C27.8514 42.4219 26.7813 42.2662 26.5801 41.4065V33.3264L23.2759 33.3797Z" fill="white"/>
<path d="M8.97935 74.8136C7.51769 74.8136 6.29069 74.5052 5.29837 73.8883C4.31946 73.2715 3.62886 72.4132 3.22656 71.3136L6.3041 69.5234C6.82708 70.7705 7.75236 71.3941 9.07992 71.3941C10.1795 71.3941 10.7293 71.079 10.7293 70.4487C10.7293 70.0464 10.4142 69.7112 9.78394 69.443C9.56938 69.3625 8.97935 69.1815 8.01385 68.8999C6.64605 68.511 5.6068 67.9679 4.89608 67.2706C4.18536 66.5733 3.83 65.648 3.83 64.4948C3.83 63.194 4.29264 62.1413 5.21791 61.3368C6.17001 60.5322 7.33665 60.1299 8.71786 60.1299C9.89792 60.1299 10.9439 60.4115 11.8557 60.9747C12.7676 61.5245 13.4649 62.3157 13.9477 63.3482L10.9305 65.1183C10.488 64.0724 9.75712 63.5494 8.73798 63.5494C8.32227 63.5494 8.00044 63.6365 7.77247 63.8109C7.54451 63.9718 7.43052 64.193 7.43052 64.4746C7.43052 64.7831 7.59144 65.0446 7.91328 65.2591C8.24852 65.4737 8.89219 65.7218 9.84428 66.0034C10.555 66.2179 11.1048 66.4057 11.4937 66.5666C11.9362 66.7543 12.3921 67.0091 12.8615 67.3309C13.8404 67.9746 14.3298 69.0004 14.3298 70.4085C14.3298 71.7897 13.8404 72.8692 12.8615 73.6469C11.8826 74.4247 10.5885 74.8136 8.97935 74.8136Z" fill="white"/>
<path d="M20.5468 69.0608V71.1326H25.9979V74.5119H16.9463V60.4316H25.8973V63.7907H20.5468V65.7419H25.3945V69.0608H20.5468Z" fill="white"/>
<path d="M40.9888 72.7015C39.554 74.1096 37.8107 74.8136 35.759 74.8136C33.6805 74.8136 31.9305 74.1096 30.5091 72.7015C29.0877 71.2801 28.3769 69.5368 28.3769 67.4717C28.3769 65.4066 29.0877 63.6701 30.5091 62.262C31.9305 60.8406 33.6805 60.1299 35.759 60.1299C37.8241 60.1299 39.5674 60.8406 40.9888 62.262C42.4237 63.6701 43.1411 65.4066 43.1411 67.4717C43.1411 69.5234 42.4237 71.2667 40.9888 72.7015ZM33.0435 70.2274C33.7811 70.9382 34.6862 71.2935 35.759 71.2935C36.8318 71.2935 37.737 70.9382 38.4745 70.2274C39.1986 69.5033 39.5607 68.5847 39.5607 67.4717C39.5607 66.3453 39.1986 65.4334 38.4745 64.7361C37.7504 64.012 36.8452 63.6499 35.759 63.6499C34.6728 63.6499 33.7677 64.012 33.0435 64.7361C32.3194 65.4334 31.9573 66.3453 31.9573 67.4717C31.9573 68.5847 32.3194 69.5033 33.0435 70.2274Z" fill="white"/>
<path fill-rule="evenodd" clip-rule="evenodd" d="M50 69H41V66H50V69Z" fill="white"/>
</svg>
