<svg width="1049" height="583" viewBox="0 0 1049 583" fill="none" xmlns="http://www.w3.org/2000/svg">
<g clip-path="url(#clip0)">
<path d="M0 620C29.3333 520.258 142.019 280.556 334 329.775C549 384.895 670.593 317.998 695 262.28C763 107.044 873 32.7998 1089 35.0496" stroke="#F8F3FF" stroke-width="7"/>
<path d="M19 620C102.333 540.152 343.24 358.508 620 420.944C954 496.293 983.151 45.3036 1008 -3.03531C1045 -75.0105 1120 -58.1417 1159 -28.9014" stroke="#F8F3FF" stroke-width="7"/>
<path d="M96 622C134 572.333 241 477.4 365 495C520 517 638 433 641 353C644 273 727 69 1009 148C1234.6 211.2 1340.33 82.3333 1365 10" stroke="#F8F3FF" stroke-width="7"/>
<g opacity="0.1" filter="url(#filter0_d)">
<rect x="265" y="123" width="10" height="10" rx="2" fill="url(#paint0_linear)"/>
<rect x="569" y="198" width="10" height="10" rx="2" fill="url(#paint1_linear)"/>
<rect x="777" y="510" width="10" height="10" rx="2" fill="url(#paint2_linear)"/>
<rect x="865" y="333" width="10" height="10" rx="2" fill="url(#paint3_linear)"/>
<rect x="381" y="482" width="10" height="10" rx="2" fill="url(#paint4_linear)"/>
<rect x="886" y="128" width="10" height="10" rx="2" fill="url(#paint5_linear)"/>
<rect x="1021" y="97" width="10" height="10" rx="2" fill="url(#paint6_linear)"/>
<rect x="1011" y="5" width="10" height="10" rx="2" fill="url(#paint7_linear)"/>
</g>
<g clip-path="url(#clip1)">
<g filter="url(#filter1_d)">
<rect x="239" y="437" width="62" height="62" rx="10" fill="white"/>
</g>
<path d="M263.114 457.791L263.784 456.894L263.64 457.154C263.623 457.184 263.632 457.223 263.658 457.241C263.685 457.26 263.72 457.251 263.736 457.221L264.002 456.742L264.272 457.226C264.288 457.256 264.323 457.265 264.349 457.247C264.376 457.228 264.384 457.189 264.367 457.16L264.224 456.899L264.878 457.834C264.88 458.619 264.537 458.838 264.166 458.989H263.842C263.498 458.795 263.139 458.59 263.114 457.791ZM269.737 458.765L261.19 464.551L261.191 453L269.737 458.765ZM262.375 459.031C262.529 459.185 262.872 459.254 263.284 459.254C263.697 459.254 263.883 459.174 263.871 459.114H264.137C264.125 459.174 264.48 459.268 264.793 459.268C265.106 459.268 265.489 459.166 265.602 459.053C265.714 458.94 265.866 458.249 265.47 457.85C265.467 457.842 264.138 456.666 264.138 456.666C264.216 456.678 264.294 456.686 264.373 456.689C264.414 456.691 264.454 456.685 264.493 456.672C264.609 456.622 264.666 456.475 264.621 456.346C264.576 456.216 264.446 456.152 264.33 456.202C264.234 456.244 264.051 456.501 264.015 456.552L264.009 456.56C264.006 456.56 264.002 456.56 263.999 456.56L263.993 456.552C263.956 456.501 263.774 456.244 263.678 456.203C263.562 456.152 263.432 456.216 263.387 456.346C263.386 456.348 263.386 456.35 263.385 456.351C263.342 456.48 263.4 456.624 263.515 456.673C263.554 456.685 263.594 456.691 263.635 456.689C263.711 456.687 263.786 456.679 263.862 456.668C263.862 456.668 262.531 457.847 262.528 457.862C262.121 458.273 262.222 458.876 262.375 459.031ZM265.648 459.715H264.027H262.402V459.924C262.402 459.924 263.336 459.944 263.808 461.228H264.242C264.714 459.944 265.648 459.925 265.648 459.925V459.715H265.648ZM263.637 456.318C263.624 456.313 263.61 456.31 263.596 456.31C263.535 456.309 263.485 456.364 263.484 456.433C263.483 456.451 263.487 456.469 263.494 456.486C263.506 456.517 263.528 456.54 263.555 456.552C263.651 456.565 263.747 456.561 263.842 456.542C263.784 456.457 263.715 456.381 263.637 456.318ZM264.453 456.554C264.51 456.529 264.538 456.456 264.516 456.392C264.493 456.327 264.428 456.295 264.371 456.321C264.293 456.383 264.225 456.459 264.167 456.544C264.261 456.563 264.357 456.567 264.453 456.554ZM258.009 458.665L257.817 458.272L257.625 458.665L257.195 458.727L257.506 459.033L257.432 459.464L257.817 459.261L258.201 459.464L258.128 459.033L258.439 458.727L258.009 458.665ZM260.605 453L260.606 464.551L252.059 458.765L260.605 453ZM260.261 458.235L258.717 457.068L258.709 456.996L258.623 456.997L258.622 456.996L258.622 456.997L258.573 456.998C258.491 457.283 258.158 457.497 257.758 457.497C257.371 457.497 257.048 457.296 256.954 457.024L256.836 457.025L255.197 458.264L256.017 459.178L256.708 458.774L256.544 461.007H259.149L258.911 458.839L259.441 459.149L260.261 458.235ZM283.34 459.684C283.339 459.684 283.287 459.703 283.135 459.643C283.025 459.601 282.996 459.55 282.995 459.528C283 459.482 282.968 459.439 282.922 459.432C282.875 459.423 282.829 459.456 282.821 459.504C282.818 459.524 282.797 459.702 283.072 459.809C283.18 459.85 283.258 459.864 283.315 459.864C283.383 459.864 283.42 459.844 283.436 459.831C283.475 459.801 283.487 459.741 283.457 459.703C283.427 459.664 283.378 459.654 283.34 459.684ZM288 458.765L279.453 464.551L279.454 453L288 458.765ZM280.956 458.6C280.956 458.6 281.476 458.677 281.911 458.286C282.346 457.895 282.532 457.183 282.532 457.183C282.532 457.183 281.593 457.302 281.253 457.623C280.827 458.024 280.956 458.6 280.956 458.6ZM284.337 460.006C284.337 459.678 284.179 459.397 283.843 459.277C283.736 459.239 283.548 459.277 283.418 459.28C283.422 459.114 283.414 458.738 283.287 458.439C283.219 458.28 283.144 458.158 283.083 458.06C283.002 457.929 282.943 457.833 282.943 457.722C282.943 457.72 282.942 457.719 282.942 457.717C282.942 457.69 282.943 457.663 282.943 457.634C282.943 457.24 282.964 457.072 282.964 457.07C282.97 457.022 282.936 456.977 282.888 456.971C282.841 456.965 282.796 456.999 282.79 457.047C282.789 457.054 282.767 457.226 282.767 457.634C282.767 457.993 282.767 458.128 282.365 458.533C282.241 458.658 282.142 458.764 282.03 458.885L281.913 459.011C281.752 459.183 281.571 459.445 281.547 459.479C281.418 459.472 281.256 459.458 281.167 459.495C280.886 459.61 280.792 459.854 280.792 460.135C280.792 460.528 281.198 461.007 281.637 461.007C281.944 461.007 282.264 460.757 282.4 460.47C282.326 460.32 282.284 460.159 282.284 460.006C282.284 459.88 282.301 459.772 282.327 459.678C282.256 459.592 282.161 459.523 282.037 459.479C281.969 459.455 281.864 459.465 281.766 459.474C281.837 459.377 281.944 459.235 282.041 459.132L282.159 459.006C282.269 458.886 282.366 458.782 282.489 458.658C282.729 458.416 282.84 458.252 282.894 458.087C282.907 458.109 282.92 458.131 282.934 458.154C282.994 458.252 283.063 458.362 283.126 458.509C283.238 458.773 283.245 459.122 283.242 459.275C283.111 459.267 282.963 459.259 282.877 459.295C282.564 459.423 282.46 459.693 282.46 460.006C282.46 460.442 282.88 460.973 283.398 460.973C283.916 460.973 284.337 460.442 284.337 460.006ZM281.581 459.837C281.581 459.837 281.534 459.851 281.403 459.801C281.293 459.758 281.283 459.711 281.282 459.705C281.286 459.659 281.255 459.617 281.209 459.609C281.162 459.601 281.116 459.634 281.108 459.682C281.105 459.701 281.085 459.867 281.34 459.966C281.437 460.004 281.509 460.016 281.561 460.016C281.626 460.016 281.661 459.997 281.676 459.985C281.715 459.954 281.728 459.895 281.698 459.856C281.668 459.818 281.62 459.807 281.581 459.837ZM274.96 458.78C274.92 458.78 274.887 458.813 274.887 458.854V460.808C274.887 460.848 274.92 460.881 274.96 460.881C275 460.881 275.033 460.848 275.033 460.808V458.854C275.033 458.813 275 458.78 274.96 458.78ZM278.867 453L278.869 464.551L270.321 458.765L278.867 453ZM277.821 458.964C277.821 459.066 277.903 459.149 278.004 459.149C278.105 459.149 278.187 459.066 278.187 458.964C278.187 458.863 278.105 458.78 278.004 458.78C277.903 458.78 277.821 458.863 277.821 458.964ZM277.47 458.611C277.47 458.672 277.519 458.721 277.58 458.721C277.64 458.721 277.689 458.672 277.689 458.611C277.689 458.549 277.64 458.5 277.58 458.5C277.519 458.5 277.47 458.549 277.47 458.611ZM277.287 459.009C277.287 459.066 277.333 459.112 277.389 459.112C277.446 459.112 277.492 459.066 277.492 459.009C277.492 458.952 277.446 458.905 277.389 458.905C277.333 458.905 277.287 458.952 277.287 459.009ZM276.987 458.293C276.987 458.359 277.039 458.411 277.104 458.411C277.169 458.411 277.221 458.359 277.221 458.293C277.221 458.228 277.169 458.176 277.104 458.176C277.039 458.176 276.987 458.228 276.987 458.293ZM276.775 459.023C276.775 459.076 276.817 459.119 276.87 459.119C276.922 459.119 276.965 459.076 276.965 459.023C276.965 458.97 276.922 458.928 276.87 458.928C276.817 458.928 276.775 458.97 276.775 459.023ZM276.427 460.083C276.082 459.917 275.855 459.644 275.855 459.333H276.427C276.427 459.234 276.427 459.152 276.427 459.104C276.427 458.795 275.787 458.183 275.787 457.866C275.787 457.645 275.759 457.045 275.743 456.701H275.864V456.259H275.132V456.701H275.253C275.236 457.045 275.209 457.645 275.209 457.866C275.209 458.183 274.569 458.765 274.569 459.104C274.569 459.444 274.569 461.021 274.569 461.021C274.569 461.119 274.647 461.198 274.744 461.198H276.252C276.348 461.198 276.427 461.119 276.427 461.021C276.427 461.021 276.427 460.559 276.427 460.083ZM278.395 459.463H276.017C276.017 459.782 276.512 460.042 277.135 460.061C277.135 460.168 277.135 460.991 277.135 461.025C277.135 461.062 276.696 461.066 276.696 461.066C276.65 461.066 276.612 461.104 276.612 461.15C276.612 461.197 276.65 461.235 276.696 461.235H277.713C277.759 461.235 277.797 461.197 277.797 461.15C277.797 461.104 277.759 461.066 277.713 461.066C277.713 461.066 277.274 461.062 277.274 461.025C277.274 460.991 277.274 460.168 277.274 460.061C277.899 460.043 278.395 459.783 278.395 459.463ZM261.191 465.961L269.737 471.726L261.19 477.512L261.191 465.961ZM262.917 470.565C262.917 470.636 262.983 470.694 263.065 470.694H263.471C263.552 470.694 263.619 470.636 263.619 470.565V470.44C263.619 470.369 263.552 470.311 263.471 470.311H263.065C262.983 470.311 262.917 470.369 262.917 470.44V470.565ZM262.565 473.258C262.565 473.34 262.632 473.407 262.714 473.407H266.076C266.157 473.407 266.224 473.34 266.224 473.258V470.961C266.224 470.879 266.157 470.812 266.076 470.812H265.628C265.505 470.532 265.359 470.222 265.315 470.222H264.089C264.044 470.222 263.899 470.532 263.776 470.812H262.714C262.632 470.812 262.565 470.879 262.565 470.961V473.258H262.565ZM263.561 472.043C263.561 471.404 264.075 470.886 264.709 470.886C265.344 470.886 265.858 471.404 265.858 472.043C265.858 472.683 265.344 473.201 264.709 473.201C264.075 473.201 263.561 472.683 263.561 472.043ZM263.936 472.043C263.936 472.474 264.282 472.822 264.709 472.822C265.136 472.822 265.483 472.474 265.483 472.043C265.483 471.613 265.136 471.264 264.709 471.264C264.282 471.264 263.936 471.613 263.936 472.043ZM264.453 471.888C264.544 471.703 264.609 471.538 264.495 471.481C264.38 471.423 264.213 471.527 264.122 471.712C264.031 471.897 264.05 472.093 264.164 472.151C264.279 472.208 264.362 472.073 264.453 471.888ZM260.605 465.961L260.606 477.512L252.059 471.726L260.605 465.961ZM254.144 472.112C254.47 472.109 255.29 472.095 256.328 472.039C256.527 472.028 256.746 472.014 256.974 471.997C256.956 471.959 256.936 471.918 256.911 471.877C256.794 471.677 256.499 471.406 256.496 471.403L256.614 471.272C256.627 471.284 256.932 471.564 257.062 471.787C257.103 471.857 257.135 471.923 257.16 471.983C257.248 471.976 257.336 471.969 257.425 471.962C257.411 471.934 257.396 471.906 257.379 471.877C257.263 471.677 256.967 471.406 256.964 471.403L257.082 471.272C257.095 471.284 257.4 471.564 257.531 471.787C257.563 471.843 257.59 471.897 257.613 471.947C257.7 471.939 257.787 471.932 257.874 471.925C257.865 471.909 257.857 471.893 257.848 471.877C257.731 471.677 257.436 471.406 257.433 471.403L257.551 471.272C257.563 471.284 257.869 471.564 257.999 471.787C258.023 471.829 258.044 471.869 258.063 471.908C258.15 471.9 258.236 471.893 258.32 471.885C258.319 471.882 258.318 471.879 258.316 471.877C258.199 471.677 257.904 471.406 257.901 471.403L258.019 471.272C258.032 471.284 258.337 471.564 258.467 471.787C258.483 471.814 258.498 471.841 258.511 471.867C258.991 471.823 259.41 471.781 259.66 471.755L259.648 471.743C259.671 471.715 259.759 471.548 259.622 470.996C259.61 470.996 259.451 470.479 259.336 470.192C259.329 470.173 259.316 470.16 259.297 470.155C259.297 470.155 259.066 470.02 258.934 470.23C258.803 470.44 258.762 470.759 258.495 470.777C258.229 470.795 258.121 470.691 258.045 470.589C257.97 470.487 257.947 470.44 257.919 470.324C257.892 470.208 257.887 470.048 257.799 470.014L257.704 469.98C257.597 469.94 257.486 470.008 257.409 470.08C257.332 470.152 257.206 470.285 256.992 470.39C256.778 470.495 256.585 470.523 256.585 470.523L256.504 470.609C256.498 470.61 256.498 470.616 256.498 470.616L256.498 470.623L256.517 470.657L256.43 470.721L256.361 470.693C256.355 470.693 256.355 470.693 256.355 470.693L256.242 470.755C256.236 470.755 256.237 470.768 256.237 470.768L256.263 470.807L256.168 470.86L256.092 470.825L256.086 470.826C256.086 470.826 256.086 470.826 256.08 470.826L255.974 470.894L255.974 470.9L256.008 470.951L255.911 471L255.847 470.964C255.847 470.964 255.841 470.958 255.841 470.965L255.728 471.019L255.722 471.027L255.722 471.033L255.744 471.085L255.657 471.143L255.594 471.108L255.588 471.108C255.588 471.108 255.588 471.108 255.581 471.109L255.474 471.163L255.468 471.17L255.469 471.177L255.49 471.229L255.377 471.291L255.325 471.255C255.325 471.255 255.319 471.248 255.313 471.256C255.278 471.278 255.249 471.307 255.22 471.336C255.214 471.343 255.214 471.343 255.22 471.349L255.242 471.383C255.22 471.418 255.108 471.453 254.883 471.575C254.658 471.697 254.297 471.866 254.144 472.112ZM259.726 472.347L259.7 471.9L259.699 471.894C259.099 471.955 257.428 472.09 256.335 472.18C255.044 472.287 254.424 472.251 254.117 472.254L254.111 472.562C254.112 472.575 254.118 472.581 254.131 472.587L254.447 472.632C254.775 472.676 255.114 472.693 255.444 472.67L259.703 472.375C259.715 472.375 259.727 472.36 259.726 472.347ZM284.737 471.313C284.737 471.24 284.713 471.185 284.662 471.139C284.508 471.004 284.17 470.994 283.969 471.007C283.923 471.465 283.791 471.88 283.601 472.216C284.181 471.922 284.737 471.553 284.737 471.313ZM279.454 465.961L288 471.726L279.453 477.512L279.454 465.961ZM282.054 469.354C282.035 469.553 282.324 469.722 282.301 469.969C282.277 470.217 282.25 470.372 282.25 470.372C282.25 470.372 282.573 470.081 282.597 469.83C282.622 469.58 282.332 469.415 282.351 469.215C282.37 469.015 282.401 468.812 282.401 468.812C282.401 468.812 282.074 469.154 282.054 469.354ZM280.77 470.635C280.77 471.554 281.106 472.354 281.602 472.769H283.157C283.205 472.729 283.25 472.682 283.295 472.635C283.819 472.405 284.983 471.836 284.983 471.313C284.983 471.17 284.928 471.045 284.824 470.953C284.602 470.757 284.203 470.746 283.983 470.758C283.985 470.717 283.989 470.677 283.989 470.635H281.281C281.274 470.762 281.279 470.94 281.323 471.148C281.412 471.571 281.553 471.777 281.555 471.779C281.593 471.835 281.58 471.912 281.525 471.951C281.503 471.967 281.479 471.974 281.454 471.974C281.416 471.974 281.378 471.956 281.354 471.922C281.347 471.913 281.183 471.678 281.082 471.199C281.034 470.973 281.028 470.78 281.036 470.635H280.77V470.635ZM280.239 472.893C280.239 473.068 280.686 473.221 281.346 473.3H283.413C284.072 473.221 284.519 473.068 284.519 472.893H280.239ZM277.296 471.525C277.315 471.607 277.328 471.691 277.328 471.779C277.328 471.859 277.318 471.937 277.301 472.013C277.261 472.201 277.176 472.373 277.055 472.513C276.987 472.591 276.909 472.66 276.823 472.717C276.648 472.831 276.441 472.898 276.217 472.898C275.993 472.898 275.785 472.831 275.611 472.717C275.524 472.66 275.447 472.591 275.379 472.513C275.209 472.316 275.106 472.06 275.106 471.779C275.106 471.497 275.209 471.241 275.379 471.044C275.447 470.966 275.524 470.897 275.611 470.841C275.785 470.726 275.993 470.659 276.217 470.659C276.441 470.659 276.648 470.726 276.823 470.841C276.909 470.897 276.987 470.966 277.055 471.044C277.172 471.18 277.254 471.345 277.296 471.525ZM276.797 471.296C276.755 471.248 276.681 471.243 276.633 471.286L276.31 471.571C276.282 471.558 276.25 471.55 276.217 471.55C276.196 471.55 276.178 471.556 276.159 471.561L275.71 471.009C275.669 470.959 275.596 470.952 275.547 470.992C275.497 471.033 275.49 471.107 275.53 471.157L275.999 471.733C275.996 471.748 275.99 471.763 275.99 471.779C275.99 471.905 276.091 472.008 276.217 472.008C276.342 472.008 276.444 471.905 276.444 471.779C276.444 471.774 276.442 471.77 276.442 471.766L276.786 471.461C276.834 471.419 276.839 471.345 276.797 471.296ZM275.611 473.016V473.241H276.823V473.016C276.64 473.107 276.435 473.159 276.217 473.159C275.999 473.159 275.794 473.107 275.611 473.016ZM276.823 470.542V470.316H275.611V470.542C275.794 470.45 275.999 470.398 276.217 470.398C276.435 470.398 276.64 470.45 276.823 470.542ZM278.867 465.961L278.869 477.512L270.321 471.726L278.867 465.961ZM277.788 471.768C277.788 471.626 277.841 471.511 277.558 471.503C277.491 471.173 277.309 470.886 277.055 470.688V470.137C277.055 470.107 277.031 470.083 277.001 470.083H276.723V469.56H275.71V470.083H275.433C275.403 470.083 275.379 470.107 275.379 470.137V470.688C275.056 470.94 274.846 471.334 274.846 471.779C274.846 472.223 275.056 472.617 275.379 472.87V473.421C275.379 473.45 275.403 473.474 275.433 473.474H275.71V473.997H276.723V473.474H277.001C277.031 473.474 277.055 473.45 277.055 473.421V472.87C277.315 472.667 277.498 472.372 277.562 472.033C277.84 472.025 277.788 471.91 277.788 471.768ZM270.323 472.449L278.869 478.214L270.321 484L270.323 472.449ZM271.171 477.241H275.178V477.119C275.178 477.022 275.1 476.942 275.003 476.942H273.713C273.219 476.942 273.076 476.235 272.209 476.235C271.496 476.235 271.171 476.799 271.171 477.119C271.171 477.155 271.171 477.196 271.171 477.241ZM270.798 479.094C270.814 479.118 270.841 479.132 270.87 479.132H271.199V479.895C271.199 479.944 271.239 479.984 271.287 479.984C271.336 479.984 271.375 479.944 271.375 479.895V479.132H275.063V479.895C275.063 479.944 275.102 479.984 275.15 479.984C275.199 479.984 275.238 479.944 275.238 479.895V479.132H275.469C275.497 479.132 275.524 479.118 275.541 479.094C275.557 479.07 275.561 479.04 275.551 479.013L275.195 478.05C275.191 478.042 275.184 478.036 275.178 478.029V477.396H271.171C271.171 477.609 271.171 477.856 271.171 478.015C271.16 478.025 271.15 478.036 271.144 478.05L270.788 479.013C270.778 479.04 270.782 479.07 270.798 479.094ZM275.055 478.181H274.727L274.828 478.62H274.163L274.118 478.181H273.824L273.855 478.62H273.285L273.266 478.181H273.002L272.977 478.62H272.407L272.438 478.181H272.175L272.099 478.62H271.47L271.571 478.181H271.283L270.997 478.955H275.342L275.055 478.181ZM269.168 480.371H267.774V478.358H269.168V480.371ZM268.559 480.271C268.559 480.222 268.52 480.183 268.471 480.183C268.423 480.183 268.383 480.222 268.383 480.271C268.383 480.32 268.423 480.36 268.471 480.36C268.52 480.36 268.559 480.32 268.559 480.271ZM269.065 478.472H267.877V480.171H269.065V478.472ZM269.736 472.449L269.737 484L261.19 478.214L269.736 472.449ZM267.617 479.198H266.708H265.766H264.31V476.655H268.163V478.186H268.267V476.555H264.206V479.298H265.766V479.826H265.26V480.172H265.766H266.708H267.214V479.826H266.708V479.298H267.617V479.198ZM267.617 478.186H268.041V476.796H264.432V479.058H265.766H266.708H267.617V478.186ZM269.272 478.258H267.67V480.47H269.272V478.258ZM260.547 465.266L252 471.052L252.001 459.501L260.547 465.266ZM252.951 466.049H256.877L256.645 464.917C256.634 464.863 256.589 464.821 256.531 464.799C256.536 464.776 256.532 464.752 256.518 464.732L255.126 462.663C255.112 462.593 255.07 462.534 255.014 462.496L254.97 462.431C254.954 462.407 254.927 462.393 254.898 462.393H254.898C254.869 462.393 254.841 462.407 254.825 462.431L254.806 462.46C254.69 462.488 254.605 462.592 254.605 462.717C254.605 462.729 254.607 462.74 254.608 462.752L253.269 464.732C253.252 464.757 253.251 464.788 253.262 464.815C253.222 464.839 253.192 464.875 253.183 464.917L252.951 466.049ZM256.945 466.38L256.913 466.226H252.915L252.883 466.38C252.843 466.577 253.033 466.757 253.283 466.757H256.545C256.795 466.757 256.985 466.577 256.945 466.38ZM254.868 462.982C254.806 462.982 254.75 462.96 254.705 462.924L253.448 464.781H256.339L255.067 462.89C255.018 462.946 254.948 462.982 254.868 462.982ZM281.819 464.949C281.816 464.876 281.755 464.818 281.683 464.821C281.61 464.823 281.553 464.885 281.556 464.958C281.558 465.031 281.619 465.089 281.692 465.086C281.765 465.084 281.821 465.022 281.819 464.949ZM287.999 459.501L288 471.052L279.453 465.266L287.999 459.501ZM281.712 465.406C282.048 465.142 282.72 464.959 283.045 464.882C283.318 464.817 283.634 464.783 283.958 464.783C284.506 464.783 285.037 464.876 285.455 465.045C285.698 465.143 285.861 465.228 285.98 465.291C286.115 465.362 286.177 465.393 286.237 465.393C286.266 465.393 286.301 465.387 286.346 465.372C286.365 465.366 286.383 465.362 286.401 465.357C286.19 465.271 285.988 465.162 286.104 465.087C286.319 464.948 286.916 465.076 286.916 465.076C286.916 465.076 286.554 464.623 285.687 464.811C285.365 464.881 285.387 464.679 284.721 464.435C284.527 464.364 284.29 464.314 284.062 464.28C283.955 464.264 283.868 463.889 283.757 463.882C283.597 463.87 283.346 464.247 283.186 464.252C282.883 464.263 282.534 464.298 282.273 464.368C281.805 464.495 281.034 464.791 280.955 465.06C280.914 465.198 281.312 465.325 281.712 465.406ZM286.74 465.718C286.96 465.585 287.563 465.718 287.563 465.718C287.563 465.718 287.19 465.286 286.4 465.541C286.086 465.642 286.049 465.474 285.39 465.209C284.732 464.944 283.788 464.888 283.085 465.054C282.613 465.166 281.779 465.43 281.692 465.696C281.604 465.961 283.162 466.237 283.206 466.171C283.25 466.105 283.25 465.762 283.25 465.762C283.25 465.762 283.261 466.072 283.744 466.403C284.227 466.735 285.182 466.503 284.896 466.436C284.611 466.37 284.359 466.094 284.359 466.094C284.359 466.094 284.561 466.176 284.597 466.184C285.24 466.323 286.215 465.849 286.433 466.016C286.663 466.193 287.432 466.083 287.432 466.083C287.432 466.083 286.521 465.85 286.74 465.718ZM282.427 465.474C282.354 465.474 282.295 465.534 282.295 465.607C282.295 465.68 282.354 465.74 282.427 465.74C282.5 465.74 282.559 465.68 282.559 465.607C282.559 465.534 282.5 465.474 282.427 465.474ZM270.702 466.964L270.175 469.028L269.385 469.411L269.414 468.556L269.473 466.993L268.741 467.023L268.531 466.336L268.061 466.757L267.804 469.618L266.341 468.615L267.102 468.173L267.034 466.9L266.429 467.2L266.019 465.754L266.965 465.6L266.926 464.398L266.136 463.366L266.838 463.218L267.716 461.567L268.273 462.953L268.829 463.159L268.795 463.563L269.765 463.513L269.297 461.537L270.936 462.245L270.563 463.488L271.609 463.277L272.224 461.331L273.658 462.393L272.37 463.336L273.57 463.425L273.98 464.545L273.014 464.516L272.897 465.784L273.863 465.813L274.214 466.964L272.955 467.052L272.663 469.146L271.902 469.647L271.404 466.934L270.704 466.962L270.702 466.964ZM270.994 464.87L270.907 465.607L270.992 465.774L271.843 465.754L271.726 464.604L270.962 464.771L270.994 464.87ZM269.56 464.604L268.916 464.634L268.719 463.916L268.185 464.427V465.371L269.004 465.43L268.814 465.862L269.56 465.843V464.604Z" fill="#B61D5F"/>
</g>
<g filter="url(#filter2_d)">
<rect x="456" y="253" width="160" height="160" rx="19" fill="white"/>
</g>
<path fill-rule="evenodd" clip-rule="evenodd" d="M498.383 327.823C498.383 314.668 511.18 304 526.97 304C539.164 304 549.562 310.366 553.669 319.325C554.531 321.208 552.864 323.058 550.793 323.058V323.058C535.027 323.058 522.206 333.745 522.206 346.881V346.881C522.206 349.076 520.425 351.042 518.314 350.44C517.914 350.326 517.517 350.206 517.124 350.079C516.266 349.804 515.338 349.827 514.51 350.182L511.372 351.526C509.378 352.38 507.402 350.283 508.372 348.343V348.343C508.9 347.287 508.547 346.01 507.609 345.292C501.944 340.95 498.383 334.743 498.383 327.823ZM513.868 318.294C513.868 320.266 515.469 321.867 517.441 321.867C519.414 321.867 521.015 320.266 521.015 318.294C521.015 316.321 519.414 314.72 517.441 314.72C515.469 314.72 513.868 316.321 513.868 318.294ZM532.926 318.294C532.926 320.266 534.527 321.867 536.499 321.867C538.472 321.867 540.073 320.266 540.073 318.294C540.073 316.321 538.472 314.72 536.499 314.72C534.527 314.72 532.926 316.321 532.926 318.294ZM550.792 327.823C563.947 327.823 574.614 336.356 574.614 346.881C574.614 352.199 571.842 356.962 567.438 360.407C566.331 361.272 565.889 362.787 566.518 364.043V364.043C567.655 366.316 565.34 368.771 563.004 367.77L558.355 365.777C557.48 365.402 556.511 365.319 555.574 365.486C554.028 365.762 552.44 365.939 550.792 365.939C537.637 365.939 526.969 357.406 526.969 346.881C526.969 336.356 537.637 327.823 550.792 327.823ZM540.071 342.116C540.071 344.089 541.672 345.69 543.645 345.69C545.617 345.69 547.218 344.089 547.218 342.116C547.218 340.144 545.617 338.543 543.645 338.543C541.672 338.543 540.071 340.144 540.071 342.116ZM554.365 342.116C554.365 344.089 555.966 345.69 557.938 345.69C559.911 345.69 561.512 344.089 561.512 342.116C561.512 340.144 559.911 338.543 557.938 338.543C555.966 338.543 554.365 340.144 554.365 342.116Z" fill="url(#paint8_linear)"/>
<g filter="url(#filter3_d)">
<rect x="577" y="173" width="131" height="131" rx="19" fill="white"/>
</g>
<g clip-path="url(#clip2)">
<path d="M639.408 266.741C627.819 267.91 617.815 262.557 617.061 254.779C616.309 247.003 625.097 239.751 636.685 238.58C648.275 237.407 658.28 242.762 659.032 250.536C659.783 258.315 650.998 265.569 639.408 266.741V266.741ZM662.589 240.924C661.604 240.623 660.928 240.417 661.443 239.093C662.561 236.218 662.677 233.739 661.465 231.969C659.193 228.651 652.975 228.829 645.847 231.88C645.847 231.876 643.609 232.881 644.181 231.067C645.277 227.464 645.112 224.447 643.405 222.705C639.54 218.75 629.257 222.854 620.438 231.864C613.834 238.615 610 245.769 610 251.955C610 263.788 624.846 270.982 639.37 270.982C658.409 270.982 671.074 259.675 671.074 250.699C671.074 245.275 666.605 242.197 662.589 240.924" fill="url(#paint9_linear)"/>
<path d="M675.231 219.27C670.633 214.06 663.851 212.074 657.591 213.434H657.589C657.245 213.509 656.919 213.653 656.629 213.857C656.339 214.061 656.091 214.321 655.9 214.623C655.708 214.925 655.577 215.263 655.513 215.617C655.449 215.97 655.454 216.334 655.528 216.685C655.601 217.037 655.742 217.371 655.942 217.667C656.141 217.963 656.396 218.217 656.692 218.412C656.987 218.608 657.317 218.742 657.663 218.807C658.009 218.873 658.365 218.868 658.709 218.792C663.162 217.826 667.981 219.241 671.252 222.941C672.802 224.696 673.873 226.838 674.356 229.151C674.839 231.464 674.718 233.866 674.005 236.115L674.006 236.116C673.897 236.459 673.855 236.82 673.883 237.178C673.911 237.537 674.008 237.887 674.169 238.207C674.329 238.528 674.55 238.813 674.818 239.046C675.086 239.279 675.397 239.456 675.732 239.566C676.408 239.79 677.143 239.73 677.776 239.4C678.409 239.07 678.887 238.496 679.107 237.806L679.108 237.795C681.07 231.57 679.83 224.474 675.231 219.27" fill="url(#paint10_linear)"/>
<path d="M668.171 225.783C665.933 223.245 662.629 222.281 659.579 222.944C659.276 223.001 658.986 223.12 658.728 223.293C658.47 223.466 658.249 223.69 658.077 223.952C657.906 224.214 657.787 224.509 657.729 224.819C657.671 225.128 657.674 225.447 657.738 225.755C657.803 226.064 657.927 226.356 658.104 226.614C658.28 226.873 658.506 227.093 658.767 227.26C659.029 227.428 659.32 227.54 659.625 227.591C659.929 227.641 660.241 227.629 660.541 227.554V227.556C661.298 227.39 662.086 227.431 662.823 227.674C663.561 227.918 664.223 228.354 664.743 228.941C665.263 229.53 665.621 230.248 665.783 231.023C665.944 231.798 665.902 232.603 665.662 233.357H665.664C665.476 233.952 665.526 234.599 665.805 235.156C666.083 235.713 666.567 236.135 667.149 236.327C667.731 236.519 668.365 236.467 668.909 236.182C669.454 235.897 669.866 235.402 670.054 234.807C671.013 231.775 670.413 228.319 668.171 225.783" fill="url(#paint11_linear)"/>
<path d="M640.048 252.655C639.642 253.365 638.746 253.706 638.045 253.41C637.354 253.119 637.137 252.327 637.53 251.631C637.934 250.938 638.796 250.6 639.484 250.879C640.184 251.141 640.435 251.943 640.048 252.655ZM636.355 257.501C635.234 259.329 632.834 260.13 631.025 259.286C629.243 258.457 628.717 256.333 629.84 254.55C630.947 252.776 633.267 251.984 635.061 252.753C636.876 253.545 637.457 255.654 636.355 257.501ZM640.567 244.563C635.052 243.096 628.818 245.906 626.423 250.873C623.983 255.939 626.343 261.562 631.913 263.401C637.685 265.303 644.488 262.388 646.853 256.92C649.187 251.574 646.274 246.071 640.567 244.563Z" fill="url(#paint12_linear)"/>
</g>
<g filter="url(#filter4_d)">
<rect x="654" y="271" width="116" height="116" rx="19" fill="white"/>
</g>
<path fill-rule="evenodd" clip-rule="evenodd" d="M723.472 318.72C726.82 321.113 730.922 322.52 735.353 322.52V313.999C734.514 313.999 733.678 313.912 732.857 313.738V320.446C728.427 320.446 724.326 319.038 720.976 316.646V334.035C720.976 342.734 713.921 349.785 705.218 349.785C701.971 349.785 698.953 348.804 696.445 347.121C699.307 350.046 703.298 351.86 707.713 351.86C716.416 351.86 723.472 344.809 723.472 336.109V318.72H723.472ZM726.55 310.124C724.838 308.255 723.715 305.84 723.472 303.17V302.074H721.107C721.702 305.467 723.732 308.366 726.55 310.124V310.124ZM701.95 340.446C700.994 339.193 700.477 337.66 700.479 336.084C700.479 332.106 703.707 328.88 707.688 328.88C708.43 328.879 709.168 328.993 709.875 329.217V320.506C709.048 320.393 708.214 320.345 707.381 320.362V327.143C706.673 326.919 705.935 326.805 705.193 326.806C701.212 326.806 697.985 330.031 697.985 334.01C697.985 336.824 699.598 339.26 701.95 340.446V340.446Z" fill="#EE1D52"/>
<path fill-rule="evenodd" clip-rule="evenodd" d="M720.976 316.646C724.325 319.038 728.427 320.446 732.857 320.446V313.738C730.384 313.212 728.195 311.92 726.549 310.124C723.732 308.366 721.701 305.467 721.106 302.074H714.896V336.109C714.882 340.077 711.66 343.289 707.687 343.289C705.346 343.289 703.266 342.174 701.949 340.446C699.597 339.26 697.984 336.824 697.984 334.01C697.984 330.031 701.211 326.806 705.192 326.806C705.955 326.806 706.69 326.924 707.38 327.143V320.362C698.83 320.539 691.953 327.522 691.953 336.109C691.953 340.396 693.666 344.282 696.445 347.122C698.952 348.804 701.97 349.786 705.217 349.786C713.92 349.786 720.976 342.734 720.976 334.035V316.646Z" fill="#3E3E3E"/>
<path fill-rule="evenodd" clip-rule="evenodd" d="M732.859 313.738V311.924C730.629 311.928 728.443 311.304 726.551 310.123C728.226 311.956 730.431 313.22 732.859 313.738V313.738ZM721.109 302.074C721.052 301.75 721.009 301.424 720.978 301.096V300H712.403V334.035C712.389 338.002 709.168 341.215 705.195 341.215C704.028 341.215 702.927 340.938 701.951 340.446C703.269 342.174 705.348 343.289 707.69 343.289C711.662 343.289 714.884 340.077 714.898 336.109V302.074H721.109ZM707.382 320.362V318.432C706.666 318.334 705.943 318.285 705.22 318.285C696.516 318.285 689.461 325.337 689.461 334.035C689.461 339.488 692.234 344.294 696.448 347.121C693.668 344.282 691.956 340.396 691.956 336.109C691.956 327.522 698.832 320.539 707.382 320.362V320.362Z" fill="#69C9D0"/>
<g filter="url(#filter5_d)">
<rect x="867" y="173" width="84" height="84" rx="19" fill="white"/>
</g>
<path fill-rule="evenodd" clip-rule="evenodd" d="M904.522 199.19C903.263 198.84 901.908 199.52 901.4 200.723C898.709 207.108 896.224 208.718 896.224 208.718C896.224 208.718 896.224 208.718 896.224 208.718V208.718C896.224 208.718 896.224 208.718 896.224 208.718C896.224 208.718 896.594 208.894 897.112 209.145C898.769 209.948 900.803 209.629 901.976 208.21C902.172 207.973 902.328 207.78 902.436 207.645C902.547 207.507 902.483 207.488 902.645 207.415V207.415C903.533 207.017 904.561 207.802 904.061 208.636C903.365 209.796 902.664 210.752 902.123 211.43C901.614 212.071 901.661 213.023 902.276 213.564V213.564C902.845 214.065 903.706 214.038 904.251 213.511C904.943 212.842 905.677 212.147 906.111 211.737C906.36 211.502 906.69 211.372 907.033 211.372V211.372C907.778 211.372 908.383 211.976 908.383 212.722V212.999C908.383 213.897 907.654 214.626 906.756 214.626H902.264C901.553 214.626 900.976 215.203 900.976 215.914V215.914C900.976 216.622 901.549 217.198 902.257 217.202L905.245 217.219C907.01 217.229 908.432 217.639 908.447 219.404V219.404C908.462 221.177 906.647 224.084 905.484 222.745C905.038 222.231 905.067 221.62 905.082 221.299C905.084 221.251 905.086 221.21 905.086 221.176V221.176C905.086 219.943 904.249 218.855 903.016 218.845L902.204 218.839C900.971 218.828 899.856 219.647 899.823 220.879C899.821 220.949 899.82 221.019 899.82 221.09C899.82 224.772 901.618 226.057 902.86 226.613C903.721 226.998 904.971 227.076 905.658 227.087C905.991 227.093 906.322 227.097 906.654 227.1C907.787 227.111 910.263 226.98 913.82 225.928C915.053 225.563 915.991 225.114 916.669 224.708C917.335 224.31 918.375 224.609 918.582 225.356V225.356C918.737 225.914 919.34 226.215 919.879 226.004L921.044 225.548C922.134 225.121 922.666 223.886 922.228 222.8L920.854 219.397C920.511 218.547 919.992 217.971 919.12 218.255V218.255C918.166 218.565 917.208 219.716 917.335 220.711C917.343 220.771 917.35 220.833 917.358 220.899V220.899C917.392 221.177 917.281 221.456 917.052 221.617C916.83 221.774 916.619 221.909 916.42 222.024C915.418 222.604 914.462 221.779 914.462 220.622V219.999C914.462 218.497 915.679 217.28 917.18 217.28H920.413C921.122 217.28 921.697 216.705 921.697 215.996V215.996C921.697 215.287 921.122 214.712 920.413 214.712H916.174C915.228 214.712 914.462 213.945 914.462 212.999V212.999C914.462 212.053 915.228 211.287 916.174 211.287H920.495C921.206 211.287 921.782 210.711 921.782 210V210C921.782 209.291 921.214 208.716 920.505 208.714C918.299 208.707 913.738 208.694 910.907 208.701C910.068 208.703 909.576 207.653 910.028 206.946C910.113 206.812 910.189 206.688 910.255 206.576C910.449 206.25 910.608 205.936 910.242 205.839V205.839C909.703 205.696 909.342 204.921 909.873 204.752C911.934 204.094 914.515 203.467 915.018 203.367C915.66 203.238 917.758 202.896 920.412 203.409C922.786 203.869 923.208 205.595 923.394 206.353C923.415 206.443 923.434 206.519 923.452 206.578C923.623 207.134 923.58 223.573 923.538 224.43C923.514 224.897 923.3 225.416 923.109 225.791C922.927 226.149 922.688 226.478 922.381 226.737C921.558 227.43 920.305 227.94 918.871 227.94C918.138 227.94 917.318 227.791 916.62 227.62C915.732 227.403 914.786 227.908 914.57 228.796V228.796C914.386 229.552 914.807 230.308 915.571 230.454C916.486 230.629 917.867 230.809 919.685 230.809C923.238 230.809 925.25 230.038 926.92 228.454C928.416 227.035 928.778 225.442 928.837 225.127C928.844 225.09 928.849 225.053 928.855 225.015C930.042 217.282 929.401 208.754 928.804 206.192C928.204 203.624 925.806 202.04 923.452 201.269C921.353 200.582 918.71 200.609 918.16 200.623C918.09 200.625 918.023 200.627 917.953 200.627C914.27 200.643 910.215 201.507 907.909 202.085C907.214 202.26 906.616 201.509 906.957 200.878V200.878C907.203 200.422 906.96 199.856 906.46 199.72C905.913 199.572 905.206 199.38 904.522 199.19ZM898.321 202.382C898.321 204.25 896.634 205.764 894.554 205.764C892.473 205.764 890.786 204.25 890.786 202.382C890.786 200.514 892.473 199 894.554 199C896.634 199 898.321 200.514 898.321 202.382ZM890.795 211.952C889.84 211.353 889.567 210.091 890.177 209.142V209.142C890.826 208.132 892.201 207.897 893.144 208.64C894.078 209.377 895.132 210.218 895.623 210.645L895.706 210.717C896.703 211.582 898.362 213.022 898.32 215.311C898.277 217.665 897.592 219.721 897.036 221.134C896.701 221.982 895.254 225.011 894.152 227.293C893.453 228.74 891.654 229.256 890.29 228.406V228.406C888.772 227.46 888.563 225.324 889.827 224.059C891.498 222.386 893.571 220.192 894.681 218.565C895.323 217.623 896.094 215.14 893.91 213.856C892.866 213.241 891.713 212.528 890.795 211.952Z" fill="url(#paint13_linear)"/>
<g filter="url(#filter6_d)">
<rect x="980" y="45" width="37" height="37" rx="10" fill="white"/>
</g>
<path d="M993.053 55.6937C993.386 55.3691 993.202 54.8035 992.742 54.7366V54.7366C992.559 54.7101 992.401 54.5953 992.32 54.4297V54.4297C992.114 54.0127 991.519 54.0127 991.313 54.4297V54.4297C991.231 54.5953 991.074 54.7101 990.891 54.7366V54.7366C990.431 54.8035 990.247 55.3691 990.58 55.6937V55.6937C990.712 55.8226 990.772 56.0084 990.741 56.1904V56.1904C990.663 56.6488 991.144 56.9983 991.555 56.7819V56.7819C991.719 56.696 991.914 56.696 992.078 56.7819V56.7819C992.489 56.9983 992.97 56.6488 992.892 56.1904V56.1904C992.86 56.0084 992.921 55.8226 993.053 55.6937V55.6937Z" fill="url(#paint14_linear)"/>
<path d="M1003.77 66.9119L1002.26 66.7442C1001.83 66.6957 1001.5 66.3268 1001.5 65.8878V65.8878C1001.5 65.6092 1001.64 65.3525 1001.84 65.1663C1002.33 64.7271 1002.71 64.1667 1002.93 63.5328C1003.12 62.9688 1003.29 62.3873 1003.62 61.891V61.891C1004.02 61.2962 1004.23 60.5975 1004.23 59.8827V57.9215L1004.23 57.9108C1004.18 55.2029 1001.94 53 999.233 53C997.917 53 996.687 53.5133 995.772 54.4451C994.857 55.3758 994.365 56.612 994.387 57.9267V59.8976C994.387 60.5927 994.571 61.2753 994.922 61.8758V61.8758C995.211 62.3713 995.358 62.9342 995.536 63.4794C995.751 64.1352 996.136 64.7149 996.638 65.1664C996.845 65.3526 996.984 65.6093 996.984 65.8878V65.8878C996.984 66.3268 996.654 66.6957 996.218 66.7441L994.708 66.9119C992.732 67.1314 991.242 68.7963 991.242 70.7845V72.5645C991.242 73.3573 991.885 74 992.678 74H993.088C993.654 74 994.113 73.5409 994.113 72.9746V72.5645C994.113 72.2247 994.389 71.9492 994.729 71.9492V71.9492C995.068 71.9492 995.344 72.2247 995.344 72.5645V72.9746C995.344 73.5409 995.803 74 996.369 74H1002.11C1002.68 74 1003.14 73.5409 1003.14 72.9746V72.5645C1003.14 72.2247 1003.41 71.9492 1003.75 71.9492V71.9492C1004.09 71.9492 1004.37 72.2247 1004.37 72.5645V72.9746C1004.37 73.5409 1004.83 74 1005.39 74H1005.8C1006.6 74 1007.24 73.3573 1007.24 72.5645V70.7845C1007.24 68.7963 1005.75 67.1314 1003.77 66.9119ZM1000.27 67.2096C1000.27 67.775 999.806 68.235 999.24 68.235C998.675 68.235 998.215 67.775 998.215 67.2096V67.0657C998.215 66.5432 998.718 66.166 999.24 66.166V66.166V66.166C999.763 66.166 1000.27 66.5432 1000.27 67.0658V67.2096ZM999.24 64.9355C997.77 64.9355 996.574 63.7396 996.574 62.2695V60.3911C996.574 59.8968 996.943 59.4839 997.381 59.2546V59.2546C997.995 58.9333 998.853 58.9398 999.467 59.2592C999.891 59.4791 1000.37 59.6035 1000.88 59.6035V59.6035C1001.45 59.6035 1001.91 60.0626 1001.91 60.6289V62.2695C1001.91 63.7396 1000.71 64.9355 999.24 64.9355Z" fill="url(#paint15_linear)"/>
<g filter="url(#filter7_d)">
<rect x="413" y="318" width="58" height="58" rx="10" fill="white"/>
</g>
<path fill-rule="evenodd" clip-rule="evenodd" d="M436.967 335.912C437.032 336.489 437.322 339.08 435.152 339.546C433.251 339.956 432.395 338.08 432.372 336.816C432.365 336.486 432.424 336.157 432.499 335.835C432.672 335.088 433.16 333.735 434.43 333.622C435.828 333.499 436.859 335.031 436.967 335.908L436.967 335.912ZM441.363 332.091C441.363 333.8 440.392 335.184 439.191 335.184C437.99 335.184 437.017 333.8 437.017 332.091C437.017 330.381 437.99 329 439.191 329C440.392 329 441.363 330.381 441.363 332.091ZM447.211 332.584C447.005 333.883 445.975 335.598 444.368 335.387C442.762 335.182 442.399 333.729 442.556 332.273C442.684 331.082 444.107 329.256 445.248 329.518C446.383 329.777 447.422 331.287 447.211 332.584ZM448.303 335.076C450.219 335.076 450.733 336.949 450.733 337.57C450.733 337.617 450.735 337.676 450.736 337.744C450.757 338.58 450.815 340.846 448.613 340.895C446.229 340.947 446.129 339.284 446.129 338.092C446.129 336.843 446.383 335.076 448.303 335.076ZM444.368 339.025C445.741 340.993 448.042 342.821 448.282 343.009C448.297 343.021 448.31 343.031 448.324 343.043C448.527 343.215 450.089 344.659 448.974 347.286C447.864 349.907 443.998 348.808 443.491 348.651C443.453 348.64 443.418 348.628 443.38 348.617C443.083 348.532 441.628 348.162 439.967 348.532C438.805 348.792 437.742 348.828 437.109 348.819C436.704 348.813 436.293 348.808 435.903 348.7C435.211 348.508 434.115 347.916 433.704 346.091C433.177 343.75 435.114 342.309 435.836 341.772C435.964 341.677 436.054 341.61 436.085 341.571C436.137 341.506 436.266 341.396 436.444 341.243C436.982 340.783 437.972 339.936 438.671 338.765C439.605 337.209 442.399 335.961 444.368 339.025ZM440.224 340.356C439.867 340.35 439.574 340.638 439.574 340.996V341.277C439.574 341.784 439.163 342.195 438.657 342.195H438.127C438.087 342.195 438.048 342.196 438.009 342.202C437.726 342.246 436.5 342.521 436.035 344.026C435.863 345.091 436.154 345.747 436.242 345.945L436.242 345.945C436.248 345.959 436.253 345.971 436.257 345.98C436.314 346.113 436.738 346.842 437.779 347.141C437.942 347.188 438.112 347.202 438.282 347.202V347.202C439.702 347.202 440.854 346.05 440.854 344.629V340.996C440.854 340.646 440.574 340.361 440.224 340.356V340.356ZM439.551 344.969C439.551 345.582 439.054 346.079 438.441 346.079V346.079C438.422 346.079 438.403 346.079 438.384 346.077C438.241 346.059 437.592 345.935 437.377 345.125C437.253 344.72 437.396 344.252 437.459 344.068C437.511 343.902 437.735 343.536 438.186 343.347C438.281 343.307 438.384 343.295 438.487 343.295V343.295C439.075 343.295 439.551 343.771 439.551 344.359L439.551 344.969ZM442.198 342.35C441.837 342.356 441.548 342.65 441.548 343.011V345.843C441.548 345.921 441.55 345.999 441.569 346.074C441.624 346.293 441.822 346.776 442.521 347.066C442.746 347.159 442.993 347.182 443.237 347.182H443.712C445.044 347.182 446.123 346.102 446.123 344.771V343.062C446.123 342.674 445.809 342.36 445.421 342.36V342.36C445.033 342.36 444.719 342.674 444.719 343.062V344.73C444.719 345.42 444.16 345.979 443.47 345.979V345.979C443.409 345.979 443.349 345.976 443.291 345.959C443.226 345.939 443.133 345.904 443.051 345.841C442.876 345.709 442.87 345.462 442.87 345.243V343.011C442.87 342.642 442.568 342.344 442.198 342.35V342.35Z" fill="url(#paint16_linear)"/>
<path fill-rule="evenodd" clip-rule="evenodd" d="M436.368 352.544C434.31 352.544 432.641 354.213 432.641 356.272C432.641 358.331 434.31 360 436.368 360H446.963C449.022 360 450.691 358.331 450.691 356.272C450.691 354.213 449.022 352.544 446.963 352.544H436.368ZM444.633 357.868C444.904 358.036 445.239 358.12 445.638 358.12C446.078 358.12 446.431 358.014 446.698 357.802C446.966 357.589 447.099 357.294 447.099 356.917C447.099 356.533 446.966 356.252 446.698 356.077C446.57 355.989 446.446 355.919 446.325 355.868C446.219 355.824 446.068 355.773 445.874 355.714C445.614 355.637 445.438 355.569 445.347 355.511C445.259 355.452 445.215 355.381 445.215 355.297C445.215 355.22 445.246 355.159 445.308 355.115C445.371 355.068 445.459 355.044 445.572 355.044C445.664 355.044 445.747 355.059 445.822 355.091C446.082 355.199 446.386 355.346 446.629 355.204V355.204C446.836 355.082 446.924 354.815 446.768 354.632C446.669 354.517 446.555 354.42 446.424 354.341C446.175 354.187 445.889 354.11 445.567 354.11C445.189 354.11 444.871 354.22 444.611 354.44C444.358 354.659 444.232 354.947 444.232 355.302C444.232 355.617 444.329 355.87 444.523 356.06C444.717 356.251 445.001 356.399 445.374 356.505C445.638 356.582 445.799 356.632 445.858 356.654C446.03 356.727 446.116 356.818 446.116 356.928C446.116 357.1 445.966 357.186 445.666 357.186C445.512 357.186 445.377 357.156 445.263 357.094C445.001 356.954 444.68 356.808 444.423 356.957V356.957C444.217 357.077 444.118 357.335 444.261 357.527C444.36 357.661 444.484 357.774 444.633 357.868ZM440.035 357.384C440.142 357.706 439.902 358.038 439.562 358.038H439.48C439.309 358.038 439.157 357.925 439.109 357.761V357.761C439.06 357.596 438.908 357.483 438.737 357.483H438.035C437.864 357.483 437.713 357.596 437.664 357.761V357.761C437.615 357.925 437.464 358.038 437.292 358.038H437.208C436.867 358.038 436.626 357.704 436.732 357.381L437.597 354.761C437.709 354.422 438.026 354.192 438.383 354.192V354.192C438.741 354.192 439.058 354.422 439.17 354.761L440.035 357.384ZM438.662 356.265C438.58 355.989 438.189 355.99 438.108 356.266V356.266C438.053 356.451 438.192 356.637 438.385 356.637V356.637C438.579 356.637 438.718 356.451 438.662 356.265V356.265ZM440.531 355.758C440.531 354.893 441.232 354.192 442.097 354.192V354.192C442.624 354.192 443.067 354.377 443.426 354.747C443.785 355.117 443.964 355.573 443.964 356.115C443.964 356.661 443.785 357.119 443.426 357.489C443.071 357.855 442.628 358.038 442.097 358.038V358.038C441.232 358.038 440.531 357.337 440.531 356.472V355.758ZM441.542 356.533C441.542 356.839 441.79 357.088 442.097 357.088V357.088C442.36 357.088 442.578 357 442.75 356.824C442.919 356.644 443.003 356.408 443.003 356.115C443.003 355.818 442.919 355.584 442.75 355.412C442.582 355.232 442.364 355.143 442.097 355.143V355.143C441.79 355.143 441.542 355.391 441.542 355.698V356.533Z" fill="url(#paint17_linear)"/>
</g>
<defs>
<filter id="filter0_d" x="245" y="-5" width="806" height="555" filterUnits="userSpaceOnUse" color-interpolation-filters="sRGB">
<feFlood flood-opacity="0" result="BackgroundImageFix"/>
<feColorMatrix in="SourceAlpha" type="matrix" values="0 0 0 0 0 0 0 0 0 0 0 0 0 0 0 0 0 0 127 0"/>
<feOffset dy="10"/>
<feGaussianBlur stdDeviation="10"/>
<feColorMatrix type="matrix" values="0 0 0 0 0.117647 0 0 0 0 0.12549 0 0 0 0 0.231373 0 0 0 0.15 0"/>
<feBlend mode="normal" in2="BackgroundImageFix" result="effect1_dropShadow"/>
<feBlend mode="normal" in="SourceGraphic" in2="effect1_dropShadow" result="shape"/>
</filter>
<filter id="filter1_d" x="217" y="437" width="106" height="107" filterUnits="userSpaceOnUse" color-interpolation-filters="sRGB">
<feFlood flood-opacity="0" result="BackgroundImageFix"/>
<feColorMatrix in="SourceAlpha" type="matrix" values="0 0 0 0 0 0 0 0 0 0 0 0 0 0 0 0 0 0 127 0"/>
<feOffset dy="23"/>
<feGaussianBlur stdDeviation="11"/>
<feColorMatrix type="matrix" values="0 0 0 0 0.889154 0 0 0 0 0.951028 0 0 0 0 0.995833 0 0 0 1 0"/>
<feBlend mode="normal" in2="BackgroundImageFix" result="effect1_dropShadow"/>
<feBlend mode="normal" in="SourceGraphic" in2="effect1_dropShadow" result="shape"/>
</filter>
<filter id="filter2_d" x="434" y="253" width="204" height="205" filterUnits="userSpaceOnUse" color-interpolation-filters="sRGB">
<feFlood flood-opacity="0" result="BackgroundImageFix"/>
<feColorMatrix in="SourceAlpha" type="matrix" values="0 0 0 0 0 0 0 0 0 0 0 0 0 0 0 0 0 0 127 0"/>
<feOffset dy="23"/>
<feGaussianBlur stdDeviation="11"/>
<feColorMatrix type="matrix" values="0 0 0 0 0.18818 0 0 0 0 0.725248 0 0 0 0 0.596352 0 0 0 0.12 0"/>
<feBlend mode="normal" in2="BackgroundImageFix" result="effect1_dropShadow"/>
<feBlend mode="normal" in="SourceGraphic" in2="effect1_dropShadow" result="shape"/>
</filter>
<filter id="filter3_d" x="555" y="173" width="175" height="176" filterUnits="userSpaceOnUse" color-interpolation-filters="sRGB">
<feFlood flood-opacity="0" result="BackgroundImageFix"/>
<feColorMatrix in="SourceAlpha" type="matrix" values="0 0 0 0 0 0 0 0 0 0 0 0 0 0 0 0 0 0 127 0"/>
<feOffset dy="23"/>
<feGaussianBlur stdDeviation="11"/>
<feColorMatrix type="matrix" values="0 0 0 0 1 0 0 0 0 0.87197 0 0 0 0 0.897438 0 0 0 1 0"/>
<feBlend mode="normal" in2="BackgroundImageFix" result="effect1_dropShadow"/>
<feBlend mode="normal" in="SourceGraphic" in2="effect1_dropShadow" result="shape"/>
</filter>
<filter id="filter4_d" x="632" y="271" width="160" height="161" filterUnits="userSpaceOnUse" color-interpolation-filters="sRGB">
<feFlood flood-opacity="0" result="BackgroundImageFix"/>
<feColorMatrix in="SourceAlpha" type="matrix" values="0 0 0 0 0 0 0 0 0 0 0 0 0 0 0 0 0 0 127 0"/>
<feOffset dy="23"/>
<feGaussianBlur stdDeviation="11"/>
<feColorMatrix type="matrix" values="0 0 0 0 1 0 0 0 0 0.87197 0 0 0 0 0.897438 0 0 0 1 0"/>
<feBlend mode="normal" in2="BackgroundImageFix" result="effect1_dropShadow"/>
<feBlend mode="normal" in="SourceGraphic" in2="effect1_dropShadow" result="shape"/>
</filter>
<filter id="filter5_d" x="845" y="173" width="128" height="129" filterUnits="userSpaceOnUse" color-interpolation-filters="sRGB">
<feFlood flood-opacity="0" result="BackgroundImageFix"/>
<feColorMatrix in="SourceAlpha" type="matrix" values="0 0 0 0 0 0 0 0 0 0 0 0 0 0 0 0 0 0 127 0"/>
<feOffset dy="23"/>
<feGaussianBlur stdDeviation="11"/>
<feColorMatrix type="matrix" values="0 0 0 0 1 0 0 0 0 0.87197 0 0 0 0 0.897438 0 0 0 1 0"/>
<feBlend mode="normal" in2="BackgroundImageFix" result="effect1_dropShadow"/>
<feBlend mode="normal" in="SourceGraphic" in2="effect1_dropShadow" result="shape"/>
</filter>
<filter id="filter6_d" x="958" y="45" width="81" height="82" filterUnits="userSpaceOnUse" color-interpolation-filters="sRGB">
<feFlood flood-opacity="0" result="BackgroundImageFix"/>
<feColorMatrix in="SourceAlpha" type="matrix" values="0 0 0 0 0 0 0 0 0 0 0 0 0 0 0 0 0 0 127 0"/>
<feOffset dy="23"/>
<feGaussianBlur stdDeviation="11"/>
<feColorMatrix type="matrix" values="0 0 0 0 1 0 0 0 0 0.87197 0 0 0 0 0.897438 0 0 0 1 0"/>
<feBlend mode="normal" in2="BackgroundImageFix" result="effect1_dropShadow"/>
<feBlend mode="normal" in="SourceGraphic" in2="effect1_dropShadow" result="shape"/>
</filter>
<filter id="filter7_d" x="391" y="318" width="102" height="103" filterUnits="userSpaceOnUse" color-interpolation-filters="sRGB">
<feFlood flood-opacity="0" result="BackgroundImageFix"/>
<feColorMatrix in="SourceAlpha" type="matrix" values="0 0 0 0 0 0 0 0 0 0 0 0 0 0 0 0 0 0 127 0"/>
<feOffset dy="23"/>
<feGaussianBlur stdDeviation="11"/>
<feColorMatrix type="matrix" values="0 0 0 0 0.836593 0 0 0 0 0.869847 0 0 0 0 0.987748 0 0 0 1 0"/>
<feBlend mode="normal" in2="BackgroundImageFix" result="effect1_dropShadow"/>
<feBlend mode="normal" in="SourceGraphic" in2="effect1_dropShadow" result="shape"/>
</filter>
<linearGradient id="paint0_linear" x1="270" y1="123" x2="270" y2="133" gradientUnits="userSpaceOnUse">
<stop stop-color="#A8156E"/>
<stop offset="1" stop-color="#DD3132"/>
</linearGradient>
<linearGradient id="paint1_linear" x1="574" y1="198" x2="574" y2="208" gradientUnits="userSpaceOnUse">
<stop stop-color="#A8156E"/>
<stop offset="1" stop-color="#DD3132"/>
</linearGradient>
<linearGradient id="paint2_linear" x1="782" y1="510" x2="782" y2="520" gradientUnits="userSpaceOnUse">
<stop stop-color="#A8156E"/>
<stop offset="1" stop-color="#DD3132"/>
</linearGradient>
<linearGradient id="paint3_linear" x1="870" y1="333" x2="870" y2="343" gradientUnits="userSpaceOnUse">
<stop stop-color="#A8156E"/>
<stop offset="1" stop-color="#DD3132"/>
</linearGradient>
<linearGradient id="paint4_linear" x1="386" y1="482" x2="386" y2="492" gradientUnits="userSpaceOnUse">
<stop stop-color="#A8156E"/>
<stop offset="1" stop-color="#DD3132"/>
</linearGradient>
<linearGradient id="paint5_linear" x1="891" y1="128" x2="891" y2="138" gradientUnits="userSpaceOnUse">
<stop stop-color="#A8156E"/>
<stop offset="1" stop-color="#DD3132"/>
</linearGradient>
<linearGradient id="paint6_linear" x1="1026" y1="97" x2="1026" y2="107" gradientUnits="userSpaceOnUse">
<stop stop-color="#A8156E"/>
<stop offset="1" stop-color="#DD3132"/>
</linearGradient>
<linearGradient id="paint7_linear" x1="1016" y1="5" x2="1016" y2="15" gradientUnits="userSpaceOnUse">
<stop stop-color="#A8156E"/>
<stop offset="1" stop-color="#DD3132"/>
</linearGradient>
<linearGradient id="paint8_linear" x1="509.302" y1="316.078" x2="507.851" y2="360.283" gradientUnits="userSpaceOnUse">
<stop stop-color="#3BBF78"/>
<stop offset="1" stop-color="#209A84"/>
</linearGradient>
<linearGradient id="paint9_linear" x1="618.748" y1="230.594" x2="617.652" y2="264.981" gradientUnits="userSpaceOnUse">
<stop stop-color="#DC5160"/>
<stop offset="1" stop-color="#B52B3A"/>
</linearGradient>
<linearGradient id="paint10_linear" x1="658.983" y1="218.054" x2="658.2" y2="236.468" gradientUnits="userSpaceOnUse">
<stop stop-color="#DC5160"/>
<stop offset="1" stop-color="#B52B3A"/>
</linearGradient>
<linearGradient id="paint11_linear" x1="659.522" y1="225.327" x2="659.126" y2="234.783" gradientUnits="userSpaceOnUse">
<stop stop-color="#DC5160"/>
<stop offset="1" stop-color="#B52B3A"/>
</linearGradient>
<linearGradient id="paint12_linear" x1="628.644" y1="247.913" x2="628.167" y2="261.592" gradientUnits="userSpaceOnUse">
<stop stop-color="#DC5160"/>
<stop offset="1" stop-color="#B52B3A"/>
</linearGradient>
<linearGradient id="paint13_linear" x1="894.805" y1="205.003" x2="894.13" y2="226.976" gradientUnits="userSpaceOnUse">
<stop stop-color="#FE7500"/>
<stop offset="1" stop-color="#EA500F"/>
</linearGradient>
<linearGradient id="paint14_linear" x1="993.584" y1="52.9384" x2="989.641" y2="57.9197" gradientUnits="userSpaceOnUse">
<stop stop-color="#EF4021"/>
<stop offset="0.526042" stop-color="#7CA843"/>
<stop offset="1" stop-color="#1D9AD4"/>
</linearGradient>
<linearGradient id="paint15_linear" x1="1006.14" y1="50.4605" x2="984.409" y2="70.3415" gradientUnits="userSpaceOnUse">
<stop stop-color="#EF4021"/>
<stop offset="0.526042" stop-color="#7CA843"/>
<stop offset="1" stop-color="#1D9AD4"/>
</linearGradient>
<linearGradient id="paint16_linear" x1="435.003" y1="332.777" x2="434.414" y2="346.589" gradientUnits="userSpaceOnUse">
<stop stop-color="#1D13DA"/>
<stop offset="1" stop-color="#1C15A6"/>
</linearGradient>
<linearGradient id="paint17_linear" x1="435.226" y1="353.951" x2="435.143" y2="359.105" gradientUnits="userSpaceOnUse">
<stop stop-color="#1D13DA"/>
<stop offset="1" stop-color="#1C15A6"/>
</linearGradient>
<clipPath id="clip0">
<rect width="1049" height="583" fill="white"/>
</clipPath>
<clipPath id="clip1">
<rect width="62" height="62" fill="white" transform="translate(239 437)"/>
</clipPath>
<clipPath id="clip2">
<rect width="70" height="58" fill="white" transform="translate(610 213)"/>
</clipPath>
</defs>
</svg>
