<svg width="87" height="40" viewBox="0 0 87 40" fill="none" xmlns="http://www.w3.org/2000/svg">
<g clip-path="url(#clip0)">
<path d="M80.784 35.725C80.3953 35.725 80.046 35.725 79.7349 35.6857C79.0745 35.6469 78.4141 35.6077 77.7537 35.6077C77.3264 35.6077 77.3264 35.6077 77.2874 35.178L76.6656 28.0659L76.0442 22.1654L75.6169 18.5313L75.2283 15.3662L74.5289 10.4425C74.2957 8.6843 74.024 6.9649 73.6743 5.20628C73.6353 4.93299 73.6353 4.89377 73.9464 4.85456C75.1507 4.62008 76.3939 4.50284 77.6371 4.50284H78.0644C78.2585 4.54205 78.3751 4.65929 78.4141 4.89377L78.5696 7.58992L79.6573 22.1654L80.2011 28.8474L80.5508 32.6771L80.784 35.725ZM33.1529 4.50284H33.8523C34.202 4.50284 34.2795 4.62008 34.2795 4.9718L34.5906 9.70026L35.29 19.5081L35.7173 24.6271L36.028 28.5741L36.6498 35.3732C36.6498 35.6857 36.6108 35.725 36.3001 35.725L33.5026 35.6077C33.3084 35.6469 33.1919 35.5297 33.1919 35.334L33.0753 33.9663C32.9587 32.7943 32.8422 31.6219 32.7646 30.4107L32.1428 24.2365L31.4824 18.6486L31.0161 14.702L30.5113 11.1067C30.2782 9.50459 30.006 7.86361 29.7343 6.26145L29.5398 5.16747C29.5012 4.9718 29.5398 4.89377 29.7343 4.85456C30.822 4.65929 31.8711 4.46402 33.1529 4.50284ZM72.237 20.2507C73.2081 20.2507 73.3246 20.29 73.4802 21.2275C73.6743 22.3999 73.8299 23.5723 73.9464 24.7443L74.3737 28.5348L75.1897 36.5845C75.2283 36.7801 75.1897 36.8582 74.9951 36.8582L71.9649 37.2099C71.6542 37.2487 71.5762 37.2099 71.5376 36.8974L69.7891 27.9098L68.7014 21.9309L68.5459 21.1102C68.5073 20.9542 68.5849 20.837 68.7404 20.7977C69.9447 20.5244 71.1103 20.3288 72.237 20.2507ZM28.0634 20.2507C29.1125 20.2115 29.2291 20.3288 29.3457 21.3059C29.6178 22.9081 29.8119 24.471 29.9675 26.0732L30.4723 30.762L30.783 33.9275L31.0551 36.4672C31.0551 36.8189 31.0161 36.8974 30.7054 36.9362L27.8307 37.2099C27.5196 37.2487 27.442 37.2099 27.403 36.8974L25.0332 24.6271L24.4118 21.1495C24.3728 20.9542 24.4503 20.837 24.6449 20.7977C25.8491 20.5244 26.9758 20.3288 28.0634 20.2507ZM42.9045 32.3642V37.2099V37.3659C42.9435 37.6004 42.8269 37.7177 42.5938 37.6788H41.6613C41.0009 37.6788 40.3405 37.7177 39.6801 37.7569C39.3304 37.7961 39.2914 37.7961 39.2524 37.3659L38.631 30.3323L38.3203 26.8547L37.8541 21.5404C37.8151 21.1102 37.893 21.0322 38.2423 20.993C39.3304 20.8758 40.4181 20.8758 41.5061 20.915L42.3217 21.0322C42.6328 21.1495 42.6714 21.1887 42.6714 21.5012L42.788 23.6111L42.8269 25.9559C42.8659 28.1051 42.9045 30.215 42.9045 32.3642ZM87.0001 32.5987V37.1707V37.4051C87.0001 37.6004 86.9225 37.7177 86.728 37.6788H85.3296C84.7857 37.6788 84.2415 37.7177 83.7367 37.7569C83.426 37.7961 83.387 37.7569 83.348 37.4051L82.5324 28.2611L82.1048 23.7284L81.9496 21.4232C81.9106 21.1103 81.9882 21.0322 82.2993 21.0322C83.5811 20.8758 84.9023 20.837 86.1841 20.993C86.6894 21.0322 86.7669 21.1887 86.8059 21.6965L86.9225 26.8935L87.0001 32.5987ZM71.1103 11.9274C71.4986 11.9274 71.8483 11.9667 72.1204 12.0055C72.3145 12.0447 72.3921 12.1227 72.4311 12.3184L72.936 17.7499C73.0525 18.2188 72.9749 18.2969 72.5087 18.2969L71.1879 18.3749C70.9158 18.4141 70.7992 18.4533 70.7992 18.0236L70.2554 13.6076L70.1002 12.3572C70.0612 12.1227 70.1388 12.0055 70.3719 11.9667L71.1103 11.9274ZM27.0923 11.9274C27.403 11.9274 27.7141 11.9667 27.9859 12.0055C28.1414 12.0447 28.219 12.1227 28.258 12.3184L28.4131 13.6861L28.8018 17.9451C28.8408 18.2577 28.8408 18.2969 28.5297 18.2969L27.0148 18.3749C26.7041 18.4141 26.6651 18.3749 26.6261 18.0624L26.2764 14.9365L25.9657 12.3184C25.9267 12.1227 26.0047 12.0055 26.1988 12.0055C26.4709 11.9667 26.7816 11.9274 27.0923 11.9274ZM42.5938 15.8352V18.5313C42.6328 18.9611 42.5548 18.9611 42.2051 18.9611C41.7003 18.9611 41.234 18.9223 40.7678 18.8831C40.4571 18.8439 40.4181 18.8439 40.4571 18.5313L40.3405 15.2098C40.3405 14.4675 40.3405 13.7249 40.3015 12.9826C40.2629 12.6309 40.3015 12.5917 40.6512 12.5917C41.195 12.5917 41.7389 12.6309 42.2831 12.7089C42.5938 12.7089 42.5938 12.7873 42.5938 13.0998V15.8352ZM86.728 15.874V18.5706C86.728 18.9223 86.6894 18.9611 86.3397 18.9611L84.8633 18.8831C84.6302 18.8439 84.5136 18.7266 84.5526 18.5313L84.436 12.9434C84.436 12.6309 84.4746 12.5917 84.7857 12.5917C85.2906 12.5917 85.7569 12.6309 86.2231 12.6701C86.8059 12.7089 86.728 12.8262 86.728 13.2559V15.874ZM25.8881 17.9844C25.9267 18.4533 25.8881 18.5313 25.4218 18.5706L24.4893 18.805C24.1786 18.9223 24.1396 18.8439 24.101 18.5706L23.1295 13.0606C23.013 12.7089 23.0906 12.6309 23.4403 12.5917L24.8 12.3572C25.1111 12.3184 25.1887 12.3184 25.1887 12.6309C25.3053 13.2951 25.4218 13.9593 25.4994 14.6236L25.8881 17.7499V17.9844ZM67.2251 12.6309C67.8079 12.5136 68.4293 12.4356 69.0511 12.3572C69.2453 12.3184 69.3229 12.4356 69.3618 12.6309L69.6726 14.78C69.8281 15.8352 69.9447 16.89 69.9837 17.9451V18.2577C70.0222 18.4141 69.9447 18.5313 69.7891 18.5706L68.5459 18.8439C68.3518 18.8831 68.2742 18.805 68.2352 18.6094L67.2251 12.7873V12.6309ZM39.6411 16.8512C39.6411 17.4762 39.6021 18.0624 39.5635 18.6094C39.5635 18.805 39.4856 18.8831 39.2914 18.9223L38.0872 19.0395C37.893 19.0783 37.8151 18.9611 37.8151 18.7658C37.7375 18.1796 37.6985 17.6326 37.6599 17.0464C37.5819 15.9913 37.5044 14.8973 37.4654 13.8033L37.3878 13.0218C37.3488 12.8654 37.4268 12.7873 37.5819 12.7873L39.1749 12.6701C39.447 12.6701 39.5245 12.7089 39.5245 13.0218L39.6411 16.8512ZM83.6977 16.2257C83.7367 16.9684 83.7367 17.7499 83.6977 18.4921C83.7367 18.8439 83.6591 18.9223 83.3094 18.9223L82.2213 19.0395C82.0272 19.0783 81.9106 18.9611 81.9106 18.7658C81.8716 17.7891 81.7941 16.7731 81.7165 15.796L81.5609 13.0606C81.5219 12.8654 81.5999 12.7873 81.7551 12.7873L83.3094 12.6701C83.5811 12.6701 83.6201 12.7089 83.6201 13.0218C83.6977 14.0766 83.7367 15.171 83.6977 16.2257ZM24.3728 29.5508C24.9946 30.2935 25.1111 31.1137 24.839 32.0125C24.6059 32.8724 24.1786 33.6146 23.5568 34.24C22.5467 35.2952 21.3815 36.1547 20.0993 36.8189C17.8849 37.9914 15.5926 38.812 13.1448 39.2418C11.3967 39.5935 9.64826 39.828 7.90019 39.9452C7.35636 39.9841 6.81252 39.9841 6.26829 39.9841H5.10304C4.79194 39.9841 4.71436 39.906 4.67537 39.5935L4.40366 35.803L3.66528 28.3396L2.84973 21.2275L2.38347 17.4374L1.87823 13.8033C1.60651 11.8102 1.25682 9.8175 0.907123 7.8244C0.635006 6.22224 0.363288 4.62008 0.013595 3.01832C-0.0253924 2.82265 0.0135949 2.6666 0.207736 2.62738L5.60789 0.360989C5.95758 0.204535 6.26829 0.0872936 6.61798 0.00926627C6.85111 -0.0299475 6.96768 0.04848 6.92869 0.282962C6.92869 0.907981 6.92869 1.5334 6.8901 2.19763L6.85111 2.70541C6.81252 4.9718 6.81252 7.2382 6.85111 9.5438C6.8901 11.5369 7.00666 13.5688 7.12323 15.5615C7.31737 18.6878 7.62807 21.8137 7.93918 24.9008C7.93918 25.2133 7.97777 25.2133 8.32746 25.1745C8.98786 25.0572 9.60967 25.018 10.2701 25.018C12.3292 25.018 14.388 25.2525 16.3696 25.7603C18.1177 26.1904 19.7886 26.7766 21.4591 27.5189C22.275 27.9098 23.013 28.3784 23.7124 28.9258C23.9845 29.1211 24.1786 29.3163 24.3728 29.5508ZM68.1576 29.1991C68.9736 29.8633 69.2453 30.762 69.0122 31.8172C68.818 32.6771 68.4293 33.4194 67.8465 34.0836C66.9144 35.1388 65.8263 35.9594 64.6221 36.6237C62.2912 37.9133 59.8048 38.812 57.1628 39.281C55.7254 39.5543 54.2876 39.7888 52.8503 39.906C52.0343 39.9841 51.1408 40.0233 50.2473 39.9841H49.1982C48.9655 40.0233 48.8489 39.906 48.8489 39.6715C48.7709 38.5776 48.6934 37.4832 48.5768 36.3892L47.955 29.7073L47.2946 23.8848L46.479 17.3201C46.3625 16.1869 46.2069 15.0145 46.0128 13.8813L45.3134 9.50459C45.0027 7.43386 44.614 5.36274 44.1867 3.29161L44.1477 3.01832C44.0702 2.82265 44.1477 2.6666 44.3419 2.62738C46.2459 1.84591 48.1105 0.986008 50.0141 0.243748C50.5194 0.04848 51.1408 -0.186002 51.1022 0.282962C50.9467 1.72867 50.9856 3.17437 50.9467 4.58127C50.9077 5.75328 50.9077 6.92569 50.9856 8.05888V8.9576C50.9856 10.3645 51.0242 11.7714 51.1408 13.1387C51.2188 14.9753 51.3353 16.8512 51.4905 18.6878L51.8402 22.6344C51.8792 23.3766 51.9568 24.0801 52.0733 24.8227C52.0733 25.2525 52.1509 25.2133 52.5006 25.1745C53.2 25.0572 53.8994 25.018 54.5988 25.018C57.0462 25.0572 59.4161 25.4478 61.747 26.112C63.3399 26.5422 64.8552 27.128 66.3316 27.9098C66.992 28.2612 67.5748 28.6913 68.1576 29.1991ZM11.9795 36.0767C12.5624 35.725 13.5725 35.0215 14.9708 33.9275C16.3696 32.7943 17.2241 32.0517 17.5738 31.6611C15.4761 30.7232 13.3003 29.9025 11.047 29.1603L11.9795 36.0767ZM61.5918 31.8564C61.7084 31.7392 61.6694 31.6611 61.5528 31.5827L60.6203 31.1922C58.9888 30.4887 57.3569 29.8633 55.6864 29.3163L55.4533 29.2383C55.3757 29.1991 55.2981 29.2383 55.1816 29.2775L56.1137 36.0375C56.2303 36.0375 56.3082 35.9983 56.3468 35.9594C57.8622 34.8651 59.3771 33.7319 60.8924 32.5206L61.5918 31.8564Z" fill="white"/>
</g>
<defs>
<clipPath id="clip0">
<rect width="87" height="40" fill="white"/>
</clipPath>
</defs>
</svg>
