<svg width="65" height="30" viewBox="0 0 65 30" fill="none" xmlns="http://www.w3.org/2000/svg">
<g clip-path="url(#clip0)">
<path d="M60.3558 26.7938C60.0654 26.7938 59.8045 26.7938 59.572 26.7643C59.0786 26.7352 58.5852 26.7058 58.0918 26.7058C57.7726 26.7058 57.7726 26.7058 57.7435 26.3835L57.2789 21.0494L56.8146 16.6241L56.4954 13.8985L56.205 11.5247L55.6825 7.83192C55.5083 6.51326 55.3053 5.22371 55.044 3.90474C55.0149 3.69977 55.0149 3.67036 55.2473 3.64095C56.1471 3.46509 57.0759 3.37716 58.0047 3.37716H58.324C58.469 3.40657 58.5561 3.4945 58.5852 3.67036L58.7015 5.69247L59.5141 16.6241L59.9204 21.6355L60.1817 24.5079L60.3558 26.7938ZM24.7694 3.37716H25.2919C25.5532 3.37716 25.6112 3.46509 25.6112 3.72888L25.8436 7.27522L26.3661 14.6311L26.6853 18.4703L26.9175 21.4306L27.382 26.53C27.382 26.7643 27.3529 26.7938 27.1208 26.7938L25.0307 26.7058C24.8856 26.7352 24.7985 26.6473 24.7985 26.5005L24.7114 25.4748C24.6244 24.5958 24.5373 23.7165 24.4793 22.8081L24.0147 18.1774L23.5213 13.9865L23.173 11.0265L22.7958 8.33009C22.6216 7.12847 22.4183 5.89774 22.2153 4.69612L22.07 3.87563C22.0411 3.72888 22.07 3.67036 22.2153 3.64095C23.0279 3.4945 23.8117 3.34805 24.7694 3.37716ZM53.9701 15.1881C54.6957 15.1881 54.7828 15.2175 54.899 15.9206C55.044 16.8 55.1603 17.6793 55.2473 18.5583L55.5666 21.4012L56.1762 27.4384C56.205 27.5851 56.1762 27.6437 56.0308 27.6437L53.7668 27.9074C53.5347 27.9366 53.4764 27.9074 53.4476 27.6731L52.1413 20.9324L51.3287 16.4482L51.2124 15.8327C51.1836 15.7157 51.2416 15.6277 51.3578 15.5983C52.2575 15.3934 53.1284 15.2466 53.9701 15.1881ZM20.9669 15.1881C21.7507 15.1587 21.8378 15.2466 21.9249 15.9795C22.1282 17.1811 22.2733 18.3533 22.3895 19.5549L22.7667 23.0715L22.9988 25.4457L23.2021 27.3504C23.2021 27.6142 23.173 27.6731 22.9408 27.7022L20.7931 27.9074C20.5606 27.9366 20.5027 27.9074 20.4735 27.6731L18.7029 18.4703L18.2387 15.8621C18.2095 15.7157 18.2675 15.6277 18.4128 15.5983C19.3126 15.3934 20.1543 15.2466 20.9669 15.1881ZM32.0551 24.2732V27.9074V28.0245C32.0842 28.2003 31.9971 28.2883 31.823 28.2592H31.1263C30.6329 28.2592 30.1395 28.2883 29.646 28.3177C29.3848 28.3471 29.3557 28.3471 29.3265 28.0245L28.8623 22.7492L28.6301 20.141L28.2818 16.1553C28.2526 15.8327 28.3109 15.7742 28.5719 15.7448C29.3848 15.6569 30.1974 15.6569 31.0103 15.6863L31.6197 15.7742C31.8521 15.8621 31.8809 15.8915 31.8809 16.1259L31.968 17.7084L31.9971 19.467C32.0263 21.0789 32.0551 22.6613 32.0551 24.2732ZM65.0001 24.449V27.878V28.0539C65.0001 28.2003 64.9421 28.2883 64.7967 28.2592H63.752C63.3457 28.2592 62.9391 28.2883 62.5619 28.3177C62.3297 28.3471 62.3006 28.3177 62.2715 28.0539L61.6622 21.1959L61.3426 17.7963L61.2267 16.0674C61.1976 15.8327 61.2555 15.7742 61.488 15.7742C62.4457 15.6569 63.4328 15.6277 64.3904 15.7448C64.7679 15.7742 64.8259 15.8915 64.855 16.2724L64.9421 20.1701L65.0001 24.449ZM53.1284 8.94561C53.4185 8.94561 53.6798 8.97502 53.8831 9.00413C54.0281 9.03354 54.0861 9.09206 54.1152 9.23881L54.4924 13.3124C54.5795 13.6642 54.5215 13.7227 54.1732 13.7227L53.1864 13.7812C52.983 13.8106 52.896 13.84 52.896 13.5177L52.4896 10.2057L52.3737 9.26792C52.3446 9.09206 52.4026 9.00413 52.5767 8.97502L53.1284 8.94561ZM20.2414 8.94561C20.4735 8.94561 20.706 8.97502 20.909 9.00413C21.0252 9.03354 21.0832 9.09206 21.1123 9.23881L21.2282 10.2646L21.5186 13.4589C21.5477 13.6933 21.5477 13.7227 21.3153 13.7227L20.1834 13.7812C19.9513 13.8106 19.9222 13.7812 19.893 13.5468L19.6318 11.2024L19.3996 9.23881C19.3705 9.09206 19.4288 9.00413 19.5738 9.00413C19.7771 8.97502 20.0093 8.94561 20.2414 8.94561ZM31.823 11.8764V13.8985C31.8521 14.2209 31.7938 14.2209 31.5326 14.2209C31.1554 14.2209 30.807 14.1917 30.4587 14.1623C30.2265 14.1329 30.1974 14.1329 30.2265 13.8985L30.1395 11.4074C30.1395 10.8507 30.1395 10.2937 30.1103 9.73698C30.0815 9.47319 30.1103 9.44378 30.3716 9.44378C30.7779 9.44378 31.1842 9.47319 31.5908 9.53171C31.823 9.53171 31.823 9.59053 31.823 9.82492V11.8764ZM64.7967 11.9055V13.9279C64.7967 14.1917 64.7679 14.2209 64.5066 14.2209L63.4036 14.1623C63.2295 14.1329 63.1424 14.045 63.1715 13.8985L63.0844 9.70757C63.0844 9.47319 63.1132 9.44378 63.3457 9.44378C63.7229 9.44378 64.0712 9.47319 64.4196 9.5026C64.855 9.53171 64.7967 9.61964 64.7967 9.94196V11.9055ZM19.3417 13.4883C19.3705 13.84 19.3417 13.8985 18.9933 13.9279L18.2966 14.1038C18.0645 14.1917 18.0354 14.1329 18.0065 13.9279L17.2807 9.7955C17.1936 9.53171 17.2516 9.47319 17.5128 9.44378L18.5288 9.26792C18.7612 9.23881 18.8192 9.23881 18.8192 9.47319C18.9062 9.97137 18.9933 10.4695 19.0513 10.9677L19.3417 13.3124V13.4883ZM50.2256 9.47319C50.6611 9.38526 51.1254 9.32674 51.5899 9.26792C51.735 9.23881 51.7929 9.32674 51.8221 9.47319L52.0542 11.0851C52.1704 11.8764 52.2575 12.6675 52.2866 13.4589V13.6933C52.3155 13.8106 52.2575 13.8985 52.1413 13.9279L51.2124 14.1329C51.0674 14.1623 51.0094 14.1038 50.9803 13.9571L50.2256 9.59053V9.47319ZM29.6169 12.6384C29.6169 13.1072 29.5878 13.5468 29.559 13.9571C29.559 14.1038 29.5007 14.1623 29.3557 14.1917L28.4559 14.2797C28.3109 14.3088 28.2526 14.2209 28.2526 14.0744C28.1947 13.6347 28.1655 13.2245 28.1367 12.7849C28.0785 11.9935 28.0205 11.173 27.9914 10.3525L27.9334 9.76639C27.9043 9.64905 27.9625 9.59053 28.0785 9.59053L29.2686 9.5026C29.4719 9.5026 29.5298 9.53171 29.5298 9.76639L29.6169 12.6384ZM62.5327 12.1693C62.5619 12.7263 62.5619 13.3124 62.5327 13.8691C62.5619 14.1329 62.5039 14.1917 62.2427 14.1917L61.4297 14.2797C61.2847 14.3088 61.1976 14.2209 61.1976 14.0744C61.1685 13.3418 61.1105 12.5799 61.0525 11.847L60.9363 9.7955C60.9072 9.64905 60.9655 9.59053 61.0814 9.59053L62.2427 9.5026C62.4457 9.5026 62.4748 9.53171 62.4748 9.76639C62.5327 10.5575 62.5619 11.3783 62.5327 12.1693ZM18.2095 22.1631C18.6741 22.7201 18.7612 23.3353 18.5579 24.0094C18.3837 24.6543 18.0645 25.211 17.5999 25.6801C16.8453 26.4714 15.9747 27.1161 15.0167 27.6142C13.3623 28.4935 11.6497 29.1091 9.82082 29.4314C8.51479 29.6952 7.20847 29.871 5.90244 29.959C5.49613 29.9881 5.08981 29.9881 4.6832 29.9881H3.81262C3.58018 29.9881 3.52222 29.9295 3.4931 29.6952L3.29009 26.8523L2.73843 21.2547L2.12911 15.9206L1.78076 13.0781L1.40327 10.3525C1.20027 8.85768 0.939 7.36315 0.677735 5.86833C0.47443 4.66671 0.271422 3.46509 0.0101572 2.26377C-0.0189714 2.11702 0.0101571 1.99998 0.155205 1.97057L4.1898 0.270772C4.45107 0.153431 4.6832 0.0655007 4.94447 0.00698022C5.11865 -0.0224301 5.20573 0.0363905 5.17661 0.212252C5.17661 0.681016 5.17661 1.15008 5.14777 1.64825L5.11865 2.02909C5.08981 3.72888 5.08981 5.42868 5.11865 7.15788C5.14777 8.65271 5.23486 10.1766 5.32195 11.6712C5.467 14.0159 5.69914 16.3603 5.93157 18.6756C5.93157 18.91 5.9604 18.91 6.22167 18.8809C6.71507 18.793 7.17964 18.7635 7.67304 18.7635C9.2115 18.7635 10.7497 18.9394 12.2302 19.3202C13.5362 19.6428 14.7846 20.0825 16.0326 20.6392C16.6422 20.9324 17.1936 21.2838 17.7161 21.6944C17.9194 21.8408 18.0645 21.9873 18.2095 22.1631ZM50.9224 21.8993C51.532 22.3975 51.735 23.0715 51.5608 23.8629C51.4158 24.5079 51.1254 25.0645 50.6899 25.5627C49.9935 26.3541 49.1806 26.9696 48.2809 27.4678C46.5394 28.435 44.6817 29.1091 42.7078 29.4608C41.6339 29.6658 40.5597 29.8416 39.4858 29.9295C38.8762 29.9881 38.2086 30.0175 37.5411 29.9881H36.7573C36.5834 30.0175 36.4963 29.9295 36.4963 29.7537C36.438 28.9332 36.3801 28.1124 36.293 27.2919L35.8284 22.2805L35.335 17.9136L34.7257 12.9901C34.6386 12.1402 34.5224 11.2609 34.3774 10.411L33.8548 7.12847C33.6227 5.57543 33.3323 4.02208 33.0131 2.46874L32.9839 2.26377C32.926 2.11702 32.9839 1.99998 33.129 1.97057C34.5515 1.38446 35.9446 0.739536 37.3669 0.182842C37.7444 0.0363905 38.2086 -0.139471 38.1798 0.212252C38.0636 1.29653 38.0927 2.38081 38.0636 3.43598C38.0345 4.31499 38.0345 5.1943 38.0927 6.04419V6.71823C38.0927 7.7734 38.1216 8.82857 38.2086 9.85402C38.2669 11.2315 38.354 12.6384 38.4699 14.0159L38.7312 16.9758C38.7603 17.5325 38.8183 18.0601 38.9054 18.6171C38.9054 18.9394 38.9633 18.91 39.2246 18.8809C39.7471 18.793 40.2696 18.7635 40.7922 18.7635C42.6207 18.793 44.3913 19.0859 46.1328 19.584C47.3229 19.9066 48.455 20.346 49.5581 20.9324C50.0515 21.1959 50.4869 21.5185 50.9224 21.8993ZM8.95024 27.0575C9.38568 26.7938 10.1403 26.2662 11.1851 25.4457C12.2302 24.5958 12.8686 24.0388 13.1299 23.7459C11.5626 23.0424 9.93704 22.4269 8.25353 21.8702L8.95024 27.0575ZM46.0169 23.8923C46.104 23.8044 46.0748 23.7459 45.9877 23.6871L45.291 23.3942C44.0721 22.8666 42.8529 22.3975 41.6048 21.9873L41.4306 21.9288C41.3727 21.8993 41.3147 21.9287 41.2276 21.9582L41.924 27.0281C42.0111 27.0281 42.0694 26.9987 42.0982 26.9696C43.2303 26.1488 44.3622 25.2989 45.4943 24.3905L46.0169 23.8923Z" fill="white"/>
</g>
<defs>
<clipPath id="clip0">
<rect width="65" height="30" fill="white"/>
</clipPath>
</defs>
</svg>
