<svg width="65" height="30" viewBox="0 0 65 30" fill="none" xmlns="http://www.w3.org/2000/svg">
<path d="M60.2962 26.011C60.3284 26.4333 59.9922 26.8174 59.572 26.7642C59.0786 26.7351 58.5852 26.7057 58.0918 26.7057C57.7726 26.7057 57.7726 26.7057 57.7435 26.3834L57.2789 21.0493L56.8146 16.624L56.4954 13.8984L56.205 11.5246L55.6825 7.8318C55.5083 6.51313 55.3053 5.22358 55.044 3.90462C55.0149 3.69965 55.0149 3.67024 55.2473 3.64083C56.1471 3.46497 57.0759 3.37704 58.0047 3.37704C58.217 3.37704 58.483 3.37194 58.559 3.57017C58.5703 3.59978 58.5791 3.63304 58.5852 3.67024L58.7015 5.69235L59.5141 16.624L59.9204 21.6354L60.1817 24.5077L60.2962 26.011ZM24.7694 3.37704H25.2919C25.5532 3.37704 25.6112 3.46497 25.6112 3.72876L25.8436 7.2751L26.3661 14.631L26.6853 18.4702L26.9175 21.4305L27.382 26.5298C27.382 26.7642 27.3529 26.7936 27.1208 26.7936L25.3964 26.7211C25.1535 26.7109 24.7985 26.7436 24.7985 26.5004L24.7114 25.4747C24.6244 24.5957 24.5373 23.7164 24.4793 22.8079L24.0147 18.1773L23.5213 13.9863L23.173 11.0264L22.7958 8.32997C22.6216 7.12835 22.4183 5.89762 22.2153 4.696L22.07 3.87551C22.0411 3.72876 22.07 3.67024 22.2153 3.64083C23.0279 3.49438 23.8117 3.34793 24.7694 3.37704ZM53.9701 15.188C54.6957 15.188 54.7828 15.2174 54.899 15.9205C55.044 16.7998 55.1603 17.6791 55.2473 18.5581L55.5666 21.401L56.1762 27.4383C56.205 27.585 56.1762 27.6435 56.0308 27.6435L53.7668 27.9073C53.5347 27.9364 53.4764 27.9073 53.4476 27.6729L52.1413 20.9323L51.3287 16.4481L51.2124 15.8326C51.1836 15.7156 51.2416 15.6276 51.3578 15.5982C52.2575 15.3932 53.1284 15.2465 53.9701 15.188ZM20.9669 15.188C21.7507 15.1586 21.8378 15.2465 21.9249 15.9793C22.1282 17.181 22.2733 18.3532 22.3895 19.5548L22.7667 23.0714L22.9988 25.4456L23.2021 27.3503C23.2021 27.6141 23.173 27.6729 22.9408 27.702L20.7931 27.9073C20.5606 27.9364 20.5027 27.9073 20.4735 27.6729L18.7029 18.4702L18.2387 15.862C18.2095 15.7156 18.2675 15.6276 18.4128 15.5982C19.3126 15.3932 20.1543 15.2465 20.9669 15.188ZM32.0551 24.273V27.9073C32.0551 27.9852 32.0718 28.0646 32.0553 28.1408C32.0486 28.172 32.0355 28.1976 32.0164 28.2174C31.9213 28.316 31.7541 28.259 31.6171 28.259H31.1263C30.6329 28.259 30.1395 28.2882 29.646 28.3176C29.3848 28.347 29.3557 28.347 29.3265 28.0244L28.8623 22.7491L28.6301 20.1409L28.2818 16.1552C28.2526 15.8326 28.3109 15.7741 28.5719 15.7447C29.3848 15.6567 30.1974 15.6567 31.0103 15.6861L31.1338 15.704C31.4567 15.7506 31.8809 15.7995 31.8809 16.1258L31.968 17.7083L31.9971 19.4669C32.0263 21.0787 32.0551 22.6612 32.0551 24.273ZM65.0001 24.4489V27.8779V28.0538C65.0001 28.2846 64.6805 28.259 64.4497 28.259H63.752C63.3457 28.259 62.9391 28.2882 62.5619 28.3176C62.3297 28.347 62.3006 28.3176 62.2715 28.0538L61.6622 21.1958L61.3426 17.7962L61.2267 16.0673C61.1976 15.8326 61.2555 15.7741 61.488 15.7741C62.4457 15.6567 63.4328 15.6276 64.3904 15.7447C64.7679 15.7741 64.8259 15.8914 64.855 16.2722L64.9421 20.17L65.0001 24.4489ZM53.1284 8.94549C53.4185 8.94549 53.6798 8.9749 53.8831 9.00401C54.0281 9.03342 54.0861 9.09194 54.1152 9.23869L54.429 12.6276C54.4712 13.0834 54.631 13.7226 54.1732 13.7226L53.1864 13.7811C52.983 13.8105 52.896 13.8399 52.896 13.5176L52.4896 10.2056L52.3737 9.2678C52.3446 9.09194 52.4026 9.00401 52.5767 8.9749L53.1284 8.94549ZM20.2414 8.94549C20.4735 8.94549 20.706 8.9749 20.909 9.00401C21.0252 9.03342 21.0832 9.09194 21.1123 9.23869L21.2282 10.2644L21.5186 13.4588C21.5477 13.6931 21.5477 13.7226 21.3153 13.7226L20.1834 13.7811C19.9513 13.8105 19.9222 13.7811 19.893 13.5467L19.6318 11.2023L19.3996 9.23869C19.3543 9.01025 19.6891 8.98299 19.921 8.96153C20.0259 8.95182 20.1336 8.94549 20.2414 8.94549ZM31.823 11.8763V13.8984C31.8521 14.2207 31.7938 14.2207 31.5326 14.2207C31.1554 14.2207 30.807 14.1916 30.4587 14.1622C30.1682 14.1254 30.2214 13.7514 30.2112 13.4588L30.1395 11.4072C30.1395 10.8506 30.1395 10.2936 30.1103 9.73686C30.0815 9.47307 30.1103 9.44366 30.3716 9.44366C30.6261 9.44366 30.8806 9.4552 31.1351 9.4782C31.4394 9.50569 31.823 9.51927 31.823 9.82479V11.8763ZM64.7967 11.9054V13.9278C64.7967 14.1916 64.7679 14.2207 64.5066 14.2207L63.4036 14.1622C63.1397 14.1176 63.1687 13.7634 63.1631 13.4958L63.0844 9.70745C63.0844 9.47307 63.1132 9.44366 63.3457 9.44366C63.7229 9.44366 64.0712 9.47307 64.4196 9.50248C64.855 9.53159 64.7967 9.61952 64.7967 9.94183V11.9054ZM19.3417 13.4882C19.3791 13.9448 18.7701 13.9842 18.3259 14.0963L18.2966 14.1037C18.0645 14.1916 18.0354 14.1328 18.0065 13.9278L17.3744 10.329C17.312 9.97372 17.1544 9.48401 17.5128 9.44366L18.5288 9.2678C18.8287 9.23024 18.8461 9.62266 18.8966 9.92067C18.9558 10.2696 19.0107 10.6186 19.0513 10.9676L19.3417 13.3123V13.4882ZM-nan -nanL50.2256 9.47307C50.6611 9.38514 51.1254 9.32662 51.5899 9.2678C51.735 9.23869 51.7929 9.32662 51.8221 9.47307L52.0542 11.0849C52.1704 11.8763 52.2575 12.6674 52.2866 13.4588C52.2866 13.6145 52.3444 13.8152 52.2127 13.8981C52.1923 13.911 52.1684 13.921 52.1413 13.9278L51.2124 14.1328C51.0674 14.1622 51.0094 14.1037 50.9803 13.9569L50.2272 9.59955C50.2262 9.59347 50.2256 9.58731 50.2256 9.58114V9.47307L-nan -nanZM29.6169 12.6383C29.6169 13.107 29.5878 13.5467 29.559 13.9569C29.559 14.1037 29.5007 14.1622 29.3557 14.1916L28.4559 14.2796C28.3109 14.3087 28.2526 14.2207 28.2526 14.0743C28.1947 13.6346 28.1655 13.2244 28.1367 12.7847C28.0785 11.9934 28.0205 11.1729 27.9914 10.3524L27.9607 10.0419C27.9425 9.85837 27.8941 9.59041 28.0785 9.59041L29.2686 9.50248C29.4719 9.50248 29.5298 9.53159 29.5298 9.76627L29.6169 12.6383ZM62.5327 12.1692C62.5526 12.5491 62.5589 12.9425 62.5517 13.3308C62.545 13.6892 62.6011 14.1916 62.2427 14.1916L61.4297 14.2796C61.2847 14.3087 61.1976 14.2207 61.1976 14.0743C61.1685 13.3417 61.1105 12.5798 61.0525 11.8469L60.9363 9.79538C60.9072 9.64893 60.9655 9.59041 61.0814 9.59041L62.2427 9.50248C62.4457 9.50248 62.4748 9.53159 62.4748 9.76627C62.5327 10.5573 62.5619 11.3781 62.5327 12.1692ZM18.2095 22.163C18.6741 22.72 18.7612 23.3352 18.5579 24.0093C18.3837 24.6542 18.0645 25.2109 17.5999 25.6799C16.8453 26.4713 15.9747 27.1159 15.0167 27.6141C13.3623 28.4934 11.6497 29.1089 9.82082 29.4313C8.51479 29.695 7.20847 29.8709 5.90244 29.9588C5.49613 29.9879 5.08981 29.9879 4.6832 29.9879H3.81262C3.58018 29.9879 3.52222 29.9294 3.4931 29.695L3.29009 26.8521L2.73843 21.2546L2.12911 15.9205L1.78076 13.0779L1.40327 10.3524C1.20027 8.85755 0.939 7.36303 0.677735 5.86821C0.47443 4.66659 0.271422 3.46497 0.0101572 2.26365C-0.0381149 2.02045 0.2703 1.92195 0.498792 1.82569L4.1898 0.27065C4.45107 0.153309 4.6832 0.0653786 4.94447 0.00685815C5.20198 -0.0366233 5.17722 0.34337 5.17598 0.604523C5.17437 0.944453 5.16858 1.28872 5.14777 1.64813L5.11865 2.02897C5.08981 3.72876 5.08981 5.42856 5.11865 7.15776C5.14777 8.65258 5.23486 10.1765 5.32195 11.671C5.467 14.0158 5.69914 16.3602 5.93157 18.6755C5.93157 18.9099 5.9604 18.9099 6.22167 18.8808C6.71507 18.7928 7.17964 18.7634 7.67304 18.7634C9.2115 18.7634 10.7497 18.9393 12.2302 19.3201C13.5362 19.6427 14.7846 20.0824 16.0326 20.6391C16.6422 20.9323 17.1936 21.2837 17.7161 21.6942C17.9194 21.8407 18.0645 21.9871 18.2095 22.163ZM50.9224 21.8992C51.532 22.3974 51.735 23.0714 51.5608 23.8628C51.4158 24.5077 51.1254 25.0644 50.6899 25.5626C49.9935 26.354 49.1806 26.9695 48.2809 27.4677C46.5394 28.4349 44.6817 29.1089 42.7078 29.4607C41.6339 29.6656 40.5597 29.8415 39.4858 29.9294C38.8762 29.9879 38.2086 30.0174 37.5411 29.9879H37.175C36.897 29.9879 36.4963 30.0316 36.4963 29.7536C36.438 28.9331 36.3801 28.1123 36.293 27.2918L35.8284 22.2803L35.335 17.9135L34.7257 12.99C34.6386 12.1401 34.5224 11.2608 34.3774 10.4109L33.8548 7.12835C33.6227 5.57531 33.3323 4.02196 33.0131 2.46862C32.9937 2.33244 32.9166 2.18271 32.9854 2.0636C32.9862 2.06221 32.987 2.06084 32.9879 2.05948C33.0478 1.96226 33.1822 1.94862 33.2876 1.90479C34.6552 1.33647 35.9976 0.718703 37.3669 0.18272C37.7444 0.0362684 38.2086 -0.139593 38.1798 0.21213C38.0636 1.29641 38.0927 2.38069 38.0636 3.43586C38.0345 4.31487 38.0345 5.19417 38.0927 6.04407V6.71811C38.0927 7.77328 38.1216 8.82844 38.2086 9.8539C38.2669 11.2314 38.354 12.6383 38.4699 14.0158L38.7312 16.9757C38.7508 17.3513 38.7836 17.7136 38.8296 18.0807C38.8744 18.4384 38.8663 18.9207 39.2246 18.8808C39.7471 18.7928 40.2696 18.7634 40.7922 18.7634C42.6207 18.7928 44.3913 19.0857 46.1328 19.5839C47.3229 19.9065 48.455 20.3459 49.5581 20.9323C50.0515 21.1958 50.4869 21.5184 50.9224 21.8992ZM8.60988 24.5233C8.77051 25.7192 10.0754 26.3104 11.0274 25.5689C11.0792 25.5286 11.1318 25.4874 11.1851 25.4456C11.2317 25.4077 11.2775 25.3703 11.3225 25.3336C12.246 24.5794 12.0197 23.25 10.9078 22.8194C10.8637 22.8023 10.8194 22.7852 10.7752 22.7682C9.6205 22.3247 8.44523 23.2974 8.60988 24.5233ZM46.0169 23.8922C46.1358 23.7721 45.9093 23.6539 45.7534 23.5884L45.291 23.394C44.0721 22.8665 42.8529 22.3974 41.6048 21.9871L41.4468 21.9341C41.436 21.9304 41.4273 21.9264 41.4165 21.9226C41.3101 21.8855 41.2387 22.0387 41.254 22.1503L41.9006 26.8575C41.914 26.9552 42.0152 27.041 42.0901 26.977C42.0983 26.97 42.1026 26.9663 42.1112 26.96C43.239 26.1422 44.3665 25.2953 45.4943 24.3904L46.0169 23.8922Z" fill="url(#paint0_linear)"/>
<defs>
<linearGradient id="paint0_linear" x1="9.31082" y1="5.66121" x2="8.93641" y2="26.3977" gradientUnits="userSpaceOnUse">
<stop stop-color="#01AEE8"/>
<stop offset="1" stop-color="#3093B4"/>
</linearGradient>
</defs>
</svg>
