<svg width="47" height="48" viewBox="0 0 47 48" fill="none" xmlns="http://www.w3.org/2000/svg">
<g clip-path="url(#clip0)">
<path d="M41.0224 30.3092V9.74109C41.0224 7.72357 39.3808 6.08197 37.3633 6.08197H35.8996V4.61832C35.8996 3.40767 34.9148 2.42285 33.7042 2.42285C32.4935 2.42285 31.5087 3.40767 31.5087 4.61832V6.08197H27.8496V4.61832C27.8496 3.40767 26.8648 2.42285 25.6541 2.42285C24.4434 2.42285 23.4586 3.40767 23.4586 4.61832V6.08197H19.0677V4.61832C19.0677 3.40767 18.0829 2.42285 16.8722 2.42285C15.6616 2.42285 14.6767 3.40767 14.6767 4.61832V6.08197H11.0176V4.61832C11.0176 3.40767 10.0328 2.42285 8.82215 2.42285C7.61149 2.42285 6.62667 3.40767 6.62667 4.61832V6.08197H5.16303C3.1455 6.08197 1.50391 7.72357 1.50391 9.74109V39.014C1.50391 41.0316 3.1455 42.6732 5.16303 42.6732H29.7695C31.2907 45.2937 34.121 47.0641 37.3633 47.0641C42.2059 47.0641 46.1452 43.1248 46.1452 38.2822C46.1452 34.7465 44.0407 31.7001 41.0224 30.3092ZM32.9723 4.61832C32.9723 4.21453 33.3004 3.8865 33.7042 3.8865C34.108 3.8865 34.436 4.21453 34.436 4.61832V9.00927C34.436 9.41306 34.108 9.74109 33.7042 9.74109C33.3004 9.74109 32.9723 9.41306 32.9723 9.00927V4.61832ZM24.9223 4.61832C24.9223 4.21453 25.2503 3.8865 25.6541 3.8865C26.0579 3.8865 26.3859 4.21453 26.3859 4.61832V9.00927C26.3859 9.41306 26.0579 9.74109 25.6541 9.74109C25.2503 9.74109 24.9223 9.41306 24.9223 9.00927V4.61832ZM16.1404 4.61832C16.1404 4.21453 16.4684 3.8865 16.8722 3.8865C17.276 3.8865 17.604 4.21453 17.604 4.61832V9.00927C17.604 9.41306 17.276 9.74109 16.8722 9.74109C16.4684 9.74109 16.1404 9.41306 16.1404 9.00927V4.61832ZM8.09032 4.61832C8.09032 4.21453 8.41835 3.8865 8.82215 3.8865C9.22594 3.8865 9.55397 4.21453 9.55397 4.61832V9.00927C9.55397 9.41306 9.22594 9.74109 8.82215 9.74109C8.41835 9.74109 8.09032 9.41306 8.09032 9.00927V4.61832ZM5.16303 7.54562H6.62667V9.00927C6.62667 10.2199 7.61149 11.2047 8.82215 11.2047C10.0328 11.2047 11.0176 10.2199 11.0176 9.00927V7.54562H14.6767V9.00927C14.6767 10.2199 15.6616 11.2047 16.8722 11.2047C18.0829 11.2047 19.0677 10.2199 19.0677 9.00927V7.54562H23.4586V9.00927C23.4586 10.2199 24.4434 11.2047 25.6541 11.2047C26.8648 11.2047 27.8496 10.2199 27.8496 9.00927V7.54562H31.5087V9.00927C31.5087 10.2199 32.4935 11.2047 33.7042 11.2047C34.9148 11.2047 35.8996 10.2199 35.8996 9.00927V7.54562H37.3633C38.5739 7.54562 39.5588 8.53044 39.5588 9.74109V13.4002H2.96755V9.74109C2.96755 8.53044 3.95237 7.54562 5.16303 7.54562ZM5.16303 41.2095C3.95237 41.2095 2.96755 40.2247 2.96755 39.014V14.8639H39.5588V29.7893C38.8556 29.6073 38.1226 29.5003 37.3633 29.5003C36.8636 29.5003 36.3767 29.552 35.8996 29.6325V25.8412C35.8996 25.4367 35.5723 25.1094 35.1678 25.1094H30.7769C30.3724 25.1094 30.045 25.4367 30.045 25.8412V30.2322C30.045 30.6367 30.3724 30.964 30.7769 30.964H32.5192C30.1488 32.5382 28.5814 35.2294 28.5814 38.2822C28.5814 39.3098 28.768 40.2923 29.0937 41.2095H5.16303ZM34.436 29.5003H31.5087V26.573H34.436V29.5003ZM37.3633 45.6005C33.3282 45.6005 30.045 42.3173 30.045 38.2822C30.045 34.2472 33.3282 30.964 37.3633 30.964C41.3983 30.964 44.6815 34.2472 44.6815 38.2822C44.6815 42.3173 41.3983 45.6005 37.3633 45.6005Z" fill="#613654"/>
<path d="M38.0964 37.0217V32.4277H36.6327V37.0217C36.1971 37.2752 35.9009 37.7419 35.9009 38.2823C35.9009 38.3564 35.9121 38.4275 35.9227 38.4986L33.248 40.6379L34.1628 41.7814L36.8352 39.6435C36.9998 39.7076 37.1773 39.746 37.3646 39.746C38.1729 39.746 38.8282 39.0907 38.8282 38.2823C38.8282 37.7419 38.532 37.2752 38.0964 37.0217Z" fill="#613654"/>
<path d="M11.0193 17.0593H6.62831C6.22381 17.0593 5.89648 17.3866 5.89648 17.7912V22.1821C5.89648 22.5866 6.22381 22.9139 6.62831 22.9139H11.0193C11.4238 22.9139 11.7511 22.5866 11.7511 22.1821V17.7912C11.7511 17.3866 11.4238 17.0593 11.0193 17.0593ZM10.2874 21.4503H7.36013V18.523H10.2874V21.4503Z" fill="#613654"/>
<path d="M19.0681 17.0593H14.6771C14.2726 17.0593 13.9453 17.3866 13.9453 17.7912V22.1821C13.9453 22.5866 14.2726 22.9139 14.6771 22.9139H19.0681C19.4726 22.9139 19.7999 22.5866 19.7999 22.1821V17.7912C19.7999 17.3866 19.4726 17.0593 19.0681 17.0593ZM18.3363 21.4503H15.409V18.523H18.3363V21.4503Z" fill="#613654"/>
<path d="M27.1189 17.0593H22.7279C22.3234 17.0593 21.9961 17.3866 21.9961 17.7912V22.1821C21.9961 22.5866 22.3234 22.9139 22.7279 22.9139H27.1189C27.5234 22.9139 27.8507 22.5866 27.8507 22.1821V17.7912C27.8507 17.3866 27.5234 17.0593 27.1189 17.0593ZM26.387 21.4503H23.4597V18.523H26.387V21.4503Z" fill="#613654"/>
<path d="M30.7767 22.9139H35.1677C35.5722 22.9139 35.8995 22.5866 35.8995 22.1821V17.7912C35.8995 17.3866 35.5722 17.0593 35.1677 17.0593H30.7767C30.3722 17.0593 30.0449 17.3866 30.0449 17.7912V22.1821C30.0449 22.5866 30.3722 22.9139 30.7767 22.9139ZM31.5086 18.523H34.4359V21.4503H31.5086V18.523Z" fill="#613654"/>
<path d="M11.0193 25.1094H6.62831C6.22381 25.1094 5.89648 25.4367 5.89648 25.8412V30.2321C5.89648 30.6366 6.22381 30.964 6.62831 30.964H11.0193C11.4238 30.964 11.7511 30.6366 11.7511 30.2321V25.8412C11.7511 25.4367 11.4238 25.1094 11.0193 25.1094ZM10.2874 29.5003H7.36013V26.573H10.2874V29.5003Z" fill="#613654"/>
<path d="M19.0681 25.1094H14.6771C14.2726 25.1094 13.9453 25.4367 13.9453 25.8412V30.2321C13.9453 30.6366 14.2726 30.964 14.6771 30.964H19.0681C19.4726 30.964 19.7999 30.6366 19.7999 30.2321V25.8412C19.7999 25.4367 19.4726 25.1094 19.0681 25.1094ZM18.3363 29.5003H15.409V26.573H18.3363V29.5003Z" fill="#613654"/>
<path d="M27.1189 25.1094H22.7279C22.3234 25.1094 21.9961 25.4367 21.9961 25.8412V30.2321C21.9961 30.6366 22.3234 30.964 22.7279 30.964H27.1189C27.5234 30.964 27.8507 30.6366 27.8507 30.2321V25.8412C27.8507 25.4367 27.5234 25.1094 27.1189 25.1094ZM26.387 29.5003H23.4597V26.573H26.387V29.5003Z" fill="#613654"/>
<path d="M11.0193 33.1594H6.62831C6.22381 33.1594 5.89648 33.4867 5.89648 33.8912V38.2822C5.89648 38.6867 6.22381 39.014 6.62831 39.014H11.0193C11.4238 39.014 11.7511 38.6867 11.7511 38.2822V33.8912C11.7511 33.4867 11.4238 33.1594 11.0193 33.1594ZM10.2874 37.5504H7.36013V34.6231H10.2874V37.5504Z" fill="#613654"/>
<path d="M19.0681 33.1594H14.6771C14.2726 33.1594 13.9453 33.4867 13.9453 33.8912V38.2822C13.9453 38.6867 14.2726 39.014 14.6771 39.014H19.0681C19.4726 39.014 19.7999 38.6867 19.7999 38.2822V33.8912C19.7999 33.4867 19.4726 33.1594 19.0681 33.1594ZM18.3363 37.5504H15.409V34.6231H18.3363V37.5504Z" fill="#613654"/>
<path d="M27.1189 33.1594H22.7279C22.3234 33.1594 21.9961 33.4867 21.9961 33.8912V38.2822C21.9961 38.6867 22.3234 39.014 22.7279 39.014H27.1189C27.5234 39.014 27.8507 38.6867 27.8507 38.2822V33.8912C27.8507 33.4867 27.5234 33.1594 27.1189 33.1594ZM26.387 37.5504H23.4597V34.6231H26.387V37.5504Z" fill="#613654"/>
</g>
<defs>
<clipPath id="clip0">
<rect width="46.8367" height="46.8367" fill="white" transform="translate(0.0410156 0.959229)"/>
</clipPath>
</defs>
</svg>
