<svg width="35" height="35" viewBox="0 0 35 35" fill="none" xmlns="http://www.w3.org/2000/svg">
<path d="M8.1687 24.5024C11.0675 24.5024 13.4175 22.1525 13.4175 19.2537C13.4175 16.3549 11.0675 14.0049 8.1687 14.0049C5.26991 14.0049 2.91992 16.3549 2.91992 19.2537C2.92327 22.1511 5.27128 24.499 8.1687 24.5024ZM9.9183 22.9365C8.8127 23.4692 7.5247 23.4692 6.41911 22.9365V22.4145C6.52292 21.5473 7.29924 20.9211 8.1687 21.0032C8.63316 20.9947 9.08478 21.1558 9.439 21.4562C9.73466 21.6874 9.91064 22.0393 9.9183 22.4145V22.9365ZM7.00228 18.6704C7.00228 18.0262 7.5245 17.504 8.1687 17.504C8.81291 17.504 9.33512 18.0262 9.33512 18.6704C9.33512 19.3146 8.81291 19.8368 8.1687 19.8368C7.52477 19.8362 7.00297 19.3144 7.00228 18.6704ZM4.39655 17.691C5.02818 16.1652 6.51725 15.1704 8.1687 15.1712C9.82022 15.1704 11.3094 16.1652 11.9409 17.6912C12.5725 19.2172 12.2219 20.9734 11.053 22.1399C10.9776 21.527 10.6717 20.9656 10.1974 20.5701C10.0819 20.4721 9.95876 20.3834 9.82904 20.3052C10.7313 19.3915 10.7256 17.9204 9.81619 17.0138C8.90681 16.1071 7.43572 16.1058 6.5247 17.0108C5.61368 17.9158 5.60534 19.3869 6.50597 20.3023C5.83935 20.6959 5.38931 21.3727 5.2842 22.1397C4.11532 20.973 3.76492 19.2169 4.39655 17.691Z" fill="#613654"/>
<path d="M15.1671 11.672H11.8456C14.1405 10.0669 15.1289 7.15871 14.2875 4.48764C13.446 1.81657 10.9691 0 8.1687 0C5.36825 0 2.89135 1.81657 2.04997 4.48764C1.20853 7.15871 2.19698 10.0669 4.49182 11.672H1.17032C0.526392 11.6727 0.00458968 12.1945 0.00390625 12.8385V33.8336C0.00452134 34.4775 0.526392 34.9993 1.17032 35H15.1671C15.811 34.9994 16.3328 34.4775 16.3335 33.8336V12.8385C16.3328 12.1945 15.811 11.6727 15.1671 11.672ZM2.91992 6.42326C2.91992 3.52441 5.26991 1.17448 8.1687 1.17448C11.0675 1.17448 13.4175 3.52447 13.4175 6.42326C13.4175 9.32205 11.0675 11.672 8.1687 11.672C5.27128 11.6687 2.92327 9.32069 2.91992 6.42326ZM1.17032 33.8336V12.8385H15.1671L15.1679 33.8336H1.17032Z" fill="#613654"/>
<path d="M7.0031 25.6689C6.68099 25.6689 6.41992 25.93 6.41992 26.2521C6.41992 26.5742 6.68099 26.8353 7.0031 26.8353H9.33587C9.65797 26.8353 9.91905 26.5742 9.91905 26.2521C9.91905 25.93 9.65797 25.6689 9.33587 25.6689H7.0031Z" fill="#613654"/>
<path d="M2.91911 29.1678H8.75107C9.07317 29.1678 9.33425 28.9067 9.33425 28.5846C9.33425 28.2625 9.07317 28.0015 8.75107 28.0015H2.91911C2.59701 28.0015 2.33594 28.2625 2.33594 28.5846C2.33594 28.9067 2.59701 29.1678 2.91911 29.1678Z" fill="#613654"/>
<path d="M13.4179 28.0015H11.0851C10.763 28.0015 10.502 28.2625 10.502 28.5846C10.502 28.9067 10.763 29.1678 11.0851 29.1678H13.4179C13.74 29.1678 14.0011 28.9067 14.0011 28.5846C14.0011 28.2625 13.74 28.0015 13.4179 28.0015Z" fill="#613654"/>
<path d="M13.4171 30.3345H7.58513C7.26303 30.3345 7.00195 30.5956 7.00195 30.9176C7.00195 31.2398 7.26303 31.5008 7.58513 31.5008H13.4171C13.7392 31.5008 14.0003 31.2397 14.0003 30.9176C14.0003 30.5955 13.7392 30.3345 13.4171 30.3345Z" fill="#613654"/>
<path d="M5.25188 30.3345H2.91911C2.59701 30.3345 2.33594 30.5956 2.33594 30.9176C2.33594 31.2398 2.59701 31.5008 2.91911 31.5008H5.25188C5.57398 31.5008 5.83506 31.2397 5.83506 30.9176C5.83512 30.5955 5.57398 30.3345 5.25188 30.3345Z" fill="#613654"/>
<path d="M26.8308 24.5024C29.7296 24.5024 32.0796 22.1525 32.0796 19.2537C32.0796 16.3549 29.7296 14.0049 26.8308 14.0049C23.932 14.0049 21.582 16.3549 21.582 19.2537C21.5854 22.1511 23.9334 24.499 26.8308 24.5024ZM28.5804 22.9365C27.4748 23.4692 26.1868 23.4692 25.0812 22.9365V22.4145C25.185 21.5473 25.9613 20.9211 26.8308 21.0032C27.2953 20.9947 27.7469 21.1558 28.1012 21.4562C28.3968 21.6874 28.5728 22.0393 28.5805 22.4145V22.9365H28.5804ZM25.6644 18.6704C25.6644 18.0262 26.1866 17.504 26.8308 17.504C27.475 17.504 27.9972 18.0262 27.9972 18.6704C27.9972 19.3146 27.475 19.8368 26.8308 19.8368C26.1869 19.8362 25.665 19.3144 25.6644 18.6704ZM23.0587 17.691C23.6903 16.1652 25.1794 15.1704 26.8308 15.1712C28.4823 15.1704 29.9715 16.1652 30.603 17.6912C31.2346 19.2172 30.8841 20.9734 29.7151 22.1399C29.6397 21.527 29.3338 20.9656 28.8595 20.5701C28.744 20.4721 28.6209 20.3834 28.4911 20.3052C29.3934 19.3915 29.3877 17.9204 28.4783 17.0138C27.5689 16.1071 26.0978 16.1058 25.1868 17.0108C24.2758 17.9158 24.2675 19.3869 25.168 20.3023C24.5014 20.6959 24.0513 21.3727 23.9462 22.1397C22.7774 20.973 22.427 19.2169 23.0587 17.691Z" fill="#613654"/>
<path d="M33.8291 11.672H30.5077C32.8025 10.0669 33.791 7.15871 32.9495 4.48764C32.108 1.81657 29.6312 0 26.8307 0C24.0303 0 21.5535 1.81657 20.712 4.48764C19.8706 7.15871 20.859 10.0669 23.1539 11.672H19.8324C19.1885 11.6727 18.6667 12.1945 18.666 12.8385V33.8336C18.6666 34.4775 19.1885 34.9993 19.8324 35H33.8292C34.4731 34.9994 34.9949 34.4775 34.9956 33.8336V12.8385C34.9948 12.1945 34.473 11.6727 33.8291 11.672ZM21.582 6.42326C21.582 3.52441 23.9319 1.17448 26.8307 1.17448C29.7295 1.17448 32.0795 3.52447 32.0795 6.42326C32.0795 9.32205 29.7295 11.672 26.8307 11.672C23.9333 11.6687 21.5853 9.32069 21.582 6.42326ZM19.8324 33.8336V12.8385H33.8291L33.8299 33.8336H19.8324Z" fill="#613654"/>
<path d="M25.6652 25.6689C25.3431 25.6689 25.082 25.93 25.082 26.2521C25.082 26.5742 25.3431 26.8353 25.6652 26.8353H27.998C28.3201 26.8353 28.5812 26.5742 28.5812 26.2521C28.5812 25.93 28.3201 25.6689 27.998 25.6689H25.6652Z" fill="#613654"/>
<path d="M21.5832 29.1678H27.4151C27.7372 29.1678 27.9983 28.9067 27.9983 28.5846C27.9983 28.2625 27.7372 28.0015 27.4151 28.0015H21.5832C21.2611 28.0015 21 28.2625 21 28.5846C21 28.9067 21.2611 29.1678 21.5832 29.1678Z" fill="#613654"/>
<path d="M32.08 28.0015H29.7472C29.4251 28.0015 29.1641 28.2625 29.1641 28.5846C29.1641 28.9067 29.4251 29.1678 29.7472 29.1678H32.08C32.4021 29.1678 32.6632 28.9067 32.6632 28.5846C32.6632 28.2625 32.402 28.0015 32.08 28.0015Z" fill="#613654"/>
<path d="M32.0792 30.3345H26.2472C25.9251 30.3345 25.6641 30.5956 25.6641 30.9176C25.6641 31.2398 25.9251 31.5008 26.2472 31.5008H32.0792C32.4013 31.5008 32.6624 31.2397 32.6624 30.9176C32.6624 30.5955 32.4012 30.3345 32.0792 30.3345Z" fill="#613654"/>
<path d="M23.9159 30.3345H21.5832C21.2611 30.3345 21 30.5956 21 30.9176C21 31.2398 21.2611 31.5008 21.5832 31.5008H23.9159C24.238 31.5008 24.4991 31.2397 24.4991 30.9176C24.4991 30.5955 24.238 30.3345 23.9159 30.3345Z" fill="#613654"/>
<path d="M10.8509 3.62405C10.5933 3.43077 10.2277 3.48292 10.0344 3.7405L6.93848 7.86818L6.2476 7.17736C6.01926 6.95313 5.65294 6.95484 5.42666 7.18105C5.20037 7.40727 5.19873 7.77366 5.42297 8.002L6.58938 9.16841C6.69866 9.2779 6.84704 9.33934 7.0017 9.33927C7.01537 9.33927 7.02931 9.33873 7.04298 9.33784C7.21158 9.32588 7.36672 9.24127 7.46814 9.10602L10.9673 4.44041C11.1606 4.18282 11.1085 3.81732 10.8509 3.62405Z" fill="#613654"/>
<path d="M28.753 9.16835C28.9 9.3172 29.1155 9.37591 29.3177 9.32219C29.5198 9.26847 29.6778 9.11053 29.7315 8.90837C29.7852 8.70621 29.7265 8.49073 29.5776 8.34372L27.6572 6.42327L29.5776 4.50282C29.687 4.39347 29.7485 4.24516 29.7485 4.0905C29.7485 3.93584 29.6871 3.78753 29.5776 3.67818C29.4683 3.56877 29.32 3.50732 29.1653 3.50732C29.0107 3.50732 28.8623 3.56877 28.753 3.67818L26.8326 5.59863L24.9121 3.67818C24.6838 3.45395 24.3174 3.45566 24.0912 3.68187C23.8649 3.90816 23.8632 4.27448 24.0875 4.50282L26.0079 6.42327L24.0875 8.34372C23.9386 8.49073 23.8799 8.70621 23.9336 8.90837C23.9873 9.11053 24.1453 9.26847 24.3474 9.32219C24.5496 9.37591 24.7651 9.3172 24.9121 9.16835L26.8326 7.2479L28.753 9.16835Z" fill="#613654"/>
</svg>
