<svg width="52" height="48" viewBox="0 0 52 48" fill="none" xmlns="http://www.w3.org/2000/svg">
<path d="M25.9895 32.3617C27.4249 32.3617 28.5884 31.8963 28.5884 31.3222C28.5884 30.748 27.4249 30.2826 25.9895 30.2826C24.5542 30.2826 23.3906 30.748 23.3906 31.3222C23.3906 31.8963 24.5542 32.3617 25.9895 32.3617Z" fill="url(#paint0_linear)"/>
<path d="M17.6996 29.3045C18.3233 29.4999 18.8826 29.5966 19.3639 29.5966C20.7289 29.5966 21.1187 28.8148 21.2237 28.478C21.3932 27.9343 21.2403 27.3729 20.7913 26.8968C20.3723 26.4498 19.6987 26.0828 18.7911 25.798C18.2682 25.6379 17.6445 25.5558 16.9386 25.5558C15.5841 25.5558 14.3699 25.8552 14.3189 25.8677C14.1432 25.9113 14.0019 26.0444 13.9488 26.2169C13.8958 26.3895 13.9353 26.5787 14.0559 26.7149C14.1266 26.7949 15.8471 28.7296 17.6996 29.3045Z" fill="url(#paint1_linear)"/>
<path d="M32.6133 29.5217C33.0946 29.5217 33.6539 29.4229 34.2787 29.2316C36.1301 28.6536 37.8527 26.7221 37.9255 26.641C38.044 26.5049 38.0845 26.3157 38.0336 26.1431C37.9806 25.9705 37.8381 25.8375 37.6635 25.7938C37.6126 25.7803 36.3983 25.4819 35.0438 25.4819C34.3369 25.4819 33.7142 25.5641 33.1913 25.7262C32.2827 26.008 31.6101 26.378 31.1912 26.823C30.7421 27.2991 30.5893 27.8605 30.7587 28.4041C30.8595 28.7389 31.2494 29.5217 32.6133 29.5217Z" fill="url(#paint2_linear)"/>
<path d="M50.7812 18.6676L27.5844 0.625943C26.6467 -0.10383 25.3317 -0.10383 24.394 0.625943L1.0038 18.8183C0.127451 19.4992 -0.219763 20.6625 0.140965 21.7135C0.501694 22.7645 1.48928 23.4683 2.59953 23.4683C3.75977 23.4683 4.46972 25.0696 4.06959 26.1586C3.79181 26.9147 3.6391 27.7356 3.6391 28.5944C3.6391 30.1545 4.13981 31.5936 4.98118 32.7439C6.54675 34.8844 8.87551 36.5352 10.569 38.576C11.8827 40.1591 13.434 41.5241 15.1598 42.6285C16.2709 43.3396 17.0318 44.5236 17.0318 45.8428C17.0318 46.9905 17.9632 47.9219 19.1109 47.9219C20.2586 47.9219 21.19 46.9905 21.19 45.8428C21.19 45.5233 21.4895 45.2885 21.802 45.3554C23.1696 45.6483 24.5809 45.8095 26.0219 45.8095C27.4453 45.8095 28.8379 45.6534 30.1894 45.3651C30.4948 45.3 30.7873 45.5295 30.7873 45.8417C30.7873 46.9894 31.7187 47.9209 32.8664 47.9209C34.0141 47.9209 34.9455 46.9894 34.9455 45.8417C34.9455 44.5424 35.6968 43.3765 36.7947 42.6814C38.5827 41.5493 40.1856 40.1394 41.5345 38.4978C43.1919 36.4808 45.4659 34.8424 47.0041 32.733C47.8419 31.584 48.3403 30.1482 48.3403 28.5923C48.3403 27.7342 48.1877 26.9135 47.9099 26.1575C47.5097 25.0686 48.2197 23.4662 49.3799 23.4662C49.3851 23.4662 49.3924 23.4662 49.4017 23.4662C50.8374 23.4662 52.0006 22.3029 52.0006 20.8673C51.9985 19.941 51.5131 19.1271 50.7812 18.6676ZM41.843 25.9216C41.843 25.9251 41.8458 25.9268 41.8493 25.9268C43.1435 25.9268 44.18 27.1192 44.18 28.5912C44.18 30.0633 43.1435 31.2546 41.8493 31.2546C41.3805 31.2546 40.8698 31.4513 40.6919 31.8851C39.9676 33.6509 38.9236 35.2541 37.6326 36.6286C36.6029 37.7248 34.9476 36.8857 34.9476 35.3817C34.9476 34.234 34.0162 33.3025 32.8685 33.3025H29.6001C28.4524 33.3025 27.521 34.234 27.521 35.3817C27.521 36.5293 28.4524 37.4608 29.6001 37.4608C30.2569 37.4608 30.7894 37.9932 30.7894 38.65V39.4547C30.7894 40.3272 30.2244 41.1111 29.3713 41.2943C28.2932 41.526 27.174 41.6502 26.024 41.6502C24.8462 41.6502 23.7002 41.521 22.5975 41.2789C21.7512 41.0931 21.1921 40.3139 21.1921 39.4474V38.648C21.1921 37.9917 21.7241 37.4598 22.3803 37.4598C23.528 37.4598 24.4595 36.5283 24.4595 35.3806C24.4595 34.2329 23.528 33.3015 22.3803 33.3015H19.113C17.9653 33.3015 17.0339 34.2329 17.0339 35.3806C17.0339 36.8617 15.4013 37.6848 14.3897 36.603C13.1189 35.2441 12.0897 33.6628 11.3709 31.9232C11.1801 31.4615 10.6297 31.2525 10.1301 31.2525C8.83587 31.2525 7.79839 30.0612 7.79839 28.5892C7.79839 27.1171 8.83587 25.9248 10.1301 25.9248C10.1696 25.9248 10.2021 25.9003 10.2026 25.8608C10.2073 25.4776 10.2274 25.0541 10.2607 24.6064C10.3092 23.9548 10.8622 23.4641 11.5156 23.4641H40.5063C41.174 23.4641 41.7385 23.9668 41.7864 24.6328C41.8197 25.0955 41.8394 25.5312 41.843 25.9216Z" fill="url(#paint3_linear)"/>
<defs>
<linearGradient id="paint0_linear" x1="24.1352" y1="30.675" x2="24.1127" y2="32.1122" gradientUnits="userSpaceOnUse">
<stop stop-color="#5F2797"/>
<stop offset="1" stop-color="#2F2A70"/>
</linearGradient>
<linearGradient id="paint1_linear" x1="14.9808" y1="26.3184" x2="14.9209" y2="29.1111" gradientUnits="userSpaceOnUse">
<stop stop-color="#5F2797"/>
<stop offset="1" stop-color="#2F2A70"/>
</linearGradient>
<linearGradient id="paint2_linear" x1="31.7462" y1="26.2443" x2="31.6863" y2="29.0363" gradientUnits="userSpaceOnUse">
<stop stop-color="#5F2797"/>
<stop offset="1" stop-color="#2F2A70"/>
</linearGradient>
<linearGradient id="paint3_linear" x1="7.44874" y1="9.10761" x2="6.2596" y2="42.1458" gradientUnits="userSpaceOnUse">
<stop stop-color="#5F2797"/>
<stop offset="1" stop-color="#2F2A70"/>
</linearGradient>
</defs>
</svg>
