<svg width="69" height="69" viewBox="0 0 69 69" fill="none" xmlns="http://www.w3.org/2000/svg">
<g clip-path="url(#clip0)">
<path d="M34.4857 45.5953C36.3902 45.5953 37.9342 44.9777 37.9342 44.2158C37.9342 43.454 36.3902 42.8364 34.4857 42.8364C32.5811 42.8364 31.0371 43.454 31.0371 44.2158C31.0371 44.9777 32.5811 45.5953 34.4857 45.5953Z" fill="white"/>
<path d="M23.488 41.5384C24.3157 41.7977 25.0578 41.926 25.6965 41.926C27.5077 41.926 28.0249 40.8887 28.1643 40.4418C28.3891 39.7203 28.1863 38.9754 27.5904 38.3437C27.0345 37.7505 26.1406 37.2636 24.9364 36.8856C24.2426 36.6732 23.4149 36.5642 22.4783 36.5642C20.6809 36.5642 19.0697 36.9615 19.0021 36.978C18.769 37.036 18.5814 37.2125 18.5111 37.4415C18.4407 37.6705 18.4931 37.9216 18.6532 38.1023C18.747 38.2085 21.0299 40.7756 23.488 41.5384Z" fill="white"/>
<path d="M43.2748 41.8267C43.9135 41.8267 44.6556 41.6957 45.4846 41.4419C47.9414 40.6749 50.2271 38.112 50.3236 38.0044C50.4809 37.8237 50.5347 37.5726 50.4671 37.3436C50.3968 37.1146 50.2078 36.9381 49.976 36.8801C49.9084 36.8622 48.2973 36.4663 46.4999 36.4663C45.5619 36.4663 44.7356 36.5753 44.0418 36.7905C42.8361 37.1643 41.9437 37.6554 41.3878 38.2458C40.7918 38.8775 40.5891 39.6224 40.8139 40.3439C40.9477 40.788 41.465 41.8267 43.2748 41.8267Z" fill="white"/>
<path d="M67.3828 27.4242L36.6024 3.48432C35.3581 2.51597 33.6132 2.51597 32.3689 3.48432L1.33197 27.6242C0.169117 28.5277 -0.291609 30.0713 0.18705 31.4659C0.665709 32.8605 1.97616 33.7943 3.44938 33.7943H7.78076C5.97786 35.4538 4.8288 37.8829 4.8288 40.5963C4.8288 44.6918 7.42901 48.1582 10.9852 49.2742C13.5771 54.236 17.6781 58.1742 22.5999 60.6268V63.4836C22.5999 65.0065 23.8358 66.2424 25.3587 66.2424C26.8816 66.2424 28.1176 65.0065 28.1176 63.4836V62.6504C30.1839 63.1567 32.3303 63.4395 34.5291 63.4395C36.6976 63.4395 38.8122 63.1663 40.8524 62.6684V63.4822C40.8524 65.0051 42.0883 66.2411 43.6112 66.2411C45.1341 66.2411 46.3701 65.0051 46.3701 63.4822V60.6668C51.3415 58.2087 55.4798 54.2429 58.0882 49.2383C61.592 48.0893 64.1439 44.649 64.1439 40.5935C64.1439 37.8816 62.9948 35.451 61.1892 33.7916H65.5233C65.5302 33.7916 65.5399 33.7916 65.5523 33.7916C67.4573 33.7916 69.0008 32.248 69.0008 30.343C68.9981 29.114 68.3539 28.0339 67.3828 27.4242ZM55.5225 37.058C55.5253 37.058 55.528 37.0567 55.5308 37.0567C57.2482 37.0567 58.6235 38.6389 58.6235 40.5921C58.6235 42.5454 57.2482 44.1262 55.5308 44.1262C55.1308 44.1262 54.7542 44.0365 54.4052 43.8751C52.932 48.15 50.0752 51.7861 46.3728 54.2925V49.6025C46.3728 48.0796 45.1369 46.8437 43.614 46.8437H39.2771C37.7542 46.8437 36.5182 48.0796 36.5182 49.6025C36.5182 51.1254 37.7542 52.3613 39.2771 52.3613H40.8551V56.9534C38.8605 57.5755 36.7389 57.9204 34.5319 57.9204C32.2931 57.9204 30.1412 57.5686 28.1203 56.9286V52.36H29.697C31.2199 52.36 32.4558 51.124 32.4558 49.6011C32.4558 48.0782 31.2199 46.8423 29.697 46.8423H25.3615C23.8386 46.8423 22.6026 48.0782 22.6026 49.6011V54.2332C18.932 51.724 16.1056 48.0989 14.6475 43.8462C14.2765 44.0269 13.8695 44.1234 13.4419 44.1234C11.7245 44.1234 10.3479 42.5426 10.3479 40.5894C10.3479 38.6361 11.7245 37.0539 13.4419 37.0539C13.4736 37.0539 13.504 37.0636 13.5371 37.0649C13.544 36.12 13.624 34.9806 13.7578 33.7888H55.3059C55.4356 34.9806 55.5142 36.1187 55.5225 37.058Z" fill="white"/>
</g>
<defs>
<clipPath id="clip0">
<rect width="69" height="69" fill="white"/>
</clipPath>
</defs>
</svg>
