<svg width="69" height="69" viewBox="0 0 69 69" fill="none" xmlns="http://www.w3.org/2000/svg">
<g clip-path="url(#clip0)">
<path fill-rule="evenodd" clip-rule="evenodd" d="M36.6024 3.48444L67.3828 27.4243C68.3539 28.034 68.9981 29.1141 69.0008 30.3431C69.0008 32.2481 67.4573 33.7917 65.5523 33.7917H65.5233H61.1892C62.9948 35.4511 64.1439 37.8817 64.1439 40.5936C64.1439 44.6491 61.592 48.0894 58.0882 49.2384C55.4798 54.243 51.3415 58.2088 46.3701 60.6669V63.4823C46.3701 65.0052 45.1341 66.2412 43.6112 66.2412C42.0883 66.2412 40.8524 65.0052 40.8524 63.4823V62.6685C38.8122 63.1665 36.6976 63.4396 34.5291 63.4396C32.3303 63.4396 30.1839 63.1568 28.1176 62.6506V63.4837C28.1176 65.0066 26.8816 66.2426 25.3587 66.2426C23.8358 66.2426 22.5999 65.0066 22.5999 63.4837V60.6269C17.6781 58.1743 13.5771 54.2361 10.9852 49.2743C7.42901 48.1584 4.8288 44.6919 4.8288 40.5964C4.8288 37.8831 5.97786 35.4539 7.78076 33.7945H3.44938C1.97616 33.7945 0.665709 32.8606 0.18705 31.466C-0.291609 30.0714 0.169117 28.5278 1.33197 27.6243L32.3689 3.48444C33.6132 2.51609 35.3581 2.51609 36.6024 3.48444ZM55.5267 37.0575C55.5253 37.0578 55.5239 37.0582 55.5225 37.0582C55.5142 36.1188 55.4356 34.9808 55.3059 33.7889H13.7578C13.624 34.9808 13.544 36.1202 13.5371 37.0651C13.5216 37.0644 13.5066 37.0619 13.4919 37.0595C13.4752 37.0567 13.4587 37.054 13.4419 37.054C11.7245 37.054 10.3479 38.6362 10.3479 40.5895C10.3479 42.5427 11.7245 44.1236 13.4419 44.1236C13.8695 44.1236 14.2765 44.027 14.6475 43.8463C16.1056 48.099 18.932 51.7242 22.6026 54.2333V49.6012C22.6026 48.0784 23.8386 46.8424 25.3615 46.8424H29.697C31.2199 46.8424 32.4558 48.0784 32.4558 49.6012C32.4558 51.1241 31.2199 52.3601 29.697 52.3601H28.1203V56.9287C30.1412 57.5688 32.2931 57.9205 34.5319 57.9205C36.7389 57.9205 38.8605 57.5757 40.8551 56.9535V52.3615H39.2771C37.7542 52.3615 36.5182 51.1255 36.5182 49.6026C36.5182 48.0797 37.7542 46.8438 39.2771 46.8438H43.614C45.1369 46.8438 46.3728 48.0797 46.3728 49.6026V54.2926C50.0752 51.7862 52.932 48.1501 54.4052 43.8753C54.7542 44.0367 55.1308 44.1263 55.5308 44.1263C57.2482 44.1263 58.6235 42.5455 58.6235 40.5922C58.6235 38.639 57.2482 37.0568 55.5308 37.0568C55.5294 37.0568 55.528 37.0571 55.5267 37.0575ZM43.2768 41.8269C43.9154 41.8269 44.6576 41.6958 45.4866 41.442C47.9262 40.6804 50.1972 38.1477 50.3233 38.0071L50.3256 38.0045C50.4828 37.8238 50.5366 37.5727 50.4691 37.3437C50.3987 37.1148 50.2097 36.9382 49.978 36.8803C49.9104 36.8623 48.2992 36.4664 46.5018 36.4664C45.5638 36.4664 44.7376 36.5754 44.0437 36.7906C42.8381 37.1644 41.9456 37.6555 41.3897 38.2459C40.7938 38.8777 40.591 39.6225 40.8159 40.344C40.9497 40.7882 41.467 41.8269 43.2768 41.8269ZM25.6965 41.9261C25.0578 41.9261 24.3157 41.7979 23.488 41.5385C21.0299 40.7757 18.747 38.2086 18.6532 38.1024C18.4931 37.9217 18.4407 37.6706 18.5111 37.4416C18.5814 37.2127 18.769 37.0361 19.0021 36.9782L19.0034 36.9778C19.0873 36.9573 20.6907 36.5643 22.4783 36.5643C23.4149 36.5643 24.2426 36.6733 24.9364 36.8857C26.1406 37.2637 27.0345 37.7506 27.5904 38.3438C28.1863 38.9756 28.3891 39.7204 28.1643 40.4419C28.0249 40.8888 27.5077 41.9261 25.6965 41.9261ZM37.9362 44.216C37.9362 44.9778 36.3922 45.5954 34.4876 45.5954C32.583 45.5954 31.0391 44.9778 31.0391 44.216C31.0391 43.4541 32.583 42.8365 34.4876 42.8365C36.3922 42.8365 37.9362 43.4541 37.9362 44.216Z" fill="url(#paint0_linear)"/>
</g>
<defs>
<linearGradient id="paint0_linear" x1="9.8839" y1="14.739" x2="8.306" y2="58.578" gradientUnits="userSpaceOnUse">
<stop stop-color="#5F2797"/>
<stop offset="1" stop-color="#2F2A70"/>
</linearGradient>
<clipPath id="clip0">
<rect width="69" height="69" fill="white"/>
</clipPath>
</defs>
</svg>
