<svg width="46" height="47" viewBox="0 0 46 47" fill="none" xmlns="http://www.w3.org/2000/svg">
<path d="M38.7548 7.74483C36.6898 5.65776 34.2327 3.99938 31.5247 2.86501C28.8168 1.73064 25.9113 1.14265 22.9753 1.13484C20.0393 1.12703 17.1307 1.69956 14.4167 2.8195C11.7027 3.93945 9.23685 5.58473 7.16079 7.66079C5.08473 9.73685 3.43945 12.2027 2.3195 14.9167C1.19956 17.6307 0.627035 20.5393 0.634844 23.4753C0.642654 26.4113 1.23064 29.3168 2.36501 32.0247C3.49938 34.7327 5.15776 37.1898 7.24483 39.2548C9.30982 41.3419 11.7669 43.0003 14.4749 44.1347C17.1829 45.269 20.0884 45.857 23.0244 45.8648C25.9604 45.8726 28.8689 45.3001 31.5829 44.1802C34.2969 43.0602 36.7628 41.4149 38.8389 39.3389C40.9149 37.2628 42.5602 34.7969 43.6802 32.0829C44.8001 29.3689 45.3726 26.4604 45.3648 23.5244C45.357 20.5884 44.769 17.6829 43.6347 14.9749C42.5003 12.2669 40.8419 9.80982 38.7548 7.74483ZM37.7387 38.2387C33.8297 42.1477 28.528 44.3437 22.9998 44.3437C17.4717 44.3437 12.17 42.1477 8.26097 38.2387C4.35198 34.3297 2.15593 29.028 2.15593 23.4998C2.15593 17.9717 4.35198 12.67 8.26097 8.76097C12.17 4.85198 17.4717 2.65593 22.9998 2.65593C28.528 2.65593 33.8297 4.85198 37.7387 8.76097C41.6477 12.67 43.8437 17.9717 43.8437 23.4998C43.8437 29.028 41.6477 34.3297 37.7387 38.2387Z" fill="#613654"/>
<path d="M23 5.53125C13.092 5.53125 5.03125 13.592 5.03125 23.5C5.03125 33.408 13.092 41.4688 23 41.4688C32.908 41.4688 40.9688 33.408 40.9688 23.5C40.9688 13.592 32.908 5.53125 23 5.53125ZM23 40.0312C13.8845 40.0312 6.46875 32.6155 6.46875 23.5C6.46875 14.3845 13.8845 6.96875 23 6.96875C32.1155 6.96875 39.5312 14.3845 39.5312 23.5C39.5312 32.6155 32.1155 40.0312 23 40.0312Z" fill="#613654"/>
<path d="M29.4682 22.7812H25.7837C25.6539 22.2834 25.3934 21.8293 25.0291 21.466C24.6648 21.1027 24.2101 20.8434 23.7119 20.7148C23.7158 20.6851 23.7179 20.655 23.7182 20.625V12.7187C23.7182 12.5281 23.6425 12.3453 23.5077 12.2105C23.3729 12.0757 23.1901 12 22.9995 12C22.8088 12 22.626 12.0757 22.4912 12.2105C22.3564 12.3453 22.2807 12.5281 22.2807 12.7187V20.625C22.281 20.655 22.2831 20.6851 22.287 20.7148C21.7957 20.8406 21.3464 21.0941 20.9847 21.4496C20.623 21.8051 20.3618 22.2499 20.2276 22.739C20.0933 23.228 20.0908 23.7439 20.2203 24.2342C20.3498 24.7246 20.6067 25.1719 20.965 25.5309C21.3232 25.8898 21.77 26.1477 22.2601 26.2782C22.7502 26.4087 23.266 26.4073 23.7554 26.274C24.2447 26.1408 24.6901 25.8805 25.0463 25.5195C25.4025 25.1586 25.6569 24.7098 25.7837 24.2187H29.4682C29.6588 24.2187 29.8417 24.143 29.9764 24.0082C30.1112 23.8734 30.187 23.6906 30.187 23.5C30.187 23.3094 30.1112 23.1266 29.9764 22.9918C29.8417 22.857 29.6588 22.7812 29.4682 22.7812ZM22.9995 24.9375C22.7151 24.9375 22.4372 24.8532 22.2008 24.6952C21.9644 24.5373 21.7802 24.3128 21.6714 24.0501C21.5626 23.7874 21.5341 23.4984 21.5896 23.2196C21.645 22.9407 21.782 22.6846 21.983 22.4835C22.184 22.2825 22.4402 22.1456 22.719 22.0901C22.9979 22.0347 23.2869 22.0631 23.5496 22.1719C23.8122 22.2807 24.0367 22.465 24.1947 22.7014C24.3527 22.9378 24.437 23.2157 24.437 23.5C24.4365 23.8811 24.2848 24.2464 24.0154 24.5159C23.7459 24.7854 23.3806 24.937 22.9995 24.9375Z" fill="#613654"/>
<path d="M23 9.84375C23.1906 9.84375 23.3734 9.76802 23.5082 9.63323C23.643 9.49844 23.7188 9.31562 23.7188 9.125V8.40625C23.7188 8.21563 23.643 8.03281 23.5082 7.89802C23.3734 7.76323 23.1906 7.6875 23 7.6875C22.8094 7.6875 22.6266 7.76323 22.4918 7.89802C22.357 8.03281 22.2812 8.21563 22.2812 8.40625V9.125C22.2812 9.31562 22.357 9.49844 22.4918 9.63323C22.6266 9.76802 22.8094 9.84375 23 9.84375Z" fill="#613654"/>
<path d="M23 37.1562C22.8094 37.1562 22.6266 37.232 22.4918 37.3668C22.357 37.5016 22.2812 37.6844 22.2812 37.875V38.5938C22.2812 38.7844 22.357 38.9672 22.4918 39.102C22.6266 39.2368 22.8094 39.3125 23 39.3125C23.1906 39.3125 23.3734 39.2368 23.5082 39.102C23.643 38.9672 23.7188 38.7844 23.7188 38.5938V37.875C23.7188 37.6844 23.643 37.5016 23.5082 37.3668C23.3734 37.232 23.1906 37.1562 23 37.1562Z" fill="#613654"/>
<path d="M38.0938 22.7812H37.375C37.1844 22.7812 37.0016 22.857 36.8668 22.9918C36.732 23.1266 36.6562 23.3094 36.6562 23.5C36.6562 23.6906 36.732 23.8734 36.8668 24.0082C37.0016 24.143 37.1844 24.2188 37.375 24.2188H38.0938C38.2844 24.2188 38.4672 24.143 38.602 24.0082C38.7368 23.8734 38.8125 23.6906 38.8125 23.5C38.8125 23.3094 38.7368 23.1266 38.602 22.9918C38.4672 22.857 38.2844 22.7812 38.0938 22.7812Z" fill="#613654"/>
<path d="M8.625 22.7812H7.90625C7.71563 22.7812 7.53281 22.857 7.39802 22.9918C7.26323 23.1266 7.1875 23.3094 7.1875 23.5C7.1875 23.6906 7.26323 23.8734 7.39802 24.0082C7.53281 24.143 7.71563 24.2188 7.90625 24.2188H8.625C8.81562 24.2188 8.99844 24.143 9.13323 24.0082C9.26802 23.8734 9.34375 23.6906 9.34375 23.5C9.34375 23.3094 9.26802 23.1266 9.13323 22.9918C8.99844 22.857 8.81562 22.7812 8.625 22.7812Z" fill="#613654"/>
<path d="M33.1641 12.3184L32.6558 12.8267C32.521 12.9615 32.4453 13.1443 32.4453 13.3349C32.4453 13.5256 32.521 13.7084 32.6558 13.8432C32.7906 13.978 32.9735 14.0537 33.1641 14.0537C33.3547 14.0537 33.5375 13.978 33.6723 13.8432L34.1806 13.3349C34.3154 13.2001 34.3911 13.0173 34.3911 12.8267C34.3911 12.636 34.3154 12.4532 34.1806 12.3184C34.0458 12.1836 33.863 12.1079 33.6723 12.1079C33.4817 12.1079 33.2989 12.1836 33.1641 12.3184Z" fill="#613654"/>
<path d="M12.328 33.156L11.8197 33.6644C11.7517 33.7308 11.6976 33.8101 11.6605 33.8976C11.6234 33.9852 11.6041 34.0792 11.6035 34.1742C11.603 34.2693 11.6213 34.3635 11.6575 34.4515C11.6936 34.5394 11.7469 34.6193 11.8141 34.6865C11.8813 34.7537 11.9612 34.8069 12.0491 34.843C12.1371 34.8792 12.2313 34.8975 12.3264 34.8969C12.4214 34.8964 12.5154 34.877 12.6029 34.8399C12.6905 34.8028 12.7697 34.7486 12.8362 34.6807L13.3444 34.1724C13.4119 34.1058 13.4654 34.0266 13.5021 33.9392C13.5387 33.8518 13.5578 33.758 13.558 33.6633C13.5583 33.5685 13.5399 33.4747 13.5037 33.3871C13.4676 33.2995 13.4145 33.2199 13.3475 33.1529C13.2805 33.0859 13.2009 33.0328 13.1133 32.9967C13.0257 32.9605 12.9318 32.9421 12.8371 32.9424C12.7423 32.9427 12.6486 32.9617 12.5612 32.9984C12.4738 33.035 12.3945 33.0886 12.328 33.156Z" fill="#613654"/>
<path d="M33.6715 33.156C33.6049 33.0886 33.5256 33.035 33.4383 32.9984C33.3509 32.9617 33.2571 32.9427 33.1624 32.9424C33.0676 32.9421 32.9737 32.9605 32.8861 32.9967C32.7985 33.0328 32.719 33.0859 32.6519 33.1529C32.5849 33.2199 32.5318 33.2995 32.4957 33.3871C32.4596 33.4747 32.4411 33.5685 32.4414 33.6633C32.4417 33.758 32.4607 33.8518 32.4974 33.9392C32.534 34.0266 32.5876 34.1058 32.655 34.1724L33.1632 34.6807C33.2297 34.7486 33.309 34.8028 33.3965 34.8399C33.484 34.877 33.578 34.8964 33.6731 34.8969C33.7682 34.8975 33.8624 34.8792 33.9503 34.843C34.0382 34.8069 34.1181 34.7537 34.1854 34.6865C34.2526 34.6193 34.3058 34.5394 34.342 34.4515C34.3781 34.3635 34.3964 34.2693 34.3959 34.1742C34.3954 34.0792 34.376 33.9852 34.3389 33.8976C34.3018 33.8101 34.2477 33.7308 34.1797 33.6644L33.6715 33.156Z" fill="#613654"/>
<path d="M12.8364 12.3184C12.7696 12.2517 12.6904 12.1987 12.6032 12.1626C12.516 12.1265 12.4225 12.1079 12.3281 12.1079C12.2337 12.1079 12.1403 12.1265 12.0531 12.1626C11.9659 12.1987 11.8866 12.2517 11.8199 12.3184C11.7532 12.3852 11.7002 12.4644 11.6641 12.5516C11.628 12.6388 11.6094 12.7323 11.6094 12.8267C11.6094 12.9211 11.628 13.0145 11.6641 13.1017C11.7002 13.1889 11.7532 13.2682 11.8199 13.3349L12.3281 13.8432C12.3949 13.9099 12.4741 13.9629 12.5613 13.999C12.6485 14.0351 12.742 14.0537 12.8364 14.0537C12.9308 14.0537 13.0242 14.0351 13.1114 13.999C13.1986 13.9629 13.2779 13.9099 13.3446 13.8432C13.4114 13.7764 13.4643 13.6972 13.5004 13.61C13.5366 13.5228 13.5551 13.4293 13.5551 13.3349C13.5551 13.2405 13.5366 13.1471 13.5004 13.0599C13.4643 12.9727 13.4114 12.8934 13.3446 12.8267L12.8364 12.3184Z" fill="#613654"/>
</svg>
