<svg width="52" height="59" viewBox="0 0 52 59" fill="none" xmlns="http://www.w3.org/2000/svg">
<path fill-rule="evenodd" clip-rule="evenodd" d="M38.3531 21.1101C42.129 23.8077 46.7549 25.3952 51.7507 25.3952V15.7862C50.8052 15.7865 49.8622 15.6879 48.9371 15.4919V23.0556C43.9417 23.0556 39.3164 21.4682 35.5395 18.7705V38.3794C35.5395 48.1889 27.5835 56.1405 17.7696 56.1405C14.1079 56.1405 10.7043 55.034 7.87695 53.1364C11.1039 56.4341 15.6039 58.48 20.5825 58.48C30.3971 58.48 38.3535 50.5284 38.3535 40.7186V21.1101H38.3531ZM41.824 11.4159C39.8943 9.30885 38.6274 6.58564 38.3531 3.57505V2.3392H35.6869C36.3579 6.16542 38.6471 9.43443 41.824 11.4159ZM14.0841 45.6092C13.0061 44.1964 12.4234 42.4678 12.426 40.6907C12.426 36.2041 16.0652 32.5666 20.5549 32.5666C21.3915 32.5661 22.2232 32.6944 23.0207 32.9472V23.1236C22.0889 22.996 21.1484 22.9419 20.2081 22.9618V30.608C19.4103 30.3552 18.5782 30.2268 17.7413 30.2274C13.2516 30.2274 9.61272 33.8649 9.61272 38.3518C9.61272 41.5243 11.4316 44.2713 14.0841 45.6092Z" fill="#EE1D52"/>
<path fill-rule="evenodd" clip-rule="evenodd" d="M35.5419 18.7705C39.3187 21.4682 43.944 23.0556 48.9395 23.0556V15.4919C46.1511 14.8984 43.6825 13.4418 41.8263 11.4158C38.6494 9.43443 36.3602 6.16542 35.6892 2.3392H28.6857V40.7183C28.6699 45.1924 25.0369 48.8151 20.5568 48.8151C17.9168 48.8151 15.5714 47.5575 14.0861 45.6092C11.4336 44.2713 9.61469 41.5242 9.61469 38.3518C9.61469 33.8649 13.2536 30.2274 17.7432 30.2274C18.6034 30.2274 19.4324 30.3613 20.2101 30.608V22.9618C10.5687 23.1608 2.81445 31.0348 2.81445 40.7186C2.81445 45.5526 4.7455 49.935 7.87927 53.1368C10.7067 55.0343 14.1102 56.1408 17.7719 56.1408C27.5858 56.1408 35.5419 48.1889 35.5419 38.3798V18.7705Z" fill="white"/>
<path fill-rule="evenodd" clip-rule="evenodd" d="M48.9382 15.4919V13.4466C46.4236 13.4504 43.9586 12.7465 41.8251 11.4155C43.7136 13.4821 46.2005 14.9072 48.9382 15.4919ZM35.688 2.3392C35.6239 1.97357 35.5747 1.60548 35.5406 1.23584V0H25.8706V38.3794C25.855 42.8532 22.2224 46.4759 17.742 46.4759C16.4265 46.4759 15.1848 46.164 14.0849 45.6092C15.5702 47.5575 17.9156 48.8151 20.5556 48.8151C25.0353 48.8151 28.6686 45.1924 28.6845 40.7183V2.3392H35.688ZM20.2092 22.9618V20.7844C19.4012 20.6739 18.5866 20.6187 17.771 20.6191C7.95604 20.6191 0 28.571 0 38.3794C0 44.529 3.12687 49.9485 7.87841 53.1364C4.74464 49.9347 2.81359 45.5523 2.81359 40.7183C2.81359 31.0348 10.5675 23.1608 20.2092 22.9618Z" fill="#69C9D0"/>
</svg>
