<svg width="39" height="44" viewBox="0 0 39 44" fill="none" xmlns="http://www.w3.org/2000/svg">
<path fill-rule="evenodd" clip-rule="evenodd" d="M28.7634 15.8325C31.5953 17.8558 35.0647 19.0464 38.8116 19.0464V11.8396C38.1024 11.8399 37.3952 11.7659 36.7014 11.6189V17.2917C32.9548 17.2917 29.4858 16.1011 26.6532 14.0779V28.7846C26.6532 36.1417 20.6862 42.1053 13.3257 42.1053C10.5795 42.1053 8.0268 41.2755 5.90625 39.8523C8.32644 42.3255 11.7015 43.86 15.4354 43.86C22.7964 43.86 28.7636 37.8963 28.7636 30.539V15.8325H28.7634ZM31.3665 8.56188C29.9193 6.98163 28.9691 4.93923 28.7634 2.68128V1.75439H26.7637C27.267 4.62405 28.9839 7.07582 31.3665 8.56188ZM10.5616 34.2069C9.75311 33.1473 9.31606 31.8509 9.31801 30.518C9.31801 27.1531 12.0474 24.425 15.4147 24.425C16.0421 24.4245 16.6659 24.5208 17.264 24.7104V17.3427C16.5652 17.247 15.8599 17.2064 15.1546 17.2213V22.956C14.5562 22.7664 13.9322 22.6701 13.3045 22.6706C9.93723 22.6706 7.20808 25.3987 7.20808 28.7639C7.20808 31.1432 8.57226 33.2034 10.5616 34.2069Z" fill="#EE1D52"/>
<path fill-rule="evenodd" clip-rule="evenodd" d="M26.6549 14.0779C29.4876 16.1011 32.9565 17.2917 36.7031 17.2917V11.6189C34.6118 11.1738 32.7604 10.0813 31.3683 8.56188C28.9856 7.07582 27.2687 4.62405 26.7654 1.75439H21.5128V30.5387C21.5009 33.8943 18.7762 36.6113 15.4162 36.6113C13.4361 36.6113 11.6771 35.6681 10.5631 34.2069C8.57374 33.2034 7.20956 31.1432 7.20956 28.7639C7.20956 25.3987 9.93871 22.6706 13.306 22.6706C13.9511 22.6706 14.5729 22.771 15.1561 22.956V17.2213C7.92503 17.3706 2.10938 23.2761 2.10938 30.539C2.10938 34.1645 3.55766 37.4513 5.90799 39.8526C8.02853 41.2757 10.5812 42.1056 13.3274 42.1056C20.6879 42.1056 26.6549 36.1417 26.6549 28.7848V14.0779Z" fill="#3E3E3E"/>
<path fill-rule="evenodd" clip-rule="evenodd" d="M36.7037 11.6189V10.085C34.8177 10.0878 32.9689 9.55991 31.3688 8.56163C32.7852 10.1116 34.6503 11.1804 36.7037 11.6189ZM26.766 1.7544C26.7179 1.48018 26.681 1.20411 26.6555 0.926882V0H19.4029V28.7846C19.3913 32.1399 16.6668 34.8569 13.3065 34.8569C12.3199 34.8569 11.3886 34.623 10.5637 34.2069C11.6776 35.6681 13.4367 36.6113 15.4167 36.6113C18.7765 36.6113 21.5015 33.8943 21.5134 30.5387V1.7544H26.766ZM15.1569 17.2213V15.5883C14.5509 15.5054 13.9399 15.464 13.3283 15.4643C5.96703 15.4643 0 21.4283 0 28.7846C0 33.3967 2.34515 37.4613 5.90881 39.8523C3.55848 37.451 2.1102 34.1642 2.1102 30.5387C2.1102 23.2761 7.92559 17.3706 15.1569 17.2213Z" fill="#69C9D0"/>
</svg>
