<svg width="52" height="59" viewBox="0 0 52 59" fill="none" xmlns="http://www.w3.org/2000/svg">
<path fill-rule="evenodd" clip-rule="evenodd" d="M38.3551 21.1101C42.1309 23.8077 46.7569 25.3952 51.7527 25.3952V15.7862C50.8071 15.7865 49.8641 15.6879 48.9391 15.4919V23.0556C43.9436 23.0556 39.3184 21.4682 35.5415 18.7705V38.3794C35.5415 48.1889 27.5855 56.1405 17.7715 56.1405C14.1099 56.1405 10.7063 55.034 7.87891 53.1364C11.1058 56.4341 15.6059 58.48 20.5844 58.48C30.399 58.48 38.3554 50.5284 38.3554 40.7186V21.1101H38.3551ZM41.8259 11.4159C39.8963 9.30885 38.6294 6.58564 38.3551 3.57505V2.3392H35.6888C36.3599 6.16542 38.649 9.43443 41.8259 11.4159ZM14.0861 45.6092C13.0081 44.1964 12.4253 42.4678 12.4279 40.6907C12.4279 36.2041 16.0671 32.5666 20.5568 32.5666C21.3934 32.5661 22.2251 32.6944 23.0226 32.9472V23.1236C22.0908 22.996 21.1504 22.9419 20.2101 22.9618V30.608C19.4122 30.3552 18.5802 30.2268 17.7432 30.2274C13.2535 30.2274 9.61467 33.8649 9.61467 38.3518C9.61467 41.5243 11.4336 44.2713 14.0861 45.6092Z" fill="#EE1D52"/>
<path fill-rule="evenodd" clip-rule="evenodd" d="M35.5399 18.7705C39.3168 21.4682 43.9421 23.0556 48.9375 23.0556V15.4919C46.1491 14.8984 43.6805 13.4418 41.8244 11.4158C38.6475 9.43443 36.3583 6.16542 35.6872 2.3392H28.6838V40.7183C28.6679 45.1924 25.0349 48.8151 20.5549 48.8151C17.9148 48.8151 15.5694 47.5575 14.0841 45.6092C11.4317 44.2713 9.61274 41.5242 9.61274 38.3518C9.61274 33.8649 13.2516 30.2274 17.7413 30.2274C18.6014 30.2274 19.4305 30.3613 20.2081 30.608V22.9618C10.5667 23.1608 2.8125 31.0348 2.8125 40.7186C2.8125 45.5526 4.74355 49.935 7.87732 53.1368C10.7047 55.0343 14.1083 56.1408 17.7699 56.1408C27.5839 56.1408 35.5399 48.1889 35.5399 38.3798V18.7705Z" fill="#1D1D1D"/>
<path fill-rule="evenodd" clip-rule="evenodd" d="M48.9382 15.4919V13.4466C46.4236 13.4504 43.9586 12.7465 41.8251 11.4155C43.7136 13.4821 46.2005 14.9072 48.9382 15.4919ZM35.688 2.3392C35.6239 1.97357 35.5747 1.60548 35.5406 1.23584V0H25.8706V38.3794C25.855 42.8532 22.2224 46.4759 17.742 46.4759C16.4265 46.4759 15.1848 46.164 14.0849 45.6092C15.5702 47.5575 17.9156 48.8151 20.5556 48.8151C25.0353 48.8151 28.6686 45.1924 28.6845 40.7183V2.3392H35.688ZM20.2092 22.9618V20.7844C19.4012 20.6739 18.5866 20.6187 17.771 20.6191C7.95604 20.6191 0 28.571 0 38.3794C0 44.529 3.12687 49.9485 7.87841 53.1364C4.74464 49.9347 2.81359 45.5523 2.81359 40.7183C2.81359 31.0348 10.5675 23.1608 20.2092 22.9618Z" fill="#69C9D0"/>
</svg>
