<svg width="40" height="45" viewBox="0 0 40 45" fill="none" xmlns="http://www.w3.org/2000/svg">
<path fill-rule="evenodd" clip-rule="evenodd" d="M29.2653 16.0825C32.0972 18.1058 35.5667 19.2964 39.3135 19.2964V12.0896C38.6044 12.0899 37.8971 12.0159 37.2034 11.8689V17.5417C33.4567 17.5417 29.9878 16.3511 27.1551 14.3279V29.0346C27.1551 36.3917 21.1881 42.3553 13.8277 42.3553C11.0814 42.3553 8.52875 41.5255 6.4082 40.1023C8.82839 42.5755 12.2034 44.11 15.9373 44.11C23.2983 44.11 29.2656 38.1463 29.2656 30.789V16.0825H29.2653ZM31.8685 8.81188C30.4212 7.23163 29.4711 5.18923 29.2653 2.93128V2.00439H27.2656C27.7689 4.87405 29.4858 7.32582 31.8685 8.81188ZM11.0636 34.4569C10.2551 33.3973 9.81802 32.1009 9.81997 30.768C9.81997 27.4031 12.5494 24.675 15.9166 24.675C16.5441 24.6745 17.1679 24.7708 17.766 24.9604V17.5927C17.0671 17.497 16.3618 17.4564 15.6566 17.4713V23.206C15.0582 23.0164 14.4342 22.9201 13.8064 22.9206C10.4392 22.9206 7.71003 25.6487 7.71003 29.0139C7.71003 31.3932 9.07422 33.4534 11.0636 34.4569Z" fill="#EE1D52"/>
<path fill-rule="evenodd" clip-rule="evenodd" d="M27.1569 14.3279C29.9895 16.3511 33.4585 17.5417 37.2051 17.5417V11.8689C35.1138 11.4238 33.2624 10.3313 31.8702 8.81188C29.4875 7.32582 27.7707 4.87405 27.2674 2.00439H22.0148V30.7887C22.0029 34.1443 19.2781 36.8613 15.9181 36.8613C13.9381 36.8613 12.179 35.9181 11.0651 34.4569C9.0757 33.4534 7.71151 31.3932 7.71151 29.0139C7.71151 25.6487 10.4407 22.9206 13.8079 22.9206C14.453 22.9206 15.0748 23.021 15.6581 23.206V17.4713C8.42698 17.6206 2.61133 23.5261 2.61133 30.789C2.61133 34.4145 4.05961 37.7013 6.40994 40.1026C8.53049 41.5257 11.0832 42.3556 13.8294 42.3556C21.1899 42.3556 27.1569 36.3917 27.1569 29.0348V14.3279Z" fill="white"/>
<path fill-rule="evenodd" clip-rule="evenodd" d="M37.2037 11.8689V10.335C35.3177 10.3378 33.4689 9.80991 31.8688 8.81163C33.2852 10.3616 35.1503 11.4304 37.2037 11.8689ZM27.266 2.0044C27.2179 1.73018 27.181 1.45411 27.1555 1.17688V0.25H19.9029V29.0346C19.8913 32.3899 17.1668 35.1069 13.8065 35.1069C12.8199 35.1069 11.8886 34.873 11.0637 34.4569C12.1776 35.9181 13.9367 36.8613 15.9167 36.8613C19.2765 36.8613 22.0015 34.1443 22.0134 30.7887V2.0044H27.266ZM15.6569 17.4713V15.8383C15.0509 15.7554 14.4399 15.714 13.8283 15.7143C6.46703 15.7143 0.5 21.6783 0.5 29.0346C0.5 33.6467 2.84515 37.7113 6.40881 40.1023C4.05848 37.701 2.6102 34.4142 2.6102 30.7887C2.6102 23.5261 8.42559 17.6206 15.6569 17.4713Z" fill="#69C9D0"/>
</svg>
