<svg width="50" height="50" viewBox="0 0 50 50" fill="none" xmlns="http://www.w3.org/2000/svg">
<g clip-path="url(#clip0)">
<path d="M34.8409 24.6114C34.7099 24.3096 34.6197 23.9913 34.5729 23.6655C34.451 22.8188 34.2169 21.9908 33.8772 21.2043C33.7168 20.8332 33.2862 20.662 32.9146 20.8225C32.5433 20.9829 32.3725 21.4139 32.5329 21.7851C32.8213 22.4527 33.02 23.1555 33.1233 23.874C33.1889 24.3288 33.3147 24.773 33.4974 25.1942L35.0868 28.8592C35.7581 30.4071 35.5437 32.1287 34.5133 33.4647C33.6354 34.6029 32.3359 35.2367 30.9395 35.242C31.3443 34.3893 31.5717 33.4366 31.5717 32.4316V25.6932C31.5717 24.8765 30.9321 24.2198 30.1155 24.1982L25.9727 24.0891C24.5599 24.0518 23.1782 23.5401 22.082 22.6483L21.8093 22.4264C21.5549 22.2193 21.2353 22.1248 20.909 22.1594C20.5828 22.1942 20.2903 22.3545 20.0854 22.6105C19.0105 23.9535 18.4186 25.6402 18.4186 27.3602V32.4316C18.4186 33.4366 18.646 34.3892 19.0508 35.242C17.6544 35.2368 16.3549 34.603 15.4771 33.4647C14.4466 32.1287 14.2322 30.4072 14.9035 28.8592L16.4929 25.1943C16.6756 24.773 16.8014 24.3288 16.867 23.874C17.1482 21.9192 18.1252 20.1303 19.6178 18.8371C21.1104 17.5439 23.0202 16.8317 24.9951 16.8317C27.2269 16.8317 29.3153 17.7126 30.8755 19.3123C31.1577 19.6019 31.6214 19.6075 31.9109 19.3253C32.2003 19.043 32.2062 18.5793 31.9238 18.2899C30.0857 16.4051 27.625 15.3672 24.995 15.3672C22.6678 15.3672 20.4175 16.2064 18.6588 17.7303C16.9001 19.2541 15.7488 21.3619 15.4173 23.6654C15.3705 23.9913 15.2803 24.3096 15.1493 24.6114L13.5599 28.2765C12.6733 30.3208 12.9564 32.5946 14.3174 34.3591C15.4816 35.8685 17.2063 36.7097 19.0594 36.7096C19.3534 36.7096 19.6512 36.6875 19.9501 36.6445C20.4666 37.262 21.0943 37.7831 21.8019 38.1779V39.5911L18.0581 41.093C15.4349 42.1455 13.7399 44.652 13.7399 47.4784V49.2679C13.7399 49.6724 14.0677 50.0001 14.4722 50.0001C14.8766 50.0001 15.2044 49.6724 15.2044 49.2679V47.4784C15.2044 45.2536 16.5386 43.2806 18.6034 42.4522L21.9734 41.1002C22.3943 42.3105 23.5457 43.1816 24.8974 43.1816C26.2491 43.1816 27.4006 42.3104 27.8215 41.1002L31.1918 42.4524C31.2803 42.4879 31.3737 42.529 31.486 42.5818C31.5867 42.6292 31.6927 42.6516 31.7972 42.6516C32.072 42.6516 32.3356 42.4961 32.4603 42.2308C32.6325 41.8649 32.4753 41.4287 32.1093 41.2566C31.9706 41.1913 31.8522 41.1394 31.7369 41.0931L27.993 39.5911V38.2819C28.7806 37.8767 29.4766 37.3182 30.0401 36.6445C30.3391 36.6876 30.6366 36.7096 30.9308 36.7096C32.7838 36.7096 34.5087 35.8684 35.6728 34.3591C37.0337 32.5947 37.3169 30.3209 36.4303 28.2765L34.8409 24.6114ZM26.5285 40.0863C26.5285 40.9856 25.7969 41.7173 24.8975 41.7173C23.9981 41.7173 23.2665 40.9856 23.2665 40.0863V38.7758C23.8177 38.9262 24.397 39.008 24.9951 39.008C25.5231 39.008 26.0362 38.9438 26.5285 38.8256V40.0863ZM24.9951 37.5435C22.1764 37.5435 19.8832 35.2504 19.8832 32.4317V27.3603C19.8832 26.0536 20.3063 24.7707 21.0793 23.7205L21.1578 23.7845C22.5036 24.8792 24.1998 25.5073 25.9342 25.5531L30.0769 25.6622C30.0939 25.6627 30.1073 25.6764 30.1073 25.6933V32.4317C30.1071 35.2504 27.8139 37.5435 24.9951 37.5435Z" fill="#613654"/>
<path d="M33.7682 43.3291C33.4381 43.5627 33.3599 44.0197 33.5937 44.3497C34.2456 45.2706 34.5901 46.3525 34.5901 47.4785V49.268C34.5901 49.6725 34.9179 50.0002 35.3223 50.0002C35.7268 50.0002 36.0546 49.6725 36.0546 49.268V47.4785C36.0546 46.0477 35.617 44.6732 34.7889 43.5036C34.5552 43.1734 34.0982 43.0953 33.7682 43.3291Z" fill="#613654"/>
<path d="M11.1546 10.9663C9.52345 9.85175 7.48316 9.64311 5.5565 10.3948C4.1511 10.9429 3.02746 12.0594 2.47331 13.4579C2.11275 14.3681 1.96396 15.2989 2.03143 16.2245C2.06091 16.6278 2.41043 16.9313 2.81492 16.9017C3.21823 16.8723 3.52138 16.5215 3.49209 16.1182C3.44083 15.4144 3.55613 14.7008 3.83487 13.9974C4.23965 12.9758 5.06122 12.16 6.08879 11.7592C7.55755 11.1863 9.10296 11.338 10.3284 12.1755C11.5262 12.9938 12.2411 14.3471 12.2411 15.7953C12.2411 16.7043 11.9653 17.5757 11.4436 18.3159C11.4375 18.3245 11.4317 18.3333 11.4259 18.3421L8.96569 22.1721C8.88992 22.2903 8.8496 22.4275 8.8496 22.5679V22.9014H8.59274V19.2357C9.33649 19.1689 9.9215 18.5429 9.9215 17.782V16.5805C9.9215 15.7753 9.26639 15.1202 8.46123 15.1202H7.25968C6.45451 15.1202 5.79941 15.7753 5.79941 16.5805V17.782C5.79941 18.5428 6.38451 19.1689 7.12817 19.2357V22.9015H6.8713V22.568C6.8713 22.4276 6.83098 22.2904 6.75522 22.1722L4.51634 18.6867C4.29784 18.3464 3.84483 18.2478 3.50449 18.4663C3.16434 18.6848 3.06563 19.1379 3.28413 19.4782L5.40683 22.7829V23.3075C5.40683 23.5169 5.46873 23.7118 5.57407 23.8763V24.6345C5.57407 25.8124 6.53242 26.7709 7.71054 26.7709H8.01027C9.18829 26.7709 10.1467 25.8125 10.1467 24.6345V23.8763C10.2521 23.7118 10.314 23.5169 10.314 23.3075V22.7829L12.6498 19.1464C13.3404 18.161 13.7055 17.0026 13.7055 15.7954C13.7055 13.863 12.7519 12.0578 11.1546 10.9663ZM8.45693 16.5805L8.46162 17.7778L7.89936 17.7798C7.88637 17.7791 7.87349 17.7778 7.86031 17.7778C7.84517 17.7778 7.83033 17.7792 7.81549 17.7801L7.26378 17.782L7.25958 16.5847L8.45693 16.5805ZM8.68226 24.6344C8.68226 25.0049 8.38078 25.3063 8.01027 25.3063H7.71054C7.34003 25.3063 7.03854 25.0049 7.03854 24.6344V24.3659H8.68226V24.6344Z" fill="#613654"/>
<path d="M24.8972 13.0013C28.4817 13.0013 31.3978 10.0851 31.3978 6.50058C31.3978 2.91615 28.4817 0 24.8972 0C21.3126 0 18.3965 2.91615 18.3965 6.50058C18.3965 10.0851 21.3126 13.0013 24.8972 13.0013ZM24.8972 1.46447C27.6741 1.46447 29.9334 3.72366 29.9334 6.50058C29.9334 9.27751 27.6741 11.5368 24.8972 11.5368C22.1202 11.5368 19.861 9.27751 19.861 6.50058C19.861 3.72366 22.1202 1.46447 24.8972 1.46447Z" fill="#613654"/>
<path d="M23.6095 8.94373C23.7524 9.08666 23.9399 9.15813 24.1273 9.15813C24.3146 9.15813 24.5021 9.08666 24.6451 8.94373L28.0659 5.52292C28.3519 5.23686 28.3519 4.77331 28.0659 4.48735C27.7798 4.20148 27.3163 4.20148 27.0303 4.48735L24.1273 7.39041L23.6347 6.89786C23.3488 6.612 22.8852 6.6119 22.5992 6.89796C22.3133 7.18392 22.3133 7.64757 22.5993 7.93344L23.6095 8.94373Z" fill="#613654"/>
<path d="M47.928 14.564C47.7927 14.1472 47.4392 13.8493 47.0057 13.7862L43.9626 13.3441L42.6017 10.5865C42.4078 10.1937 42.0152 9.94971 41.5773 9.94971C41.1394 9.94971 40.7468 10.1937 40.5529 10.5865L39.1919 13.3441L36.1488 13.7862C35.7153 13.8493 35.3619 14.1472 35.2267 14.5639C35.0913 14.9805 35.2021 15.4291 35.5157 15.7348L37.7178 17.8812L37.1979 20.9121C37.124 21.3439 37.2982 21.772 37.6525 22.0293C38.0068 22.2869 38.4677 22.3202 38.8555 22.1163L41.5774 20.6853L44.2993 22.1163C44.4679 22.205 44.6504 22.2487 44.8319 22.2487C45.0678 22.2487 45.3021 22.1747 45.5024 22.0292C45.8567 21.7717 46.0308 21.3437 45.9567 20.912L45.4369 17.8813L47.6388 15.7348C47.9524 15.4292 48.0633 14.9805 47.928 14.564ZM44.2934 16.9506C44.0241 17.213 43.9012 17.591 43.9647 17.9618L44.4028 20.5163L42.1089 19.3103C41.9424 19.2228 41.7598 19.179 41.5773 19.179C41.3947 19.179 41.212 19.2227 41.0456 19.3102L38.7515 20.5163L39.1897 17.9616C39.2532 17.5909 39.1303 17.2129 38.8612 16.9506L37.0052 15.1416L39.5703 14.769C39.9424 14.7147 40.2639 14.4811 40.4301 14.144L41.5772 11.8198L42.724 14.1437C42.8903 14.481 43.2119 14.7147 43.5844 14.7689L46.1491 15.1415L44.2934 16.9506Z" fill="#613654"/>
<path d="M32.6616 9.39223C33.779 9.82806 34.8616 10.3619 35.8929 10.9818C35.5705 11.1332 35.398 11.5008 35.5028 11.8525C35.5975 12.1703 35.8887 12.3758 36.2043 12.3758C36.2735 12.3758 36.3439 12.3659 36.4137 12.3452L37.8008 11.932C38.1112 11.8397 38.3239 11.5542 38.3239 11.2302V9.72984C38.3239 9.32535 37.9962 8.99761 37.5917 8.99761C37.1872 8.99761 36.8595 9.32535 36.8595 9.72984V9.85637C35.6941 9.13849 34.4652 8.5238 33.1938 8.02784C32.8171 7.8808 32.3925 8.06708 32.2455 8.44394C32.0987 8.8207 32.2849 9.2452 32.6616 9.39223Z" fill="#613654"/>
<path d="M13.3423 11.1959C13.4731 11.1959 13.6054 11.1609 13.7249 11.0875C14.4086 10.6675 15.1204 10.2846 15.8478 9.94383L15.8098 10.0864C15.7053 10.477 15.9374 10.8784 16.3281 10.9829C16.3914 10.9998 16.455 11.0079 16.5176 11.0079C16.8409 11.0079 17.1371 10.7919 17.2245 10.4646L17.6717 8.79139C17.7713 8.41912 17.5651 8.03328 17.2002 7.90919L15.8584 7.45248C15.4759 7.32184 15.0596 7.52677 14.9293 7.90978C14.8351 8.18647 14.9165 8.47985 15.1132 8.67082C14.3753 9.02141 13.6532 9.41291 12.9584 9.83975C12.6139 10.0515 12.5061 10.5024 12.7178 10.8469C12.856 11.0719 13.0963 11.1959 13.3423 11.1959Z" fill="#613654"/>
</g>
<defs>
<clipPath id="clip0">
<rect width="50" height="50" fill="white"/>
</clipPath>
</defs>
</svg>
