<svg width="22" height="22" viewBox="0 0 22 22" fill="none" xmlns="http://www.w3.org/2000/svg">
<path d="M18.065 21.6234C13.3598 22.1255 8.64024 22.1255 3.935 21.6234C2.05881 21.4231 0.576889 19.9412 0.376648 18.0648C-0.125549 13.3596 -0.125549 8.64024 0.376648 3.935C0.576889 2.05881 2.05881 0.576889 3.935 0.376648C8.64024 -0.125549 13.3596 -0.125549 18.0648 0.376648C19.9412 0.576889 21.4231 2.05881 21.6234 3.935C22.1255 8.64024 22.1255 13.3596 21.6234 18.0648C21.4231 19.9412 19.9414 21.4231 18.065 21.6234Z" fill="url(#paint0_linear)"/>
<path d="M20.4261 4.73075C20.2485 3.06588 18.9336 1.7508 17.2686 1.57305C13.0932 1.12759 8.90543 1.12759 4.73008 1.57305C3.06521 1.7508 1.75013 3.06588 1.57238 4.73075C1.12691 8.90611 1.12691 13.0939 1.57238 17.2691C1.75013 18.9341 3.06521 20.2492 4.73008 20.4268C8.90543 20.8724 13.0932 20.8724 17.2684 20.4268C18.9334 20.2492 20.2485 18.9341 20.4261 17.2691C20.8717 13.0939 20.8717 8.90611 20.4261 4.73075V4.73075Z" fill="url(#paint1_linear)"/>
<path d="M0.330078 17.6088C0.345184 17.7608 0.360794 17.9129 0.377075 18.065C0.577316 19.9412 2.05923 21.4231 3.93559 21.6233C8.64084 22.1255 13.3602 22.1255 18.0654 21.6233C19.9418 21.4231 21.4235 19.9412 21.6238 18.065C21.6401 17.9129 21.6557 17.7608 21.6709 17.6088H0.330078Z" fill="url(#paint2_linear)"/>
<path d="M14.7895 3.66394C12.8727 3.66394 11.319 5.21786 11.319 7.13467V9.72707H9.45117V12.9368L11.319 14.6097V21.999C13.5685 21.9881 15.8178 21.8631 18.0641 21.6234C19.9404 21.4231 21.4222 19.9412 21.6224 18.0648C21.996 14.5639 22.0915 11.0552 21.9091 7.55026L18.0228 3.66394H14.7895Z" fill="url(#paint3_linear)"/>
<path d="M11.319 21.999C12.6008 21.9928 13.8825 21.9493 15.1637 21.8688V12.9368H17.7146L18.0228 9.72707H15.1637V7.6889C15.1637 7.23874 15.5286 6.87384 15.9787 6.87384H18.0228V3.66394H14.7895C12.8727 3.66394 11.319 5.21786 11.319 7.13467V9.72707H9.45117V12.9368H11.319V21.999Z" fill="white"/>
<defs>
<linearGradient id="paint0_linear" x1="7.30443" y1="3.09316" x2="12.8689" y2="14.9985" gradientUnits="userSpaceOnUse">
<stop stop-color="#3457A0"/>
<stop offset="1" stop-color="#3B5998"/>
</linearGradient>
<linearGradient id="paint1_linear" x1="15.1726" y1="13.8674" x2="-4.05899" y2="0.653475" gradientUnits="userSpaceOnUse">
<stop stop-color="#3457A0" stop-opacity="0"/>
<stop offset="1" stop-color="#1F3F77"/>
</linearGradient>
<linearGradient id="paint2_linear" x1="11.0004" y1="18.3851" x2="11.0004" y2="21.3622" gradientUnits="userSpaceOnUse">
<stop stop-color="#3457A0" stop-opacity="0"/>
<stop offset="1" stop-color="#1F3F77"/>
</linearGradient>
<linearGradient id="paint3_linear" x1="25.2551" y1="18.1685" x2="9.9853" y2="10.4689" gradientUnits="userSpaceOnUse">
<stop stop-color="#3457A0" stop-opacity="0"/>
<stop offset="0.3251" stop-color="#2A4C8D" stop-opacity="0.32549"/>
<stop offset="0.7045" stop-color="#22427D" stop-opacity="0.705882"/>
<stop offset="1" stop-color="#1F3F77"/>
</linearGradient>
</defs>
</svg>
