<svg width="32" height="32" viewBox="0 0 32 32" fill="none" xmlns="http://www.w3.org/2000/svg">
<path d="M30.1928 4.30175L28.8254 3.09765L30.1928 1.8938C30.4055 1.7063 30.4782 1.41406 30.3784 1.14892C30.278 0.883543 30.0302 0.712157 29.7468 0.712157H24.0881V0.468993C24.0881 0.209961 23.8781 0 23.6191 0C23.3601 0 23.1501 0.209961 23.1501 0.468993V6.79418L19.2983 8.88573C19.2771 8.71629 19.2263 8.54979 19.146 8.39305L18.6032 7.33348C18.2307 6.60594 17.3357 6.31761 16.6086 6.68993L16.1889 6.90477C15.8364 7.08544 15.5754 7.39208 15.4538 7.76903C15.3322 8.14574 15.3647 8.54735 15.5454 8.89964L16.0881 9.95945C16.2148 10.2068 16.4021 10.4026 16.6223 10.5398C16.3342 10.9277 16.1975 11.4048 16.0569 11.9004L15.9558 12.2583C15.8852 12.5075 16.0302 12.7668 16.2795 12.8371C16.322 12.8493 16.365 12.855 16.4072 12.855C16.6118 12.855 16.7998 12.7202 16.8584 12.5134L16.9594 12.1562C17.165 11.4314 17.2912 11.0432 17.6931 10.8249L18.4135 10.4336L18.5024 10.3882C18.5319 10.373 18.5595 10.3559 18.5876 10.3391L23.7224 7.55077C23.6899 8.19261 23.3444 8.79906 22.7756 9.14451L19.4365 11.1733C19.4326 11.1755 19.4287 11.1777 19.425 11.1802L18.3857 11.8115C18.1645 11.946 18.094 12.2346 18.2285 12.456C18.3552 12.6648 18.6189 12.739 18.834 12.6343L18.0454 15.018L17.469 15.2544L15.9016 15.8967L16.3532 14.3C16.4236 14.0508 16.2788 13.7915 16.0295 13.7209C15.78 13.6501 15.521 13.7954 15.4504 14.0447L14.7368 16.5683C14.7275 16.6008 14.7214 16.6364 14.7199 16.6704L14.5332 20.101C14.5276 20.2319 14.5554 20.4792 14.4948 20.6069L12.4206 24.9707H10.9133C10.0303 24.9707 9.312 25.6889 9.312 26.5717V27.9255C9.10985 27.833 8.88548 27.7812 8.64891 27.7812H4.82104C3.93823 27.7812 3.21997 28.4992 3.21997 29.3823V31.062H2.09399C1.83496 31.062 1.625 31.2719 1.625 31.5309C1.625 31.79 1.83496 31.9999 2.09399 31.9999H29.7463C30.0053 31.9999 30.2153 31.79 30.2153 31.5309C30.2153 31.2719 30.0053 31.062 29.7463 31.062H28.5266V18.9734C28.5266 18.0905 27.8083 17.3723 26.9255 17.3723H24.0881V9.19041C24.6081 8.48558 24.8007 7.56175 24.5593 6.68382C24.5214 6.54589 24.4226 6.4326 24.2907 6.3767C24.226 6.34911 24.1567 6.3369 24.0881 6.33959V5.48339H29.7465C30.0302 5.48339 30.278 5.312 30.3781 5.04686C30.4782 4.78173 30.4055 4.48925 30.1928 4.30175ZM16.3467 8.05711C16.3913 7.91869 16.487 7.80589 16.6164 7.73973L17.0361 7.52489C17.1152 7.48436 17.1997 7.46507 17.2832 7.46507C17.4809 7.46507 17.6721 7.57323 17.7683 7.76097L18.3112 8.82078C18.438 9.06834 18.3559 9.36839 18.1306 9.52L17.9778 9.60276L17.6552 9.76805C17.3884 9.90477 17.0598 9.79881 16.9231 9.53172L16.3801 8.47215C16.3139 8.34276 16.302 8.1953 16.3467 8.05711ZM15.4043 25.1149C15.2448 25.0422 15.0715 24.9946 14.8894 24.9777L15.4043 24.2939V25.1149ZM17.6311 21.3359C17.8567 21.0656 17.9189 20.75 17.9692 20.4956C17.9819 20.435 18.2133 19.1709 18.2133 19.1709C18.2133 19.1709 18.4323 19.3073 18.4553 19.3171C18.4712 19.3242 18.4824 19.3398 18.4841 19.3581L18.7392 21.9516H17.1675L17.6311 21.3359ZM20.4045 18.7473L20.0085 21.9494H19.6816L19.4177 19.2663C19.384 18.9226 19.1735 18.6225 18.8652 18.4734L18.3935 18.1743L18.7077 16.4328C18.7077 16.4328 20.0315 18.0053 20.0622 18.0454C20.3361 18.4016 20.4299 18.5442 20.4045 18.7473ZM15.3386 21.017C15.4333 20.7319 15.4773 20.4416 15.4699 20.1464L15.6404 17.0175L17.8095 16.1286L17.4153 18.3127C17.414 18.3186 17.4128 18.3247 17.4121 18.3305L17.0859 20.1364C17.0434 20.3234 17.0063 20.6071 16.8896 20.7612L13.7204 24.9707H13.4592L15.3386 21.017ZM4.15795 29.382C4.15795 29.0165 4.45532 28.7192 4.82104 28.7192H8.64891C9.01463 28.7192 9.31224 29.0165 9.31224 29.382V31.062H4.15795V29.382ZM10.25 29.382V26.5717C10.25 26.206 10.5476 25.9086 10.9133 25.9086H14.7412C15.1069 25.9086 15.4043 26.206 15.4043 26.5717V31.062H10.2502V29.382H10.25ZM27.5886 18.9734V31.062H22.4345V28.2499C22.4345 27.9909 22.2246 27.781 21.9655 27.781C21.7063 27.781 21.4963 27.9909 21.4963 28.2499V31.062H16.3423V23.5524C16.3423 23.187 16.6396 22.8896 17.0053 22.8896H20.8332C21.1989 22.8896 21.4963 23.187 21.4963 23.5524V25.9035C21.4963 26.1625 21.7063 26.3725 21.9653 26.3725C22.2246 26.3725 22.4343 26.1625 22.4343 25.9035V18.9734C22.4343 18.6076 22.7319 18.3103 23.0976 18.3103H23.6142C23.6157 18.3103 23.6174 18.3105 23.6191 18.3105C23.6206 18.3105 23.6223 18.3103 23.6237 18.3103H26.9252C27.291 18.3103 27.5886 18.6079 27.5886 18.9734ZM23.0976 17.3723C22.2148 17.3723 21.4965 18.0905 21.4965 18.9734V22.0959C21.3286 22.0192 21.1455 21.9707 20.9528 21.9565L21.3354 18.8628C21.4106 18.2597 21.103 17.8601 20.8056 17.4734C20.7741 17.4323 18.9511 15.2678 18.9511 15.2678L20.0695 11.8865L23.1501 10.0149V17.3723H23.0976ZM24.0881 4.54516V1.65039H29.0498L27.9812 2.5913C27.8356 2.71948 27.7521 2.90405 27.7521 3.09789C27.7521 3.29174 27.8356 3.47631 27.9812 3.60449L29.0498 4.5454H24.0881V4.54516Z" fill="#613654"/>
</svg>
