<svg width="50" height="20" viewBox="0 0 50 20" fill="none" xmlns="http://www.w3.org/2000/svg">
<g clip-path="url(#clip0)">
<path d="M23.6492 9.6569V15.4514H21.8027V1.14159H26.6999C27.2844 1.12943 27.8656 1.23264 28.4098 1.44527C28.9541 1.65789 29.4507 1.97572 29.8709 2.38041C30.2954 2.76052 30.6333 3.2267 30.8617 3.7476C31.0902 4.26849 31.204 4.83205 31.1956 5.40038C31.2077 5.97176 31.0956 6.53899 30.867 7.06321C30.6384 7.58743 30.2986 8.05623 29.8709 8.43749C29.0146 9.25043 27.9576 9.65652 26.6999 9.65576H23.6492V9.6569ZM23.6492 2.90334V7.89857H26.7457C27.0852 7.90859 27.423 7.84796 27.7376 7.72056C28.0522 7.59316 28.3366 7.4018 28.5727 7.15871C28.8075 6.93142 28.9942 6.65957 29.1216 6.35923C29.2491 6.05888 29.3148 5.73614 29.3148 5.41009C29.3148 5.08404 29.2491 4.7613 29.1216 4.46095C28.9942 4.16061 28.8075 3.88875 28.5727 3.66147C28.3396 3.41326 28.0562 3.2172 27.7412 3.0863C27.4262 2.9554 27.0869 2.89265 26.7457 2.90219H23.6492V2.90334Z" fill="white"/>
<path d="M35.4479 5.34082C36.8126 5.34082 37.8899 5.7039 38.6797 6.43007C39.4696 7.15623 39.8641 8.15185 39.8633 9.41693V15.4512H38.0971V14.0925H38.0169C37.2523 15.2114 36.2354 15.7709 34.9662 15.7709C33.8828 15.7709 32.9764 15.4512 32.247 14.8118C31.8969 14.5183 31.6171 14.1508 31.4278 13.736C31.2385 13.3212 31.1446 12.8696 31.1528 12.4141C31.1528 11.4009 31.5374 10.5952 32.3066 9.99695C33.0758 9.39866 34.1026 9.09876 35.3871 9.09724C36.4835 9.09724 37.3865 9.29705 38.096 9.69667V9.2765C38.0981 8.96595 38.0307 8.65884 37.8988 8.37743C37.7669 8.09601 37.5737 7.84735 37.3333 7.64948C36.845 7.2109 36.2087 6.97159 35.5511 6.97926C34.5197 6.97926 33.7035 7.41237 33.1025 8.27859L31.4763 7.25899C32.3708 5.98021 33.6947 5.34082 35.4479 5.34082ZM33.0589 12.454C33.0577 12.688 33.1126 12.9188 33.2192 13.1274C33.3257 13.3359 33.4807 13.5161 33.6714 13.6529C34.0797 13.9727 34.5866 14.1421 35.1061 14.1324C35.8853 14.1311 36.6322 13.8224 37.1831 13.2738C37.7947 12.7007 38.1006 12.0282 38.1006 11.2563C37.5248 10.7996 36.722 10.5713 35.6922 10.5713C34.9421 10.5713 34.3167 10.7513 33.8159 11.1113C33.3101 11.4767 33.0589 11.9208 33.0589 12.454V12.454Z" fill="white"/>
<path d="M50.0019 5.66113L43.8363 19.7677H41.9302L44.2182 14.8318L40.1641 5.66113H42.1711L45.1013 12.6944H45.1415L47.9914 5.66113H50.0019Z" fill="white"/>
<path d="M16.1872 8.40788C16.1879 7.84767 16.1404 7.28844 16.045 6.73633H8.25781V9.90245H12.718C12.6267 10.4081 12.4335 10.8902 12.1501 11.3195C11.8667 11.7489 11.4988 12.1166 11.0688 12.4006V14.4558H13.7307C15.2893 13.0252 16.1872 10.9095 16.1872 8.40788Z" fill="#4285F4"/>
<path d="M8.25671 16.4413C10.4851 16.4413 12.3613 15.7129 13.7296 14.4569L11.0677 12.4017C10.3268 12.9018 9.37261 13.1873 8.25671 13.1873C6.10289 13.1873 4.27478 11.7418 3.62107 9.79395H0.878906V11.9119C1.56619 13.2735 2.62006 14.418 3.92286 15.2178C5.22566 16.0177 6.72611 16.4413 8.25671 16.4413V16.4413Z" fill="#34A853"/>
<path d="M3.62143 9.79399C3.27584 8.7733 3.27584 7.66797 3.62143 6.64728V4.5293H0.879271C0.301107 5.67467 0 6.93877 0 8.22064C0 9.5025 0.301107 10.7666 0.879271 11.912L3.62143 9.79399Z" fill="#FBBC04"/>
<path d="M8.25671 3.25458C9.4343 3.23543 10.5722 3.67838 11.4244 4.48769L13.7812 2.14136C12.2867 0.743917 10.3069 -0.0232997 8.25671 0.000539357C6.72611 0.000608805 5.22566 0.424198 3.92286 1.22402C2.62006 2.02383 1.56619 3.1684 0.878906 4.52994L3.62107 6.64792C4.27478 4.70006 6.10289 3.25458 8.25671 3.25458Z" fill="#EA4335"/>
</g>
<defs>
<clipPath id="clip0">
<rect width="50" height="19.7674" fill="white"/>
</clipPath>
</defs>
</svg>
