<svg width="43" height="46" viewBox="0 0 43 46" fill="none" xmlns="http://www.w3.org/2000/svg">
<path d="M41.5539 37.0654C41.19 37.0654 40.8948 37.3606 40.8948 37.7246V42.3615C40.8948 43.112 40.2843 43.7224 39.5338 43.7224H24.0733C23.3228 43.7224 22.7124 43.112 22.7124 42.3615V37.7246C22.7124 37.3606 22.4171 37.0654 22.0532 37.0654C21.6893 37.0654 21.394 37.3606 21.394 37.7246V42.3615C21.394 42.8579 21.5296 43.3235 21.7662 43.7224H19.9792L18.5915 32.4449L19.2067 30.8073L20.2281 31.428C20.4461 31.5605 20.6892 31.6241 20.9299 31.6241C21.3566 31.6241 21.7768 31.4246 22.0398 31.0569L24.613 27.4578C25.8054 27.829 26.9754 28.2832 28.105 28.8133C28.0384 28.986 28.0023 29.1717 28.0023 29.3653V30.6418H24.0733C22.6273 30.6418 21.4263 31.8187 21.3964 33.2651C21.3961 33.2741 21.3961 33.283 21.3964 33.2916C21.4215 34.5818 21.9427 35.7906 22.8635 36.6956C23.7863 37.602 25.0068 38.1012 26.3001 38.1012H29.0288V38.151C29.0288 38.7113 29.4848 39.1672 30.0451 39.1672H33.5621C34.1224 39.1672 34.5783 38.7113 34.5783 38.151V38.1012H37.307C38.6007 38.1012 39.8212 37.602 40.7437 36.6956C41.6648 35.7906 42.186 34.5818 42.2107 33.2916C42.2111 33.283 42.2111 33.2741 42.2107 33.2655C42.1812 31.8187 40.9803 30.6418 39.5338 30.6418H35.6049V29.3653C35.6049 28.4665 34.8234 27.7352 33.8628 27.7352H29.7443C29.5267 27.7352 29.3179 27.7727 29.1257 27.8413C27.6885 27.1348 26.1844 26.5467 24.648 26.0904L22.3238 24.3779C21.7779 23.9759 21.0826 23.9089 20.4908 24.1674V23.0657C21.129 22.6098 21.6989 22.0862 22.2184 21.5678C23.6455 20.143 24.9718 18.4882 25.012 16.0475C25.0123 16.0434 25.0123 16.0389 25.0123 16.0348L25.0113 15.7189C26.399 15.7189 27.5282 14.5894 27.5282 13.2007V12.3214C27.5282 11.8112 27.3754 11.3357 27.1138 10.9385V6.1526C27.1138 5.48656 26.8848 4.84283 26.4745 4.32819C26.6874 3.73389 26.8031 3.0936 26.8031 2.42721V0.930664C26.8034 0.440056 26.4041 0.0407715 25.9135 0.0407715H11.9956C10.029 0.0407715 8.39412 1.44942 8.06419 3.33392C6.81174 3.68068 5.89473 4.82841 5.89473 6.1526V10.9382C5.63277 11.3354 5.48 11.8109 5.48 12.3214V13.2007C5.48 14.5891 6.60953 15.7189 7.99724 15.7189H8.02539L8.02642 16.0925C8.02642 16.0969 8.02676 16.1014 8.02676 16.1059C8.08376 18.5445 9.42168 20.19 10.8585 21.6049C11.3601 22.0989 11.908 22.5971 12.5174 23.0352V24.1664C11.9259 23.9089 11.2317 23.9759 10.6865 24.3775L8.36356 26.089C6.70909 26.5807 5.09204 27.2244 3.55602 28.0044C1.59633 28.999 0.378906 30.9824 0.378906 33.18V35.2993C0.378906 35.6636 0.674164 35.9585 1.03809 35.9585C1.40201 35.9585 1.69727 35.6636 1.69727 35.2993V33.18C1.69727 31.4816 2.63797 29.9486 4.15271 29.1799C5.51192 28.4899 6.9374 27.9114 8.39687 27.4572L10.9704 31.0565C11.2331 31.4246 11.6533 31.6241 12.08 31.6241C12.321 31.6241 12.5641 31.5602 12.7821 31.428L13.8073 30.8052L14.417 32.4439L13.0293 43.7224H6.58V38.4888C6.58 38.1245 6.28474 37.8296 5.92082 37.8296C5.5569 37.8296 5.26164 38.1245 5.26164 38.4888V43.7224H2.0787C1.86824 43.7224 1.69727 43.5514 1.69727 43.341V38.3731C1.69727 38.0092 1.40201 37.7139 1.03809 37.7139C0.674164 37.7139 0.378906 38.0092 0.378906 38.3731V43.341C0.378906 44.2783 1.14143 45.0408 2.0787 45.0408H39.5338C41.0112 45.0408 42.2131 43.8388 42.2131 42.3615V37.7246C42.2131 37.3606 41.9179 37.0654 41.5539 37.0654ZM33.26 37.8488H30.3472V37.0348H33.26V37.8488ZM33.8628 29.0536C34.0925 29.0536 34.2865 29.1964 34.2865 29.3653V30.6418H32.0446C31.7562 30.0486 31.371 29.5123 30.9072 29.0536H33.8628ZM29.3207 29.4522C29.7948 29.7694 30.2027 30.1735 30.5237 30.6418H29.3207V29.4522ZM39.5338 31.9602C40.2641 31.9602 40.8707 32.551 40.8924 33.2799C40.8474 35.2128 39.242 36.7828 37.307 36.7828H34.5783V36.7327C34.5783 36.1724 34.1224 35.7165 33.5621 35.7165H30.0451C29.4848 35.7165 29.0288 36.1724 29.0288 36.7327V36.7828H26.3001C24.3652 36.7828 22.7598 35.2128 22.7148 33.2803C22.7364 32.551 23.3434 31.9602 24.0733 31.9602H39.5338ZM20.876 25.4659C21.0658 25.3011 21.3394 25.2901 21.5417 25.4391L23.4371 26.8357L20.9676 30.2899C20.9549 30.3074 20.9309 30.3122 20.9127 30.3012L17.6178 28.2997L20.876 25.4659ZM16.5051 29.1662L18.0542 30.1073L17.4596 31.7058H15.549L14.9547 30.1083L16.5051 29.1662ZM16.5051 27.52L13.8358 25.1988V23.8186C14.6357 24.1939 15.5297 24.4342 16.5405 24.4428H16.546H16.5559C17.5317 24.4277 18.3968 24.198 19.1724 23.8399V25.2005L16.5051 27.52ZM26.2098 12.3214V13.2007C26.2098 13.8623 25.6722 14.4006 25.0113 14.4006H25.0072L24.9972 11.1212H25.0113C25.6722 11.1215 26.2098 11.6595 26.2098 12.3214ZM25.7954 6.1526V9.92812C25.5486 9.8471 25.2849 9.80315 25.0113 9.80315H24.8733C24.6494 8.92047 24.1324 8.14902 23.4299 7.60349C24.3559 7.19287 25.152 6.54124 25.7381 5.72826C25.7759 5.86524 25.7954 6.00806 25.7954 6.1526ZM7.99724 14.4006C7.33634 14.4006 6.79836 13.8623 6.79836 13.2007V12.3214C6.79836 11.6598 7.33634 11.1215 7.99724 11.1215H8.01131L8.02127 14.4006H7.99724ZM7.21309 9.92812V6.1526C7.21309 5.32314 7.87467 4.61967 8.71925 4.55066C9.0509 4.52354 9.31045 4.25334 9.32418 3.92066C9.38358 2.48454 10.5571 1.35913 11.9956 1.35913H25.4851V2.42721C25.4851 4.82017 23.5381 6.76681 21.1455 6.76681H12.0337C11.2313 6.76681 10.5735 7.39886 10.5323 8.19125C10.3239 9.11376 9.5312 9.80281 8.66809 9.80281C8.66809 9.80315 7.45994 9.8471 7.21309 9.92812ZM11.7834 20.6655C10.5454 19.4464 9.39353 18.0474 9.34478 16.0815L9.32933 11.045C10.5478 10.7614 11.562 9.71664 11.8356 8.39999C11.8881 8.14868 11.9317 8.08517 12.0337 8.08517H21.1451H21.1801C22.5792 8.19434 23.6734 9.3716 23.6775 10.7799L23.694 16.0321C23.6589 18.0003 22.5164 19.4073 21.2869 20.6346C20.0115 21.908 18.5544 23.0904 16.5436 23.1244C14.5344 23.1042 13.0685 21.931 11.7834 20.6655ZM12.0979 30.3012C12.0793 30.3122 12.0553 30.3074 12.043 30.2899L9.57309 26.8357L11.4686 25.4391C11.6708 25.2901 11.9448 25.3011 12.1343 25.4659L15.3924 28.2993L12.0979 30.3012ZM14.3576 43.7224L15.6739 33.0241H17.3346L18.6509 43.7224H14.3576Z" fill="#613654"/>
</svg>
