<svg width="46" height="46" viewBox="0 0 46 46" fill="none" xmlns="http://www.w3.org/2000/svg">
<path d="M12.8477 4.16219L9.74364 3.71118L8.35547 0.898438L6.96729 3.71118L3.86328 4.16219L6.10938 6.35159L5.57912 9.44303L8.35547 7.98352L11.1318 9.44303L10.6016 6.35159L12.8477 4.16219Z" fill="white"/>
<path d="M34.544 30.4737L29.5586 29.9197V27.258C31.5199 25.8599 32.8684 23.6554 33.1122 21.1315L35.5468 17.4775V10.7805L35.5466 10.757C35.443 4.82551 30.5331 0 24.6016 0C21.718 0 19.0249 1.1243 17.0191 3.16537C15.0157 5.20411 13.9386 7.912 13.9858 10.7918V17.4339L16.1186 21.0902C16.3516 23.6312 17.7039 25.8524 19.6758 27.2581V29.9197L14.6903 30.4737C10.3618 30.9546 7.09766 34.6014 7.09766 38.9566V46H13.3867V41.5078H16.082V46H33.1523V41.5078H35.8477V46H42.1367V38.9566C42.1367 34.6014 38.8726 30.9545 34.544 30.4737ZM26.8633 31.1258C26.8633 32.3643 25.8557 33.3719 24.6172 33.3719C23.3787 33.3719 22.3711 32.3643 22.3711 31.1258V28.5376C23.0872 28.7333 23.8399 28.8398 24.6172 28.8398C25.3945 28.8398 26.1471 28.7333 26.8633 28.5377V31.1258ZM24.6172 26.1445C21.3971 26.1445 18.7773 23.5248 18.7773 20.3047V14.3294C20.4202 13.9946 21.8478 13.06 22.8203 11.7652C24.0507 13.4034 26.0091 14.4648 28.2109 14.4648H30.457V20.3047C30.457 23.5248 27.8373 26.1445 24.6172 26.1445Z" fill="white"/>
</svg>
