<svg width="47" height="46" viewBox="0 0 47 46" fill="none" xmlns="http://www.w3.org/2000/svg">
<path d="M11.5643 5.90055C12.2938 5.18947 11.8912 3.95057 10.8831 3.80409C10.4828 3.74592 10.1367 3.49448 9.95767 3.13172C9.50681 2.21819 8.20413 2.21819 7.75327 3.13172C7.57424 3.49448 7.22816 3.74592 6.82783 3.80409C5.8197 3.95057 5.41716 5.18947 6.14665 5.90055C6.43634 6.18292 6.56852 6.58976 6.50013 6.98848C6.32791 7.99253 7.38181 8.75821 8.28352 8.28419C8.64158 8.09596 9.06936 8.09596 9.42742 8.28419C10.3291 8.75821 11.383 7.99253 11.2108 6.98848C11.1424 6.58976 11.2746 6.18292 11.5643 5.90055Z" fill="url(#paint0_linear)"/>
<path d="M35.044 30.4737L31.7375 30.1062C30.7817 30 30.0586 29.1921 30.0586 28.2304C30.0586 27.6202 30.3631 27.0579 30.8169 26.65C31.8871 25.688 32.7138 24.4604 33.1913 23.0718C33.6162 21.8365 33.9912 20.5627 34.7155 19.4756C35.5836 18.1727 36.0468 16.6421 36.0468 15.0765V10.7805L36.0466 10.757C35.943 4.82551 31.0331 0 25.1016 0C22.218 0 19.5249 1.1243 17.5191 3.16537C15.5157 5.20411 14.4386 7.912 14.4858 10.7918V15.109C14.4858 16.6316 14.8901 18.1269 15.6573 19.4421C16.2905 20.5276 16.6128 21.7606 17.004 22.9548C17.4747 24.3915 18.3175 25.6612 19.4175 26.6501C19.8712 27.058 20.1758 27.6203 20.1758 28.2305C20.1758 29.1921 19.4527 30 18.4969 30.1062L15.1903 30.4737C10.8618 30.9546 7.59766 34.6014 7.59766 38.9566V42.8555C7.59766 44.5921 9.00551 46 10.7422 46H11.6406C12.8811 46 13.8867 44.9944 13.8867 43.7539V42.8555C13.8867 42.1112 14.4901 41.5078 15.2344 41.5078C15.9787 41.5078 16.582 42.1112 16.582 42.8555V43.7539C16.582 44.9944 17.5876 46 18.8281 46H31.4062C32.6467 46 33.6523 44.9944 33.6523 43.7539V42.8555C33.6523 42.1112 34.2557 41.5078 35 41.5078C35.7443 41.5078 36.3477 42.1112 36.3477 42.8555V43.7539C36.3477 44.9944 37.3533 46 38.5938 46H39.4922C41.2289 46 42.6367 44.5921 42.6367 42.8555V38.9566C42.6367 34.6014 39.3726 30.9545 35.044 30.4737ZM27.3633 31.1258C27.3633 32.3643 26.3557 33.3719 25.1172 33.3719C23.8787 33.3719 22.8711 32.3643 22.8711 31.1258V30.8107C22.8711 29.6661 23.9726 28.8398 25.1172 28.8398C26.2618 28.8398 27.3633 29.6662 27.3633 30.8108V31.1258ZM25.1172 26.1445C21.8971 26.1445 19.2773 23.5248 19.2773 20.3047V16.1901C19.2773 15.1073 20.0854 14.2028 21.0447 13.7006C22.3891 12.9968 24.2682 13.011 25.6148 13.7105C26.5424 14.1924 27.5954 14.4648 28.7109 14.4648C29.9514 14.4648 30.957 15.4705 30.957 16.7109V20.3047C30.957 23.5248 28.3373 26.1445 25.1172 26.1445Z" fill="url(#paint1_linear)"/>
<defs>
<linearGradient id="paint0_linear" x1="12.728" y1="-0.134862" x2="4.08979" y2="10.7765" gradientUnits="userSpaceOnUse">
<stop stop-color="#EF4021"/>
<stop offset="0.526042" stop-color="#7CA843"/>
<stop offset="1" stop-color="#1D9AD4"/>
</linearGradient>
<linearGradient id="paint1_linear" x1="40.2202" y1="-5.56279" x2="-7.37102" y2="37.986" gradientUnits="userSpaceOnUse">
<stop stop-color="#EF4021"/>
<stop offset="0.526042" stop-color="#7CA843"/>
<stop offset="1" stop-color="#1D9AD4"/>
</linearGradient>
</defs>
</svg>
