<svg width="62" height="62" viewBox="0 0 62 62" fill="none" xmlns="http://www.w3.org/2000/svg">
<path d="M17.3164 5.60991L13.1327 5.00202L11.2617 1.21094L9.3907 5.00202L5.20703 5.60991L8.23438 8.56084L7.51968 12.7276L11.2617 10.7604L15.0038 12.7276L14.2891 8.56084L17.3164 5.60991Z" fill="white"/>
<path d="M46.5593 41.0732L39.8398 40.3265V36.739C42.4833 34.8547 44.3009 31.8834 44.6295 28.4816L47.9109 23.5566V14.5303L47.9106 14.4986C47.771 6.50395 41.1533 0 33.1586 0C29.2721 0 25.6422 1.51537 22.9388 4.26637C20.2385 7.01423 18.7868 10.664 18.8504 14.5454V23.4979L21.7251 28.4259C22.0391 31.8508 23.8618 34.8446 26.5195 36.7391V40.3265L19.7999 41.0732C13.9659 41.7214 9.56641 46.6367 9.56641 52.5067V62H18.043V55.9453H21.6758V62H44.6836V55.9453H48.3164V62H56.793V52.5067C56.793 46.6367 52.3935 41.7213 46.5593 41.0732ZM36.207 41.9522C36.207 43.6215 34.849 44.9795 33.1797 44.9795C31.5104 44.9795 30.1523 43.6215 30.1523 41.9522V38.4637C31.1176 38.7275 32.132 38.8711 33.1797 38.8711C34.2274 38.8711 35.2418 38.7275 36.207 38.4639V41.9522ZM33.1797 35.2383C28.8396 35.2383 25.3086 31.7073 25.3086 27.3672V19.3136C27.5229 18.8623 29.4471 17.6027 30.7578 15.8575C32.4162 18.0655 35.0558 19.4961 38.0234 19.4961H41.0508V27.3672C41.0508 31.7073 37.5198 35.2383 33.1797 35.2383Z" fill="white"/>
</svg>
