<svg width="46" height="46" viewBox="0 0 46 46" fill="none" xmlns="http://www.w3.org/2000/svg">
<g clip-path="url(#clip0)">
<path d="M28.1311 27.9233C28.2711 27.9889 28.4193 28.0212 28.566 28.0212C28.7981 28.0212 29.0269 27.9406 29.215 27.784L30.1302 27.0225L31.0455 27.784C31.3526 28.0394 31.7679 28.0927 32.1294 27.9232C32.491 27.7536 32.7155 27.4002 32.7155 27.0009V22.6931C33.5005 21.9853 33.9948 20.9612 33.9948 19.8236C33.9948 17.6926 32.2612 15.959 30.1302 15.959C27.9992 15.959 26.2656 17.6926 26.2656 19.8236C26.2656 20.9612 26.7599 21.9854 27.5449 22.6931V27.0009C27.545 27.4003 27.7695 27.7537 28.1311 27.9233ZM31.3986 26.3646L30.7817 25.8514C30.4042 25.5373 29.8563 25.5374 29.4787 25.8514L28.8619 26.3646V23.4732C29.2594 23.6118 29.6859 23.6881 30.1302 23.6881C30.5745 23.6881 31.0009 23.6118 31.3986 23.4732V26.3646ZM30.1302 17.2761C31.535 17.2761 32.6778 18.4189 32.6778 19.8237C32.6778 21.2284 31.535 22.3712 30.1302 22.3712C28.7254 22.3712 27.5826 21.2284 27.5826 19.8237C27.5827 18.4189 28.7255 17.2761 30.1302 17.2761Z" fill="#613654"/>
<path d="M37.9097 0.0407715H7.17469C5.84743 0.0407715 4.76758 1.12062 4.76758 2.44797V42.6337C4.76758 43.961 5.84743 45.0409 7.17469 45.0409H37.9097C39.2371 45.0409 40.3169 43.961 40.3169 42.6337V2.44797C40.3168 1.12062 39.2371 0.0407715 37.9097 0.0407715V0.0407715ZM38.9998 42.6337C38.9998 43.2348 38.5108 43.7239 37.9096 43.7239H7.17469C6.57362 43.7239 6.08457 43.2348 6.08457 42.6337V2.44797C6.08457 1.84681 6.57362 1.35776 7.17469 1.35776H37.9097C38.5109 1.35776 38.9999 1.84681 38.9999 2.44797V42.6337H38.9998Z" fill="#613654"/>
<path d="M35.9584 3.28735H9.12364C8.54285 3.28735 8.07031 3.7598 8.07031 4.3406V29.1767C8.07031 29.5404 8.36514 29.8352 8.72881 29.8352C9.09247 29.8352 9.38731 29.5404 9.38731 29.1767V4.60435H35.6947V40.4771H9.38731V32.2773C9.38731 31.9136 9.09247 31.6188 8.72881 31.6188C8.36514 31.6188 8.07031 31.9136 8.07031 32.2773V40.7408C8.07031 41.3216 8.54285 41.7941 9.12364 41.7941H35.9584C36.5392 41.7941 37.0118 41.3216 37.0118 40.7408V4.3406C37.0118 3.7598 36.5392 3.28735 35.9584 3.28735Z" fill="#613654"/>
<path d="M33.9954 8.67122C33.9954 7.92431 33.3878 7.31665 32.6409 7.31665H12.4444C11.6975 7.31665 11.0898 7.92431 11.0898 8.67122V11.1821C11.0898 11.929 11.6975 12.5367 12.4444 12.5367H26.5724C26.9361 12.5367 27.2309 12.2419 27.2309 11.8782C27.2309 11.5145 26.9361 11.2197 26.5724 11.2197H12.4444C12.4237 11.2197 12.4068 11.2028 12.4068 11.1821V8.67122C12.4068 8.6505 12.4237 8.63364 12.4444 8.63364H32.6409C32.6616 8.63364 32.6784 8.6505 32.6784 8.67122V11.1821C32.6784 11.2028 32.6616 11.2197 32.6409 11.2197H29.5944C29.2307 11.2197 28.9359 11.5145 28.9359 11.8782C28.9359 12.2419 29.2307 12.5367 29.5944 12.5367H32.6409C33.3878 12.5367 33.9954 11.929 33.9954 11.1821V8.67122Z" fill="#613654"/>
<path d="M15.0252 35.0078C14.4886 36.2015 14.8479 36.7834 15.2438 37.0615C16.1711 37.7125 17.3181 36.6845 17.8694 36.1902L17.8753 36.185C18.0529 36.5899 18.3517 36.9117 18.7368 37.1069C19.6976 37.5938 20.5016 37.1109 21.0842 36.4982C21.2216 36.7499 21.3949 36.97 21.6008 37.1509C22.1201 37.607 22.8672 37.7653 23.6543 37.7653C24.3605 37.7653 25.099 37.6378 25.7334 37.4837C26.0868 37.3978 26.3037 37.0418 26.2179 36.6884C26.132 36.335 25.776 36.1179 25.4226 36.2039C24.0191 36.5448 22.8877 36.5284 22.4699 36.1614C22.1078 35.8433 22.0371 35.2905 22.0272 34.9892C22.0176 34.6998 21.8201 34.4505 21.5404 34.3751C21.2608 34.2997 20.9646 34.4159 20.8109 34.6615C20.1469 35.722 19.6909 36.1141 19.3321 35.9322C19.1923 35.8613 19.0958 35.7341 19.045 35.554C18.9677 35.2795 19.0166 34.932 19.1664 34.6891C19.3575 34.3797 19.2615 33.974 18.9521 33.7829C18.6427 33.5919 18.2369 33.6879 18.0459 33.9972C17.7605 34.4594 17.3938 34.8495 16.9904 35.2096C16.5285 35.6237 16.2531 35.8089 16.0924 35.8901C16.1579 35.6428 16.3798 35.1633 17.0106 34.2363C17.6682 33.2706 18.3372 32.3041 19.0379 31.3609L19.0512 31.3429C19.2577 31.0651 19.214 30.675 18.9511 30.4498C18.6883 30.2248 18.296 30.2415 18.0533 30.4883C16.5547 32.0122 14.1258 32.7326 11.8656 32.3241C11.5078 32.2593 11.1652 32.497 11.1005 32.8549C11.0358 33.2128 11.2734 33.5554 11.6313 33.6201C13.1477 33.8943 14.6957 33.7521 16.0848 33.2509C16.0768 33.2634 15.979 33.4114 15.9216 33.4957C15.6828 33.8463 15.2834 34.4333 15.0252 35.0078Z" fill="#613654"/>
<path d="M20.5218 15.959C20.1581 15.959 19.8633 16.2538 19.8633 16.6175C19.8633 16.9811 20.1581 17.276 20.5218 17.276H22.543C22.9067 17.276 23.2015 16.9811 23.2015 16.6175C23.2015 16.2538 22.9067 15.959 22.543 15.959H20.5218Z" fill="#613654"/>
<path d="M11.7483 17.276H17.2442C17.6078 17.276 17.9027 16.9811 17.9027 16.6175C17.9027 16.2538 17.6078 15.959 17.2442 15.959H11.7483C11.3847 15.959 11.0898 16.2538 11.0898 16.6175C11.0898 16.9811 11.3847 17.276 11.7483 17.276Z" fill="#613654"/>
<path d="M11.7483 20.3177H22.5426C22.9063 20.3177 23.2011 20.0229 23.2011 19.6592C23.2011 19.2956 22.9063 19.0007 22.5426 19.0007H11.7483C11.3847 19.0007 11.0898 19.2956 11.0898 19.6592C11.0898 20.0229 11.3847 20.3177 11.7483 20.3177Z" fill="#613654"/>
<path d="M23.2015 22.701C23.2015 22.3373 22.9066 22.0425 22.543 22.0425H17.2444C16.8808 22.0425 16.5859 22.3373 16.5859 22.701C16.5859 23.0646 16.8808 23.3595 17.2444 23.3595H22.543C22.9066 23.3595 23.2015 23.0646 23.2015 22.701Z" fill="#613654"/>
<path d="M11.7483 23.3595H14.0463C14.41 23.3595 14.7048 23.0646 14.7048 22.701C14.7048 22.3373 14.41 22.0425 14.0463 22.0425H11.7483C11.3847 22.0425 11.0898 22.3373 11.0898 22.701C11.0898 23.0646 11.3847 23.3595 11.7483 23.3595Z" fill="#613654"/>
<path d="M11.7483 26.4012H19.9713C20.335 26.4012 20.6298 26.1064 20.6298 25.7427C20.6298 25.3791 20.335 25.0842 19.9713 25.0842H11.7483C11.3847 25.0842 11.0898 25.3791 11.0898 25.7427C11.0898 26.1064 11.3847 26.4012 11.7483 26.4012Z" fill="#613654"/>
</g>
<defs>
<clipPath id="clip0">
<rect width="45" height="45" fill="white" transform="translate(0.0410156 0.0407715)"/>
</clipPath>
</defs>
</svg>
