<svg width="58" height="29" viewBox="0 0 58 29" fill="none" xmlns="http://www.w3.org/2000/svg">
<path d="M1.22916 0.0444594C9.23087 0.0319128 17.2346 0.0362738 25.2384 0.0422813C25.2401 0.986566 25.2422 1.93261 25.2342 2.87694C21.608 2.88726 17.9835 2.86833 14.3594 2.88513C14.3616 5.31883 14.3573 7.75158 14.3616 10.1848C18.3966 10.1951 22.4321 10.1766 26.4672 10.1934C26.4634 11.1166 26.4651 12.0402 26.4651 12.9656C22.5089 12.9781 18.5507 12.9591 14.5941 12.9738C16.2363 18.932 20.6929 24.0857 26.445 26.0967C26.4428 27.0617 26.4491 28.0267 26.4391 28.9917C20.4986 27.5856 15.5257 22.9835 12.993 17.3577C12.4301 18.1546 12.1119 19.1006 11.5674 19.9116C8.95753 24.2123 4.91623 27.877 0.00627392 28.9874C-0.00169679 28.037 -0.00169671 27.0845 0.00415192 26.1342C3.58372 24.8717 6.72423 22.3514 8.76732 19.0777C9.9516 17.2163 10.808 15.1388 11.2979 12.9737C7.53186 12.9574 3.76803 12.9802 0.00202993 12.9634C0.000373682 12.0402 0.0020299 11.1188 0.000373653 10.1951C3.85747 10.1809 7.71617 10.1848 11.5754 10.1934C11.6706 7.76232 11.5876 5.32697 11.6199 2.89374C8.15363 2.82692 4.68115 2.95796 1.21906 2.82516C1.23123 1.89943 1.22326 0.971891 1.22916 0.0444594ZM30.5086 0.0254812C30.5165 0.968064 30.5128 1.9098 30.5165 2.85196C31.537 2.92048 32.5941 3.07657 33.4689 3.66519C34.5356 4.33095 35.1796 5.55988 35.2929 6.81979C33.6994 7.79555 32.1042 8.76875 30.5165 9.75233C30.5148 10.7298 30.5106 11.7095 30.5186 12.687C32.1163 11.6884 33.7237 10.7092 35.3475 9.75451C35.358 11.3456 35.3538 12.9384 35.3496 14.5295C33.738 15.5152 32.1323 16.5074 30.5186 17.4888C30.5106 18.4724 30.5106 19.4564 30.5227 20.4421C32.1062 19.4085 33.7401 18.4642 35.3596 17.491C35.394 19.4336 35.4406 21.5028 34.4911 23.256C33.7094 24.7993 32.183 25.8552 30.5206 26.1217C30.5085 27.0807 30.5148 28.0414 30.5148 29C32.0432 28.9439 33.5902 28.5028 34.8252 27.5504C36.2043 26.5043 37.1232 24.9136 37.5749 23.2311C38.0447 21.6214 38.1093 19.9264 38.0892 18.2564C38.0871 14.6461 38.0913 11.0378 38.0871 7.42958C38.0749 5.28529 37.3482 3.01033 35.6657 1.64164C34.2036 0.491617 32.3288 0.0155397 30.5086 0.0254812ZM42.7036 0.00692892C42.7057 1.05515 42.7073 2.10507 42.7015 3.15377C41.7578 3.15552 40.8145 3.15164 39.8708 3.15764C39.8687 4.09162 39.875 5.02558 39.8649 5.95913C40.8124 6.02122 41.762 5.98411 42.7094 5.99879C42.7056 6.86375 42.7073 7.72702 42.7035 8.59198C43.5864 8.60448 44.4709 8.598 45.3537 8.598C45.3558 7.73303 45.3579 6.86806 45.3537 6.00267C47.7406 5.98587 50.128 5.988 52.515 6.00049C52.515 6.86806 52.5133 7.73515 52.5212 8.60017C53.4041 8.59629 54.289 8.60235 55.1735 8.59198C55.1735 7.72702 55.1777 6.86157 55.1714 5.99879C56.113 5.98411 57.0567 6.01516 58 5.96343C58 5.02946 58 4.0938 57.9979 3.15983C57.0588 3.15164 56.1193 3.15377 55.1798 3.15377C55.1714 2.10512 55.1777 1.05733 55.1714 0.00692892C54.2869 -0.00338474 53.4019 0.000869213 52.5171 0.000869213C52.5133 1.05084 52.5192 2.10123 52.5133 3.15163C50.128 3.15376 47.7427 3.15765 45.3579 3.14946C45.3537 2.10124 45.3537 1.05084 45.3558 0.000869213C44.4709 0.000869213 43.5881 -0.00338474 42.7036 0.00692892ZM39.875 10.6798C39.8687 15.1431 39.8687 19.6059 39.875 24.067C39.8772 25.4042 40.2071 26.8392 41.1831 27.7895C42.0898 28.6778 43.3959 28.9335 44.6086 28.9416C49.0652 28.9395 53.5217 28.9477 57.9778 28.9373C57.9841 24.5391 57.9779 20.1423 57.98 15.7441C57.9636 14.444 57.8381 13.0215 56.9615 12.0026C56.0506 10.9587 54.6048 10.6944 53.3052 10.6797C48.8284 10.6781 44.3517 10.6759 39.875 10.6798ZM42.5009 13.3877C44.2178 13.3834 45.9369 13.3855 47.6538 13.3877C47.6336 15.0953 47.7067 16.8067 47.6135 18.5142C45.9125 18.4956 44.2119 18.5142 42.513 18.5017C42.5092 16.7985 42.4907 15.0931 42.5009 13.3877ZM50.1848 13.3899C51.2901 13.3795 52.3958 13.3816 53.4995 13.4481C54.1409 13.4769 54.8478 13.7956 55.0321 14.4838C55.4834 15.7688 55.2387 17.1706 55.2949 18.506C53.5922 18.506 51.8895 18.5081 50.1869 18.5038C50.1805 16.7985 50.1827 15.0931 50.1848 13.3899ZM42.513 21.0806C44.2283 21.0763 45.941 21.0742 47.6559 21.0806C47.658 22.8356 47.6559 24.5888 47.6559 26.3442C46.449 26.3256 45.214 26.4584 44.0319 26.1467C43.4202 25.9928 42.9203 25.4939 42.7439 24.8739C42.3753 23.6471 42.5496 22.3427 42.513 21.0806ZM50.1848 21.0785C51.8875 21.072 53.5922 21.0806 55.2949 21.0742C55.3092 22.8339 55.2949 24.591 55.3012 26.3507C53.5943 26.3485 51.8875 26.361 50.1805 26.342C50.1868 24.5888 50.1785 22.8338 50.1848 21.0785Z" fill="url(#paint0_linear)"/>
<defs>
<linearGradient id="paint0_linear" x1="8.30811" y1="5.47289" x2="7.91604" y2="25.5171" gradientUnits="userSpaceOnUse">
<stop stop-color="#FE7500"/>
<stop offset="1" stop-color="#FE7500"/>
</linearGradient>
</defs>
</svg>
