<svg width="50" height="39" viewBox="0 0 50 39" fill="none" xmlns="http://www.w3.org/2000/svg">
<path fill-rule="evenodd" clip-rule="evenodd" d="M17.7272 0.25C14.2167 9.87801 10.6567 12.1844 10.6567 12.1844L10.6568 12.1844C10.6568 12.1844 13.716 13.6386 14.9696 14.3405C16.7243 12.4854 18.1286 10.6803 18.1286 10.6803C18.1286 10.6803 20.1345 9.77767 21.2877 9.32638C19.3171 13.6891 16.4238 16.6974 16.4238 16.6974L18.9309 18.9039C20.2848 17.5501 22.6915 15.293 22.6915 15.293H24.8981V19.1041H16.2231V22.1129L24.948 22.1628C24.948 22.1628 24.9979 26.4756 24.9979 29.6342C20.901 29.681 20.9974 27.6528 21.0321 26.9207C21.0348 26.8643 21.0371 26.8156 21.0371 26.7761C21.0371 26.225 21.3376 24.0684 21.3376 24.0684L15.2202 24.0184C15.2202 24.0184 14.8692 25.2221 14.8692 26.6758C14.8692 30.9886 16.9749 32.4927 18.4297 33.1442C19.8839 33.7957 22.2907 33.6964 22.2907 33.6964C23.1433 33.7463 26.3089 33.8087 31.2661 32.3425C34.8266 31.2891 36.2803 29.6341 36.2803 29.6341L37.1829 32.8936L42.0473 30.9886L38.7879 22.9152C38.7879 22.9152 36.1805 23.8178 34.8765 24.1183C35.2859 25.429 35.3276 25.7696 35.411 26.4519C35.4297 26.6048 35.4505 26.7749 35.478 26.9768C33.4223 28.5813 32.0185 28.5813 32.0185 28.5813V22.2133H40.4928V19.2044H32.0185V15.1932H40.5926V12.1844C40.5926 12.1844 27.2549 12.1345 25.249 12.1844C26.7033 10.5799 27.5055 8.92498 27.5055 8.92498C27.5055 8.92498 25.7502 8.47369 24.8476 8.17266C27.2045 7.22016 31.9181 6.06696 32.6699 5.9167C33.4223 5.7659 35.8794 5.36505 38.9881 5.9666C41.7687 6.5046 42.263 8.52681 42.4799 9.41452C42.5056 9.51939 42.5273 9.60843 42.5485 9.67732C42.7492 10.3293 42.6988 29.5843 42.6489 30.5872C42.599 31.5901 41.7962 32.7938 41.7962 32.7938C40.8936 33.8466 39.1888 34.6988 37.1829 34.6988C35.1775 34.6988 32.62 33.7457 32.62 33.7457L31.7673 37.2563C31.7673 37.2563 33.9739 38.0585 38.1359 38.0585C42.2979 38.0585 44.6547 37.1559 46.6102 35.3009C48.5656 33.4458 48.8667 31.339 48.8667 31.339C50.2705 22.2637 49.5187 12.2343 48.8168 9.22602C48.1149 6.21775 45.3062 4.36212 42.5485 3.45951C39.7903 2.55692 36.2298 2.70718 36.2298 2.70718C29.7115 2.70718 22.1393 5.01356 22.1393 5.01356L23.7942 1.95485C23.7942 1.95485 18.7296 0.600948 17.7272 0.25ZM13.1158 4.76319C13.1158 6.9508 11.1402 8.72451 8.70314 8.72451C6.26658 8.72451 4.29053 6.9508 4.29053 4.76319C4.29053 2.5756 6.26658 0.80188 8.70314 0.80188C11.1402 0.80188 13.1158 2.57561 13.1158 4.76319ZM2.28201 14.6918L4.98979 10.4799C4.98979 10.4799 8.80031 13.4378 9.95405 14.4412L10.0515 14.5259C11.2191 15.5391 13.1622 17.2251 13.1131 19.9067C13.0627 22.6644 12.2604 25.0716 11.6084 26.7266C10.957 28.381 6.69462 37.1059 6.69462 37.1059L0.175781 33.0442C0.175781 33.0442 6.44511 27.2451 8.85076 23.7178C9.6031 22.6145 10.5051 19.7065 7.94816 18.2019C5.39064 16.6977 2.28201 14.6918 2.28201 14.6918Z" fill="white"/>
</svg>
