<svg width="48" height="38" viewBox="0 0 48 38" fill="none" xmlns="http://www.w3.org/2000/svg">
<path fill-rule="evenodd" clip-rule="evenodd" d="M18.6983 0.773946C17.2242 0.364646 15.6367 1.16059 15.0424 2.5703C11.8898 10.0483 8.97958 11.9341 8.97917 11.9344C8.97916 11.9344 8.97919 11.9344 8.9792 11.9344C8.9792 11.9344 8.9792 11.9344 8.9792 11.9344C8.97921 11.9344 9.41255 12.1404 10.0199 12.4348C11.9604 13.3752 14.343 13.0014 15.7169 11.3393C15.9459 11.0622 16.1292 10.8352 16.2554 10.6774C16.3849 10.5155 16.3104 10.4933 16.4996 10.4085C17.5398 9.94215 18.7445 10.8612 18.1581 11.8388C17.3434 13.197 16.5218 14.3162 15.8891 15.1114C15.2919 15.8619 15.3473 16.9764 16.0673 17.6101C16.7342 18.1971 17.7428 18.1656 18.3815 17.5481C19.1914 16.7652 20.0509 15.9508 20.5596 15.4707C20.8518 15.195 21.2376 15.043 21.6394 15.043C22.5126 15.043 23.2205 15.7509 23.2205 16.6242V16.9486C23.2205 18.001 22.3674 18.8541 21.315 18.8541H16.0543C15.221 18.8541 14.5455 19.5296 14.5455 20.3628C14.5455 21.1927 15.2158 21.8668 16.0456 21.8715L19.5457 21.8915C21.6131 21.9033 23.2777 22.3837 23.2953 24.4511C23.3129 26.5272 21.187 29.9319 19.8258 28.3643C19.3027 27.7619 19.3367 27.046 19.3546 26.6707C19.3572 26.6143 19.3596 26.5656 19.3596 26.5261C19.3596 25.0819 18.379 23.8079 16.9348 23.7961L15.9833 23.7884C14.5394 23.7766 13.2334 24.7354 13.195 26.1788C13.1928 26.2602 13.1917 26.3426 13.1917 26.4258C13.1917 30.7386 15.2973 32.2427 16.7521 32.8942C17.7964 33.362 19.3318 33.4427 20.1145 33.451C20.4468 33.4545 20.7776 33.4588 21.1099 33.4639C22.3935 33.4835 25.3299 33.3521 29.5886 32.0925C31.0337 31.6649 32.1318 31.1383 32.9264 30.6634C33.7064 30.1973 34.9246 30.5466 35.1671 31.4223C35.348 32.0754 36.0542 32.4286 36.6853 32.1815L38.0504 31.6469C39.3274 31.1468 39.9507 29.7005 39.4373 28.4288L37.8281 24.4429C37.426 23.4469 36.8178 22.7723 35.7964 23.1045C34.6798 23.4677 33.5577 24.8163 33.7061 25.9811C33.7151 26.0516 33.724 26.1245 33.7335 26.2019C33.7733 26.5271 33.6428 26.8539 33.3753 27.0431C33.1152 27.227 32.8676 27.3846 32.6342 27.5198C31.4613 28.1986 30.3409 27.2328 30.3409 25.8777V25.1473C30.3409 23.3888 31.7664 21.9633 33.5249 21.9633H37.3108C38.1416 21.9633 38.8152 21.2897 38.8152 20.4589C38.8152 19.628 38.1416 18.9544 37.3108 18.9544H32.3465C31.2388 18.9544 30.3409 18.0565 30.3409 16.9488C30.3409 15.8412 31.2388 14.9432 32.3465 14.9432H37.4078C38.2402 14.9432 38.915 14.2684 38.915 13.436C38.915 12.6058 38.2493 11.932 37.4191 11.9293C34.8348 11.9211 29.4932 11.9065 26.1776 11.9146C25.1949 11.917 24.6184 10.6869 25.1471 9.85848C25.2466 9.70241 25.3357 9.55703 25.414 9.42535C25.6406 9.04411 25.8268 8.67604 25.3981 8.56242C24.7675 8.39527 24.344 7.48716 24.9655 7.28883C27.38 6.51836 30.4031 5.78447 30.9924 5.6667C31.7447 5.5159 34.2019 5.11505 37.3105 5.7166C40.0912 6.2546 40.5854 8.27681 40.8024 9.16452C40.828 9.26939 40.8498 9.35843 40.871 9.42732C41.0717 10.0793 41.0212 29.3343 40.9713 30.3372C40.9421 30.9242 40.655 31.5799 40.4219 32.0229C40.2347 32.3785 39.996 32.7062 39.6944 32.9718C38.7335 33.8182 37.2308 34.4488 35.5053 34.4488C34.6463 34.4488 33.686 34.2739 32.8688 34.074C31.8286 33.8195 30.7202 34.4109 30.4674 35.4514C30.2524 36.3366 30.745 37.2223 31.6396 37.3935C32.7117 37.5986 34.3291 37.8085 36.4584 37.8085C40.6203 37.8085 42.9772 36.9059 44.9326 35.0509C46.6999 33.3743 47.1158 31.4921 47.1795 31.1454C47.1865 31.1076 47.192 31.0701 47.1979 31.0321C48.5897 21.9719 47.8396 11.978 47.1392 8.97602C46.4373 5.96775 43.6286 4.11212 40.8709 3.20951C38.4126 2.40504 35.3169 2.43695 34.6729 2.4534C34.591 2.45549 34.5117 2.45709 34.4298 2.45745C30.1165 2.47639 25.3671 3.48867 22.6662 4.16563C21.8519 4.36974 21.1507 3.49009 21.5503 2.75171C21.8391 2.2178 21.5547 1.55429 20.9687 1.39564C20.3283 1.22224 19.5 0.996544 18.6983 0.773946ZM11.4372 4.51319C11.4372 6.7008 9.46171 8.47451 7.0246 8.47451C4.58803 8.47451 2.61198 6.7008 2.61198 4.51319C2.61198 2.3256 4.58803 0.55188 7.0246 0.55188C9.46171 0.55188 11.4372 2.32561 11.4372 4.51319ZM2.6221 15.7228C1.50335 15.0207 1.18332 13.5422 1.89759 12.4312C2.65799 11.2484 4.26905 10.9723 5.37317 11.843C6.46731 12.7058 7.70202 13.6912 8.27697 14.1913L8.37446 14.276C9.54207 15.2892 11.4851 16.9752 11.436 19.6568C11.3856 22.4144 10.5834 24.8217 9.93136 26.4766C9.5399 27.4708 7.84462 31.0179 6.5538 33.6909C5.73517 35.3861 3.62807 35.9902 2.03033 34.9947C0.252351 33.8869 0.0076105 31.3845 1.48821 29.9026C3.44566 27.9433 5.87375 25.3739 7.17368 23.4678C7.92602 22.3645 8.82807 19.4566 6.27109 17.9519C5.04728 17.2322 3.6973 16.3975 2.6221 15.7228Z" fill="url(#paint0_linear)"/>
<defs>
<linearGradient id="paint0_linear" x1="7.31803" y1="7.58296" x2="6.52767" y2="33.3196" gradientUnits="userSpaceOnUse">
<stop stop-color="#FE7500"/>
<stop offset="1" stop-color="#EA500F"/>
</linearGradient>
</defs>
</svg>
