<svg width="67" height="51" viewBox="0 0 67 51" fill="none" xmlns="http://www.w3.org/2000/svg">
<path fill-rule="evenodd" clip-rule="evenodd" d="M23.6357 0C18.955 12.8374 14.2084 15.9125 14.2084 15.9125L14.2084 15.9125C14.2084 15.9125 18.2875 17.8515 19.9589 18.7874C22.2985 16.3139 24.1709 13.907 24.1709 13.907C24.1709 13.907 26.8455 12.7036 28.383 12.1018C25.7555 17.9188 21.8978 21.9298 21.8978 21.9298L25.2406 24.8719C27.0458 23.0667 30.2548 20.0574 30.2548 20.0574H33.1969V25.1388H21.6302V29.1506L33.2634 29.2171C33.2634 29.2171 33.33 34.9675 33.33 39.1789C27.8675 39.2413 27.9959 36.537 28.0423 35.561C28.0458 35.4858 28.0489 35.4208 28.0489 35.3682C28.0489 34.6334 28.4496 31.7578 28.4496 31.7578L20.293 31.6913C20.293 31.6913 19.8251 33.2961 19.8251 35.2344C19.8251 40.9848 22.6326 42.9903 24.5723 43.8589C26.5113 44.7275 29.7203 44.5952 29.7203 44.5952C30.8572 44.6617 35.078 44.7449 41.6876 42.79C46.4349 41.3854 48.3732 39.1789 48.3732 39.1789L49.5766 43.5248L56.0625 40.9848L51.7166 30.2202C51.7166 30.2202 48.2401 31.4237 46.5014 31.8243C47.0474 33.572 47.1029 34.0262 47.2141 34.9359C47.2391 35.1397 47.2668 35.3665 47.3035 35.6358C44.5624 37.7751 42.6907 37.7751 42.6907 37.7751V29.2844H53.9898V25.2726H42.6907V19.9243H54.1228V15.9125C54.1228 15.9125 36.3393 15.846 33.6648 15.9125C35.6038 13.7732 36.6734 11.5666 36.6734 11.5666C36.6734 11.5666 34.3331 10.9649 33.1296 10.5635C36.272 9.29354 42.5569 7.75595 43.5593 7.55559C44.5624 7.35454 47.8387 6.82007 51.9835 7.62214C55.6911 8.33947 56.35 11.0357 56.6393 12.2194C56.6735 12.3592 56.7025 12.4779 56.7308 12.5698C56.9984 13.4391 56.9311 39.1124 56.8646 40.4496C56.798 41.7868 55.7277 43.3917 55.7277 43.3917C54.5242 44.7955 52.2511 45.9317 49.5766 45.9317C46.9028 45.9317 43.4928 44.661 43.4928 44.661L42.3559 49.3417C42.3559 49.3417 45.298 50.4114 50.8473 50.4114C56.3966 50.4114 59.5391 49.2079 62.1463 46.7345C64.7536 44.261 65.155 41.452 65.155 41.452C67.0267 29.3516 66.0243 15.9791 65.0884 11.968C64.1526 7.957 60.4077 5.48282 56.7308 4.27935C53.0532 3.0759 48.3059 3.27624 48.3059 3.27624C39.6148 3.27624 29.5185 6.35142 29.5185 6.35142L31.7251 2.27313C31.7251 2.27313 24.9723 0.46793 23.6357 0ZM17.4874 6.01757C17.4874 8.93437 14.8534 11.2993 11.6039 11.2993C8.35519 11.2993 5.72046 8.93437 5.72046 6.01757C5.72046 3.10078 8.35519 0.735814 11.6039 0.735814C14.8534 0.735814 17.4874 3.10079 17.4874 6.01757ZM3.04268 19.2557L6.65305 13.6398C6.65305 13.6398 11.7337 17.5836 13.2721 18.9216L13.4021 19.0345C14.9589 20.3854 17.5496 22.6334 17.4842 26.2088C17.4169 29.8857 16.3472 33.0954 15.4779 35.302C14.6093 37.5079 8.92617 49.1411 8.92617 49.1411L0.234375 43.7255C0.234375 43.7255 8.59348 35.9934 11.801 31.2903C12.8041 29.8192 14.0069 25.942 10.5976 23.9357C7.18752 21.9302 3.04268 19.2557 3.04268 19.2557Z" fill="url(#paint0_linear)"/>
<defs>
<linearGradient id="paint0_linear" x1="9.68501" y1="9.51364" x2="8.64402" y2="44.3392" gradientUnits="userSpaceOnUse">
<stop stop-color="#FE7500"/>
<stop offset="1" stop-color="#FE7500"/>
</linearGradient>
</defs>
</svg>
