<svg width="69" height="68" viewBox="0 0 69 68" fill="none" xmlns="http://www.w3.org/2000/svg">
<path fill-rule="evenodd" clip-rule="evenodd" d="M28.1689 0.000221336L34.7677 6.70724L41.3666 0.000221305C42.243 0.0146177 42.949 0.729575 42.949 1.60944V9.65663C42.949 10.5455 42.2285 11.2661 41.3396 11.2661H28.1959C27.307 11.2661 26.5864 10.5455 26.5864 9.65663V1.60944C26.5864 0.729576 27.2925 0.0146187 28.1689 0.000221336ZM30.0562 0L34.7677 4.78878L39.4793 0H30.0562ZM14.6474 13.0185C14.6474 12.5876 14.2467 12.2685 13.8266 12.365L6.59983 14.0252C6.29135 14.096 6.07268 14.3722 6.07503 14.6917C6.09271 17.0986 6.07881 19.324 6.06982 20.7639V20.764V20.764V20.764C6.06821 21.0218 6.06675 21.2544 6.06567 21.4584L6.06566 21.4597L6.06565 21.4612L6.06565 21.4619C6.06444 21.6886 6.06369 21.8295 6.06369 21.8627H6.06003C6.06246 21.9071 6.06369 21.9518 6.06369 21.9968C6.06369 23.3301 4.98284 24.411 3.64954 24.411C2.31623 24.411 1.23538 23.3301 1.23538 21.9968C1.23538 20.6635 2.31623 19.5827 3.64954 19.5827C4.03889 19.5827 4.40672 19.6749 4.73239 19.8386C4.74076 17.9223 4.74917 15.0418 4.73387 12.958C4.72692 12.0128 5.37539 11.1868 6.29954 10.9745L13.5263 9.31426C14.7864 9.02478 15.9886 9.98204 15.9886 11.275V19.5827C15.9886 20.916 14.9077 21.9968 13.5744 21.9968C12.2411 21.9968 11.1602 20.916 11.1602 19.5827C11.1602 18.2494 12.2411 17.1685 13.5744 17.1685C13.9598 17.1685 14.3241 17.2588 14.6474 17.4195V13.0185ZM0.0292969 36.0794C0.0292969 34.7462 1.11011 33.6653 2.44345 33.6653H13.5754C14.9087 33.6653 15.9896 34.7462 15.9896 36.0794V45.6019C15.9896 46.9352 14.9087 48.0161 13.5754 48.0161H2.44345C1.11011 48.0161 0.0292969 46.9352 0.0292969 45.6019V36.0794ZM6.82252 38.7125C6.81361 38.7073 6.80235 38.7138 6.80235 38.7241V43.0914C6.80235 43.1017 6.81361 43.1082 6.82252 43.103L10.6046 40.9193C10.6138 40.9142 10.6138 40.9013 10.6046 40.8961L6.82252 38.7125ZM11.2081 41.9647L7.42606 44.1484C6.61243 44.6181 5.59527 44.0309 5.59527 43.0914V38.7241C5.59527 37.7846 6.61243 37.1973 7.42606 37.6671L11.2081 39.8508C12.0218 40.3205 12.022 41.4949 11.2081 41.9647ZM53.0071 37.1406C53.0071 36.036 53.9026 35.1406 55.0071 35.1406H66.6991C67.8037 35.1406 68.6991 36.036 68.6991 37.1406V44.6749C68.6991 45.7794 67.8037 46.6749 66.6991 46.6749H55.0071C53.9026 46.6749 53.0071 45.7794 53.0071 44.6749V37.1406ZM60.9202 38.8961C59.8091 38.8961 58.9084 39.7968 58.9084 40.9079C58.9084 42.019 59.8091 42.9197 60.9202 42.9197C62.0312 42.9197 62.932 42.019 62.932 40.9079C62.932 39.7968 62.0312 38.8961 60.9202 38.8961ZM57.5672 40.9079C57.5672 39.0561 59.0683 37.5549 60.9202 37.5549C62.772 37.5549 64.2731 39.0561 64.2731 40.9079C64.2731 42.7597 62.772 44.2609 60.9202 44.2609C59.0683 44.2609 57.5672 42.7597 57.5672 40.9079ZM60.7856 25.2158C60.7856 25.2158 67.2233 16.8346 67.2233 13.2792C67.2233 9.72369 64.341 6.84141 60.7856 6.84141C57.2301 6.84141 54.3478 9.72369 54.3478 13.2792C54.3478 16.8346 60.7856 25.2158 60.7856 25.2158ZM60.7185 16.3639C62.3111 16.3639 63.6021 15.0729 63.6021 13.4803C63.6021 11.8878 62.3111 10.5968 60.7185 10.5968C59.126 10.5968 57.8349 11.8878 57.8349 13.4803C57.8349 15.0729 59.126 16.3639 60.7185 16.3639ZM24.1516 17.0345H22.4267C20.8712 17.0345 19.6102 18.2956 19.6102 19.8511V65.1836C19.6102 66.7391 20.8712 68.0001 22.4267 68.0001H46.9706C48.5261 68.0001 49.7871 66.7391 49.7871 65.1836V19.8511C49.7871 18.2956 48.5261 17.0345 46.9706 17.0345H44.9751L43.6637 22.2798C43.38 23.4141 42.3608 24.21 41.1914 24.21H27.9924C26.8327 24.21 25.8192 23.427 25.5266 22.3049L24.1516 17.0345ZM25.2607 17.0345H43.8691L42.6227 22.0195C42.4585 22.6763 41.8686 23.137 41.1914 23.137H27.9924C27.321 23.137 26.7342 22.6837 26.5648 22.0341L25.2607 17.0345ZM31.1445 30.983H25.3773C24.4144 30.983 23.6338 31.7636 23.6338 32.7266V38.762C23.6338 39.7249 24.4144 40.5055 25.3773 40.5055H31.1445C32.1074 40.5055 32.888 39.7249 32.888 38.762V32.7266C32.888 31.7636 32.1074 30.983 31.1445 30.983ZM25.2432 32.7266C25.2432 32.6993 25.2513 32.674 25.2652 32.6529C25.2762 32.6361 25.2909 32.622 25.3082 32.6116C25.3283 32.5995 25.3519 32.5925 25.3773 32.5925H31.1445C31.2186 32.5925 31.2786 32.6525 31.2786 32.7266V38.762C31.2786 38.836 31.2186 38.8961 31.1445 38.8961H25.3773C25.3032 38.8961 25.2432 38.836 25.2432 38.762V32.7266ZM25.3773 43.7244H31.1445C32.1074 43.7244 32.888 44.505 32.888 45.468V51.5034C32.888 52.4663 32.1074 53.2469 31.1445 53.2469H25.3773C24.4144 53.2469 23.6338 52.4663 23.6338 51.5034V45.468C23.6338 44.505 24.4144 43.7244 25.3773 43.7244ZM25.3773 45.3338C25.3032 45.3338 25.2432 45.3939 25.2432 45.468V51.5034C25.2432 51.5774 25.3032 51.6375 25.3773 51.6375H31.1445C31.1932 51.6375 31.2356 51.6117 31.2592 51.573C31.2665 51.5609 31.272 51.5476 31.2752 51.5335C31.2775 51.5238 31.2786 51.5138 31.2786 51.5034V45.468C31.2786 45.3939 31.2186 45.3338 31.1445 45.3338H25.3773ZM43.7517 30.983H37.9846C37.0216 30.983 36.241 31.7636 36.241 32.7266V38.762C36.241 39.7249 37.0216 40.5055 37.9846 40.5055H43.7517C44.7147 40.5055 45.4953 39.7249 45.4953 38.762V32.7266C45.4953 31.7636 44.7147 30.983 43.7517 30.983ZM37.8505 32.7266C37.8505 32.6525 37.9104 32.5925 37.9846 32.5925H43.7517C43.8259 32.5925 43.8859 32.6525 43.8859 32.7266V38.762C43.8859 38.836 43.8259 38.8961 43.7517 38.8961H37.9846C37.9673 38.8961 37.9508 38.8928 37.9356 38.8869L37.9196 38.8793C37.9123 38.8752 37.9052 38.8704 37.8987 38.865C37.8693 38.8405 37.8505 38.8034 37.8505 38.762V32.7266ZM37.9846 43.7244H43.7517C44.7147 43.7244 45.4953 44.505 45.4953 45.468V51.5034C45.4953 52.4663 44.7147 53.2469 43.7517 53.2469H37.9846C37.0216 53.2469 36.241 52.4663 36.241 51.5034V45.468C36.241 44.505 37.0216 43.7244 37.9846 43.7244ZM37.9846 45.3338C37.9531 45.3338 37.9241 45.3447 37.9013 45.3629C37.8704 45.3875 37.8505 45.4254 37.8505 45.468V51.5034C37.8505 51.5774 37.9104 51.6375 37.9846 51.6375H43.7517C43.7853 51.6375 43.8162 51.6251 43.8398 51.6047C43.868 51.5801 43.8859 51.5438 43.8859 51.5034V45.468C43.8859 45.3939 43.8259 45.3338 43.7517 45.3338H37.9846ZM26.9868 63.8424C26.9868 63.3238 27.4072 62.9035 27.9256 62.9035H40.3987C40.9171 62.9035 41.3376 63.3238 41.3376 63.8424C41.3376 64.3609 40.9171 64.7812 40.3987 64.7812H27.9256C27.4072 64.7812 26.9868 64.3609 26.9868 63.8424Z" fill="white"/>
</svg>
