<svg width="69" height="68" viewBox="0 0 69 68" fill="none" xmlns="http://www.w3.org/2000/svg">
<path fill-rule="evenodd" clip-rule="evenodd" d="M28.1396 0.000221336L34.7384 6.70724L41.3373 0.000221305C42.2137 0.0146177 42.9197 0.729575 42.9197 1.60944V9.65663C42.9197 10.5455 42.1992 11.2661 41.3103 11.2661H28.1666C27.2777 11.2661 26.5571 10.5455 26.5571 9.65663V1.60944C26.5571 0.729576 27.2632 0.0146187 28.1396 0.000221336ZM30.0269 0L34.7384 4.78878L39.45 0H30.0269ZM14.6181 13.0185C14.6181 12.5876 14.2174 12.2685 13.7973 12.365L6.57053 14.0252C6.26205 14.096 6.04339 14.3722 6.04573 14.6917C6.06341 17.0986 6.04951 19.324 6.04052 20.7639V20.764V20.764V20.764C6.03891 21.0218 6.03746 21.2544 6.03637 21.4584L6.03636 21.4597L6.03636 21.4612L6.03635 21.4619C6.03514 21.6886 6.0344 21.8295 6.0344 21.8627H6.03073C6.03316 21.9071 6.0344 21.9518 6.0344 21.9968C6.0344 23.3301 4.95354 24.411 3.62024 24.411C2.28694 24.411 1.20608 23.3301 1.20608 21.9968C1.20608 20.6635 2.28694 19.5827 3.62024 19.5827C4.0096 19.5827 4.37743 19.6749 4.7031 19.8386C4.71147 17.9223 4.71988 15.0418 4.70457 12.958C4.69763 12.0128 5.3461 11.1868 6.27024 10.9745L13.497 9.31426C14.7571 9.02478 15.9593 9.98204 15.9593 11.275V19.5827C15.9593 20.916 14.8784 21.9968 13.5451 21.9968C12.2118 21.9968 11.1309 20.916 11.1309 19.5827C11.1309 18.2494 12.2118 17.1685 13.5451 17.1685C13.9305 17.1685 14.2948 17.2588 14.6181 17.4195V13.0185ZM0 36.0794C0 34.7462 1.08082 33.6653 2.41416 33.6653H13.5461C14.8794 33.6653 15.9603 34.7462 15.9603 36.0794V45.6019C15.9603 46.9352 14.8794 48.0161 13.5461 48.0161H2.41416C1.08082 48.0161 0 46.9352 0 45.6019V36.0794ZM6.79322 38.7125C6.78432 38.7073 6.77305 38.7138 6.77305 38.7241V43.0914C6.77305 43.1017 6.78432 43.1082 6.79322 43.103L10.5753 40.9193C10.5845 40.9142 10.5845 40.9013 10.5753 40.8961L6.79322 38.7125ZM11.1788 41.9647L7.39676 44.1484C6.58314 44.6181 5.56597 44.0309 5.56597 43.0914V38.7241C5.56597 37.7846 6.58314 37.1973 7.39676 37.6671L11.1788 39.8508C11.9925 40.3205 11.9927 41.4949 11.1788 41.9647ZM52.9778 37.1406C52.9778 36.036 53.8733 35.1406 54.9778 35.1406H66.6698C67.7744 35.1406 68.6698 36.036 68.6698 37.1406V44.6749C68.6698 45.7794 67.7744 46.6749 66.6698 46.6749H54.9778C53.8733 46.6749 52.9778 45.7794 52.9778 44.6749V37.1406ZM60.8909 38.8961C59.7798 38.8961 58.8791 39.7968 58.8791 40.9079C58.8791 42.019 59.7798 42.9197 60.8909 42.9197C62.0019 42.9197 62.9027 42.019 62.9027 40.9079C62.9027 39.7968 62.0019 38.8961 60.8909 38.8961ZM57.5379 40.9079C57.5379 39.0561 59.0391 37.5549 60.8909 37.5549C62.7427 37.5549 64.2439 39.0561 64.2439 40.9079C64.2439 42.7597 62.7427 44.2609 60.8909 44.2609C59.0391 44.2609 57.5379 42.7597 57.5379 40.9079ZM60.7563 25.2158C60.7563 25.2158 67.194 16.8346 67.194 13.2792C67.194 9.72369 64.3117 6.84141 60.7563 6.84141C57.2008 6.84141 54.3185 9.72369 54.3185 13.2792C54.3185 16.8346 60.7563 25.2158 60.7563 25.2158ZM60.6892 16.3639C62.2818 16.3639 63.5728 15.0729 63.5728 13.4803C63.5728 11.8878 62.2818 10.5968 60.6892 10.5968C59.0967 10.5968 57.8056 11.8878 57.8056 13.4803C57.8056 15.0729 59.0967 16.3639 60.6892 16.3639ZM24.1223 17.0345H22.3974C20.8419 17.0345 19.5809 18.2956 19.5809 19.8511V65.1836C19.5809 66.7391 20.8419 68.0001 22.3974 68.0001H46.9413C48.4968 68.0001 49.7578 66.7391 49.7578 65.1836V19.8511C49.7578 18.2956 48.4968 17.0345 46.9413 17.0345H44.9458L43.6344 22.2798C43.3507 23.4141 42.3315 24.21 41.1621 24.21H27.9631C26.8034 24.21 25.7899 23.427 25.4973 22.3049L24.1223 17.0345ZM25.2315 17.0345H43.8398L42.5934 22.0195C42.4292 22.6763 41.8393 23.137 41.1621 23.137H27.9631C27.2917 23.137 26.7049 22.6837 26.5355 22.0341L25.2315 17.0345ZM31.1152 30.983H25.348C24.3851 30.983 23.6045 31.7636 23.6045 32.7266V38.762C23.6045 39.7249 24.3851 40.5055 25.348 40.5055H31.1152C32.0781 40.5055 32.8587 39.7249 32.8587 38.762V32.7266C32.8587 31.7636 32.0781 30.983 31.1152 30.983ZM25.2139 32.7266C25.2139 32.6993 25.222 32.674 25.2359 32.6529C25.2469 32.6361 25.2616 32.622 25.2789 32.6116C25.299 32.5995 25.3226 32.5925 25.348 32.5925H31.1152C31.1893 32.5925 31.2493 32.6525 31.2493 32.7266V38.762C31.2493 38.836 31.1893 38.8961 31.1152 38.8961H25.348C25.2739 38.8961 25.2139 38.836 25.2139 38.762V32.7266ZM25.348 43.7244H31.1152C32.0781 43.7244 32.8587 44.505 32.8587 45.468V51.5034C32.8587 52.4663 32.0781 53.2469 31.1152 53.2469H25.348C24.3851 53.2469 23.6045 52.4663 23.6045 51.5034V45.468C23.6045 44.505 24.3851 43.7244 25.348 43.7244ZM25.348 45.3338C25.2739 45.3338 25.2139 45.3939 25.2139 45.468V51.5034C25.2139 51.5774 25.2739 51.6375 25.348 51.6375H31.1152C31.1639 51.6375 31.2063 51.6117 31.2299 51.573C31.2372 51.5609 31.2427 51.5476 31.2459 51.5335C31.2482 51.5238 31.2493 51.5138 31.2493 51.5034V45.468C31.2493 45.3939 31.1893 45.3338 31.1152 45.3338H25.348ZM43.7224 30.983H37.9553C36.9923 30.983 36.2117 31.7636 36.2117 32.7266V38.762C36.2117 39.7249 36.9923 40.5055 37.9553 40.5055H43.7224C44.6854 40.5055 45.466 39.7249 45.466 38.762V32.7266C45.466 31.7636 44.6854 30.983 43.7224 30.983ZM37.8212 32.7266C37.8212 32.6525 37.8812 32.5925 37.9553 32.5925H43.7224C43.7966 32.5925 43.8566 32.6525 43.8566 32.7266V38.762C43.8566 38.836 43.7966 38.8961 43.7224 38.8961H37.9553C37.938 38.8961 37.9215 38.8928 37.9063 38.8869L37.8903 38.8793C37.883 38.8752 37.8759 38.8704 37.8694 38.865C37.84 38.8405 37.8212 38.8034 37.8212 38.762V32.7266ZM37.9553 43.7244H43.7224C44.6854 43.7244 45.466 44.505 45.466 45.468V51.5034C45.466 52.4663 44.6854 53.2469 43.7224 53.2469H37.9553C36.9923 53.2469 36.2117 52.4663 36.2117 51.5034V45.468C36.2117 44.505 36.9923 43.7244 37.9553 43.7244ZM37.9553 45.3338C37.9239 45.3338 37.8948 45.3447 37.872 45.3629C37.8411 45.3875 37.8212 45.4254 37.8212 45.468V51.5034C37.8212 51.5774 37.8812 51.6375 37.9553 51.6375H43.7224C43.756 51.6375 43.7869 51.6251 43.8105 51.6047C43.8387 51.5801 43.8566 51.5438 43.8566 51.5034V45.468C43.8566 45.3939 43.7966 45.3338 43.7224 45.3338H37.9553ZM26.9575 63.8424C26.9575 63.3238 27.3779 62.9035 27.8963 62.9035H40.3694C40.8878 62.9035 41.3083 63.3238 41.3083 63.8424C41.3083 64.3609 40.8878 64.7812 40.3694 64.7812H27.8963C27.3779 64.7812 26.9575 64.3609 26.9575 63.8424Z" fill="url(#paint0_linear)"/>
<defs>
<linearGradient id="paint0_linear" x1="5.56783" y1="70.5058" x2="22.8078" y2="-11.8594" gradientUnits="userSpaceOnUse">
<stop stop-color="#2269D5"/>
<stop offset="1" stop-color="#1DBEB5"/>
</linearGradient>
</defs>
</svg>
