<svg width="53" height="54" viewBox="0 0 53 54" fill="none" xmlns="http://www.w3.org/2000/svg">
<path d="M21.556 10.9978C21.7468 11.1889 21.9975 11.2843 22.2479 11.2843C22.4983 11.2843 22.7486 11.1889 22.9395 10.9978L26.034 7.90387C26.4156 7.52162 26.4156 6.90204 26.034 6.52009C25.652 6.13783 25.0324 6.13783 24.6505 6.52009L21.556 9.6143C21.174 9.99656 21.174 10.6161 21.556 10.9978Z" fill="#5A3451"/>
<path d="M26.7047 10.9978C26.8958 11.1889 27.1459 11.2843 27.396 11.2843C27.6467 11.2843 27.8967 11.1889 28.0879 10.9978L31.1824 7.90387C31.5646 7.52162 31.5646 6.90204 31.1824 6.52009C30.8004 6.13783 30.1809 6.13783 29.7986 6.52009L26.7044 9.6143C26.3224 9.99656 26.3224 10.6161 26.7047 10.9978Z" fill="#5A3451"/>
<path d="M49.0846 40.0122H45.6234V36.7646C45.6234 36.2246 45.1849 35.7861 44.6449 35.7861H40.9679V33.5613H44.4295C45.2384 33.5613 45.8968 32.9034 45.8968 32.0939V23.2142C45.8968 22.4053 45.2384 21.7469 44.4295 21.7469H40.9679V18.5776C40.9679 18.037 40.5297 17.5992 39.9895 17.5992H27.4054V15.3786H34.513C35.3541 15.3786 36.0387 14.694 36.0387 13.8523V3.66564C36.0387 2.82425 35.3541 2.13965 34.513 2.13965H30.1875C29.647 2.13965 29.2091 2.57751 29.2091 3.11808C29.2091 3.65834 29.647 4.09651 30.1875 4.09651H34.0824V13.4217H18.7727V4.09651H22.3382C22.8785 4.09651 23.3166 3.65834 23.3166 3.11808C23.3166 2.57751 22.8785 2.13965 22.3382 2.13965H18.3415C17.5004 2.13965 16.8158 2.82425 16.8158 3.66564V13.8523C16.8158 14.694 17.5004 15.3786 18.3415 15.3786H25.4491V17.5992H12.3467C11.8064 17.5992 11.3682 18.037 11.3682 18.5776V21.7469H7.90696C7.09747 21.7469 6.43931 22.4053 6.43931 23.2142V32.0939C6.43931 32.9034 7.09747 33.5613 7.90696 33.5613H11.3682V35.7861H8.34695C7.80638 35.7861 7.36852 36.2246 7.36852 36.7646V40.0122H3.85406C3.04458 40.0122 2.38672 40.6707 2.38672 41.4796V50.3593C2.38672 51.1688 3.04458 51.8273 3.85406 51.8273H12.7338C13.5427 51.8273 14.2011 51.1688 14.2011 50.3593V41.4796C14.2011 40.6707 13.5427 40.0122 12.7338 40.0122H9.32507V37.7427H25.4491V40.0122H22.0459C21.2045 40.0122 20.5202 40.6968 20.5202 41.5385V50.301C20.5202 51.1427 21.2045 51.8273 22.0459 51.8273H22.5415C23.0818 51.8273 23.5199 51.3891 23.5199 50.8488C23.5199 50.3086 23.0818 49.8704 22.5415 49.8704H22.4768V41.9691H30.3781V49.8704H30.3097C29.7694 49.8704 29.3313 50.3086 29.3313 50.8488C29.3313 51.3891 29.7694 51.8273 30.3097 51.8273H30.8086C31.65 51.8273 32.3343 51.1427 32.3343 50.301V41.5385C32.3343 40.6968 31.65 40.0122 30.8086 40.0122H27.4054V37.7427H43.6665V40.0122H40.2049C39.3957 40.0122 38.7376 40.6707 38.7376 41.4796V50.3593C38.7376 51.1688 39.3957 51.8273 40.2049 51.8273H49.0846C49.8935 51.8273 50.552 51.1688 50.552 50.3593V41.4796C50.552 40.6707 49.8935 40.0122 49.0846 40.0122ZM12.2443 41.9691V49.8704H4.34297V41.9691H12.2443ZM8.39587 31.605V23.7037H16.2972V31.605H8.39587ZM39.0114 35.7861H13.3251V33.5613H16.7867C17.5956 33.5613 18.254 32.9034 18.254 32.0939V23.2142C18.254 22.4053 17.5956 21.7469 16.7867 21.7469H13.3251V19.5557H39.0114V21.7469H35.5498C34.7403 21.7469 34.0824 22.4053 34.0824 23.2142V32.0939C34.0824 32.9034 34.7403 33.5613 35.5498 33.5613H39.0114V35.7861ZM36.0387 31.605V23.7037H43.94V31.605H36.0387ZM48.5951 49.8704H40.6938V41.9691H48.5951V49.8704Z" fill="#5A3451"/>
<path d="M25.6951 3.89754L25.7237 3.91911C25.9009 4.05372 26.1087 4.11905 26.3153 4.11905C26.6104 4.11905 26.9024 3.98566 27.0947 3.73224C27.4217 3.30197 27.3381 2.68878 26.9079 2.36152L26.879 2.33965C26.4487 2.01269 25.8349 2.09625 25.5083 2.52682C25.181 2.95679 25.2649 3.57028 25.6951 3.89754Z" fill="#5A3451"/>
<path d="M27.0322 50.0475L27.004 50.0259C26.5737 49.6993 25.9599 49.7829 25.6327 50.2131C25.306 50.6434 25.3902 51.2572 25.8204 51.5842L25.8487 51.606C26.0258 51.7403 26.2337 51.8054 26.4397 51.8054C26.7353 51.8054 27.0274 51.672 27.22 51.4189C27.5466 50.988 27.4628 50.3745 27.0322 50.0475Z" fill="#5A3451"/>
</svg>
