<svg width="51" height="51" viewBox="0 0 51 51" fill="none" xmlns="http://www.w3.org/2000/svg">
<path d="M34.7443 22.5326C34.6681 22.3976 34.5566 22.286 34.4215 22.2098L20.8215 14.5598C20.4136 14.3275 19.8946 14.4697 19.6622 14.8776C19.5889 15.0064 19.5505 15.1521 19.5508 15.3002V30.6002C19.5517 30.9029 19.7136 31.1823 19.9758 31.3337C20.2365 31.4861 20.5585 31.4886 20.8215 31.3405L34.4215 23.6905C34.8304 23.4599 34.9749 22.9415 34.7443 22.5326ZM21.2508 29.1467V16.7537L32.2668 22.9502L21.2508 29.1467Z" fill="#5A3451"/>
<path d="M17.0004 39.95V38.25H15.3004V39.95H3.40039V41.65H15.3004V43.35H17.0004V41.65H47.6004V39.95H17.0004Z" fill="#5A3451"/>
<path d="M25.5004 9.34961C17.9894 9.34961 11.9004 15.4386 11.9004 22.9496C11.9093 30.457 17.993 36.5407 25.5004 36.5496C33.0114 36.5496 39.1004 30.4606 39.1004 22.9496C39.1004 15.4386 33.0114 9.34961 25.5004 9.34961ZM25.5004 34.8496C18.9282 34.8496 13.6004 29.5218 13.6004 22.9496C13.6074 16.3804 18.9312 11.0566 25.5004 11.0496C32.0726 11.0496 37.4004 16.3774 37.4004 22.9496C37.4004 29.5218 32.0726 34.8496 25.5004 34.8496Z" fill="#5A3451"/>
<path d="M48.45 4.25H2.55C1.14166 4.25 0 5.39166 0 6.8V44.2C0 45.6083 1.14166 46.75 2.55 46.75H48.45C49.8583 46.75 51 45.6083 51 44.2V6.8C51 5.39166 49.8583 4.25 48.45 4.25ZM49.3 44.2C49.3 44.6694 48.9194 45.05 48.45 45.05H2.55C2.08059 45.05 1.7 44.6694 1.7 44.2V6.8C1.7 6.33059 2.08059 5.95 2.55 5.95H48.45C48.9194 5.95 49.3 6.33059 49.3 6.8V44.2Z" fill="#5A3451"/>
<path d="M5.10039 7.65039H3.40039V9.35039H5.10039V7.65039Z" fill="#5A3451"/>
<path d="M8.50078 7.65039H6.80078V9.35039H8.50078V7.65039Z" fill="#5A3451"/>
<path d="M11.8992 7.65039H10.1992V9.35039H11.8992V7.65039Z" fill="#5A3451"/>
</svg>
