<svg width="68" height="75" viewBox="0 0 68 75" fill="none" xmlns="http://www.w3.org/2000/svg">
<path fill-rule="evenodd" clip-rule="evenodd" d="M34.5487 17.7042C34.5487 16.6953 35.314 15.87 36.263 15.5278C39.3453 14.4162 41.5487 11.4654 41.5487 8C41.5487 3.58172 37.967 0 33.5487 0C29.1304 0 25.5487 3.58172 25.5487 8C25.5487 11.4654 27.7521 14.4162 30.8344 15.5278C31.7834 15.87 32.5487 16.6953 32.5487 17.7042V33.105C32.5487 33.7059 32.1211 34.2141 31.5968 34.5078C31.0862 34.7937 30.4618 34.882 29.9574 34.5853L16.858 26.8798C15.9826 26.3649 15.6613 25.2767 15.8557 24.2799C16.4914 21.0197 15.039 17.5746 12.0013 15.8208C8.175 13.6117 3.28227 14.9227 1.07313 18.749C-1.13601 22.5753 0.174996 27.4681 4.00134 29.6772C6.96585 31.3888 10.5705 30.9873 13.0712 28.9402C13.8467 28.3054 14.9382 28.0709 15.802 28.579L28.6681 36.1473C29.2942 36.5156 29.5487 37.2736 29.5487 38C29.5487 39.0531 29.2715 40.2217 28.3638 40.7556L15.4023 48.38C15.2373 48.4771 15.0252 48.4157 14.9295 48.25C12.7204 44.4236 7.82768 43.1126 4.00134 45.3218C0.174995 47.5309 -1.13601 52.4236 1.07313 56.25C3.28227 60.0763 8.17499 61.3873 12.0013 59.1782C14.669 57.638 16.114 54.7935 15.996 51.9154C15.9602 51.044 16.3128 50.1648 17.0645 49.7226L30.8158 41.6336C31.1314 41.448 31.5177 41.4662 31.849 41.622C32.2434 41.8074 32.5487 42.1786 32.5487 42.6144V57.2958C32.5487 58.3047 31.7834 59.13 30.8344 59.4722C27.7521 60.5838 25.5487 63.5346 25.5487 67C25.5487 71.4183 29.1304 75 33.5487 75C37.967 75 41.5487 71.4183 41.5487 67C41.5487 63.5346 39.3453 60.5838 36.263 59.4722C35.314 59.13 34.5487 58.3047 34.5487 57.2958V42.9869C34.5487 42.3318 35.0171 41.7793 35.581 41.446C36.159 41.1043 36.8786 40.977 37.4573 41.3174L50.1268 48.77C50.9509 49.2548 51.2884 50.2546 51.1637 51.2026C50.7544 54.3148 52.2094 57.5103 55.097 59.1775C58.9234 61.3866 63.8161 60.0756 66.0252 56.2492C68.2344 52.4229 66.9234 47.5302 63.097 45.321C59.9861 43.5249 56.1702 44.0557 53.6648 46.3734C52.8856 47.0943 51.7249 47.3897 50.8099 46.8515L38.2808 39.4815C37.7752 39.184 37.5487 38.5866 37.5487 38C37.5487 37.8043 37.6431 37.6175 37.8118 37.5183L52.0398 29.1489C52.8315 28.6832 53.8256 28.8406 54.5845 29.3581C57.0443 31.0352 60.3462 31.2664 63.097 29.6782C66.9234 27.469 68.2344 22.5763 66.0252 18.75C63.8161 14.9236 58.9234 13.6126 55.097 15.8218C51.2707 18.0309 49.9597 22.9236 52.1688 26.75C52.1695 26.7511 52.1691 26.7525 52.168 26.7531L38.2259 34.9544C37.4584 35.4059 36.4918 35.149 35.7485 34.6587C35.1054 34.2344 34.5487 33.5875 34.5487 32.817V17.7042Z" fill="url(#paint0_linear)"/>
<defs>
<linearGradient id="paint0_linear" x1="32.0347" y1="0" x2="32.0347" y2="75" gradientUnits="userSpaceOnUse">
<stop stop-color="#A7156E"/>
<stop offset="0.405845" stop-color="#BD2055"/>
<stop offset="1" stop-color="#DD3131"/>
</linearGradient>
</defs>
</svg>
