<svg width="78" height="78" viewBox="0 0 78 78" fill="none" xmlns="http://www.w3.org/2000/svg">
<circle cx="39" cy="39" r="33" stroke="#B41C62" stroke-width="2"/>
<path fill-rule="evenodd" clip-rule="evenodd" d="M39 14C42.866 14 46 10.866 46 7C46 3.13401 42.866 0 39 0C35.134 0 32 3.13401 32 7C32 10.866 35.134 14 39 14ZM39 78C42.866 78 46 74.866 46 71C46 67.134 42.866 64 39 64C35.134 64 32 67.134 32 71C32 74.866 35.134 78 39 78ZM66.5787 21.3224C63.845 24.0561 59.4128 24.0561 56.6792 21.3224C53.9455 18.5887 53.9455 14.1566 56.6792 11.4229C59.4128 8.68922 63.845 8.68922 66.5787 11.4229C69.3123 14.1566 69.3123 18.5887 66.5787 21.3224ZM11.4213 66.5771C14.155 69.3108 18.5872 69.3108 21.3208 66.5771C24.0545 63.8435 24.0545 59.4113 21.3208 56.6777C18.5872 53.944 14.155 53.944 11.4213 56.6777C8.68768 59.4113 8.68768 63.8435 11.4213 66.5771ZM71 46.0004C67.134 46.0004 64 42.8664 64 39.0004C64 35.1344 67.134 32.0004 71 32.0004C74.866 32.0004 78 35.1344 78 39.0004C78 42.8664 74.866 46.0004 71 46.0004ZM0 38.9982C0 42.8642 3.134 45.9982 7 45.9982C10.866 45.9982 14 42.8642 14 38.9982C14 35.1322 10.866 31.9982 7 31.9982C3.134 31.9982 0 35.1322 0 38.9982ZM56.6781 66.5772C53.9444 63.8435 53.9444 59.4114 56.6781 56.6777C59.4118 53.944 63.8439 53.944 66.5776 56.6777C69.3113 59.4114 69.3113 63.8435 66.5776 66.5772C63.8439 69.3109 59.4118 69.3109 56.6781 66.5772ZM11.4242 11.4213C8.69052 14.155 8.69052 18.5872 11.4242 21.3208C14.1579 24.0545 18.59 24.0545 21.3237 21.3208C24.0574 18.5872 24.0574 14.155 21.3237 11.4213C18.59 8.68768 14.1579 8.68768 11.4242 11.4213Z" fill="#B41C62"/>
<line x1="38.5" y1="9" x2="38.5" y2="71" stroke="#B41C62"/>
<line x1="60.2754" y1="18.4333" x2="16.4348" y2="62.2739" stroke="#B41C62"/>
<line x1="70" y1="39.5" x2="8" y2="39.5" stroke="#B41C62"/>
<line x1="60.4863" y1="61.1941" x2="16.6457" y2="17.3535" stroke="#B41C62"/>
</svg>
