<svg width="57" height="57" viewBox="0 0 57 57" fill="none" xmlns="http://www.w3.org/2000/svg">
<g clip-path="url(#clip0)">
<path d="M4.76917 5.61182C4.05423 5.61182 3.47266 6.19351 3.47266 6.90834V38.6309C3.47266 39.3459 4.05434 39.9274 4.76917 39.9274H52.23C52.9449 39.9274 53.5265 39.3458 53.5265 38.6309C53.5265 37.2197 53.5265 9.67237 53.5265 6.90834C53.5265 6.1934 52.9448 5.61182 52.23 5.61182C50.2665 5.61182 6.73699 5.61182 4.76917 5.61182ZM5.14245 7.28173H8.48617V9.74073H5.14245V7.28173ZM28.3916 38.2575H26.2286V35.2735C26.2286 34.8123 25.8549 34.4386 25.3937 34.4386C24.9324 34.4386 24.5587 34.8123 24.5587 35.2735V38.2575H12.7932V35.2735C12.7932 34.8123 12.4195 34.4386 11.9582 34.4386C11.497 34.4386 11.1233 34.8123 11.1233 35.2735V38.2575H8.9602V35.2973C8.9602 33.8453 9.97951 32.8958 10.6693 32.6085C10.7025 32.5955 14.8437 30.99 14.864 30.9822C16.7485 33.2322 20.4559 33.3999 22.4851 30.9828C24.7034 31.842 25.9948 32.3419 26.6831 32.6086C27.5335 32.9625 28.3917 33.9976 28.3917 35.2973V38.2575H28.3916ZM25.6469 27.3705C26.0367 27.5715 26.3932 29.4596 25.2757 30.2727C23.9757 29.7692 22.4197 29.1665 21.794 28.9243L21.7934 28.2526C22.9471 27.2981 23.5717 25.898 23.5717 24.4803V22.0629C23.5717 21.3485 22.9904 20.7672 22.2759 20.7672C21.4085 20.7672 21.7152 20.7798 20.8632 20.7071C20.2538 20.6555 19.7032 20.1723 19.554 19.5589C19.4552 19.152 19.0942 18.8678 18.6761 18.8678C18.2596 18.8678 17.8987 19.1507 17.7981 19.5589C17.6581 20.137 17.146 20.6517 16.4591 20.7118C15.6155 20.7824 15.7203 20.7672 15.076 20.7672C14.3615 20.7672 13.7802 21.3485 13.7802 22.0629V24.5196C13.7802 25.997 14.4562 27.3685 15.5551 28.2612V28.9231C15.0047 29.1364 12.935 29.9387 12.0732 30.2729C10.9557 29.4609 11.3109 27.5717 11.7013 27.3704C12.5064 26.9551 13.2272 26.3684 13.2272 25.4712V20.6615C13.2272 17.6437 15.6392 15.1576 18.604 15.1194C21.6386 15.0785 24.1252 17.5223 24.1252 20.5679V25.4724C24.1252 26.3712 24.8372 26.9529 25.6469 27.3705ZM18.4814 27.6789C16.6845 27.5635 15.4501 26.151 15.4501 24.5196V22.4372C16.7846 22.4372 17.8158 22.2912 18.6772 21.3464C19.5589 22.3119 20.6025 22.4372 21.9017 22.4372V24.4803C21.9017 26.2463 20.4285 27.8043 18.4814 27.6789ZM20.7944 30.3199C19.505 31.3892 17.6665 31.2287 16.552 30.3132C17.0345 30.0528 17.2251 29.6656 17.2251 29.1403C18.1352 29.4135 19.1708 29.4409 20.1243 29.1512C20.1247 29.7136 20.3824 30.1066 20.7944 30.3199ZM51.8567 38.2576H30.0615V35.2973C30.0615 33.4696 28.9305 31.7277 27.3112 31.0612C27.3057 31.059 27.3004 31.0569 27.2949 31.0547C27.2591 31.0407 27.139 30.9943 26.9599 30.925C28.2007 29.2673 27.7931 26.5982 26.4122 25.8862C26.1201 25.7354 25.9221 25.5962 25.795 25.4531V20.568C25.795 16.612 22.5747 13.4015 18.5824 13.4497C14.7087 13.4996 11.5572 16.7349 11.5572 20.6616V25.4483C11.4263 25.5959 11.2283 25.7356 10.936 25.8863C9.54957 26.601 9.15202 29.275 10.3889 30.9261C10.1869 31.0043 10.0649 31.0516 10.0557 31.0553C10.0507 31.0573 10.0456 31.0592 10.0407 31.0613C8.71606 31.6064 7.29018 33.1645 7.29018 35.2974V38.2578H5.14245V11.4106H51.8566V38.2576H51.8567ZM51.8567 9.74073H10.1561V7.28173H51.8566V9.74073H51.8567Z" fill="#613654"/>
<path d="M32.6768 16.6155H33.8115C34.2728 16.6155 34.6465 16.2417 34.6465 15.7805C34.6465 15.3194 34.2728 14.9456 33.8115 14.9456H32.6768C32.2155 14.9456 31.8418 15.3194 31.8418 15.7805C31.8418 16.2417 32.2155 16.6155 32.6768 16.6155Z" fill="#613654"/>
<path d="M32.6768 20.0914H33.8115C34.2728 20.0914 34.6465 19.7175 34.6465 19.2564C34.6465 18.7953 34.2728 18.4214 33.8115 18.4214H32.6768C32.2155 18.4214 31.8418 18.7953 31.8418 19.2564C31.8418 19.7175 32.2155 20.0914 32.6768 20.0914Z" fill="#613654"/>
<path d="M32.6768 23.5672H33.8115C34.2728 23.5672 34.6465 23.1935 34.6465 22.7322C34.6465 22.271 34.2728 21.8973 33.8115 21.8973H32.6768C32.2155 21.8973 31.8418 22.271 31.8418 22.7322C31.8418 23.1935 32.2155 23.5672 32.6768 23.5672Z" fill="#613654"/>
<path d="M32.6768 27.0432H33.8115C34.2728 27.0432 34.6465 26.6695 34.6465 26.2082C34.6465 25.747 34.2728 25.3733 33.8115 25.3733H32.6768C32.2155 25.3733 31.8418 25.747 31.8418 26.2082C31.8418 26.6695 32.2155 27.0432 32.6768 27.0432Z" fill="#613654"/>
<path d="M32.6768 30.4762H33.8115C34.2728 30.4762 34.6465 30.1025 34.6465 29.6412C34.6465 29.18 34.2728 28.8063 33.8115 28.8063H32.6768C32.2155 28.8063 31.8418 29.18 31.8418 29.6412C31.8418 30.1025 32.2155 30.4762 32.6768 30.4762Z" fill="#613654"/>
<path d="M32.6768 33.952H33.8115C34.2728 33.952 34.6465 33.5783 34.6465 33.1171C34.6465 32.6558 34.2728 32.2821 33.8115 32.2821H32.6768C32.2155 32.2821 31.8418 32.6558 31.8418 33.1171C31.8418 33.5783 32.2155 33.952 32.6768 33.952Z" fill="#613654"/>
<path d="M36.9814 16.6155H47.4679C47.9291 16.6155 48.3028 16.2417 48.3028 15.7805C48.3028 15.3194 47.9291 14.9456 47.4679 14.9456H36.9814C36.5202 14.9456 36.1465 15.3194 36.1465 15.7805C36.1465 16.2417 36.5202 16.6155 36.9814 16.6155Z" fill="#613654"/>
<path d="M36.9814 20.0914H47.4679C47.9291 20.0914 48.3028 19.7175 48.3028 19.2564C48.3028 18.7953 47.9291 18.4214 47.4679 18.4214H36.9814C36.5202 18.4214 36.1465 18.7953 36.1465 19.2564C36.1465 19.7175 36.5202 20.0914 36.9814 20.0914Z" fill="#613654"/>
<path d="M36.9814 23.5672H47.4679C47.9291 23.5672 48.3028 23.1935 48.3028 22.7322C48.3028 22.271 47.9291 21.8973 47.4679 21.8973H36.9814C36.5202 21.8973 36.1465 22.271 36.1465 22.7322C36.1465 23.1935 36.5202 23.5672 36.9814 23.5672Z" fill="#613654"/>
<path d="M36.9814 27.0432H47.4679C47.9291 27.0432 48.3028 26.6695 48.3028 26.2082C48.3028 25.747 47.9291 25.3733 47.4679 25.3733H36.9814C36.5202 25.3733 36.1465 25.747 36.1465 26.2082C36.1465 26.6695 36.5202 27.0432 36.9814 27.0432Z" fill="#613654"/>
<path d="M36.9814 30.4762H47.4679C47.9291 30.4762 48.3028 30.1025 48.3028 29.6412C48.3028 29.18 47.9291 28.8063 47.4679 28.8063H36.9814C36.5202 28.8063 36.1465 29.18 36.1465 29.6412C36.1465 30.1025 36.5202 30.4762 36.9814 30.4762Z" fill="#613654"/>
<path d="M36.9814 33.952H47.4679C47.9291 33.952 48.3028 33.5783 48.3028 33.1171C48.3028 32.6558 47.9291 32.2821 47.4679 32.2821H36.9814C36.5202 32.2821 36.1465 32.6558 36.1465 33.1171C36.1465 33.5783 36.5202 33.952 36.9814 33.952Z" fill="#613654"/>
<path d="M56.165 22.9993C56.6263 22.9993 57 22.6256 57 22.1644V6.18213C57 3.95258 55.1861 2.13873 52.9566 2.13873H4.04329C1.81385 2.13873 0 3.95258 0 6.18213V39.3571C0 41.5866 1.81385 43.4005 4.04329 43.4005H22.4835V45.8248C22.4835 46.8421 21.994 47.8005 21.2057 48.3263L19.1189 49.7183H17.4598C16.3856 49.7183 15.5117 50.5923 15.5117 51.6665V52.913C15.5117 53.9872 16.3856 54.8612 17.4598 54.8612H26.5517C27.0129 54.8612 27.3866 54.4875 27.3866 54.0262C27.3866 53.565 27.0129 53.1913 26.5517 53.1913H17.4598C17.3064 53.1913 17.1816 53.0665 17.1816 52.913V51.6665C17.1816 51.513 17.3064 51.3882 17.4598 51.3882H39.5399C39.6934 51.3882 39.8182 51.513 39.8182 51.6665V52.913C39.8182 53.0665 39.6934 53.1913 39.5399 53.1913H30.4481C29.9869 53.1913 29.6132 53.565 29.6132 54.0262C29.6132 54.4875 29.9869 54.8612 30.4481 54.8612H39.5399C40.6141 54.8612 41.4881 53.9872 41.4881 52.913V51.6665C41.4881 50.5923 40.6141 49.7183 39.5399 49.7183H37.8809L35.794 48.3263C35.0059 47.8005 34.5161 46.8421 34.5161 45.8248V43.4005H52.9564C55.1859 43.4005 56.9998 41.5866 56.9998 39.3571V26.0608C56.9998 25.5996 56.626 25.2259 56.1648 25.2259C55.7036 25.2259 55.3299 25.5996 55.3299 26.0608V39.3571C55.3299 40.6659 54.2651 41.7306 52.9564 41.7306C51.752 41.7306 5.00872 41.7306 4.04318 41.7306C2.73442 41.7306 1.6698 40.6659 1.6698 39.3571V6.18213C1.6698 4.87337 2.73442 3.80863 4.04318 3.80863H52.9564C54.2651 3.80863 55.3299 4.87337 55.3299 6.18213V22.1644C55.3301 22.6256 55.7038 22.9993 56.165 22.9993ZM24.1534 45.8249V43.4006H32.8464V45.8249C32.8464 47.417 33.602 48.8714 34.8675 49.7155L34.8717 49.7183H22.1283L22.1325 49.7155C23.398 48.8714 24.1534 47.417 24.1534 45.8249Z" fill="#613654"/>
</g>
<defs>
<clipPath id="clip0">
<rect width="57" height="57" fill="white"/>
</clipPath>
</defs>
</svg>
