<svg width="52" height="53" viewBox="0 0 52 53" fill="none" xmlns="http://www.w3.org/2000/svg">
<path d="M42.9107 28.0127C42.4928 28.0127 42.154 28.358 42.154 28.784C42.154 29.324 41.723 29.7633 41.1931 29.7633C40.6634 29.7633 40.2322 29.324 40.2322 28.784C40.2322 28.3579 39.8934 28.0127 39.4755 28.0127C39.0576 28.0127 38.7188 28.358 38.7188 28.784C38.7188 30.1746 39.8288 31.3059 41.1931 31.3059C42.5574 31.3059 43.6675 30.1745 43.6675 28.784C43.6675 28.3578 43.3287 28.0127 42.9107 28.0127Z" fill="#613654"/>
<path d="M50.0138 28.138L47.8839 27.4426C47.6111 27.3534 47.3961 27.1315 47.3088 26.8488C46.8599 25.3941 46.1825 24.0284 45.2953 22.7895C44.891 22.2249 44.4414 21.6856 43.9503 21.1723C44.2645 19.7673 44.4353 18.1772 44.4132 16.8034C44.3815 14.8382 43.9962 13.6855 43.2353 13.2793C42.8255 13.0603 41.5783 12.3949 34.8277 15.5445C34.6679 15.619 34.5186 15.7108 34.3803 15.816C33.9252 15.6914 33.4601 15.576 32.9921 15.4725C32.9357 15.46 32.8776 15.4489 32.8208 15.4367C33.3679 14.2187 33.6873 12.8959 33.7473 11.5303C33.766 11.1047 33.4427 10.7442 33.0251 10.7253C32.6086 10.7042 32.2538 11.0356 32.2352 11.4613C32.1366 13.7067 31.2228 15.8193 29.6621 17.41C28.7297 18.3604 27.6379 19.0508 26.4743 19.4855C24.4564 19.1969 22.4009 19.1969 20.383 19.4855C19.2193 19.0508 18.1276 18.3604 17.1951 17.41C15.5301 15.713 14.6131 13.4567 14.6131 11.0567C14.6131 8.65654 15.5301 6.40032 17.1951 4.70328C18.8602 3.00614 21.074 2.0715 23.4286 2.0715C25.7833 2.0715 27.9971 3.00614 29.6621 4.70328C30.3312 5.38524 30.8841 6.16348 31.3055 7.01613C31.4935 7.39666 31.9486 7.54986 32.3219 7.35815C32.6952 7.16664 32.8454 6.70279 32.6574 6.32237C32.1635 5.32251 31.5159 4.41085 30.7325 3.61233C28.7816 1.6239 26.1877 0.528809 23.4287 0.528809C20.6698 0.528809 18.0759 1.6239 16.125 3.61233C14.1741 5.60087 13.0996 8.24455 13.0996 11.0566C13.0996 13.8686 14.1741 16.5123 16.125 18.5008C16.6877 19.0744 17.3 19.5676 17.9475 19.9808C17.9477 19.9808 17.9479 19.9807 17.9481 19.9807C17.4776 20.1054 17.0106 20.2453 16.5488 20.4027C16.1524 20.5378 15.9385 20.9747 16.071 21.3788C16.2035 21.7828 16.6324 22.0008 17.0287 21.8659C21.1558 20.4596 25.7017 20.4596 29.8288 21.8659C29.9084 21.893 29.9893 21.9058 30.0688 21.9058C30.3854 21.9058 30.6805 21.7017 30.7864 21.3788C30.919 20.9748 30.7051 20.5378 30.3087 20.4027C29.8469 20.2453 29.3799 20.1053 28.9094 19.9807C28.9096 19.9807 28.9098 19.9808 28.91 19.9808C29.5576 19.5676 30.1697 19.0744 30.7325 18.5008C31.2304 17.9933 31.6698 17.4392 32.0514 16.8503C32.26 16.8916 32.4671 16.9349 32.6711 16.98C32.9429 17.0402 33.2135 17.1048 33.4816 17.1726C33.4732 17.2061 33.4645 17.2395 33.4575 17.2736C33.0885 19.0587 33.1124 20.6375 33.5287 21.966C33.9029 23.16 34.5782 24.1274 35.5356 24.8413C36.6641 25.6827 38.0264 26.0461 39.2605 26.0461C40.1893 26.0461 41.0456 25.8401 41.6744 25.4771C42.3858 25.0665 42.9818 24.2012 43.4535 22.9021C43.6716 23.1615 43.8783 23.4272 44.073 23.6992C44.8629 24.8021 45.4659 26.0176 45.8652 27.3117C46.0997 28.0718 46.6819 28.6699 47.4224 28.9119L49.5523 29.6073C50.1112 29.7898 50.4867 30.3141 50.4867 30.9122V34.512C50.4867 35.1101 50.1112 35.6344 49.5523 35.8169L46.1206 36.9372C45.5716 37.1166 45.107 37.5012 44.8123 38.0202C43.4641 40.3951 41.3444 42.3603 38.5117 43.8614C38.1845 44.035 37.9578 44.3454 37.8895 44.7133L36.7904 50.6451C36.76 50.8085 36.6196 50.927 36.4564 50.927H32.8827C32.7195 50.927 32.579 50.8084 32.5486 50.6451L31.9399 47.3668C31.82 46.7218 31.2265 46.2934 30.5877 46.392C29.0483 46.6293 27.4621 46.7495 25.8734 46.7495C24.6914 46.7495 23.5245 46.6823 22.405 46.5497C21.786 46.4771 21.2093 46.9072 21.0936 47.5302L20.5151 50.6451C20.4847 50.8085 20.3443 50.927 20.1811 50.927H16.6074C16.4442 50.927 16.3037 50.8084 16.273 50.6426L15.2147 45.0401C15.1465 44.6792 14.9241 44.3722 14.6041 44.198C9.77539 41.5707 7.22313 37.1812 7.22313 31.5044C7.22313 28.6362 7.8388 26.1 9.05298 23.9659C10.186 21.9743 11.8409 20.3277 13.9715 19.0716C14.3333 18.8582 14.4569 18.3864 14.2477 18.0176C14.0385 17.6488 13.5756 17.5231 13.2137 17.7361C9.08223 20.172 6.59039 23.9301 5.90434 28.7032V28.7031C5.83152 28.6963 5.75859 28.6899 5.68598 28.6823C5.69918 28.1673 5.60777 27.6476 5.40871 27.1433C4.96966 26.0309 4.06778 25.2281 3.11096 25.0979C2.35696 24.995 1.63942 25.3213 1.14146 25.9919C0.419453 26.9643 0.537164 27.7339 0.762937 28.2082C1.1441 29.0086 2.12388 29.5749 3.74979 29.9309C3.7051 29.9991 3.65595 30.0676 3.60212 30.1365C2.64144 31.3645 1.50962 31.636 0.774719 31.6615C0.3445 31.6763 0 32.0284 0 32.4672V32.4709C0 32.9037 0.335055 33.2567 0.759281 33.2765C0.813617 33.2791 0.870391 33.2804 0.9295 33.2804C1.85941 33.2804 3.35187 32.9309 4.78573 31.0983C5.01211 30.8091 5.19655 30.5039 5.33833 30.1886C5.48112 30.2051 5.61834 30.2192 5.74976 30.2316C5.74976 30.2313 5.74976 30.2311 5.74986 30.2308C5.72406 30.6488 5.70974 31.0729 5.70974 31.5044C5.70974 34.7163 6.461 37.5801 7.94249 40.0165C9.30851 42.2628 11.2643 44.1021 13.7575 45.4852L14.7863 50.9318C14.9517 51.8229 15.7176 52.4696 16.6074 52.4696H20.1811C21.0709 52.4696 21.8368 51.8229 22.0022 50.9318L22.5252 48.1154C23.6116 48.2326 24.7363 48.2921 25.8732 48.2921C27.4333 48.2921 28.9914 48.1813 30.51 47.9627L31.0614 50.932C31.2269 51.8231 31.9928 52.4697 32.8825 52.4697H36.4562C37.346 52.4697 38.1118 51.823 38.2774 50.9316L39.3475 45.1564C42.3709 43.5269 44.6497 41.3864 46.1222 38.7927C46.2283 38.6058 46.3917 38.4686 46.5823 38.4064L50.0138 37.2861C51.2018 36.898 52 35.7832 52 34.5117V30.912C52 29.6406 51.2018 28.5259 50.0138 28.138ZM42.786 18.9709C42.4948 21.5098 41.7134 23.6815 40.9284 24.1347C40.036 24.6499 37.9758 24.7494 36.429 23.5961C34.8804 22.4415 34.365 20.3652 34.9383 17.5916C34.9383 17.5915 34.9383 17.5915 34.9383 17.5915C34.9959 17.3129 35.1901 17.072 35.4577 16.9471C39.2464 15.1795 41.4307 14.6013 42.2422 14.6013C42.3647 14.6013 42.4559 14.6145 42.5166 14.6387C42.7604 14.9035 43.0801 16.4087 42.786 18.9709ZM2.12479 27.5346C2.04648 27.37 2.23133 27.0807 2.34853 26.9227C2.53429 26.6726 2.70542 26.6215 2.83471 26.6215C2.86203 26.6215 2.88752 26.6238 2.91088 26.627C3.25884 26.6743 3.74634 27.0645 4.00461 27.7188C4.06545 27.8729 4.14446 28.128 4.16295 28.4463C3.11533 28.225 2.30141 27.9061 2.12479 27.5346Z" fill="#613654"/>
<path d="M24.1637 10.1735V7.4134C25.0975 7.48141 25.4445 7.91649 25.7646 7.91649C26.1649 7.91649 26.3516 7.39984 26.3516 7.14147C26.3516 6.47514 25.0708 6.18964 24.1637 6.16242V5.79514C24.1637 5.632 23.9635 5.48242 23.7634 5.48242C23.5365 5.48242 23.3765 5.632 23.3765 5.79514V6.18943C22.1091 6.32545 20.8417 7.00534 20.8417 8.71863C20.8417 10.4591 22.1758 10.9487 23.3765 11.3837V14.5792C22.0156 14.4704 21.6555 13.5185 21.2152 13.5185C20.8817 13.5185 20.6016 13.9673 20.6016 14.2937C20.6016 14.9599 21.7222 15.8709 23.3765 15.8982V16.3197C23.3765 16.4828 23.5366 16.6324 23.7634 16.6324C23.9636 16.6324 24.1637 16.4828 24.1637 16.3197V15.8574C25.6045 15.6533 26.5917 14.7287 26.5917 13.0562C26.5917 11.207 25.3243 10.6086 24.1637 10.1735ZM23.4565 9.91527C22.7494 9.64334 22.1758 9.35784 22.1758 8.58282C22.1758 7.8757 22.7094 7.53576 23.4565 7.44063V9.91527ZM24.0835 14.5519V11.6829C24.7372 11.9684 25.2575 12.3491 25.2575 13.2057C25.2575 13.981 24.8039 14.416 24.0835 14.5519Z" fill="#613654"/>
</svg>
