<svg width="49" height="41" viewBox="0 0 49 41" fill="none" xmlns="http://www.w3.org/2000/svg">
<path d="M15.5028 6.533L16.3786 5.36249L16.1905 5.70219C16.169 5.74101 16.1798 5.79194 16.2145 5.81596C16.2491 5.83997 16.2947 5.82797 16.3161 5.78914L16.6642 5.16438L17.0163 5.79645C17.0378 5.83506 17.0831 5.84687 17.1176 5.82287C17.1521 5.79885 17.1627 5.74809 17.1412 5.7095L16.9531 5.3698L17.8088 6.58912C17.8103 7.6127 17.3625 7.89849 16.8779 8.09552H16.4545C16.005 7.84238 15.5359 7.57519 15.5028 6.533ZM24.1571 7.80349L12.9895 15.3498L12.9913 0.284028L24.1571 7.80349ZM14.5382 8.14965C14.7387 8.35135 15.1867 8.44095 15.726 8.44095C16.2653 8.44095 16.5083 8.33709 16.4926 8.25805H16.8399C16.8241 8.33709 17.2881 8.45966 17.6973 8.45966C18.1064 8.45966 18.6071 8.3263 18.754 8.1785C18.901 8.03071 19.0991 7.12952 18.5821 6.60953C18.5784 6.59957 16.8409 5.06589 16.8409 5.06589C16.943 5.08078 17.0455 5.09191 17.1485 5.09512C17.2015 5.09762 17.2545 5.09022 17.3054 5.07317C17.4566 5.00742 17.5315 4.81694 17.4728 4.64774C17.414 4.47853 17.2438 4.39466 17.0925 4.46041C16.9669 4.51487 16.7272 4.84969 16.6807 4.91633L16.6732 4.92701C16.6686 4.92654 16.6641 4.92664 16.6595 4.92719L16.6524 4.91714C16.6037 4.8505 16.3662 4.51567 16.2406 4.46123C16.0894 4.39542 15.9191 4.47905 15.86 4.64814C15.8592 4.6505 15.8583 4.65285 15.8575 4.65521C15.801 4.82323 15.8769 5.01072 16.0271 5.07399C16.0779 5.09075 16.131 5.09789 16.1839 5.09512C16.2832 5.09224 16.3821 5.08193 16.4805 5.06819C16.4805 5.06819 14.7417 6.60546 14.7382 6.62558C14.2056 7.16127 14.3377 7.94795 14.5382 8.14965ZM18.8145 9.04256H16.6959H14.5736V9.31432C14.5736 9.31432 15.7931 9.34135 16.4097 11.015H16.9777C17.5936 9.34135 18.8145 9.31651 18.8145 9.31651V9.04256H18.8145ZM16.1869 4.61158C16.1699 4.60438 16.1519 4.6008 16.1338 4.601C16.0536 4.59963 15.9876 4.67129 15.9864 4.76105C15.986 4.78515 15.9905 4.80906 15.9995 4.83099C16.015 4.87057 16.044 4.90156 16.0801 4.91713C16.2047 4.93349 16.3307 4.92911 16.4541 4.90413C16.3784 4.79243 16.2883 4.69386 16.1869 4.61158ZM17.2523 4.91957C17.3275 4.88658 17.3646 4.79162 17.3351 4.70747C17.3057 4.62331 17.2208 4.58183 17.1456 4.61482C17.0443 4.69691 16.9544 4.79527 16.8788 4.90666C17.0021 4.93143 17.1279 4.9358 17.2523 4.91957ZM8.83355 7.67208L8.58245 7.16032L8.33135 7.67208L7.76986 7.75415L8.17616 8.1525L8.08024 8.71497L8.58245 8.4494L9.08464 8.71497L8.98873 8.1525L9.39503 7.75415L8.83355 7.67208ZM12.2247 0.284027L12.2265 15.3498L1.0589 7.80349L12.2247 0.284027ZM11.7754 7.11116L9.75908 5.59007L9.74874 5.49572L9.63636 5.49748L9.63402 5.49572L9.63392 5.49753L9.56985 5.49853C9.46343 5.87056 9.02814 6.14958 8.50596 6.14958C7.99988 6.14958 7.57832 5.88658 7.45566 5.53177L7.30143 5.53419L5.16004 7.14962L6.23074 8.34196L7.13348 7.81471L6.91905 10.7267H10.3223L10.0123 7.89908L10.7047 8.30351L11.7754 7.11116ZM41.9296 9.00181C41.929 9.00203 41.8606 9.02592 41.6623 8.94885C41.5187 8.89329 41.4797 8.82692 41.4788 8.79864C41.4853 8.73824 41.4439 8.68258 41.3836 8.67243C41.3224 8.66117 41.2622 8.70432 41.2516 8.76731C41.2474 8.79323 41.2201 9.02491 41.5799 9.1643C41.7201 9.2185 41.8225 9.23608 41.8965 9.23608C41.9861 9.23608 42.0338 9.21039 42.0556 9.19326C42.1055 9.15393 42.1221 9.07663 42.0831 9.02637C42.0437 8.976 41.9794 8.96282 41.9296 9.00181ZM48.0183 7.80349L36.8507 15.3498L36.8525 0.284028L48.0183 7.80349ZM38.8154 7.58773C38.8154 7.58773 39.4943 7.68889 40.0628 7.17847C40.6313 6.66806 40.8743 5.73933 40.8743 5.73933C40.8743 5.73933 39.6469 5.89478 39.2024 6.31306C38.6459 6.83672 38.8154 7.58773 38.8154 7.58773ZM43.2319 9.42133C43.2319 8.99416 43.0266 8.62764 42.5866 8.4711C42.4466 8.42129 42.2012 8.47041 42.0317 8.4751C42.0367 8.25866 42.0269 7.76746 41.8602 7.37803C41.7715 7.1707 41.6731 7.0117 41.594 6.88403C41.4876 6.71207 41.4107 6.58778 41.4107 6.44287C41.4107 6.44069 41.4096 6.43889 41.4095 6.43673C41.41 6.40078 41.4107 6.36633 41.4107 6.32748C41.4107 5.81376 41.4381 5.59459 41.4385 5.59233C41.4466 5.52923 41.4022 5.47131 41.3395 5.46309C41.2781 5.45486 41.2192 5.49926 41.2109 5.56236C41.2097 5.57171 41.1813 5.79528 41.1813 6.32748C41.1813 6.79659 41.1813 6.97215 40.6556 7.50075C40.4934 7.66403 40.365 7.80184 40.2185 7.95915L40.0653 8.12344C39.8545 8.34838 39.618 8.68949 39.5867 8.73492C39.418 8.72546 39.2075 8.7069 39.0909 8.75473C38.7233 8.90549 38.6001 9.22289 38.6001 9.59007C38.6001 10.103 39.1307 10.7267 39.7043 10.7267C40.1058 10.7267 40.5237 10.4012 40.701 10.0272C40.6052 9.83057 40.5503 9.62144 40.5503 9.42133C40.5503 9.25708 40.572 9.11679 40.6067 8.99326C40.5136 8.88197 40.389 8.79181 40.2273 8.7343C40.138 8.70252 40.0008 8.71605 39.8737 8.72811C39.9664 8.60071 40.1063 8.41604 40.2324 8.28164L40.3861 8.1169C40.5308 7.9614 40.6574 7.82516 40.8179 7.66391C41.1318 7.3483 41.2768 7.13459 41.3464 6.91855C41.3638 6.9475 41.3808 6.97612 41.3993 7.00606C41.4782 7.1334 41.5676 7.27786 41.6496 7.46931C41.7968 7.81354 41.806 8.26828 41.802 8.46764C41.6302 8.45739 41.4377 8.44745 41.3247 8.49379C40.9165 8.66118 40.7798 9.01363 40.7798 9.42133C40.7798 9.99089 41.3287 10.6834 42.0058 10.6834C42.6829 10.6834 43.2319 9.99089 43.2319 9.42133ZM39.6319 9.20137C39.6313 9.2016 39.5701 9.22008 39.3989 9.15382C39.2548 9.09815 39.2421 9.0373 39.2412 9.02908C39.2468 8.96924 39.2056 8.91436 39.1457 8.90434C39.0843 8.89295 39.0243 8.93622 39.0138 8.99922C39.0097 9.02356 38.984 9.24059 39.3165 9.36927C39.4437 9.41851 39.5376 9.43451 39.6057 9.43451C39.6904 9.43451 39.7357 9.40983 39.7563 9.39361C39.8062 9.35428 39.8235 9.27642 39.7843 9.22627C39.7455 9.17602 39.6821 9.16216 39.6319 9.20137ZM30.981 7.82273C30.9284 7.82273 30.8854 7.866 30.8854 7.91888V10.467C30.8854 10.5199 30.9284 10.5632 30.981 10.5632C31.0336 10.5632 31.0766 10.5199 31.0766 10.467V7.91888C31.0766 7.866 31.0336 7.82273 30.981 7.82273ZM36.0859 0.284027L36.0877 15.3498L24.9201 7.80349L36.0859 0.284027ZM34.7189 8.06311C34.7189 8.19588 34.8259 8.30351 34.9579 8.30351C35.0899 8.30351 35.1969 8.19588 35.1969 8.06311C35.1969 7.93036 35.0899 7.82273 34.9579 7.82273C34.8259 7.82273 34.7189 7.93036 34.7189 8.06311ZM34.26 7.60156C34.26 7.68122 34.3242 7.74579 34.4034 7.74579C34.4826 7.74579 34.5468 7.68122 34.5468 7.60156C34.5468 7.5219 34.4826 7.45732 34.4034 7.45732C34.3242 7.45732 34.26 7.5219 34.26 7.60156ZM34.021 8.1208C34.021 8.19516 34.0809 8.25543 34.1549 8.25543C34.2288 8.25543 34.2887 8.19516 34.2887 8.1208C34.2887 8.04646 34.2288 7.98619 34.1549 7.98619C34.0809 7.98619 34.021 8.04646 34.021 8.1208ZM33.6291 7.18809C33.6291 7.27306 33.6975 7.34193 33.782 7.34193C33.8665 7.34193 33.935 7.27305 33.935 7.18809C33.935 7.10311 33.8665 7.03424 33.782 7.03424C33.6975 7.03424 33.6291 7.10311 33.6291 7.18809ZM33.3518 8.14004C33.3518 8.20908 33.4075 8.26504 33.4761 8.26504C33.5447 8.26504 33.6004 8.20908 33.6004 8.14004C33.6004 8.071 33.5447 8.01504 33.4761 8.01504C33.4075 8.01504 33.3518 8.071 33.3518 8.14004ZM32.8977 9.52238C32.4464 9.30601 32.1509 8.94904 32.1509 8.5439H32.8977C32.8977 8.41447 32.8977 8.30828 32.8977 8.24581C32.8977 7.84195 32.0613 7.04386 32.0613 6.63038C32.0613 6.34206 32.0253 5.55926 32.0035 5.11111H32.1616V4.53416H31.2057V5.11111H31.3638C31.342 5.55926 31.306 6.34206 31.306 6.63038C31.306 7.04386 30.4696 7.80349 30.4696 8.24581C30.4696 8.68814 30.4696 10.7459 30.4696 10.7459C30.4696 10.8733 30.5723 10.9767 30.699 10.9767H32.6683C32.795 10.9767 32.8977 10.8733 32.8977 10.7459C32.8977 10.7459 32.8977 10.1434 32.8977 9.52238ZM35.4693 8.71338H32.3624C32.3624 9.12968 33.0083 9.46908 33.8226 9.49349C33.8226 9.63257 33.8226 10.7057 33.8226 10.7507C33.8226 10.7988 33.2491 10.8036 33.2491 10.8036C33.1886 10.8036 33.1391 10.8533 33.1391 10.9142C33.1391 10.975 33.1886 11.0247 33.2491 11.0247H34.5779C34.6383 11.0247 34.6878 10.975 34.6878 10.9142C34.6878 10.8533 34.6383 10.8036 34.5779 10.8036C34.5779 10.8036 34.0043 10.7988 34.0043 10.7507C34.0043 10.7057 34.0043 9.63305 34.0043 9.4936C34.8209 9.47036 35.4693 9.13048 35.4693 8.71338ZM12.9913 17.1884L24.1571 24.7079L12.9895 32.2542L12.9913 17.1884ZM15.2456 23.193C15.2456 23.2858 15.3327 23.3617 15.4391 23.3617H15.9698C16.0763 23.3617 16.1634 23.2858 16.1634 23.193V23.0303C16.1634 22.9376 16.0763 22.8617 15.9698 22.8617H15.4391C15.3327 22.8617 15.2456 22.9376 15.2456 23.0303V23.193ZM14.7867 26.7056C14.7867 26.8126 14.8738 26.9002 14.9802 26.9002H19.3731C19.4796 26.9002 19.5666 26.8126 19.5666 26.7056V23.7102C19.5666 23.6031 19.4796 23.5155 19.3731 23.5155H18.7879C18.6277 23.1504 18.4373 22.7463 18.3789 22.7463H16.7775C16.7191 22.7463 16.5287 23.1504 16.3685 23.5155H14.9802C14.8738 23.5155 14.7867 23.6031 14.7867 23.7102V26.7056H14.7867ZM16.0869 25.1213C16.0869 24.2876 16.7588 23.6117 17.5878 23.6117C18.4167 23.6117 19.0886 24.2876 19.0886 25.1213C19.0886 25.9551 18.4167 26.631 17.5878 26.631C16.7588 26.631 16.0869 25.9551 16.0869 25.1213ZM16.5774 25.1213C16.5774 25.6826 17.0297 26.1376 17.5878 26.1376C18.1458 26.1376 18.5981 25.6826 18.5981 25.1213C18.5981 24.5601 18.1458 24.1051 17.5878 24.1051C17.0297 24.1051 16.5774 24.5601 16.5774 25.1213ZM17.2532 24.9194C17.3724 24.6782 17.4574 24.4626 17.3075 24.3876C17.1576 24.3127 16.9394 24.4475 16.8202 24.6887C16.7009 24.9299 16.7258 25.1863 16.8757 25.2612C17.0256 25.3362 17.1339 25.1606 17.2532 24.9194ZM12.2247 17.1884L12.2265 32.2542L1.0589 24.7079L12.2247 17.1884ZM3.78387 25.2104C4.20977 25.2064 5.28157 25.1893 6.6368 25.1157C6.89754 25.1015 7.18343 25.0827 7.48112 25.061C7.45757 25.011 7.43096 24.9586 7.39905 24.9041C7.24646 24.6433 6.86064 24.2902 6.8566 24.2866L7.01075 24.1157C7.02756 24.1311 7.4266 24.4964 7.59666 24.7869C7.65026 24.8785 7.69157 24.965 7.72463 25.0427C7.83919 25.0339 7.95457 25.0249 8.07082 25.0155C8.05263 24.9793 8.03307 24.9422 8.01072 24.9041C7.85836 24.6438 7.47231 24.2902 7.4685 24.2866L7.62265 24.1157C7.63946 24.1311 8.03828 24.4964 8.20834 24.7869C8.25106 24.8598 8.28669 24.9304 8.31615 24.9953C8.43004 24.9858 8.54362 24.9762 8.65686 24.9664C8.64575 24.9458 8.63503 24.9253 8.62262 24.9041C8.47026 24.6438 8.08421 24.2902 8.0804 24.2866L8.23455 24.1157C8.25136 24.1311 8.65018 24.4964 8.82024 24.7869C8.85231 24.8416 8.87919 24.8941 8.90366 24.9448C9.01737 24.9348 9.12965 24.9247 9.24032 24.9146C9.23826 24.9111 9.23662 24.9077 9.23452 24.9041C9.08194 24.6433 8.69611 24.2902 8.69207 24.2866L8.84623 24.1157C8.86303 24.1311 9.26208 24.4964 9.43214 24.7869C9.45302 24.8226 9.4721 24.8576 9.48969 24.8917C10.1165 24.8337 10.6634 24.7792 10.9907 24.7458L10.9745 24.7303C11.0044 24.6933 11.1201 24.4758 10.9416 23.7549C10.9256 23.7561 10.7176 23.0809 10.5673 22.7072C10.5578 22.6817 10.5408 22.6654 10.5163 22.6584C10.5163 22.6584 10.2148 22.4818 10.0427 22.7559C9.87062 23.0299 9.81756 23.4463 9.4691 23.4698C9.12065 23.4934 8.97965 23.3581 8.88118 23.2246C8.78271 23.0911 8.75212 23.0299 8.71627 22.8785C8.68042 22.727 8.67351 22.519 8.55854 22.4746L8.43509 22.4298C8.29565 22.3783 8.14986 22.4674 8.04948 22.5612C7.9491 22.6549 7.78419 22.828 7.50457 22.965C7.22495 23.102 6.97259 23.139 6.97259 23.139L6.86676 23.251C6.85877 23.2516 6.85927 23.2603 6.85927 23.2603L6.85979 23.269L6.88383 23.3136L6.77096 23.3973L6.68049 23.3599C6.67249 23.3605 6.67249 23.3605 6.67249 23.3605L6.52467 23.4405C6.51667 23.4411 6.5177 23.4585 6.5177 23.4585L6.55272 23.5084L6.42837 23.5781L6.32939 23.5326L6.32139 23.5331C6.32139 23.5331 6.32139 23.5331 6.3134 23.5337L6.17408 23.6219L6.17459 23.6306L6.21862 23.6974L6.09211 23.7607L6.00911 23.7141C6.00911 23.7141 6.00061 23.7059 6.00113 23.7146L5.85279 23.786L5.84531 23.7952L5.84582 23.8039L5.87387 23.8718L5.76067 23.9477L5.67768 23.9011L5.66969 23.9016C5.66969 23.9016 5.66969 23.9016 5.6617 23.9022L5.52136 23.973L5.51388 23.9822L5.51438 23.9909L5.54243 24.0588L5.39424 24.1405L5.32724 24.0928C5.32724 24.0928 5.31874 24.0847 5.31126 24.0939C5.26481 24.1233 5.22687 24.1608 5.18894 24.1984C5.18145 24.2076 5.18145 24.2076 5.18996 24.2158L5.21864 24.2603C5.18922 24.3059 5.04292 24.3521 4.74896 24.5107C4.455 24.6694 3.98419 24.8906 3.78387 25.2104ZM11.0767 25.5175L11.0426 24.935L11.0421 24.9261C10.2578 25.0062 8.07449 25.1828 6.64666 25.3001C4.95929 25.4387 4.14999 25.3921 3.74886 25.3955L3.74081 25.7976C3.74183 25.815 3.75033 25.8231 3.76683 25.8307L4.17961 25.8895C4.60838 25.9471 5.05111 25.9689 5.4828 25.9391L11.0467 25.5545C11.0627 25.5534 11.0777 25.5349 11.0767 25.5175ZM43.7548 24.1694C43.7548 24.0736 43.7237 24.0015 43.6564 23.9422C43.456 23.7654 43.0143 23.7532 42.7516 23.7697C42.6909 24.3676 42.5191 24.9078 42.2702 25.347C43.0284 24.9631 43.7548 24.4822 43.7548 24.1694ZM36.8525 17.1884L48.0183 24.7079L36.8507 32.2542L36.8525 17.1884ZM40.2499 21.6135C40.2248 21.8733 40.6029 22.0932 40.5717 22.4163C40.5404 22.7393 40.5062 22.9418 40.5062 22.9418C40.5062 22.9418 40.9279 22.5615 40.9595 22.2348C40.9911 21.908 40.6125 21.6929 40.6378 21.432C40.663 21.171 40.7032 20.9065 40.7032 20.9065C40.7032 20.9065 40.2751 21.3536 40.2499 21.6135ZM38.5715 23.2847C38.5715 24.4837 39.0109 25.5269 39.6591 26.0685H41.6901C41.753 26.0159 41.8122 25.9547 41.871 25.893C42.555 25.5933 44.0761 24.8504 44.0761 24.1694C44.0761 23.9819 44.0042 23.8194 43.8684 23.6995C43.5784 23.4434 43.0574 23.4297 42.7705 23.4444C42.7723 23.3909 42.7778 23.3389 42.7778 23.2847H39.2402C39.231 23.4507 39.2365 23.6822 39.2941 23.9533C39.411 24.505 39.5952 24.7738 39.597 24.7765C39.6476 24.8493 39.6306 24.9501 39.5584 25.0014C39.5302 25.0215 39.4977 25.0312 39.4657 25.0312C39.4157 25.0312 39.3664 25.0078 39.3353 24.9638C39.3261 24.951 39.1121 24.6449 38.9799 24.0206C38.9172 23.7254 38.9096 23.4735 38.9189 23.2847H38.5715V23.2847ZM37.8784 26.2295C37.8784 26.4584 38.4626 26.6575 39.3245 26.7608H42.0247C42.8867 26.6575 43.4708 26.4584 43.4708 26.2295H37.8784ZM34.033 24.4458C34.0578 24.5524 34.0751 24.6619 34.0751 24.7761C34.0751 24.8813 34.0612 24.9827 34.04 25.0815C33.9875 25.3272 33.876 25.5508 33.7177 25.7338C33.6294 25.8357 33.5278 25.9254 33.4148 25.9995C33.1869 26.149 32.9153 26.2367 32.623 26.2367C32.3307 26.2367 32.0591 26.149 31.8313 25.9995C31.7183 25.9254 31.6167 25.8357 31.5284 25.7338C31.3064 25.4773 31.171 25.143 31.171 24.7761C31.171 24.4093 31.3064 24.075 31.5284 23.8185C31.6167 23.7165 31.7183 23.6269 31.8313 23.5527C32.0591 23.4033 32.3307 23.3156 32.623 23.3156C32.9153 23.3156 33.1869 23.4033 33.4148 23.5527C33.5278 23.6269 33.6294 23.7165 33.7177 23.8185C33.8705 23.9951 33.9782 24.2103 34.033 24.4458ZM33.3809 24.1472C33.3258 24.0838 33.2298 24.0776 33.1672 24.1333L32.7453 24.5055C32.7078 24.4883 32.6669 24.4775 32.623 24.4775C32.5961 24.4775 32.5719 24.4861 32.5471 24.4929L31.9606 23.7721C31.9071 23.7071 31.812 23.698 31.7474 23.7508C31.6828 23.8041 31.6732 23.9 31.7262 23.9653L32.338 24.7171C32.3339 24.7368 32.3261 24.7552 32.3261 24.7761C32.3261 24.9411 32.459 25.0748 32.623 25.0748C32.787 25.0748 32.92 24.9411 32.92 24.7761C32.92 24.7703 32.917 24.7654 32.9167 24.7596L33.367 24.3621C33.4298 24.3067 33.4362 24.2104 33.3809 24.1472ZM31.8313 26.3897V26.6833H33.4148V26.3897C33.1758 26.5085 32.9077 26.5771 32.623 26.5771C32.3384 26.5771 32.0703 26.5085 31.8313 26.3897ZM33.4148 23.1626V22.869H31.8313V23.1626C32.0703 23.0437 32.3384 22.9752 32.623 22.9752C32.9077 22.9752 33.1758 23.0437 33.4148 23.1626ZM36.0859 17.1884L36.0877 32.2542L24.9201 24.7079L36.0859 17.1884ZM34.6763 24.7628C34.6763 24.5771 34.7451 24.4267 34.3751 24.4168C34.288 23.9869 34.0503 23.6124 33.7177 23.3531V22.6347C33.7177 22.5959 33.6864 22.5644 33.6478 22.5644H33.2847V21.8828H31.9614V22.5644H31.5983C31.5597 22.5644 31.5284 22.5959 31.5284 22.6347V23.3531C31.1057 23.6825 30.8325 24.1967 30.8325 24.7761C30.8325 25.3556 31.1057 25.8698 31.5284 26.1992V26.9176C31.5284 26.9564 31.5597 26.9879 31.5983 26.9879H31.9614V27.6695H33.2847V26.9879H33.6478C33.6864 26.9879 33.7177 26.9564 33.7177 26.9176V26.1992C34.0572 25.9345 34.2975 25.5496 34.3799 25.1085C34.744 25.0973 34.6763 24.9476 34.6763 24.7628ZM24.9219 25.6502L36.0877 33.1697L24.9201 40.716L24.9219 25.6502ZM26.0309 31.9004H31.2659V31.7417C31.2659 31.6143 31.1632 31.511 31.0365 31.511H29.3512C28.7058 31.511 28.5192 30.5879 27.3865 30.5879C26.4544 30.5879 26.0309 31.3235 26.0309 31.7417C26.0309 31.7883 26.0309 31.8424 26.0309 31.9004ZM25.5428 34.3172C25.5643 34.3483 25.5994 34.3668 25.6371 34.3668H26.0673V35.362C26.0673 35.4258 26.1186 35.4774 26.182 35.4774C26.2454 35.4774 26.2967 35.4258 26.2967 35.362V34.3668H31.1148V35.362C31.1148 35.4258 31.1662 35.4774 31.2296 35.4774C31.293 35.4774 31.3443 35.4258 31.3443 35.362V34.3668H31.6454C31.6831 34.3668 31.7182 34.3483 31.7397 34.3172C31.761 34.2861 31.766 34.2465 31.753 34.2111L31.2874 32.9562C31.2831 32.9448 31.2732 32.9378 31.2659 32.9285V32.1023H26.0309C26.0309 32.3808 26.0309 32.7025 26.0309 32.91C26.016 32.9225 26.0023 32.9371 25.9951 32.9562L25.5295 34.2111C25.5165 34.2465 25.5215 34.2861 25.5428 34.3172ZM31.1056 33.1264H30.677L30.8089 33.6985H29.939L29.8813 33.1264H29.4963L29.5375 33.6985H28.7918L28.7671 33.1264H28.4233L28.3903 33.6985H27.6446L27.6859 33.1264H27.3421L27.2431 33.6985H26.421L26.5529 33.1264H26.1769L25.8024 34.136H31.4801L31.1056 33.1264ZM23.4139 35.9825H21.5915V33.357H23.4139V35.9825ZM22.6174 35.8524C22.6174 35.7887 22.566 35.737 22.5027 35.737C22.4393 35.737 22.388 35.7887 22.388 35.8524C22.388 35.9162 22.4393 35.9678 22.5027 35.9678C22.566 35.9678 22.6174 35.9162 22.6174 35.8524ZM23.2784 33.5061H21.727V35.7226H23.2784V33.5061ZM24.1553 25.6502L24.1571 40.716L12.9895 33.1697L24.1553 25.6502ZM21.3874 34.4536H20.1989H18.9682H17.0663V31.1357H22.1008V33.133H22.2364V31.0061H16.9307V34.5832H18.9682V35.2717H18.3073V35.7226H18.9682H20.1989H20.8598V35.2717H20.1989V34.5832H21.3874V34.4536ZM21.3874 33.133H21.9412V31.3196H17.2259V34.2697H18.9682H20.1989H21.3874V33.133ZM23.5495 33.2274H21.4559V36.1121H23.5495V33.2274ZM12.15 16.2821L0.982422 23.8284L0.984215 8.76265L12.15 16.2821ZM2.22511 17.3038H7.3543L7.05135 15.8273C7.03693 15.757 6.97874 15.7016 6.90273 15.6725C6.90858 15.6433 6.9034 15.6118 6.88551 15.5851L5.06685 12.8872C5.04821 12.7964 4.9941 12.7187 4.91985 12.6691L4.86316 12.585C4.84188 12.5535 4.80625 12.5344 4.76839 12.5344H4.76816C4.7303 12.5344 4.69467 12.5533 4.67339 12.5848L4.64803 12.6223C4.49767 12.6593 4.3857 12.7948 4.3857 12.9575C4.3857 12.973 4.38827 12.9878 4.39023 13.0028L2.64096 15.5849C2.61833 15.6184 2.61749 15.6589 2.63187 15.6936C2.57876 15.7255 2.53949 15.7716 2.52807 15.8273L2.22511 17.3038ZM7.4427 17.7346L7.40167 17.5346H2.17775L2.13672 17.7346C2.08381 17.9925 2.33221 18.2269 2.65848 18.2269H6.92094C7.2472 18.2269 7.49562 17.9925 7.4427 17.7346ZM4.72985 13.3037C4.64863 13.3037 4.57497 13.2742 4.51611 13.2269L2.8746 15.6499H6.6518L4.98897 13.1831C4.92587 13.2563 4.8338 13.3037 4.72985 13.3037ZM39.9425 15.8685C39.9392 15.7729 39.8595 15.6982 39.7646 15.7014C39.6696 15.7047 39.5952 15.7848 39.5985 15.8804C39.6018 15.9759 39.6814 16.0507 39.7764 16.0474C39.8714 16.0441 39.9457 15.964 39.9425 15.8685ZM48.0165 8.76265L48.0183 23.8284L36.8507 16.2821L48.0165 8.76265ZM39.8028 16.4652C40.2418 16.1204 41.1195 15.8812 41.5448 15.781C41.9015 15.6969 42.3141 15.6524 42.7378 15.6524C43.4527 15.6524 44.1473 15.7735 44.6937 15.9933C45.0112 16.1211 45.2236 16.2329 45.3787 16.3145C45.5551 16.4073 45.6364 16.4483 45.7148 16.4483C45.7533 16.4483 45.7988 16.4395 45.8579 16.4205C45.882 16.4127 45.9058 16.4071 45.9298 16.4001C45.6534 16.2891 45.3895 16.1468 45.5405 16.0489C45.8217 15.8668 46.6017 16.0345 46.6017 16.0345C46.6017 16.0345 46.1285 15.4432 44.9956 15.6884C44.5751 15.7794 44.6046 15.5165 43.7337 15.198C43.4804 15.1053 43.1713 15.0405 42.8734 14.996C42.7331 14.9751 42.6199 14.4867 42.4752 14.4763C42.2657 14.4614 41.9379 14.9529 41.7283 14.9601C41.3333 14.9738 40.8763 15.0196 40.536 15.1114C39.9241 15.2764 38.9173 15.6632 38.8135 16.0128C38.76 16.1934 39.2799 16.359 39.8028 16.4652ZM46.3722 16.8711C46.659 16.698 47.4477 16.8711 47.4477 16.8711C47.4477 16.8711 46.9602 16.3086 45.9277 16.6403C45.5179 16.772 45.4688 16.5538 44.6085 16.2076C43.7481 15.8614 42.5149 15.7893 41.5971 16.0057C40.9803 16.1511 39.8907 16.4961 39.776 16.8422C39.6613 17.1884 41.6975 17.549 41.7549 17.4624C41.8122 17.3759 41.8122 16.9288 41.8122 16.9288C41.8122 16.9288 41.8266 17.3326 42.4575 17.7653C43.0885 18.198 44.336 17.8951 43.9632 17.8086C43.5904 17.7221 43.2605 17.3615 43.2605 17.3615C43.2605 17.3615 43.525 17.4688 43.5718 17.4789C44.4125 17.6606 45.6855 17.0419 45.9707 17.2605C46.2719 17.4913 47.2756 17.3471 47.2756 17.3471C47.2756 17.3471 46.0855 17.0442 46.3722 16.8711ZM40.7368 16.5538C40.6417 16.5538 40.5647 16.6313 40.5647 16.7268C40.5647 16.8224 40.6417 16.8999 40.7368 16.8999C40.8318 16.8999 40.9088 16.8224 40.9088 16.7268C40.9088 16.6313 40.8318 16.5538 40.7368 16.5538ZM25.4172 18.4961L24.7289 21.1885L23.6965 21.6885L23.7347 20.5731L23.8112 18.5346L22.8552 18.5731L22.5811 17.677L21.9665 18.2261L21.6315 21.9578L19.7196 20.65L20.7138 20.0731L20.6254 18.4138L19.8343 18.8038L19.299 16.9192L20.5351 16.7179L20.4844 15.1499L19.4519 13.8037L20.3697 13.6114L21.5168 11.4575L22.2434 13.2652L22.9699 13.5344L22.9263 14.0614L24.1936 13.996L23.5817 11.419L25.7231 12.3421L25.2359 13.9632L26.6026 13.6883L27.4056 11.1497L29.2794 12.5344L27.5968 13.7652L29.1646 13.8806L29.7 15.3422L28.4381 15.3037L28.2852 16.9576L29.547 16.9961L30.0059 18.4961L28.3616 18.6115L27.9792 21.3424L26.985 21.9962L26.335 18.4577L25.4203 18.4945L25.4172 18.4961ZM25.7996 15.7653L25.6849 16.7268L25.7967 16.9452L26.9085 16.9192L26.7556 15.4191L25.7577 15.6361L25.7996 15.7653ZM23.9259 15.4191L23.0846 15.4576L22.8262 14.5218L22.1286 15.1883V16.4191L23.1993 16.4961L22.9506 17.0591L23.9259 17.0345V15.4191Z" fill="url(#paint0_linear)"/>
<defs>
<linearGradient id="paint0_linear" x1="7.72" y1="7.91435" x2="6.78094" y2="35.8392" gradientUnits="userSpaceOnUse">
<stop stop-color="#FE7500"/>
<stop offset="1" stop-color="#FE7500"/>
</linearGradient>
</defs>
</svg>
