<svg width="57" height="43" viewBox="0 0 57 43" fill="none" xmlns="http://www.w3.org/2000/svg">
<path d="M19.5028 7.533L20.3786 6.36249L20.1905 6.70219C20.169 6.74101 20.1798 6.79194 20.2145 6.81596C20.2491 6.83997 20.2947 6.82797 20.3161 6.78914L20.6642 6.16438L21.0163 6.79645C21.0378 6.83506 21.0831 6.84687 21.1176 6.82287C21.1521 6.79885 21.1627 6.74809 21.1412 6.7095L20.9531 6.3698L21.8088 7.58912C21.8103 8.6127 21.3625 8.89849 20.8779 9.09552H20.4545C20.005 8.84238 19.5359 8.57519 19.5028 7.533ZM28.1571 8.80349L16.9895 16.3498L16.9913 1.28403L28.1571 8.80349ZM18.5382 9.14965C18.7387 9.35135 19.1867 9.44095 19.726 9.44095C20.2653 9.44095 20.5083 9.33709 20.4926 9.25805H20.8399C20.8241 9.33709 21.2881 9.45966 21.6973 9.45966C22.1064 9.45966 22.6071 9.3263 22.754 9.1785C22.901 9.03071 23.0991 8.12952 22.5821 7.60953C22.5784 7.59957 20.8409 6.06589 20.8409 6.06589C20.943 6.08078 21.0455 6.09191 21.1485 6.09512C21.2015 6.09762 21.2545 6.09022 21.3054 6.07317C21.4566 6.00742 21.5315 5.81694 21.4728 5.64774C21.414 5.47853 21.2438 5.39466 21.0925 5.46041C20.9669 5.51487 20.7272 5.84969 20.6807 5.91633L20.6732 5.92701C20.6686 5.92654 20.6641 5.92664 20.6595 5.92719L20.6524 5.91714C20.6037 5.8505 20.3662 5.51567 20.2406 5.46123C20.0894 5.39542 19.9191 5.47905 19.86 5.64814C19.8592 5.6505 19.8583 5.65285 19.8575 5.65521C19.801 5.82323 19.8769 6.01072 20.0271 6.07399C20.0779 6.09075 20.131 6.09789 20.1839 6.09512C20.2832 6.09224 20.3821 6.08193 20.4805 6.06819C20.4805 6.06819 18.7417 7.60546 18.7382 7.62558C18.2056 8.16127 18.3377 8.94795 18.5382 9.14965ZM22.8145 10.0426H20.6959H18.5736V10.3143C18.5736 10.3143 19.7931 10.3414 20.4097 12.015H20.9777C21.5936 10.3414 22.8145 10.3165 22.8145 10.3165V10.0426H22.8145ZM20.1869 5.61158C20.1699 5.60438 20.1519 5.6008 20.1338 5.601C20.0536 5.59963 19.9876 5.67129 19.9864 5.76105C19.986 5.78515 19.9905 5.80906 19.9995 5.83099C20.015 5.87057 20.044 5.90156 20.0801 5.91713C20.2047 5.93349 20.3307 5.92911 20.4541 5.90413C20.3784 5.79243 20.2883 5.69386 20.1869 5.61158ZM21.2523 5.91957C21.3275 5.88658 21.3646 5.79162 21.3351 5.70747C21.3057 5.62331 21.2208 5.58183 21.1456 5.61482C21.0443 5.69691 20.9544 5.79527 20.8788 5.90666C21.0021 5.93143 21.1279 5.9358 21.2523 5.91957ZM12.8335 8.67208L12.5824 8.16032L12.3313 8.67208L11.7699 8.75415L12.1762 9.1525L12.0802 9.71497L12.5824 9.4494L13.0846 9.71497L12.9887 9.1525L13.395 8.75415L12.8335 8.67208ZM16.2247 1.28403L16.2265 16.3498L5.0589 8.80349L16.2247 1.28403ZM15.7754 8.11116L13.7591 6.59007L13.7487 6.49572L13.6364 6.49748L13.634 6.49572L13.6339 6.49753L13.5699 6.49853C13.4634 6.87056 13.0281 7.14958 12.506 7.14958C11.9999 7.14958 11.5783 6.88658 11.4557 6.53177L11.3014 6.53419L9.16004 8.14962L10.2307 9.34196L11.1335 8.81471L10.919 11.7267H14.3223L14.0123 8.89908L14.7047 9.30351L15.7754 8.11116ZM45.9296 10.0018C45.929 10.002 45.8606 10.0259 45.6623 9.94885C45.5187 9.89329 45.4797 9.82692 45.4788 9.79864C45.4853 9.73824 45.4439 9.68258 45.3836 9.67243C45.3224 9.66117 45.2622 9.70432 45.2516 9.76731C45.2474 9.79323 45.2201 10.0249 45.5799 10.1643C45.7201 10.2185 45.8225 10.2361 45.8965 10.2361C45.9861 10.2361 46.0338 10.2104 46.0556 10.1933C46.1055 10.1539 46.1221 10.0766 46.0831 10.0264C46.0437 9.976 45.9794 9.96282 45.9296 10.0018ZM52.0183 8.80349L40.8507 16.3498L40.8525 1.28403L52.0183 8.80349ZM42.8154 8.58773C42.8154 8.58773 43.4943 8.68889 44.0628 8.17847C44.6313 7.66806 44.8743 6.73933 44.8743 6.73933C44.8743 6.73933 43.6469 6.89478 43.2024 7.31306C42.6459 7.83672 42.8154 8.58773 42.8154 8.58773ZM47.2319 10.4213C47.2319 9.99416 47.0266 9.62764 46.5866 9.4711C46.4466 9.42129 46.2012 9.47041 46.0317 9.4751C46.0367 9.25866 46.0269 8.76746 45.8602 8.37803C45.7715 8.1707 45.6731 8.0117 45.594 7.88403C45.4876 7.71207 45.4107 7.58778 45.4107 7.44287C45.4107 7.44069 45.4096 7.43889 45.4095 7.43673C45.41 7.40078 45.4107 7.36633 45.4107 7.32748C45.4107 6.81376 45.4381 6.59459 45.4385 6.59233C45.4466 6.52923 45.4022 6.47131 45.3395 6.46309C45.2781 6.45486 45.2192 6.49926 45.2109 6.56236C45.2097 6.57171 45.1813 6.79528 45.1813 7.32748C45.1813 7.79659 45.1813 7.97215 44.6556 8.50075C44.4934 8.66403 44.365 8.80184 44.2185 8.95915L44.0653 9.12344C43.8545 9.34838 43.618 9.68949 43.5867 9.73492C43.418 9.72546 43.2075 9.7069 43.0909 9.75473C42.7233 9.90549 42.6001 10.2229 42.6001 10.5901C42.6001 11.103 43.1307 11.7267 43.7043 11.7267C44.1058 11.7267 44.5237 11.4012 44.701 11.0272C44.6052 10.8306 44.5503 10.6214 44.5503 10.4213C44.5503 10.2571 44.572 10.1168 44.6067 9.99326C44.5136 9.88197 44.389 9.79181 44.2273 9.7343C44.138 9.70252 44.0008 9.71605 43.8737 9.72811C43.9664 9.60071 44.1063 9.41604 44.2324 9.28164L44.3861 9.1169C44.5308 8.9614 44.6574 8.82516 44.8179 8.66391C45.1318 8.3483 45.2768 8.13459 45.3464 7.91855C45.3638 7.9475 45.3808 7.97612 45.3993 8.00606C45.4782 8.1334 45.5676 8.27786 45.6496 8.46931C45.7968 8.81354 45.806 9.26828 45.802 9.46764C45.6302 9.45739 45.4377 9.44745 45.3247 9.49379C44.9165 9.66118 44.7798 10.0136 44.7798 10.4213C44.7798 10.9909 45.3287 11.6834 46.0058 11.6834C46.6829 11.6834 47.2319 10.9909 47.2319 10.4213ZM43.6319 10.2014C43.6313 10.2016 43.5701 10.2201 43.3989 10.1538C43.2548 10.0982 43.2421 10.0373 43.2412 10.0291C43.2468 9.96924 43.2056 9.91436 43.1457 9.90434C43.0843 9.89295 43.0243 9.93622 43.0138 9.99922C43.0097 10.0236 42.984 10.2406 43.3165 10.3693C43.4437 10.4185 43.5376 10.4345 43.6057 10.4345C43.6904 10.4345 43.7357 10.4098 43.7563 10.3936C43.8062 10.3543 43.8235 10.2764 43.7843 10.2263C43.7455 10.176 43.6821 10.1622 43.6319 10.2014ZM34.981 8.82273C34.9284 8.82273 34.8854 8.866 34.8854 8.91888V11.467C34.8854 11.5199 34.9284 11.5632 34.981 11.5632C35.0336 11.5632 35.0766 11.5199 35.0766 11.467V8.91888C35.0766 8.866 35.0336 8.82273 34.981 8.82273ZM40.0859 1.28403L40.0877 16.3498L28.9201 8.80349L40.0859 1.28403ZM38.7189 9.06311C38.7189 9.19588 38.8259 9.30351 38.9579 9.30351C39.0899 9.30351 39.1969 9.19588 39.1969 9.06311C39.1969 8.93036 39.0899 8.82273 38.9579 8.82273C38.8259 8.82273 38.7189 8.93036 38.7189 9.06311ZM38.26 8.60156C38.26 8.68122 38.3242 8.74579 38.4034 8.74579C38.4826 8.74579 38.5468 8.68122 38.5468 8.60156C38.5468 8.5219 38.4826 8.45732 38.4034 8.45732C38.3242 8.45732 38.26 8.5219 38.26 8.60156ZM38.021 9.1208C38.021 9.19516 38.0809 9.25543 38.1549 9.25543C38.2288 9.25543 38.2887 9.19516 38.2887 9.1208C38.2887 9.04646 38.2288 8.98619 38.1549 8.98619C38.0809 8.98619 38.021 9.04646 38.021 9.1208ZM37.6291 8.18809C37.6291 8.27306 37.6975 8.34193 37.782 8.34193C37.8665 8.34193 37.935 8.27305 37.935 8.18809C37.935 8.10311 37.8665 8.03424 37.782 8.03424C37.6975 8.03424 37.6291 8.10311 37.6291 8.18809ZM37.3518 9.14004C37.3518 9.20908 37.4075 9.26504 37.4761 9.26504C37.5447 9.26504 37.6004 9.20908 37.6004 9.14004C37.6004 9.071 37.5447 9.01504 37.4761 9.01504C37.4075 9.01504 37.3518 9.071 37.3518 9.14004ZM36.8977 10.5224C36.4464 10.306 36.1509 9.94904 36.1509 9.5439H36.8977C36.8977 9.41447 36.8977 9.30828 36.8977 9.24581C36.8977 8.84195 36.0613 8.04386 36.0613 7.63038C36.0613 7.34206 36.0253 6.55926 36.0035 6.11111H36.1616V5.53416H35.2057V6.11111H35.3638C35.342 6.55926 35.306 7.34206 35.306 7.63038C35.306 8.04386 34.4696 8.80349 34.4696 9.24581C34.4696 9.68814 34.4696 11.7459 34.4696 11.7459C34.4696 11.8733 34.5723 11.9767 34.699 11.9767H36.6683C36.795 11.9767 36.8977 11.8733 36.8977 11.7459C36.8977 11.7459 36.8977 11.1434 36.8977 10.5224ZM39.4693 9.71338H36.3624C36.3624 10.1297 37.0083 10.4691 37.8226 10.4935C37.8226 10.6326 37.8226 11.7057 37.8226 11.7507C37.8226 11.7988 37.2491 11.8036 37.2491 11.8036C37.1886 11.8036 37.1391 11.8533 37.1391 11.9142C37.1391 11.975 37.1886 12.0247 37.2491 12.0247H38.5779C38.6383 12.0247 38.6878 11.975 38.6878 11.9142C38.6878 11.8533 38.6383 11.8036 38.5779 11.8036C38.5779 11.8036 38.0043 11.7988 38.0043 11.7507C38.0043 11.7057 38.0043 10.633 38.0043 10.4936C38.8209 10.4704 39.4693 10.1305 39.4693 9.71338ZM16.9913 18.1884L28.1571 25.7079L16.9895 33.2542L16.9913 18.1884ZM19.2456 24.193C19.2456 24.2858 19.3327 24.3617 19.4391 24.3617H19.9698C20.0763 24.3617 20.1634 24.2858 20.1634 24.193V24.0303C20.1634 23.9376 20.0763 23.8617 19.9698 23.8617H19.4391C19.3327 23.8617 19.2456 23.9376 19.2456 24.0303V24.193ZM18.7867 27.7056C18.7867 27.8126 18.8738 27.9002 18.9802 27.9002H23.3731C23.4796 27.9002 23.5666 27.8126 23.5666 27.7056V24.7102C23.5666 24.6031 23.4796 24.5155 23.3731 24.5155H22.7879C22.6277 24.1504 22.4373 23.7463 22.3789 23.7463H20.7775C20.7191 23.7463 20.5287 24.1504 20.3685 24.5155H18.9802C18.8738 24.5155 18.7867 24.6031 18.7867 24.7102V27.7056H18.7867ZM20.0869 26.1213C20.0869 25.2876 20.7588 24.6117 21.5878 24.6117C22.4167 24.6117 23.0886 25.2876 23.0886 26.1213C23.0886 26.9551 22.4167 27.631 21.5878 27.631C20.7588 27.631 20.0869 26.9551 20.0869 26.1213ZM20.5774 26.1213C20.5774 26.6826 21.0297 27.1376 21.5878 27.1376C22.1458 27.1376 22.5981 26.6826 22.5981 26.1213C22.5981 25.5601 22.1458 25.1051 21.5878 25.1051C21.0297 25.1051 20.5774 25.5601 20.5774 26.1213ZM21.2532 25.9194C21.3724 25.6782 21.4574 25.4626 21.3075 25.3876C21.1576 25.3127 20.9394 25.4475 20.8202 25.6887C20.7009 25.9299 20.7258 26.1863 20.8757 26.2612C21.0256 26.3362 21.1339 26.1606 21.2532 25.9194ZM16.2247 18.1884L16.2265 33.2542L5.0589 25.7079L16.2247 18.1884ZM7.78387 26.2104C8.20977 26.2064 9.28157 26.1893 10.6368 26.1157C10.8975 26.1015 11.1834 26.0827 11.4811 26.061C11.4576 26.011 11.431 25.9586 11.399 25.9041C11.2465 25.6433 10.8606 25.2902 10.8566 25.2866L11.0108 25.1157C11.0276 25.1311 11.4266 25.4964 11.5967 25.7869C11.6503 25.8785 11.6916 25.965 11.7246 26.0427C11.8392 26.0339 11.9546 26.0249 12.0708 26.0155C12.0526 25.9793 12.0331 25.9422 12.0107 25.9041C11.8584 25.6438 11.4723 25.2902 11.4685 25.2866L11.6227 25.1157C11.6395 25.1311 12.0383 25.4964 12.2083 25.7869C12.2511 25.8598 12.2867 25.9304 12.3162 25.9953C12.43 25.9858 12.5436 25.9762 12.6569 25.9664C12.6458 25.9458 12.635 25.9253 12.6226 25.9041C12.4703 25.6438 12.0842 25.2902 12.0804 25.2866L12.2345 25.1157C12.2514 25.1311 12.6502 25.4964 12.8202 25.7869C12.8523 25.8416 12.8792 25.8941 12.9037 25.9448C13.0174 25.9348 13.1296 25.9247 13.2403 25.9146C13.2383 25.9111 13.2366 25.9077 13.2345 25.9041C13.0819 25.6433 12.6961 25.2902 12.6921 25.2866L12.8462 25.1157C12.863 25.1311 13.2621 25.4964 13.4321 25.7869C13.453 25.8226 13.4721 25.8576 13.4897 25.8917C14.1165 25.8337 14.6634 25.7792 14.9907 25.7458L14.9745 25.7303C15.0044 25.6933 15.1201 25.4758 14.9416 24.7549C14.9256 24.7561 14.7176 24.0809 14.5673 23.7072C14.5578 23.6817 14.5408 23.6654 14.5163 23.6584C14.5163 23.6584 14.2148 23.4818 14.0427 23.7559C13.8706 24.0299 13.8176 24.4463 13.4691 24.4698C13.1207 24.4934 12.9797 24.3581 12.8812 24.2246C12.7827 24.0911 12.7521 24.0299 12.7163 23.8785C12.6804 23.727 12.6735 23.519 12.5585 23.4746L12.4351 23.4298C12.2956 23.3783 12.1499 23.4674 12.0495 23.5612C11.9491 23.6549 11.7842 23.828 11.5046 23.965C11.2249 24.102 10.9726 24.139 10.9726 24.139L10.8668 24.251C10.8588 24.2516 10.8593 24.2603 10.8593 24.2603L10.8598 24.269L10.8838 24.3136L10.771 24.3973L10.6805 24.3599C10.6725 24.3605 10.6725 24.3605 10.6725 24.3605L10.5247 24.4405C10.5167 24.4411 10.5177 24.4585 10.5177 24.4585L10.5527 24.5084L10.4284 24.5781L10.3294 24.5326L10.3214 24.5331C10.3214 24.5331 10.3214 24.5331 10.3134 24.5337L10.1741 24.6219L10.1746 24.6306L10.2186 24.6974L10.0921 24.7607L10.0091 24.7141C10.0091 24.7141 10.0006 24.7059 10.0011 24.7146L9.85279 24.786L9.84531 24.7952L9.84582 24.8039L9.87387 24.8718L9.76067 24.9477L9.67768 24.9011L9.66969 24.9016C9.66969 24.9016 9.66969 24.9016 9.6617 24.9022L9.52136 24.973L9.51388 24.9822L9.51438 24.9909L9.54243 25.0588L9.39424 25.1405L9.32724 25.0928C9.32724 25.0928 9.31874 25.0847 9.31126 25.0939C9.26481 25.1233 9.22687 25.1608 9.18894 25.1984C9.18145 25.2076 9.18145 25.2076 9.18996 25.2158L9.21864 25.2603C9.18922 25.3059 9.04292 25.3521 8.74896 25.5107C8.455 25.6694 7.98419 25.8906 7.78387 26.2104ZM15.0767 26.5175L15.0426 25.935L15.0421 25.9261C14.2578 26.0062 12.0745 26.1828 10.6467 26.3001C8.95929 26.4387 8.14999 26.3921 7.74886 26.3955L7.74081 26.7976C7.74183 26.815 7.75033 26.8231 7.76683 26.8307L8.17961 26.8895C8.60838 26.9471 9.05111 26.9689 9.4828 26.9391L15.0467 26.5545C15.0627 26.5534 15.0777 26.5349 15.0767 26.5175ZM47.7548 25.1694C47.7548 25.0736 47.7237 25.0015 47.6564 24.9422C47.456 24.7654 47.0143 24.7532 46.7516 24.7697C46.6909 25.3676 46.5191 25.9078 46.2702 26.347C47.0284 25.9631 47.7548 25.4822 47.7548 25.1694ZM40.8525 18.1884L52.0183 25.7079L40.8507 33.2542L40.8525 18.1884ZM44.2499 22.6135C44.2248 22.8733 44.6029 23.0932 44.5717 23.4163C44.5404 23.7393 44.5062 23.9418 44.5062 23.9418C44.5062 23.9418 44.9279 23.5615 44.9595 23.2348C44.9911 22.908 44.6125 22.6929 44.6378 22.432C44.663 22.171 44.7032 21.9065 44.7032 21.9065C44.7032 21.9065 44.2751 22.3536 44.2499 22.6135ZM42.5715 24.2847C42.5715 25.4837 43.0109 26.5269 43.6591 27.0685H45.6901C45.753 27.0159 45.8122 26.9547 45.871 26.893C46.555 26.5933 48.0761 25.8504 48.0761 25.1694C48.0761 24.9819 48.0042 24.8194 47.8684 24.6995C47.5784 24.4434 47.0574 24.4297 46.7705 24.4444C46.7723 24.3909 46.7778 24.3389 46.7778 24.2847H43.2402C43.231 24.4507 43.2365 24.6822 43.2941 24.9533C43.411 25.505 43.5952 25.7738 43.597 25.7765C43.6476 25.8493 43.6306 25.9501 43.5584 26.0014C43.5302 26.0215 43.4977 26.0312 43.4657 26.0312C43.4157 26.0312 43.3664 26.0078 43.3353 25.9638C43.3261 25.951 43.1121 25.6449 42.9799 25.0206C42.9172 24.7254 42.9096 24.4735 42.9189 24.2847H42.5715V24.2847ZM41.8784 27.2295C41.8784 27.4584 42.4626 27.6575 43.3245 27.7608H46.0247C46.8867 27.6575 47.4708 27.4584 47.4708 27.2295H41.8784ZM38.033 25.4458C38.0578 25.5524 38.0751 25.6619 38.0751 25.7761C38.0751 25.8813 38.0612 25.9827 38.04 26.0815C37.9875 26.3272 37.876 26.5508 37.7177 26.7338C37.6294 26.8357 37.5278 26.9254 37.4148 26.9995C37.1869 27.149 36.9153 27.2367 36.623 27.2367C36.3307 27.2367 36.0591 27.149 35.8313 26.9995C35.7183 26.9254 35.6167 26.8357 35.5284 26.7338C35.3064 26.4773 35.171 26.143 35.171 25.7761C35.171 25.4093 35.3064 25.075 35.5284 24.8185C35.6167 24.7165 35.7183 24.6269 35.8313 24.5527C36.0591 24.4033 36.3307 24.3156 36.623 24.3156C36.9153 24.3156 37.1869 24.4033 37.4148 24.5527C37.5278 24.6269 37.6294 24.7165 37.7177 24.8185C37.8705 24.9951 37.9782 25.2103 38.033 25.4458ZM37.3809 25.1472C37.3258 25.0838 37.2298 25.0776 37.1672 25.1333L36.7453 25.5055C36.7078 25.4883 36.6669 25.4775 36.623 25.4775C36.5961 25.4775 36.5719 25.4861 36.5471 25.4929L35.9606 24.7721C35.9071 24.7071 35.812 24.698 35.7474 24.7508C35.6828 24.8041 35.6732 24.9 35.7262 24.9653L36.338 25.7171C36.3339 25.7368 36.3261 25.7552 36.3261 25.7761C36.3261 25.9411 36.459 26.0748 36.623 26.0748C36.787 26.0748 36.92 25.9411 36.92 25.7761C36.92 25.7703 36.917 25.7654 36.9167 25.7596L37.367 25.3621C37.4298 25.3067 37.4362 25.2104 37.3809 25.1472ZM35.8313 27.3897V27.6833H37.4148V27.3897C37.1758 27.5085 36.9077 27.5771 36.623 27.5771C36.3384 27.5771 36.0703 27.5085 35.8313 27.3897ZM37.4148 24.1626V23.869H35.8313V24.1626C36.0703 24.0437 36.3384 23.9752 36.623 23.9752C36.9077 23.9752 37.1758 24.0437 37.4148 24.1626ZM40.0859 18.1884L40.0877 33.2542L28.9201 25.7079L40.0859 18.1884ZM38.6763 25.7628C38.6763 25.5771 38.7451 25.4267 38.3751 25.4168C38.288 24.9869 38.0503 24.6124 37.7177 24.3531V23.6347C37.7177 23.5959 37.6864 23.5644 37.6478 23.5644H37.2847V22.8828H35.9614V23.5644H35.5983C35.5597 23.5644 35.5284 23.5959 35.5284 23.6347V24.3531C35.1057 24.6825 34.8325 25.1967 34.8325 25.7761C34.8325 26.3556 35.1057 26.8698 35.5284 27.1992V27.9176C35.5284 27.9564 35.5597 27.9879 35.5983 27.9879H35.9614V28.6695H37.2847V27.9879H37.6478C37.6864 27.9879 37.7177 27.9564 37.7177 27.9176V27.1992C38.0572 26.9345 38.2975 26.5496 38.3799 26.1085C38.744 26.0973 38.6763 25.9476 38.6763 25.7628ZM28.9219 26.6502L40.0877 34.1697L28.9201 41.716L28.9219 26.6502ZM30.0309 32.9004H35.2659V32.7417C35.2659 32.6143 35.1632 32.511 35.0365 32.511H33.3512C32.7058 32.511 32.5192 31.5879 31.3865 31.5879C30.4544 31.5879 30.0309 32.3235 30.0309 32.7417C30.0309 32.7883 30.0309 32.8424 30.0309 32.9004ZM29.5428 35.3172C29.5643 35.3483 29.5994 35.3668 29.6371 35.3668H30.0673V36.362C30.0673 36.4258 30.1186 36.4774 30.182 36.4774C30.2454 36.4774 30.2967 36.4258 30.2967 36.362V35.3668H35.1148V36.362C35.1148 36.4258 35.1662 36.4774 35.2296 36.4774C35.293 36.4774 35.3443 36.4258 35.3443 36.362V35.3668H35.6454C35.6831 35.3668 35.7182 35.3483 35.7397 35.3172C35.761 35.2861 35.766 35.2465 35.753 35.2111L35.2874 33.9562C35.2831 33.9448 35.2732 33.9378 35.2659 33.9285V33.1023H30.0309C30.0309 33.3808 30.0309 33.7025 30.0309 33.91C30.016 33.9225 30.0023 33.9371 29.9951 33.9562L29.5295 35.2111C29.5165 35.2465 29.5215 35.2861 29.5428 35.3172ZM35.1056 34.1264H34.677L34.8089 34.6985H33.939L33.8813 34.1264H33.4963L33.5375 34.6985H32.7918L32.7671 34.1264H32.4233L32.3903 34.6985H31.6446L31.6859 34.1264H31.3421L31.2431 34.6985H30.421L30.5529 34.1264H30.1769L29.8024 35.136H35.4801L35.1056 34.1264ZM27.4139 36.9825H25.5915V34.357H27.4139V36.9825ZM26.6174 36.8524C26.6174 36.7887 26.566 36.737 26.5027 36.737C26.4393 36.737 26.388 36.7887 26.388 36.8524C26.388 36.9162 26.4393 36.9678 26.5027 36.9678C26.566 36.9678 26.6174 36.9162 26.6174 36.8524ZM27.2784 34.5061H25.727V36.7226H27.2784V34.5061ZM28.1553 26.6502L28.1571 41.716L16.9895 34.1697L28.1553 26.6502ZM25.3874 35.4536H24.1989H22.9682H21.0663V32.1357H26.1008V34.133H26.2364V32.0061H20.9307V35.5832H22.9682V36.2717H22.3073V36.7226H22.9682H24.1989H24.8598V36.2717H24.1989V35.5832H25.3874V35.4536ZM25.3874 34.133H25.9412V32.3196H21.2259V35.2697H22.9682H24.1989H25.3874V34.133ZM27.5495 34.2274H25.4559V37.1121H27.5495V34.2274ZM16.15 17.2821L4.98242 24.8284L4.98421 9.76265L16.15 17.2821ZM6.22511 18.3038H11.3543L11.0514 16.8273C11.0369 16.757 10.9787 16.7016 10.9027 16.6725C10.9086 16.6433 10.9034 16.6118 10.8855 16.5851L9.06685 13.8872C9.04821 13.7964 8.9941 13.7187 8.91985 13.6691L8.86316 13.585C8.84188 13.5535 8.80625 13.5344 8.76839 13.5344H8.76816C8.7303 13.5344 8.69467 13.5533 8.67339 13.5848L8.64803 13.6223C8.49767 13.6593 8.3857 13.7948 8.3857 13.9575C8.3857 13.973 8.38827 13.9878 8.39023 14.0028L6.64096 16.5849C6.61833 16.6184 6.61749 16.6589 6.63187 16.6936C6.57876 16.7255 6.53949 16.7716 6.52807 16.8273L6.22511 18.3038ZM11.4427 18.7346L11.4017 18.5346H6.17775L6.13672 18.7346C6.08381 18.9925 6.33221 19.2269 6.65848 19.2269H10.9209C11.2472 19.2269 11.4956 18.9925 11.4427 18.7346ZM8.72985 14.3037C8.64863 14.3037 8.57497 14.2742 8.51611 14.2269L6.8746 16.6499H10.6518L8.98897 14.1831C8.92587 14.2563 8.8338 14.3037 8.72985 14.3037ZM43.9425 16.8685C43.9392 16.7729 43.8595 16.6982 43.7646 16.7014C43.6696 16.7047 43.5952 16.7848 43.5985 16.8804C43.6018 16.9759 43.6814 17.0507 43.7764 17.0474C43.8714 17.0441 43.9457 16.964 43.9425 16.8685ZM52.0165 9.76265L52.0183 24.8284L40.8507 17.2821L52.0165 9.76265ZM43.8028 17.4652C44.2418 17.1204 45.1195 16.8812 45.5448 16.781C45.9015 16.6969 46.3141 16.6524 46.7378 16.6524C47.4527 16.6524 48.1473 16.7735 48.6937 16.9933C49.0112 17.1211 49.2236 17.2329 49.3787 17.3145C49.5551 17.4073 49.6364 17.4483 49.7148 17.4483C49.7533 17.4483 49.7988 17.4395 49.8579 17.4205C49.882 17.4127 49.9058 17.4071 49.9298 17.4001C49.6534 17.2891 49.3895 17.1468 49.5405 17.0489C49.8217 16.8668 50.6017 17.0345 50.6017 17.0345C50.6017 17.0345 50.1285 16.4432 48.9956 16.6884C48.5751 16.7794 48.6046 16.5165 47.7337 16.198C47.4804 16.1053 47.1713 16.0405 46.8734 15.996C46.7331 15.9751 46.6199 15.4867 46.4752 15.4763C46.2657 15.4614 45.9379 15.9529 45.7283 15.9601C45.3333 15.9738 44.8763 16.0196 44.536 16.1114C43.9241 16.2764 42.9173 16.6632 42.8135 17.0128C42.76 17.1934 43.2799 17.359 43.8028 17.4652ZM50.3722 17.8711C50.659 17.698 51.4477 17.8711 51.4477 17.8711C51.4477 17.8711 50.9602 17.3086 49.9277 17.6403C49.5179 17.772 49.4688 17.5538 48.6085 17.2076C47.7481 16.8614 46.5149 16.7893 45.5971 17.0057C44.9803 17.1511 43.8907 17.4961 43.776 17.8422C43.6613 18.1884 45.6975 18.549 45.7549 18.4624C45.8122 18.3759 45.8122 17.9288 45.8122 17.9288C45.8122 17.9288 45.8266 18.3326 46.4575 18.7653C47.0885 19.198 48.336 18.8951 47.9632 18.8086C47.5904 18.7221 47.2605 18.3615 47.2605 18.3615C47.2605 18.3615 47.525 18.4688 47.5718 18.4789C48.4125 18.6606 49.6855 18.0419 49.9707 18.2605C50.2719 18.4913 51.2756 18.3471 51.2756 18.3471C51.2756 18.3471 50.0855 18.0442 50.3722 17.8711ZM44.7368 17.5538C44.6417 17.5538 44.5647 17.6313 44.5647 17.7268C44.5647 17.8224 44.6417 17.8999 44.7368 17.8999C44.8318 17.8999 44.9088 17.8224 44.9088 17.7268C44.9088 17.6313 44.8318 17.5538 44.7368 17.5538ZM29.4172 19.4961L28.7289 22.1885L27.6965 22.6885L27.7347 21.5731L27.8112 19.5346L26.8552 19.5731L26.5811 18.677L25.9665 19.2261L25.6315 22.9578L23.7196 21.65L24.7138 21.0731L24.6254 19.4138L23.8343 19.8038L23.299 17.9192L24.5351 17.7179L24.4844 16.1499L23.4519 14.8037L24.3697 14.6114L25.5168 12.4575L26.2434 14.2652L26.9699 14.5344L26.9263 15.0614L28.1936 14.996L27.5817 12.419L29.7231 13.3421L29.2359 14.9632L30.6026 14.6883L31.4056 12.1497L33.2794 13.5344L31.5968 14.7652L33.1646 14.8806L33.7 16.3422L32.4381 16.3037L32.2852 17.9576L33.547 17.9961L34.0059 19.4961L32.3616 19.6115L31.9792 22.3424L30.985 22.9962L30.335 19.4577L29.4203 19.4945L29.4172 19.4961ZM29.7996 16.7653L29.6849 17.7268L29.7967 17.9452L30.9085 17.9192L30.7556 16.4191L29.7577 16.6361L29.7996 16.7653ZM27.9259 16.4191L27.0846 16.4576L26.8262 15.5218L26.1286 16.1883V17.4191L27.1993 17.4961L26.9506 18.0591L27.9259 18.0345V16.4191Z" fill="white"/>
</svg>
