<svg width="33" height="33" viewBox="0 0 33 33" fill="none" xmlns="http://www.w3.org/2000/svg">
<path d="M26.6836 9.5874C27.0395 9.5874 27.3281 9.29885 27.3281 8.94287V1.93359C27.3281 0.86741 26.4607 0 25.3945 0H1.93359C0.86741 0 0 0.86741 0 1.93359V31.0664C0 32.1326 0.86741 33 1.93359 33H25.3945C26.4607 33 27.3281 32.1326 27.3281 31.0664V26.318C27.3281 25.962 27.0395 25.6735 26.6836 25.6735C26.3277 25.6735 26.0391 25.962 26.0391 26.318V31.0664C26.0391 31.4218 25.7499 31.7109 25.3945 31.7109H1.93359C1.5782 31.7109 1.28906 31.4218 1.28906 31.0664V1.93359C1.28906 1.5782 1.5782 1.28906 1.93359 1.28906H25.3945C25.7499 1.28906 26.0391 1.5782 26.0391 1.93359V8.94287C26.0391 9.29885 26.3277 9.5874 26.6836 9.5874Z" fill="#613654"/>
<path d="M13.6641 3.48047C10.3944 3.48047 7.73438 6.14051 7.73438 9.41016C7.73438 11.1064 8.45045 12.6383 9.59591 13.7201C9.61737 13.743 9.64019 13.7647 9.66513 13.7845C10.7203 14.75 12.1245 15.3398 13.664 15.3398C15.2035 15.3398 16.6077 14.7499 17.6629 13.7845C17.6878 13.7647 17.7106 13.743 17.7321 13.7201C18.8777 12.6383 19.5937 11.1064 19.5937 9.41016C19.5937 6.14051 16.9337 3.48047 13.6641 3.48047ZM13.6641 14.0508C12.6116 14.0508 11.6403 13.6981 10.8609 13.1054C11.4274 12.1009 12.4845 11.4727 13.6641 11.4727C14.8436 11.4727 15.9007 12.1009 16.4672 13.1054C15.6878 13.6981 14.7165 14.0508 13.6641 14.0508ZM12.6328 9.15234V8.7334C12.6328 8.16479 13.0955 7.70215 13.6641 7.70215C14.2327 7.70215 14.6953 8.16479 14.6953 8.7334V9.15234C14.6953 9.72095 14.2327 10.1836 13.6641 10.1836C13.0955 10.1836 12.6328 9.72095 12.6328 9.15234ZM17.3985 12.1612C16.9231 11.4562 16.2643 10.9079 15.4995 10.5694C15.8031 10.1771 15.9844 9.68563 15.9844 9.15234V8.7334C15.9844 7.45394 14.9435 6.41309 13.6641 6.41309C12.3846 6.41309 11.3437 7.45394 11.3437 8.7334V9.15234C11.3437 9.68563 11.5251 10.1771 11.8286 10.5694C11.0638 10.9079 10.405 11.4562 9.92965 12.1612C9.36059 11.3908 9.02344 10.4393 9.02344 9.41016C9.02344 6.8513 11.1052 4.76953 13.6641 4.76953C16.2229 4.76953 18.3047 6.8513 18.3047 9.41016C18.3047 10.4393 17.9675 11.3908 17.3985 12.1612Z" fill="#613654"/>
<path d="M17.1445 28.2305H13.6641C13.3082 28.2305 13.0195 28.519 13.0195 28.875C13.0195 29.231 13.3082 29.5195 13.6641 29.5195H17.1445C17.5004 29.5195 17.789 29.231 17.789 28.875C17.789 28.519 17.5004 28.2305 17.1445 28.2305Z" fill="#613654"/>
<path d="M17.1445 24.6211H7.99219C7.63628 24.6211 7.34766 24.9097 7.34766 25.2656C7.34766 25.6216 7.63628 25.9102 7.99219 25.9102H17.1445C17.5004 25.9102 17.789 25.6216 17.789 25.2656C17.789 24.9097 17.5004 24.6211 17.1445 24.6211Z" fill="#613654"/>
<path d="M17.1445 21.0117H7.99219C7.63628 21.0117 7.34766 21.3003 7.34766 21.6562C7.34766 22.0122 7.63628 22.3008 7.99219 22.3008H17.1445C17.5004 22.3008 17.789 22.0122 17.789 21.6562C17.789 21.3003 17.5004 21.0117 17.1445 21.0117Z" fill="#613654"/>
<path d="M5.69455 17.5912C5.57473 17.4713 5.40844 17.4023 5.23828 17.4023C5.06871 17.4023 4.90242 17.4713 4.7826 17.5912C4.66271 17.7111 4.59375 17.8774 4.59375 18.0469C4.59375 18.2164 4.66265 18.3827 4.7826 18.5026C4.90313 18.6224 5.06871 18.6914 5.23828 18.6914C5.40844 18.6914 5.57408 18.6224 5.69455 18.5026C5.81443 18.3827 5.88346 18.2164 5.88346 18.0469C5.88346 17.8774 5.81449 17.7111 5.69455 17.5912Z" fill="#613654"/>
<path d="M5.69455 21.2006C5.57408 21.0807 5.40844 21.0117 5.23828 21.0117C5.06871 21.0117 4.90313 21.0807 4.7826 21.2006C4.66271 21.3204 4.59375 21.4867 4.59375 21.6562C4.59375 21.8258 4.66265 21.9921 4.7826 22.1119C4.90313 22.2318 5.06871 22.3008 5.23828 22.3008C5.40844 22.3008 5.57408 22.2318 5.69455 22.1119C5.81443 21.9921 5.88346 21.8258 5.88346 21.6562C5.88346 21.4867 5.81449 21.3204 5.69455 21.2006Z" fill="#613654"/>
<path d="M5.69455 24.8099C5.57408 24.6901 5.40844 24.6211 5.23828 24.6211C5.06871 24.6211 4.90313 24.6901 4.7826 24.8099C4.66271 24.9298 4.59375 25.0961 4.59375 25.2656C4.59375 25.4351 4.66265 25.6014 4.7826 25.7213C4.90242 25.8412 5.06871 25.9102 5.23828 25.9102C5.40844 25.9102 5.57473 25.8412 5.69455 25.7213C5.81443 25.6014 5.88346 25.4351 5.88346 25.2656C5.88346 25.0961 5.81449 24.9298 5.69455 24.8099Z" fill="#613654"/>
<path d="M17.1445 17.4023H7.99219C7.63628 17.4023 7.34766 17.6909 7.34766 18.0469C7.34766 18.4028 7.63628 18.6914 7.99219 18.6914H17.1445C17.5004 18.6914 17.789 18.4028 17.789 18.0469C17.789 17.6909 17.5004 17.4023 17.1445 17.4023Z" fill="#613654"/>
<path d="M31.6457 8.39947C31.0196 8.03795 30.2901 7.94192 29.5916 8.12903C28.8931 8.3162 28.3093 8.76415 27.9479 9.39031L19.837 23.4387C19.7926 23.5157 19.7645 23.6011 19.7546 23.6895L19.1837 28.8035C19.1553 29.0579 19.2802 29.3051 19.5019 29.4332C19.602 29.4909 19.7132 29.5195 19.8241 29.5195C19.959 29.5195 20.0933 29.4773 20.2064 29.394L24.3497 26.3425C24.4213 26.2898 24.4813 26.2228 24.5257 26.1458L32.6365 12.0974C33.3829 10.8047 32.9384 9.14584 31.6457 8.39947ZM20.6282 27.4824L20.9264 24.8119L22.7918 25.889L20.6282 27.4824ZM23.7316 24.943L21.2756 23.5251L27.7844 12.2516L30.2404 13.6695L23.7316 24.943ZM31.5202 11.4528L30.8849 12.5532L28.4289 11.1352L29.0642 10.0348C29.2536 9.70684 29.5593 9.47223 29.9252 9.37419C30.2911 9.2761 30.6732 9.3265 31.0011 9.51586C31.3291 9.70523 31.5638 10.011 31.6618 10.3768C31.7598 10.7427 31.7095 11.1248 31.5202 11.4528Z" fill="#613654"/>
</svg>
