<svg width="62" height="62" viewBox="0 0 62 62" fill="none" xmlns="http://www.w3.org/2000/svg">
<g clip-path="url(#clip0)">
<path d="M53.3483 25.7962L55.4138 20.7939C56.2236 18.8331 55.4993 16.6038 53.6914 15.4932L49.0802 12.6605L47.811 7.39968C47.3134 5.33716 45.416 3.95924 43.3019 4.12355L37.9063 4.54225L33.7873 1.03208C32.1725 -0.344025 29.8285 -0.344025 28.2136 1.03208L24.0946 4.54225L18.6991 4.12355C16.5838 3.96021 14.6875 5.33716 14.1899 7.39968L12.9208 12.6606L8.30961 15.4933C6.50185 16.6039 5.77742 18.8332 6.58721 20.7941L8.65276 25.7963L6.58721 30.7985C5.77742 32.7593 6.50173 34.9887 8.30961 36.0992L12.9208 38.932L14.1899 44.1929C14.6219 45.9834 16.109 47.2571 17.8771 47.4547L12.8983 58.6072C12.5452 59.398 12.6929 60.2828 13.2836 60.916C13.8742 61.5493 14.7464 61.7585 15.5598 61.4613L18.7789 60.2863C19.0011 60.2048 19.2421 60.2141 19.4574 60.3115L22.7731 61.8114C23.0513 61.9372 23.3478 62.0001 23.644 62.0001C23.9641 62.0001 24.2839 61.9268 24.5796 61.7807C25.1489 61.4993 25.5579 60.9831 25.7015 60.3645L26.4348 57.2059C26.5483 56.7174 26.2441 56.2294 25.7555 56.116C25.2671 56.0019 24.779 56.3068 24.6657 56.7951L23.9324 59.9537C23.9048 60.0725 23.822 60.1291 23.775 60.1524C23.728 60.1756 23.6326 60.2066 23.5217 60.1567L20.206 58.6568C19.5551 58.3622 18.8271 58.3352 18.1562 58.5801L14.9369 59.7552C14.773 59.8148 14.6628 59.7322 14.6118 59.6774C14.5607 59.6225 14.4857 59.5069 14.5567 59.3474L19.9013 47.3755L22.7004 47.1583L20.9366 52.4497C20.778 52.9256 21.0351 53.4399 21.511 53.5984C21.8694 53.7081 22.4018 53.5983 22.6597 53.0241L24.528 47.4193L26.46 49.0658L25.6211 52.6794C25.5077 53.168 25.8118 53.6559 26.3004 53.7694C26.6784 53.8581 27.2102 53.6553 27.3903 53.0902L28.0166 50.3924C28.7115 51.0703 29.9583 51.6117 31.0005 51.5924C31.9319 51.6066 33.1455 51.1773 33.9616 50.4118L36.268 60.3472C36.4138 60.9751 36.8307 61.4952 37.412 61.774C37.7024 61.9134 38.0142 61.9831 38.3258 61.9831C38.638 61.9831 38.9501 61.9133 39.2408 61.7735L42.2256 60.3392C42.4414 60.2353 42.6847 60.2217 42.9106 60.3006L46.4703 61.5412C47.2817 61.8238 48.1467 61.6067 48.728 60.974C49.3093 60.3414 49.4528 59.4611 49.1026 58.6765L47.3061 54.6524C47.1016 54.1945 46.5645 53.9888 46.1067 54.1934C45.6488 54.3978 45.4433 54.9349 45.6477 55.3929L47.4442 59.4169C47.5148 59.5749 47.441 59.6903 47.3906 59.745C47.3404 59.7998 47.2315 59.8832 47.0681 59.826L43.5083 58.5854C42.8256 58.3475 42.0908 58.3888 41.439 58.702L38.454 60.1365C38.3426 60.19 38.2455 60.1595 38.1976 60.1366C38.1496 60.1136 38.0651 60.0571 38.0372 59.9365L35.5182 49.0853L37.6614 47.2588L39.5833 53.0243C39.7101 53.4048 40.0644 53.6454 40.4446 53.6454C40.5398 53.6454 40.6367 53.6303 40.732 53.5985C41.2078 53.4399 41.4649 52.9256 41.3064 52.4498L39.549 47.1777L42.0674 47.3731L43.9157 51.5134C44.0665 51.8511 44.3981 52.0515 44.7455 52.0515C44.8691 52.0515 44.9949 52.026 45.1151 51.9724C45.5732 51.768 45.7787 51.2309 45.5743 50.773L44.0945 47.4582C45.8759 47.2716 47.3767 45.9932 47.811 44.1927L49.0801 38.9318L53.6913 36.0991C55.4991 34.9885 56.2235 32.7592 55.4137 30.7984L53.3483 25.7962ZM52.7407 34.5517L48.0225 37.4501C47.6794 37.6611 47.4384 37.9927 47.3439 38.3844L46.0454 43.767C45.7581 44.9576 44.6641 45.7523 43.4424 45.6582L37.9216 45.2298C37.5196 45.1986 37.1302 45.3256 36.8235 45.5868L32.6093 49.1781C31.6773 49.9726 30.324 49.9725 29.3918 49.1782L25.1771 45.5865C24.9789 45.4189 24.5363 45.1977 24.0789 45.2298L18.5585 45.6582C17.3374 45.7526 16.2427 44.9577 15.9555 43.767L14.6569 38.3843C14.5624 37.9928 14.3214 37.6611 13.978 37.4499L9.26011 34.5517C8.2165 33.9105 7.79828 32.6237 8.26578 31.4917L10.3792 26.3738C10.5329 26.0013 10.5329 25.5912 10.3792 25.2188L8.2659 20.1009C7.7984 18.9687 8.21662 17.6819 9.26023 17.0409L13.9784 14.1424C14.3215 13.9315 14.5625 13.5998 14.657 13.2081L15.9555 7.82552C16.2427 6.63492 17.3365 5.83989 18.5585 5.93434L24.0793 6.36273C24.4816 6.39457 24.8707 6.26707 25.1774 6.00578L29.3916 2.41447C30.3237 1.62005 31.6771 1.62017 32.6092 2.41435L36.8238 6.00602C37.1304 6.26695 37.5207 6.39324 37.922 6.36273L43.4424 5.93434C44.6641 5.84135 45.7581 6.63492 46.0454 7.82552L47.344 13.2082C47.4385 13.5997 47.6796 13.9315 48.0229 14.1426L52.7408 17.0409C53.7844 17.682 54.2026 18.9689 53.7351 20.1009L51.6218 25.2188C51.468 25.5912 51.468 26.0013 51.6218 26.3738L53.7351 31.4917C54.2025 32.6237 53.7844 33.9105 52.7407 34.5517Z" fill="#613654"/>
<path d="M49.9951 26.3734C49.8415 26.0012 49.8415 25.5913 49.9951 25.2191L52.171 19.9498C52.4563 19.259 52.2011 18.4739 51.5645 18.0828L46.7069 15.0987C46.3638 14.8879 46.1228 14.5563 46.0284 14.1648L44.6914 8.62274C44.516 7.89624 43.8474 7.4101 43.1034 7.46918L37.4196 7.91029C37.0175 7.94104 36.6281 7.81463 36.3217 7.55358L31.9826 3.85584C31.4138 3.37103 30.5882 3.37091 30.0196 3.85584L25.6805 7.55346C25.374 7.81463 24.9841 7.94129 24.5826 7.91017L18.899 7.46906C18.1536 7.41252 17.4861 7.89612 17.3106 8.62274L15.9736 14.1648C15.8792 14.5561 15.6382 14.8879 15.2951 15.0987L10.4375 18.0828C9.80074 18.4738 9.54562 19.259 9.83089 19.9496L12.0067 25.2191C12.1604 25.5913 12.1604 26.0012 12.0067 26.3734L9.83089 31.6428C9.54562 32.3336 9.80074 33.1187 10.4374 33.5098L15.295 36.4939C15.6381 36.7047 15.8791 37.0363 15.9735 37.4278L17.3105 42.9698C17.4858 43.6963 18.1551 44.1833 18.8985 44.1234L24.5822 43.6823C24.9846 43.6514 25.3738 43.778 25.6802 44.039L30.0193 47.7366C30.3037 47.979 30.6522 48.1002 31.0008 48.1002C31.3493 48.1001 31.698 47.979 31.9823 47.7366L36.3214 44.039C36.6279 43.7779 37.0181 43.6512 37.4193 43.6823L43.1029 44.1234C43.8475 44.1787 44.5158 43.6962 44.6912 42.9697L46.0282 37.4276C46.1227 37.0363 46.3636 36.7045 46.7068 36.4937L51.5644 33.5097C52.2011 33.1187 52.4563 32.3335 52.171 31.6428L49.9951 26.3734ZM50.4923 19.2564L50.4919 19.2575C50.4919 19.2572 50.4922 19.2568 50.4923 19.2564ZM45.7562 34.9462C45.001 35.4102 44.4706 36.1402 44.2629 37.0018L42.9865 42.2926L37.56 41.8715C36.6764 41.8025 35.8182 42.0819 35.1437 42.6567L31.0012 46.1867L26.8587 42.6567C26.3078 42.2003 25.3702 41.7812 24.4423 41.8715L19.0158 42.2926L17.7395 37.0018C17.5316 36.1403 17.0013 35.4102 16.2461 34.9462L11.6085 32.0973L13.6858 27.0666C14.0241 26.2474 14.0241 25.3452 13.6858 24.5261L11.6085 19.4953L16.2461 16.6465C17.0013 16.1825 17.5316 15.4525 17.7394 14.5909L19.0157 9.30007L24.4423 9.7212C25.3257 9.79046 26.184 9.51088 26.8586 8.93598L31.0011 5.40594L35.1435 8.93598C35.8181 9.51076 36.6766 9.78973 37.56 9.7212L42.9864 9.30007L44.2627 14.5909C44.4706 15.4524 45.001 16.1825 45.7562 16.6465L50.3937 19.4953L48.3165 24.5261C47.9781 25.3453 47.9781 26.2475 48.3165 27.0666L50.3937 32.0973L45.7562 34.9462Z" fill="#613654"/>
<path d="M42.441 23.9231C42.76 23.4724 42.9475 22.9227 42.9475 22.33C42.9475 20.8058 41.7075 19.566 40.1835 19.566H36.0332C34.8245 19.5861 33.6535 18.4017 33.9265 16.9752L34.3651 14.6247C34.7094 12.7795 33.7771 10.9134 32.0979 10.0867C31.6042 9.8434 31.0294 9.82536 30.5211 10.0368C30.0115 10.2488 29.6179 10.671 29.4414 11.1953L28.5409 13.8713C28.381 14.3467 28.6367 14.8617 29.1119 15.0216C29.5874 15.1814 30.1024 14.926 30.2622 14.4505L31.1626 11.7745C31.1724 11.7455 31.1913 11.7249 31.2185 11.7135C31.2576 11.6972 31.2861 11.7115 31.2955 11.7161C32.247 12.1845 32.775 13.2435 32.5795 14.2916L32.141 16.6419C31.6536 18.9207 33.5196 21.4333 36.0332 21.3822H40.1835C40.706 21.3822 41.1313 21.8074 41.1313 22.33C41.1313 22.8526 40.706 23.2779 40.1835 23.2779H37.6398C37.1382 23.2779 36.7316 23.6843 36.7316 24.186C36.7316 24.6876 37.1382 25.0941 37.6398 25.0941H40.6679C41.1905 25.0941 41.6157 25.5193 41.6157 26.0419C41.6157 26.5646 41.1905 26.9899 40.6679 26.9899H37.6398C37.1382 26.9899 36.7316 27.3964 36.7316 27.898C36.7316 28.3996 37.1382 28.8061 37.6398 28.8061H40.1835C40.706 28.8061 41.1313 29.2314 41.1313 29.754C41.1313 30.2765 40.706 30.7018 40.1835 30.7018H37.6398C37.1382 30.7018 36.7316 31.1083 36.7316 31.6099C36.7316 32.1115 37.1382 32.518 37.6398 32.518H38.9022C39.4134 32.518 39.8292 32.9339 39.8292 33.445C39.8292 33.9561 39.4133 34.372 38.9022 34.372H29.1657C26.9693 34.372 25.8698 32.9694 25.5664 32.506V22.7499C26.9513 21.8637 28.1383 20.3588 28.871 18.5334C29.0578 18.0679 28.832 17.5392 28.3666 17.3523C27.9011 17.1651 27.3723 17.3912 27.1855 17.8568C26.7311 18.9889 26.0542 19.981 25.2791 20.6864C24.8998 20.0184 24.183 19.566 23.3615 19.566H21.697C20.4812 19.566 19.4922 20.5551 19.4922 21.7707V26.6363C19.4922 27.138 19.8988 27.5444 20.4003 27.5444C20.9018 27.5444 21.3084 27.138 21.3084 26.6363V21.7706C21.3084 21.5563 21.4828 21.3821 21.697 21.3821H23.3615C23.5758 21.3821 23.75 21.5563 23.75 21.7706V33.9835C23.75 34.1978 23.5757 34.372 23.3615 34.372H21.697C21.4827 34.372 21.3084 34.1978 21.3084 33.9835V30.8972C21.3084 30.3956 20.9018 29.9891 20.4003 29.9891C19.8988 29.9891 19.4922 30.3956 19.4922 30.8972V33.9835C19.4922 35.1991 20.4813 36.1883 21.697 36.1883H23.3615C24.2459 36.1883 25.0082 35.6636 25.3592 34.9104C26.2119 35.5787 27.4569 36.1883 29.1656 36.1883H38.902C40.4147 36.1883 41.6453 34.9577 41.6453 33.445C41.6453 33.0169 41.5466 32.6111 41.3709 32.2496C42.3024 31.8046 42.9474 30.8533 42.9474 29.754C42.9474 29.1611 42.7598 28.6113 42.4409 28.1609C43.0463 27.6534 43.4319 26.8919 43.4319 26.0419C43.4321 25.192 43.0464 24.4304 42.441 23.9231Z" fill="#613654"/>
</g>
<defs>
<clipPath id="clip0">
<rect width="62" height="62" fill="white"/>
</clipPath>
</defs>
</svg>
