<svg width="49" height="40" viewBox="0 0 49 40" fill="none" xmlns="http://www.w3.org/2000/svg">
<g clip-path="url(#clip0)">
<path d="M20.5859 37.063C12.4735 37.8688 5.4708 34.1772 4.94301 28.813C4.41652 23.4501 10.5682 18.4488 18.6793 17.6411C26.7923 16.8327 33.7957 20.5256 34.3222 25.8871C34.848 31.252 28.6989 36.2546 20.5859 37.063ZM36.8125 19.2579C36.1225 19.0505 35.6495 18.9081 36.0104 17.9954C36.793 16.0125 36.8738 14.3025 36.0254 13.082C34.4349 10.794 30.0822 10.9167 25.0929 13.021C25.0929 13.0177 23.5265 13.7113 23.9266 12.46C24.6942 9.97507 24.5782 7.89436 23.3838 6.69292C20.6777 3.96523 13.4796 6.79594 7.30634 13.0099C2.68392 17.6654 0 22.5991 0 26.8655C0 35.0263 10.3923 39.9875 20.5591 39.9875C33.8862 39.9875 42.7518 32.1896 42.7518 25.9994C42.7518 22.2585 39.6235 20.1358 36.8125 19.2579Z" fill="url(#paint0_linear)"/>
<path d="M45.6615 4.32415C42.4433 0.730977 37.6958 -0.638446 33.3138 0.299218H33.3125C33.0715 0.351049 32.843 0.450166 32.6401 0.59091C32.4372 0.731655 32.2638 0.91127 32.1298 1.1195C31.9958 1.32773 31.9039 1.5605 31.8592 1.80452C31.8145 2.04853 31.818 2.29902 31.8695 2.54167C31.921 2.78432 32.0194 3.01439 32.1592 3.21874C32.2989 3.42309 32.4773 3.59771 32.6841 3.73264C32.8909 3.86757 33.122 3.96017 33.3643 4.00514C33.6066 4.05012 33.8554 4.04659 34.0963 3.99476C37.2136 3.32809 40.5869 4.30447 42.8766 6.85565C43.9616 8.06648 44.7109 9.54365 45.0491 11.1386C45.3873 12.7336 45.3026 14.3901 44.8034 15.9416L44.804 15.9423C44.7279 16.1784 44.6988 16.4273 44.7183 16.6748C44.7379 16.9223 44.8058 17.1635 44.9181 17.3845C45.0304 17.6055 45.1848 17.802 45.3727 17.9628C45.5605 18.1236 45.778 18.2455 46.0127 18.3215C46.4858 18.4756 47.0003 18.4343 47.4431 18.2067C47.886 17.9791 48.2211 17.5838 48.3748 17.1076L48.3754 17.0997C49.749 12.8071 48.881 7.91339 45.6615 4.32415Z" fill="url(#paint1_linear)"/>
<path d="M40.7172 8.81561C39.1508 7.06561 36.8383 6.40092 34.703 6.85826C34.4905 6.89741 34.288 6.97908 34.1074 7.09845C33.9269 7.21782 33.7719 7.37246 33.6518 7.55321C33.5316 7.73396 33.4487 7.93716 33.4079 8.15076C33.3672 8.36436 33.3694 8.58403 33.4144 8.79676C33.4594 9.00949 33.5464 9.21096 33.6702 9.38923C33.7939 9.56751 33.9519 9.71898 34.1348 9.83466C34.3177 9.95034 34.5218 10.0279 34.7351 10.0627C34.9483 10.0975 35.1662 10.0889 35.3761 10.0374V10.0387C35.9066 9.92447 36.4576 9.95259 36.9739 10.1203C37.4902 10.2879 37.9538 10.5893 38.318 10.9941C38.6817 11.3999 38.9326 11.8951 39.0455 12.4298C39.1584 12.9645 39.1293 13.5196 38.9612 14.0394H38.9625C38.8307 14.4498 38.8662 14.8961 39.061 15.2803C39.2559 15.6644 39.5943 15.9549 40.0018 16.0879C40.4095 16.2203 40.8528 16.1842 41.2342 15.9876C41.6155 15.791 41.9037 15.4499 42.0354 15.0394C42.7065 12.9482 42.2869 10.565 40.7172 8.81561Z" fill="url(#paint2_linear)"/>
<path d="M21.0323 27.3484C20.7482 27.8379 20.1213 28.0728 19.63 27.8688C19.1466 27.668 18.9947 27.1221 19.2697 26.6417C19.5525 26.1641 20.1559 25.9311 20.6374 26.1234C21.1274 26.3038 21.3033 26.857 21.0323 27.3484ZM18.4474 30.6903C17.6629 31.9508 15.9824 32.5033 14.7164 31.9213C13.4692 31.3497 13.101 29.8845 13.8869 28.6555C14.6616 27.4318 16.2854 26.8858 17.5417 27.416C18.8123 27.9619 19.2189 29.4167 18.4474 30.6903ZM21.3959 21.7677C17.5352 20.7559 13.1714 22.6936 11.4949 26.1194C9.78703 29.6129 11.4388 33.4908 15.338 34.7592C19.3785 36.0709 24.1404 34.061 25.7961 30.2894C27.4296 26.603 25.3908 22.8078 21.3959 21.7677Z" fill="url(#paint3_linear)"/>
</g>
<defs>
<linearGradient id="paint0_linear" x1="6.12391" y1="12.1337" x2="5.37882" y2="35.8498" gradientUnits="userSpaceOnUse">
<stop stop-color="#DC5160"/>
<stop offset="1" stop-color="#B52B3A"/>
</linearGradient>
<linearGradient id="paint1_linear" x1="34.2884" y1="3.48524" x2="33.7561" y2="16.1858" gradientUnits="userSpaceOnUse">
<stop stop-color="#DC5160"/>
<stop offset="1" stop-color="#B52B3A"/>
</linearGradient>
<linearGradient id="paint2_linear" x1="34.663" y1="8.50123" x2="34.3941" y2="15.0231" gradientUnits="userSpaceOnUse">
<stop stop-color="#DC5160"/>
<stop offset="1" stop-color="#B52B3A"/>
</linearGradient>
<linearGradient id="paint3_linear" x1="13.0498" y1="24.0776" x2="12.7253" y2="33.5124" gradientUnits="userSpaceOnUse">
<stop stop-color="#DC5160"/>
<stop offset="1" stop-color="#B52B3A"/>
</linearGradient>
<clipPath id="clip0">
<rect width="49" height="40" fill="white"/>
</clipPath>
</defs>
</svg>
