<svg width="75" height="61" viewBox="0 0 75 61" fill="none" xmlns="http://www.w3.org/2000/svg">
<g clip-path="url(#clip0)">
<path d="M31.509 56.5211C19.0921 57.7499 8.37367 52.1202 7.56582 43.9398C6.75997 35.7615 16.1759 28.1345 28.5908 26.9027C41.0086 25.6698 51.7281 31.3015 52.5339 39.4779C53.3388 47.6593 43.9269 55.2883 31.509 56.5211ZM56.3457 29.3683C55.2896 29.0521 54.5655 28.8349 55.118 27.443C56.3158 24.419 56.4395 21.8113 55.141 19.9501C52.7064 16.4608 46.0442 16.6479 38.4076 19.857C38.4076 19.852 36.01 20.9097 36.6223 19.0015C37.7972 15.212 37.6197 12.0389 35.7916 10.2067C31.6496 6.04698 20.632 10.3638 11.1832 19.84C4.10805 26.9397 0 34.4636 0 40.9699C0 53.415 15.9066 60.981 31.4681 60.981C51.8667 60.981 65.4365 49.0892 65.4365 39.649C65.4365 33.9443 60.6483 30.7071 56.3457 29.3683Z" fill="white"/>
<path d="M69.8923 6.59426C64.9664 1.11467 57.6998 -0.973703 50.9927 0.456234H50.9907C50.6219 0.535276 50.2722 0.68643 49.9616 0.901065C49.651 1.1157 49.3856 1.38961 49.1805 1.70717C48.9754 2.02472 48.8347 2.37969 48.7663 2.75182C48.698 3.12394 48.7033 3.50593 48.7821 3.87598C48.8609 4.24602 49.0115 4.59687 49.2255 4.9085C49.4394 5.22013 49.7124 5.48643 50.0289 5.6922C50.3454 5.89797 50.6992 6.03918 51.0701 6.10777C51.441 6.17635 51.8217 6.17097 52.1905 6.09193C56.9618 5.07526 62.125 6.56424 65.6297 10.4548C67.2904 12.3013 68.4372 14.554 68.9549 16.9863C69.4726 19.4186 69.3429 21.9448 68.5788 24.3109L68.5798 24.3119C68.4633 24.672 68.4187 25.0516 68.4487 25.429C68.4786 25.8064 68.5825 26.1742 68.7544 26.5113C68.9262 26.8483 69.1627 27.148 69.4502 27.3933C69.7377 27.6385 70.0706 27.8244 70.4299 27.9403C71.154 28.1752 71.9414 28.1122 72.6192 27.7651C73.2971 27.418 73.81 26.8152 74.0452 26.089L74.0462 26.077C76.1486 19.5307 74.8202 12.0678 69.8923 6.59426Z" fill="white"/>
<path d="M62.3259 13.4438C59.9283 10.775 56.3887 9.76135 53.1204 10.4588C52.7952 10.5185 52.4852 10.6431 52.2089 10.8251C51.9325 11.0071 51.6953 11.243 51.5114 11.5186C51.3275 11.7943 51.2006 12.1041 51.1382 12.4299C51.0758 12.7556 51.0791 13.0906 51.1481 13.415C51.217 13.7394 51.3501 14.0467 51.5395 14.3185C51.7289 14.5904 51.9708 14.8214 52.2508 14.9978C52.5307 15.1742 52.8431 15.2925 53.1695 15.3456C53.4958 15.3987 53.8295 15.3856 54.1507 15.307V15.309C54.9627 15.1348 55.806 15.1777 56.5963 15.4334C57.3866 15.6891 58.0961 16.1486 58.6537 16.7659C59.2102 17.3848 59.5943 18.14 59.7671 18.9554C59.94 19.7707 59.8954 20.6174 59.638 21.41H59.64C59.4383 22.0359 59.4926 22.7166 59.7909 23.3024C60.0892 23.8882 60.6071 24.3312 61.2308 24.534C61.8549 24.7359 62.5334 24.6809 63.1171 24.3811C63.7008 24.0812 64.1419 23.5611 64.3435 22.935C65.3707 19.7459 64.7285 16.1115 62.3259 13.4438Z" fill="white"/>
<path d="M32.1929 41.7063C31.7581 42.4528 30.7986 42.8111 30.0467 42.4999C29.3066 42.1937 29.0742 41.3611 29.4951 40.6286C29.928 39.9002 30.8515 39.5449 31.5885 39.8381C32.3385 40.1133 32.6078 40.9569 32.1929 41.7063ZM28.2365 46.8027C27.0357 48.725 24.4635 49.5675 22.5257 48.6799C20.6168 47.8083 20.0533 45.5739 21.2561 43.6997C22.4419 41.8334 24.9273 41.0009 26.8502 41.8094C28.795 42.642 29.4173 44.8604 28.2365 46.8027ZM32.7494 33.1958C26.8402 31.6528 20.161 34.6077 17.5949 39.8321C14.9808 45.1596 17.5091 51.0735 23.4772 53.0078C29.6617 55.0081 36.9502 51.9431 39.4845 46.1913C41.9848 40.5696 38.8641 34.7818 32.7494 33.1958Z" fill="white"/>
</g>
<defs>
<clipPath id="clip0">
<rect width="75" height="61" fill="white"/>
</clipPath>
</defs>
</svg>
