<svg width="75" height="61" viewBox="0 0 75 61" fill="none" xmlns="http://www.w3.org/2000/svg">
<path fill-rule="evenodd" clip-rule="evenodd" d="M50.9927 0.456234C57.6998 -0.973703 64.9664 1.11467 69.8923 6.59426C74.8202 12.0678 76.1486 19.5307 74.0462 26.077L74.0452 26.089C73.81 26.8152 73.2971 27.418 72.6192 27.7651C71.9414 28.1122 71.154 28.1752 70.4299 27.9403C70.0706 27.8244 69.7377 27.6385 69.4502 27.3933C69.1627 27.148 68.9262 26.8483 68.7544 26.5113C68.5825 26.1742 68.4786 25.8064 68.4487 25.429C68.4187 25.0516 68.4633 24.672 68.5798 24.3119L68.5788 24.3109C69.3429 21.9448 69.4726 19.4186 68.9549 16.9863C68.4372 14.554 67.2904 12.3013 65.6297 10.4548C62.125 6.56424 56.9618 5.07526 52.1905 6.09193C51.8217 6.17097 51.441 6.17635 51.0701 6.10777C50.6992 6.03918 50.3454 5.89797 50.0289 5.6922C49.7124 5.48643 49.4394 5.22013 49.2255 4.9085C49.0115 4.59687 48.8609 4.24602 48.7821 3.87598C48.7033 3.50593 48.698 3.12394 48.7663 2.75182C48.8347 2.37969 48.9754 2.02472 49.1805 1.70717C49.3856 1.38961 49.651 1.1157 49.9616 0.901065C50.2722 0.68643 50.6219 0.535276 50.9907 0.456234H50.9927ZM7.56582 43.9398C8.37367 52.1202 19.0921 57.7499 31.509 56.5211C43.9269 55.2883 53.3388 47.6593 52.5339 39.4779C51.7281 31.3015 41.0086 25.6698 28.5908 26.9027C16.1759 28.1345 6.75997 35.7615 7.56582 43.9398ZM55.118 27.443C54.5655 28.8349 55.2896 29.0521 56.3457 29.3683C60.6483 30.7071 65.4365 33.9443 65.4365 39.649C65.4365 49.0892 51.8667 60.981 31.4681 60.981C15.9066 60.981 0 53.415 0 40.9699C0 34.4636 4.10805 26.9397 11.1832 19.84C20.632 10.3638 31.6496 6.04698 35.7916 10.2067C37.6197 12.0389 37.7972 15.212 36.6223 19.0015C36.0418 20.8105 38.1663 19.954 38.3889 19.8643C38.4011 19.8594 38.4076 19.8568 38.4076 19.857C46.0442 16.6479 52.7064 16.4608 55.141 19.9501C56.4395 21.8113 56.3158 24.419 55.118 27.443ZM62.3259 13.4438C59.9283 10.775 56.3887 9.76135 53.1204 10.4588C52.7952 10.5185 52.4852 10.6431 52.2089 10.8251C51.9325 11.0071 51.6953 11.243 51.5114 11.5186C51.3275 11.7943 51.2006 12.1041 51.1382 12.4299C51.0758 12.7556 51.0791 13.0906 51.1481 13.415C51.217 13.7394 51.3501 14.0467 51.5395 14.3185C51.7289 14.5904 51.9708 14.8214 52.2508 14.9978C52.5307 15.1742 52.8431 15.2925 53.1695 15.3456C53.4958 15.3987 53.8295 15.3856 54.1507 15.307V15.309C54.9627 15.1348 55.806 15.1777 56.5963 15.4334C57.3866 15.6891 58.0961 16.1486 58.6537 16.7659C59.2102 17.3848 59.5943 18.14 59.7671 18.9554C59.94 19.7708 59.8954 20.6174 59.638 21.41H59.64C59.4383 22.0359 59.4926 22.7166 59.7909 23.3024C60.0892 23.8882 60.6071 24.3312 61.2308 24.534C61.8549 24.7359 62.5334 24.6809 63.1171 24.3811C63.7008 24.0812 64.1419 23.5611 64.3435 22.935C65.3708 19.7459 64.7285 16.1115 62.3259 13.4438ZM30.0467 42.4999C30.7986 42.8111 31.7581 42.4528 32.1929 41.7063C32.6078 40.9569 32.3385 40.1133 31.5885 39.8381C30.8515 39.5449 29.928 39.9002 29.4951 40.6286C29.0742 41.3611 29.3066 42.1937 30.0467 42.4999ZM22.5257 48.6799C24.4635 49.5675 27.0357 48.725 28.2365 46.8027C29.4173 44.8604 28.795 42.642 26.8502 41.8094C24.9273 41.0009 22.4419 41.8334 21.2561 43.6997C20.0533 45.5739 20.6168 47.8083 22.5257 48.6799ZM17.5949 39.8321C20.161 34.6077 26.8402 31.6528 32.7494 33.1958C38.8641 34.7818 41.9848 40.5696 39.4845 46.1913C36.9502 51.9431 29.6617 55.0081 23.4772 53.0078C17.5091 51.0735 14.9808 45.1596 17.5949 39.8321Z" fill="white"/>
<path fill-rule="evenodd" clip-rule="evenodd" d="M50.9927 0.456234C57.6998 -0.973703 64.9664 1.11467 69.8923 6.59426C74.8202 12.0678 76.1486 19.5307 74.0462 26.077L74.0452 26.089C73.81 26.8152 73.2971 27.418 72.6192 27.7651C71.9414 28.1122 71.154 28.1752 70.4299 27.9403C70.0706 27.8244 69.7377 27.6385 69.4502 27.3933C69.1627 27.148 68.9262 26.8483 68.7544 26.5113C68.5825 26.1742 68.4786 25.8064 68.4487 25.429C68.4187 25.0516 68.4633 24.672 68.5798 24.3119L68.5788 24.3109C69.3429 21.9448 69.4726 19.4186 68.9549 16.9863C68.4372 14.554 67.2904 12.3013 65.6297 10.4548C62.125 6.56424 56.9618 5.07526 52.1905 6.09193C51.8217 6.17097 51.441 6.17635 51.0701 6.10777C50.6992 6.03918 50.3454 5.89797 50.0289 5.6922C49.7124 5.48643 49.4394 5.22013 49.2255 4.9085C49.0115 4.59687 48.8609 4.24602 48.7821 3.87598C48.7033 3.50593 48.698 3.12394 48.7663 2.75182C48.8347 2.37969 48.9754 2.02472 49.1805 1.70717C49.3856 1.38961 49.651 1.1157 49.9616 0.901065C50.2722 0.68643 50.6219 0.535276 50.9907 0.456234H50.9927ZM7.56582 43.9398C8.37367 52.1202 19.0921 57.7499 31.509 56.5211C43.9269 55.2883 53.3388 47.6593 52.5339 39.4779C51.7281 31.3015 41.0086 25.6698 28.5908 26.9027C16.1759 28.1345 6.75997 35.7615 7.56582 43.9398ZM55.118 27.443C54.5655 28.8349 55.2896 29.0521 56.3457 29.3683C60.6483 30.7071 65.4365 33.9443 65.4365 39.649C65.4365 49.0892 51.8667 60.981 31.4681 60.981C15.9066 60.981 0 53.415 0 40.9699C0 34.4636 4.10805 26.9397 11.1832 19.84C20.632 10.3638 31.6496 6.04698 35.7916 10.2067C37.6197 12.0389 37.7972 15.212 36.6223 19.0015C36.0418 20.8105 38.1663 19.954 38.3889 19.8643C38.4011 19.8594 38.4076 19.8568 38.4076 19.857C46.0442 16.6479 52.7064 16.4608 55.141 19.9501C56.4395 21.8113 56.3158 24.419 55.118 27.443ZM62.3259 13.4438C59.9283 10.775 56.3887 9.76135 53.1204 10.4588C52.7952 10.5185 52.4852 10.6431 52.2089 10.8251C51.9325 11.0071 51.6953 11.243 51.5114 11.5186C51.3275 11.7943 51.2006 12.1041 51.1382 12.4299C51.0758 12.7556 51.0791 13.0906 51.1481 13.415C51.217 13.7394 51.3501 14.0467 51.5395 14.3185C51.7289 14.5904 51.9708 14.8214 52.2508 14.9978C52.5307 15.1742 52.8431 15.2925 53.1695 15.3456C53.4958 15.3987 53.8295 15.3856 54.1507 15.307V15.309C54.9627 15.1348 55.806 15.1777 56.5963 15.4334C57.3866 15.6891 58.0961 16.1486 58.6537 16.7659C59.2102 17.3848 59.5943 18.14 59.7671 18.9554C59.94 19.7708 59.8954 20.6174 59.638 21.41H59.64C59.4383 22.0359 59.4926 22.7166 59.7909 23.3024C60.0892 23.8882 60.6071 24.3312 61.2308 24.534C61.8549 24.7359 62.5334 24.6809 63.1171 24.3811C63.7008 24.0812 64.1419 23.5611 64.3435 22.935C65.3708 19.7459 64.7285 16.1115 62.3259 13.4438ZM30.0467 42.4999C30.7986 42.8111 31.7581 42.4528 32.1929 41.7063C32.6078 40.9569 32.3385 40.1133 31.5885 39.8381C30.8515 39.5449 29.928 39.9002 29.4951 40.6286C29.0742 41.3611 29.3066 42.1937 30.0467 42.4999ZM22.5257 48.6799C24.4635 49.5675 27.0357 48.725 28.2365 46.8027C29.4173 44.8604 28.795 42.642 26.8502 41.8094C24.9273 41.0009 22.4419 41.8334 21.2561 43.6997C20.0533 45.5739 20.6168 47.8083 22.5257 48.6799ZM17.5949 39.8321C20.161 34.6077 26.8402 31.6528 32.7494 33.1958C38.8641 34.7818 41.9848 40.5696 39.4845 46.1913C36.9502 51.9431 29.6617 55.0081 23.4772 53.0078C17.5091 51.0735 14.9808 45.1596 17.5949 39.8321Z" fill="url(#paint0_linear)"/>
<defs>
<linearGradient id="paint0_linear" x1="10.7443" y1="11.524" x2="9.40549" y2="53.633" gradientUnits="userSpaceOnUse">
<stop stop-color="#DC5160"/>
<stop offset="1" stop-color="#B52B3A"/>
</linearGradient>
</defs>
</svg>
