<svg width="20" height="20" viewBox="0 0 20 20" fill="none" xmlns="http://www.w3.org/2000/svg">
<path d="M14.2062 0H5.79088C4.98609 0 4.33594 0.652675 4.33594 1.45747V18.5444C4.33594 19.3467 4.98609 20 5.79088 20H14.2062C15.0098 20 15.6624 19.3473 15.6624 18.5444V1.45747C15.6618 0.652675 15.0098 0 14.2062 0ZM14.5711 16.2045H5.42731V2.45858H14.5711V16.2045ZM11.9496 1.47893H8.0481V1.0535H11.9503L11.9496 1.47893ZM13.6192 1.28452C13.6192 1.4903 13.4513 1.65694 13.2461 1.65694C13.0404 1.65694 12.8731 1.48966 12.8731 1.28452C12.8731 1.07938 13.0404 0.912104 13.2461 0.912104C13.4519 0.911472 13.6192 1.07874 13.6192 1.28452ZM11.7748 18.4472H8.22169V17.354H11.7748V18.4472Z" fill="white"/>
</svg>
