<svg width="47" height="50" viewBox="0 0 47 50" fill="none" xmlns="http://www.w3.org/2000/svg">
<mask id="path-1-inside-1" fill="white">
<path fill-rule="evenodd" clip-rule="evenodd" d="M28.9762 12.5265C31.1318 10.4831 33.7916 9.58444 36.8423 9.42441C36.6658 7.61483 36.0103 6.07608 34.9388 4.70966C31.989 0.94278 26.5054 -0.645218 21.6395 0.90585C18.072 2.03838 15.45 4.22957 14.3785 7.8241C13.2187 11.7264 14.7693 15.5056 18.4124 18.0291C18.9797 18.4231 19.0679 18.7554 18.8788 19.3586C18.7147 19.8956 18.5986 20.4482 18.475 21.0368C18.4087 21.3523 18.3403 21.6782 18.2611 22.0176C18.581 21.8224 18.8876 21.6332 19.1853 21.4495C20.0137 20.9384 20.7722 20.4704 21.5513 20.0357C21.879 19.8633 22.3202 19.8141 22.6984 19.851C23.5064 19.9145 24.3075 20.0181 25.1522 20.1273C25.4541 20.1663 25.7615 20.2061 26.0768 20.245C25.7995 17.1182 26.7953 14.5946 28.9762 12.5265ZM21.4378 6.82699C22.1942 6.85161 22.8245 7.49173 22.7993 8.20572C22.774 8.93201 22.1311 9.51058 21.3496 9.48596C20.5806 9.47365 19.9881 8.87046 20.0133 8.11955C20.0386 7.38094 20.6688 6.80237 21.4378 6.82699ZM28.7493 8.1811C28.7367 7.46711 29.367 6.8393 30.1233 6.82699C30.8923 6.81468 31.51 7.40556 31.5226 8.14417C31.5226 8.90739 30.9427 9.48596 30.1611 9.49827C29.3922 9.49827 28.7619 8.9197 28.7493 8.1811ZM42.813 27.5697C43.1031 27.7185 43.3972 27.8694 43.7 27.9999C43.6798 27.9213 43.6648 27.8414 43.6501 27.7627C43.6186 27.5949 43.5881 27.4323 43.5109 27.2982C42.9058 26.2273 43.2461 25.5502 44.1916 24.7378C47.4313 21.9188 47.7465 17.4625 45.0866 14.1142C42.036 10.2734 35.6826 9.35018 31.3587 12.1199C26.4928 15.2344 25.8877 21.0694 30.0981 24.8732C32.3042 26.8674 34.9892 27.6799 37.9895 27.3844C38.3937 27.3439 38.7979 27.2306 39.1995 27.1181C39.7748 26.9568 40.3447 26.7971 40.9014 26.8551C41.552 26.9229 42.1728 27.2413 42.813 27.5697ZM33.8421 16.5393C33.8169 17.1301 33.3127 17.5979 32.695 17.5979C32.0899 17.5979 31.5856 17.1178 31.5604 16.5269C31.5352 15.9114 32.0647 15.3821 32.7076 15.3821C33.3505 15.3821 33.8673 15.9114 33.8421 16.5393ZM38.6576 16.4408C38.6828 15.8499 39.1996 15.3821 39.7921 15.3821C40.4224 15.3821 40.9266 15.9114 40.8888 16.5269C40.8762 17.1301 40.3846 17.5856 39.7669 17.5856C39.1366 17.5856 38.6324 17.0686 38.6576 16.4408Z"/>
</mask>
<path d="M36.8423 9.42441L36.9209 10.9224L38.4875 10.8402L38.3352 9.27881L36.8423 9.42441ZM28.9762 12.5265L27.9442 11.4379L27.944 11.4381L28.9762 12.5265ZM34.9388 4.70966L33.7578 5.63447L33.7584 5.63527L34.9388 4.70966ZM21.6395 0.90585L22.0934 2.33554L22.0951 2.335L21.6395 0.90585ZM14.3785 7.8241L12.941 7.3956L12.9406 7.39678L14.3785 7.8241ZM18.4124 18.0291L19.268 16.7971L19.2665 16.7961L18.4124 18.0291ZM18.8788 19.3586L17.4474 18.9099L17.4443 18.9201L18.8788 19.3586ZM18.475 21.0368L19.943 21.3451L18.475 21.0368ZM18.2611 22.0176L16.8003 21.6768L15.987 25.1629L19.0426 23.298L18.2611 22.0176ZM19.1853 21.4495L19.9729 22.7261L19.9729 22.7261L19.1853 21.4495ZM21.5513 20.0357L20.8532 18.708L20.8366 18.7167L20.8203 18.7258L21.5513 20.0357ZM22.6984 19.851L22.5526 21.3439L22.5668 21.3453L22.5809 21.3464L22.6984 19.851ZM25.1522 20.1273L24.9599 21.6149L25.1522 20.1273ZM26.0768 20.245L25.8932 21.7337L27.7349 21.9609L27.5709 20.1124L26.0768 20.245ZM22.7993 8.20572L21.3002 8.15278L21.3002 8.15368L22.7993 8.20572ZM21.4378 6.82699L21.4866 5.32778L21.4858 5.32776L21.4378 6.82699ZM21.3496 9.48596L21.3968 7.98671L21.3852 7.98634L21.3736 7.98616L21.3496 9.48596ZM20.0133 8.11955L18.5142 8.06837L18.5142 8.06921L20.0133 8.11955ZM30.1233 6.82699L30.0993 5.32718L30.0989 5.32719L30.1233 6.82699ZM28.7493 8.1811L30.249 8.1555L30.249 8.15462L28.7493 8.1811ZM31.5226 8.14417H33.0226V8.13136L33.0224 8.11857L31.5226 8.14417ZM30.1611 9.49827V10.9983H30.1729L30.1847 10.9981L30.1611 9.49827ZM43.7 27.9999L43.106 29.3773L45.9105 30.5866L45.1531 27.6279L43.7 27.9999ZM42.813 27.5697L43.4976 26.2351L43.4976 26.235L42.813 27.5697ZM43.6501 27.7627L45.1243 27.4861L45.1243 27.4861L43.6501 27.7627ZM43.5109 27.2982L42.2048 28.0361L42.2111 28.0469L43.5109 27.2982ZM44.1916 24.7378L45.1692 25.8754L45.1762 25.8693L44.1916 24.7378ZM45.0866 14.1142L43.912 15.0471L43.9121 15.0472L45.0866 14.1142ZM31.3587 12.1199L32.1674 13.3833L32.1678 13.383L31.3587 12.1199ZM30.0981 24.8732L31.104 23.7604L31.1037 23.7601L30.0981 24.8732ZM37.9895 27.3844L38.1365 28.8772L38.1389 28.877L37.9895 27.3844ZM39.1995 27.1181L38.7946 25.6737L39.1995 27.1181ZM40.9014 26.8551L41.0568 25.3632H41.0568L40.9014 26.8551ZM33.8421 16.5393L35.3407 16.6032L35.3409 16.5994L33.8421 16.5393ZM31.5604 16.5269L30.0617 16.5883L30.0618 16.5909L31.5604 16.5269ZM38.6576 16.4408L37.1589 16.3768L37.1588 16.3806L38.6576 16.4408ZM40.8888 16.5269L39.3916 16.435L39.3898 16.4653L39.3892 16.4956L40.8888 16.5269ZM36.7637 7.92647C33.4519 8.1002 30.4205 9.09047 27.9442 11.4379L30.0081 13.6151C31.8431 11.8757 34.1313 11.0687 36.9209 10.9224L36.7637 7.92647ZM33.7584 5.63527C34.6631 6.78889 35.2021 8.05986 35.3494 9.57001L38.3352 9.27881C38.1295 7.16981 37.3575 5.36326 36.1191 3.78405L33.7584 5.63527ZM22.0951 2.335C26.4093 0.959783 31.2232 2.39785 33.7578 5.63447L36.1198 3.78485C32.7547 -0.512291 26.6015 -2.25022 21.1839 -0.523299L22.0951 2.335ZM15.816 8.25261C16.7151 5.23646 18.8875 3.35328 22.0934 2.33554L21.1856 -0.523838C17.2566 0.723472 14.1849 3.22267 12.941 7.3956L15.816 8.25261ZM19.2665 16.7961C16.0689 14.5811 14.8699 11.436 15.8163 8.25143L12.9406 7.39678C11.5676 12.0168 13.4696 16.4301 17.5582 19.2622L19.2665 16.7961ZM20.3101 19.8073C20.4375 19.4009 20.5711 18.7967 20.3521 18.1405C20.1322 17.4818 19.6574 17.0675 19.268 16.7971L17.5568 19.2612C17.6381 19.3177 17.6483 19.3354 17.6287 19.3133C17.6022 19.2834 17.5457 19.2082 17.5064 19.0903C17.4671 18.9725 17.4667 18.8776 17.4699 18.8361C17.4723 18.8054 17.4753 18.8212 17.4475 18.9099L20.3101 19.8073ZM19.943 21.3451C20.0692 20.7441 20.1722 20.2586 20.3133 19.7971L17.4443 18.9201C17.2571 19.5326 17.128 20.1523 17.007 20.7285L19.943 21.3451ZM19.7219 22.3584C19.8054 22.0004 19.8771 21.6586 19.943 21.3451L17.007 20.7285C16.9403 21.0461 16.8752 21.3561 16.8003 21.6768L19.7219 22.3584ZM18.3976 20.173C18.0996 20.3569 17.796 20.5442 17.4797 20.7372L19.0426 23.298C19.366 23.1006 19.6757 22.9095 19.9729 22.7261L18.3976 20.173ZM20.8203 18.7258C20.0076 19.1793 19.2208 19.6651 18.3976 20.173L19.9729 22.7261C20.8066 22.2117 21.5369 21.7614 22.2822 21.3456L20.8203 18.7258ZM22.8442 18.3581C22.2803 18.3031 21.5203 18.3572 20.8532 18.708L22.2494 21.3633C22.2278 21.3747 22.2485 21.3601 22.3245 21.3489C22.3961 21.3383 22.4784 21.3367 22.5526 21.3439L22.8442 18.3581ZM25.3445 18.6397C24.5065 18.5313 23.6678 18.4226 22.8159 18.3556L22.5809 21.3464C23.345 21.4065 24.1085 21.5049 24.9599 21.6149L25.3445 18.6397ZM26.2604 18.7562C25.9502 18.718 25.647 18.6788 25.3445 18.6397L24.9599 21.6149C25.2611 21.6539 25.5728 21.6942 25.8932 21.7337L26.2604 18.7562ZM27.944 11.4381C25.4336 13.8187 24.2645 16.7908 24.5827 20.3775L27.5709 20.1124C27.3344 17.4456 28.1571 15.3705 30.0083 13.615L27.944 11.4381ZM24.2983 8.25865C24.3555 6.63932 22.9947 5.37687 21.4866 5.32778L21.389 8.32619C21.3569 8.32515 21.346 8.31351 21.3438 8.31131C21.3424 8.30984 21.2964 8.26113 21.3002 8.15278L24.2983 8.25865ZM21.3023 10.9852C22.8357 11.0335 24.242 9.8825 24.2984 8.25775L21.3002 8.15368C21.3028 8.07678 21.3395 8.02582 21.3619 8.00598C21.384 7.98635 21.4002 7.98681 21.3968 7.98671L21.3023 10.9852ZM18.5142 8.06921C18.4595 9.69886 19.759 10.9607 21.3256 10.9858L21.3736 7.98616C21.3821 7.98629 21.4188 7.9929 21.4554 8.03026C21.4726 8.04786 21.4881 8.07072 21.4988 8.09785C21.5099 8.12598 21.5131 8.15186 21.5125 8.16988L18.5142 8.06921ZM21.4858 5.32776C19.929 5.27791 18.569 6.4647 18.5142 8.06837L21.5125 8.17072C21.5106 8.22474 21.4843 8.27093 21.4566 8.29612C21.4292 8.32109 21.401 8.32658 21.3898 8.32622L21.4858 5.32776ZM30.0989 5.32719C28.5781 5.35194 27.2211 6.60128 27.2495 8.20757L30.249 8.15462C30.2508 8.255 30.208 8.30223 30.2026 8.30753C30.1963 8.31373 30.1805 8.32626 30.1477 8.32679L30.0989 5.32719ZM33.0224 8.11857C32.9951 6.5208 31.6641 5.30213 30.0993 5.32718L30.1473 8.3268C30.1337 8.32701 30.1035 8.31994 30.0757 8.29365C30.0481 8.26753 30.0237 8.22172 30.0228 8.16977L33.0224 8.11857ZM30.1847 10.9981C31.7569 10.9733 33.0226 9.75482 33.0226 8.14417H30.0226C30.0226 8.14439 30.0226 8.14046 30.024 8.13309C30.0254 8.12574 30.0281 8.11616 30.0326 8.10511C30.042 8.08225 30.0571 8.05929 30.0766 8.03979C30.0962 8.02036 30.1159 8.00867 30.1306 8.00257C30.1456 7.99636 30.1497 7.99827 30.1375 7.99846L30.1847 10.9981ZM27.2495 8.20669C27.2774 9.84273 28.6552 10.9983 30.1611 10.9983V7.99827C30.1558 7.99827 30.1703 7.99713 30.1921 8.01732C30.2032 8.02762 30.2174 8.04479 30.2293 8.07059C30.2418 8.09764 30.2486 8.12776 30.249 8.1555L27.2495 8.20669ZM44.2939 26.6225C44.0449 26.5152 43.7952 26.3877 43.4976 26.2351L42.1284 28.9043C42.4111 29.0494 42.7496 29.2236 43.106 29.3773L44.2939 26.6225ZM42.1758 28.0393C42.1891 28.1101 42.2125 28.2381 42.2468 28.3719L45.1531 27.6279C45.1471 27.6045 45.1406 27.5727 45.1243 27.4861L42.1758 28.0393ZM42.2111 28.0469C42.1863 28.004 42.1708 27.9683 42.1619 27.9452C42.1574 27.9336 42.1543 27.9245 42.1524 27.9187C42.1515 27.9157 42.1508 27.9135 42.1504 27.912C42.1499 27.9105 42.1497 27.9097 42.1497 27.9097C42.1497 27.9097 42.1499 27.9103 42.1502 27.9117C42.1506 27.9131 42.1511 27.9152 42.1517 27.918C42.1531 27.9237 42.1549 27.9318 42.1572 27.9429C42.1595 27.9541 42.1621 27.9673 42.1653 27.9836C42.1685 28.0003 42.1717 28.0177 42.1758 28.0393L45.1243 27.4861C45.1041 27.378 45.039 26.946 44.8107 26.5496L42.2111 28.0469ZM43.214 23.6001C42.6955 24.0456 42.0987 24.6472 41.8392 25.4699C41.548 26.3932 41.7708 27.2677 42.2049 28.0361L44.8168 26.5604C44.7262 26.3999 44.71 26.3221 44.7079 26.3101C44.7072 26.3058 44.7089 26.3138 44.7078 26.3305C44.7067 26.3475 44.7034 26.3625 44.7003 26.3722C44.6945 26.3906 44.7 26.3579 44.773 26.2664C44.8487 26.1718 44.9717 26.0452 45.1692 25.8754L43.214 23.6001ZM43.9121 15.0472C46.093 17.7926 45.8173 21.3348 43.2069 23.6062L45.1762 25.8693C49.0453 22.5027 49.3999 17.1324 46.2611 13.1812L43.9121 15.0472ZM32.1678 13.383C35.891 10.998 41.3742 11.852 43.912 15.0471L46.2612 13.1812C42.6977 8.69483 35.4741 7.70234 30.5496 10.8569L32.1678 13.383ZM31.1037 23.7601C29.3221 22.1505 28.6357 20.1978 28.8173 18.3878C28.9997 16.5705 30.0762 14.7218 32.1674 13.3833L30.5501 10.8566C27.7754 12.6326 26.1163 15.2585 25.8323 18.0882C25.5476 20.9253 26.6638 23.792 29.0926 25.9862L31.1037 23.7601ZM37.8425 25.8916C35.2321 26.1487 32.9742 25.4511 31.104 23.7604L29.0922 25.9859C31.6341 28.2837 34.7464 29.211 38.1365 28.8772L37.8425 25.8916ZM38.7946 25.6737C38.3688 25.7931 38.0918 25.8667 37.84 25.8919L38.1389 28.877C38.6956 28.8212 39.227 28.6682 39.6043 28.5624L38.7946 25.6737ZM41.0568 25.3632C40.1636 25.2701 39.3073 25.5301 38.7946 25.6737L39.6043 28.5624C40.2423 28.3836 40.5257 28.3241 40.746 28.347L41.0568 25.3632ZM43.4976 26.235C42.917 25.9372 42.0386 25.4654 41.0568 25.3632L40.746 28.347C41.0654 28.3803 41.4285 28.5453 42.1284 28.9043L43.4976 26.235ZM32.695 19.0979C34.066 19.0979 35.2792 18.0462 35.3407 16.6032L32.3435 16.4753C32.3546 16.2141 32.5593 16.0979 32.695 16.0979V19.0979ZM30.0618 16.5909C30.122 18.0016 31.3035 19.0979 32.695 19.0979V16.0979C32.795 16.0979 32.8817 16.1382 32.9413 16.1946C33.0006 16.2507 33.054 16.3433 33.0591 16.463L30.0618 16.5909ZM32.7076 13.8821C31.274 13.8821 29.9991 15.0605 30.0617 16.5883L33.0592 16.4655C33.0653 16.6163 33.0016 16.727 32.9433 16.7851C32.8854 16.843 32.8026 16.8821 32.7076 16.8821V13.8821ZM35.3409 16.5994C35.4014 15.0928 34.1748 13.8821 32.7076 13.8821V16.8821C32.5261 16.8821 32.3332 16.73 32.3433 16.4791L35.3409 16.5994ZM39.7921 13.8821C38.4463 13.8821 37.2205 14.9339 37.1589 16.3768L40.1562 16.5047C40.1505 16.6387 40.089 16.7371 40.0303 16.7914C39.9737 16.8436 39.8922 16.8821 39.7921 16.8821V13.8821ZM42.386 16.6189C42.4783 15.1163 41.2626 13.8821 39.7921 13.8821V16.8821C39.5822 16.8821 39.375 16.7066 39.3916 16.435L42.386 16.6189ZM39.7669 19.0856C41.1404 19.0856 42.3576 18.0366 42.3885 16.5583L39.3892 16.4956C39.3915 16.3838 39.4432 16.2685 39.5283 16.1886C39.6105 16.1116 39.7023 16.0856 39.7669 16.0856V19.0856ZM37.1588 16.3806C37.0988 17.8751 38.3 19.0856 39.7669 19.0856V16.0856C39.9732 16.0856 40.166 16.2621 40.1564 16.501L37.1588 16.3806Z" fill="white" mask="url(#path-1-inside-1)"/>
<path d="M3.89132 43.0583C4.84461 43.6481 5.98856 44 7.19606 44C9.51573 43.9897 11.5812 42.7064 12.6192 40.6781C13.4279 39.0894 13.3871 37.3472 13.3466 35.6176C13.3377 35.2404 13.3289 34.8639 13.3289 34.4896V31.4057C15.9345 33.134 18 32.8442 18 32.8442V30.1846C16.8243 29.9362 16.0299 29.4291 15.4791 28.8393C13.9962 28.0217 13.5195 26.6661 13.3607 25.7968M13.3617 25.7865C13.277 25.3208 13.2876 25 13.2876 25H10.004V32.5752C10.004 33.0326 10.0086 33.4907 10.0133 33.9493C10.0272 35.327 10.0411 36.709 9.92988 38.091C9.82396 39.5088 8.6906 40.6678 7.18653 40.6678C6.78378 40.6678 6.40117 40.5793 6.04851 40.431C6.04261 40.4237 6.03675 40.4164 6.03093 40.409C5.07764 39.9744 4.42093 39.043 4.42093 37.9461C4.42093 36.4455 5.6602 35.2347 7.19606 35.2347C7.49264 35.2347 7.77862 35.2761 8.05402 35.3693V32.72V32.5752L8.04375 31.9748C7.76835 31.9334 7.48237 31.9127 7.18579 31.9127C3.77513 31.9127 1 34.6137 1 37.9563C1 40.0985 2.14395 41.9923 3.87046 43.0582" stroke="white" stroke-width="1.5"/>
<path d="M26.6684 49.0653H26.6685L26.6687 49.0653L26.6761 49.0659L26.7141 49.0688C26.7492 49.0714 26.8034 49.0748 26.8745 49.078C27.0169 49.0843 27.2261 49.0896 27.484 49.0845C28.0021 49.0743 28.7058 49.0225 29.4558 48.8589L29.4565 48.8587C30.3722 48.6599 31.2152 48.6855 31.824 48.7579C32.13 48.7943 32.3817 48.8432 32.5601 48.8838C32.6494 48.9042 32.7207 48.9226 32.7717 48.9366C32.7972 48.9435 32.8177 48.9494 32.8328 48.9539L32.8514 48.9594L32.8577 48.9614L32.8601 48.9621L32.861 48.9624L32.8615 48.9625C32.8617 48.9626 32.8619 48.9627 32.637 49.6782L32.8619 48.9627L32.8702 48.9653L32.8702 48.9653L32.8736 48.9664L32.8975 48.9738C32.92 48.9806 32.9553 48.991 33.0018 49.0039C33.095 49.0297 33.2322 49.065 33.401 49.1009C33.7419 49.1733 34.1958 49.2445 34.6688 49.2497C35.6619 49.2605 36.4432 48.9933 36.7728 48.2343L36.773 48.2338C37.204 47.2432 37.0648 46.5598 36.8742 46.1402C36.7734 45.9183 36.6488 45.7512 36.5518 45.6417C36.5037 45.5874 36.4637 45.5488 36.439 45.5263C36.4273 45.5157 36.4192 45.5089 36.4156 45.5058L36.395 45.4901C36.3773 45.4765 36.3517 45.4568 36.3192 45.4314C36.2541 45.3807 36.1609 45.307 36.0455 45.2134C35.8151 45.0264 35.4951 44.7588 35.1344 44.4343C34.4199 43.7914 33.5168 42.8998 32.8389 41.9523L32.8305 41.9406L32.8226 41.9285C32.0977 40.8285 31.3193 40.6103 30.7144 40.6789C30.0399 40.7554 29.4236 41.2046 29.1262 41.6872C28.6699 42.4325 28.0966 43.0267 27.6312 43.4533C27.3983 43.6668 27.1871 43.8431 27.0311 43.9734L27.0292 43.9749C26.9486 44.0422 26.8893 44.0917 26.8443 44.1311C26.8191 44.1533 26.8065 44.1653 26.8024 44.1691C26.7391 44.2426 26.6691 44.2981 26.6417 44.3197L26.641 44.3203C26.6006 44.3523 26.5547 44.3861 26.5132 44.4164C26.4942 44.4302 26.4749 44.4442 26.4552 44.4585C26.382 44.5116 26.303 44.569 26.2133 44.6376C25.9884 44.8094 25.7266 45.0294 25.4901 45.2981C25.0206 45.8317 24.695 46.4978 24.8914 47.3495L26.6684 49.0653ZM26.6684 49.0653L26.6682 49.0653L26.6679 49.0652L26.6676 49.0652L26.6244 49.0611L26.5879 49.0619C26.5839 49.0618 26.5752 49.0616 26.5624 49.0608C26.5334 49.0589 26.4845 49.0544 26.4212 49.0434C26.2934 49.0212 26.116 48.9741 25.9273 48.8762C25.5768 48.6942 25.1113 48.3002 24.8914 47.3496L26.6684 49.0653ZM25.2683 41.2245L25.2677 41.2247C24.9456 41.2924 24.7181 41.2466 24.5502 41.1649C24.3732 41.0788 24.2112 40.9271 24.0749 40.7122C23.7839 40.2533 23.7085 39.6663 23.7695 39.3727L23.7772 39.3354L23.7809 39.3C23.7808 39.3004 23.7808 39.3002 23.7809 39.2996L23.7809 39.2996L23.782 39.2904C23.7833 39.2806 23.7855 39.2638 23.7891 39.241C23.7961 39.1952 23.808 39.1261 23.8266 39.0414C23.8645 38.8691 23.9268 38.6465 24.0241 38.4279C24.2301 37.9648 24.498 37.7047 24.8572 37.6732C25.166 37.647 25.4866 37.7933 25.778 38.0975C26.0783 38.4108 26.2341 38.7772 26.258 38.9584C26.2859 39.2024 26.3441 39.75 26.2158 40.2642C26.0972 40.7402 25.8517 41.1023 25.2683 41.2245ZM33.5439 37.6818L33.5418 37.6816C33.0919 37.6254 32.8829 37.4278 32.7581 37.1722C32.6089 36.8667 32.5555 36.4108 32.6159 35.8619C32.6489 35.5647 32.8847 35.0669 33.2638 34.6555C33.4449 34.459 33.6267 34.3183 33.7831 34.2394C33.9403 34.1602 34.0235 34.166 34.0511 34.1722L34.0522 34.1724C34.3077 34.2293 34.6344 34.4543 34.8874 34.8303C35.1375 35.202 35.2376 35.6067 35.1852 35.9215L35.1848 35.9242C35.1151 36.3526 34.9 36.8584 34.5813 37.2209C34.2732 37.5715 33.9289 37.731 33.5439 37.6818ZM30.0813 35.6256C30.0813 36.2124 29.9094 36.7119 29.6692 37.0457C29.4283 37.3804 29.161 37.5029 28.9402 37.5029C28.7188 37.5029 28.4507 37.3801 28.2094 37.0452C27.9687 36.7113 27.7965 36.212 27.7965 35.6256C27.7965 35.0392 27.9687 34.5405 28.2092 34.2071C28.4504 33.8729 28.7184 33.75 28.9402 33.75C29.1615 33.75 29.4287 33.8725 29.6693 34.2066C29.9094 34.5399 30.0813 35.0388 30.0813 35.6256ZM36.876 38.9109C37.4265 38.9109 37.7398 39.1548 37.9431 39.449C38.1731 39.7817 38.2427 40.1614 38.2427 40.2799C38.2427 40.3407 38.2441 40.4069 38.2456 40.4773C38.2527 40.8113 38.2619 41.2416 38.1326 41.6465C38.0606 41.8722 37.9589 42.0347 37.8292 42.1428C37.7082 42.2437 37.5046 42.3464 37.13 42.3546C36.2828 42.3725 36.0378 42.1079 35.9309 41.9275C35.768 41.6529 35.733 41.2474 35.733 40.7234C35.733 40.2181 35.7908 39.7307 35.9678 39.3904C36.0492 39.2339 36.1477 39.1248 36.2677 39.051C36.387 38.9776 36.5734 38.9109 36.876 38.9109Z" stroke="white" stroke-width="1.5"/>
</svg>
