<svg width="47" height="51" viewBox="0 0 47 51" fill="none" xmlns="http://www.w3.org/2000/svg">
<path fill-rule="evenodd" clip-rule="evenodd" d="M12.393 17.6755C12.5536 19.109 13.2751 25.5474 7.88308 26.7058C2.48723 27.8698 0.48009 21.6224 1.07289 18.6954C1.07289 18.6954 1.71172 12.3741 6.08796 11.9842C9.56384 11.6802 12.1254 15.4859 12.3918 17.6653L12.393 17.6755ZM23.3154 8.18056C23.3154 12.4278 20.9037 15.866 17.9202 15.866C14.9346 15.866 12.5174 12.4278 12.5174 8.18056C12.5174 3.93265 14.9353 0.5 17.9202 0.5C20.9037 0.5 23.3154 3.93265 23.3154 8.18056ZM37.848 9.40591C37.3361 12.6342 34.7773 16.8947 30.7832 16.3716C26.7933 15.8604 25.8916 12.2513 26.28 8.63179C26.5988 5.67268 30.136 1.13673 32.9696 1.78811C35.7906 2.43182 38.371 6.18179 37.848 9.40591ZM40.5609 15.5968C45.3214 15.5968 46.5997 20.2513 46.5997 21.7954C46.5997 21.9125 46.6034 22.0581 46.6077 22.2273C46.6602 24.3042 46.8026 29.9363 41.3308 30.0576C35.407 30.1859 35.1601 26.0545 35.1601 23.0926C35.1601 19.9891 35.7906 15.5968 40.5609 15.5968ZM30.7832 25.4107C34.3867 30.5744 40.5609 35.3502 40.5609 35.3502C40.5609 35.3502 45.1861 38.9691 42.2291 45.9376C39.2756 52.9117 28.4671 49.2872 28.4671 49.2872C28.4671 49.2872 24.4807 48.0026 19.8471 49.0341C15.2233 50.0683 11.2362 49.6785 11.2362 49.6785C11.2362 49.6785 5.82643 49.8082 4.28376 42.9687C2.97595 37.1526 7.78763 33.572 9.58251 32.2364C9.90005 32.0001 10.1232 31.8341 10.2013 31.7383C10.3297 31.5762 10.65 31.3021 11.0944 30.9218C12.4311 29.7779 14.8905 27.6733 16.6272 24.7643C18.9482 20.8978 25.8902 17.7971 30.7832 25.4107ZM18.8796 28.692V33.2865H15.1359C15.1359 33.2865 11.3943 33.5969 10.0845 37.8378C9.65749 40.4849 10.3812 42.1147 10.5998 42.6069L10.6 42.6073C10.6151 42.6414 10.6279 42.6701 10.6376 42.6932C10.7889 43.0489 11.9982 45.1202 15.0348 45.7283H22.0597V28.7422L18.8796 28.692ZM18.8231 42.9401H15.993C15.993 42.9401 14.0214 42.8376 13.4209 40.5675C13.1113 39.5618 13.467 38.3999 13.6232 37.9431C13.7662 37.4856 14.428 36.4284 15.7928 36.0211H18.8224L18.8231 42.9401ZM23.7808 33.6987V42.6423C23.7808 42.6423 23.9272 44.8677 27.0656 45.6788H35.1499V33.6973H31.6608V42.6918H28.3313C28.3313 42.6918 27.2671 42.537 27.0669 41.6819V33.6457L23.7808 33.6987Z" fill="white"/>
</svg>
