<svg width="24" height="25" viewBox="0 0 24 25" fill="none" xmlns="http://www.w3.org/2000/svg">
<g clip-path="url(#clip0)">
<path d="M11.7954 6.86938C7.63388 6.86938 4.24805 10.255 4.24805 14.4167C4.24805 18.5784 7.63388 21.964 11.7954 21.964C15.957 21.964 19.3427 18.5784 19.3427 14.4167C19.3427 10.255 15.957 6.86938 11.7954 6.86938ZM11.7954 21.286C8.00767 21.286 4.92606 18.2044 4.92606 14.4167C4.92606 10.629 8.00767 7.5474 11.7954 7.5474C15.5832 7.5474 18.6647 10.629 18.6647 14.4167C18.6647 18.2044 15.5832 21.286 11.7954 21.286Z" fill="#613654"/>
<path d="M20.197 7.95957C20.4254 7.95957 20.6403 7.87058 20.8019 7.70902C20.8019 7.70902 21.3671 7.14383 21.3674 7.14348C21.6971 6.81383 21.6965 6.26295 21.3674 5.93365C21.3674 5.93365 19.6304 4.19677 19.6295 4.19571C19.2997 3.86589 18.7491 3.86624 18.4197 4.19571C18.4197 4.19571 17.8545 4.7609 17.8541 4.76125C17.5621 5.05329 17.5227 5.52684 17.7634 5.86267L17.2072 6.41868C16.2172 5.74561 15.1161 5.26694 13.9517 5.00262V3.60033C14.6097 3.51505 15.12 2.95127 15.12 2.27026C15.12 1.53045 14.5181 0.928711 13.7784 0.928711H9.98016C9.24052 0.928711 8.63861 1.53045 8.63861 2.27026C8.63861 2.95127 9.14888 3.51505 9.80694 3.60033V4.96642C7.98673 5.34551 6.31394 6.24441 4.96851 7.58984C3.14493 9.41341 2.14062 11.8378 2.14062 14.4168C2.14062 16.9957 3.14493 19.4203 4.96851 21.2437C6.79208 23.0673 9.21668 24.0716 11.7954 24.0716C14.3744 24.0716 16.799 23.0673 18.6225 21.2437C20.4461 19.4201 21.4502 16.9957 21.4502 14.4168C21.4502 12.1438 20.6698 9.99131 19.2365 8.26397L19.7006 7.79978C19.8447 7.90307 20.0163 7.95957 20.197 7.95957ZM18.3337 5.24063C18.3337 5.24063 18.8978 4.6765 18.8992 4.67509C18.9677 4.60658 19.0816 4.60658 19.1501 4.67509C19.1501 4.67509 20.8861 6.41108 20.8881 6.41303C20.9566 6.48171 20.9566 6.5956 20.8881 6.6641L20.3225 7.22947C20.2554 7.29656 20.1387 7.29656 20.0716 7.22947C20.0716 7.22947 18.334 5.49188 18.3337 5.49153C18.2652 5.42302 18.2652 5.30914 18.3337 5.24063ZM9.31662 2.27026C9.31662 1.90441 9.61431 1.60672 9.98016 1.60672H13.7784C14.1443 1.60672 14.442 1.90441 14.442 2.27026C14.442 2.6361 14.1443 2.93379 13.7784 2.93379H9.98016C9.61431 2.93379 9.31662 2.6361 9.31662 2.27026ZM10.485 4.85024V3.61181H13.2736V4.87408C12.9867 4.83029 12.6966 4.79957 12.4041 4.78138C11.7668 4.74201 11.1255 4.76443 10.4925 4.84918C10.4901 4.84954 10.4876 4.84989 10.485 4.85024ZM11.7954 23.3936C6.84576 23.3936 2.81864 19.3666 2.81864 14.4168C2.81864 9.85571 6.23784 6.07826 10.6478 5.51307C11.5777 5.39389 12.5012 5.44668 13.4306 5.5897C17.6023 6.36059 20.7722 10.0252 20.7722 14.4168C20.7722 19.3666 16.7453 23.3936 11.7954 23.3936ZM17.7607 6.82407L18.2339 6.3507L19.2124 7.32923L18.7851 7.75652C18.7316 7.70037 18.0625 7.06208 17.7607 6.82407Z" fill="#613654"/>
<path d="M12.1603 9.07193C12.0585 8.99636 11.9324 8.95239 11.7954 8.95239C11.5 8.95239 11.2537 9.15474 11.1963 9.44466C11.1954 9.44925 11.1947 9.45366 11.1938 9.45825L10.5432 13.6492C10.4058 13.8728 10.3262 14.1357 10.3262 14.4168C10.3262 15.1101 10.8093 15.6924 11.4564 15.8459V19.4351C11.4564 19.6225 11.608 19.7741 11.7954 19.7741C14.7495 19.7741 17.1527 17.3709 17.1527 14.4168C17.1527 13.0268 16.6229 11.7095 15.6604 10.7071C14.7311 9.73917 13.4925 9.16145 12.1603 9.07193ZM11.7954 10.0037L12.2645 13.0247C12.2635 13.0244 12.2624 13.0242 12.2613 13.0238C12.1102 12.9751 11.9543 12.9476 11.7954 12.9476C11.6368 12.9476 11.4804 12.9744 11.3298 13.0237C11.3287 13.024 11.3275 13.0244 11.3264 13.0247L11.7954 10.0037ZM11.0044 14.4168C11.0044 13.9951 11.3684 13.6261 11.7959 13.6256C12.2188 13.6252 12.5866 13.9946 12.5866 14.4168C12.5866 14.8476 12.2258 15.2078 11.7954 15.2078C11.3593 15.2078 11.0044 14.8531 11.0044 14.4168ZM12.1344 19.0839V15.8464C12.6078 15.7346 13.0087 15.3755 13.1759 14.9193C13.3274 14.5061 13.2803 14.0341 13.0529 13.6579C13.0509 13.6547 13.0494 13.6513 13.0474 13.6482L12.4473 9.78243C14.7387 10.0992 16.4747 12.0552 16.4747 14.4168C16.4747 16.883 14.557 18.9097 12.1344 19.0839Z" fill="#613654"/>
</g>
<defs>
<clipPath id="clip0">
<rect width="23.1429" height="23.1429" fill="white" transform="translate(0.287109 0.928711)"/>
</clipPath>
</defs>
</svg>
