<svg width="21" height="20" viewBox="0 0 21 20" fill="none" xmlns="http://www.w3.org/2000/svg">
<path d="M10.4862 0.0283203C5.17451 0.0283203 0.853516 4.34931 0.853516 9.66097C0.853516 14.9726 5.17451 19.2936 10.4862 19.2936C15.7978 19.2936 20.1188 14.9726 20.1188 9.66097C20.1188 4.34931 15.7978 0.0283203 10.4862 0.0283203ZM15.0673 14.6434C14.9108 14.7999 14.7053 14.8787 14.4998 14.8787C14.2943 14.8787 14.0887 14.7999 13.9323 14.6434L9.91866 10.6299C9.76771 10.4798 9.68349 10.2758 9.68349 10.0624V4.84464C9.68349 4.40076 10.043 4.04197 10.4862 4.04197C10.9293 4.04197 11.2888 4.40076 11.2888 4.84464V9.73005L15.0673 13.5084C15.3811 13.8223 15.3811 14.3296 15.0673 14.6434Z" fill="white"/>
</svg>
