<svg width="59" height="59" viewBox="0 0 59 59" fill="none" xmlns="http://www.w3.org/2000/svg">
<path d="M52.7048 47.7143H54.5278C55.1637 47.7143 55.6794 48.23 55.6794 48.8659C55.6794 49.5018 55.1637 50.0175 54.5278 50.0175H50.1518C49.5159 50.0175 49.0002 49.5018 49.0002 48.8659V44.4899C49.0002 43.854 49.5159 43.3383 50.1518 43.3383C50.7877 43.3383 51.3034 43.854 51.3034 44.4899V45.757C54.7975 41.0791 56.6968 35.4033 56.6968 29.5C56.6968 14.5036 44.4964 2.30318 29.5 2.30318C14.5036 2.30318 2.30318 14.5036 2.30318 29.5C2.30318 44.4964 14.5036 56.6968 29.5 56.6968C30.6091 56.6968 31.7253 56.6295 32.818 56.4967C33.4485 56.4204 34.0234 56.8694 34.1001 57.5009C34.1769 58.1322 33.7274 58.7063 33.096 58.783C31.9114 58.927 30.7017 59 29.5 59C21.6203 59 14.2121 55.9315 8.64036 50.3596C3.06852 44.7879 0 37.3797 0 29.5C0 21.6203 3.06852 14.2121 8.64036 8.64037C14.2121 3.06852 21.6203 0 29.5 0C37.3797 0 44.7879 3.06852 50.3596 8.64037C55.9315 14.2121 59 21.6203 59 29.5C59 36.1494 56.7786 42.5329 52.7048 47.7143Z" fill="#613654"/>
<path d="M12.4915 17.3903C11.954 17.0501 11.2427 17.2102 10.9024 17.7473C8.27344 21.8994 7.10965 26.8929 7.62545 31.808C8.14884 36.796 10.3939 41.4998 13.947 45.053C18.2349 49.341 23.8674 51.485 29.5001 51.485C35.1327 51.485 40.7652 49.3411 45.0532 45.053C53.6292 36.477 53.6292 22.5228 45.0532 13.9469C41.5055 10.3993 36.8095 8.1551 31.8298 7.62767C26.9238 7.10773 21.9357 8.26243 17.7852 10.8785C17.2471 11.2176 17.086 11.9287 17.425 12.4668C17.7641 13.0049 18.4752 13.166 19.0133 12.827C26.8369 7.89588 36.875 9.02593 43.4245 15.5755C51.1025 23.2535 51.1025 35.7463 43.4245 43.4243C35.7467 51.1024 23.2535 51.1024 15.5757 43.4243C9.11664 36.9653 7.96966 26.6847 12.8485 18.9795C13.1885 18.442 13.0288 17.7306 12.4915 17.3903Z" fill="#613654"/>
<path d="M44.4699 30.6702H45.8901C46.526 30.6702 47.0417 30.1546 47.0417 29.5187C47.0417 28.8828 46.526 28.3671 45.8901 28.3671H44.4699C43.834 28.3671 43.3184 28.8828 43.3184 29.5187C43.3184 30.1546 43.8339 30.6702 44.4699 30.6702Z" fill="#613654"/>
<path d="M11.957 29.4813C11.957 30.1172 12.4727 30.6329 13.1086 30.6329H14.5288C15.1647 30.6329 15.6803 30.1172 15.6803 29.4813C15.6803 28.8454 15.1647 28.3297 14.5288 28.3297H13.1086C12.4727 28.3297 11.957 28.8453 11.957 29.4813Z" fill="#613654"/>
<path d="M30.6703 14.5293V13.1091C30.6703 12.4732 30.1547 11.9575 29.5188 11.9575C28.8829 11.9575 28.3672 12.4732 28.3672 13.1091V14.5293C28.3672 15.1652 28.8829 15.6808 29.5188 15.6808C30.1547 15.6808 30.6703 15.1652 30.6703 14.5293Z" fill="#613654"/>
<path d="M28.3301 44.4708V45.8909C28.3301 46.5268 28.8458 47.0425 29.4817 47.0425C30.1176 47.0425 30.6332 46.5268 30.6332 45.8909V44.4708C30.6332 43.8349 30.1176 43.3192 29.4817 43.3192C28.8458 43.3192 28.3301 43.8347 28.3301 44.4708Z" fill="#613654"/>
<path d="M23.7277 22.0992C23.2779 21.6496 22.5489 21.6496 22.099 22.0992C21.6493 22.5489 21.6493 23.278 22.099 23.7279L26.0018 27.6307C25.7028 28.1881 25.5327 28.8245 25.5327 29.5001C25.5327 31.6876 27.3123 33.4673 29.4999 33.4673C31.6875 33.4673 33.4671 31.6876 33.4671 29.5001C33.4671 28.8245 33.2969 28.1881 32.998 27.6307L40.8729 19.7558C41.3226 19.3061 41.3226 18.5769 40.8729 18.1271C40.4231 17.6775 39.6941 17.6775 39.2442 18.1271L31.3693 26.002C30.8119 25.7029 30.1754 25.5329 29.4999 25.5329C28.8244 25.5329 28.1879 25.7031 27.6305 26.002L23.7277 22.0992ZM31.1639 29.5001C31.1639 30.4177 30.4175 31.1641 29.4999 31.1641C28.5823 31.1641 27.8359 30.4177 27.8359 29.5001C27.8359 28.5825 28.5823 27.836 29.4999 27.836C30.4175 27.836 31.1639 28.5825 31.1639 29.5001Z" fill="#613654"/>
<path d="M15.5732 15.575C15.7885 15.3608 15.9116 15.0637 15.9116 14.7608C15.9116 14.4579 15.7885 14.162 15.5732 13.9466C15.359 13.7326 15.0629 13.6092 14.759 13.6092C14.4561 13.6092 14.159 13.7324 13.9448 13.9466C13.7308 14.1608 13.6074 14.4579 13.6074 14.7608C13.6074 15.0648 13.7306 15.3608 13.9448 15.575C14.159 15.7891 14.4561 15.9124 14.759 15.9124C15.0629 15.9124 15.359 15.7891 15.5732 15.575Z" fill="#613654"/>
<path d="M37.4778 3.44064C37.7819 3.44064 38.079 3.31845 38.2931 3.10322C38.5073 2.88902 38.6306 2.59295 38.6306 2.28905C38.6306 1.98618 38.5074 1.68907 38.2931 1.47487C38.079 1.26079 37.7819 1.13746 37.4778 1.13746C37.1749 1.13746 36.8778 1.26068 36.6637 1.47487C36.4495 1.68907 36.3262 1.98618 36.3262 2.28905C36.3262 2.59307 36.4494 2.88902 36.6637 3.10322C36.8778 3.31845 37.1749 3.44064 37.4778 3.44064Z" fill="#613654"/>
</svg>
