<svg width="53" height="53" viewBox="0 0 53 53" fill="none" xmlns="http://www.w3.org/2000/svg">
<g clip-path="url(#clip0)">
<path d="M47.828 9.52361H43.4803V5.17576C43.4803 2.32185 41.1585 0 38.3045 0H5.17967C2.32575 0 0.00390625 2.32185 0.00390625 5.17576V38.3006C0.00390625 41.1545 2.32575 43.4764 5.17967 43.4764H9.52741V47.8242C9.52741 50.6782 11.8493 53 14.7032 53H47.828C50.682 53 53.0038 50.6782 53.0038 47.8242V14.6993C53.0039 11.8454 50.6821 9.52361 47.828 9.52361ZM5.17967 41.4061C3.46732 41.4061 2.07421 40.0131 2.07421 38.3006V5.17576C2.07421 3.46341 3.46732 2.0703 5.17967 2.0703H38.3045C40.0169 2.0703 41.41 3.46341 41.41 5.17576V38.3006C41.41 40.013 40.0169 41.4061 38.3045 41.4061H5.17967ZM50.9335 47.8242C50.9335 49.5366 49.5404 50.9297 47.828 50.9297H14.7032C12.9908 50.9297 11.5977 49.5366 11.5977 47.8242V43.4764H38.3045C41.1585 43.4764 43.4803 41.1545 43.4803 38.3006V11.5939H47.828C49.5404 11.5939 50.9335 12.987 50.9335 14.6994V47.8242Z" fill="#613654"/>
<path d="M14.7252 47.3067H14.6973C14.1255 47.3067 13.6621 47.7702 13.6621 48.3419C13.6621 48.9136 14.1255 49.377 14.6973 49.377H14.7252C15.2969 49.377 15.7604 48.9136 15.7604 48.3419C15.7604 47.7702 15.297 47.3067 14.7252 47.3067Z" fill="#613654"/>
<path d="M47.8268 47.3067H17.6992C17.1275 47.3067 16.6641 47.7702 16.6641 48.3419C16.6641 48.9136 17.1275 49.377 17.6992 49.377H47.8267C48.3983 49.377 48.8618 48.9136 48.8618 48.3419C48.8618 47.7702 48.3984 47.3067 47.8268 47.3067Z" fill="#613654"/>
<path d="M11.3912 3.62311H11.3633C10.7916 3.62311 10.3281 4.08654 10.3281 4.65826C10.3281 5.22997 10.7916 5.69341 11.3633 5.69341H11.3912C11.9629 5.69341 12.4264 5.22997 12.4264 4.65826C12.4264 4.08654 11.963 3.62311 11.3912 3.62311Z" fill="#613654"/>
<path d="M8.38837 3.62311H5.17578C4.60406 3.62311 4.14062 4.08654 4.14062 4.65826C4.14062 5.22997 4.60406 5.69341 5.17578 5.69341H8.38827C8.95998 5.69341 9.42342 5.22997 9.42342 4.65826C9.42352 4.08654 8.96008 3.62311 8.38837 3.62311Z" fill="#613654"/>
<path d="M30.381 20.8199C30.1349 19.909 29.549 19.1485 28.7328 18.6796L23.6691 15.7561C23.6182 15.7231 23.567 15.6914 23.5155 15.6618L18.4647 12.7456C17.8862 12.3641 17.2137 12.1627 16.5173 12.1627C14.5639 12.1627 12.9746 13.7519 12.9746 15.7054V27.7764C12.9746 27.8185 12.9772 27.8602 12.9821 27.9009C13.0025 28.4786 13.1655 29.0458 13.4568 29.5489C14.0872 30.6375 15.2608 31.3136 16.5198 31.3136C17.1394 31.3136 17.7516 31.1488 18.2888 30.8377L23.5155 27.8199C23.5451 27.8027 23.5735 27.7844 23.6009 27.7648L28.6958 24.8235C29.252 24.5129 29.7144 24.0558 30.0335 23.5007C30.5036 22.6827 30.627 21.7306 30.381 20.8199ZM28.2388 22.4691C28.1058 22.7002 27.9136 22.8901 27.683 23.0181C27.6779 23.0209 27.6727 23.0238 27.6677 23.0267L22.4781 26.0227C22.4484 26.0397 22.42 26.0582 22.3926 26.0777L17.2525 29.0455C17.029 29.1749 16.7756 29.2434 16.5198 29.2434C15.997 29.2434 15.5098 28.963 15.2483 28.5115C15.1186 28.2875 15.0502 28.0337 15.0504 27.7775C15.0504 27.7423 15.0486 27.7072 15.045 27.6724V15.7054H15.0451C15.0451 14.8935 15.7057 14.233 16.5175 14.233C16.8126 14.233 17.0967 14.3195 17.339 14.4832C17.3592 14.4968 17.3798 14.5097 17.4008 14.5219L22.4825 17.4559C22.5079 17.4706 22.5324 17.4862 22.5566 17.5022C22.5738 17.5135 22.5913 17.5244 22.6091 17.5347L27.6996 20.4736C28.0381 20.6681 28.2806 20.9828 28.3824 21.3598C28.4842 21.7368 28.4332 22.1308 28.2388 22.4691Z" fill="#613654"/>
</g>
<defs>
<clipPath id="clip0">
<rect width="53" height="53" fill="white"/>
</clipPath>
</defs>
</svg>
