<svg width="23" height="23" viewBox="0 0 23 23" fill="none" xmlns="http://www.w3.org/2000/svg">
<g clip-path="url(#clip0)">
<path d="M20.2968 4.49906H18.5038V2.70601C18.5038 1.52906 17.5463 0.571533 16.3694 0.571533H2.7087C1.53175 0.571533 0.574219 1.52906 0.574219 2.70601V16.3667C0.574219 17.5436 1.53175 18.5012 2.7087 18.5012H4.5017V20.2942C4.5017 21.4711 5.45923 22.4287 6.63618 22.4287H20.2968C21.4738 22.4287 22.4313 21.4711 22.4313 20.2942V6.63349C22.4314 5.45654 21.4738 4.49906 20.2968 4.49906ZM2.7087 17.6474C2.00253 17.6474 1.42801 17.0729 1.42801 16.3667V2.70601C1.42801 1.99984 2.00253 1.42532 2.7087 1.42532H16.3694C17.0755 1.42532 17.65 1.99984 17.65 2.70601V16.3667C17.65 17.0728 17.0755 17.6474 16.3694 17.6474H2.7087ZM21.5775 20.2942C21.5775 21.0004 21.003 21.5749 20.2968 21.5749H6.63618C5.93001 21.5749 5.35549 21.0004 5.35549 20.2942V18.5012H16.3694C17.5463 18.5012 18.5038 17.5436 18.5038 16.3667V5.35285H20.2968C21.003 5.35285 21.5775 5.92737 21.5775 6.63354V20.2942Z" fill="#613654"/>
<path d="M6.64545 20.0808H6.63393C6.39815 20.0808 6.20703 20.2719 6.20703 20.5077C6.20703 20.7435 6.39815 20.9346 6.63393 20.9346H6.64545C6.88123 20.9346 7.07235 20.7435 7.07235 20.5077C7.07235 20.2719 6.88127 20.0808 6.64545 20.0808Z" fill="#613654"/>
<path d="M20.2968 20.0808H7.87221C7.63643 20.0808 7.44531 20.2719 7.44531 20.5077C7.44531 20.7435 7.63643 20.9346 7.87221 20.9346H20.2967C20.5325 20.9346 20.7236 20.7435 20.7236 20.5077C20.7236 20.2719 20.5325 20.0808 20.2968 20.0808Z" fill="#613654"/>
<path d="M5.27045 2.06567H5.25893C5.02315 2.06567 4.83203 2.25679 4.83203 2.49257C4.83203 2.72834 5.02315 2.91946 5.25893 2.91946H5.27045C5.50623 2.91946 5.69735 2.72834 5.69735 2.49257C5.69735 2.25679 5.50627 2.06567 5.27045 2.06567Z" fill="#613654"/>
<path d="M4.03106 2.06567H2.70619C2.47042 2.06567 2.2793 2.25679 2.2793 2.49257C2.2793 2.72834 2.47042 2.91946 2.70619 2.91946H4.03102C4.26679 2.91946 4.45792 2.72834 4.45792 2.49257C4.45796 2.25679 4.26684 2.06567 4.03106 2.06567Z" fill="#613654"/>
<path d="M13.1003 9.15762C12.9988 8.78199 12.7572 8.46835 12.4205 8.27497L10.3323 7.06933C10.3113 7.05571 10.2902 7.04265 10.2689 7.03044L8.186 5.82779C7.94741 5.67048 7.67005 5.5874 7.38288 5.5874C6.57729 5.5874 5.92188 6.24277 5.92188 7.04841V12.0265C5.92188 12.0439 5.92294 12.061 5.92495 12.0778C5.93336 12.3161 6.00059 12.55 6.12072 12.7575C6.3807 13.2064 6.86472 13.4852 7.38391 13.4852C7.63945 13.4852 7.89191 13.4173 8.11343 13.2889L10.2689 12.0444C10.2811 12.0373 10.2929 12.0298 10.3041 12.0217L12.4053 10.8087C12.6346 10.6806 12.8253 10.4921 12.9569 10.2632C13.1508 9.92586 13.2017 9.5332 13.1003 9.15762ZM12.2168 9.83775C12.162 9.93307 12.0827 10.0114 11.9876 10.0642C11.9855 10.0653 11.9834 10.0665 11.9813 10.0677L9.84112 11.3032C9.82887 11.3103 9.81713 11.3179 9.80586 11.326L7.68606 12.5499C7.5939 12.6032 7.48939 12.6315 7.38391 12.6315C7.16832 12.6315 6.96738 12.5158 6.85955 12.3296C6.80606 12.2372 6.77784 12.1326 6.77793 12.0269C6.77793 12.0124 6.7772 11.9979 6.77571 11.9836V7.04841H6.77575C6.77575 6.7136 7.04815 6.44119 7.38297 6.44119C7.50468 6.44119 7.62182 6.47688 7.72175 6.54437C7.73008 6.54997 7.73857 6.5553 7.74724 6.56034L9.84291 7.77033C9.85341 7.7764 9.86349 7.7828 9.87348 7.78942C9.88056 7.79407 9.88778 7.79855 9.89512 7.80282L11.9945 9.01482C12.1341 9.09504 12.234 9.22481 12.276 9.38029C12.318 9.53576 12.297 9.69824 12.2168 9.83775Z" fill="#613654"/>
</g>
<defs>
<clipPath id="clip0">
<rect width="21.8571" height="21.8571" fill="white" transform="translate(0.572266 0.571533)"/>
</clipPath>
</defs>
</svg>
