<svg width="56" height="18" viewBox="0 0 56 18" fill="none" xmlns="http://www.w3.org/2000/svg">
<g clip-path="url(#clip0)">
<path d="M23.9308 17.7399H19.457L22.2553 0.31543H26.7288L23.9308 17.7399Z" fill="white"/>
<path d="M40.1506 0.741829C39.2682 0.38927 37.8686 0 36.138 0C31.72 0 28.6088 2.37257 28.5898 5.76463C28.5531 8.26729 30.8172 9.65733 32.5107 10.4918C34.2415 11.3445 34.8299 11.901 34.8299 12.6611C34.8123 13.8284 33.4312 14.3665 32.1432 14.3665C30.3571 14.3665 29.4 14.0891 27.9456 13.4396L27.3565 13.1612L26.7305 17.0727C27.7797 17.5541 29.7129 17.9813 31.72 18C36.4142 18 39.4703 15.6641 39.5065 12.0494C39.5243 10.0658 38.3288 8.54594 35.7512 7.30397C34.1865 6.50671 33.2282 5.96912 33.2282 5.15338C33.2465 4.4118 34.0387 3.65223 35.805 3.65223C37.2594 3.61503 38.328 3.9671 39.1376 4.31941L39.5422 4.50444L40.1506 0.741829V0.741829Z" fill="white"/>
<path d="M46.0955 11.567C46.464 10.566 47.8817 6.69181 47.8817 6.69181C47.8631 6.72901 48.2494 5.67232 48.4703 5.02362L48.7829 6.52501C48.7829 6.52501 49.6301 10.6959 49.8141 11.567C49.1149 11.567 46.9792 11.567 46.0955 11.567ZM51.6179 0.31543H48.1574C47.0902 0.31543 46.2795 0.630294 45.8191 1.76115L39.1738 17.7397H43.868C43.868 17.7397 44.6409 15.5891 44.807 15.1259C45.322 15.1259 49.8885 15.1259 50.551 15.1259C50.6794 15.7376 51.0848 17.7397 51.0848 17.7397H55.2271L51.6179 0.31543V0.31543Z" fill="white"/>
<path d="M15.7212 0.31543L11.3399 12.1973L10.8611 9.78748C10.0511 7.00692 7.51071 3.98589 4.67578 2.48376L8.68891 17.7214H13.4198L20.4519 0.31543H15.7212V0.31543Z" fill="white"/>
<path d="M7.27154 0.31543H0.0736374L0 0.667496C5.61481 2.11346 9.33339 5.5989 10.8612 9.78822L9.29645 1.78012C9.03884 0.66725 8.24718 0.352139 7.27154 0.31543Z" fill="#FAA61A"/>
</g>
<defs>
<clipPath id="clip0">
<rect width="55.2273" height="18" fill="white"/>
</clipPath>
</defs>
</svg>
