<svg width="60" height="60" viewBox="0 0 60 60" fill="none" xmlns="http://www.w3.org/2000/svg">
<path d="M30 42.3047C36.7848 42.3047 42.3047 36.7848 42.3047 30V12.3047C42.3047 5.51988 36.7848 0 30 0C23.2152 0 17.6953 5.51988 17.6953 12.3047V30C17.6953 36.7848 23.2152 42.3047 30 42.3047Z" fill="white"/>
<path d="M47.5781 24.7266C46.6073 24.7266 45.8203 25.5136 45.8203 26.4844V30C45.8203 38.7233 38.7233 45.8203 30 45.8203C21.2767 45.8203 14.1797 38.7233 14.1797 30V26.4844C14.1797 25.5136 13.3927 24.7266 12.4219 24.7266C11.4511 24.7266 10.6641 25.5136 10.6641 26.4844V30C10.6641 40.0693 18.4011 48.3641 28.2422 49.2552V56.4844H19.4531C18.4823 56.4844 17.6953 57.2714 17.6953 58.2422C17.6953 59.213 18.4823 60 19.4531 60H40.5469C41.5177 60 42.3047 59.213 42.3047 58.2422C42.3047 57.2714 41.5177 56.4844 40.5469 56.4844H31.7578V49.2552C41.5989 48.3641 49.3359 40.0693 49.3359 30V26.4844C49.3359 25.5136 48.5489 24.7266 47.5781 24.7266Z" fill="white"/>
<path d="M12.4219 17.6953C13.3927 17.6953 14.1797 16.9083 14.1797 15.9375V7.14844C14.1797 6.17766 13.3927 5.39062 12.4219 5.39062C11.4511 5.39062 10.6641 6.17766 10.6641 7.14844V15.9375C10.6641 16.9083 11.4511 17.6953 12.4219 17.6953Z" fill="white"/>
<path d="M5.39062 0C4.41984 0 3.63281 0.787031 3.63281 1.75781V21.2109C3.63281 22.1817 4.41984 22.9688 5.39062 22.9688C6.36141 22.9688 7.14844 22.1817 7.14844 21.2109V1.75781C7.14844 0.787031 6.36141 0 5.39062 0Z" fill="white"/>
<path d="M47.5781 5.39062C46.6073 5.39062 45.8203 6.17766 45.8203 7.14844V15.9375C45.8203 16.9083 46.6073 17.6953 47.5781 17.6953C48.5489 17.6953 49.3359 16.9083 49.3359 15.9375V7.14844C49.3359 6.17766 48.5489 5.39062 47.5781 5.39062Z" fill="white"/>
<path d="M54.6094 0C53.6386 0 52.8516 0.787031 52.8516 1.75781V21.2109C52.8516 22.1817 53.6386 22.9688 54.6094 22.9688C55.5802 22.9688 56.3672 22.1817 56.3672 21.2109V1.75781C56.3672 0.787031 55.5802 0 54.6094 0Z" fill="white"/>
</svg>
