<svg width="60" height="60" viewBox="0 0 60 60" fill="none" xmlns="http://www.w3.org/2000/svg">
<path fill-rule="evenodd" clip-rule="evenodd" d="M3.63281 1.75781C3.63281 0.787031 4.41984 0 5.39062 0C6.36141 0 7.14844 0.787031 7.14844 1.75781V21.2109C7.14844 22.1817 6.36141 22.9688 5.39062 22.9688C4.41984 22.9688 3.63281 22.1817 3.63281 21.2109V1.75781ZM42.3047 30C42.3047 36.7848 36.7848 42.3047 30 42.3047C23.2152 42.3047 17.6953 36.7848 17.6953 30V12.3047C17.6953 5.51988 23.2152 0 30 0C36.7848 0 42.3047 5.51988 42.3047 12.3047V30ZM45.8203 26.4844C45.8203 25.5136 46.6073 24.7266 47.5781 24.7266C48.5489 24.7266 49.3359 25.5136 49.3359 26.4844V30C49.3359 40.0693 41.5989 48.3641 31.7578 49.2552V56.4844H40.5469C41.5177 56.4844 42.3047 57.2714 42.3047 58.2422C42.3047 59.213 41.5177 60 40.5469 60H19.4531C18.4823 60 17.6953 59.213 17.6953 58.2422C17.6953 57.2714 18.4823 56.4844 19.4531 56.4844H28.2422V49.2552C18.4011 48.3641 10.6641 40.0693 10.6641 30V26.4844C10.6641 25.5136 11.4511 24.7266 12.4219 24.7266C13.3927 24.7266 14.1797 25.5136 14.1797 26.4844V30C14.1797 38.7233 21.2767 45.8203 30 45.8203C38.7233 45.8203 45.8203 38.7233 45.8203 30V26.4844ZM12.4219 17.6953C13.3927 17.6953 14.1797 16.9083 14.1797 15.9375V7.14844C14.1797 6.17766 13.3927 5.39062 12.4219 5.39062C11.4511 5.39062 10.6641 6.17766 10.6641 7.14844V15.9375C10.6641 16.9083 11.4511 17.6953 12.4219 17.6953ZM47.5781 5.39062C46.6073 5.39062 45.8203 6.17766 45.8203 7.14844V15.9375C45.8203 16.9083 46.6073 17.6953 47.5781 17.6953C48.5489 17.6953 49.3359 16.9083 49.3359 15.9375V7.14844C49.3359 6.17766 48.5489 5.39062 47.5781 5.39062ZM52.8516 1.75781C52.8516 0.787031 53.6386 0 54.6094 0C55.5802 0 56.3672 0.787031 56.3672 1.75781V21.2109C56.3672 22.1817 55.5802 22.9688 54.6094 22.9688C53.6386 22.9688 52.8516 22.1817 52.8516 21.2109V1.75781Z" fill="url(#paint0_linear)"/>
<defs>
<linearGradient id="paint0_linear" x1="7.90857" y1="62.2109" x2="25.1549" y2="-9.50048" gradientUnits="userSpaceOnUse">
<stop stop-color="#9E0A75"/>
<stop offset="1" stop-color="#EF712A"/>
</linearGradient>
</defs>
</svg>
