<svg width="52" height="46" viewBox="0 0 52 46" fill="none" xmlns="http://www.w3.org/2000/svg">
<path fill-rule="evenodd" clip-rule="evenodd" d="M0.25 16.3214C0.25 7.44679 8.88357 0.25 19.5357 0.25C28.9471 0.25 36.7739 5.87178 38.4711 13.3032C37.5325 13.1875 36.5811 13.1071 35.6071 13.1071C24.9711 13.1071 16.3214 20.3168 16.3214 29.1786C16.3214 30.2104 16.45 31.2164 16.675 32.1968C15.0261 31.9943 13.4832 31.5604 11.9982 31.0332L5.07143 34L7.61393 28.915C3.13643 25.9771 0.25 21.4386 0.25 16.3214ZM10.6964 9.89286C10.6964 11.2236 11.7764 12.3036 13.1071 12.3036C14.4379 12.3036 15.5179 11.2236 15.5179 9.89286C15.5179 8.56214 14.4379 7.48214 13.1071 7.48214C11.7764 7.48214 10.6964 8.56214 10.6964 9.89286ZM23.5536 9.89286C23.5536 11.2236 24.6336 12.3036 25.9643 12.3036C27.295 12.3036 28.375 11.2236 28.375 9.89286C28.375 8.56214 27.295 7.48214 25.9643 7.48214C24.6336 7.48214 23.5536 8.56214 23.5536 9.89286ZM35.6076 16.3214C44.4822 16.3214 51.679 22.0781 51.679 29.1785C51.679 33.2896 49.2233 36.9089 45.469 39.2617L48.4647 45.2499L39.8022 41.5374C38.4554 41.8299 37.0668 42.0356 35.6076 42.0356C26.7329 42.0356 19.5361 36.2789 19.5361 29.1785C19.5361 22.0781 26.7329 16.3214 35.6076 16.3214ZM28.3754 25.9642C28.3754 27.2949 29.4554 28.3749 30.7861 28.3749C32.1168 28.3749 33.1968 27.2949 33.1968 25.9642C33.1968 24.6335 32.1168 23.5535 30.7861 23.5535C29.4554 23.5535 28.3754 24.6335 28.3754 25.9642ZM38.0183 25.9642C38.0183 27.2949 39.0983 28.3749 40.429 28.3749C41.7597 28.3749 42.8397 27.2949 42.8397 25.9642C42.8397 24.6335 41.7597 23.5535 40.429 23.5535C39.0983 23.5535 38.0183 24.6335 38.0183 25.9642Z" fill="white"/>
</svg>
