<svg width="52" height="44" viewBox="0 0 52 44" fill="none" xmlns="http://www.w3.org/2000/svg">
<path fill-rule="evenodd" clip-rule="evenodd" d="M0 16.3214C0 7.44679 8.63357 0.25 19.2857 0.25C27.5116 0.25 34.5268 4.54461 37.297 10.5885C37.8791 11.8587 36.7544 13.1071 35.3571 13.1071C24.7211 13.1071 16.0714 20.3168 16.0714 29.1786C16.0714 30.6595 14.8701 31.9858 13.446 31.5797C13.1761 31.5027 12.9085 31.4213 12.643 31.3361C12.0647 31.1505 11.4381 31.166 10.8798 31.4052L8.76299 32.3118C7.41767 32.888 6.08452 31.4738 6.73903 30.1648C7.09536 29.4521 6.85676 28.5912 6.22436 28.1065C2.40272 25.1773 0 20.9902 0 16.3214ZM10.4464 9.89286C10.4464 11.2236 11.5264 12.3036 12.8571 12.3036C14.1879 12.3036 15.2679 11.2236 15.2679 9.89286C15.2679 8.56214 14.1879 7.48214 12.8571 7.48214C11.5264 7.48214 10.4464 8.56214 10.4464 9.89286ZM23.3036 9.89286C23.3036 11.2236 24.3836 12.3036 25.7143 12.3036C27.045 12.3036 28.125 11.2236 28.125 9.89286C28.125 8.56214 27.045 7.48214 25.7143 7.48214C24.3836 7.48214 23.3036 8.56214 23.3036 9.89286ZM35.3576 16.3214C44.2322 16.3214 51.429 22.0781 51.429 29.1785C51.429 32.7662 49.5587 35.9794 46.5873 38.3031C45.8406 38.887 45.5427 39.9087 45.9667 40.7564C46.7337 42.2894 45.1721 43.9459 43.5965 43.2707L40.4599 41.9264C39.8695 41.6734 39.216 41.6168 38.5837 41.7298C37.5408 41.9161 36.4697 42.0356 35.3576 42.0356C26.4829 42.0356 19.2861 36.2789 19.2861 29.1785C19.2861 22.0781 26.4829 16.3214 35.3576 16.3214ZM28.1254 25.9642C28.1254 27.2949 29.2054 28.3749 30.5361 28.3749C31.8668 28.3749 32.9468 27.2949 32.9468 25.9642C32.9468 24.6335 31.8668 23.5535 30.5361 23.5535C29.2054 23.5535 28.1254 24.6335 28.1254 25.9642ZM37.7683 25.9642C37.7683 27.2949 38.8483 28.3749 40.179 28.3749C41.5097 28.3749 42.5897 27.2949 42.5897 25.9642C42.5897 24.6335 41.5097 23.5535 40.179 23.5535C38.8483 23.5535 37.7683 24.6335 37.7683 25.9642Z" fill="url(#paint0_linear)"/>
<defs>
<linearGradient id="paint0_linear" x1="7.36686" y1="8.39815" x2="6.38744" y2="38.2196" gradientUnits="userSpaceOnUse">
<stop stop-color="#3BBF78"/>
<stop offset="1" stop-color="#209A84"/>
</linearGradient>
</defs>
</svg>
