<svg width="69" height="60" viewBox="0 0 69 60" fill="none" xmlns="http://www.w3.org/2000/svg">
<path fill-rule="evenodd" clip-rule="evenodd" d="M0 21.4286C0 9.59571 11.5114 0 25.7143 0C38.2629 0 48.6986 7.49571 50.9614 17.4043C49.71 17.25 48.4414 17.1429 47.1429 17.1429C32.9614 17.1429 21.4286 26.7557 21.4286 38.5714C21.4286 39.9471 21.6 41.2886 21.9 42.5957C19.7014 42.3257 17.6443 41.7471 15.6643 41.0443L6.42857 45L9.81857 38.22C3.84857 34.3029 0 28.2514 0 21.4286ZM13.9286 12.8571C13.9286 14.6314 15.3686 16.0714 17.1429 16.0714C18.9171 16.0714 20.3571 14.6314 20.3571 12.8571C20.3571 11.0829 18.9171 9.64286 17.1429 9.64286C15.3686 9.64286 13.9286 11.0829 13.9286 12.8571ZM31.0714 12.8571C31.0714 14.6314 32.5114 16.0714 34.2857 16.0714C36.06 16.0714 37.5 14.6314 37.5 12.8571C37.5 11.0829 36.06 9.64286 34.2857 9.64286C32.5114 9.64286 31.0714 11.0829 31.0714 12.8571ZM47.1436 21.4286C58.9764 21.4286 68.5722 29.1043 68.5722 38.5714C68.5722 44.0529 65.2979 48.8786 60.2922 52.0157L64.2864 60L52.7364 55.05C50.9407 55.44 49.0893 55.7143 47.1436 55.7143C35.3107 55.7143 25.715 48.0386 25.715 38.5714C25.715 29.1043 35.3107 21.4286 47.1436 21.4286ZM37.5007 34.2857C37.5007 36.06 38.9407 37.5 40.715 37.5C42.4893 37.5 43.9293 36.06 43.9293 34.2857C43.9293 32.5114 42.4893 31.0714 40.715 31.0714C38.9407 31.0714 37.5007 32.5114 37.5007 34.2857ZM50.3579 34.2857C50.3579 36.06 51.7979 37.5 53.5722 37.5C55.3464 37.5 56.7864 36.06 56.7864 34.2857C56.7864 32.5114 55.3464 31.0714 53.5722 31.0714C51.7979 31.0714 50.3579 32.5114 50.3579 34.2857Z" fill="#3BBF78"/>
</svg>
