<svg width="61" height="61" viewBox="0 0 61 61" fill="none" xmlns="http://www.w3.org/2000/svg">
<path d="M49.8226 43.7016C49.0185 39.6741 45.2403 38.9885 45.2284 38.983V38.9832C45.1878 38.9713 45.575 39.0684 36.014 36.6984V36.374H43.0522C44.503 36.374 45.6832 35.1937 45.6832 33.743V20.3199C45.8015 19.8208 45.8017 19.302 45.6832 18.8018V13.9029C45.6832 13.4092 45.283 13.0092 44.7895 13.0092C44.2958 13.0092 43.8958 13.4092 43.8958 13.9029V16.4676C43.424 16.186 42.8852 15.984 42.3045 15.8841C42.0948 14.9527 41.3213 14.2165 40.3404 14.0877C39.318 13.9533 38.5431 13.3572 38.0373 12.3162C37.8006 11.8288 37.3369 11.5086 36.7972 11.4595C36.257 11.4107 35.7456 11.6415 35.4254 12.0773C33.8892 14.168 29.6186 18.8572 22.2442 18.857C21.6831 18.857 21.3027 18.8304 21.1702 18.8245C19.8151 18.7428 18.6694 19.8256 18.6694 21.1834V23.2368C18.6694 26.5188 20.0309 29.7006 22.4047 31.9661C23.1919 32.7176 24.0604 33.3444 24.9864 33.8442V34.5869H17.9804C17.5151 34.5869 17.1366 34.2084 17.1366 33.7432V13.6621C17.1366 7.15189 22.4447 1.78746 28.8566 1.78746C28.8773 1.78746 28.8981 1.78758 28.9187 1.7877C31.2159 1.79997 33.8684 2.45251 35.6759 3.44959C36.8214 4.08187 37.529 3.57934 38.6602 3.57934C41.4213 3.57934 43.634 6.41846 43.8992 8.972C43.9008 9.00941 43.9048 9.15917 43.9053 9.73295C43.9059 10.5956 44.8802 10.6619 44.7996 10.6259C45.2934 10.6256 45.693 10.225 45.6926 9.73152C45.6925 9.57283 45.6938 8.95055 45.6789 8.80616C45.3196 5.25136 42.2873 1.79199 38.6603 1.79199C37.2437 1.79199 37.023 2.15108 36.5394 1.88468C34.4898 0.753919 31.5022 0.0141745 28.9283 0.000354159C21.5092 -0.0476595 15.3492 6.133 15.3492 13.662V33.7431C15.3492 35.1939 16.5295 36.3741 17.9803 36.3741H24.9864V36.6985L15.8081 38.9733C15.7959 38.9763 15.784 38.9797 15.772 38.9832L15.1015 39.1809C15.0813 39.1869 15.0615 39.1934 15.0419 39.2007C13.8452 39.6473 11.7521 40.8257 11.1777 43.7021C8.4577 57.3654 8.5722 56.7819 8.56565 56.8288C8.23801 59.1462 9.39808 60.9999 12.1887 60.9999H21.8528C22.3465 60.9999 22.7465 60.5998 22.7465 60.1062C22.7465 59.6125 22.3464 59.2125 21.8528 59.2125H18.4898V50.7833C18.4898 50.2896 18.0897 49.8897 17.5961 49.8897C17.1025 49.8897 16.7025 50.2897 16.7025 50.7833V59.2125H12.1887C11.0016 59.2125 10.3122 58.8303 10.3008 57.5833C10.2958 56.9749 10.2719 57.5679 12.9306 44.0515C13.3308 42.0472 14.7862 41.21 15.6389 40.8858L16.2587 40.7031L21.5295 39.3967C27.3927 46.304 27.0455 45.938 27.3844 46.2685C29.3414 48.1775 32.1338 48.0427 33.9717 45.8844L39.4909 39.4016L44.7415 40.703C44.8934 40.7728 47.5071 41.2325 48.0698 44.0512C50.7057 57.4506 50.7047 56.9721 50.6997 57.5826C50.6907 58.804 50.0299 59.2126 48.8118 59.2126H44.3301V50.7833C44.3301 50.2896 43.9302 49.8897 43.4364 49.8897C42.9427 49.8897 42.5428 50.2897 42.5428 50.7833V59.2125H26.0233C25.5296 59.2125 25.1296 59.6126 25.1296 60.1062C25.1296 60.5999 25.5297 60.9999 26.0233 60.9999H48.8119C51.0199 60.9999 52.4668 59.785 52.4872 57.5969C52.4947 56.575 52.4338 57.0632 49.8226 43.7016ZM42.363 17.7278C43.1093 17.9497 43.6848 18.4415 43.896 19.0489V20.0728C43.6848 20.6803 43.1093 21.1721 42.363 21.394V17.7278ZM42.363 23.3924V23.2274C42.9215 23.1242 43.4401 22.9265 43.896 22.6542V33.7431C43.896 34.2084 43.5175 34.5866 43.0523 34.5866H36.014V33.896C39.8031 31.915 42.363 27.9487 42.363 23.3924ZM23.6388 30.673C21.6167 28.7428 20.457 26.0325 20.457 23.2366C20.5101 21.2908 20.3282 21.055 20.6386 20.7626C20.7486 20.659 20.8965 20.5988 21.0629 20.6083C27.4708 20.9941 32.9822 18.1772 36.621 13.4606C37.6021 15.1834 39.041 15.7198 40.1078 15.86C40.3744 15.895 40.5756 16.1226 40.5756 16.3896C40.5756 18.8619 40.5756 20.938 40.5756 23.3925C40.5756 32.2847 29.9302 36.6776 23.6388 30.673ZM32.6105 44.7256C31.3653 46.1883 29.6223 46.1844 28.3802 44.7182L26.5155 42.5174H34.4905L32.6105 44.7256ZM36.0124 40.7299H25.0013L23.4655 38.917L26.0954 38.2651C26.4943 38.1663 26.774 37.7996 26.774 37.3888L26.7741 34.624C29.2332 35.4437 31.8301 35.4348 34.2266 34.6495C34.2434 37.5059 34.1883 37.4405 34.2764 37.6925C34.3739 37.9711 34.6061 38.1909 34.9051 38.265L37.5523 38.9211L36.0124 40.7299Z" fill="#613654"/>
</svg>
