<svg width="47" height="47" viewBox="0 0 47 47" fill="none" xmlns="http://www.w3.org/2000/svg">
<g clip-path="url(#clip0)">
<path d="M40.4383 36.0598L38.5382 37.9599C39.0669 39.0447 39.3478 40.2433 39.3478 41.4855V46.0967C39.3478 46.5278 38.9982 46.8773 38.5672 46.8773C38.1361 46.8773 37.7865 46.5278 37.7865 46.0967V41.4855C37.7865 38.0689 35.1598 35.2832 31.8256 35.0131L28.5841 46.312C28.4859 46.6544 28.1735 46.8775 27.8342 46.8775C27.3152 46.8775 26.9405 46.3799 27.0834 45.8814L30.2412 34.8746C28.971 34.5962 27.8638 33.8183 27.1672 32.6746C26.9429 32.3065 27.0596 31.8262 27.4278 31.6019C27.7958 31.3774 28.2762 31.4942 28.5005 31.8624C29.0683 32.7945 30.039 33.3686 31.1208 33.4231C31.2177 33.4069 31.3188 33.409 31.4198 33.4317C33.8571 33.4699 36.1533 34.5873 37.6939 36.5964L39.3343 34.9559C39.9713 34.319 40.0307 33.3053 39.4725 32.5983C38.2346 31.0314 38.5493 29.1358 39.7361 28.0168C40.4027 27.3884 40.4781 26.3346 39.9078 25.6177L38.7841 24.2051C38.1076 23.3546 37.8872 22.2246 38.1948 21.1822L38.9213 18.7204C39.1801 17.843 38.737 16.9199 37.8907 16.5731L36.9319 16.1803C35.6729 15.6643 34.8593 14.4521 34.8593 13.0919V10.5794C34.8593 5.62905 30.8322 1.60199 25.8823 1.60199H21.1986C16.2487 1.60199 12.2216 5.62925 12.2216 10.5794V13.0919C12.2216 14.4521 11.4081 15.6643 10.1491 16.1803L9.19021 16.5731C8.34383 16.9199 7.90084 17.843 8.15961 18.7204L8.88606 21.1822C9.19362 22.2246 8.97339 23.3546 8.2968 24.2051L7.17312 25.6177C6.60288 26.3346 6.67831 27.3883 7.34475 28.0168C8.53362 29.1377 8.84479 31.0329 7.60821 32.5985C7.05007 33.3054 7.1095 34.319 7.74647 34.9559L9.38692 36.5964C10.8972 34.6268 13.2126 33.4286 15.79 33.4286C17.5915 33.4286 19.0518 31.9769 19.0518 30.1753V29.9702C15.8253 28.4339 13.6675 25.3903 13.1979 21.981C13.139 21.5539 13.4376 21.16 13.8646 21.1011C14.2915 21.0422 14.6856 21.3409 14.7444 21.7679C15.3456 26.1322 19.127 29.4234 23.5403 29.4234C28.4365 29.4234 32.4198 25.4401 32.4198 20.544V15.7318C30.5948 15.0703 29.0029 13.798 27.9631 12.0196C24.1987 16.393 18.8236 18.9372 13.1309 19.165C12.7011 19.1824 12.337 18.8477 12.3198 18.4162C12.3025 17.9854 12.6378 17.6222 13.0686 17.6051C18.69 17.3802 23.9867 14.7184 27.5058 10.1055C27.8735 9.62333 28.6284 9.72764 28.852 10.2909C29.6714 12.3554 31.3923 13.8397 33.4138 14.4141C33.7112 14.4975 33.9524 14.7657 33.9781 15.1057C33.9829 15.1698 33.9818 20.5924 33.9807 20.6257C33.9274 27.5048 27.2849 32.5236 20.5967 30.5592C20.4952 31.8525 19.8795 33.0702 18.8071 33.9316L23.5403 37.5961L26.3242 35.4409C26.6653 35.177 27.1554 35.2395 27.4193 35.5802C27.6832 35.9212 27.6208 36.4115 27.2799 36.6753L24.3209 38.9661V44.5355C24.3209 44.9666 23.9714 45.3161 23.5403 45.3161C23.1092 45.3161 22.7597 44.9666 22.7597 44.5355V38.9662L17.3087 34.7462C16.4621 35.0254 15.7158 34.9899 15.7902 34.9899C12.1999 34.9898 9.29422 37.895 9.29422 41.4856V46.0967C9.29422 46.5278 8.94471 46.8773 8.51362 46.8773C8.08252 46.8773 7.73301 46.5278 7.73301 46.0967V41.4855C7.73301 40.2433 8.01383 39.0447 8.5426 37.9599L6.6425 36.0598C5.53062 34.9479 5.23701 33.0816 6.44939 31.5465C7.02421 30.8184 6.94869 29.7892 6.27356 29.1527C5.02146 27.9721 4.87988 25.9925 5.95117 24.6458L7.07486 23.2331C7.43501 22.7804 7.5522 22.1788 7.38847 21.6239L6.66201 19.1621C6.17569 17.5139 7.00802 15.7798 8.59802 15.1283L9.5569 14.7354C10.2271 14.4609 10.6601 13.8156 10.6601 13.0918V10.5793C10.6605 4.76843 15.388 0.0407715 21.1987 0.0407715H25.8824C31.6931 0.0407715 36.4206 4.76824 36.4206 10.579V13.0919C36.4206 13.8157 36.8536 14.461 37.5239 14.7356L38.4827 15.1284C40.0728 15.7799 40.9051 17.514 40.4188 19.1622L39.6923 21.624C39.5286 22.1789 39.6458 22.7805 40.0059 23.2332L41.1296 24.6458C42.2009 25.9925 42.0592 27.9722 40.8072 29.1527C40.1321 29.7892 40.0566 30.8184 40.6315 31.5467C41.8238 33.0559 41.5711 34.9271 40.4383 36.0598ZM17.6566 37.5906C17.5394 37.1757 17.1081 36.9341 16.6932 37.0515C16.2783 37.1687 16.0369 37.6 16.1541 38.0149L18.4959 46.3088C18.6131 46.7238 19.0445 46.965 19.4593 46.8479C19.8742 46.7308 20.1156 46.2995 19.9984 45.8846L17.6566 37.5906Z" fill="#5A3451"/>
</g>
<defs>
<clipPath id="clip0">
<rect width="46.8367" height="46.8367" fill="white" transform="translate(0.123047 0.0407715)"/>
</clipPath>
</defs>
</svg>
