<svg width="51" height="51" viewBox="0 0 51 51" fill="none" xmlns="http://www.w3.org/2000/svg">
<g clip-path="url(#clip0)">
<path d="M43.8997 39.2207L41.8307 41.2897C42.4065 42.4709 42.7123 43.7761 42.7123 45.1288V50.1498C42.7123 50.6192 42.3317 50.9998 41.8623 50.9998C41.3929 50.9998 41.0123 50.6192 41.0123 50.1498V45.1288C41.0123 41.4084 38.152 38.3751 34.5215 38.081L30.9919 50.3842C30.8849 50.7571 30.5448 51 30.1753 51C29.6101 51 29.2021 50.4581 29.3578 49.9154L32.7962 37.9301C31.4132 37.627 30.2076 36.78 29.449 35.5346C29.2048 35.1338 29.3318 34.6108 29.7327 34.3665C30.1335 34.1222 30.6566 34.2493 30.9008 34.6502C31.5191 35.6652 32.5761 36.2903 33.7541 36.3497C33.8596 36.332 33.9696 36.3343 34.0796 36.359C36.7335 36.4006 39.2339 37.6173 40.9113 39.805L42.6976 38.0187C43.3912 37.3252 43.4559 36.2214 42.8481 35.4515C41.5002 33.7454 41.8428 31.6813 43.1351 30.4628C43.8609 29.7786 43.9431 28.6311 43.322 27.8505L42.0985 26.3123C41.3618 25.3862 41.1219 24.1557 41.4568 23.0207L42.2479 20.34C42.5297 19.3847 42.0473 18.3795 41.1256 18.0019L40.0816 17.5741C38.7107 17.0123 37.8248 15.6923 37.8248 14.2112V11.4754C37.8248 6.08502 33.4398 1.69999 28.0498 1.69999H22.9499C17.5599 1.69999 13.1749 6.08523 13.1749 11.4754V14.2112C13.1749 15.6923 12.2891 17.0123 10.9182 17.5741L9.87404 18.0019C8.95243 18.3795 8.47006 19.3847 8.75184 20.34L9.54286 23.0207C9.87776 24.1557 9.63796 25.3862 8.90122 26.3123L7.67765 27.8505C7.05673 28.6311 7.13886 29.7785 7.86454 30.4628C9.15909 31.6833 9.49792 33.747 8.15142 35.4518C7.54367 36.2215 7.60838 37.3252 8.30197 38.0187L10.0882 39.805C11.7328 37.6604 14.254 36.3556 17.0604 36.3556C19.0221 36.3556 20.6123 34.7749 20.6123 32.8132V32.5898C17.0989 30.9169 14.7493 27.6028 14.2379 23.8904C14.1739 23.4254 14.499 22.9964 14.9639 22.9324C15.4288 22.8682 15.8579 23.1934 15.922 23.6584C16.5766 28.4107 20.6941 31.9944 25.4997 31.9944C30.8311 31.9944 35.1684 27.6571 35.1684 22.3257V17.0858C33.1813 16.3655 31.4479 14.9801 30.3156 13.0436C26.2166 17.8057 20.3637 20.5761 14.165 20.8242C13.697 20.8431 13.3006 20.4786 13.2818 20.0088C13.263 19.5397 13.6281 19.1443 14.0971 19.1256C20.2183 18.8808 25.9857 15.9823 29.8177 10.9593C30.2181 10.4343 31.0401 10.5479 31.2835 11.1613C32.1758 13.4092 34.0496 15.0255 36.2508 15.651C36.5747 15.7417 36.8373 16.0338 36.8653 16.4041C36.8706 16.4738 36.8693 22.3785 36.8681 22.4147C36.8101 29.9053 29.5772 35.3702 22.2944 33.2311C22.1839 34.6395 21.5135 35.9654 20.3458 36.9033L25.4997 40.8935L28.531 38.5468C28.9025 38.2594 29.4362 38.3275 29.7235 38.6985C30.0109 39.0698 29.9429 39.6037 29.5718 39.891L26.3497 42.3854V48.4498C26.3497 48.9192 25.9691 49.2998 25.4997 49.2998C25.0303 49.2998 24.6497 48.9192 24.6497 48.4498V42.3855L18.7142 37.7903C17.7923 38.0944 16.9797 38.0557 17.0607 38.0557C13.1513 38.0556 9.98731 41.2191 9.98731 45.1289V50.1498C9.98731 50.6192 9.60672 50.9998 9.13731 50.9998C8.6679 50.9998 8.28731 50.6192 8.28731 50.1498V45.1288C8.28731 43.7761 8.5931 42.4709 9.16886 41.2897L7.09987 39.2207C5.88915 38.01 5.56945 35.9778 6.8896 34.3063C7.51552 33.5134 7.43328 32.3927 6.69814 31.6997C5.33474 30.4142 5.18058 28.2586 6.34709 26.7921L7.57066 25.2538C7.96283 24.7609 8.09043 24.1059 7.91215 23.5017L7.12112 20.821C6.59157 19.0263 7.49788 17.1381 9.22921 16.4286L10.2733 16.0009C11.0031 15.7019 11.4746 14.9992 11.4746 14.2111V11.4753C11.475 5.1479 16.6227 0 22.95 0H28.0499C34.3772 0 39.5249 5.14769 39.5249 11.475V14.2112C39.5249 14.9994 39.9964 15.702 40.7263 16.0011L41.7703 16.4287C43.5017 17.1382 44.408 19.0264 43.8785 20.8211L43.0874 23.5018C42.9092 24.106 43.0368 24.761 43.4289 25.2539L44.6525 26.7921C45.819 28.2586 45.6647 30.4143 44.3014 31.6997C43.5663 32.3927 43.4841 33.5134 44.1101 34.3065C45.4084 35.9499 45.1333 37.9873 43.8997 39.2207ZM19.093 40.8876C18.9654 40.4358 18.4958 40.1727 18.044 40.3006C17.5922 40.4282 17.3294 40.8978 17.457 41.3496L20.007 50.3808C20.1346 50.8327 20.6043 51.0953 21.056 50.9678C21.5077 50.8402 21.7706 50.3706 21.643 49.9188L19.093 40.8876Z" fill="#5A3451"/>
</g>
<defs>
<clipPath id="clip0">
<rect width="51" height="51" fill="white"/>
</clipPath>
</defs>
</svg>
