<svg width="90" height="18" viewBox="0 0 90 18" fill="none" xmlns="http://www.w3.org/2000/svg">
<path d="M78.4776 0.166515C77.7393 0.182104 77.0072 0.441467 76.4284 0.900823C75.698 1.47354 75.2179 2.35606 75.1416 3.28212C75.0076 4.5949 75.7228 5.93422 76.8767 6.56912C78.1974 7.33689 79.5248 8.09333 80.8432 8.86561C83.1075 10.1767 85.3746 11.4816 87.6389 12.7932C88.3852 12.3596 89.0173 11.7224 89.4125 10.9518C89.9286 9.96241 90.0582 8.78199 89.7828 7.70158C89.5521 6.78004 89.0207 5.93706 88.2863 5.33495C87.9092 5.01778 87.4693 4.79052 87.0458 4.54232C84.8013 3.24707 82.5574 1.95066 80.3124 0.655975C79.9059 0.41909 79.4553 0.252925 78.9877 0.195258C78.8185 0.172361 78.6479 0.162917 78.4776 0.166515ZM1.83149 1.62886C1.52078 1.62454 1.20852 1.70909 0.949323 1.88459C0.10799 2.37119 -0.0368105 3.65632 0.672656 4.31936C2.2736 5.94816 3.89122 7.56031 5.50516 9.17611C5.53674 11.0073 5.49398 12.8367 5.52184 14.666C5.48098 15.5519 6.36137 16.3227 7.23613 16.1742C8.09231 16.1853 8.74605 15.3162 8.71634 14.5027C8.71634 12.7197 8.71259 10.9367 8.71446 9.15375C10.3005 7.55467 11.8978 5.96857 13.4765 4.36206C14.2658 3.64516 14.041 2.19657 13.0511 1.77684C12.3974 1.46296 11.5932 1.67278 11.1233 2.20952C9.77497 3.5523 8.4433 4.9137 7.0838 6.24349C5.68158 4.86541 4.30917 3.45949 2.90695 2.08142C2.62802 1.78681 2.23098 1.63442 1.83151 1.62886H1.83149ZM39.2338 1.63182C38.4878 1.64636 37.7545 2.17817 37.6819 2.96169C37.6113 5.25167 37.693 7.54726 37.641 9.83909C37.5853 11.0964 36.7774 12.2944 35.5962 12.7531C34.2293 13.3586 32.4982 12.8311 31.6662 11.5998C31.265 11.0352 31.083 10.3443 31.057 9.65894C31.0236 7.4284 31.0868 5.19416 31.0255 2.96547C30.9345 1.94585 29.757 1.39605 28.8544 1.74892C28.1542 2.02565 27.8125 2.80384 27.8533 3.52259C27.857 5.56556 27.8385 7.60853 27.8477 9.65149C27.8812 11.4864 28.6278 13.3214 30.0189 14.5435C32.0562 16.4416 35.3641 16.735 37.719 15.2641C39.6004 14.1423 40.7964 12.0213 40.8466 9.8372C40.8485 7.67166 40.8336 5.50429 40.8355 3.33689C40.8689 2.67199 40.4751 1.99602 39.8492 1.74715C39.6526 1.66427 39.4427 1.62775 39.2338 1.63182H39.2338ZM20.5706 1.67629C19.7537 1.67508 18.9382 1.76746 18.1851 2.10507C16.469 2.79411 15.0878 4.25593 14.499 6.00916C14.0291 7.29252 14.1795 8.68329 14.1739 10.0223C14.2017 13.3282 17.2232 16.2819 20.5384 16.1742C20.5491 16.1748 20.5598 16.1736 20.5706 16.1742C20.5813 16.1736 20.5919 16.1748 20.6027 16.1742C23.9179 16.2819 26.9393 13.3282 26.9671 10.0223C26.9615 8.68329 27.1119 7.29252 26.642 6.00916C26.0532 4.25593 24.672 2.79411 22.9559 2.10507C22.2027 1.76747 21.3874 1.67503 20.5706 1.67629ZM20.5706 4.80846C22.2328 4.8449 23.8074 6.26856 23.7724 7.98901C23.7408 9.06063 23.9584 10.2207 23.4347 11.2087C22.9017 12.2525 21.7803 12.9935 20.5991 12.9973C20.5894 12.9977 20.5801 12.9951 20.5706 12.9955C20.5609 12.9952 20.5516 12.9978 20.5419 12.9973C19.3607 12.9934 18.2393 12.2525 17.7063 11.2087C17.1826 10.2207 17.4002 9.06063 17.3686 7.98901C17.3336 6.26856 18.9082 4.8449 20.5704 4.80846H20.5706Z" fill="#DD4F32"/>
<path d="M57.693 1.62151C57.5373 1.6254 57.3807 1.65325 57.2284 1.70809C56.5598 1.94582 56.1178 2.63482 56.1735 3.34243C56.1809 5.63055 56.1363 7.92056 56.1957 10.2068C56.3332 13.4514 59.3159 16.2856 62.5754 16.176C65.8832 16.358 68.9513 13.4942 69.0943 10.2032C69.124 8.03947 69.0925 5.87579 69.1092 3.71396C69.1018 3.23108 69.15 2.69618 68.8287 2.29502C68.4257 1.67656 67.5825 1.49827 66.9176 1.74157C66.288 1.99787 65.8906 2.67196 65.9166 3.34243C65.9129 5.50797 65.9239 7.67357 65.9128 9.84097C65.9054 11.0147 65.1606 12.1254 64.1224 12.6528C63.1883 13.1338 62.0107 13.1245 61.0914 12.6138C60.0885 12.0789 59.3939 10.998 59.3809 9.85398C59.3215 7.62529 59.3976 5.39286 59.3438 3.16417C59.35 2.27722 58.5339 1.60048 57.693 1.62151ZM53.5155 1.62873C53.4342 1.62776 53.3522 1.63427 53.2706 1.64872C52.7766 1.62829 52.3995 1.996 52.0708 2.31359C50.4402 3.96096 48.7836 5.58411 47.1585 7.23706C46.241 8.11739 46.2502 9.72025 47.1807 10.5876C48.8987 12.3167 50.6184 14.0458 52.3549 15.7581C53.0997 16.5363 54.5484 16.1853 54.9161 15.1917C55.1149 14.5918 55.0257 13.8637 54.5354 13.4272C53.0347 11.9136 51.5174 10.4167 50.0186 8.9012C51.4821 7.42098 52.9623 5.95746 54.4295 4.48281C54.7843 4.12993 55.048 3.65816 55.0015 3.14371C55.0386 2.33749 54.3022 1.63805 53.5155 1.62873ZM44.1646 1.63511C43.9385 1.62921 43.711 1.66557 43.5015 1.74334C42.883 1.99964 42.4875 2.66647 42.5153 3.32764C42.5153 7.04955 42.5172 10.7695 42.5135 14.4914C42.4819 15.1545 42.8812 15.8212 43.4978 16.0794C44.4617 16.5028 45.7506 15.7711 45.6912 14.6735C45.7005 10.894 45.6894 7.11446 45.6949 3.33498C45.7042 2.97096 45.6615 2.59399 45.4312 2.29869C45.1528 1.86583 44.662 1.64809 44.1646 1.63511H44.1646ZM80.7894 8.83342C79.4812 9.59949 78.1712 10.3622 76.8573 11.1181C76.0234 11.589 75.406 12.4217 75.2064 13.3591C75.0097 14.2315 75.1787 15.1779 75.6632 15.9299C76.1375 16.6846 76.9222 17.2347 77.7929 17.4269C78.6353 17.6231 79.545 17.4744 80.2885 17.0357C82.7393 15.6229 85.1901 14.2089 87.6398 12.7932C85.3756 11.4816 83.1085 10.1767 80.8442 8.86559L80.7894 8.83342Z" fill="#489ACF"/>
</svg>
