<svg width="90" height="18" viewBox="0 0 90 18" fill="none" xmlns="http://www.w3.org/2000/svg">
<path d="M78.4756 0.166515C77.7374 0.182104 77.0052 0.441467 76.4265 0.900823C75.696 1.47354 75.216 2.35606 75.1396 3.28212C75.0056 4.5949 75.7208 5.93422 76.8747 6.56912C78.1954 7.33689 79.5229 8.09333 80.8413 8.86561C83.1056 10.1767 85.3727 11.4816 87.637 12.7932C88.3832 12.3596 89.0153 11.7224 89.4105 10.9518C89.9267 9.96241 90.0562 8.78199 89.7809 7.70158C89.5502 6.78004 89.0187 5.93706 88.2843 5.33495C87.9072 5.01778 87.4673 4.79052 87.0439 4.54232C84.7994 3.24707 82.5555 1.95066 80.3104 0.655975C79.9039 0.41909 79.4533 0.252925 78.9858 0.195258C78.8166 0.172361 78.646 0.162917 78.4756 0.166515ZM1.82953 1.62886C1.51883 1.62454 1.20657 1.70909 0.94737 1.88459C0.106037 2.37119 -0.0387636 3.65632 0.670703 4.31936C2.27165 5.94816 3.88927 7.56031 5.50321 9.17611C5.53478 11.0073 5.49203 12.8367 5.51988 14.666C5.47903 15.5519 6.35942 16.3227 7.23418 16.1742C8.09036 16.1853 8.7441 15.3162 8.71439 14.5027C8.71439 12.7197 8.71063 10.9367 8.71251 9.15375C10.2986 7.55467 11.8959 5.96857 13.4745 4.36206C14.2639 3.64516 14.0391 2.19657 13.0492 1.77684C12.3954 1.46296 11.5913 1.67278 11.1214 2.20952C9.77301 3.5523 8.44135 4.9137 7.08184 6.24349C5.67963 4.86541 4.30721 3.45949 2.905 2.08142C2.62606 1.78681 2.22903 1.63442 1.82956 1.62886H1.82953ZM39.2318 1.63182C38.4858 1.64636 37.7525 2.17817 37.68 2.96169C37.6094 5.25167 37.691 7.54726 37.639 9.83909C37.5833 11.0964 36.7755 12.2944 35.5942 12.7531C34.2273 13.3586 32.4963 12.8311 31.6643 11.5998C31.2631 11.0352 31.0811 10.3443 31.0551 9.65894C31.0217 7.4284 31.0848 5.19416 31.0235 2.96547C30.9325 1.94585 29.755 1.39605 28.8524 1.74892C28.1522 2.02565 27.8105 2.80384 27.8514 3.52259C27.8551 5.56556 27.8365 7.60853 27.8458 9.65149C27.8792 11.4864 28.6258 13.3214 30.0169 14.5435C32.0543 16.4416 35.3621 16.735 37.7171 15.2641C39.5985 14.1423 40.7945 12.0213 40.8446 9.8372C40.8465 7.67166 40.8317 5.50429 40.8335 3.33689C40.867 2.67199 40.4732 1.99602 39.8473 1.74715C39.6506 1.66427 39.4407 1.62775 39.2318 1.63182H39.2318ZM20.5686 1.67629C19.7517 1.67508 18.9363 1.76746 18.1832 2.10507C16.4671 2.79411 15.0858 4.25593 14.4971 6.00916C14.0272 7.29252 14.1775 8.68329 14.1719 10.0223C14.1998 13.3282 17.2212 16.2819 20.5364 16.1742C20.5472 16.1748 20.5579 16.1736 20.5686 16.1742C20.5794 16.1736 20.59 16.1748 20.6008 16.1742C23.9159 16.2819 26.9373 13.3282 26.9652 10.0223C26.9595 8.68329 27.1099 7.29252 26.64 6.00916C26.0513 4.25593 24.67 2.79411 22.9539 2.10507C22.2008 1.76747 21.3855 1.67503 20.5686 1.67629ZM20.5686 4.80846C22.2308 4.8449 23.8054 6.26856 23.7704 7.98901C23.7389 9.06063 23.9565 10.2207 23.4327 11.2087C22.8997 12.2525 21.7783 12.9935 20.5971 12.9973C20.5874 12.9977 20.5782 12.9951 20.5686 12.9955C20.5589 12.9952 20.5496 12.9978 20.54 12.9973C19.3588 12.9934 18.2374 12.2525 17.7043 11.2087C17.1806 10.2207 17.3982 9.06063 17.3666 7.98901C17.3317 6.26856 18.9063 4.8449 20.5685 4.80846H20.5686Z" fill="white"/>
<path d="M57.691 1.62157C57.5353 1.62546 57.3788 1.65331 57.2264 1.70815C56.5578 1.94588 56.1158 2.63488 56.1716 3.34249C56.179 5.63061 56.1344 7.92062 56.1938 10.2069C56.3312 13.4515 59.314 16.2857 62.5735 16.1761C65.8812 16.3581 68.9493 13.4942 69.0923 10.2032C69.122 8.03953 69.0905 5.87585 69.1072 3.71402C69.0998 3.23114 69.1481 2.69625 68.8268 2.29508C68.4238 1.67662 67.5806 1.49833 66.9157 1.74163C66.2861 1.99793 65.8886 2.67202 65.9146 3.34249C65.9109 5.50803 65.922 7.67363 65.9108 9.84103C65.9034 11.0148 65.1587 12.1254 64.1205 12.6529C63.1863 13.1339 62.0088 13.1246 61.0895 12.6138C60.0865 12.079 59.3919 10.9981 59.379 9.85404C59.3195 7.62535 59.3957 5.39292 59.3418 3.16423C59.3481 2.27728 58.5319 1.60054 57.691 1.62157ZM53.5136 1.62879C53.4322 1.62782 53.3503 1.63433 53.2686 1.64878C52.7746 1.62835 52.3976 1.99606 52.0689 2.31365C50.4382 3.96102 48.7816 5.58417 47.1565 7.23712C46.239 8.11745 46.2483 9.72031 47.1788 10.5876C48.8967 12.3167 50.6165 14.0458 52.353 15.7582C53.0977 16.5364 54.5465 16.1854 54.9142 15.1917C55.1129 14.5918 55.0237 13.8637 54.5334 13.4273C53.0328 11.9136 51.5154 10.4168 50.0166 8.90126C51.4801 7.42104 52.9604 5.95752 54.4276 4.48287C54.7823 4.12999 55.046 3.65823 54.9996 3.14377C55.0366 2.33755 54.3003 1.63811 53.5136 1.62879ZM44.1626 1.63517C43.9365 1.62927 43.709 1.66563 43.4995 1.7434C42.8811 1.9997 42.4855 2.66653 42.5134 3.3277C42.5134 7.04961 42.5152 10.7696 42.5115 14.4915C42.4799 15.1545 42.8793 15.8213 43.4959 16.0795C44.4598 16.5029 45.7487 15.7712 45.6892 14.6735C45.6985 10.894 45.6874 7.11452 45.693 3.33504C45.7023 2.97102 45.6595 2.59405 45.4292 2.29875C45.1508 1.86589 44.66 1.64815 44.1626 1.63517H44.1626ZM80.7875 8.83348C79.4792 9.59955 78.1692 10.3623 76.8553 11.1181C76.0214 11.5891 75.404 12.4218 75.2044 13.3592C75.0077 14.2315 75.1767 15.178 75.6613 15.9299C76.1356 16.6847 76.9203 17.2347 77.791 17.427C78.6334 17.6231 79.5431 17.4745 80.2865 17.0358C82.7374 15.6229 85.1882 14.209 87.6379 12.7933C85.3736 11.4816 83.1065 10.1767 80.8422 8.86565L80.7875 8.83348Z" fill="white"/>
</svg>
