<svg width="19" height="20" viewBox="0 0 19 20" fill="none" xmlns="http://www.w3.org/2000/svg">
<g clip-path="url(#clip0)">
<path d="M18.0408 5.7195C17.8399 4.97361 17.2511 4.38564 16.5044 4.1848C15.1402 3.81201 9.68356 3.81201 9.68356 3.81201C9.68356 3.81201 4.2271 3.81201 2.86295 4.17066C2.13061 4.37129 1.52743 4.97372 1.32655 5.7195C0.96756 7.08184 0.96756 9.90715 0.96756 9.90715C0.96756 9.90715 0.96756 12.7467 1.32655 14.0948C1.52764 14.8406 2.11624 15.4285 2.86306 15.6294C4.24146 16.0023 9.68377 16.0023 9.68377 16.0023C9.68377 16.0023 15.1402 16.0023 16.5044 15.6436C17.2512 15.4429 17.8399 14.8549 18.041 14.1091C18.3999 12.7467 18.3999 9.92149 18.3999 9.92149C18.3999 9.92149 18.4142 7.08184 18.0408 5.7195ZM7.94628 12.5173V7.29703L12.4838 9.90715L7.94628 12.5173Z" fill="#CC1237"/>
</g>
<defs>
<clipPath id="clip0">
<rect width="18.5946" height="18.5714" fill="white" transform="translate(0.394623 0.785645)"/>
</clipPath>
</defs>
</svg>
