<svg width="42" height="64" viewBox="0 0 42 64" fill="none" xmlns="http://www.w3.org/2000/svg">
<path d="M31.1638 46.7541C31.1638 46.7541 36.7605 43.5061 38.8305 34.5742C40.9005 25.6422 35.3805 17.2787 35.3805 17.2787" stroke="white" stroke-width="2"/>
<path d="M9.81865 46.7541C9.81865 46.7541 4.22197 43.5061 2.15196 34.5742C0.0819558 25.6422 5.60197 17.2787 5.60197 17.2787" stroke="white" stroke-width="2"/>
<path d="M31.7369 5.08197L38.2773 18.2951H2.70358L9.48333 5.08197" stroke="white" stroke-width="2"/>
<path d="M26.8019 35.0775C25.4276 32.1596 22.9926 32.3288 21.947 32.7781C20.9013 33.4917 20.8863 34.6017 21.1254 36.9804C21.6034 41.7377 28.6941 50.2216 32.1797 53.8689C30.9597 48.8208 28.1762 37.9953 26.8019 35.0775Z" stroke="white" stroke-width="2"/>
<path d="M14.6694 35.0775C16.1687 32.1596 18.825 32.3288 19.9657 32.7781C21.1064 33.4917 21.1227 34.6017 20.862 36.9804C20.3405 41.7377 12.6052 50.2216 8.80273 53.8689C10.1336 48.8208 13.1701 37.9953 14.6694 35.0775Z" stroke="white" stroke-width="2"/>
<path d="M26.0725 47.7705C26.1967 51.0033 24.808 59.6152 20.635 62C16.0183 59.5357 14.8998 47.7705 14.8998 47.7705" stroke="white" stroke-width="2"/>
<path d="M31.5687 47.7705C31.5687 47.7705 40.3105 51.1093 40.3105 62C31.5687 62 11.1447 62 1.68759 62C1.68759 52.2222 9.6347 47.7705 9.6347 47.7705" stroke="white" stroke-width="2"/>
<rect x="-1" y="1" width="29.5082" height="3.08197" rx="1.54098" transform="matrix(-1 0 0 1 34.2441 0)" stroke="white" stroke-width="2"/>
<line x1="8.80273" y1="25.4262" x2="15.9175" y2="25.4262" stroke="white" stroke-width="2"/>
<line x1="25.0645" y1="25.4262" x2="32.1792" y2="25.4262" stroke="white" stroke-width="2"/>
</svg>
