<svg width="200" height="50" viewBox="0 0 200 50" fill="none" xmlns="http://www.w3.org/2000/svg">
<g clip-path="url(#clip0)">
<path d="M47.7506 49.5998H5.79035C4.79022 49.6042 3.80612 49.3485 2.93462 48.8579C2.06312 48.3672 1.33416 47.6584 0.819276 46.8009C0.304391 45.9435 0.0212699 44.967 -0.00230332 43.9671C-0.0258765 42.9673 0.210908 41.9785 0.684814 41.0977L14.7021 14.729H27.3069L15.5378 36.8332C15.4674 36.9651 15.4307 37.1123 15.4307 37.2618C15.4307 37.4113 15.4674 37.5585 15.5378 37.6904C15.6164 37.8211 15.728 37.9288 15.8615 38.0026C15.9949 38.0765 16.1455 38.1138 16.2979 38.111H37.518C37.646 38.1123 37.7723 38.0811 37.8849 38.0203C37.9975 37.9594 38.0928 37.8709 38.1619 37.7631C38.2309 37.6553 38.2713 37.5316 38.2794 37.4039C38.2875 37.2761 38.2629 37.1484 38.2081 37.0327L20.9829 6.10352e-05H33.2104L52.7699 41.7069C53.1626 42.5504 53.3378 43.4788 53.2794 44.4074C53.2211 45.336 52.9309 46.2351 52.4356 47.0227C51.9377 47.8147 51.2463 48.4668 50.4267 48.9176C49.607 49.3685 48.6861 49.6032 47.7506 49.5998ZM16.2117 17.2521L2.91141 42.273C2.64722 42.77 2.51611 43.3268 2.53082 43.8894C2.54553 44.452 2.70556 45.0012 2.99535 45.4837C3.28515 45.9661 3.69485 46.3654 4.18461 46.6426C4.67438 46.9199 5.22755 47.0657 5.79035 47.0659H47.7722C48.2826 47.0688 48.7854 46.9418 49.2332 46.6969C49.681 46.4519 50.0591 46.0971 50.3319 45.6657C50.6048 45.2343 50.7634 44.7406 50.7928 44.231C50.8222 43.7214 50.7215 43.2128 50.5002 42.7528L31.6307 2.49622H24.9294L40.4994 35.9221C40.736 36.4212 40.841 36.9726 40.8042 37.5237C40.7674 38.0749 40.59 38.6074 40.2891 39.0706C39.9925 39.5364 39.5829 39.9196 39.0984 40.1845C38.6139 40.4494 38.0702 40.5873 37.518 40.5855H16.2979C15.7135 40.5793 15.1406 40.4227 14.6343 40.1306C14.1281 39.8386 13.7056 39.4211 13.4076 38.9183C13.1096 38.4155 12.9462 37.8445 12.9331 37.2602C12.92 36.6759 13.0576 36.0981 13.3327 35.5825L23.1017 17.2521H16.2117Z" fill="#FF0000"/>
<path d="M73.6765 49.5997H61.4599L41.9057 7.87667C41.51 7.03474 41.3332 6.10652 41.3918 5.17807C41.4504 4.24963 41.7424 3.35099 42.2409 2.56548C42.7393 1.77996 43.4279 1.13298 44.243 0.684516C45.058 0.23605 45.9731 0.000611936 46.9034 2.47815e-05H88.8799C89.8777 -0.00289968 90.8592 0.253059 91.7286 0.742894C92.5979 1.23273 93.3253 1.93969 93.8397 2.79471C94.3542 3.64973 94.638 4.62356 94.6635 5.62108C94.6891 6.61859 94.4554 7.60567 93.9854 8.48589L79.9681 34.8546H67.3903L79.154 12.7504C79.2257 12.6179 79.2633 12.4697 79.2633 12.3191C79.2633 12.1685 79.2257 12.0202 79.154 11.8878C79.0763 11.7575 78.9656 11.65 78.8331 11.5762C78.7006 11.5024 78.5509 11.4648 78.3992 11.4673H57.1468C57.0167 11.4658 56.8884 11.4977 56.7742 11.56C56.66 11.6223 56.5637 11.7129 56.4945 11.8231C56.425 11.9313 56.3845 12.0556 56.3769 12.184C56.3694 12.3125 56.395 12.4407 56.4514 12.5563L73.6765 49.5997ZM63.0449 47.0658H69.7247L54.1547 13.6399C53.9163 13.1375 53.8095 12.5828 53.8442 12.0278C53.8789 11.4728 54.054 10.9357 54.3531 10.4669C54.6522 9.99811 55.0654 9.61294 55.5541 9.34753C56.0427 9.08212 56.5908 8.94518 57.1468 8.94954H78.3669C78.9596 8.95157 79.5416 9.10844 80.055 9.40461C80.5685 9.70079 80.9956 10.126 81.2942 10.6381C81.5927 11.1502 81.7523 11.7314 81.757 12.3241C81.7618 12.9168 81.6116 13.5005 81.3213 14.0173L71.5523 32.3477H78.4424L91.7426 7.33215C92.0139 6.83647 92.1506 6.27838 92.1391 5.71344C92.1276 5.1485 91.9684 4.59642 91.6772 4.11218C91.386 3.62793 90.973 3.22842 90.4794 2.95341C89.9857 2.6784 89.4287 2.53749 88.8637 2.5447H46.9034C46.3926 2.54085 45.8891 2.66715 45.4406 2.91172C44.992 3.15629 44.6132 3.51106 44.3397 3.94258C44.0662 4.3741 43.9071 4.86817 43.8774 5.37819C43.8478 5.88821 43.9485 6.39739 44.17 6.85772L63.0449 47.0658Z" fill="white"/>
<path d="M158.397 18.7454C161.298 20.1508 164.07 21.5884 166.716 23.0585L164.635 26.4711C161.907 24.7998 159.371 23.337 157.028 22.0826V27.1504H152.903V21.7592C150.992 23.7639 148.748 25.4236 146.272 26.6652C145.471 25.3693 144.579 24.1316 143.603 22.9614C146.592 22.0717 149.345 20.5285 151.663 18.4435H145.194V9.08967H152.898V7.07334H144.094V3.17545H152.903V0.377379H157.028V3.17545H165.934V7.07334H157.028V9.08967H164.764V18.4543H157.028V20.9559L158.397 18.7454ZM148.903 27.8459C153.238 27.9753 159.272 27.9537 167.007 27.7812C166.382 29.3986 165.859 30.7518 165.449 31.8786C159.119 31.8786 153.29 31.8247 147.96 31.7168C144.664 31.7168 142.053 30.6655 140.126 28.5629C139.256 29.5585 138.076 30.901 136.584 32.5902L134.762 27.7381C135.628 26.9581 136.647 26.0704 137.819 25.0748V16.0121H134.923V11.699H141.884V25.1179C143.163 26.9366 145.503 27.8459 148.903 27.8459ZM139.247 0.345032C140.768 2.64171 142.079 4.76587 143.183 6.71751C141.533 7.56394 140.202 8.26481 139.183 8.83089C138.104 6.62047 136.924 4.43161 135.64 2.26432L139.247 0.345032ZM161.125 12.47H157.028V15.0955H161.125V12.47ZM148.838 15.0955H152.903V12.47H148.838V15.0955ZM168.409 17.7912H181.639V5.83874H169.827V1.52572H198.562V5.83874H186.577V17.7912H200.018V22.1042H186.593V32.1697H181.655V22.0611H168.409V17.7912ZM170.29 8.78776L173.703 6.46951C175.784 8.89559 177.94 11.5912 180.172 14.5564L176.242 17.155C174.053 13.816 172.069 11.0197 170.29 8.7662V8.78776ZM198.638 9.11124C196.341 11.8644 193.913 14.5726 191.354 17.2359L188.038 14.5402C190.482 12.0142 192.744 9.31708 194.804 6.46951L198.638 9.11124Z" fill="white"/>
<path d="M109.74 22.9776H119.687V16.9286H111.686V14.5888H119.687V9.38618H110.716V7.04637H116.646C115.619 5.65183 114.476 4.23213 113.218 2.78727L115.169 1.29388C116.434 2.64889 117.692 4.04703 118.943 5.48829L116.894 7.04637H122.663C124.126 5.23449 125.446 3.31115 126.61 1.29388L129.176 2.85196C127.983 4.35073 126.786 5.74887 125.585 7.04637H131.877V9.38618H122.35V14.5888H130.41V16.9286H122.35V22.9776H132.427V25.339H122.35V33.345H119.687V25.339H109.74V22.9776Z" fill="#FF0000"/>
<path d="M105.805 19.856C106.712 20.3631 107.646 20.8185 108.604 21.22C107.342 24.8609 105.998 28.8145 104.571 33.0808L101.676 31.6791C103.359 27.8519 104.74 23.8988 105.805 19.856Z" fill="#FF0000"/>
<path d="M102.295 10.2434C104.311 11.4762 106.369 12.8636 108.468 14.4055L106.651 16.7776C104.758 15.1951 102.778 13.7192 100.721 12.3568L102.295 10.2434Z" fill="#FF0000"/>
<path d="M103.854 1.81146C106.107 3.31024 108.134 4.79463 109.935 6.26465L108.145 8.50742C106.064 6.67079 104.087 5.07857 102.215 3.73075L103.854 1.81146Z" fill="#FF0000"/>
<path d="M110.175 49.5997H109.049L108.132 47.1629H104.45L103.582 49.5997H102.434L105.765 40.9144H106.817L110.175 49.5997ZM107.825 46.2625L106.434 42.5911C106.376 42.4003 106.331 42.2057 106.299 42.0088C106.269 42.2065 106.222 42.4013 106.159 42.5911L104.811 46.2895L107.825 46.2625Z" fill="#FF0000"/>
<path d="M111.061 49.2601V48.0579C111.209 48.1888 111.374 48.2994 111.552 48.3867C111.747 48.4851 111.951 48.5663 112.161 48.6293C112.369 48.6966 112.582 48.7489 112.797 48.7857C112.993 48.8207 113.191 48.8387 113.39 48.8396C113.882 48.8763 114.373 48.7555 114.792 48.4945C114.946 48.3785 115.069 48.2263 115.15 48.0513C115.231 47.8764 115.267 47.6842 115.256 47.4918C115.262 47.277 115.21 47.0645 115.105 46.8772C114.989 46.6953 114.843 46.5348 114.673 46.4027C114.473 46.2467 114.258 46.1095 114.032 45.993C113.784 45.8582 113.493 45.7234 113.228 45.5779C112.964 45.4323 112.641 45.2706 112.382 45.1088C112.133 44.9574 111.903 44.7763 111.697 44.5697C111.506 44.3842 111.351 44.1649 111.239 43.9227C111.125 43.674 111.064 43.404 111.061 43.1302C111.052 42.7681 111.141 42.4102 111.32 42.0951C111.493 41.8074 111.727 41.5608 112.005 41.3727C112.302 41.1771 112.63 41.0331 112.975 40.9468C113.327 40.8559 113.69 40.8088 114.053 40.8066C114.693 40.7649 115.333 40.8719 115.924 41.1193V42.2622C115.338 41.8834 114.649 41.6951 113.951 41.7231C113.728 41.7224 113.506 41.7459 113.288 41.7932C113.079 41.8365 112.879 41.913 112.695 42.0196C112.526 42.1226 112.38 42.2604 112.269 42.424C112.155 42.6064 112.099 42.8185 112.107 43.0332C112.1 43.231 112.143 43.4274 112.231 43.6047C112.32 43.7767 112.445 43.9276 112.598 44.0467C112.78 44.1957 112.977 44.3258 113.185 44.4349L113.989 44.85C114.301 45.001 114.592 45.1627 114.873 45.3299C115.136 45.4824 115.382 45.6632 115.606 45.869C115.812 46.0665 115.981 46.2982 116.107 46.5537C116.232 46.822 116.295 47.115 116.291 47.4109C116.3 47.7861 116.213 48.1575 116.037 48.4892C115.881 48.7864 115.653 49.0401 115.374 49.2278C115.073 49.4192 114.741 49.5561 114.393 49.6321C114.007 49.7153 113.613 49.7569 113.218 49.7561C113.048 49.7541 112.879 49.7433 112.711 49.7238C112.506 49.7238 112.301 49.6645 112.091 49.6267C111.89 49.5863 111.692 49.5323 111.498 49.465C111.344 49.4167 111.197 49.3478 111.061 49.2601Z" fill="#FF0000"/>
<path d="M121.083 46.9688H117.768V45.6317H121.083V46.9688Z" fill="white"/>
<path d="M124.868 46.6184V49.5997H122.922V40.9252H125.984C128.173 40.9252 129.267 41.8489 129.267 43.6963C129.282 44.1006 129.203 44.5027 129.038 44.8719C128.872 45.241 128.624 45.5674 128.313 45.8258C127.603 46.3934 126.709 46.6811 125.801 46.6345L124.868 46.6184ZM124.868 42.4293V45.125H125.618C126.658 45.125 127.181 44.6667 127.181 43.7556C127.181 42.8445 126.642 42.4186 125.618 42.4186L124.868 42.4293Z" fill="white"/>
<path d="M138.162 49.5997H136.033L135.413 47.6696H132.324L131.714 49.5997H129.596L132.755 40.9144H135.073L138.162 49.5997ZM134.965 46.1655L134.033 43.2488C133.956 42.9942 133.907 42.7321 133.887 42.4671H133.839C133.818 42.7236 133.767 42.9769 133.688 43.2218L132.744 46.1655H134.965Z" fill="white"/>
<path d="M145.468 49.3032C144.685 49.6365 143.838 49.793 142.988 49.7615C142.411 49.7925 141.835 49.7041 141.294 49.5018C140.753 49.2996 140.26 48.9879 139.845 48.5862C139.456 48.1661 139.155 47.6727 138.959 47.1349C138.762 46.5972 138.675 46.0257 138.702 45.4539C138.676 44.8332 138.777 44.2138 138.998 43.6336C139.22 43.0533 139.558 42.5243 139.991 42.0789C140.428 41.6445 140.949 41.3049 141.524 41.0813C142.098 40.8578 142.712 40.7551 143.328 40.7796C144.06 40.7585 144.79 40.868 145.484 41.1031V42.9847C144.886 42.6248 144.199 42.4382 143.5 42.4455C143.136 42.4299 142.773 42.4898 142.433 42.6216C142.094 42.7534 141.785 42.9541 141.527 43.2111C141.269 43.4912 141.07 43.8202 140.941 44.1785C140.813 44.5368 140.757 44.9173 140.778 45.2975C140.742 46.0326 140.996 46.7523 141.484 47.3031C141.732 47.5546 142.03 47.7513 142.359 47.8804C142.687 48.0094 143.04 48.0681 143.392 48.0524C144.126 48.0652 144.849 47.8789 145.484 47.5133L145.468 49.3032Z" fill="white"/>
<path d="M149.667 40.9252V42.4401H148.939V48.0956H149.667V49.5997H146.254V48.0956H146.982V42.4401H146.254V40.9252H149.667Z" fill="white"/>
<path d="M155.931 42.521H152.869V44.6505H155.683V46.2356H152.869V49.5997H150.912V40.9252H155.931V42.521Z" fill="white"/>
<path d="M160.045 40.9252V42.4401H159.318V48.0956H160.045V49.5997H156.633V48.0956H157.361V42.4401H156.633V40.9252H160.045Z" fill="white"/>
<path d="M167.518 49.3032C166.734 49.6364 165.885 49.7929 165.033 49.7615C164.456 49.7925 163.88 49.7041 163.339 49.5018C162.798 49.2996 162.305 48.9879 161.89 48.5862C161.501 48.1661 161.2 47.6727 161.003 47.1349C160.807 46.5972 160.72 46.0257 160.747 45.4539C160.722 44.8334 160.823 44.2142 161.045 43.6341C161.266 43.0539 161.603 42.5248 162.035 42.0789C162.472 41.6445 162.994 41.3049 163.569 41.0813C164.143 40.8578 164.757 40.7551 165.373 40.7796C166.105 40.7597 166.835 40.8692 167.529 41.1031V42.9847C166.928 42.6264 166.24 42.44 165.54 42.4455C165.176 42.4299 164.813 42.4898 164.473 42.6216C164.133 42.7534 163.825 42.9541 163.567 43.2111C163.306 43.4938 163.105 43.8263 162.977 44.1885C162.848 44.5508 162.794 44.9353 162.817 45.3191C162.782 46.0541 163.035 46.7739 163.523 47.3246C163.771 47.5762 164.069 47.7728 164.398 47.9019C164.727 48.031 165.079 48.0896 165.432 48.074C166.167 48.087 166.892 47.9007 167.529 47.5349L167.518 49.3032Z" fill="white"/>
<path d="M169.695 49.7615C169.405 49.7711 169.122 49.6666 168.908 49.4703C168.806 49.3808 168.725 49.2704 168.671 49.1466C168.616 49.0229 168.588 48.8887 168.59 48.7533C168.587 48.6175 168.615 48.4828 168.672 48.3595C168.729 48.2362 168.814 48.1275 168.919 48.0416C169.144 47.8534 169.429 47.7537 169.722 47.7613C170.016 47.7501 170.303 47.8502 170.526 48.0416C170.627 48.1299 170.707 48.2394 170.762 48.3624C170.816 48.4855 170.842 48.6189 170.838 48.7533C170.842 48.8905 170.815 49.0268 170.76 49.1525C170.705 49.2783 170.623 49.3904 170.52 49.4811C170.289 49.6735 169.995 49.7734 169.695 49.7615Z" fill="white"/>
<path d="M178.613 49.3032C177.83 49.6365 176.984 49.7929 176.133 49.7614C175.557 49.7928 174.98 49.7045 174.439 49.5023C173.898 49.3 173.405 48.9881 172.99 48.5862C172.6 48.1671 172.297 47.6739 172.101 47.1358C171.905 46.5978 171.818 46.0258 171.847 45.4538C171.821 44.8337 171.922 44.2148 172.142 43.6347C172.363 43.0545 172.699 42.5252 173.13 42.0789C173.568 41.6443 174.091 41.3047 174.666 41.0811C175.241 40.8576 175.856 40.7549 176.473 40.7796C177.205 40.7589 177.935 40.8685 178.629 41.1031V42.9846C178.03 42.6263 177.344 42.4398 176.645 42.4455C176.281 42.4334 175.918 42.4971 175.579 42.6326C175.24 42.7681 174.933 42.9724 174.678 43.2326C174.419 43.5125 174.219 43.8413 174.089 44.1996C173.96 44.5579 173.903 44.9385 173.923 45.319C173.887 46.0552 174.142 46.7759 174.634 47.3246C174.882 47.5767 175.18 47.7737 175.509 47.9028C175.838 48.032 176.19 48.0903 176.543 48.074C177.276 48.0868 177.999 47.9004 178.635 47.5349L178.613 49.3032Z" fill="white"/>
<path d="M183.799 49.7615C183.235 49.7828 182.674 49.6858 182.15 49.4769C181.626 49.268 181.152 48.9517 180.758 48.5484C180.362 48.1253 180.054 47.6276 179.852 47.0842C179.65 46.5409 179.559 45.9628 179.583 45.3837C179.528 44.16 179.956 42.9638 180.774 42.0519C181.18 41.628 181.672 41.2953 182.217 41.0759C182.762 40.8565 183.347 40.7555 183.933 40.7796C184.493 40.7585 185.05 40.8562 185.568 41.0662C186.087 41.2762 186.555 41.5938 186.942 41.998C187.731 42.8749 188.144 44.0272 188.09 45.2058C188.119 45.8097 188.029 46.4133 187.825 46.9823C187.62 47.5512 187.305 48.0742 186.899 48.5215C186.499 48.935 186.016 49.2593 185.481 49.473C184.947 49.6867 184.374 49.785 183.799 49.7615ZM183.88 42.4671C183.568 42.458 183.259 42.5231 182.978 42.6572C182.697 42.7912 182.451 42.9904 182.262 43.238C181.829 43.8308 181.61 44.5532 181.642 45.2867C181.597 46.011 181.802 46.7289 182.224 47.3192C182.411 47.5607 182.651 47.7549 182.927 47.8861C183.202 48.0172 183.505 48.0816 183.809 48.074C184.118 48.0867 184.424 48.0269 184.705 47.8996C184.986 47.7723 185.233 47.5809 185.427 47.3408C185.852 46.7558 186.062 46.0413 186.02 45.3191C186.064 44.5738 185.861 43.8349 185.443 43.2165C185.263 42.9743 185.026 42.7796 184.754 42.6491C184.481 42.5186 184.181 42.4561 183.88 42.4671Z" fill="white"/>
<path d="M199.422 49.5997H197.492V44.4133C197.492 43.8742 197.492 43.2326 197.562 42.5533H197.514C197.45 42.9436 197.36 43.329 197.244 43.7071L195.206 49.6375H193.589L191.519 43.7933C191.405 43.3943 191.313 42.9894 191.244 42.5803H191.19C191.244 43.4375 191.271 44.1977 191.271 44.8338V49.5997H189.508V40.9252H192.371L194.144 46.0738C194.284 46.4773 194.389 46.8922 194.457 47.3138H194.489C194.603 46.834 194.716 46.4189 194.834 46.0631L196.608 40.9252H199.401L199.422 49.5997Z" fill="white"/>
</g>
<defs>
<clipPath id="clip0">
<rect width="200" height="49.7614" fill="white"/>
</clipPath>
</defs>
</svg>
