<svg width="42" height="64" fill="none" xmlns="http://www.w3.org/2000/svg"><path d="M31.164 46.754s5.596-3.248 7.666-12.18c2.07-8.932-3.45-17.295-3.45-17.295M9.819 46.754s-5.597-3.248-7.667-12.18c-2.07-8.932 3.45-17.295 3.45-17.295" stroke="#583350" stroke-width="2"/><path d="M31.737 5.082l6.54 13.213H2.704l6.78-13.213m17.318 29.996c-1.374-2.918-3.81-2.75-4.855-2.3-1.046.714-1.06 1.824-.822 4.202.478 4.758 7.57 13.242 11.055 16.889-1.22-5.048-4.004-15.874-5.378-18.791z" stroke="#583350" stroke-width="2"/><path d="M14.67 35.078c1.499-2.918 4.155-2.75 5.296-2.3 1.14.714 1.157 1.824.896 4.202-.521 4.758-8.257 13.242-12.06 16.889 1.332-5.048 4.368-15.874 5.867-18.791zM26.073 47.77c.124 3.233-1.265 11.845-5.438 14.23-4.617-2.464-5.735-14.23-5.735-14.23" stroke="#583350" stroke-width="2"/><path d="M31.569 47.77S40.31 51.11 40.31 62H1.688c0-9.778 7.947-14.23 7.947-14.23" stroke="#583350" stroke-width="2"/><rect x="-1" y="1" width="29.508" height="3.082" rx="1.541" transform="matrix(-1 0 0 1 34.244 0)" stroke="#583350" stroke-width="2"/><path stroke="#583350" stroke-width="2" d="M8.803 25.426h7.115m9.146 0h7.115"/></svg>