<svg width="200" height="50" fill="none" xmlns="http://www.w3.org/2000/svg"><g clip-path="url(#clip0)"><path d="M47.75 49.6H5.79a5.77 5.77 0 01-5.105-8.502l14.017-26.369h12.605l-11.77 22.104a.91.91 0 000 .857.867.867 0 00.76.421h21.221a.756.756 0 00.69-1.078L20.983 0H33.21l19.56 41.707a5.57 5.57 0 01-.334 5.316A5.509 5.509 0 0147.75 49.6zM16.213 17.252l-13.3 25.021a3.262 3.262 0 002.878 4.793h41.982a3.01 3.01 0 002.728-4.313L31.63 2.496h-6.7L40.5 35.922a3.236 3.236 0 01-.21 3.149 3.273 3.273 0 01-2.772 1.515h-21.22a3.401 3.401 0 01-2.965-5.003l9.769-18.33h-6.89z" fill="red"/><path d="M73.677 49.6H61.46L41.906 7.877A5.526 5.526 0 0146.903 0H88.88a5.769 5.769 0 015.105 8.486L79.968 34.855H67.39L79.154 12.75a.906.906 0 000-.862.862.862 0 00-.755-.42H57.147a.76.76 0 00-.652.355.75.75 0 00-.044.733L73.677 49.6zm-10.632-2.534h6.68L54.155 13.64a3.283 3.283 0 012.992-4.69h21.22a3.402 3.402 0 012.954 5.067l-9.769 18.33h6.89l13.3-25.015a3.234 3.234 0 00-2.878-4.787h-41.96a3.008 3.008 0 00-2.734 4.313l18.875 40.208zm95.352-28.321a167.427 167.427 0 018.319 4.313l-2.081 3.413a152.072 152.072 0 00-7.607-4.388v5.067h-4.125v-5.39a24.064 24.064 0 01-6.631 4.905 32.283 32.283 0 00-2.669-3.704 21.018 21.018 0 008.06-4.517h-6.469V9.09h7.704V7.073h-8.804V3.175h8.809V.377h4.125v2.798h8.906v3.898h-8.906V9.09h7.736v9.364h-7.736v2.502l1.369-2.21zm-9.494 9.1c4.335.13 10.369.109 18.104-.064-.625 1.618-1.148 2.97-1.558 4.098-6.33 0-12.159-.054-17.489-.162-3.296 0-5.907-1.051-7.834-3.154-.87.995-2.05 2.338-3.542 4.027l-1.822-4.852c.866-.78 1.885-1.668 3.057-2.663v-9.063h-2.896V11.7h6.961v13.419c1.279 1.819 3.619 2.728 7.019 2.728zm-9.656-27.5a107.553 107.553 0 013.936 6.373c-1.65.846-2.981 1.547-4 2.113a92.41 92.41 0 00-3.543-6.567l3.607-1.919zm21.878 12.125h-4.097v2.625h4.097V12.47zm-12.287 2.625h4.065V12.47h-4.065v2.625zm19.571 2.696h13.23V5.84h-11.812V1.526h28.735v4.313h-11.985V17.79h13.441v4.313h-13.425V32.17h-4.938V22.06h-13.246v-4.27zm1.881-9.003l3.413-2.318a163.158 163.158 0 016.469 8.086l-3.93 2.599c-2.189-3.339-4.173-6.135-5.952-8.389v.022zm28.348.323a155.643 155.643 0 01-7.284 8.125l-3.316-2.696a73.91 73.91 0 006.766-8.07l3.834 2.641z" fill="#fff"/><path d="M109.74 22.978h9.947v-6.05h-8.001v-2.34h8.001V9.387h-8.971v-2.34h5.93a67.125 67.125 0 00-3.428-4.259l1.951-1.493a155.841 155.841 0 013.774 4.194l-2.049 1.558h5.769a44.791 44.791 0 003.947-5.752l2.566 1.558a74.191 74.191 0 01-3.591 4.194h6.292v2.34h-9.527v5.203h8.06v2.34h-8.06v6.049h10.077v2.361H122.35v8.006h-2.663V25.34h-9.947v-2.361zm-3.935-3.122a27.58 27.58 0 002.799 1.364c-1.262 3.64-2.606 7.595-4.033 11.86l-2.895-1.4a79.994 79.994 0 004.129-11.824zm-3.51-9.613a88.017 88.017 0 016.173 4.162l-1.817 2.373a66.49 66.49 0 00-5.93-4.421l1.574-2.114zm1.559-8.432c2.253 1.5 4.28 2.984 6.081 4.454l-1.79 2.242c-2.081-1.836-4.058-3.428-5.93-4.776l1.639-1.92zm6.321 47.789h-1.126l-.917-2.437h-3.682l-.868 2.437h-1.148l3.331-8.686h1.052l3.358 8.686zm-2.35-3.337l-1.391-3.672a4.465 4.465 0 01-.135-.582 3.53 3.53 0 01-.14.582l-1.348 3.698 3.014-.026zm3.236 2.997v-1.202c.148.13.313.241.491.329.195.098.399.18.609.242.208.068.421.12.636.157.196.035.394.053.593.054a2.33 2.33 0 001.402-.346 1.17 1.17 0 00.464-1.002 1.189 1.189 0 00-.151-.615 1.882 1.882 0 00-.432-.474 4.089 4.089 0 00-.641-.41c-.248-.135-.539-.27-.804-.415-.264-.146-.587-.307-.846-.47a3.633 3.633 0 01-.685-.538 2.172 2.172 0 01-.458-.647 1.954 1.954 0 01-.178-.793c-.009-.362.08-.72.259-1.035a2.31 2.31 0 01.685-.722 3.14 3.14 0 01.97-.426 4.41 4.41 0 011.078-.14c.64-.042 1.28.065 1.871.312v1.143a3.384 3.384 0 00-1.973-.539 3.08 3.08 0 00-.663.07c-.209.044-.409.12-.593.227a1.38 1.38 0 00-.426.404c-.114.182-.17.395-.162.61-.007.197.036.393.124.57.089.173.214.324.367.443.182.149.379.279.587.388l.804.415c.312.151.603.313.884.48.263.152.509.333.733.539.206.197.375.43.501.685.125.268.188.561.184.857.009.375-.078.746-.254 1.078a2.03 2.03 0 01-.663.739 3.035 3.035 0 01-.981.404c-.386.083-.78.125-1.175.124a4.894 4.894 0 01-.507-.032c-.205 0-.41-.06-.62-.097a4.536 4.536 0 01-.593-.162 1.8 1.8 0 01-.437-.205z" fill="red"/><path d="M121.083 46.969h-3.315v-1.337h3.315v1.337zm3.785-.351V49.6h-1.946v-8.675h3.062c2.189 0 3.283.924 3.283 2.771a2.642 2.642 0 01-.954 2.13 3.718 3.718 0 01-2.512.809l-.933-.017zm0-4.189v2.696h.75c1.04 0 1.563-.458 1.563-1.37 0-.91-.539-1.336-1.563-1.336l-.75.01zm13.294 7.171h-2.129l-.62-1.93h-3.089l-.61 1.93h-2.118l3.159-8.686h2.318l3.089 8.686zm-3.197-3.434l-.932-2.917a3.649 3.649 0 01-.146-.782h-.048a3.35 3.35 0 01-.151.755l-.944 2.944h2.221zm10.503 3.137c-.783.334-1.63.49-2.48.459a4.192 4.192 0 01-3.143-1.176 4.306 4.306 0 01-1.143-3.132 4.576 4.576 0 011.289-3.375 4.473 4.473 0 013.337-1.3 6.166 6.166 0 012.156.324v1.882a3.771 3.771 0 00-1.984-.54 2.638 2.638 0 00-1.973.766 2.855 2.855 0 00-.749 2.087 2.817 2.817 0 00.706 2.005 2.523 2.523 0 001.908.75 4.05 4.05 0 002.092-.54l-.016 1.79zm4.199-8.378v1.515h-.728v5.656h.728V49.6h-3.413v-1.504h.728V42.44h-.728v-1.515h3.413zm6.264 1.596h-3.062v2.13h2.814v1.585h-2.814V49.6h-1.957v-8.675h5.019v1.596zm4.114-1.596v1.515h-.727v5.656h.727V49.6h-3.412v-1.504h.728V42.44h-.728v-1.515h3.412zm7.473 8.378a5.808 5.808 0 01-2.485.459 4.192 4.192 0 01-3.143-1.176 4.314 4.314 0 01-1.143-3.132 4.576 4.576 0 011.288-3.375 4.477 4.477 0 013.338-1.3c.732-.02 1.462.09 2.156.324v1.882a3.825 3.825 0 00-1.989-.54 2.638 2.638 0 00-1.973.766 2.86 2.86 0 00-.75 2.108 2.821 2.821 0 00.706 2.006 2.522 2.522 0 001.909.749 4.067 4.067 0 002.097-.54l-.011 1.77zm2.177.458a1.11 1.11 0 01-.787-.29.935.935 0 01-.318-.717.891.891 0 01.329-.712c.225-.189.51-.288.803-.28.294-.012.581.088.804.28a.906.906 0 01.312.712.929.929 0 01-.318.727 1.214 1.214 0 01-.825.28zm8.918-.458a5.783 5.783 0 01-2.48.458 4.189 4.189 0 01-3.143-1.175 4.281 4.281 0 01-1.143-3.132 4.589 4.589 0 011.283-3.375 4.492 4.492 0 013.343-1.3 6.187 6.187 0 012.156.324v1.882a3.803 3.803 0 00-1.984-.54 2.636 2.636 0 00-1.967.788 2.86 2.86 0 00-.755 2.086 2.799 2.799 0 00.711 2.006 2.517 2.517 0 001.909.749 4.057 4.057 0 002.092-.54l-.022 1.77zm5.186.458a4.039 4.039 0 01-3.041-1.213 4.372 4.372 0 01-1.175-3.164 4.676 4.676 0 011.191-3.332 4.138 4.138 0 013.159-1.272 3.954 3.954 0 013.009 1.218 4.49 4.49 0 011.148 3.208 4.609 4.609 0 01-1.191 3.316 4.076 4.076 0 01-3.1 1.24zm.081-7.294a1.96 1.96 0 00-1.618.771 3.235 3.235 0 00-.62 2.049c-.045.724.16 1.442.582 2.032a1.945 1.945 0 001.585.755 1.972 1.972 0 001.618-.733c.425-.585.635-1.3.593-2.022a3.397 3.397 0 00-.577-2.102 1.862 1.862 0 00-1.563-.75zm15.542 7.133h-1.93v-5.187c0-.539 0-1.18.07-1.86h-.048c-.064.39-.154.776-.27 1.154l-2.038 5.93h-1.617l-2.07-5.844a11.19 11.19 0 01-.275-1.213h-.054c.054.858.081 1.618.081 2.254V49.6h-1.763v-8.675h2.863l1.773 5.149c.14.403.245.818.313 1.24h.032c.114-.48.227-.895.345-1.25l1.774-5.139h2.793l.021 8.675z" fill="#fff"/></g><defs><clipPath id="clip0"><path fill="#fff" d="M0 0h200v49.761H0z"/></clipPath></defs></svg>