<svg width="44" height="44" fill="none" xmlns="http://www.w3.org/2000/svg"><path d="M40.452 11.355h-1.42V7.097A7.105 7.105 0 0031.936 0h-8.517a7.105 7.105 0 00-7.096 7.097c0 .741.114 1.456.327 2.129h-4.585a7.07 7.07 0 00-5.06 2.129H3.548A3.552 3.552 0 000 14.903v25.549A3.552 3.552 0 003.548 44h14.194a3.552 3.552 0 003.548-3.548V23.383a7.06 7.06 0 001.42-.29v17.359A3.552 3.552 0 0026.258 44h14.194A3.552 3.552 0 0044 40.452V14.903a3.552 3.552 0 00-3.548-3.548zM23.419 1.419h8.517a5.684 5.684 0 015.677 5.678v10.908l-4.65-5.23H23.42a5.684 5.684 0 01-5.677-5.678 5.684 5.684 0 015.677-5.678zm10.17 14.194h-5.952a6.982 6.982 0 00-.295-1.42h4.985l1.261 1.42zm-32.17-.71c0-1.174.956-2.129 2.13-2.129h2.379a7.03 7.03 0 00-.924 2.839H1.419v-.71zm18.452 25.549a2.132 2.132 0 01-2.13 2.129H3.549a2.132 2.132 0 01-2.129-2.13v-2.128h18.452v2.129zm0-3.549H1.419v-19.87h3.549v13.93l6.706-7.544h8.197v13.484zM20.581 22h-9.545l-4.649 5.23V16.323a5.684 5.684 0 015.678-5.678h5.218a7.094 7.094 0 006.136 3.549h2.418a5.62 5.62 0 01.421 2.129A5.684 5.684 0 0120.581 22zm22 18.452a2.132 2.132 0 01-2.13 2.129H26.259a2.132 2.132 0 01-2.129-2.13v-2.128h18.452v2.129zm0-3.549H24.129V22.46a7.101 7.101 0 003.512-5.427h7.208l4.183 4.705v-4.705h3.549v19.871zm0-21.29h-3.549v-2.839h1.42c1.173 0 2.129.955 2.129 2.13v.709z" fill="#fff"/><path d="M36.903 39.742h-7.096v1.42h7.096v-1.42zM33.356 9.226a2.132 2.132 0 002.129-2.13 2.132 2.132 0 00-2.13-2.128 2.132 2.132 0 00-2.128 2.129c0 1.174.955 2.129 2.129 2.129zm0-2.839a.71.71 0 010 1.42.71.71 0 010-1.42zm-5.678 2.839a2.132 2.132 0 002.129-2.13 2.132 2.132 0 00-2.13-2.128c-1.173 0-2.128.955-2.128 2.129s.955 2.129 2.129 2.129zm0-2.839a.71.71 0 010 1.42.71.71 0 010-1.42zM22 9.226c1.174 0 2.13-.955 2.13-2.13A2.132 2.132 0 0022 4.969a2.132 2.132 0 00-2.129 2.129c0 1.174.955 2.129 2.13 2.129zm0-2.839a.71.71 0 010 1.42.71.71 0 010-1.42zm-7.806 33.355H7.098v1.42h7.096v-1.42zm-3.549-25.548c-1.174 0-2.13.955-2.13 2.129 0 1.173.956 2.129 2.13 2.129a2.132 2.132 0 002.129-2.13 2.132 2.132 0 00-2.13-2.128zm0 2.838a.71.71 0 010-1.419.71.71 0 010 1.42zm5.677-2.838a2.132 2.132 0 00-2.129 2.129c0 1.173.956 2.129 2.13 2.129a2.132 2.132 0 002.128-2.13 2.132 2.132 0 00-2.129-2.128zm0 2.838a.71.71 0 010-1.419.71.71 0 010 1.42zM22 14.194a2.132 2.132 0 00-2.129 2.129c0 1.173.955 2.129 2.13 2.129a2.132 2.132 0 002.128-2.13A2.132 2.132 0 0022 14.195zm0 2.838a.71.71 0 010-1.419.71.71 0 010 1.42z" fill="#fff"/></svg>