<svg width="47" height="50" fill="none" xmlns="http://www.w3.org/2000/svg"><mask id="a" fill="#fff"><path fill-rule="evenodd" clip-rule="evenodd" d="M28.976 12.527c2.156-2.044 4.816-2.943 7.866-3.103-.176-1.81-.832-3.348-1.903-4.714-2.95-3.767-8.434-5.355-13.3-3.804-3.567 1.132-6.189 3.324-7.26 6.918-1.16 3.902.39 7.682 4.033 10.205.568.394.656.726.467 1.33-.164.537-.28 1.09-.404 1.678-.066.315-.135.641-.214.98.32-.195.627-.384.924-.567.829-.512 1.587-.98 2.366-1.414.328-.173.77-.222 1.147-.185.808.064 1.61.167 2.454.276.302.04.61.08.925.118-.278-3.127.718-5.65 2.9-7.719zm-7.538-5.7c.756.025 1.387.665 1.361 1.379-.025.726-.668 1.305-1.45 1.28-.768-.012-1.36-.616-1.336-1.366.026-.74.656-1.318 1.425-1.293zm7.311 1.354c-.012-.714.618-1.342 1.374-1.354.77-.012 1.387.579 1.4 1.317 0 .763-.58 1.342-1.362 1.354-.769 0-1.4-.578-1.412-1.317zM42.813 27.57c.29.148.584.3.887.43a3.626 3.626 0 01-.05-.237c-.031-.168-.062-.33-.14-.465-.604-1.07-.264-1.748.682-2.56 3.24-2.82 3.554-7.276.895-10.624-3.051-3.84-9.404-4.764-13.728-1.994-4.866 3.114-5.471 8.95-1.26 12.753 2.205 1.994 4.89 2.807 7.89 2.511.405-.04.809-.153 1.21-.266.576-.161 1.146-.32 1.702-.263.651.068 1.272.386 1.912.715zm-8.97-11.03c-.026.59-.53 1.058-1.148 1.058-.605 0-1.11-.48-1.135-1.071-.025-.616.505-1.145 1.148-1.145.642 0 1.16.53 1.134 1.157zm4.815-.1c.025-.59.542-1.058 1.134-1.058.63 0 1.135.53 1.097 1.145-.013.603-.504 1.059-1.122 1.059-.63 0-1.135-.517-1.11-1.145z"/></mask><path d="M36.842 9.424l.079 1.498 1.566-.082-.152-1.561-1.493.145zm-7.866 3.103l-1.032-1.09v.001l1.032 1.088zM34.94 4.71l-1.181.924v.001l1.18-.925zM21.639.906l.454 1.43.002-.001-.455-1.43zm-7.26 6.918l-1.438-.428 1.438.428zm4.033 10.205l.856-1.232h-.002l-.854 1.232zm.467 1.33l-1.432-.45-.003.011 1.435.439zm-.404 1.678l1.468.308-1.468-.308zm-.214.98l-1.46-.34-.814 3.486 3.056-1.865-.782-1.28zm.924-.567l.788 1.276-.788-1.276zm2.366-1.414l-.698-1.328-.016.009-.017.009.731 1.31zm1.147-.185l-.145 1.493.014.001.014.001.117-1.495zm2.454.276l-.192 1.488.192-1.488zm.925.118l-.184 1.489 1.842.227-.164-1.849-1.494.133zm-3.278-12.04L21.3 8.154l1.5.053zm-1.361-1.378l.049-1.5h-.001l-.048 1.5zm-.088 2.659l.047-1.5h-.023l-.024 1.5zM20.013 8.12l-1.499-.052v.001l1.5.05zm10.11-1.293l-.024-1.5.024 1.5zM28.75 8.181l1.5-.025v-.001l-1.5.026zm2.774-.037h1.5V8.12l-1.5.025zM30.16 9.498v1.5h.024l-.024-1.5zM43.7 28l-.594 1.377 2.804 1.21-.757-2.96L43.7 28zm-.887-.43l.685-1.335-.685 1.335zm.837.193l1.474-.277-1.474.277zm-.14-.465l-1.305.738.006.01 1.3-.748zm.682-2.56l.977 1.137.007-.006-.984-1.131zm.895-10.624l-1.175.933 1.175-.933zM31.359 12.12l.808 1.263-.808-1.263zm-1.26 12.753l1.005-1.113-1.006 1.113zm7.89 2.511l.148 1.493h.002l-.15-1.493zm1.21-.266l-.404-1.444.404 1.444zm1.702-.263l.156-1.492-.156 1.492zM33.842 16.54l1.499.064V16.6l-1.499-.06zm-2.282-.012l-1.498.061v.003l1.498-.064zm7.098-.086l-1.5-.064v.004l1.5.06zm2.23.086l-1.496-.092-.002.03v.03l1.499.032zm-4.124-8.6c-3.312.173-6.344 1.163-8.82 3.51l2.064 2.178c1.835-1.74 4.123-2.546 6.913-2.693l-.157-2.996zm-3.006-2.292c.905 1.154 1.444 2.425 1.591 3.935l2.986-.291c-.206-2.11-.977-3.916-2.216-5.495l-2.36 1.851zm-11.663-3.3c4.314-1.375 9.128.063 11.663 3.3l2.362-1.85C32.755-.512 26.602-2.25 21.184-.523l.911 2.858zm-6.279 5.918c.9-3.017 3.071-4.9 6.277-5.917l-.907-2.86c-3.93 1.247-7.001 3.747-8.245 7.92l2.875.857zm3.45 8.543c-3.197-2.215-4.396-5.36-3.45-8.545l-2.875-.854c-1.373 4.62.529 9.033 4.617 11.865l1.709-2.466zm1.044 3.011c.128-.406.261-1.01.042-1.666-.22-.66-.695-1.073-1.084-1.344l-1.711 2.464c.081.057.091.074.072.052a.658.658 0 01-.123-.223.67.67 0 01-.036-.254c.002-.03.005-.015-.022.074l2.862.897zm-.367 1.538c.126-.6.23-1.086.37-1.548l-2.869-.877c-.187.613-.316 1.232-.437 1.808l2.936.617zm-.221 1.013c.083-.358.155-.7.221-1.013l-2.936-.616c-.067.317-.132.627-.207.948l2.922.681zm-1.324-2.185l-.918.564 1.563 2.561c.323-.197.633-.388.93-.572l-1.575-2.553zm2.422-1.447c-.812.453-1.6.94-2.422 1.447l1.575 2.553a61.371 61.371 0 012.31-1.38l-1.463-2.62zm2.024-.368c-.564-.055-1.324 0-1.99.35l1.395 2.655c-.021.012 0-.003.076-.014a.975.975 0 01.228-.005l.291-2.986zm2.5.282a49.826 49.826 0 00-2.528-.284l-.235 2.99c.764.06 1.527.159 2.379.269l.384-2.975zm.916.116c-.31-.038-.613-.077-.916-.116l-.384 2.975c.301.039.613.08.933.119l.367-2.978zm1.684-7.318c-2.51 2.38-3.68 5.353-3.361 8.94l2.988-.266c-.237-2.666.586-4.741 2.437-6.497l-2.064-2.177zm-3.646-3.18c.058-1.619-1.303-2.881-2.811-2.93l-.098 2.998c-.032 0-.043-.012-.045-.015-.002-.001-.048-.05-.044-.158l2.998.106zm-2.996 2.727c1.534.049 2.94-1.102 2.996-2.727L21.3 8.154a.21.21 0 01.062-.148c.022-.02.038-.02.035-.02l-.095 3zM18.514 8.07c-.055 1.63 1.245 2.892 2.812 2.917l.048-3c.008 0 .045.007.081.044a.204.204 0 01.058.14l-2.999-.1zm2.972-2.741c-1.557-.05-2.917 1.137-2.972 2.74l2.998.103a.183.183 0 01-.055.125.105.105 0 01-.067.03l.096-2.998zm8.613 0c-1.52.024-2.878 1.273-2.85 2.88l3-.053c.002.1-.041.147-.046.153a.083.083 0 01-.055.019l-.05-3zm2.923 2.79c-.027-1.597-1.358-2.816-2.923-2.79l.048 2.999a.113.113 0 01-.071-.033.18.18 0 01-.053-.124l3-.051zm-2.837 2.88c1.572-.025 2.838-1.243 2.838-2.854h-3l.001-.01a.203.203 0 01.053-.093.168.168 0 01.054-.038c.015-.007.019-.005.006-.005l.048 3zM27.25 8.207c.027 1.636 1.405 2.791 2.911 2.791v-3c-.005 0 .01 0 .031.02a.2.2 0 01.057.138l-3 .05zm17.044 18.416a13.388 13.388 0 01-.796-.388l-1.37 2.67c.283.144.622.319.978.472l1.188-2.755zm-2.118 1.416c.013.071.036.2.07.333l2.907-.744a2.5 2.5 0 01-.029-.142l-2.948.553zm.035.008a.729.729 0 01-.059-.128l-.002-.007v-.002.002l.002.006a.739.739 0 01.013.066.553.553 0 01.01.055l2.95-.553c-.02-.108-.086-.54-.314-.936l-2.6 1.497zm1.003-4.447c-.518.446-1.115 1.047-1.375 1.87-.291.923-.068 1.798.366 2.566l2.612-1.476a.888.888 0 01-.11-.25.181.181 0 01-.008.062c-.005.019.001-.014.074-.106.076-.094.199-.22.396-.39L43.214 23.6zm.698-8.553c2.181 2.746 1.905 6.288-.705 8.56l1.97 2.262c3.868-3.366 4.223-8.737 1.084-12.688l-2.349 1.866zm-11.744-1.664c3.723-2.385 9.206-1.531 11.744 1.664l2.35-1.866c-3.564-4.486-10.788-5.479-15.712-2.324l1.618 2.526zM31.104 23.76c-1.782-1.61-2.468-3.562-2.287-5.372.183-1.818 1.26-3.666 3.35-5.005l-1.617-2.526c-2.775 1.776-4.434 4.402-4.718 7.231-.284 2.837.832 5.704 3.26 7.898l2.012-2.226zm6.739 2.132c-2.61.257-4.869-.44-6.739-2.132l-2.012 2.226c2.542 2.298 5.654 3.225 9.044 2.891l-.294-2.985zm.952-.218c-.426.12-.703.193-.955.218l.299 2.985c.557-.056 1.088-.209 1.465-.315l-.81-2.888zm2.262-.31c-.893-.094-1.75.166-2.262.31l.81 2.888c.637-.178.92-.238 1.141-.215l.31-2.984zm2.44.871c-.58-.298-1.458-.77-2.44-.872l-.311 2.984c.32.033.682.198 1.382.557l1.37-2.669zm-10.802-7.137c1.371 0 2.584-1.052 2.646-2.495l-2.998-.128c.012-.26.216-.377.352-.377v3zm-2.633-2.507c.06 1.41 1.241 2.507 2.633 2.507v-3c.1 0 .187.04.246.097.06.056.113.148.118.268l-2.997.128zm2.646-2.709c-1.434 0-2.709 1.178-2.646 2.706l2.997-.123a.427.427 0 01-.116.32.332.332 0 01-.235.097v-3zM35.34 16.6c.06-1.506-1.166-2.717-2.633-2.717v3a.374.374 0 01-.365-.403l2.998.12zm4.451-2.717c-1.346 0-2.572 1.052-2.633 2.495l2.997.128a.415.415 0 01-.126.286.348.348 0 01-.238.091v-3zm2.594 2.737c.092-1.503-1.123-2.737-2.594-2.737v3a.408.408 0 01-.4-.447l2.994.184zm-2.62 2.467c1.374 0 2.592-1.05 2.623-2.528l-3-.062a.444.444 0 01.14-.307.36.36 0 01.238-.103v3zM37.16 16.38a2.603 2.603 0 002.608 2.705v-3c.206 0 .399.176.39.415l-2.998-.12z" fill="#fff" mask="url(#a)"/><path d="M3.891 43.058A6.3 6.3 0 007.196 44a6.088 6.088 0 005.423-3.322c.809-1.589.768-3.33.728-5.06a47.919 47.919 0 01-.018-1.128v-3.084C15.934 33.134 18 32.844 18 32.844v-2.66c-1.176-.248-1.97-.755-2.52-1.345-1.484-.817-1.96-2.173-2.12-3.042m.002-.01c-.085-.466-.074-.787-.074-.787h-3.284v7.575c0 .458.005.916.01 1.374.013 1.378.027 2.76-.084 4.142-.106 1.418-1.24 2.577-2.743 2.577a2.93 2.93 0 01-1.138-.237 2.116 2.116 0 01-.018-.022c-.953-.435-1.61-1.366-1.61-2.463 0-1.5 1.24-2.711 2.775-2.711.297 0 .583.041.858.134v-2.794l-.01-.6a5.767 5.767 0 00-.858-.062c-3.41 0-6.186 2.7-6.186 6.043 0 2.142 1.144 4.036 2.87 5.102m22.798 6.007h.008l.038.004.16.009c.143.006.352.012.61.006a10.35 10.35 0 001.972-.225h0a7.233 7.233 0 012.368-.101 7.138 7.138 0 01.948.179l.06.017.02.005.006.002.002.001h.001l-.224.716.225-.715.008.002h0l.004.001.023.008.105.03c.093.026.23.061.399.097.34.072.795.144 1.268.149.993.01 1.774-.257 2.104-1.016h0c.431-.99.292-1.674.101-2.094a2.012 2.012 0 00-.435-.614l-.023-.02-.021-.016a11.187 11.187 0 01-.35-.277c-.23-.187-.55-.454-.91-.779-.715-.643-1.618-1.534-2.296-2.482l-.008-.011-.008-.013c-.725-1.1-1.504-1.318-2.109-1.25-.674.077-1.29.527-1.588 1.01-.456.744-1.03 1.339-1.495 1.765-.233.214-.444.39-.6.52l-.002.002-.185.156-.042.038a1.163 1.163 0 01-.16.15l-.001.001a4.22 4.22 0 01-.128.096l-.058.043c-.073.053-.152.11-.242.179a5.014 5.014 0 00-.723.66c-.47.534-.795 1.2-.599 2.051l1.777 1.716zm0 0h0l-.044-.004h-.062a1.723 1.723 0 01-.635-.185c-.35-.182-.816-.576-1.036-1.526l1.777 1.715zm-1.4-7.84h0c-.322.067-.55.022-.718-.06a1.201 1.201 0 01-.475-.453c-.291-.459-.366-1.046-.305-1.34l.007-.037.004-.035s0 0 0 0h0l.001-.01.007-.049a3.26 3.26 0 01.235-.813c.206-.463.474-.723.833-.755.309-.026.63.12.921.424.3.314.456.68.48.861.028.244.086.792-.042 1.306-.119.476-.364.838-.948.96zm8.276-3.543h-.002c-.45-.057-.66-.254-.784-.51-.15-.305-.203-.761-.142-1.31.033-.297.269-.795.648-1.206.18-.197.363-.338.52-.417.156-.079.24-.073.267-.067h.001c.256.057.582.282.835.658.25.372.35.777.298 1.092v.002c-.07.429-.285.934-.604 1.297-.308.35-.652.51-1.037.46zm-3.463-2.056c0 .586-.172 1.086-.412 1.42-.24.334-.508.457-.729.457-.221 0-.49-.123-.73-.458-.241-.334-.413-.833-.413-1.42 0-.586.172-1.084.412-1.418.241-.334.51-.457.731-.457.221 0 .489.123.73.457.24.333.411.832.411 1.419zm6.795 3.285c.55 0 .864.244 1.067.538.23.333.3.712.3.83l.003.198c.007.334.016.765-.113 1.17-.072.225-.174.388-.304.496-.12.1-.324.203-.699.212-.847.018-1.092-.247-1.2-.427-.162-.275-.197-.68-.197-1.205 0-.505.058-.992.235-1.333a.83.83 0 01.3-.339c.119-.073.305-.14.608-.14z" stroke="#fff" stroke-width="1.5"/></svg>