<svg width="45" height="45" fill="none" xmlns="http://www.w3.org/2000/svg"><g clip-path="url(#clip0)" fill="#fff"><path d="M42 6v1.5A1.5 1.5 0 0143.5 9v22.5H42V33h1.5v1.5A1.5 1.5 0 0142 36v1.5a3 3 0 003-3V9a3 3 0 00-3-3zM3 37.5h14.742l-1.8 6H14.25V45h16.5v-1.5H17.508l1.8-6h.942V36H3a1.5 1.5 0 01-1.5-1.5V33h24v-1.5h-24V9A1.5 1.5 0 013 7.5V6a3 3 0 00-3 3v25.5a3 3 0 003 3z"/><path d="M6 3a1.5 1.5 0 011.5-1.5h30A1.5 1.5 0 0139 3v27h1.5V3a3 3 0 00-3-3h-30a3 3 0 00-3 3v27H6V3z"/><path d="M7.5 3H9v1.5H7.5V3zm3 0H12v1.5h-1.5V3zm3 0H15v1.5h-1.5V3zm0 25.5h12V27h-12a2.25 2.25 0 010-4.5h18a2.25 2.25 0 011.125 4.198l.75 1.299A3.75 3.75 0 0031.5 21h-18a3.75 3.75 0 000 7.5z"/><path d="M21.75 24h1.5v1.5h-1.5V24zm3 0h1.5v1.5h-1.5V24zm-6 0h1.5v1.5h-1.5V24zm-3 0h1.5v1.5h-1.5V24zm-3 0h1.5v1.5h-1.5V24zm5.058-6.401c.054.052.113.097.168.15.094.084.186.17.285.25.08.065.163.123.245.184.082.06.18.134.273.196.094.063.199.123.3.183.083.05.165.1.251.15.113.06.23.114.346.168.08.037.158.075.24.11.122.051.249.094.374.138.08.028.158.058.239.083.13.04.263.07.395.102.081.02.161.044.244.06.144.029.29.047.438.067.075.01.144.025.219.032a6.964 6.964 0 001.35 0c.075-.007.145-.022.218-.032.15-.02.294-.038.438-.067.083-.016.163-.04.244-.06.132-.031.266-.062.396-.102.08-.024.158-.055.238-.083.127-.044.254-.087.375-.138.081-.034.16-.075.239-.11.116-.054.233-.108.346-.167.086-.047.168-.099.251-.15.101-.06.203-.118.3-.184.098-.065.183-.13.273-.196.09-.066.165-.12.245-.184.099-.08.192-.166.286-.25.054-.05.113-.095.167-.15l.012-.017a6.75 6.75 0 10-9.406 0l.011.017zM20.998 12a1.5 1.5 0 113 0 1.5 1.5 0 01-3 0zm1.5 3a3.73 3.73 0 013.244 1.87l-.044.033a5.225 5.225 0 01-.675.45l-.013.008c-.23.123-.468.23-.713.317l-.132.048c-.239.08-.483.143-.73.188-.048.009-.098.015-.15.022a4.772 4.772 0 01-1.581 0c-.049-.007-.098-.013-.15-.022a5.075 5.075 0 01-.73-.188l-.132-.048a5.253 5.253 0 01-.713-.317l-.014-.008a5.177 5.177 0 01-.675-.45l-.043-.032A3.73 3.73 0 0122.499 15zm0-7.5a5.243 5.243 0 014.297 8.257 5.221 5.221 0 00-2.072-1.763 3 3 0 10-4.449 0 5.222 5.222 0 00-2.072 1.763A5.242 5.242 0 0122.499 7.5zm.517 27.404l-.119.06a2.075 2.075 0 00-.278 3.542l4.696 3.354a.75.75 0 00.436.14h12a.75.75 0 00.75-.75v-8.17a2.312 2.312 0 00-1.875-2.3 2.257 2.257 0 00-1.83.505l-.045.039a2.245 2.245 0 00-3 0 2.339 2.339 0 00-2.25-.447V26.25a2.31 2.31 0 00-1.875-2.3A2.25 2.25 0 0027 26.17v10.005l-1.99-1.194a2.062 2.062 0 00-1.995-.077zm4.35 3.239A.75.75 0 0028.5 37.5V26.17a.75.75 0 01.882-.739.811.811 0 01.618.819V33a.75.75 0 001.5 0 .75.75 0 011.5 0 .75.75 0 001.5 0 .75.75 0 011.5 0 .75.75 0 001.5 0 .75.75 0 01.88-.74.813.813 0 01.62.82v7.42H27.99l-4.5-3.214a.576.576 0 01.076-.98l.119-.06a.569.569 0 01.552.02l3.128 1.877z"/></g><defs><clipPath id="clip0"><path fill="#fff" d="M0 0h45v45H0z"/></clipPath></defs></svg>