<svg width="67" height="24" fill="none" xmlns="http://www.w3.org/2000/svg"><g clip-path="url(#clip0)"><path d="M7.564 0c1.603 0 2.107 1.171 2.53 2.34.177.497 4.343 12.12 4.468 12.47.034.096.011.256-.136.314-.148.057-2.312.914-2.432.96a.23.23 0 01-.298-.143c-.045-.12-.943-2.654-1.044-2.937H4.477c-.097.283-1.007 2.822-1.047 2.937-.042.117-.17.196-.298.143l-2.43-.96a.25.25 0 01-.139-.315C.716 14.374 4.82 2.938 5.03 2.341 5.436 1.189 5.957 0 7.564 0zM.234 20.797a.24.24 0 00-.234.244v2.717c0 .134.104.242.233.242h14.655a.238.238 0 00.236-.242V21.04a.24.24 0 00-.237-.244H.233zM7.548 3.795L5.462 10.18h4.209L7.576 3.795H7.55zm31.319 10.47c-.307.105-.51.131-.752.131-.499 0-.776-.201-.776-.723 0-.543.352-.725 1.042-.725.169 0 .335.025.412.053v.389c0 .42.023.695.074.875zm1.774.622c-.368-.57-.465-.906-.465-1.625v-1.46c0-.785-.09-1.07-.294-1.355-.283-.406-.757-.583-1.626-.583-.616 0-1.213.068-1.792.219l.21 1.037a8.635 8.635 0 011.09-.103c.923 0 1.029.136 1.029.841v.264a2.636 2.636 0 00-.704-.096c-1.39 0-2.125.693-2.125 1.84 0 1.076.785 1.663 1.741 1.663.357 0 .73-.067 1.026-.19.178-.08.256-.126.486-.278.14.205.418.416.531.455l.893-.629zm13.755-.622c-.31.105-.508.131-.752.131-.5 0-.78-.201-.78-.723 0-.543.355-.725 1.047-.725.169 0 .335.025.411.053v.389c0 .42.022.695.074.875zm1.776.622c-.371-.57-.466-.906-.466-1.625v-1.46c0-.785-.092-1.07-.297-1.355-.28-.406-.754-.583-1.627-.583a7.11 7.11 0 00-1.794.219l.206 1.037a8.656 8.656 0 011.1-.103c.919 0 1.028.136 1.028.841v.264a2.632 2.632 0 00-.707-.096c-1.393 0-2.13.693-2.13 1.84 0 1.076.787 1.663 1.748 1.663.36 0 .73-.067 1.023-.19.181-.08.256-.126.487-.278.14.205.419.416.533.455l.896-.629zm10.827.52s-.762-1.655-.949-2.032c-.21-.424-.405-.717-.834-.822v-.024c.288-.056.517-.233.767-.775.237-.528.308-.642.447-.768.137-.125.325-.08.325-.08l.07-.975c-.2-.028-.42-.029-.648-.016-.378.023-.574.134-.76.325-.147.146-.246.364-.368.615-.13.274-.233.494-.368.772-.134.286-.197.414-.559.414h-.235V7.718h-1.392v7.689h1.392v-2.21l.19-.005c.4 0 .47.102.68.531.248.511.72 1.684.72 1.684H67zm-39.223 0h1.607l-2.43-7.56a2.874 2.874 0 00-.91-.142c-.37 0-.501.05-.79.141l-2.571 7.56h1.542s.208-.662.453-1.484h2.664c.238.821.435 1.485.435 1.485zm-2.708-2.752l.515-1.754c.176-.611.445-1.583.445-1.583h.044s.249 1.006.41 1.572l.488 1.764h-1.902zm17.945-.865a.901.901 0 00-.89.909c0 .504.4.91.89.91.492 0 .89-.406.89-.91a.9.9 0 00-.89-.91zM31.292 7.718h-1.396v7.688h1.396V7.718zm27.733 3.368c.772.017.867.18.867.839v3.482h1.384v-3.604c0-.786-.09-1.07-.296-1.357-.284-.405-.842-.582-1.785-.582-.934 0-1.529.101-2.294.334v5.209H58.3v-4.255c.367-.054.432-.066.726-.066zm-24.28-3.505c-.873 0-1.348.176-1.628.581-.205.288-.296.578-.296 1.365v.67h-.693v1.15h.693v4.06h1.384l-.003-4.06h1.38v-1.15h-1.38l.003-.615c0-.705.106-.842 1.03-.842.1 0 .213.005.333.014l.218-1.104a7.84 7.84 0 00-1.042-.069zm11.105.072a46.837 46.837 0 012.203-.07c.121 0 .248.002.374.008 1.31 0 2.06.972 2.06 2.112 0 .776-.349 1.29-1.166 1.597.961.217 1.465.982 1.465 1.917 0 .687-.19 1.232-.539 1.604-.452.454-1.137.708-2.05.708-.81 0-1.829-.026-2.347-.057v-7.82zm2.203 1.26c-.231 0-.517.004-.8.014v1.846h.8c.318 0 .573-.09.747-.263.166-.164.252-.395.252-.67 0-.59-.313-.924-.897-.928h-.102zm.029 5.29h.06c.727 0 1.172-.394 1.178-1.187a1.065 1.065 0 00-.307-.737c-.21-.215-.507-.327-.856-.327h-.904v2.243c.255.005.536.006.828.008" fill="#fff"/></g><defs><clipPath id="clip0"><path fill="#fff" d="M0 0h67v24H0z"/></clipPath></defs></svg>