<svg width="54" height="23" fill="none" xmlns="http://www.w3.org/2000/svg"><g clip-path="url(#clip0)"><path d="M9.87 2.88c-.633.756-1.646 1.35-2.658 1.266-.127-1.02.369-2.105.949-2.775C8.794.595 9.901.043 10.798 0c.105 1.063-.306 2.105-.928 2.88zm.917 1.468c-1.466-.085-2.72.84-3.417.84-.707 0-1.772-.798-2.932-.776-1.508.02-2.911.882-3.68 2.253-1.583 2.743-.412 6.804 1.117 9.036.749 1.105 1.645 2.317 2.827 2.275 1.118-.043 1.56-.734 2.91-.734 1.361 0 1.751.734 2.933.712 1.223-.02 1.993-1.105 2.742-2.21.854-1.255 1.202-2.477 1.223-2.541-.02-.021-2.362-.925-2.383-3.646-.022-2.275 1.845-3.36 1.93-3.423-1.055-1.574-2.7-1.744-3.27-1.786zm8.47-3.083v16.573h2.552v-5.666h3.533c3.227 0 5.495-2.233 5.495-5.464 0-3.232-2.226-5.443-5.41-5.443h-6.17zm2.552 2.169h2.942c2.215 0 3.48 1.19 3.48 3.284s-1.265 3.296-3.49 3.296h-2.932v-6.58zm13.69 14.531c1.603 0 3.09-.818 3.765-2.115h.052v1.988h2.363v-8.25c0-2.391-1.898-3.933-4.82-3.933-2.71 0-4.714 1.563-4.788 3.71h2.299c.19-1.02 1.129-1.69 2.415-1.69 1.561 0 2.437.734 2.437 2.084v.914l-3.186.191c-2.963.18-4.566 1.403-4.566 3.53 0 2.147 1.656 3.571 4.029 3.571zM36.184 16c-1.36 0-2.225-.66-2.225-1.67 0-1.041.833-1.647 2.425-1.743l2.838-.18v.935c0 1.552-1.308 2.658-3.038 2.658zm8.649 6.346c2.489 0 3.66-.957 4.682-3.859l4.483-12.671h-2.595l-3.006 9.79h-.052l-3.006-9.79H42.67l4.325 12.065-.232.734c-.39 1.243-1.023 1.722-2.152 1.722-.2 0-.59-.022-.749-.043v1.988c.148.043.78.064.97.064z" fill="#fff"/></g><defs><clipPath id="clip0"><path fill="#fff" d="M0 0h54v22.345H0z"/></clipPath></defs></svg>