<svg width="20" height="20" fill="none" xmlns="http://www.w3.org/2000/svg"><path d="M18.047 1.719h-1.862v-.547C16.185.526 15.659 0 15.013 0c-.646 0-1.172.526-1.172 1.172v.547H7.28v-.547a1.173 1.173 0 00-2.345 0v.561a.39.39 0 00-.104-.014H3.274a1.955 1.955 0 00-1.953 1.953v6.653a.39.39 0 10.781 0V5.742h14.083a.39.39 0 000-.781H2.102V3.67c0-.645.526-1.171 1.172-1.171h1.557c.036 0 .07-.005.104-.014v.502c0 .646.526 1.172 1.172 1.172.646 0 1.172-.526 1.172-1.172V2.5h6.562v.488c0 .646.526 1.172 1.172 1.172.646 0 1.172-.526 1.172-1.172V2.5h1.862c.646 0 1.172.526 1.172 1.172v14.843a.704.704 0 01-1.407 0v-1.01a.39.39 0 00-.39-.39h-4.544a.39.39 0 100 .78h4.153v.62c0 .255.064.494.177.704H1.484a.704.704 0 01-.703-.703v-.62h8.743a.39.39 0 000-.782H5.621a3.196 3.196 0 001.116-2.427 3.207 3.207 0 00-3.203-3.203 3.207 3.207 0 00-3.203 3.204c0 .969.434 1.838 1.116 2.426H.391a.39.39 0 00-.391.39v1.012C0 19.334.666 20 1.484 20h17.031c.819 0 1.485-.666 1.485-1.485V3.672a1.955 1.955 0 00-1.953-1.953zm-11.55 1.27a.391.391 0 01-.78 0V1.171a.391.391 0 01.78 0v1.816zm8.907 0a.391.391 0 01-.782 0V1.171a.391.391 0 01.782 0v1.816zM1.112 14.687a2.425 2.425 0 012.422-2.422 2.425 2.425 0 012.422 2.421 2.425 2.425 0 01-2.422 2.422 2.425 2.425 0 01-2.422-2.422z" fill="#613654"/><path d="M18.294 5.075a.393.393 0 00-.553 0 .394.394 0 000 .553.394.394 0 00.553 0 .393.393 0 000-.553zm-6.627 12.154a.393.393 0 00-.553 0 .394.394 0 000 .552.393.393 0 00.553 0 .394.394 0 000-.553zm-2.829-5.354a1.485 1.485 0 000 2.969c.818 0 1.484-.666 1.484-1.485 0-.818-.666-1.484-1.484-1.484zm0 2.188a.704.704 0 11.001-1.408.704.704 0 01-.001 1.408zm3.646-2.188c-.818 0-1.484.666-1.484 1.484 0 .819.666 1.485 1.484 1.485.819 0 1.485-.666 1.485-1.485 0-.818-.666-1.484-1.485-1.484zm0 2.188a.704.704 0 11.002-1.408.704.704 0 01-.002 1.408zm3.645-2.188c-.819 0-1.485.666-1.485 1.484 0 .819.666 1.485 1.485 1.485.818 0 1.484-.666 1.484-1.485 0-.818-.666-1.484-1.484-1.484zm0 2.188a.704.704 0 11.001-1.408.704.704 0 01-.001 1.408zM5.191 7.813c-.818 0-1.484.665-1.484 1.484 0 .818.666 1.484 1.484 1.484.819 0 1.485-.666 1.485-1.484 0-.819-.666-1.485-1.485-1.485zm0 2.187a.704.704 0 11.002-1.408A.704.704 0 015.191 10zm7.293-2.187c-.818 0-1.484.665-1.484 1.484 0 .818.666 1.484 1.484 1.484.819 0 1.485-.666 1.485-1.484 0-.819-.666-1.485-1.485-1.485zm0 2.187a.704.704 0 11.002-1.408.704.704 0 01-.002 1.408zm3.645-2.187c-.819 0-1.485.665-1.485 1.484 0 .818.666 1.484 1.485 1.484.818 0 1.484-.666 1.484-1.484 0-.819-.666-1.485-1.484-1.485zm0 2.187a.704.704 0 11.002-1.408.704.704 0 01-.002 1.408zM8.838 7.813a1.485 1.485 0 000 2.968c.818 0 1.484-.666 1.484-1.484 0-.819-.666-1.485-1.484-1.485zm0 2.187a.704.704 0 11.002-1.408A.704.704 0 018.838 10zm-3.912 3.736a.39.39 0 00-.552 0l-1.272 1.272-.435-.435a.39.39 0 00-.553.552l.711.711a.39.39 0 00.553 0l1.548-1.548a.39.39 0 000-.553z" fill="#613654"/></svg>