<svg width="50" height="75" fill="none" xmlns="http://www.w3.org/2000/svg"><path fill-rule="evenodd" clip-rule="evenodd" d="M6.948 26.349c5.422-1.165 4.696-7.639 4.535-9.08l-.002-.01c-.267-2.191-2.843-6.018-6.338-5.712-4.4.392-5.042 6.748-5.042 6.748-.596 2.943 1.422 9.224 6.847 8.054zm10.092-10.9c3 0 5.425-3.456 5.425-7.727C22.465 3.452 20.04 0 17.04 0c-3.001 0-5.432 3.451-5.432 7.722 0 4.27 2.43 7.728 5.432 7.728zm12.933.51c4.016.525 6.589-3.759 7.104-7.005.525-3.241-2.07-7.012-4.905-7.659-2.85-.655-6.406 3.906-6.727 6.881-.39 3.64.517 7.268 4.528 7.782zm15.903 5.453c0-1.553-1.285-6.233-6.072-6.233-4.796 0-5.43 4.416-5.43 7.537 0 2.978.248 7.132 6.204 7.003 5.502-.122 5.359-5.785 5.306-7.873-.004-.17-.008-.317-.008-.434zM39.804 35.04s-6.208-4.802-9.83-9.993c-4.92-7.655-11.9-4.538-14.234-.65-1.746 2.925-4.219 5.04-5.563 6.19-.447.383-.769.659-.898.822-.079.096-.303.263-.622.5-1.805 1.343-6.643 4.944-5.328 10.791 1.551 6.877 6.99 6.747 6.99 6.747s4.01.392 8.658-.648c4.66-1.037 8.667.254 8.667.254s10.868 3.645 13.837-3.367c2.974-7.007-1.677-10.646-1.677-10.646zm-21.8-2.075v-4.62l3.198.051v17.079H14.14c-3.053-.611-4.269-2.694-4.421-3.052l-.038-.086c-.22-.495-.948-2.134-.518-4.796 1.317-4.264 5.079-4.576 5.079-4.576h3.764zm-2.901 9.706h2.845v-6.956H14.9c-1.372.41-2.037 1.472-2.181 1.932-.157.46-.515 1.628-.204 2.639.604 2.282 2.587 2.386 2.587 2.386zm7.83-.299V33.38l3.303-.054v8.08c.202.86 1.272 1.016 1.272 1.016h3.347v-9.044h3.508v12.047h-8.128c-3.156-.815-3.303-3.053-3.303-3.053zM4.952 73.888c.993.617 2.22.926 3.682.926 1.609 0 2.903-.39 3.882-1.167.979-.778 1.468-1.857 1.468-3.239 0-1.408-.49-2.433-1.468-3.077a7.875 7.875 0 00-1.368-.764 18.42 18.42 0 00-1.65-.564c-.951-.281-1.595-.53-1.93-.744-.322-.214-.483-.476-.483-.784 0-.282.114-.503.342-.664.228-.175.55-.262.965-.262.337 0 .642.057.915.171l.205.086h.001c.903.382 1.924.813 2.749.329.76-.446 1.08-1.424.508-2.094a5.13 5.13 0 00-1.26-1.066c-.912-.564-1.958-.845-3.138-.845-1.381 0-2.548.402-3.5 1.207-.925.804-1.388 1.857-1.388 3.158 0 1.153.356 2.078 1.066 2.776.711.697 1.75 1.24 3.118 1.629.966.281 1.556.462 1.77.543.63.268.946.603.946 1.006 0 .63-.55.945-1.65.945-.564 0-1.055-.113-1.474-.338-.958-.514-2.135-1.048-3.075-.501-.754.439-1.116 1.384-.595 2.084.366.491.82.907 1.363 1.25zm15.25-3.791c0-.572.463-1.036 1.035-1.036h2.152a1.66 1.66 0 000-3.32h-2.212a.976.976 0 010-1.95h2.695a1.68 1.68 0 100-3.36h-2.796a4.476 4.476 0 00-4.475 4.476v5.08a4.525 4.525 0 004.525 4.525h2.837a1.69 1.69 0 000-3.38h-2.726a1.036 1.036 0 01-1.036-1.035zm20.441 2.605c-1.435 1.408-3.178 2.112-5.23 2.112-2.078 0-3.828-.704-5.25-2.112-1.421-1.422-2.132-3.165-2.132-5.23 0-2.065.711-3.802 2.132-5.21 1.422-1.421 3.172-2.132 5.25-2.132 2.065 0 3.809.71 5.23 2.132 1.08 1.06 1.754 2.306 2.02 3.738h5.491a1.5 1.5 0 010 3h-5.502c-.275 1.403-.945 2.637-2.009 3.701zM32.7 70.227c.737.711 1.643 1.066 2.715 1.066 1.073 0 1.978-.355 2.716-1.066.724-.724 1.086-1.642 1.086-2.755 0-1.127-.362-2.039-1.086-2.736-.724-.724-1.63-1.086-2.716-1.086-1.086 0-1.991.362-2.715 1.086-.724.697-1.086 1.61-1.086 2.736 0 1.113.362 2.031 1.086 2.755z" fill="url(#paint0_linear)"/><defs><linearGradient id="paint0_linear" x1="3.721" y1="51.842" x2="17.545" y2="-8.19" gradientUnits="userSpaceOnUse"><stop stop-color="#7B22D5"/><stop offset="1" stop-color="#211DBE"/></linearGradient></defs></svg>