<svg width="48" height="79" fill="none" xmlns="http://www.w3.org/2000/svg"><path fill-rule="evenodd" clip-rule="evenodd" d="M12.034 17.615c.165 1.47.905 8.073-4.625 9.26C1.876 28.07-.183 21.663.425 18.662c0 0 .655-6.483 5.143-6.883 3.565-.312 6.192 3.591 6.465 5.826l.002.01zm11.202-9.738c0 4.356-2.473 7.882-5.533 7.882-3.062 0-5.54-3.526-5.54-7.882C12.162 3.52 14.641 0 17.702 0c3.06 0 5.533 3.52 5.533 7.877zM38.14 9.134c-.525 3.31-3.149 7.68-7.245 7.143-4.092-.524-5.017-4.225-4.618-7.937.326-3.035 3.954-7.687 6.86-7.019 2.893.66 5.54 4.506 5.003 7.813zm2.783 6.349c4.882 0 6.193 4.773 6.193 6.357 0 .12.004.27.008.443.054 2.13.2 7.906-5.412 8.03-6.075.132-6.328-4.105-6.328-7.143 0-3.183.646-7.687 5.539-7.687zM30.895 25.548C34.59 30.843 40.923 35.74 40.923 35.74s4.743 3.712 1.71 10.858c-3.029 7.153-14.113 3.436-14.113 3.436s-4.089-1.318-8.84-.26c-4.743 1.06-8.832.66-8.832.66s-5.548.134-7.13-6.88c-1.341-5.965 3.593-9.638 5.434-11.007.326-.243.555-.413.635-.511.132-.166.46-.447.916-.837 1.37-1.174 3.893-3.332 5.674-6.315 2.38-3.966 9.5-7.146 14.518.663zm-12.208 3.365v4.712h-3.84s-3.837.318-5.18 4.667c-.438 2.715.304 4.386.528 4.891l.04.089c.155.364 1.395 2.489 4.509 3.113h7.204v-17.42l-3.261-.052zm-.058 14.612h-2.902s-2.022-.105-2.638-2.433c-.318-1.032.047-2.223.207-2.692.147-.469.826-1.553 2.225-1.97h3.107l.001 7.095zm5.085-9.478v9.172s.15 2.283 3.368 3.115h8.291V34.046h-3.578v9.224h-3.414s-1.092-.159-1.297-1.035v-8.242l-3.37.054zM6 60a5 5 0 00-5 5v9a5 5 0 005 5h36a5 5 0 005-5v-9a5 5 0 00-5-5H6zm25.56 13.566c.692.43 1.546.644 2.563.644 1.12 0 2.02-.27 2.702-.812.681-.541 1.022-1.293 1.022-2.254 0-.98-.34-1.694-1.022-2.142a5.485 5.485 0 00-.952-.532c-.27-.112-.654-.243-1.148-.392-.663-.196-1.11-.369-1.344-.518-.224-.15-.336-.331-.336-.546 0-.196.08-.35.238-.462.158-.121.383-.182.672-.182.71 0 1.218.364 1.526 1.092l2.1-1.232c-.336-.719-.822-1.27-1.456-1.652-.635-.392-1.363-.588-2.184-.588-.962 0-1.774.28-2.436.84-.644.56-.966 1.293-.966 2.198 0 .803.247 1.447.742 1.932.495.485 1.218.863 2.17 1.134a25.65 25.65 0 011.232.378c.438.187.658.42.658.7 0 .439-.383.658-1.148.658-.924 0-1.568-.434-1.932-1.302l-2.142 1.246c.28.765.76 1.363 1.442 1.792zM20.396 74h-2.702l-.42-1.414h-3.262L13.591 74h-2.716l3.234-9.8h3.052l3.234 9.8zm-4.76-6.902l-.98 3.332h1.974l-.994-3.332zm5.473-2.898h3.99c1.344 0 2.473.471 3.388 1.414.914.943 1.372 2.105 1.372 3.486 0 1.39-.458 2.557-1.372 3.5-.906.933-2.035 1.4-3.388 1.4h-3.99v-9.8zm2.576 7.378h1.414c.672 0 1.227-.224 1.666-.672.429-.457.644-1.06.644-1.806 0-.756-.215-1.353-.644-1.792-.43-.457-.985-.686-1.666-.686h-1.414v4.956z" fill="#fff"/></svg>