<svg width="50" height="75" fill="none" xmlns="http://www.w3.org/2000/svg"><path fill-rule="evenodd" clip-rule="evenodd" d="M11.826 17.27c.162 1.44.887 7.914-4.534 9.079-5.425 1.17-7.444-5.111-6.847-8.054 0 0 .642-6.356 5.042-6.748 3.495-.306 6.07 3.52 6.338 5.712l.001.01zm10.982-9.548c0 4.27-2.424 7.728-5.424 7.728-3.002 0-5.433-3.457-5.433-7.728 0-4.27 2.432-7.722 5.433-7.722 3 0 5.424 3.451 5.424 7.722zM37.42 8.954c-.514 3.246-3.087 7.53-7.103 7.004-4.012-.514-4.918-4.143-4.528-7.782.32-2.975 3.877-7.536 6.726-6.88 2.837.646 5.431 4.417 4.905 7.658zm2.728 6.225c4.786 0 6.072 4.68 6.072 6.233 0 .117.004.264.008.434.053 2.088.196 7.75-5.306 7.873-5.956.129-6.204-4.025-6.204-7.003 0-3.12.634-7.537 5.43-7.537zm-9.831 9.868c3.623 5.191 9.83 9.993 9.83 9.993s4.651 3.639 1.678 10.645c-2.97 7.013-13.837 3.368-13.837 3.368s-4.008-1.291-8.667-.254c-4.649 1.04-8.658.648-8.658.648s-5.439.13-6.99-6.747C2.358 36.853 7.196 33.252 9 31.91c.319-.238.543-.405.622-.501.129-.163.45-.439.898-.821 1.344-1.15 3.817-3.266 5.563-6.191 2.333-3.888 9.313-7.005 14.233.65zm-11.968 3.299v4.62h-3.764s-3.763.311-5.08 4.575c-.429 2.662.299 4.3.519 4.796l.038.086c.152.358 1.368 2.44 4.42 3.052h7.064V28.396l-3.197-.05zm-.057 14.326h-2.846s-1.982-.103-2.586-2.386c-.311-1.011.046-2.18.204-2.639.143-.46.809-1.523 2.181-1.932h3.046v6.956zm4.984-9.292v8.992s.147 2.238 3.303 3.053h8.128V33.378H31.2v9.044h-3.348s-1.07-.156-1.27-1.015v-8.08l-3.305.053z" fill="#fff"/><path d="M8.98 74.814c-1.462 0-2.69-.309-3.682-.926a4.983 4.983 0 01-2.071-2.574l3.077-1.79c.523 1.246 1.448 1.87 2.776 1.87 1.1 0 1.65-.315 1.65-.945 0-.403-.316-.738-.946-1.006-.215-.08-.805-.261-1.77-.543-1.368-.389-2.407-.932-3.118-1.63-.71-.697-1.066-1.622-1.066-2.775 0-1.301.463-2.354 1.388-3.158.952-.805 2.119-1.207 3.5-1.207 1.18 0 2.226.281 3.138.845.912.55 1.609 1.34 2.092 2.373l-3.018 1.77c-.442-1.046-1.173-1.569-2.192-1.569-.416 0-.738.087-.966.262a.769.769 0 00-.341.664c0 .308.16.57.482.784.336.215.98.463 1.931.744.711.215 1.26.403 1.65.564.442.187.898.442 1.367.764.98.644 1.469 1.67 1.469 3.078 0 1.38-.49 2.46-1.469 3.238-.978.778-2.273 1.167-3.882 1.167zm11.567-5.754v2.073h5.45v3.379h-9.05v-14.08h8.95v3.359h-5.35v1.95h4.848v3.32h-4.848zm20.442 3.641c-1.435 1.409-3.178 2.113-5.23 2.113-2.078 0-3.829-.704-5.25-2.112-1.421-1.422-2.132-3.165-2.132-5.23 0-2.065.71-3.802 2.132-5.21 1.421-1.421 3.172-2.132 5.25-2.132 2.065 0 3.808.71 5.23 2.132 1.435 1.408 2.152 3.145 2.152 5.21 0 2.051-.717 3.795-2.152 5.23zm-7.945-2.474c.737.711 1.642 1.066 2.715 1.066s1.978-.355 2.715-1.066c.725-.724 1.087-1.642 1.087-2.755 0-1.127-.362-2.039-1.087-2.736-.724-.724-1.629-1.086-2.715-1.086-1.086 0-1.991.362-2.715 1.086-.725.697-1.087 1.61-1.087 2.736 0 1.113.362 2.031 1.087 2.755z" fill="#fff"/><path fill-rule="evenodd" clip-rule="evenodd" d="M50 69h-9v-3h9v3z" fill="#fff"/></svg>