<svg width="47" height="79" fill="none" xmlns="http://www.w3.org/2000/svg"><path fill-rule="evenodd" clip-rule="evenodd" d="M7.087 26.876c5.53-1.188 4.79-7.791 4.625-9.261v-.01c-.274-2.236-2.901-6.139-6.466-5.827-3.735.333-4.816 4.88-5.073 6.395-.055.326-.11.648-.143.976-.314 3.152 1.808 8.86 7.057 7.727zm10.294-11.117c3.06 0 5.533-3.526 5.533-7.882C22.914 3.52 20.44 0 17.38 0c-3.06 0-5.54 3.52-5.54 7.877 0 4.356 2.479 7.882 5.54 7.882zm13.192.518c4.096.537 6.72-3.833 7.245-7.143.536-3.307-2.11-7.153-5.003-7.813-2.906-.668-6.534 3.984-6.86 7.019-.399 3.712.526 7.413 4.618 7.937zm16.22 5.563c0-1.584-1.31-6.357-6.193-6.357-4.892 0-5.538 4.504-5.538 7.687 0 3.038.253 7.275 6.328 7.143 5.611-.124 5.465-5.9 5.412-8.03a16.126 16.126 0 01-.008-.443zM40.62 35.757l-.04-.032c-.399-.31-6.435-5.058-10.007-10.177-5.018-7.809-12.138-4.629-14.518-.663-1.781 2.983-4.304 5.141-5.675 6.314-.455.39-.784.672-.915.838-.08.098-.31.268-.635.51-1.84 1.37-6.775 5.043-5.434 11.007 1.262 5.595 5.046 6.643 6.527 6.838.401.052.803.064 1.207.084 1.307.066 4.573.116 8.227-.701 4.431-.986 8.285.092 8.785.243.038.01.068.02.106.033.81.26 11.153 3.419 14.063-3.452 2.919-6.878-1.365-10.574-1.691-10.842zm-24.593-2.132a2.337 2.337 0 002.338-2.338v-.718a1.63 1.63 0 013.261 0v9.26a6.555 6.555 0 01-6.555 6.556c-.432 0-.866-.035-1.282-.154-2.651-.762-3.733-2.62-3.877-2.96l-.039-.087c-.224-.505-.966-2.177-.528-4.892 1.185-3.836 4.31-4.536 5.03-4.648a1.92 1.92 0 01.303-.02h1.35zm-.695 9.893c.049.006.097.007.146.007a2.829 2.829 0 002.829-2.829V39.14a2.711 2.711 0 00-2.712-2.71 1.98 1.98 0 00-.769.132c-1.149.482-1.72 1.413-1.852 1.838-.16.469-.525 1.66-.207 2.692.546 2.066 2.2 2.381 2.565 2.426zm8.112-.007a2.4 2.4 0 01-.053-.588v-7.218a1.685 1.685 0 113.37 0v5.689c0 .559.014 1.188.46 1.524.211.159.446.25.613.3.148.043.301.052.455.052a3.184 3.184 0 003.184-3.184v-4.25a1.79 1.79 0 113.578 0v4.354a6.144 6.144 0 01-6.144 6.144h-1.212c-.62 0-1.25-.057-1.823-.295-1.782-.738-2.287-1.97-2.428-2.528zM.68 65a5 5 0 015-5h36a5 5 0 015 5v9a5 5 0 01-5 5h-36a5 5 0 01-5-5v-9zm33.123 9.21c-1.018 0-1.872-.215-2.562-.644a3.486 3.486 0 01-.949-.87c-.363-.486-.11-1.145.414-1.45.654-.38 1.474-.01 2.14.349.292.157.634.235 1.027.235.765 0 1.148-.22 1.148-.658 0-.28-.22-.513-.658-.7a25.65 25.65 0 00-1.232-.378c-.952-.27-1.676-.649-2.17-1.134-.495-.485-.742-1.13-.742-1.932 0-.905.322-1.638.966-2.198.662-.56 1.474-.84 2.436-.84.82 0 1.549.196 2.184.588.333.201.625.449.876.742.399.467.175 1.147-.353 1.457-.619.363-1.395-.012-2.057-.288a1.64 1.64 0 00-.636-.119c-.29 0-.514.06-.672.182a.535.535 0 00-.238.462c0 .215.112.397.336.546.233.15.68.322 1.344.518.494.15.877.28 1.148.392.308.13.625.308.952.532.68.448 1.022 1.162 1.022 2.142 0 .961-.341 1.713-1.022 2.254-.682.541-1.582.812-2.702.812zm-16.64-.917c.124.42.51.707.947.707h.21a1.27 1.27 0 001.205-1.667l-2.206-6.684a2.11 2.11 0 00-4.008 0l-2.203 6.676A1.276 1.276 0 0012.318 74h.215a.988.988 0 00.948-.707.988.988 0 01.947-.707h1.787a.99.99 0 01.948.707zM15.32 70.43a.737.737 0 01-.707-.945c.207-.704 1.203-.706 1.413-.003a.737.737 0 01-.706.948zm9.457-6.23a3.99 3.99 0 00-3.99 3.99v1.82a3.99 3.99 0 003.99 3.99c1.354 0 2.483-.467 3.388-1.4.915-.943 1.372-2.11 1.372-3.5 0-1.381-.457-2.543-1.372-3.486-.914-.943-2.044-1.414-3.388-1.414zm0 7.378a1.414 1.414 0 01-1.414-1.414v-2.128c0-.78.633-1.414 1.414-1.414.682 0 1.237.229 1.666.686.43.439.644 1.036.644 1.792 0 .747-.214 1.349-.644 1.806-.438.448-.994.672-1.666.672z" fill="url(#paint0_linear)"/><defs><linearGradient id="paint0_linear" x1="6.706" y1="14.909" x2="3.116" y2="69.296" gradientUnits="userSpaceOnUse"><stop stop-color="#1D13DA"/><stop offset="1" stop-color="#1C15A6"/></linearGradient></defs></svg>