<svg width="47" height="81" fill="none" xmlns="http://www.w3.org/2000/svg"><path fill-rule="evenodd" clip-rule="evenodd" d="M11.826 17.27c.162 1.44.887 7.914-4.534 9.079-5.425 1.17-7.444-5.111-6.847-8.054 0 0 .642-6.356 5.042-6.748 3.495-.306 6.07 3.52 6.338 5.712l.001.01zm10.982-9.548c0 4.27-2.424 7.728-5.424 7.728-3.002 0-5.433-3.457-5.433-7.728 0-4.27 2.432-7.722 5.433-7.722 3 0 5.424 3.451 5.424 7.722zM37.42 8.954c-.514 3.246-3.087 7.53-7.103 7.004-4.012-.514-4.918-4.143-4.528-7.782.32-2.975 3.877-7.536 6.726-6.88 2.837.646 5.431 4.417 4.905 7.658zm2.728 6.225c4.786 0 6.072 4.68 6.072 6.233 0 .117.004.264.008.434.053 2.088.196 7.75-5.306 7.873-5.956.129-6.204-4.025-6.204-7.003 0-3.12.634-7.537 5.43-7.537zm-9.831 9.868c3.623 5.191 9.83 9.993 9.83 9.993s4.651 3.639 1.678 10.645c-2.97 7.013-13.837 3.368-13.837 3.368s-4.008-1.291-8.667-.254c-4.649 1.04-8.658.648-8.658.648s-5.439.13-6.99-6.747C2.358 36.853 7.196 33.252 9 31.91c.319-.238.543-.405.622-.501.129-.163.45-.439.898-.821 1.344-1.15 3.817-3.266 5.563-6.191 2.333-3.888 9.313-7.005 14.233.65zm-11.968 3.299v4.62h-3.764s-3.763.311-5.08 4.575c-.429 2.662.299 4.3.519 4.796l.038.086c.152.358 1.368 2.44 4.42 3.052h7.064V28.396l-3.197-.05zm-.057 14.326h-2.846s-1.982-.103-2.586-2.386c-.311-1.011.046-2.18.204-2.639.143-.46.809-1.523 2.181-1.932h3.046v6.956zm4.984-9.292v8.992s.147 2.238 3.303 3.053h8.128V33.378H31.2v9.044h-3.348s-1.07-.156-1.27-1.015v-8.08l-3.305.053z" fill="#fff"/><rect x="1.5" y="62.5" width="45" height="18" rx="4.5" stroke="#fff"/><path d="M26 62h16a5 5 0 015 5v9a5 5 0 01-5 5H26V62z" fill="#fff"/><path d="M41.573 75.456l-1.976-1.975c.36-.718.599-1.556.599-2.394A5.083 5.083 0 0035.109 66a5.083 5.083 0 00-5.088 5.087 5.083 5.083 0 005.088 5.088c.838 0 1.676-.24 2.394-.599l1.975 1.975c.598.599 1.496.599 2.095 0a1.56 1.56 0 000-2.095zm-6.464-.478a3.883 3.883 0 01-3.89-3.89 3.883 3.883 0 013.89-3.891 3.882 3.882 0 013.89 3.89 3.882 3.882 0 01-3.89 3.89z" fill="#456AB7"/></svg>