<svg width="47" height="81" fill="none" xmlns="http://www.w3.org/2000/svg"><path fill-rule="evenodd" clip-rule="evenodd" d="M11.483 17.27c.161 1.44.887 7.914-4.535 9.079-5.425 1.17-7.443-5.111-6.847-8.054 0 0 .642-6.356 5.042-6.748 3.495-.306 6.07 3.52 6.339 5.712v.01zm10.982-9.548c0 4.27-2.425 7.728-5.425 7.728-3.002 0-5.432-3.457-5.432-7.728 0-4.27 2.43-7.722 5.432-7.722 3 0 5.425 3.451 5.425 7.722zm14.612 1.232c-.515 3.246-3.088 7.53-7.104 7.004-4.011-.514-4.918-4.143-4.528-7.782.32-2.975 3.878-7.536 6.727-6.88 2.836.646 5.43 4.417 4.905 7.658zm2.727 6.225c4.787 0 6.072 4.68 6.072 6.233 0 .117.004.264.008.434.053 2.088.196 7.75-5.306 7.873-5.956.129-6.204-4.025-6.204-7.003 0-3.12.634-7.537 5.43-7.537zm-9.83 9.868c3.622 5.191 9.83 9.993 9.83 9.993s4.65 3.639 1.677 10.645c-2.97 7.013-13.837 3.368-13.837 3.368s-4.008-1.291-8.666-.254c-4.65 1.04-8.658.648-8.658.648s-5.44.13-6.99-6.747c-1.316-5.847 3.522-9.448 5.327-10.79.32-.238.543-.405.622-.501.13-.163.451-.439.898-.821 1.344-1.15 3.817-3.266 5.563-6.191 2.334-3.888 9.313-7.005 14.233.65zm-11.97 3.299v4.62h-3.763s-3.762.311-5.08 4.575c-.429 2.662.3 4.3.519 4.796l.038.086c.152.358 1.368 2.44 4.421 3.052h7.063V28.396l-3.197-.05zm-.056 14.326h-2.845s-1.983-.103-2.586-2.386c-.312-1.011.046-2.18.203-2.639.144-.46.809-1.523 2.181-1.932h3.046l.001 6.956zm4.984-9.292v8.992s.147 2.238 3.303 3.053h8.128V33.378h-3.508v9.044h-3.347s-1.07-.156-1.272-1.015v-8.08l-3.304.053z" fill="#3865AF"/><rect x="1.156" y="62.5" width="45" height="18" rx="4.5" stroke="#3865AF"/><path d="M25.656 62h16a5 5 0 015 5v9a5 5 0 01-5 5h-16V62z" fill="#3865AF"/><g clip-path="url(#clip0)"><path d="M41.23 75.456l-1.974-1.975c.359-.718.598-1.556.598-2.394A5.083 5.083 0 0034.767 66a5.083 5.083 0 00-5.087 5.087 5.083 5.083 0 005.087 5.088c.838 0 1.676-.24 2.394-.599l1.975 1.975c.599.599 1.496.599 2.095 0a1.56 1.56 0 000-2.095zm-6.463-.478a3.883 3.883 0 01-3.89-3.89 3.883 3.883 0 013.89-3.891 3.882 3.882 0 013.89 3.89 3.882 3.882 0 01-3.89 3.89z" fill="#fff"/></g><defs><clipPath id="clip0"><path fill="#fff" transform="translate(29.656 66)" d="M0 0h12v12H0z"/></clipPath></defs></svg>