<svg width="34" height="57" fill="none" xmlns="http://www.w3.org/2000/svg"><path fill-rule="evenodd" clip-rule="evenodd" d="M8.45 12.71c.12 1.06.653 5.824-3.337 6.681-3.712.801-5.256-3.138-5.103-5.436a8.42 8.42 0 01.14-.98C.373 11.77 1.193 8.73 3.784 8.499c2.572-.225 4.468 2.591 4.665 4.204v.007zm8.083-7.027c0 3.143-1.785 5.687-3.992 5.687-2.21 0-3.998-2.544-3.998-5.687C8.543 2.54 10.332 0 12.54 0c2.207 0 3.992 2.54 3.992 5.683zm10.753.907c-.378 2.389-2.272 5.542-5.227 5.154-2.953-.378-3.62-3.048-3.332-5.727.235-2.19 2.853-5.546 4.95-5.064 2.087.476 3.997 3.251 3.61 5.637zm2.008 4.581c3.522 0 4.468 3.444 4.468 4.587 0 .087.003.194.006.32.04 1.536.145 5.704-3.904 5.794-4.384.095-4.567-2.963-4.567-5.154 0-2.297.467-5.547 3.997-5.547zm-7.235 7.262c2.564 3.675 6.888 7.084 7.215 7.34l.04.03c.271.226 3.306 2.89 1.214 7.82-2.083 4.919-9.45 2.711-10.132 2.494l-.106-.033c-.416-.123-3.167-.873-6.324-.17a23.07 23.07 0 01-5.766.513c-.405-.016-.81-.026-1.208-.094-1.163-.197-3.676-1.068-4.542-4.908-.968-4.303 2.593-6.953 3.921-7.941.235-.175.4-.298.458-.369.095-.12.332-.323.66-.604.99-.846 2.81-2.404 4.095-4.556 1.717-2.861 6.854-5.156 10.475.478zm-7.613 2.447a1.177 1.177 0 00-1.196 1.176v.518c0 .932-.755 1.687-1.686 1.687h-.974c-.073 0-.145.003-.218.014-.52.08-2.775.585-3.63 3.354-.316 1.958.22 3.164.382 3.528l.028.064c.104.245.884 1.586 2.797 2.135.3.087.614.111.925.111a4.73 4.73 0 004.73-4.73v-6.68c0-.643-.516-1.167-1.158-1.177zm-1.238 8.483a2.04 2.04 0 01-2.146 2.036c-.263-.032-1.456-.26-1.85-1.75-.23-.745.033-1.605.149-1.943.096-.306.507-.978 1.336-1.326a1.43 1.43 0 01.555-.096c1.08 0 1.956.876 1.956 1.956v1.123zm4.867-4.817a1.216 1.216 0 00-1.196 1.216v5.208c0 .142.003.285.038.424.101.403.466 1.291 1.752 1.824.413.172.867.212 1.315.212h.875a4.433 4.433 0 004.433-4.433v-3.142a1.29 1.29 0 10-2.582 0v3.068a2.297 2.297 0 01-2.298 2.297c-.11 0-.221-.006-.327-.038a1.41 1.41 0 01-.443-.216c-.322-.243-.331-.697-.331-1.1v-4.104c0-.68-.557-1.227-1.236-1.216z" fill="url(#paint0_linear)"/><path fill-rule="evenodd" clip-rule="evenodd" d="M5.492 43.291a5 5 0 00-5 5V52a5 5 0 005 5h23.19a5 5 0 005-5v-3.71a5 5 0 00-5-5H5.492zm17.05 9.788c.499.31 1.115.465 1.849.465.808 0 1.458-.195 1.95-.586.491-.39.737-.933.737-1.626 0-.708-.246-1.223-.738-1.546a3.955 3.955 0 00-.686-.384 9.393 9.393 0 00-.829-.283c-.478-.141-.801-.266-.97-.373-.161-.108-.242-.24-.242-.394 0-.142.057-.253.172-.334.114-.087.276-.13.485-.13.169 0 .322.028.46.085.477.199 1.037.47 1.483.208.381-.224.542-.715.255-1.051a2.576 2.576 0 00-.633-.536c-.457-.283-.983-.424-1.575-.424-.694 0-1.28.202-1.758.606-.465.404-.697.933-.697 1.586 0 .579.178 1.044.535 1.394.357.35.88.623 1.566.818.485.141.781.232.889.273.316.134.475.303.475.505 0 .316-.276.475-.828.475-.284 0-.53-.057-.74-.17-.482-.259-1.073-.526-1.545-.252-.379.22-.56.695-.299 1.047.184.246.412.455.684.627zm-8.453-.89a.916.916 0 01-.87 1.203h-.15a.713.713 0 01-.684-.51.713.713 0 00-.684-.51h-1.289a.713.713 0 00-.684.51.713.713 0 01-.683.51H8.89a.92.92 0 01-.874-1.209l1.59-4.816a1.523 1.523 0 012.892 0l1.591 4.823zm-2.524-2.056c-.151-.508-.87-.506-1.02.002a.532.532 0 101.02-.002zM15 49.2a2.879 2.879 0 012.879-2.879c.97 0 1.785.34 2.445 1.02.66.68.99 1.52.99 2.516 0 1.003-.33 1.845-.99 2.525-.654.674-1.469 1.01-2.445 1.01A2.879 2.879 0 0115 50.513V49.2zm1.859 1.424c0 .564.457 1.02 1.02 1.02.485 0 .886-.16 1.202-.484.31-.33.465-.764.465-1.303 0-.546-.155-.977-.465-1.293-.31-.33-.71-.495-1.202-.495a1.02 1.02 0 00-1.02 1.02v1.535z" fill="url(#paint1_linear)"/><defs><linearGradient id="paint0_linear" x1="4.838" y1="6.944" x2="3.756" y2="32.342" gradientUnits="userSpaceOnUse"><stop stop-color="#1D13DA"/><stop offset="1" stop-color="#1C15A6"/></linearGradient><linearGradient id="paint1_linear" x1="5.246" y1="45.878" x2="5.093" y2="55.355" gradientUnits="userSpaceOnUse"><stop stop-color="#1D13DA"/><stop offset="1" stop-color="#1C15A6"/></linearGradient></defs></svg>