<svg width="87" height="40" fill="none" xmlns="http://www.w3.org/2000/svg"><g clip-path="url(#clip0)"><path d="M80.784 35.725c-.389 0-.738 0-1.05-.04-.66-.038-1.32-.077-1.98-.077-.428 0-.428 0-.467-.43l-.621-7.112-.622-5.9-.427-3.635-.389-3.165-.7-4.923a81.673 81.673 0 00-.854-5.237c-.039-.273-.039-.312.272-.351a19.367 19.367 0 013.691-.352h.427c.195.039.311.156.35.39l.156 2.697 1.087 14.575.544 6.682.35 3.83.233 3.048zM33.153 4.503h.7c.349 0 .426.117.426.469l.312 4.728.699 9.808.427 5.12.311 3.946.622 6.8c0 .312-.04.351-.35.351l-2.797-.117c-.195.039-.311-.078-.311-.274l-.117-1.368a100.472 100.472 0 01-.31-3.555l-.622-6.175-.66-5.587-.467-3.947-.505-3.595a210.654 210.654 0 00-.777-4.846l-.194-1.094c-.039-.195 0-.273.194-.312 1.088-.196 2.137-.391 3.419-.352zM72.237 20.25c.971 0 1.088.039 1.243.976.194 1.173.35 2.345.466 3.517l.428 3.79.816 8.05c.038.196 0 .274-.195.274l-3.03.352c-.31.039-.389 0-.427-.313l-1.749-8.987-1.088-5.98-.155-.82c-.039-.156.039-.273.194-.312 1.205-.274 2.37-.47 3.497-.547zm-44.174 0c1.05-.04 1.166.078 1.283 1.055.272 1.602.466 3.165.622 4.767l.504 4.689.311 3.166.272 2.54c0 .35-.039.43-.35.468l-2.874.274c-.311.039-.389 0-.428-.313l-2.37-12.27-.621-3.477c-.04-.196.038-.313.233-.352 1.204-.274 2.33-.47 3.418-.547zm14.841 12.113v5.002c.04.234-.077.352-.31.313h-.933c-.66 0-1.32.039-1.98.078-.35.04-.39.04-.429-.391l-.621-7.034-.31-3.477-.467-5.315c-.039-.43.039-.508.388-.547 1.088-.117 2.176-.117 3.264-.078l.816.117c.31.117.35.157.35.47l.116 2.11.039 2.344c.039 2.15.078 4.259.078 6.408zM87 32.6v4.806c0 .195-.078.313-.272.274H85.33c-.544 0-1.088.039-1.593.078-.311.04-.35 0-.389-.352l-.816-9.144-.427-4.533-.155-2.305c-.04-.313.038-.39.35-.39 1.281-.157 2.602-.196 3.884-.04.505.04.583.196.622.704l.117 5.197L87 32.6zM71.11 11.927c.389 0 .738.04 1.01.079.194.039.272.117.311.312l.505 5.432c.116.469.039.547-.427.547l-1.321.078c-.272.04-.389.078-.389-.351l-.544-4.416-.155-1.25c-.039-.235.039-.353.272-.391l.738-.04zm-44.018 0c.311 0 .622.04.894.079.155.039.233.117.272.312l.155 1.368.389 4.26c.039.312.039.35-.272.35l-1.515.079c-.31.04-.35 0-.389-.313l-.35-3.126-.31-2.618c-.04-.195.039-.313.233-.313a6.51 6.51 0 01.893-.078zm15.502 3.908v2.696c.039.43-.04.43-.389.43-.505 0-.971-.039-1.437-.078-.31-.04-.35-.04-.31-.352l-.117-3.321c0-.743 0-1.485-.04-2.227-.038-.352 0-.391.35-.391.544 0 1.088.039 1.632.117.31 0 .31.078.31.39v2.736zm44.134.039v2.697c0 .351-.039.39-.388.39l-1.477-.078c-.233-.04-.35-.156-.31-.352l-.117-5.588c0-.312.039-.351.35-.351.505 0 .97.039 1.437.078.583.039.505.156.505.586v2.618zm-60.84 2.11c.039.47 0 .547-.466.587l-.933.234c-.31.117-.35.039-.388-.234l-.971-5.51c-.117-.352-.04-.43.31-.47l1.36-.234c.311-.039.389-.039.389.274.116.664.233 1.328.31 1.993l.39 3.126v.234zm41.337-5.353c.583-.117 1.204-.195 1.826-.274.194-.039.272.079.31.274l.312 2.149c.155 1.055.272 2.11.31 3.165v.313c.04.156-.038.273-.194.313l-1.243.273c-.194.04-.272-.039-.31-.235l-1.01-5.822v-.156zm-27.584 4.22c0 .625-.039 1.211-.078 1.758 0 .196-.077.274-.272.313l-1.204.117c-.194.04-.272-.078-.272-.273a25.584 25.584 0 01-.155-1.72 85.28 85.28 0 01-.195-3.243l-.077-.781c-.04-.157.039-.235.194-.235l1.593-.117c.272 0 .35.039.35.352l.116 3.83zm44.057-.625c.039.742.039 1.524 0 2.266.039.352-.039.43-.389.43l-1.088.117c-.194.04-.31-.078-.31-.273a76.711 76.711 0 00-.195-2.97l-.155-2.735c-.04-.196.039-.274.194-.274l1.554-.117c.272 0 .311.039.311.352.078 1.055.117 2.149.078 3.204zM24.373 29.55c.622.743.738 1.563.466 2.462a4.937 4.937 0 01-1.282 2.227 13.115 13.115 0 01-3.458 2.579c-2.214 1.172-4.506 1.993-6.954 2.423a40.202 40.202 0 01-5.245.703c-.544.04-1.087.04-1.632.04H5.103c-.311 0-.389-.079-.428-.392l-.271-3.79-.739-7.463-.815-7.113-.467-3.79-.505-3.634c-.271-1.993-.621-3.986-.97-5.979C.634 6.222.362 4.62.013 3.018c-.04-.195 0-.351.194-.39L5.608.36a5.16 5.16 0 011.01-.352c.233-.039.35.04.31.274 0 .625 0 1.25-.038 1.915l-.039.507a201.978 201.978 0 000 6.839c.04 1.993.156 4.025.272 6.018.194 3.126.505 6.252.816 9.339 0 .312.039.312.388.273a10.85 10.85 0 011.943-.156c2.06 0 4.118.235 6.1.742a30.223 30.223 0 015.09 1.759c.815.39 1.553.86 2.252 1.407.273.195.467.39.66.625zm43.785-.352c.816.664 1.087 1.563.854 2.618a5.058 5.058 0 01-1.165 2.267c-.933 1.055-2.02 1.875-3.225 2.54a23.985 23.985 0 01-7.46 2.657c-1.437.273-2.874.508-4.312.625a18.92 18.92 0 01-2.603.078h-1.049c-.233.04-.35-.078-.35-.313a93.212 93.212 0 00-.271-3.282l-.622-6.682-.66-5.822-.816-6.565a52.217 52.217 0 00-.466-3.439l-.7-4.376c-.31-2.071-.699-4.142-1.126-6.213l-.04-.274c-.077-.195 0-.351.195-.39C46.246 1.845 48.11.985 50.014.243c.505-.196 1.127-.43 1.088.039-.155 1.446-.116 2.891-.155 4.298a34.383 34.383 0 00.039 3.478v.899c0 1.406.038 2.813.155 4.18.078 1.837.194 3.713.35 5.55l.35 3.946c.038.743.116 1.446.232 2.189 0 .43.078.39.428.351a12.658 12.658 0 012.098-.156c2.447.04 4.817.43 7.148 1.094a21.925 21.925 0 014.585 1.798c.66.351 1.243.781 1.826 1.29zM11.98 36.077c.582-.352 1.592-1.055 2.99-2.15 1.4-1.133 2.254-1.875 2.604-2.266a68.342 68.342 0 00-6.527-2.5l.932 6.916zm49.612-4.22c.116-.118.077-.196-.04-.274l-.932-.39a58.024 58.024 0 00-4.934-1.877l-.233-.078c-.077-.039-.155 0-.271.04l.932 6.76c.116 0 .194-.04.233-.079a115.993 115.993 0 004.545-3.438l.7-.665z" fill="#fff"/></g><defs><clipPath id="clip0"><path fill="#fff" d="M0 0h87v40H0z"/></clipPath></defs></svg>