<svg width="65" height="30" fill="none" xmlns="http://www.w3.org/2000/svg"><path d="M60.296 26.011c.032.422-.304.806-.724.753a25.24 25.24 0 00-1.48-.058c-.32 0-.32 0-.349-.323l-.464-5.334-.464-4.425-.32-2.726-.29-2.373-.523-3.693a61.428 61.428 0 00-.638-3.927c-.03-.205-.03-.235.203-.264.9-.176 1.829-.264 2.758-.264.212 0 .478-.005.554.193a.54.54 0 01.026.1l.117 2.022.812 10.932.406 5.011.262 2.873.114 1.503zM24.77 3.377h.523c.261 0 .32.088.32.352l.232 3.546.522 7.356.32 3.84.232 2.96.464 5.099c0 .234-.03.264-.261.264l-1.725-.073c-.242-.01-.598.023-.598-.22l-.087-1.026c-.087-.88-.174-1.759-.232-2.667l-.464-4.63-.494-4.192-.348-2.96-.377-2.696a158.737 158.737 0 00-.58-3.634l-.146-.82c-.029-.147 0-.206.145-.235.813-.147 1.597-.293 2.554-.264zm29.2 11.811c.726 0 .813.03.929.732.145.88.261 1.76.348 2.638l.32 2.843.61 6.037c.028.147 0 .206-.146.206l-2.264.263c-.232.03-.29 0-.32-.234l-1.306-6.74-.812-4.485-.117-.615c-.028-.117.03-.205.146-.235.9-.205 1.77-.352 2.612-.41zm-33.003 0c.784-.03.87.058.958.791.203 1.202.348 2.374.465 3.576l.377 3.516.232 2.375.203 1.904c0 .264-.029.323-.261.352l-2.148.205c-.232.03-.29 0-.32-.234l-1.77-9.203-.464-2.608c-.03-.146.028-.234.174-.264.9-.205 1.741-.352 2.554-.41zm11.088 9.085v3.634c0 .078.017.158 0 .234a.155.155 0 01-.039.076c-.095.099-.262.042-.399.042h-.49c-.494 0-.987.03-1.481.059-.261.029-.29.029-.32-.294l-.464-5.275-.232-2.608-.348-3.986c-.03-.322.029-.38.29-.41.813-.088 1.625-.088 2.438-.059l.124.018c.323.047.747.095.747.422l.087 1.582.03 1.759c.028 1.612.057 3.194.057 4.806zM65 24.449v3.605c0 .23-.32.205-.55.205h-.698c-.406 0-.813.03-1.19.059-.232.029-.261 0-.29-.264l-.61-6.858-.32-3.4-.115-1.729c-.03-.234.029-.293.261-.293.958-.117 1.945-.146 2.902-.03.378.03.436.147.465.528l.087 3.898.058 4.279zM53.128 8.945c.29 0 .552.03.755.059.145.03.203.088.232.235l.314 3.389c.042.455.202 1.095-.256 1.095l-.987.058c-.203.03-.29.059-.29-.263l-.406-3.312-.116-.938c-.03-.176.029-.264.203-.293l.551-.03zm-32.887 0c.233 0 .465.03.668.059.116.03.174.088.203.235l.116 1.025.29 3.195c.03.234.03.264-.203.264l-1.132.058c-.232.03-.26 0-.29-.234l-.261-2.345L19.4 9.24c-.046-.229.29-.256.521-.277.105-.01.213-.017.32-.017zm11.582 2.931v2.022c.03.323-.03.323-.29.323-.378 0-.726-.03-1.074-.059-.29-.037-.238-.41-.248-.703l-.071-2.052c0-.556 0-1.113-.03-1.67-.029-.264 0-.293.262-.293.254 0 .509.011.763.034.304.028.688.041.688.347v2.051zm32.974.03v2.022c0 .264-.03.293-.29.293l-1.103-.059c-.264-.044-.235-.399-.24-.666l-.08-3.789c0-.234.03-.263.262-.263.377 0 .725.03 1.074.058.435.03.377.118.377.44v1.963zm-45.455 1.582c.037.457-.572.496-1.016.608l-.03.008c-.232.088-.26.029-.29-.176l-.632-3.599c-.062-.355-.22-.845.139-.885l1.016-.176c.3-.038.317.355.368.653.059.349.114.698.154 1.047l.29 2.344v.176zl30.884-4.015c.435-.088.9-.146 1.364-.205.145-.03.203.059.232.205l.232 1.612c.116.791.203 1.582.233 2.374 0 .155.057.356-.074.44a.244.244 0 01-.072.029l-.929.205c-.145.03-.203-.03-.232-.176L50.227 9.6a.114.114 0 01-.001-.019v-.108zm10.275-.85c0 .469-.03.909-.058 1.319 0 .147-.058.205-.203.235l-.9.088c-.145.029-.203-.06-.203-.206-.058-.44-.087-.85-.116-1.29a64.279 64.279 0 01-.146-2.432l-.03-.31c-.018-.184-.067-.452.117-.452l1.19-.088c.204 0 .262.03.262.264l.087 2.872zm32.916-.469c.02.38.026.774.019 1.162-.007.358.05.86-.31.86l-.812.089c-.145.029-.232-.06-.232-.206a57.633 57.633 0 00-.145-2.227l-.117-2.052c-.029-.146.03-.205.145-.205l1.162-.088c.203 0 .232.03.232.264.058.791.087 1.612.058 2.403zm-44.324 9.994c.465.557.552 1.172.349 1.846a3.706 3.706 0 01-.958 1.67 9.801 9.801 0 01-2.583 1.935c-1.655.88-3.367 1.495-5.196 1.817a29.94 29.94 0 01-3.919.528c-.406.029-.812.029-1.219.029h-.87c-.233 0-.29-.059-.32-.293l-.203-2.843-.552-5.597-.609-5.334-.348-2.843-.378-2.726C1.2 8.858.94 7.363.678 5.868.474 4.667.27 3.465.01 2.264c-.048-.244.26-.342.489-.438L4.189.27c.262-.118.494-.206.755-.264.258-.044.233.336.232.598-.002.34-.007.684-.028 1.043l-.03.381c-.028 1.7-.028 3.4 0 5.129.03 1.495.117 3.019.204 4.513.145 2.345.377 4.69.61 7.005 0 .234.028.234.29.205a8.074 8.074 0 011.451-.118c1.538 0 3.077.176 4.557.557 1.306.323 2.555.762 3.803 1.32a9.02 9.02 0 011.683 1.054c.203.147.348.293.493.469zm32.713-.264c.61.498.813 1.172.639 1.964a3.797 3.797 0 01-.871 1.7c-.697.791-1.51 1.407-2.41 1.905a17.877 17.877 0 01-5.572 1.993c-1.074.205-2.148.38-3.222.468-.61.059-1.277.088-1.945.059h-.366c-.278 0-.679.044-.679-.234-.058-.82-.116-1.642-.203-2.462l-.465-5.012-.493-4.367-.61-4.923c-.086-.85-.203-1.73-.348-2.58l-.522-3.282a87.266 87.266 0 00-.842-4.66c-.02-.136-.096-.285-.028-.404l.003-.005c.06-.097.194-.11.3-.154 1.367-.569 2.71-1.186 4.079-1.722.377-.147.842-.323.813.03-.116 1.083-.087 2.168-.116 3.223-.03.879-.03 1.758.029 2.608v.674c0 1.055.029 2.11.116 3.136.058 1.377.145 2.784.26 4.162l.262 2.96c.02.375.053.738.099 1.105.044.357.036.84.395.8a9.402 9.402 0 011.567-.118c1.829.03 3.6.323 5.34.82 1.19.324 2.323.763 3.426 1.35.493.263.929.585 1.364.966zM8.61 24.523c.16 1.196 1.465 1.787 2.417 1.046l.158-.123.137-.112c.924-.755.698-2.084-.414-2.515a52.083 52.083 0 00-.133-.05c-1.155-.444-2.33.528-2.165 1.754zm37.407-.63c.119-.12-.108-.24-.264-.305l-.462-.194a43.298 43.298 0 00-3.686-1.407l-.158-.053-.03-.011c-.107-.037-.178.116-.163.227l.647 4.708c.013.097.114.183.19.119l.02-.017a86.741 86.741 0 003.383-2.57l.523-.498z" fill="url(#paint0_linear)"/><defs><linearGradient id="paint0_linear" x1="9.311" y1="5.661" x2="8.936" y2="26.398" gradientUnits="userSpaceOnUse"><stop stop-color="#01AEE8"/><stop offset="1" stop-color="#3093B4"/></linearGradient></defs></svg>