<svg width="65" height="30" fill="none" xmlns="http://www.w3.org/2000/svg"><g clip-path="url(#clip0)"><path d="M60.356 26.794c-.29 0-.552 0-.784-.03a25.24 25.24 0 00-1.48-.058c-.32 0-.32 0-.349-.322l-.464-5.335-.464-4.425-.32-2.725-.29-2.374-.523-3.693a61.43 61.43 0 00-.638-3.927c-.03-.205-.03-.235.203-.264.9-.176 1.829-.264 2.758-.264h.319c.145.03.232.118.261.293l.117 2.022.812 10.932.406 5.012.262 2.872.174 2.286zM24.769 3.377h.523c.261 0 .32.088.32.352l.232 3.546.522 7.356.32 3.84.232 2.96.464 5.099c0 .234-.03.264-.261.264l-2.09-.088c-.145.03-.232-.059-.232-.206l-.088-1.025c-.087-.88-.174-1.759-.232-2.667l-.464-4.63-.494-4.192-.348-2.96-.377-2.696a158.737 158.737 0 00-.58-3.634l-.146-.82c-.029-.147 0-.206.145-.235.813-.147 1.597-.293 2.554-.264zM53.97 15.188c.726 0 .813.03.929.733.145.879.261 1.758.348 2.637l.32 2.843.61 6.037c.028.147 0 .206-.146.206l-2.264.263c-.232.03-.29 0-.32-.234l-1.306-6.74-.812-4.485-.117-.615c-.028-.117.03-.205.146-.235.9-.205 1.77-.351 2.612-.41zm-33.003 0c.784-.03.87.059.958.791.203 1.202.348 2.374.465 3.576l.377 3.517.232 2.374.203 1.904c0 .264-.029.323-.261.352l-2.148.205c-.232.03-.29 0-.32-.234l-1.77-9.203-.464-2.608c-.03-.146.028-.234.174-.264.9-.205 1.741-.351 2.554-.41zm11.088 9.085v3.751c.03.176-.058.264-.232.235h-.697c-.493 0-.986.03-1.48.059-.261.03-.29.03-.32-.294l-.464-5.275-.232-2.608-.348-3.986c-.03-.322.029-.38.29-.41.813-.088 1.625-.088 2.438-.059l.61.088c.232.088.26.118.26.352l.088 1.582.03 1.759c.028 1.612.057 3.194.057 4.806zM65 24.45v3.605c0 .146-.058.234-.203.205h-1.045c-.406 0-.813.03-1.19.059-.232.03-.261 0-.29-.264l-.61-6.858-.32-3.4-.115-1.729c-.03-.234.029-.293.261-.293.958-.117 1.945-.146 2.902-.03.378.03.436.148.465.528l.087 3.898L65 24.45zM53.128 8.946c.29 0 .552.029.755.058.145.03.203.088.232.235l.377 4.073c.088.352.03.41-.319.41l-.987.06c-.203.029-.29.058-.29-.264l-.406-3.312-.116-.938c-.03-.176.029-.264.203-.293l.551-.03zm-32.887 0c.233 0 .465.029.668.058.116.03.174.088.203.235l.116 1.026.29 3.194c.03.234.03.264-.203.264l-1.132.058c-.232.03-.26 0-.29-.234l-.261-2.345L19.4 9.24c-.03-.147.029-.235.174-.235a4.76 4.76 0 01.667-.058zm11.582 2.93V13.9c.03.322-.03.322-.29.322-.378 0-.726-.03-1.074-.059-.232-.03-.262-.03-.232-.264l-.087-2.49c0-.557 0-1.114-.03-1.671-.029-.264 0-.293.262-.293.406 0 .812.03 1.219.088.232 0 .232.059.232.293v2.051zm32.974.03v2.022c0 .264-.03.293-.29.293l-1.103-.059c-.175-.03-.262-.117-.233-.264l-.087-4.19c0-.235.03-.264.262-.264.377 0 .725.03 1.074.059.435.029.377.117.377.439v1.963zm-45.455 1.582c.029.352 0 .41-.349.44l-.696.176c-.233.088-.262.029-.29-.176l-.726-4.133c-.087-.263-.03-.322.232-.351l1.016-.176c.232-.03.29-.03.29.205.087.498.174.996.232 1.495l.29 2.344v.176zm30.884-4.015c.435-.088.9-.146 1.364-.205.145-.03.203.059.232.205l.232 1.612c.116.791.203 1.582.233 2.374v.234c.029.118-.03.206-.146.235l-.929.205c-.145.03-.203-.03-.232-.176l-.754-4.366v-.118zm-20.61 3.165c0 .47-.028.909-.057 1.32 0 .146-.058.204-.203.234l-.9.088c-.145.029-.203-.06-.203-.206a19.29 19.29 0 01-.116-1.29 64.296 64.296 0 01-.146-2.432l-.058-.586c-.029-.117.03-.175.145-.175l1.19-.088c.204 0 .262.029.262.263l.087 2.872zm32.917-.469a16.62 16.62 0 010 1.7c.029.264-.03.323-.29.323l-.813.088c-.145.029-.232-.06-.232-.206a57.633 57.633 0 00-.145-2.227l-.117-2.051c-.029-.147.03-.205.145-.205l1.162-.088c.203 0 .232.029.232.263.058.791.087 1.612.058 2.403zm-44.324 9.994c.465.557.552 1.172.349 1.846a3.707 3.707 0 01-.958 1.671 9.8 9.8 0 01-2.583 1.934c-1.655.88-3.367 1.495-5.196 1.817a29.94 29.94 0 01-3.919.528c-.406.03-.812.03-1.219.03h-.87c-.233 0-.29-.06-.32-.294l-.203-2.843-.552-5.597-.609-5.334-.348-2.843-.378-2.726C1.2 8.858.94 7.363.678 5.868.474 4.667.27 3.465.01 2.264c-.029-.147 0-.264.145-.293L4.19.27a3.83 3.83 0 01.754-.264c.175-.03.262.03.233.205 0 .469 0 .938-.03 1.436l-.028.381c-.03 1.7-.03 3.4 0 5.129.029 1.495.116 3.019.203 4.513.145 2.345.377 4.69.61 7.005 0 .234.028.234.29.205a8.083 8.083 0 011.451-.117c1.538 0 3.077.175 4.557.556 1.306.323 2.555.762 3.803 1.32a9.02 9.02 0 011.683 1.054c.203.147.348.293.493.47zm32.713-.264c.61.498.813 1.172.639 1.964a3.797 3.797 0 01-.871 1.7c-.697.791-1.51 1.407-2.41 1.905a17.875 17.875 0 01-5.572 1.993c-1.074.205-2.148.38-3.222.469a14.24 14.24 0 01-1.945.058h-.784c-.174.03-.26-.058-.26-.234-.059-.82-.117-1.642-.204-2.462l-.465-5.012-.493-4.366-.61-4.924c-.086-.85-.203-1.73-.348-2.579l-.522-3.283a87.266 87.266 0 00-.842-4.66l-.03-.204c-.057-.147 0-.264.146-.293C34.551 1.384 35.945.74 37.367.183c.377-.147.842-.322.813.03-.116 1.084-.087 2.168-.116 3.223-.03.879-.03 1.758.029 2.608v.674c0 1.055.029 2.11.116 3.136.058 1.378.145 2.784.26 4.162l.262 2.96c.03.556.087 1.084.174 1.641 0 .322.058.293.32.264a9.413 9.413 0 011.567-.117c1.829.029 3.6.322 5.34.82 1.19.323 2.323.762 3.426 1.348.493.264.929.587 1.364.967zM8.95 27.058c.436-.264 1.19-.792 2.235-1.612 1.045-.85 1.684-1.407 1.945-1.7a50.939 50.939 0 00-4.876-1.876l.696 5.188zm37.067-3.166c.087-.088.058-.146-.03-.205l-.696-.293a43.23 43.23 0 00-3.686-1.407l-.174-.058c-.058-.03-.116 0-.203.03l.696 5.07c.087 0 .145-.03.174-.06a86.896 86.896 0 003.396-2.579l.523-.498z" fill="#fff"/></g><defs><clipPath id="clip0"><path fill="#fff" d="M0 0h65v30H0z"/></clipPath></defs></svg>