<svg width="47" height="48" fill="none" xmlns="http://www.w3.org/2000/svg"><g clip-path="url(#clip0)" fill="#613654"><path d="M41.022 30.31V9.74a3.663 3.663 0 00-3.659-3.659H35.9V4.618c0-1.21-.985-2.195-2.196-2.195-1.21 0-2.195.985-2.195 2.195v1.464h-3.66V4.618c0-1.21-.984-2.195-2.195-2.195-1.21 0-2.195.985-2.195 2.195v1.464h-4.391V4.618c0-1.21-.985-2.195-2.196-2.195-1.21 0-2.195.985-2.195 2.195v1.464h-3.66V4.618c0-1.21-.984-2.195-2.195-2.195-1.21 0-2.195.985-2.195 2.195v1.464H5.163a3.663 3.663 0 00-3.66 3.66v29.272a3.663 3.663 0 003.66 3.66H29.77c1.52 2.62 4.351 4.39 7.593 4.39 4.843 0 8.782-3.94 8.782-8.782 0-3.535-2.104-6.582-5.123-7.973zm-8.05-25.692a.732.732 0 011.464 0V9.01a.732.732 0 01-1.464 0V4.62zm-8.05 0a.732.732 0 011.464 0V9.01a.732.732 0 01-1.464 0V4.62zm-8.782 0a.732.732 0 011.464 0V9.01a.732.732 0 01-1.464 0V4.62zm-8.05 0a.732.732 0 011.464 0V9.01a.732.732 0 01-1.464 0V4.62zM5.163 7.546h1.464v1.463c0 1.21.984 2.196 2.195 2.196 1.21 0 2.196-.985 2.196-2.196V7.546h3.659v1.463c0 1.21.985 2.196 2.195 2.196s2.196-.985 2.196-2.196V7.546h4.39v1.463c0 1.21.985 2.196 2.196 2.196 1.21 0 2.196-.985 2.196-2.196V7.546h3.659v1.463c0 1.21.984 2.196 2.195 2.196 1.21 0 2.196-.985 2.196-2.196V7.546h1.463c1.21 0 2.196.984 2.196 2.195v3.66H2.968V9.74c0-1.21.984-2.195 2.195-2.195zm0 33.663a2.198 2.198 0 01-2.195-2.195v-24.15h36.59v14.925a8.74 8.74 0 00-2.195-.289c-.5 0-.986.052-1.463.133V25.84a.731.731 0 00-.732-.732h-4.391a.731.731 0 00-.732.732v4.391c0 .405.327.732.732.732h1.742a8.778 8.778 0 00-3.938 7.318c0 1.028.187 2.01.513 2.928H5.163zM34.436 29.5h-2.927v-2.927h2.927V29.5zm2.927 16.1c-4.035 0-7.318-3.283-7.318-7.318s3.283-7.318 7.318-7.318 7.319 3.283 7.319 7.318-3.284 7.319-7.319 7.319z"/><path d="M38.096 37.022v-4.594h-1.463v4.594c-.436.253-.732.72-.732 1.26 0 .074.011.146.022.217l-2.675 2.139.915 1.143 2.672-2.137a1.457 1.457 0 001.261-2.622zM11.02 17.06H6.627a.731.731 0 00-.732.731v4.391c0 .405.328.732.732.732h4.391a.731.731 0 00.732-.732v-4.39a.731.731 0 00-.732-.733zm-.733 4.39H7.36v-2.927h2.927v2.927zm8.781-4.39h-4.39a.731.731 0 00-.733.731v4.391c0 .405.328.732.732.732h4.391a.731.731 0 00.732-.732v-4.39a.731.731 0 00-.732-.733zm-.732 4.39H15.41v-2.927h2.927v2.927zm8.783-4.39h-4.391a.731.731 0 00-.732.731v4.391c0 .405.327.732.732.732h4.39a.731.731 0 00.733-.732v-4.39a.731.731 0 00-.732-.733zm-.732 4.39H23.46v-2.927h2.927v2.927zm4.39 1.464h4.39a.731.731 0 00.733-.732v-4.39a.731.731 0 00-.732-.733h-4.391a.731.731 0 00-.732.732v4.391c0 .405.327.732.732.732zm.732-4.391h2.927v2.927h-2.927v-2.927zM11.02 25.11H6.627a.731.731 0 00-.732.731v4.391c0 .405.328.732.732.732h4.391a.731.731 0 00.732-.732v-4.39a.731.731 0 00-.732-.733zm-.733 4.39H7.36v-2.927h2.927V29.5zm8.781-4.39h-4.39a.731.731 0 00-.733.731v4.391c0 .405.328.732.732.732h4.391a.731.731 0 00.732-.732v-4.39a.731.731 0 00-.732-.733zm-.732 4.39H15.41v-2.927h2.927V29.5zm8.783-4.39h-4.391a.731.731 0 00-.732.731v4.391c0 .405.327.732.732.732h4.39a.731.731 0 00.733-.732v-4.39a.731.731 0 00-.732-.733zm-.732 4.39H23.46v-2.927h2.927V29.5zM11.02 33.16H6.627a.731.731 0 00-.732.731v4.391c0 .405.328.732.732.732h4.391a.731.731 0 00.732-.732v-4.39a.731.731 0 00-.732-.733zm-.733 4.39H7.36v-2.927h2.927v2.927zm8.781-4.39h-4.39a.731.731 0 00-.733.731v4.391c0 .405.328.732.732.732h4.391a.731.731 0 00.732-.732v-4.39a.731.731 0 00-.732-.733zm-.732 4.39H15.41v-2.927h2.927v2.927zm8.783-4.39h-4.391a.731.731 0 00-.732.731v4.391c0 .405.327.732.732.732h4.39a.731.731 0 00.733-.732v-4.39a.731.731 0 00-.732-.733zm-.732 4.39H23.46v-2.927h2.927v2.927z"/></g><defs><clipPath id="clip0"><path fill="#fff" transform="translate(.041 .96)" d="M0 0h46.837v46.837H0z"/></clipPath></defs></svg>