<svg width="35" height="35" fill="none" xmlns="http://www.w3.org/2000/svg"><path d="M8.169 24.502a5.249 5.249 0 100-10.497 5.249 5.249 0 000 10.497zm1.75-1.566a4.03 4.03 0 01-3.5 0v-.521a1.61 1.61 0 011.75-1.412 1.91 1.91 0 011.27.453c.296.231.472.583.48.959v.521zM7.001 18.67a1.166 1.166 0 112.333 0 1.166 1.166 0 01-2.333 0zm-2.605-.979a4.08 4.08 0 013.772-2.52 4.08 4.08 0 012.884 6.969 2.43 2.43 0 00-.856-1.57 2.82 2.82 0 00-.368-.265 2.333 2.333 0 10-3.323-.003 2.533 2.533 0 00-1.222 1.838 4.08 4.08 0 01-.887-4.449z" fill="#613654"/><path d="M15.167 11.672h-3.321a6.415 6.415 0 10-7.354 0H1.17c-.644 0-1.165.522-1.166 1.166v20.996c0 .643.522 1.165 1.166 1.166h13.997c.644 0 1.166-.523 1.167-1.166V12.838a1.169 1.169 0 00-1.167-1.166zM2.92 6.423a5.249 5.249 0 115.249 5.249 5.255 5.255 0 01-5.25-5.249zm-1.75 27.41V12.84h13.997v20.995H1.17z" fill="#613654"/><path d="M7.003 25.669a.583.583 0 100 1.166h2.333a.583.583 0 100-1.166H7.003zM2.92 29.168h5.83a.583.583 0 100-1.166H2.92a.583.583 0 100 1.166zm10.498-1.166h-2.333a.583.583 0 100 1.166h2.333a.583.583 0 100-1.166zm-.001 2.332H7.585a.583.583 0 100 1.167h5.832a.583.583 0 100-1.167zm-8.165 0H2.919a.583.583 0 100 1.167h2.333a.583.583 0 100-1.167zm21.578-5.832a5.249 5.249 0 100-10.497 5.249 5.249 0 000 10.497zm1.75-1.566a4.03 4.03 0 01-3.499 0v-.521a1.61 1.61 0 011.75-1.412 1.91 1.91 0 011.27.453c.296.231.472.583.48.959v.521zm-2.916-4.266a1.166 1.166 0 112.333 0 1.166 1.166 0 01-2.333 0zm-2.605-.979a4.08 4.08 0 013.772-2.52 4.08 4.08 0 012.884 6.969 2.43 2.43 0 00-.855-1.57 2.815 2.815 0 00-.369-.265 2.333 2.333 0 10-3.323-.003 2.533 2.533 0 00-1.222 1.838 4.08 4.08 0 01-.887-4.449z" fill="#613654"/><path d="M33.83 11.672h-3.322a6.415 6.415 0 10-7.354 0h-3.322c-.643 0-1.165.522-1.166 1.166v20.996c0 .643.523 1.165 1.166 1.166H33.83c.644 0 1.166-.523 1.167-1.166V12.838a1.169 1.169 0 00-1.167-1.166zM21.581 6.423a5.249 5.249 0 1110.497 0 5.249 5.249 0 01-10.497 0zm-1.75 27.41V12.84H33.83v20.995H19.833z" fill="#613654"/><path d="M25.665 25.669a.583.583 0 100 1.166h2.333a.583.583 0 100-1.166h-2.333zm-4.082 3.499h5.832a.583.583 0 100-1.166h-5.832a.583.583 0 100 1.166zm10.497-1.166h-2.333a.583.583 0 100 1.166h2.333a.583.583 0 100-1.166zm0 2.332h-5.833a.583.583 0 100 1.167h5.832a.583.583 0 100-1.167zm-8.164 0h-2.333a.583.583 0 100 1.167h2.333a.583.583 0 100-1.167zM10.85 3.624a.583.583 0 00-.816.116L6.938 7.869l-.69-.69a.583.583 0 00-.825.824l1.166 1.166a.582.582 0 00.88-.062l3.498-4.666a.583.583 0 00-.116-.816zm17.903 5.544a.583.583 0 10.825-.824l-1.92-1.92 1.92-1.921a.583.583 0 10-.825-.825l-1.92 1.92-1.92-1.92a.583.583 0 00-.826.825l1.92 1.92-1.92 1.92a.583.583 0 10.825.825l1.92-1.92 1.921 1.92z" fill="#613654"/></svg>