<svg width="69" height="69" fill="none" xmlns="http://www.w3.org/2000/svg"><g clip-path="url(#clip0)" fill="#fff"><path d="M34.486 45.595c1.904 0 3.448-.617 3.448-1.38 0-.761-1.544-1.379-3.448-1.379-1.905 0-3.449.618-3.449 1.38 0 .762 1.544 1.38 3.449 1.38zm-10.998-4.057c.828.26 1.57.388 2.209.388 1.81 0 2.328-1.037 2.467-1.484.225-.722.022-1.467-.574-2.098-.555-.593-1.45-1.08-2.654-1.458-.693-.213-1.521-.322-2.458-.322-1.797 0-3.408.398-3.476.414a.688.688 0 00-.349 1.124c.094.107 2.377 2.674 4.835 3.436zm19.787.289c.639 0 1.38-.131 2.21-.385 2.456-.767 4.742-3.33 4.839-3.438a.706.706 0 00.143-.66.69.69 0 00-.491-.464 15.951 15.951 0 00-3.476-.414c-.938 0-1.764.11-2.458.325-1.206.373-2.098.864-2.654 1.455-.596.631-.799 1.376-.574 2.098.134.444.651 1.483 2.46 1.483z"/><path d="M67.383 27.424l-30.78-23.94a3.448 3.448 0 00-4.234 0L1.332 27.624a3.448 3.448 0 002.117 6.17h4.332a9.223 9.223 0 00-2.952 6.802c0 4.096 2.6 7.562 6.156 8.678 2.592 4.962 6.693 8.9 11.615 11.353v2.857a2.76 2.76 0 005.518 0v-.834a26.87 26.87 0 006.411.79c2.169 0 4.283-.274 6.323-.772v.814a2.76 2.76 0 005.518 0v-2.815c4.972-2.458 9.11-6.424 11.718-11.429 3.504-1.149 6.056-4.589 6.056-8.645a9.217 9.217 0 00-2.955-6.801h4.364A3.448 3.448 0 0069 30.343a3.45 3.45 0 00-1.618-2.919zm-11.86 9.634l.008-.001c1.717 0 3.093 1.582 3.093 3.535s-1.376 3.534-3.093 3.534c-.4 0-.777-.09-1.126-.25-1.473 4.274-4.33 7.91-8.032 10.416v-4.69a2.76 2.76 0 00-2.759-2.758h-4.337a2.76 2.76 0 000 5.517h1.578v4.592a21.196 21.196 0 01-12.735-.024V52.36h1.577a2.76 2.76 0 000-5.518h-4.335a2.76 2.76 0 00-2.76 2.76v4.631c-3.67-2.509-6.496-6.134-7.954-10.387-.371.18-.778.277-1.206.277-1.717 0-3.094-1.58-3.094-3.534 0-1.953 1.377-3.535 3.094-3.535.032 0 .062.01.095.01.007-.944.087-2.083.22-3.275h41.549c.13 1.192.208 2.33.217 3.269z"/></g><defs><clipPath id="clip0"><path fill="#fff" d="M0 0h69v69H0z"/></clipPath></defs></svg>