<svg width="69" height="69" fill="none" xmlns="http://www.w3.org/2000/svg"><g clip-path="url(#clip0)"><path fill-rule="evenodd" clip-rule="evenodd" d="M36.602 3.484l30.78 23.94a3.45 3.45 0 011.619 2.92 3.448 3.448 0 01-3.449 3.448H61.19a9.217 9.217 0 012.955 6.802c0 4.055-2.552 7.495-6.056 8.644-2.608 5.005-6.746 8.97-11.718 11.429v2.815a2.76 2.76 0 01-5.518 0v-.813c-2.04.498-4.154.77-6.323.77a26.92 26.92 0 01-6.411-.788v.833a2.76 2.76 0 01-5.518 0v-2.857c-4.922-2.453-9.023-6.39-11.615-11.353-3.556-1.116-6.156-4.582-6.156-8.678a9.222 9.222 0 012.952-6.801H3.449a3.447 3.447 0 01-2.117-6.17l31.037-24.14a3.448 3.448 0 014.233 0zm18.925 33.573l-.005.001a34.16 34.16 0 00-.216-3.27H13.758a32.58 32.58 0 00-.22 3.277c-.016 0-.031-.003-.046-.005a.302.302 0 00-.05-.006c-1.717 0-3.094 1.582-3.094 3.535 0 1.954 1.377 3.535 3.094 3.535.428 0 .835-.097 1.206-.278 1.458 4.253 4.284 7.878 7.955 10.387v-4.632a2.76 2.76 0 012.758-2.759h4.336a2.76 2.76 0 010 5.518H28.12v4.569a21.192 21.192 0 0012.735.024v-4.592h-1.578a2.76 2.76 0 010-5.517h4.337a2.76 2.76 0 012.759 2.759v4.69c3.702-2.507 6.559-6.143 8.032-10.418a2.66 2.66 0 001.126.251c1.717 0 3.093-1.58 3.093-3.534 0-1.953-1.376-3.535-3.093-3.535h-.004zm-12.25 4.77c.638 0 1.38-.131 2.21-.385 2.44-.762 4.71-3.294 4.836-3.435l.003-.002a.706.706 0 00.143-.661.69.69 0 00-.491-.464 15.942 15.942 0 00-3.476-.414c-.938 0-1.764.11-2.458.325-1.206.373-2.098.865-2.654 1.455-.596.632-.799 1.377-.574 2.098.134.444.651 1.483 2.46 1.483zm-17.58.1c-.64 0-1.381-.13-2.209-.389-2.458-.762-4.741-3.33-4.835-3.436a.688.688 0 01.349-1.124h.001c.084-.02 1.688-.414 3.475-.414.937 0 1.765.11 2.458.322 1.205.378 2.099.865 2.654 1.458.596.632.8 1.376.574 2.098-.14.447-.656 1.484-2.468 1.484zm12.24 2.289c0 .762-1.545 1.38-3.45 1.38-1.904 0-3.448-.618-3.448-1.38 0-.762 1.544-1.38 3.449-1.38 1.904 0 3.448.618 3.448 1.38z" fill="url(#paint0_linear)"/></g><defs><linearGradient id="paint0_linear" x1="9.884" y1="14.739" x2="8.306" y2="58.578" gradientUnits="userSpaceOnUse"><stop stop-color="#5F2797"/><stop offset="1" stop-color="#2F2A70"/></linearGradient><clipPath id="clip0"><path fill="#fff" d="M0 0h69v69H0z"/></clipPath></defs></svg>