<svg width="52" height="48" fill="none" xmlns="http://www.w3.org/2000/svg"><path d="M25.99 32.362c1.435 0 2.598-.466 2.598-1.04 0-.574-1.163-1.04-2.599-1.04-1.435 0-2.598.466-2.598 1.04 0 .574 1.163 1.04 2.599 1.04z" fill="url(#paint0_linear)"/><path d="M17.7 29.305c.623.195 1.183.292 1.664.292 1.365 0 1.755-.782 1.86-1.119.17-.544.016-1.105-.433-1.581-.419-.447-1.092-.814-2-1.099-.523-.16-1.146-.242-1.852-.242-1.355 0-2.57.3-2.62.312a.519.519 0 00-.263.847c.07.08 1.791 2.015 3.644 2.59z" fill="url(#paint1_linear)"/><path d="M32.613 29.522c.482 0 1.04-.1 1.666-.29 1.851-.578 3.574-2.51 3.646-2.591a.532.532 0 00.109-.498.52.52 0 00-.37-.35 12.02 12.02 0 00-2.62-.311c-.707 0-1.33.082-1.853.244-.908.282-1.58.652-2 1.097-.449.476-.602 1.037-.432 1.581.1.335.49 1.118 1.854 1.118z" fill="url(#paint2_linear)"/><path d="M50.781 18.668L27.584.626a2.598 2.598 0 00-3.19 0L1.004 18.818a2.598 2.598 0 001.596 4.65c1.16 0 1.87 1.602 1.47 2.69a7.051 7.051 0 00-.43 2.436c0 1.56.5 3 1.341 4.15 1.566 2.14 3.895 3.791 5.588 5.832a19.908 19.908 0 004.59 4.053c1.112.71 1.873 1.895 1.873 3.214a2.08 2.08 0 004.158 0c0-.32.3-.555.612-.488a20.13 20.13 0 004.22.455 19.95 19.95 0 004.167-.445.492.492 0 01.598.477 2.08 2.08 0 004.159 0c0-1.3.75-2.465 1.849-3.16a19.935 19.935 0 004.74-4.184c1.657-2.017 3.93-3.656 5.47-5.765a7.012 7.012 0 001.335-4.14c0-.859-.152-1.68-.43-2.436-.4-1.088.31-2.69 1.47-2.69h.022a2.598 2.598 0 001.38-4.8zm-8.938 7.254c0 .003.003.005.006.005 1.295 0 2.331 1.192 2.331 2.664 0 1.472-1.036 2.664-2.33 2.664-.47 0-.98.196-1.158.63a15.558 15.558 0 01-3.06 4.744c-1.03 1.096-2.684.257-2.684-1.247a2.08 2.08 0 00-2.08-2.08H29.6a2.08 2.08 0 000 4.159c.657 0 1.19.532 1.19 1.189v.805c0 .872-.566 1.656-1.419 1.84a15.913 15.913 0 01-6.773-.016c-.847-.186-1.406-.965-1.406-1.832v-.799c0-.656.532-1.188 1.188-1.188a2.08 2.08 0 000-4.159h-3.267a2.08 2.08 0 00-2.08 2.08c0 1.48-1.632 2.304-2.643 1.222a15.55 15.55 0 01-3.02-4.68c-.19-.461-.74-.67-1.24-.67-1.294 0-2.332-1.192-2.332-2.664 0-1.472 1.038-2.664 2.332-2.664.04 0 .072-.025.073-.064.004-.383.024-.807.058-1.255a1.246 1.246 0 011.255-1.142h28.99a1.27 1.27 0 011.28 1.169c.034.463.053.898.057 1.289z" fill="url(#paint3_linear)"/><defs><linearGradient id="paint0_linear" x1="24.135" y1="30.675" x2="24.113" y2="32.112" gradientUnits="userSpaceOnUse"><stop stop-color="#5F2797"/><stop offset="1" stop-color="#2F2A70"/></linearGradient><linearGradient id="paint1_linear" x1="14.981" y1="26.318" x2="14.921" y2="29.111" gradientUnits="userSpaceOnUse"><stop stop-color="#5F2797"/><stop offset="1" stop-color="#2F2A70"/></linearGradient><linearGradient id="paint2_linear" x1="31.746" y1="26.244" x2="31.686" y2="29.036" gradientUnits="userSpaceOnUse"><stop stop-color="#5F2797"/><stop offset="1" stop-color="#2F2A70"/></linearGradient><linearGradient id="paint3_linear" x1="7.449" y1="9.108" x2="6.26" y2="42.146" gradientUnits="userSpaceOnUse"><stop stop-color="#5F2797"/><stop offset="1" stop-color="#2F2A70"/></linearGradient></defs></svg>