<svg width="46" height="47" fill="none" xmlns="http://www.w3.org/2000/svg"><path d="M38.755 7.745a22.282 22.282 0 10-31.51 31.51 22.282 22.282 0 1031.51-31.51zm-1.016 30.494A20.844 20.844 0 118.26 8.76a20.844 20.844 0 0129.48 29.479z" fill="#613654"/><path d="M23 5.531c-9.908 0-17.969 8.061-17.969 17.969 0 9.908 8.061 17.969 17.969 17.969 9.908 0 17.969-8.061 17.969-17.969 0-9.908-8.061-17.969-17.969-17.969zm0 34.5c-9.116 0-16.531-7.416-16.531-16.531 0-9.116 7.415-16.531 16.531-16.531 9.115 0 16.531 7.415 16.531 16.531 0 9.115-7.416 16.531-16.531 16.531z" fill="#613654"/><path d="M29.468 22.781h-3.684a2.886 2.886 0 00-2.072-2.066.748.748 0 00.006-.09v-7.906a.719.719 0 10-1.437 0v7.906c0 .03.002.06.006.09a2.875 2.875 0 103.497 3.504h3.684a.719.719 0 100-1.438zM23 24.938a1.437 1.437 0 110-2.875 1.437 1.437 0 010 2.875zm0-15.094a.719.719 0 00.719-.719v-.719a.719.719 0 00-1.438 0v.719a.719.719 0 00.719.719zm0 27.312a.719.719 0 00-.719.719v.719a.719.719 0 001.438 0v-.719a.719.719 0 00-.719-.719zm15.094-14.375h-.719a.719.719 0 000 1.438h.719a.719.719 0 000-1.438zm-29.469 0h-.719a.719.719 0 000 1.438h.719a.719.719 0 000-1.438zm24.539-10.463l-.508.509a.719.719 0 101.016 1.016l.509-.508a.719.719 0 10-1.017-1.017zM12.328 33.156l-.508.508a.717.717 0 00.506 1.233.718.718 0 00.51-.216l.508-.509a.718.718 0 10-1.016-1.016zm21.344 0a.719.719 0 10-1.017 1.016l.508.509a.72.72 0 001.233-.507.719.719 0 00-.216-.51l-.508-.508zM12.836 12.318a.72.72 0 00-1.016 1.017l.508.508a.72.72 0 001.017-1.016l-.509-.509z" fill="#613654"/></svg>