<svg width="40" height="45" fill="none" xmlns="http://www.w3.org/2000/svg"><path fill-rule="evenodd" clip-rule="evenodd" d="M29.265 16.082a17.227 17.227 0 0010.048 3.214V12.09c-.709 0-1.416-.074-2.11-.221v5.673a17.23 17.23 0 01-10.048-3.214v14.707c0 7.357-5.967 13.32-13.327 13.32-2.747 0-5.3-.83-7.42-2.253a13.29 13.29 0 009.53 4.008c7.36 0 13.328-5.964 13.328-13.321V16.082zm2.604-7.27a10.043 10.043 0 01-2.604-5.88v-.928h-2a10.09 10.09 0 004.604 6.808zM11.064 34.457a6.095 6.095 0 016.702-9.496v-7.368a13.454 13.454 0 00-2.11-.122v5.735a6.11 6.11 0 00-1.85-.285 6.095 6.095 0 00-2.742 11.536z" fill="#EE1D52"/><path fill-rule="evenodd" clip-rule="evenodd" d="M27.157 14.328a17.23 17.23 0 0010.048 3.214v-5.673a10.087 10.087 0 01-5.335-3.057 10.09 10.09 0 01-4.603-6.808h-5.252V30.79a6.096 6.096 0 01-10.95 3.668 6.092 6.092 0 012.743-11.536c.645 0 1.267.1 1.85.285v-5.735c-7.231.15-13.047 6.055-13.047 13.318 0 3.625 1.449 6.912 3.799 9.314a13.27 13.27 0 007.42 2.253c7.36 0 13.327-5.964 13.327-13.321V14.328z" fill="#fff"/><path fill-rule="evenodd" clip-rule="evenodd" d="M37.204 11.869v-1.534a10.05 10.05 0 01-5.335-1.523 10.078 10.078 0 005.335 3.057zm-9.938-9.865c-.048-.274-.085-.55-.11-.827V.25h-7.253v28.785a6.095 6.095 0 01-8.84 5.422 6.096 6.096 0 0010.95-3.668V2.004h5.253zm-11.61 15.467v-1.633a13.443 13.443 0 00-1.828-.124C6.467 15.714.5 21.678.5 29.034c0 4.613 2.345 8.677 5.909 11.068A13.272 13.272 0 012.61 30.79c0-7.263 5.816-13.168 13.047-13.318z" fill="#69C9D0"/></svg>