<svg width="52" height="59" fill="none" xmlns="http://www.w3.org/2000/svg"><path fill-rule="evenodd" clip-rule="evenodd" d="M38.355 21.11a22.97 22.97 0 0013.398 4.285v-9.609c-.946 0-1.889-.098-2.814-.294v7.564c-4.995 0-9.62-1.588-13.398-4.286v19.61c0 9.809-7.955 17.76-17.77 17.76a17.692 17.692 0 01-9.892-3.004 17.72 17.72 0 0012.705 5.344c9.815 0 17.771-7.952 17.771-17.761V21.11zm3.47-9.694a13.39 13.39 0 01-3.47-7.841V2.34H35.69a13.453 13.453 0 006.137 9.077zM14.087 45.609a8.126 8.126 0 016.47-13.043c.837 0 1.67.128 2.467.381v-9.823a17.933 17.933 0 00-2.813-.162v7.646a8.148 8.148 0 00-2.467-.38 8.126 8.126 0 00-8.128 8.124 8.123 8.123 0 004.471 7.257z" fill="#EE1D52"/><path fill-rule="evenodd" clip-rule="evenodd" d="M35.54 18.77a22.972 22.972 0 0013.398 4.286v-7.564a13.448 13.448 0 01-7.114-4.076 13.453 13.453 0 01-6.137-9.077h-7.003v38.38a8.128 8.128 0 01-8.13 8.096 8.118 8.118 0 01-6.47-3.206 8.123 8.123 0 01-4.471-7.257 8.126 8.126 0 018.128-8.125c.86 0 1.69.134 2.467.381v-7.646c-9.641.199-17.395 8.073-17.395 17.757 0 4.834 1.93 9.216 5.064 12.418a17.693 17.693 0 009.893 3.004c9.814 0 17.77-7.952 17.77-17.761V18.77z" fill="#1D1D1D"/><path fill-rule="evenodd" clip-rule="evenodd" d="M48.938 15.492v-2.045a13.4 13.4 0 01-7.113-2.031 13.438 13.438 0 007.113 4.076zM35.688 2.339a13.652 13.652 0 01-.147-1.103V0h-9.67v38.38a8.127 8.127 0 01-8.129 8.096 8.095 8.095 0 01-3.657-.867 8.118 8.118 0 006.47 3.206 8.128 8.128 0 008.13-8.097V2.34h7.003zM20.209 22.962v-2.178a17.93 17.93 0 00-2.438-.165C7.956 20.62 0 28.571 0 38.38c0 6.15 3.127 11.57 7.878 14.757a17.696 17.696 0 01-5.064-12.418c0-9.683 7.754-17.557 17.395-17.756z" fill="#69C9D0"/></svg>