<svg width="19" height="14" fill="none" xmlns="http://www.w3.org/2000/svg"><path fill-rule="evenodd" clip-rule="evenodd" d="M8.872 8.228C7.577 7.061 3.169 3.318.657 1.191A.381.381 0 01.603.665C.896.292 1.333.078 1.8.078h15.252c.468 0 .904.214 1.197.587a.381.381 0 01-.054.526c-2.512 2.128-6.92 5.87-8.216 7.039-.174.156-.36.236-.553.236-.194 0-.38-.08-.554-.238zM17.95 2.4a.38.38 0 01.627.291v9.589c0 .841-.684 1.525-1.525 1.525H1.801A1.527 1.527 0 01.275 12.28V2.69a.382.382 0 01.628-.29C3.177 4.326 7.17 7.72 8.362 8.794c.63.567 1.5.567 2.128 0 1.119-1.007 4.674-4.034 7.46-6.396z" fill="#fff"/></svg>