<svg width="50" height="50" fill="none" xmlns="http://www.w3.org/2000/svg"><g clip-path="url(#clip0)" fill="#613654"><path d="M34.84 24.611a3.696 3.696 0 01-.267-.945 9.692 9.692 0 00-.696-2.462.732.732 0 10-1.344.581c.288.668.487 1.37.59 2.089.066.455.192.899.374 1.32l1.59 3.665a4.508 4.508 0 01-.574 4.606 4.498 4.498 0 01-3.573 1.777 6.536 6.536 0 00.632-2.81v-6.739c0-.817-.64-1.473-1.456-1.495l-4.143-.109a6.467 6.467 0 01-3.891-1.44l-.273-.223a1.213 1.213 0 00-.9-.267 1.212 1.212 0 00-.824.451 7.628 7.628 0 00-1.666 4.75v5.072c0 1.005.227 1.957.632 2.81a4.497 4.497 0 01-3.574-1.777 4.508 4.508 0 01-.574-4.606l1.59-3.665c.183-.421.308-.865.374-1.32a8.213 8.213 0 018.128-7.042c2.232 0 4.32.88 5.88 2.48a.732.732 0 101.049-1.022 9.604 9.604 0 00-6.929-2.923 9.677 9.677 0 00-9.578 8.298 3.696 3.696 0 01-.268.946l-1.59 3.665a5.954 5.954 0 00.758 6.083c1.165 1.51 2.89 2.35 4.742 2.35.294 0 .592-.022.891-.065a6.622 6.622 0 001.852 1.534v1.413l-3.744 1.502a6.848 6.848 0 00-4.318 6.385v1.79a.732.732 0 101.464 0v-1.79a5.39 5.39 0 013.4-5.026l3.37-1.352a3.1 3.1 0 002.923 2.082 3.1 3.1 0 002.925-2.082l3.37 1.352c.088.036.182.077.294.13a.729.729 0 00.974-.351.732.732 0 00-.35-.974 6.882 6.882 0 00-.373-.164l-3.744-1.502v-1.31a6.616 6.616 0 002.047-1.636c.3.043.597.065.89.065 1.854 0 3.579-.842 4.743-2.35a5.954 5.954 0 00.757-6.084l-1.59-3.665zm-8.312 15.475c0 .9-.731 1.631-1.63 1.631-.9 0-1.631-.731-1.631-1.63v-1.311a6.557 6.557 0 003.262.05v1.26zm-1.533-2.542a5.118 5.118 0 01-5.112-5.112V27.36a6.16 6.16 0 011.196-3.64l.079.065a7.94 7.94 0 004.776 1.768l4.143.11a.03.03 0 01.03.03v6.739a5.118 5.118 0 01-5.112 5.111zm8.773 5.786a.732.732 0 00-.174 1.02c.652.92.996 2.002.996 3.128v1.79a.732.732 0 101.465 0v-1.79c0-1.43-.438-2.805-1.266-3.974a.732.732 0 00-1.02-.175zM11.155 10.966c-1.632-1.114-3.672-1.323-5.598-.571a5.458 5.458 0 00-3.084 3.063c-.36.91-.509 1.84-.442 2.766a.732.732 0 101.461-.106 4.781 4.781 0 01.343-2.12 3.99 3.99 0 012.254-2.239c1.469-.573 3.014-.421 4.24.416a4.382 4.382 0 011.115 6.14l-.018.027-2.46 3.83a.733.733 0 00-.116.396v.333h-.257v-3.665a1.462 1.462 0 001.329-1.454v-1.201c0-.806-.656-1.46-1.46-1.46H7.26c-.805 0-1.46.654-1.46 1.46v1.201c0 .76.585 1.387 1.328 1.454V22.9h-.257v-.333c0-.14-.04-.278-.116-.396l-2.239-3.485a.732.732 0 10-1.232.791l2.123 3.305v.524c0 .21.062.405.167.57v.758c0 1.177.958 2.136 2.137 2.136h.3a2.139 2.139 0 002.136-2.137v-.758a1.05 1.05 0 00.167-.569v-.524l2.336-3.637a5.846 5.846 0 00-1.495-8.18zm-2.698 5.615l.005 1.197-.563.002-.039-.002-.045.002-.551.002-.004-1.197 1.197-.005zm.225 8.053c0 .37-.301.672-.672.672h-.3a.673.673 0 01-.671-.672v-.268h1.643v.268zm16.215-11.633c3.585 0 6.5-2.916 6.5-6.5A6.507 6.507 0 0024.897 0a6.508 6.508 0 00-6.5 6.5 6.508 6.508 0 006.5 6.501zm0-11.537a5.042 5.042 0 015.036 5.037 5.042 5.042 0 01-5.036 5.036A5.042 5.042 0 0119.861 6.5a5.042 5.042 0 015.036-5.037z"/><path d="M23.61 8.944a.73.73 0 001.035 0l3.42-3.421a.732.732 0 10-1.035-1.036L24.127 7.39l-.492-.492a.732.732 0 10-1.036 1.035l1.01 1.01zm24.318 5.62a1.136 1.136 0 00-.922-.778l-3.043-.442-1.361-2.758a1.135 1.135 0 00-1.025-.636c-.438 0-.83.244-1.024.636l-1.361 2.758-3.043.442a1.135 1.135 0 00-.922.778c-.136.416-.025.865.289 1.17l2.202 2.147-.52 3.031c-.074.432.1.86.455 1.117.354.258.815.291 1.203.087l2.721-1.43 2.722 1.43a1.142 1.142 0 001.658-1.204l-.52-3.03 2.202-2.147c.313-.306.424-.755.289-1.171zm-3.635 2.387a1.14 1.14 0 00-.328 1.01l.438 2.555-2.294-1.206a1.142 1.142 0 00-1.063 0l-2.294 1.206.438-2.554c.063-.371-.06-.75-.329-1.011l-1.856-1.81 2.565-.372c.372-.054.694-.288.86-.625l1.147-2.324 1.147 2.324c.166.337.488.57.86.625l2.565.373-1.856 1.809zM32.662 9.392c1.117.436 2.2.97 3.23 1.59a.732.732 0 00.522 1.363l1.387-.413a.732.732 0 00.523-.702v-1.5a.732.732 0 10-1.465 0v.126a22.794 22.794 0 00-3.665-1.828.732.732 0 10-.532 1.364zm-19.32 1.804a.734.734 0 00.383-.108c.684-.42 1.395-.803 2.123-1.144l-.038.142a.732.732 0 001.414.379l.448-1.674a.732.732 0 00-.472-.882l-1.342-.457a.732.732 0 00-.745 1.219c-.738.35-1.46.742-2.155 1.169a.732.732 0 00.384 1.356z"/></g><defs><clipPath id="clip0"><path fill="#fff" d="M0 0h50v50H0z"/></clipPath></defs></svg>