<svg width="22" height="22" fill="none" xmlns="http://www.w3.org/2000/svg"><path d="M18.065 21.623a66.462 66.462 0 01-14.13 0 4.006 4.006 0 01-3.558-3.558 66.448 66.448 0 010-14.13A4.006 4.006 0 013.935.377a66.448 66.448 0 0114.13 0 4.006 4.006 0 013.558 3.558 66.46 66.46 0 010 14.13 4.006 4.006 0 01-3.558 3.558z" fill="url(#paint0_linear)"/><path d="M20.426 4.73a3.555 3.555 0 00-3.157-3.157 58.988 58.988 0 00-12.539 0 3.555 3.555 0 00-3.158 3.158 58.985 58.985 0 000 12.538 3.555 3.555 0 003.158 3.158c4.175.445 8.363.445 12.538 0a3.555 3.555 0 003.158-3.158 58.968 58.968 0 000-12.538z" fill="url(#paint1_linear)"/><path d="M.33 17.609c.015.152.03.304.047.456a4.006 4.006 0 003.559 3.558c4.705.502 9.424.502 14.13 0a4.006 4.006 0 003.558-3.558l.047-.456H.33z" fill="url(#paint2_linear)"/><path d="M14.79 3.664a3.47 3.47 0 00-3.471 3.47v2.593H9.451v3.21l1.868 1.673v7.389c2.25-.01 4.499-.136 6.745-.376a4.006 4.006 0 003.558-3.558c.374-3.501.47-7.01.287-10.515l-3.886-3.886H14.79z" fill="url(#paint3_linear)"/><path d="M11.319 21.999a66.425 66.425 0 003.845-.13v-8.932h2.55l.309-3.21h-2.86V7.69c0-.45.366-.815.816-.815h2.044v-3.21H14.79a3.47 3.47 0 00-3.471 3.47v2.593H9.451v3.21h1.868V22z" fill="#fff"/><defs><linearGradient id="paint0_linear" x1="7.304" y1="3.093" x2="12.869" y2="14.998" gradientUnits="userSpaceOnUse"><stop stop-color="#3457A0"/><stop offset="1" stop-color="#3B5998"/></linearGradient><linearGradient id="paint1_linear" x1="15.173" y1="13.867" x2="-4.059" y2=".653" gradientUnits="userSpaceOnUse"><stop stop-color="#3457A0" stop-opacity="0"/><stop offset="1" stop-color="#1F3F77"/></linearGradient><linearGradient id="paint2_linear" x1="11" y1="18.385" x2="11" y2="21.362" gradientUnits="userSpaceOnUse"><stop stop-color="#3457A0" stop-opacity="0"/><stop offset="1" stop-color="#1F3F77"/></linearGradient><linearGradient id="paint3_linear" x1="25.255" y1="18.169" x2="9.985" y2="10.469" gradientUnits="userSpaceOnUse"><stop stop-color="#3457A0" stop-opacity="0"/><stop offset=".325" stop-color="#2A4C8D" stop-opacity=".325"/><stop offset=".705" stop-color="#22427D" stop-opacity=".706"/><stop offset="1" stop-color="#1F3F77"/></linearGradient></defs></svg>