<svg width="20" height="20" fill="none" xmlns="http://www.w3.org/2000/svg"><path d="M11.612 19.87zm.201-.034l-.12.02.12-.02zm-.675.099zm.192-.023zm.754-.13zm.676-.168l-.084.023.085-.023zm-.204.056l-.093.024a6.02 6.02 0 00.093-.024zm-.268.066l-.098.023.098-.023zm-1.446.228z" fill="#000"/><path d="M20 10c0-5.522-4.478-10-10-10S0 4.478 0 10s4.478 10 10 10l.176-.002v-7.785H8.027V9.71h2.149V7.867c0-2.137 1.304-3.3 3.21-3.3.913 0 1.698.068 1.927.098V6.9h-1.315c-1.037 0-1.238.493-1.238 1.216V9.71h2.48l-.323 2.504H12.76v7.4C16.94 18.416 20 14.566 20 10z" fill="#fff"/><path d="M10.661 19.977zm-.319.017z" fill="#000"/></svg>