<svg width="128" height="33" fill="none" xmlns="http://www.w3.org/2000/svg"><g clip-path="url(#clip0)"><path d="M30.544 32.374H3.867a3.654 3.654 0 01-1.815-.474 3.675 3.675 0 01-1.345-1.314 3.698 3.698 0 01-.086-3.643l8.912-16.845h8.014l-7.483 14.12a.584.584 0 000 .548.553.553 0 00.484.269h13.49a.479.479 0 00.484-.452.485.485 0 00-.045-.237L13.527.689H21.3l12.435 26.643a3.573 3.573 0 01-.213 3.396 3.49 3.49 0 01-2.979 1.646zM10.493 11.71L2.037 27.693a2.092 2.092 0 00.81 2.792c.31.177.663.27 1.02.27h26.69a1.905 1.905 0 001.628-.894A1.928 1.928 0 0032.292 28L20.295 2.284h-4.26l9.899 21.353a2.075 2.075 0 01-.134 2.01 2.085 2.085 0 01-1.762.969h-13.49A2.156 2.156 0 018.71 25.55a2.18 2.18 0 01-.048-2.13l6.211-11.71h-4.38z" fill="red"/><path d="M47.026 32.374H39.26L26.829 5.72a3.545 3.545 0 01.213-3.393A3.5 3.5 0 0130.005.69h26.687a3.653 3.653 0 011.81.475 3.675 3.675 0 011.343 1.31 3.698 3.698 0 01.093 3.636l-8.912 16.845H43.03l7.479-14.12a.58.58 0 000-.552.55.55 0 00-.48-.268H36.517a.482.482 0 00-.414.227.48.48 0 00-.028.468l10.951 23.664zm-6.759-1.619h4.247L34.615 9.403a2.105 2.105 0 01.89-2.742c.31-.17.659-.257 1.012-.255h13.491a2.155 2.155 0 011.861 1.08 2.182 2.182 0 01.017 2.158l-6.21 11.71h4.38l8.456-15.98a2.075 2.075 0 00-.803-2.798 2.048 2.048 0 00-1.027-.261H30.005a1.905 1.905 0 00-1.63.893 1.928 1.928 0 00-.108 1.862l12 25.685zm60.621-18.091a105.78 105.78 0 015.288 2.755l-1.323 2.18a96.237 96.237 0 00-4.836-2.803v3.237h-2.622v-3.444a15.309 15.309 0 01-4.216 3.134 20.653 20.653 0 00-1.697-2.366 13.35 13.35 0 005.125-2.886h-4.113V6.496h4.897V5.208h-5.597v-2.49h5.6V.93h2.623v1.788h5.662v2.49h-5.662v1.288h4.919v5.982h-4.919v1.598l.871-1.412zm-6.036 5.813c2.755.083 6.592.07 11.509-.041-.397 1.033-.73 1.898-.99 2.617-4.024 0-7.73-.034-11.12-.103-2.095 0-3.755-.671-4.98-2.015-.552.636-1.303 1.494-2.251 2.573l-1.159-3.1a91.334 91.334 0 011.944-1.7v-5.79h-1.84V8.163h4.424v8.572c.814 1.161 2.301 1.742 4.463 1.742zM88.713.91a68.753 68.753 0 012.502 4.07 93.912 93.912 0 00-2.543 1.35 59.125 59.125 0 00-2.252-4.194L88.713.91zm13.909 7.745h-2.605v1.677h2.605V8.655zm-7.811 1.677h2.584V8.655H94.81v1.677zm12.442 1.722h8.411V4.42h-7.51V1.664h18.269v2.755h-7.62v7.635h8.545v2.755h-8.534v6.43h-3.14v-6.457h-8.421v-2.728zm1.196-5.751l2.169-1.481a104.14 104.14 0 014.113 5.166l-2.498 1.66c-1.392-2.133-2.653-3.92-3.784-5.359v.014zm18.022.207a99.08 99.08 0 01-4.631 5.19l-2.108-1.722a47.185 47.185 0 004.302-5.156l2.437 1.688z" fill="#fff"/><path d="M69.955 15.367h6.324v-3.864h-5.087v-1.495h5.087V6.685h-5.703V5.19h3.77a43.056 43.056 0 00-2.18-2.72l1.24-.954a99.06 99.06 0 012.4 2.679l-1.303.995h3.668a28.594 28.594 0 002.509-3.674l1.631.995c-.758.957-1.52 1.85-2.282 2.68h4v1.494h-6.057v3.323h5.124v1.495h-5.124v3.864h6.406v1.509h-6.406v5.114H76.28v-5.114h-6.324v-1.509zm-2.501-1.994c.576.324 1.17.615 1.779.871a749.798 749.798 0 00-2.564 7.577l-1.84-.895a51.31 51.31 0 002.625-7.553zm-2.232-6.14a55.9 55.9 0 013.924 2.659l-1.155 1.515a42.292 42.292 0 00-3.77-2.824l1-1.35zm.99-5.386a49.24 49.24 0 013.866 2.845L68.94 6.125a49.132 49.132 0 00-3.77-3.052l1.042-1.226zm4.018 30.527h-.716l-.582-1.557H66.59l-.552 1.557h-.73l2.118-5.548h.668l2.136 5.548zm-1.494-2.132l-.884-2.345a2.836 2.836 0 01-.086-.372c-.02.126-.049.25-.089.372l-.857 2.362 1.916-.017zm2.057 1.915v-.768c.095.083.2.154.312.21.125.063.254.114.388.155a2.9 2.9 0 00.404.1c.124.022.25.034.377.034.313.024.625-.054.891-.22a.746.746 0 00.295-.64.756.756 0 00-.096-.393 1.188 1.188 0 00-.274-.304 2.62 2.62 0 00-.408-.261c-.158-.086-.343-.172-.51-.265-.169-.093-.374-.197-.539-.3a2.308 2.308 0 01-.435-.345 1.378 1.378 0 01-.291-.413 1.251 1.251 0 01-.114-.506 1.28 1.28 0 01.165-.661c.11-.184.258-.342.435-.462.19-.125.398-.217.617-.272.224-.058.454-.088.686-.09.406-.026.813.042 1.189.2v.73a2.145 2.145 0 00-1.255-.344c-.141 0-.282.015-.421.045-.133.027-.26.076-.377.145a.885.885 0 00-.27.258.692.692 0 00-.104.389.764.764 0 00.08.365c.056.11.135.206.232.282.116.096.241.179.374.248l.51.266c.2.096.384.2.563.306.167.098.323.213.466.345.13.126.238.274.318.437.08.171.12.358.117.547a1.4 1.4 0 01-.161.69c-.1.19-.244.351-.422.471-.19.122-.402.21-.623.258a3.098 3.098 0 01-1.07.059c-.13 0-.26-.038-.394-.062a2.864 2.864 0 01-.377-.103 1.134 1.134 0 01-.278-.131z" fill="red"/><path d="M77.165 30.693h-2.108v-.854h2.108v.854zm2.406-.223v1.904h-1.237v-5.542h1.947c1.391 0 2.087.59 2.087 1.77a1.698 1.698 0 01-.606 1.361 2.358 2.358 0 01-1.598.517l-.593-.01zm0-2.677v1.722h.477c.661 0 .994-.292.994-.874 0-.582-.343-.854-.994-.854l-.477.006zm8.454 4.581H86.67l-.395-1.233h-1.963l-.388 1.233h-1.347l2.009-5.548h1.474l1.963 5.548zm-2.033-2.194l-.593-1.863a2.36 2.36 0 01-.093-.5h-.03a2.143 2.143 0 01-.096.483l-.6 1.88h1.412zm6.676 2.004a3.662 3.662 0 01-1.577.293 2.656 2.656 0 01-1.998-.75 2.757 2.757 0 01-.727-2.002 2.93 2.93 0 01.82-2.155 2.846 2.846 0 012.121-.83c.466-.014.93.056 1.371.206v1.202a2.39 2.39 0 00-1.261-.344 1.67 1.67 0 00-1.255.489 1.824 1.824 0 00-.476 1.333 1.8 1.8 0 00.449 1.28 1.603 1.603 0 001.213.48c.466.008.926-.111 1.33-.345l-.01 1.143zm2.67-5.352v.968h-.463v3.613h.463v.96h-2.17v-.96h.463V27.8h-.463v-.968h2.17zm3.984 1.02h-1.947v1.36h1.79v1.013h-1.79v2.149h-1.244v-5.542h3.19v1.02zm2.613-1.02v.968h-.462v3.613h.462v.96h-2.17v-.96h.463V27.8h-.462v-.968h2.169zm4.752 5.352a3.681 3.681 0 01-1.58.293 2.655 2.655 0 01-1.998-.75 2.75 2.75 0 01-.727-2.002 2.936 2.936 0 01.819-2.155 2.85 2.85 0 012.122-.83c.465-.013.929.057 1.371.206v1.202a2.426 2.426 0 00-1.265-.344 1.67 1.67 0 00-1.254.489 1.822 1.822 0 00-.477 1.346c-.022.47.139.93.449 1.282a1.606 1.606 0 001.213.478 2.58 2.58 0 001.334-.344l-.007 1.13zm1.385.294a.703.703 0 01-.652-.393.62.62 0 01-.051-.251.578.578 0 01.209-.455.763.763 0 01.511-.18.737.737 0 01.511.18.585.585 0 01.199.455.596.596 0 01-.202.465.77.77 0 01-.525.18zm5.669-.294a3.665 3.665 0 01-1.577.293 2.65 2.65 0 01-1.998-.75 2.728 2.728 0 01-.727-2.002 2.934 2.934 0 01.816-2.155 2.853 2.853 0 012.125-.83 3.92 3.92 0 011.371.206v1.202a2.413 2.413 0 00-1.262-.344 1.674 1.674 0 00-1.251.503 1.83 1.83 0 00-.479 1.333c-.023.47.139.93.452 1.28a1.593 1.593 0 001.213.48 2.57 2.57 0 001.33-.345l-.013 1.13zm3.298.293a2.562 2.562 0 01-1.933-.775 2.786 2.786 0 01-.748-2.021 3 3 0 01.758-2.129 2.63 2.63 0 012.008-.813 2.507 2.507 0 011.913.779c.502.56.764 1.296.73 2.049a2.94 2.94 0 01-.757 2.118 2.6 2.6 0 01-1.971.792zm.051-4.66a1.242 1.242 0 00-1.028.493c-.276.379-.415.84-.394 1.309-.029.462.101.92.37 1.298a1.23 1.23 0 001.008.482 1.248 1.248 0 001.028-.468c.27-.374.404-.83.377-1.292a2.176 2.176 0 00-.367-1.343 1.188 1.188 0 00-.994-.479zm9.881 4.557h-1.227V29.06c0-.345 0-.755.045-1.188h-.031a5.667 5.667 0 01-.172.737l-1.295 3.788h-1.028l-1.317-3.733a7.326 7.326 0 01-.174-.775h-.035c.035.547.052 1.033.052 1.44v3.044h-1.121v-5.542h1.82l1.128 3.29c.089.257.155.522.198.792h.021a9.56 9.56 0 01.219-.8l1.128-3.282h1.775l.014 5.542z" fill="#fff"/></g><defs><clipPath id="clip0"><path fill="#fff" transform="translate(.186 .69)" d="M0 0h127.151v31.788H0z"/></clipPath></defs></svg>