<svg width="32" height="32" fill="none" xmlns="http://www.w3.org/2000/svg"><path d="M30.193 4.302l-1.368-1.204 1.368-1.204a.67.67 0 00.185-.745.67.67 0 00-.631-.437h-5.659V.47a.469.469 0 00-.938 0v6.325l-3.852 2.092a1.483 1.483 0 00-.152-.493l-.543-1.06a1.484 1.484 0 00-1.994-.643l-.42.215c-.353.18-.614.487-.735.864-.122.377-.09.778.091 1.13l.543 1.06c.127.248.314.444.534.58-.288.389-.424.866-.565 1.361l-.101.358a.469.469 0 10.902.255l.101-.357c.206-.725.332-1.113.734-1.331l.72-.391.09-.046c.029-.015.056-.032.085-.049l5.134-2.788a1.985 1.985 0 01-.946 1.594l-3.34 2.028-.011.007-1.04.632a.47.47 0 00.449.822l-.789 2.384-.576.236-1.567.643.451-1.597a.47.47 0 00-.903-.255l-.713 2.523a.451.451 0 00-.017.102l-.187 3.431c-.005.13.022.378-.038.506L12.42 24.97h-1.508c-.883 0-1.601.718-1.601 1.6v1.354a1.59 1.59 0 00-.663-.144H4.82c-.883 0-1.601.718-1.601 1.601v1.68H2.094a.469.469 0 100 .938h27.652a.469.469 0 100-.938h-1.22V18.973c0-.883-.718-1.6-1.6-1.6h-2.838V9.19c.52-.704.713-1.628.471-2.506a.468.468 0 00-.47-.344v-.857h5.658a.67.67 0 00.631-.436.67.67 0 00-.185-.745zM16.347 8.057a.54.54 0 01.27-.317l.42-.215a.545.545 0 01.732.236l.542 1.06a.545.545 0 01-.18.699l-.153.083-.323.165a.545.545 0 01-.732-.236l-.543-1.06a.54.54 0 01-.033-.415zm-.943 17.058a1.595 1.595 0 00-.515-.137l.515-.684v.82zm2.227-3.78c.226-.27.288-.585.338-.84.013-.06.244-1.324.244-1.324s.22.136.242.146a.05.05 0 01.03.041l.254 2.594h-1.572l.464-.616zm2.773-2.588l-.395 3.202h-.327l-.264-2.683a.988.988 0 00-.553-.793l-.471-.299.314-1.741s1.324 1.572 1.354 1.612c.274.357.368.5.342.702zm-5.065 2.27a2.54 2.54 0 00.13-.87l.171-3.13 2.17-.888-.395 2.184a.19.19 0 00-.003.018l-.326 1.805c-.043.187-.08.471-.196.625l-3.17 4.21h-.26l1.879-3.954zM4.158 29.382c0-.366.297-.663.663-.663h3.828c.366 0 .663.297.663.663v1.68H4.158v-1.68zm6.092 0v-2.81c0-.366.298-.663.663-.663h3.828c.366 0 .663.297.663.663v4.49H10.25v-1.68zm17.339-10.409v12.089h-5.154V28.25a.469.469 0 10-.939 0v2.812h-5.154v-7.51c0-.365.298-.662.663-.662h3.828c.366 0 .663.297.663.662v2.352a.469.469 0 00.938 0v-6.93c0-.366.298-.664.664-.664h3.827c.366 0 .664.298.664.663zm-4.491-1.6c-.883 0-1.601.717-1.601 1.6v3.123a1.587 1.587 0 00-.544-.14l.382-3.093c.076-.603-.232-1.003-.53-1.39-.03-.04-1.854-2.205-1.854-2.205l1.119-3.382 3.08-1.871v7.357h-.052zm.99-12.828V1.65h4.962l-1.069.941a.675.675 0 000 1.013l1.069.941h-4.962z" fill="#613654"/></svg>