<svg width="50" height="20" fill="none" xmlns="http://www.w3.org/2000/svg"><g clip-path="url(#clip0)"><path d="M23.65 9.657v5.794h-1.847V1.141H26.7a4.445 4.445 0 013.17 1.24 3.982 3.982 0 011.326 3.02 3.95 3.95 0 01-1.325 3.036c-.856.813-1.913 1.22-3.171 1.219h-3.05zm0-6.754V7.9h3.096a2.45 2.45 0 001.827-.74 2.438 2.438 0 00.742-1.749 2.429 2.429 0 00-.742-1.749 2.408 2.408 0 00-1.827-.759h-3.097v.001zM35.448 5.34c1.365 0 2.442.364 3.232 1.09.79.726 1.184 1.722 1.183 2.987v6.034h-1.766v-1.359h-.08c-.765 1.12-1.782 1.679-3.05 1.679-1.084 0-1.99-.32-2.72-.96a3.064 3.064 0 01-1.094-2.397c0-1.013.384-1.819 1.154-2.417.769-.598 1.796-.898 3.08-.9 1.096 0 2 .2 2.709.6v-.42a2.085 2.085 0 00-.763-1.628 2.621 2.621 0 00-1.782-.67c-1.031 0-1.848.433-2.449 1.3l-1.626-1.02c.895-1.279 2.219-1.918 3.972-1.918zm-2.39 7.114a1.463 1.463 0 00.613 1.199c.409.32.916.49 1.435.48a2.95 2.95 0 002.077-.86c.612-.572.918-1.245.918-2.017-.576-.456-1.379-.685-2.409-.685-.75 0-1.375.18-1.876.54-.506.366-.757.81-.757 1.343zm16.944-6.793l-6.166 14.107H41.93l2.288-4.936-4.054-9.17h2.007l2.93 7.032h.04l2.85-7.033h2.01z" fill="#fff"/><path d="M16.187 8.408c0-.56-.047-1.12-.142-1.672H8.258v3.166h4.46a3.797 3.797 0 01-1.65 2.499v2.055h2.663c1.558-1.43 2.456-3.546 2.456-6.048z" fill="#4285F4"/><path d="M8.257 16.441c2.228 0 4.104-.728 5.473-1.984l-2.662-2.055c-.741.5-1.695.785-2.811.785-2.154 0-3.982-1.445-4.636-3.393H.88v2.118a8.234 8.234 0 003.044 3.306 8.284 8.284 0 004.334 1.223z" fill="#34A853"/><path d="M3.621 9.794a4.905 4.905 0 010-3.147V4.53H.88a8.19 8.19 0 000 7.383l2.742-2.118z" fill="#FBBC04"/><path d="M8.257 3.255a4.494 4.494 0 013.167 1.233l2.357-2.347A7.954 7.954 0 008.257.001c-1.53 0-3.031.423-4.334 1.223A8.234 8.234 0 00.879 4.53L3.62 6.648C4.275 4.7 6.103 3.255 8.257 3.255z" fill="#EA4335"/></g><defs><clipPath id="clip0"><path fill="#fff" d="M0 0h50v19.767H0z"/></clipPath></defs></svg>