<svg width="43" height="46" fill="none" xmlns="http://www.w3.org/2000/svg"><path d="M41.554 37.065a.66.66 0 00-.66.66v4.636c0 .751-.61 1.361-1.36 1.361h-15.46c-.751 0-1.362-.61-1.362-1.36v-4.637a.66.66 0 00-1.318 0v4.636c0 .497.136.963.372 1.361H19.98l-1.387-11.277.615-1.638 1.021.621a1.364 1.364 0 001.812-.371l2.573-3.6c1.192.372 2.362.826 3.492 1.356a1.53 1.53 0 00-.103.552v1.277h-3.929a2.693 2.693 0 00-2.677 2.65 4.88 4.88 0 001.467 3.404A4.877 4.877 0 0026.3 38.1h2.729v.05c0 .56.456 1.016 1.016 1.016h3.517c.56 0 1.016-.456 1.016-1.016v-.05h2.729a4.878 4.878 0 003.437-1.405 4.877 4.877 0 001.467-3.43 2.692 2.692 0 00-2.677-2.624h-3.93v-1.277c0-.898-.78-1.63-1.741-1.63h-4.119a1.84 1.84 0 00-.618.106 28.679 28.679 0 00-4.478-1.75l-2.324-1.713a1.84 1.84 0 00-1.833-.21v-1.102c.638-.456 1.208-.98 1.727-1.498 1.427-1.425 2.754-3.08 2.794-5.52v-.329a2.52 2.52 0 002.516-2.518v-.88c0-.51-.153-.985-.414-1.383V6.153a2.93 2.93 0 00-.64-1.825 5.627 5.627 0 00.33-1.9V.93a.89.89 0 00-.89-.89H11.995a3.98 3.98 0 00-3.932 3.293c-1.252.347-2.17 1.494-2.17 2.819v4.785a2.505 2.505 0 00-.414 1.383v.88a2.52 2.52 0 002.517 2.518h.028l.001.374v.013c.058 2.438 1.396 4.084 2.832 5.499.502.494 1.05.992 1.66 1.43v1.131a1.839 1.839 0 00-1.832.212l-2.322 1.711a28.701 28.701 0 00-4.808 1.915A5.777 5.777 0 00.379 33.18v2.12a.66.66 0 101.318 0v-2.12c0-1.698.941-3.231 2.456-4a27.346 27.346 0 014.244-1.723l2.573 3.6a1.362 1.362 0 001.812.371l1.025-.623.61 1.639-1.388 11.278H6.58V38.49a.66.66 0 10-1.318 0v5.233H2.079a.382.382 0 01-.382-.381v-4.968a.66.66 0 00-1.318 0v4.968c0 .937.762 1.7 1.7 1.7h37.455a2.682 2.682 0 002.68-2.68v-4.636a.66.66 0 00-.66-.66zm-8.294.784h-2.913v-.814h2.913v.814zm.603-8.795c.23 0 .423.142.423.311v1.277h-2.241a5.8 5.8 0 00-1.138-1.588h2.956zm-4.542.398c.474.317.882.721 1.203 1.19H29.32v-1.19zm10.213 2.508c.73 0 1.337.591 1.358 1.32a3.605 3.605 0 01-3.585 3.503h-2.729v-.05c0-.56-.456-1.016-1.016-1.016h-3.517c-.56 0-1.016.455-1.016 1.016v.05H26.3a3.605 3.605 0 01-3.585-3.503 1.366 1.366 0 011.358-1.32h15.46zm-18.658-6.494a.53.53 0 01.666-.027l1.895 1.397-2.47 3.454a.042.042 0 01-.054.011L17.618 28.3l3.258-2.834zm-4.37 3.7l1.548.941-.594 1.599h-1.911l-.594-1.598 1.55-.942zm0-1.646l-2.67-2.321v-1.38c.8.375 1.694.615 2.705.624h.015a6.402 6.402 0 002.616-.603v1.36l-2.667 2.32zm9.704-15.199v.88a1.2 1.2 0 01-1.199 1.2h-.004l-.01-3.28h.014a1.2 1.2 0 011.199 1.2zm-.415-6.168v3.775a2.51 2.51 0 00-.784-.125h-.138a4.053 4.053 0 00-1.443-2.2 5.697 5.697 0 002.308-1.875c.038.137.057.28.057.425zM7.997 14.4a1.2 1.2 0 01-1.199-1.2v-.88a1.2 1.2 0 011.2-1.2h.013l.01 3.28h-.024zm-.784-4.473V6.153c0-.83.662-1.533 1.506-1.602a.66.66 0 00.605-.63 2.667 2.667 0 012.672-2.562h13.49v1.068a4.345 4.345 0 01-4.34 4.34h-9.112c-.803 0-1.46.632-1.502 1.424-.208.923-1 1.612-1.864 1.612 0 0-1.208.044-1.455.125zm4.57 10.738c-1.238-1.22-2.39-2.619-2.438-4.585l-.016-5.036c1.219-.284 2.233-1.328 2.507-2.645.052-.251.096-.315.198-.315h9.146a2.718 2.718 0 012.497 2.695l.017 5.252c-.035 1.968-1.178 3.375-2.407 4.603-1.275 1.273-2.733 2.455-4.743 2.49-2.01-.02-3.476-1.194-4.76-2.46zm.315 9.635a.041.041 0 01-.055-.011l-2.47-3.454 1.896-1.397a.53.53 0 01.665.027l3.258 2.833-3.294 2.002zm2.26 13.421l1.316-10.698h1.66l1.317 10.698h-4.293z" fill="#613654"/></svg>