<svg width="47" height="46" fill="none" xmlns="http://www.w3.org/2000/svg"><path d="M11.564 5.9c.73-.71.327-1.95-.68-2.096a1.23 1.23 0 01-.926-.672c-.451-.914-1.754-.914-2.205 0a1.23 1.23 0 01-.925.672c-1.008.147-1.41 1.385-.681 2.097.29.282.422.689.353 1.087-.172 1.005.882 1.77 1.784 1.296a1.23 1.23 0 011.143 0c.902.474 1.956-.291 1.784-1.296a1.229 1.229 0 01.353-1.087z" fill="url(#paint0_linear)"/><path d="M35.044 30.474l-3.306-.368a1.887 1.887 0 01-1.68-1.876c0-.61.305-1.172.759-1.58a8.56 8.56 0 002.374-3.578c.425-1.235.8-2.51 1.524-3.596a7.934 7.934 0 001.332-4.4v-4.319C35.943 4.826 31.033 0 25.102 0c-2.884 0-5.577 1.124-7.583 3.165a10.552 10.552 0 00-3.033 7.627v4.317a8.6 8.6 0 001.171 4.333c.634 1.086.956 2.319 1.347 3.513a8.558 8.558 0 002.413 3.695c.454.408.759.97.759 1.58 0 .962-.723 1.77-1.68 1.876l-3.306.368a8.526 8.526 0 00-7.592 8.483v3.898A3.145 3.145 0 0010.742 46h.899a2.246 2.246 0 002.246-2.246v-.898a1.348 1.348 0 012.695 0v.898A2.246 2.246 0 0018.828 46h12.578a2.246 2.246 0 002.246-2.246v-.898a1.348 1.348 0 012.696 0v.898A2.246 2.246 0 0038.594 46h.898a3.145 3.145 0 003.145-3.145v-3.898a8.526 8.526 0 00-7.593-8.483zm-7.68.652a2.249 2.249 0 01-2.247 2.246 2.249 2.249 0 01-2.246-2.246v-.315c0-1.145 1.102-1.971 2.246-1.971 1.145 0 2.246.826 2.246 1.97v.316zm-2.247-4.982c-3.22 0-5.84-2.62-5.84-5.84V16.19c0-1.083.808-1.987 1.768-2.49 1.344-.703 3.223-.689 4.57.01.927.482 1.98.755 3.096.755a2.246 2.246 0 012.246 2.246v3.594c0 3.22-2.62 5.84-5.84 5.84z" fill="url(#paint1_linear)"/><defs><linearGradient id="paint0_linear" x1="12.728" y1="-.135" x2="4.09" y2="10.777" gradientUnits="userSpaceOnUse"><stop stop-color="#EF4021"/><stop offset=".526" stop-color="#7CA843"/><stop offset="1" stop-color="#1D9AD4"/></linearGradient><linearGradient id="paint1_linear" x1="40.22" y1="-5.563" x2="-7.371" y2="37.986" gradientUnits="userSpaceOnUse"><stop stop-color="#EF4021"/><stop offset=".526" stop-color="#7CA843"/><stop offset="1" stop-color="#1D9AD4"/></linearGradient></defs></svg>