<svg width="62" height="62" fill="none" xmlns="http://www.w3.org/2000/svg"><path d="M17.316 5.61l-4.183-.608-1.871-3.791L9.39 5.002l-4.184.608 3.027 2.95-.714 4.168 3.742-1.968 3.742 1.968-.715-4.167 3.027-2.951zM46.56 41.073l-6.72-.746v-3.588a11.507 11.507 0 004.79-8.257l3.28-4.925v-9.058C47.772 6.504 41.154 0 33.16 0c-3.887 0-7.517 1.515-10.22 4.266-2.7 2.748-4.152 6.398-4.089 10.28v8.952l2.875 4.928a11.507 11.507 0 004.794 8.313v3.588l-6.72.746A11.492 11.492 0 009.567 52.507V62h8.477v-6.055h3.633V62h23.008v-6.055h3.632V62h8.477v-9.493c0-5.87-4.4-10.786-10.234-11.434zm-10.353.88a3.03 3.03 0 01-3.027 3.026 3.03 3.03 0 01-3.028-3.027v-3.488a11.467 11.467 0 006.055 0v3.488zm-3.027-6.715c-4.34 0-7.871-3.53-7.871-7.87v-8.054a9.098 9.098 0 005.449-3.457 9.074 9.074 0 007.265 3.64h3.028v7.87c0 4.34-3.531 7.871-7.871 7.871z" fill="#fff"/></svg>