<svg width="46" height="46" fill="none" xmlns="http://www.w3.org/2000/svg"><g clip-path="url(#clip0)" fill="#613654"><path d="M28.131 27.923a1.012 1.012 0 001.084-.14l.915-.76.916.761a1.01 1.01 0 001.083.14 1.01 1.01 0 00.587-.923v-4.308a3.855 3.855 0 001.279-2.87 3.869 3.869 0 00-3.865-3.864 3.869 3.869 0 00-3.864 3.865c0 1.137.494 2.161 1.279 2.87V27c0 .4.224.753.586.922zm3.268-1.558l-.617-.514a1.019 1.019 0 00-1.303 0l-.617.514v-2.892a3.844 3.844 0 002.537 0v2.892zm-1.269-9.089a2.55 2.55 0 012.548 2.548 2.55 2.55 0 01-2.548 2.547 2.55 2.55 0 01-2.547-2.547 2.55 2.55 0 012.547-2.548z"/><path d="M37.91.04H7.175a2.41 2.41 0 00-2.407 2.408v40.186a2.41 2.41 0 002.407 2.407H37.91a2.41 2.41 0 002.407-2.407V2.448A2.41 2.41 0 0037.91.041zM39 42.635c0 .6-.49 1.09-1.09 1.09H7.175c-.601 0-1.09-.49-1.09-1.09V2.448c0-.601.489-1.09 1.09-1.09H37.91c.6 0 1.09.489 1.09 1.09v40.186z"/><path d="M35.958 3.287H9.124c-.581 0-1.054.473-1.054 1.054v24.836a.658.658 0 101.317 0V4.604h26.308v35.873H9.387v-8.2a.658.658 0 10-1.317 0v8.464c0 .58.473 1.053 1.054 1.053h26.834c.581 0 1.054-.472 1.054-1.053V4.34c0-.581-.473-1.054-1.054-1.054z"/><path d="M33.995 8.671c0-.747-.607-1.354-1.354-1.354H12.444c-.747 0-1.354.607-1.354 1.354v2.511c0 .747.607 1.355 1.354 1.355h14.128a.658.658 0 100-1.317H12.444a.038.038 0 01-.037-.038v-2.51c0-.022.017-.038.037-.038h20.197c.02 0 .037.016.037.037v2.511c0 .02-.016.038-.037.038h-3.047a.658.658 0 100 1.317h3.047c.747 0 1.354-.608 1.354-1.355v-2.51zm-18.97 26.337c-.536 1.194-.177 1.775.219 2.053.927.651 2.074-.377 2.625-.87l.006-.006c.178.405.477.727.862.922.96.487 1.765.004 2.347-.609.138.252.31.472.517.653.52.456 1.266.614 2.053.614.706 0 1.445-.127 2.08-.281a.659.659 0 00-.311-1.28c-1.404.34-2.535.324-2.953-.043-.362-.318-.433-.87-.443-1.172a.659.659 0 00-1.216-.328c-.664 1.061-1.12 1.453-1.479 1.271a.573.573 0 01-.287-.378 1.152 1.152 0 01.121-.865.658.658 0 10-1.12-.692c-.285.462-.652.852-1.056 1.213-.461.414-.737.599-.898.68.066-.247.288-.727.919-1.654a85.627 85.627 0 012.027-2.875l.013-.018a.659.659 0 00-.998-.855c-1.498 1.524-3.927 2.245-6.187 1.836a.658.658 0 10-.235 1.296 8.645 8.645 0 004.454-.37 21.5 21.5 0 01-.163.246c-.24.35-.639.937-.897 1.512zm5.497-19.049a.658.658 0 100 1.317h2.021a.659.659 0 000-1.317h-2.021zm-8.774 1.317h5.496a.659.659 0 000-1.317h-5.496a.659.659 0 000 1.317zm0 3.042h10.795a.658.658 0 100-1.317H11.748a.659.659 0 000 1.317zm11.453 2.383a.659.659 0 00-.658-.659h-5.299a.659.659 0 000 1.317h5.299a.659.659 0 00.659-.658zm-11.453.659h2.298a.659.659 0 000-1.317h-2.298a.659.659 0 000 1.317zm0 3.041h8.223a.658.658 0 100-1.317h-8.223a.659.659 0 000 1.317z"/></g><defs><clipPath id="clip0"><path fill="#fff" transform="translate(.041 .04)" d="M0 0h45v45H0z"/></clipPath></defs></svg>