<svg width="58" height="29" fill="none" xmlns="http://www.w3.org/2000/svg"><path d="M1.23.044c8-.012 16.005-.008 24.008-.002.002.945.004 1.89-.004 2.835-3.626.01-7.25-.009-10.875.008.003 2.434-.002 4.867.003 7.3 4.035.01 8.07-.008 12.105.008-.004.924-.002 1.847-.002 2.773-3.956.012-7.914-.007-11.87.008 1.641 5.958 6.098 11.112 11.85 13.123-.002.965.004 1.93-.006 2.895-5.94-1.406-10.913-6.009-13.446-11.634-.563.797-.881 1.743-1.426 2.554-2.61 4.3-6.65 7.965-11.56 9.075a180.87 180.87 0 01-.003-2.853c3.58-1.262 6.72-3.783 8.763-7.056a19.35 19.35 0 002.53-6.104c-3.765-.017-7.529.006-11.295-.01-.002-.924 0-1.846-.002-2.77 3.857-.014 7.716-.01 11.575-.002.096-2.43.013-4.866.045-7.3-3.466-.066-6.939.065-10.4-.068.011-.926.003-1.853.01-2.78zM30.508.025c.008.943.004 1.885.008 2.827 1.02.068 2.077.225 2.952.813 1.067.666 1.71 1.895 1.824 3.155-1.594.976-3.189 1.949-4.776 2.932-.002.978-.006 1.957.002 2.935a208.3 208.3 0 014.828-2.932c.011 1.59.007 3.183.003 4.774-1.612.986-3.218 1.978-4.831 2.96-.008.983-.008 1.967.004 2.953 1.583-1.034 3.217-1.978 4.837-2.951.034 1.943.08 4.012-.869 5.765-.782 1.543-2.308 2.6-3.97 2.866-.012.959-.006 1.92-.006 2.878 1.528-.056 3.075-.497 4.31-1.45 1.38-1.046 2.298-2.636 2.75-4.319.47-1.61.534-3.305.514-4.975-.002-3.61.002-7.218-.002-10.826-.012-2.145-.739-4.42-2.421-5.788C34.204.492 32.329.016 30.509.025zM42.704.007a417.85 417.85 0 01-.002 3.147c-.944.002-1.887-.002-2.831.004-.002.934.004 1.868-.006 2.801.947.062 1.897.025 2.844.04-.003.865-.002 1.728-.006 2.593.883.012 1.768.006 2.65.006.003-.865.005-1.73 0-2.595 2.388-.017 4.775-.015 7.162-.003 0 .868-.002 1.735.006 2.6.883-.004 1.768.002 2.652-.008 0-.865.005-1.73-.002-2.593.942-.015 1.886.016 2.829-.036 0-.934 0-1.87-.002-2.803-.94-.008-1.879-.006-2.818-.006-.009-1.049-.002-2.097-.009-3.147-.884-.01-1.77-.006-2.654-.006-.004 1.05.002 2.1-.004 3.15-2.385.003-4.77.007-7.155-.002a524.435 524.435 0 01-.002-3.148c-.885 0-1.768-.004-2.652.006zM39.875 10.68c-.006 4.463-.006 8.926 0 13.387.002 1.337.332 2.772 1.308 3.723.907.888 2.213 1.143 3.426 1.152 4.456-.003 8.913.006 13.369-.005.006-4.398 0-8.795.002-13.193-.016-1.3-.142-2.723-1.018-3.741-.911-1.044-2.357-1.309-3.657-1.323-4.477-.002-8.953-.004-13.43 0zm2.626 2.708c1.717-.005 3.436-.002 5.153 0-.02 1.707.053 3.419-.04 5.126-1.701-.018-3.402 0-5.101-.012-.004-1.703-.022-3.409-.012-5.114zm7.684.002a47.645 47.645 0 013.314.058c.642.029 1.349.348 1.533 1.036.451 1.285.207 2.687.263 4.022-1.703 0-3.406.002-5.108-.002-.006-1.706-.004-3.41-.002-5.114zm-7.672 7.69c1.715-.004 3.428-.006 5.143 0 .002 1.756 0 3.509 0 5.264-1.207-.018-2.442.114-3.624-.197a1.834 1.834 0 01-1.288-1.273c-.369-1.227-.194-2.531-.231-3.793zm7.672-.002c1.703-.006 3.407.003 5.11-.004.014 1.76 0 3.517.006 5.277-1.707-.002-3.413.01-5.12-.009.006-1.753-.002-3.508.004-5.264z" fill="url(#paint0_linear)"/><defs><linearGradient id="paint0_linear" x1="8.308" y1="5.473" x2="7.916" y2="25.517" gradientUnits="userSpaceOnUse"><stop stop-color="#FE7500"/><stop offset="1" stop-color="#FE7500"/></linearGradient></defs></svg>