<svg width="67" height="51" fill="none" xmlns="http://www.w3.org/2000/svg"><path fill-rule="evenodd" clip-rule="evenodd" d="M23.636 0c-4.681 12.837-9.428 15.912-9.428 15.912s4.08 1.94 5.75 2.875c2.34-2.473 4.213-4.88 4.213-4.88s2.675-1.203 4.212-1.805c-2.627 5.817-6.485 9.828-6.485 9.828l3.343 2.942c1.805-1.805 5.014-4.815 5.014-4.815h2.942v5.082H21.63v4.012l11.633.066s.067 5.75.067 9.962c-5.462.062-5.334-2.642-5.288-3.618.004-.075.007-.14.007-.193 0-.735.4-3.61.4-3.61l-8.156-.067s-.468 1.605-.468 3.543c0 5.75 2.808 7.756 4.747 8.625 1.94.868 5.148.736 5.148.736 1.137.067 5.358.15 11.968-1.805 4.747-1.405 6.685-3.611 6.685-3.611l1.204 4.346 6.486-2.54-4.346-10.765s-3.477 1.204-5.216 1.604c.546 1.748.602 2.202.713 3.112.025.204.053.43.09.7-2.742 2.14-4.613 2.14-4.613 2.14v-8.492H53.99v-4.011h-11.3v-5.349h11.433v-4.011s-17.784-.067-20.458 0c1.939-2.14 3.008-4.346 3.008-4.346s-2.34-.602-3.543-1.004c3.142-1.27 9.427-2.807 10.43-3.007 1.002-.201 4.279-.736 8.423.066 3.708.717 4.367 3.414 4.656 4.597.034.14.063.259.092.35.267.87.2 26.543.134 27.88-.067 1.338-1.137 2.943-1.137 2.943-1.204 1.403-3.477 2.54-6.151 2.54s-6.084-1.271-6.084-1.271l-1.137 4.68s2.942 1.07 8.491 1.07c5.55 0 8.692-1.203 11.3-3.677 2.607-2.473 3.008-5.282 3.008-5.282 1.872-12.1.87-25.473-.067-29.484-.935-4.011-4.68-6.485-8.357-7.689-3.678-1.203-8.425-1.003-8.425-1.003-8.691 0-18.787 3.075-18.787 3.075l2.206-4.078S24.972.468 23.635 0zm-6.149 6.018c0 2.916-2.634 5.281-5.883 5.281S5.72 8.934 5.72 6.018C5.72 3.1 8.355.736 11.604.736c3.25 0 5.883 2.365 5.883 5.282zM3.043 19.256l3.61-5.616s5.08 3.944 6.62 5.282l.13.113c1.556 1.35 4.147 3.598 4.081 7.174-.067 3.677-1.137 6.886-2.006 9.093-.869 2.206-6.552 13.84-6.552 13.84L.234 43.724s8.36-7.732 11.567-12.435c1.003-1.47 2.206-5.348-1.203-7.354-3.41-2.006-7.555-4.68-7.555-4.68z" fill="#fff"/></svg>