<svg width="48" height="38" fill="none" xmlns="http://www.w3.org/2000/svg"><path fill-rule="evenodd" clip-rule="evenodd" d="M18.698.774c-1.474-.41-3.061.387-3.656 1.796-3.152 7.478-6.062 9.364-6.063 9.364 0 0 .434.206 1.04.5 1.941.941 4.324.567 5.698-1.095.229-.277.412-.504.538-.662.13-.162.055-.184.245-.268 1.04-.467 2.244.452 1.658 1.43a30.555 30.555 0 01-2.269 3.272c-.597.75-.542 1.865.178 2.5a1.709 1.709 0 002.314-.063c.81-.783 1.67-1.597 2.179-2.077a1.581 1.581 0 012.66 1.153v.325a1.905 1.905 0 01-1.905 1.905h-5.26a1.509 1.509 0 00-.01 3.018l3.5.02c2.068.011 3.733.492 3.75 2.56.018 2.075-2.108 5.48-3.47 3.912-.522-.602-.488-1.318-.47-1.693.002-.057.005-.105.005-.145 0-1.444-.981-2.718-2.425-2.73l-.952-.008c-1.444-.011-2.75.947-2.788 2.39a9.146 9.146 0 00-.003.248c0 4.313 2.105 5.817 3.56 6.468 1.044.468 2.58.549 3.363.557l.995.013c1.284.02 4.22-.112 8.479-1.371 1.445-.428 2.543-.955 3.337-1.43.78-.466 1.999-.116 2.241.76a1.144 1.144 0 001.518.759l1.365-.535a2.465 2.465 0 001.387-3.218l-1.609-3.986c-.402-.996-1.01-1.67-2.032-1.338-1.116.363-2.238 1.711-2.09 2.876.01.07.018.143.027.22a.892.892 0 01-.358.842 9.75 9.75 0 01-.74.477c-1.174.679-2.294-.287-2.294-1.642v-.73a3.184 3.184 0 013.184-3.185h3.786a1.504 1.504 0 000-3.009h-4.965a2.006 2.006 0 110-4.01h5.062a1.507 1.507 0 00.011-3.015 2346.12 2346.12 0 00-11.241-.014c-.983.002-1.56-1.228-1.03-2.057.099-.156.188-.301.266-.433.227-.38.413-.749-.016-.863-.63-.167-1.054-1.075-.433-1.273 2.415-.77 5.438-1.505 6.027-1.622.753-.151 3.21-.552 6.318.05 2.781.538 3.275 2.56 3.492 3.448.026.104.048.193.069.262.2.652.15 19.907.1 20.91-.029.587-.316 1.243-.55 1.686a3.302 3.302 0 01-.727.949c-.96.846-2.463 1.477-4.189 1.477-.859 0-1.819-.175-2.636-.375-1.04-.255-2.149.337-2.402 1.377-.215.886.278 1.771 1.173 1.943 1.072.205 2.69.415 4.818.415 4.162 0 6.52-.903 8.475-2.758 1.767-1.677 2.183-3.559 2.246-3.906.008-.037.013-.075.019-.113 1.392-9.06.642-19.054-.059-22.056-.702-3.008-3.51-4.864-6.268-5.766-2.458-.805-5.554-.773-6.198-.757-.082.002-.161.004-.243.004-4.314.02-9.063 1.032-11.764 1.709-.814.204-1.515-.676-1.116-1.414a.94.94 0 00-.581-1.356c-.64-.174-1.469-.4-2.27-.622zm-7.26 3.74c0 2.187-1.976 3.96-4.413 3.96-2.437 0-4.413-1.773-4.413-3.96 0-2.188 1.976-3.962 4.413-3.962 2.437 0 4.412 1.774 4.412 3.961zM2.621 15.722a2.368 2.368 0 01-.724-3.292 2.38 2.38 0 013.475-.588c1.094.863 2.329 1.848 2.904 2.348l.097.085c1.168 1.013 3.111 2.7 3.062 5.38-.05 2.758-.853 5.166-1.505 6.82-.391.995-2.086 4.542-3.377 7.215a3.162 3.162 0 01-4.524 1.304c-1.778-1.108-2.022-3.61-.542-5.092 1.958-1.96 4.386-4.53 5.686-6.435.752-1.104 1.654-4.011-.903-5.516a155.893 155.893 0 01-3.649-2.23z" fill="url(#paint0_linear)"/><defs><linearGradient id="paint0_linear" x1="7.318" y1="7.583" x2="6.528" y2="33.32" gradientUnits="userSpaceOnUse"><stop stop-color="#FE7500"/><stop offset="1" stop-color="#EA500F"/></linearGradient></defs></svg>