<svg width="50" height="39" fill="none" xmlns="http://www.w3.org/2000/svg"><path fill-rule="evenodd" clip-rule="evenodd" d="M17.727.25c-3.51 9.628-7.07 11.934-7.07 11.934s3.059 1.455 4.313 2.157c1.754-1.856 3.159-3.66 3.159-3.66s2.005-.903 3.159-1.355c-1.97 4.363-4.864 7.371-4.864 7.371l2.507 2.207c1.354-1.354 3.76-3.611 3.76-3.611h2.207v3.811h-8.675v3.009l8.725.05s.05 4.313.05 7.471c-4.097.047-4-1.981-3.966-2.713.003-.057.005-.105.005-.145 0-.551.3-2.708.3-2.708l-6.117-.05s-.35 1.204-.35 2.658c0 4.313 2.105 5.817 3.56 6.468 1.454.652 3.86.552 3.86.552.853.05 4.019.113 8.976-1.353 3.56-1.054 5.014-2.709 5.014-2.709l.903 3.26 4.864-1.905-3.26-8.074s-2.606.903-3.91 1.203c.409 1.311.45 1.652.534 2.334.019.153.04.323.067.525-2.056 1.604-3.46 1.604-3.46 1.604v-6.368h8.475v-3.009h-8.474v-4.01h8.574v-3.01s-13.338-.05-15.344 0c1.454-1.604 2.257-3.259 2.257-3.259s-1.756-.451-2.658-.752c2.357-.953 7.07-2.106 7.822-2.256.752-.151 3.21-.552 6.318.05 2.78.538 3.275 2.56 3.492 3.448.026.104.047.193.069.262.2.652.15 19.907.1 20.91-.05 1.003-.853 2.207-.853 2.207-.902 1.053-2.607 1.905-4.613 1.905-2.005 0-4.563-.953-4.563-.953l-.853 3.51s2.207.803 6.369.803 6.519-.903 8.474-2.758c1.956-1.855 2.257-3.962 2.257-3.962 1.404-9.075.652-19.105-.05-22.113-.702-3.008-3.51-4.864-6.269-5.766-2.758-.903-6.318-.753-6.318-.753-6.518 0-14.09 2.307-14.09 2.307l1.654-3.06S18.73.602 17.727.25zm-4.611 4.513c0 2.188-1.976 3.962-4.413 3.962-2.436 0-4.412-1.774-4.412-3.962C4.29 2.576 6.267.802 8.703.802c2.437 0 4.413 1.774 4.413 3.961zM2.282 14.692L4.99 10.48s3.81 2.958 4.964 3.961l.098.085c1.167 1.013 3.11 2.7 3.061 5.38-.05 2.758-.853 5.166-1.505 6.82-.651 1.655-4.913 10.38-4.913 10.38l-6.52-4.062s6.27-5.799 8.676-9.326c.752-1.104 1.654-4.012-.903-5.516-2.557-1.504-5.666-3.51-5.666-3.51z" fill="#fff"/></svg>