<svg width="38" height="24" fill="none" xmlns="http://www.w3.org/2000/svg"><path d="M24.656 2.517H13.35v18.505h11.306V2.517z" fill="#FF5F00"/><path d="M14.514 11.772a11.768 11.768 0 014.485-9.25A11.729 11.729 0 006.61 1.19a11.752 11.752 0 00-4.82 4.34 11.786 11.786 0 000 12.487 11.752 11.752 0 004.821 4.341A11.721 11.721 0 0019 21.026c-1.4-1.1-2.53-2.505-3.308-4.109a11.768 11.768 0 01-1.178-5.145z" fill="#EB001B"/><path d="M38.001 11.771c0 2.208-.62 4.372-1.79 6.244a11.751 11.751 0 01-4.821 4.34A11.721 11.721 0 0119 21.023a11.788 11.788 0 000-18.505 11.73 11.73 0 0112.39-1.334 11.751 11.751 0 014.822 4.341A11.786 11.786 0 0138 11.768v.003z" fill="#F79E1B"/></svg>