<svg width="56" height="16" fill="none" xmlns="http://www.w3.org/2000/svg"><path fill-rule="evenodd" clip-rule="evenodd" d="M40.39 7.229V16h4.828v-5.198h5.471c2.303-.017 4.26-1.502 4.997-3.573H40.39z" fill="#fff"/><path fill-rule="evenodd" clip-rule="evenodd" d="M39.748 0c.281 3.585 3.642 6.416 7.745 6.416h8.395c.062-.329.094-.668.094-1.015 0-2.97-2.374-5.379-5.31-5.4L39.748 0z" fill="url(#paint0_linear)"/><path fill-rule="evenodd" clip-rule="evenodd" d="M32.602 6.33l.004-.007a.29.29 0 01.543.134v9.462h4.828V0h-4.828c-.612.02-1.304.474-1.56 1.03l-3.843 8.317a.322.322 0 01-.043.094l-.002.003a.32.32 0 01-.586-.185V0h-4.828v15.919h4.828v-.002c.605-.032 1.28-.48 1.534-1.029l3.943-8.536a.374.374 0 01.01-.021zm-18.027.273l-2.821 9.316H8.281L5.458 6.597a.319.319 0 00-.313-.262.32.32 0 00-.317.325v9.259H0V0h5.378c.888 0 1.819.696 2.078 1.553l2.35 7.757c.117.386.307.386.423 0l2.35-7.757C12.839.695 13.769 0 14.658 0h5.377v15.919h-4.828V6.656a.32.32 0 00-.318-.321.319.319 0 00-.313.268z" fill="#fff"/><defs><linearGradient id="paint0_linear" x1="39.748" y1="3.208" x2="55.982" y2="3.208" gradientUnits="userSpaceOnUse"><stop stop-color="#00A0E5"/><stop offset="1" stop-color="#0077C3"/></linearGradient></defs></svg>