<svg width="69" height="68" fill="none" xmlns="http://www.w3.org/2000/svg"><path fill-rule="evenodd" clip-rule="evenodd" d="M28.169 0l6.599 6.707L41.367 0a1.61 1.61 0 011.582 1.61v8.047c0 .889-.72 1.61-1.61 1.61H28.197a1.61 1.61 0 01-1.61-1.61V1.609c0-.88.707-1.594 1.583-1.609zm1.887 0l4.712 4.789L39.479 0h-9.423zM14.647 13.018c0-.43-.4-.75-.82-.653L6.6 14.025a.677.677 0 00-.525.667c.018 2.407.004 4.632-.005 6.072l-.004.694v.003l-.002.402H6.06a2.414 2.414 0 11-1.328-2.024c.009-1.917.017-4.797.002-6.881A2.018 2.018 0 016.3 10.975l7.226-1.66a2.012 2.012 0 012.463 1.96v8.308a2.414 2.414 0 11-1.342-2.163v-4.402zM.03 36.08a2.414 2.414 0 012.414-2.414h11.132a2.414 2.414 0 012.415 2.414v9.523a2.414 2.414 0 01-2.415 2.414H2.443A2.414 2.414 0 01.03 45.602v-9.523zm6.794 2.633a.013.013 0 00-.02.012v4.367c0 .01.01.017.02.012l3.782-2.184a.013.013 0 000-.023l-3.782-2.184zm4.385 3.253l-3.782 2.183a1.22 1.22 0 01-1.83-1.057v-4.367a1.22 1.22 0 011.83-1.057l3.782 2.184a1.22 1.22 0 010 2.114zm41.8-4.824a2 2 0 012-2H66.7a2 2 0 012 2v7.534a2 2 0 01-2 2H55.007a2 2 0 01-2-2V37.14zm7.912 1.755a2.012 2.012 0 100 4.024 2.012 2.012 0 000-4.024zm-3.353 2.012a3.353 3.353 0 116.706 0 3.353 3.353 0 01-6.706 0zm3.219-15.692s6.437-8.381 6.437-11.937a6.438 6.438 0 10-12.875 0c0 3.556 6.438 11.937 6.438 11.937zm-.068-8.852a2.884 2.884 0 100-5.767 2.884 2.884 0 000 5.767zm-36.566.67h-1.725a2.817 2.817 0 00-2.817 2.817v45.333A2.817 2.817 0 0022.427 68H46.97a2.817 2.817 0 002.816-2.816V19.85a2.817 2.817 0 00-2.816-2.816h-1.996l-1.311 5.245a2.549 2.549 0 01-2.473 1.93H27.992a2.548 2.548 0 01-2.465-1.905l-1.375-5.27zm1.109 0H43.87l-1.246 4.986a1.475 1.475 0 01-1.432 1.117h-13.2a1.475 1.475 0 01-1.427-1.103l-1.304-5zm5.884 13.949h-5.768c-.963 0-1.743.78-1.743 1.744v6.035c0 .963.78 1.743 1.743 1.743h5.768c.962 0 1.743-.78 1.743-1.743v-6.035c0-.963-.78-1.744-1.743-1.744zm-5.902 1.744a.133.133 0 01.134-.134h5.768c.074 0 .134.06.134.134v6.035c0 .074-.06.134-.134.134h-5.768a.134.134 0 01-.134-.134v-6.035zm.134 10.997h5.768c.962 0 1.743.781 1.743 1.744v6.035c0 .963-.78 1.744-1.743 1.744h-5.768c-.963 0-1.743-.78-1.743-1.744v-6.035c0-.963.78-1.744 1.743-1.744zm0 1.61a.134.134 0 00-.134.134v6.035c0 .074.06.135.134.135h5.768a.134.134 0 00.134-.135v-6.035a.134.134 0 00-.134-.134h-5.768zm18.375-14.351h-5.767c-.963 0-1.744.78-1.744 1.744v6.035c0 .963.78 1.743 1.744 1.743h5.767c.963 0 1.743-.78 1.743-1.743v-6.035c0-.963-.78-1.744-1.743-1.744zm-5.902 1.744c0-.074.06-.134.135-.134h5.767c.074 0 .134.06.134.134v6.035c0 .074-.06.134-.134.134h-5.767a.135.135 0 01-.05-.01l-.015-.007a.134.134 0 01-.07-.117v-6.035zm.135 10.997h5.767c.963 0 1.743.781 1.743 1.744v6.035c0 .963-.78 1.744-1.743 1.744h-5.767c-.963 0-1.744-.78-1.744-1.744v-6.035c0-.963.78-1.744 1.744-1.744zm0 1.61a.134.134 0 00-.134.134v6.035c0 .074.06.135.134.135h5.767a.135.135 0 00.134-.135v-6.035a.134.134 0 00-.134-.134h-5.767zM26.987 63.842c0-.518.42-.938.939-.938h12.473a.939.939 0 010 1.877H27.926a.939.939 0 01-.94-.939z" fill="#fff"/></svg>