<svg width="53" height="54" fill="none" xmlns="http://www.w3.org/2000/svg"><path d="M21.556 10.998a.975.975 0 001.383 0l3.095-3.094a.98.98 0 00-1.383-1.384l-3.095 3.094a.978.978 0 000 1.384zm5.149 0a.974.974 0 001.383 0l3.094-3.094A.978.978 0 1029.8 6.52l-3.095 3.094a.978.978 0 000 1.384z" fill="#5A3451"/><path d="M49.085 40.012h-3.462v-3.247a.979.979 0 00-.978-.979h-3.677v-2.225h3.461c.81 0 1.468-.658 1.468-1.467v-8.88a1.47 1.47 0 00-1.468-1.467h-3.461v-3.17a.978.978 0 00-.979-.978H27.405v-2.22h7.108c.841 0 1.526-.685 1.526-1.527V3.666c0-.842-.685-1.526-1.526-1.526h-4.325a.978.978 0 100 1.957h3.894v9.325h-15.31V4.097h3.566a.979.979 0 000-1.957h-3.997c-.84 0-1.525.684-1.525 1.526v10.186c0 .842.684 1.527 1.526 1.527h7.107v2.22H12.347a.978.978 0 00-.979.979v3.169H7.907a1.47 1.47 0 00-1.468 1.467v8.88c0 .81.658 1.467 1.468 1.467h3.461v2.225H8.347a.979.979 0 00-.978.979v3.247H3.854c-.81 0-1.467.659-1.467 1.468v8.88c0 .809.658 1.467 1.467 1.467h8.88A1.47 1.47 0 0014.2 50.36v-8.88a1.47 1.47 0 00-1.467-1.467H9.325v-2.27H25.45v2.27h-3.403c-.841 0-1.526.685-1.526 1.526v8.763c0 .842.684 1.526 1.526 1.526h.495a.979.979 0 000-1.957h-.064v-7.9h7.901v7.9h-.068a.979.979 0 000 1.957h.499c.841 0 1.525-.684 1.525-1.526v-8.763c0-.841-.684-1.526-1.525-1.526h-3.404v-2.27h16.261v2.27h-3.461a1.47 1.47 0 00-1.467 1.468v8.88c0 .809.658 1.467 1.467 1.467h8.88a1.47 1.47 0 001.467-1.468v-8.88a1.47 1.47 0 00-1.467-1.467zm-36.84 1.957v7.901H4.342v-7.9h7.901zm-3.85-10.364v-7.901h7.902v7.901H8.396zm30.616 4.181H13.325v-2.225h3.462c.809 0 1.467-.658 1.467-1.467v-8.88a1.47 1.47 0 00-1.467-1.467h-3.462v-2.191h25.686v2.19H35.55c-.81 0-1.468.66-1.468 1.468v8.88c0 .81.658 1.467 1.468 1.467h3.461v2.225zm-2.972-4.181v-7.901h7.901v7.901h-7.901zM48.595 49.87h-7.901v-7.9h7.901v7.9z" fill="#5A3451"/><path d="M25.695 3.898l.029.021a.975.975 0 001.37-.187.978.978 0 00-.186-1.37l-.029-.022a.978.978 0 10-1.184 1.558zm1.337 46.149l-.028-.021a.98.98 0 00-1.184 1.558l.029.022a.975.975 0 001.371-.187.979.979 0 00-.188-1.371z" fill="#5A3451"/></svg>