<svg width="51" height="51" fill="none" xmlns="http://www.w3.org/2000/svg"><path d="M34.744 22.533a.85.85 0 00-.322-.323l-13.6-7.65a.85.85 0 00-1.271.74v15.3a.85.85 0 00.425.734.85.85 0 00.846.006l13.6-7.65a.85.85 0 00.322-1.157zm-13.493 6.614V16.754l11.016 6.196-11.016 6.197zM17 39.95v-1.7h-1.7v1.7H3.4v1.7h11.9v1.7H17v-1.7h30.6v-1.7H17z" fill="#5A3451"/><path d="M25.5 9.35c-7.51 0-13.6 6.089-13.6 13.6.01 7.507 6.093 13.59 13.6 13.6 7.511 0 13.6-6.09 13.6-13.6 0-7.511-6.089-13.6-13.6-13.6zm0 25.5c-6.572 0-11.9-5.328-11.9-11.9.007-6.57 5.331-11.893 11.9-11.9 6.573 0 11.9 5.327 11.9 11.9 0 6.572-5.327 11.9-11.9 11.9z" fill="#5A3451"/><path d="M48.45 4.25H2.55A2.55 2.55 0 000 6.8v37.4a2.55 2.55 0 002.55 2.55h45.9A2.55 2.55 0 0051 44.2V6.8a2.55 2.55 0 00-2.55-2.55zm.85 39.95c0 .47-.38.85-.85.85H2.55a.85.85 0 01-.85-.85V6.8c0-.47.38-.85.85-.85h45.9c.47 0 .85.38.85.85v37.4z" fill="#5A3451"/><path d="M5.1 7.65H3.4v1.7h1.7v-1.7zm3.4 0H6.8v1.7h1.7v-1.7zm3.4 0h-1.7v1.7h1.7v-1.7z" fill="#5A3451"/></svg>