<svg width="68" height="75" fill="none" xmlns="http://www.w3.org/2000/svg"><path fill-rule="evenodd" clip-rule="evenodd" d="M34.549 17.704c0-1.009.765-1.834 1.714-2.176a8 8 0 10-5.429 0c.95.342 1.715 1.167 1.715 2.176v15.401c0 .6-.428 1.11-.952 1.403-.51.286-1.135.374-1.64.077L16.858 26.88c-.875-.515-1.197-1.603-1.002-2.6a8 8 0 10-2.785 4.66c.776-.635 1.867-.87 2.731-.361l12.866 7.568c.626.369.88 1.127.88 1.853 0 1.053-.276 2.222-1.184 2.756L15.402 48.38a.346.346 0 01-.472-.13 8 8 0 101.066 3.665c-.036-.871.317-1.75 1.068-2.192l13.752-8.09c.315-.185.702-.167 1.033-.011.394.185.7.557.7.992v14.682c0 1.009-.766 1.834-1.715 2.176a8 8 0 105.429 0c-.949-.342-1.714-1.167-1.714-2.176v-14.31c0-.654.468-1.207 1.032-1.54.578-.342 1.298-.469 1.876-.129l12.67 7.453c.824.485 1.161 1.485 1.037 2.433a8.003 8.003 0 0014.861 5.046 8 8 0 00-12.36-9.876c-.78.721-1.94 1.017-2.855.479l-12.53-7.37c-.505-.298-.731-.895-.731-1.482 0-.196.094-.383.263-.482l14.228-8.37c.791-.465 1.786-.307 2.544.21a8 8 0 10-2.416-2.605l-13.942 8.201c-.768.452-1.734.195-2.477-.295-.644-.425-1.2-1.072-1.2-1.842V17.704z" fill="url(#paint0_linear)"/><defs><linearGradient id="paint0_linear" x1="32.035" y1="0" x2="32.035" y2="75" gradientUnits="userSpaceOnUse"><stop stop-color="#A7156E"/><stop offset=".406" stop-color="#BD2055"/><stop offset="1" stop-color="#DD3131"/></linearGradient></defs></svg>