<svg width="78" height="78" fill="none" xmlns="http://www.w3.org/2000/svg"><circle cx="39" cy="39" r="33" stroke="#B41C62" stroke-width="2"/><path fill-rule="evenodd" clip-rule="evenodd" d="M39 14a7 7 0 100-14 7 7 0 000 14zm0 64a7 7 0 100-14 7 7 0 000 14zm27.579-56.678a7 7 0 11-9.9-9.899 7 7 0 019.9 9.9zM11.42 66.577a7 7 0 109.9-9.9 7 7 0 00-9.9 9.9zM71 46a7 7 0 110-14 7 7 0 010 14zM0 38.998a7 7 0 1014 0 7 7 0 00-14 0zm56.678 27.58a7 7 0 119.9-9.9 7 7 0 01-9.9 9.9zM11.424 11.42a7 7 0 109.9 9.9 7 7 0 00-9.9-9.9z" fill="#B41C62"/><path stroke="#B41C62" d="M38.5 9v62m21.775-52.567l-43.84 43.841M70 39.5H8m52.486 21.694l-43.84-43.84"/></svg>