<svg width="57" height="57" fill="none" xmlns="http://www.w3.org/2000/svg"><g clip-path="url(#clip0)" fill="#613654"><path d="M4.77 5.612c-.716 0-1.297.582-1.297 1.296v31.723c0 .715.581 1.296 1.296 1.296H52.23c.715 0 1.297-.581 1.297-1.296V6.908c0-.715-.582-1.296-1.297-1.296H4.77zm.372 1.67h3.344V9.74H5.142V7.28zm23.25 30.976h-2.163v-2.985a.835.835 0 10-1.67 0v2.984H12.793v-2.983a.835.835 0 10-1.67 0v2.983H8.96v-2.96c0-1.452 1.02-2.401 1.71-2.688.033-.014 4.174-1.619 4.194-1.627 1.884 2.25 5.592 2.418 7.621 0l4.198 1.627c.85.353 1.709 1.389 1.709 2.688v2.96zM25.647 27.37c.39.201.746 2.09-.371 2.903l-3.482-1.349v-.671a4.903 4.903 0 001.778-3.773v-2.417c0-.714-.582-1.296-1.296-1.296-.867 0-.56.013-1.413-.06-.61-.052-1.16-.535-1.309-1.148a.903.903 0 00-1.756 0 1.528 1.528 0 01-1.339 1.153c-.843.07-.739.055-1.383.055-.715 0-1.296.582-1.296 1.296v2.457a4.83 4.83 0 001.775 3.741v.662l-3.482 1.35c-1.117-.812-.762-2.701-.372-2.903.805-.415 1.526-1.002 1.526-1.899v-4.81c0-3.017 2.412-5.503 5.377-5.542a5.445 5.445 0 015.521 5.449v4.904c0 .9.712 1.48 1.522 1.898zm-7.166.309c-1.797-.115-3.03-1.528-3.03-3.16v-2.082c1.334 0 2.365-.146 3.226-1.09.882.965 1.925 1.09 3.225 1.09v2.043c0 1.766-1.474 3.324-3.42 3.199zm2.313 2.64c-1.289 1.07-3.128.91-4.242-.006.483-.26.673-.647.673-1.173.91.273 1.946.3 2.9.011 0 .563.257.956.67 1.169zm31.063 7.939H30.06v-2.96c0-1.828-1.13-3.57-2.75-4.237l-.016-.006-.335-.13c1.24-1.658.833-4.327-.548-5.039-.292-.15-.49-.29-.617-.433v-4.885a7.114 7.114 0 00-7.213-7.118c-3.873.05-7.025 3.285-7.025 7.212v4.786c-.13.148-.329.288-.621.438-1.386.715-1.784 3.389-.547 5.04l-.333.13-.015.005c-1.325.545-2.75 2.103-2.75 4.236v2.96H5.141V11.412h46.715v26.847zm0-28.517h-41.7V7.28h41.7v2.46z"/><path d="M32.677 16.616h1.135a.835.835 0 100-1.67h-1.135a.835.835 0 100 1.67zm0 3.475h1.135a.835.835 0 100-1.67h-1.135a.835.835 0 100 1.67zm0 3.476h1.135a.835.835 0 100-1.67h-1.135a.835.835 0 100 1.67zm0 3.476h1.135a.835.835 0 100-1.67h-1.135a.835.835 0 100 1.67zm0 3.433h1.135a.835.835 0 100-1.67h-1.135a.835.835 0 100 1.67zm0 3.476h1.135a.835.835 0 100-1.67h-1.135a.835.835 0 100 1.67zm4.304-17.336h10.487a.835.835 0 100-1.67H36.98a.835.835 0 100 1.67zm0 3.475h10.487a.835.835 0 000-1.67H36.98a.835.835 0 000 1.67zm0 3.476h10.487a.835.835 0 100-1.67H36.98a.835.835 0 100 1.67zm0 3.476h10.487a.835.835 0 100-1.67H36.98a.835.835 0 100 1.67zm0 3.433h10.487a.835.835 0 100-1.67H36.98a.835.835 0 100 1.67zm0 3.476h10.487a.835.835 0 100-1.67H36.98a.835.835 0 100 1.67z"/><path d="M56.165 23a.835.835 0 00.835-.836V6.182a4.048 4.048 0 00-4.043-4.043H4.043A4.048 4.048 0 000 6.182v33.175a4.048 4.048 0 004.043 4.044h18.44v2.424c0 1.017-.489 1.975-1.277 2.501l-2.087 1.392h-1.66a1.95 1.95 0 00-1.947 1.948v1.247a1.95 1.95 0 001.948 1.948h9.092a.835.835 0 100-1.67H17.46a.279.279 0 01-.278-.278v-1.246c0-.154.124-.279.278-.279h22.08c.153 0 .278.125.278.279v1.246a.279.279 0 01-.278.278h-9.092a.835.835 0 100 1.67h9.092a1.95 1.95 0 001.948-1.948v-1.246a1.95 1.95 0 00-1.948-1.949h-1.66l-2.086-1.392c-.788-.526-1.278-1.484-1.278-2.501V43.4h18.44A4.048 4.048 0 0057 39.358V26.061a.835.835 0 10-1.67 0v13.296a2.376 2.376 0 01-2.374 2.374H4.043a2.376 2.376 0 01-2.373-2.374V6.182A2.376 2.376 0 014.043 3.81h48.913a2.376 2.376 0 012.374 2.373v15.982c0 .462.374.835.835.835zM24.153 45.824V43.4h8.693v2.424c0 1.592.756 3.046 2.022 3.89l.004.003H22.128l.005-.003c1.265-.844 2.02-2.298 2.02-3.89z"/></g><defs><clipPath id="clip0"><path fill="#fff" d="M0 0h57v57H0z"/></clipPath></defs></svg>