<svg width="52" height="53" fill="none" xmlns="http://www.w3.org/2000/svg"><path d="M42.91 28.013a.764.764 0 00-.756.771c0 .54-.431.98-.96.98a.973.973 0 01-.962-.98.764.764 0 00-.757-.771.764.764 0 00-.756.771c0 1.39 1.11 2.522 2.474 2.522s2.474-1.132 2.474-2.522a.764.764 0 00-.756-.771z" fill="#613654"/><path d="M50.014 28.138l-2.13-.695a.9.9 0 01-.575-.594 14.1 14.1 0 00-2.014-4.06 14.834 14.834 0 00-1.345-1.617c.314-1.405.485-2.995.463-4.369-.031-1.965-.417-3.118-1.178-3.524-.41-.219-1.657-.884-8.407 2.265-.16.075-.31.167-.448.272-.455-.125-.92-.24-1.388-.344l-.171-.035c.547-1.218.866-2.541.926-3.907a.766.766 0 00-.722-.805.762.762 0 00-.79.736 9.042 9.042 0 01-2.573 5.949 8.741 8.741 0 01-3.188 2.075 21.536 21.536 0 00-6.091 0 8.741 8.741 0 01-3.188-2.075 9.014 9.014 0 01-2.582-6.353c0-2.4.917-4.657 2.582-6.354a8.675 8.675 0 016.234-2.632c2.354 0 4.568.935 6.233 2.632a8.978 8.978 0 011.643 2.313.75.75 0 001.017.342.778.778 0 00.335-1.036c-.493-1-1.141-1.911-1.924-2.71C28.782 1.624 26.188.53 23.428.53s-5.353 1.095-7.304 3.083a10.562 10.562 0 00-3.025 7.445c0 2.812 1.074 5.455 3.025 7.444a10.356 10.356 0 001.823 1.48c-.47.124-.937.264-1.4.422a.775.775 0 00-.477.976.754.754 0 00.958.487 19.945 19.945 0 0112.8 0 .758.758 0 00.958-.487.775.775 0 00-.478-.976 21.001 21.001 0 00-1.4-.422h.001a10.37 10.37 0 003.141-3.13 28.663 28.663 0 011.43.322c-.008.033-.017.067-.023.1-.37 1.786-.346 3.364.07 4.693.375 1.194 1.05 2.161 2.008 2.875 1.128.842 2.49 1.205 3.724 1.205.93 0 1.786-.206 2.414-.569.712-.41 1.308-1.276 1.78-2.575a12.546 12.546 0 012.412 4.41 2.43 2.43 0 001.556 1.6l2.13.695c.56.183.935.707.935 1.305v3.6c0 .598-.376 1.122-.935 1.305l-3.431 1.12a2.348 2.348 0 00-1.309 1.083c-1.348 2.375-3.468 4.34-6.3 5.841a1.207 1.207 0 00-.623.852l-1.099 5.932a.342.342 0 01-.334.282h-3.573a.342.342 0 01-.334-.282l-.61-3.278a1.192 1.192 0 00-1.351-.975c-1.54.237-3.126.357-4.715.357a29.61 29.61 0 01-3.468-.2 1.202 1.202 0 00-1.311.981l-.579 3.115a.342.342 0 01-.334.282h-3.574a.343.343 0 01-.334-.284l-1.058-5.603a1.21 1.21 0 00-.61-.842c-4.83-2.627-7.382-7.017-7.382-12.694 0-2.868.616-5.404 1.83-7.538 1.133-1.992 2.788-3.638 4.918-4.894a.78.78 0 00.277-1.054.75.75 0 00-1.034-.282c-4.132 2.436-6.624 6.194-7.31 10.967l-.218-.02a3.906 3.906 0 00-.277-1.54c-.44-1.112-1.341-1.915-2.298-2.045-.754-.103-1.472.223-1.97.894-.722.972-.604 1.742-.378 2.216.381.8 1.36 1.367 2.987 1.723a3.045 3.045 0 01-.148.206c-.96 1.227-2.092 1.499-2.827 1.524a.803.803 0 00-.775.806v.004c0 .433.335.786.76.806.054.002.11.003.17.003.93 0 2.422-.35 3.856-2.182.226-.289.41-.594.552-.91.143.017.28.031.412.044v-.001c-.026.418-.04.842-.04 1.273 0 3.212.751 6.076 2.232 8.512 1.367 2.247 3.322 4.086 5.816 5.47l1.028 5.446a1.865 1.865 0 001.821 1.538h3.574c.89 0 1.656-.647 1.821-1.538l.523-2.817a32.438 32.438 0 007.985-.153l.551 2.97a1.865 1.865 0 001.822 1.538h3.573c.89 0 1.656-.647 1.821-1.538l1.07-5.776c3.024-1.63 5.303-3.77 6.775-6.363a.83.83 0 01.46-.387l3.432-1.12A2.9 2.9 0 0052 34.512v-3.6a2.899 2.899 0 00-1.986-2.774zm-7.228-9.167c-.291 2.539-1.073 4.71-1.858 5.164-.892.515-2.952.614-4.499-.539-1.549-1.154-2.064-3.23-1.49-6.004a.927.927 0 01.519-.645c3.788-1.767 5.973-2.346 6.784-2.346a.76.76 0 01.275.038c.243.264.563 1.77.269 4.332zM2.125 27.535c-.079-.165.106-.454.224-.612.185-.25.356-.301.486-.301.027 0 .053.002.076.005.348.047.835.438 1.094 1.092.06.154.14.409.158.727-1.048-.221-1.862-.54-2.038-.911z" fill="#613654"/><path d="M24.164 10.174v-2.76c.933.067 1.28.502 1.6.502.4 0 .588-.516.588-.775 0-.666-1.281-.951-2.188-.979v-.367c0-.163-.2-.313-.4-.313-.227 0-.387.15-.387.313v.394c-1.268.136-2.535.816-2.535 2.53 0 1.74 1.334 2.23 2.535 2.665v3.195c-1.361-.109-1.721-1.06-2.162-1.06-.333 0-.613.448-.613.775 0 .666 1.12 1.577 2.774 1.604v.422c0 .163.16.312.387.312.2 0 .4-.15.4-.312v-.463c1.442-.204 2.429-1.128 2.429-2.8 0-1.85-1.268-2.448-2.428-2.883zm-.708-.259c-.707-.272-1.28-.557-1.28-1.332 0-.707.533-1.047 1.28-1.142v2.474zm.628 4.637v-2.87c.653.286 1.174.667 1.174 1.524 0 .775-.454 1.21-1.174 1.346z" fill="#613654"/></svg>