<svg width="57" height="43" fill="none" xmlns="http://www.w3.org/2000/svg"><path d="M19.503 7.533l.876-1.17-.189.34a.089.089 0 00.024.113c.035.024.08.012.102-.027l.348-.625.352.632a.07.07 0 00.102.027.088.088 0 00.023-.114l-.188-.34.856 1.22c.001 1.024-.447 1.31-.931 1.507h-.424c-.449-.254-.918-.52-.951-1.563zm8.654 1.27L16.99 16.35l.002-15.066 11.166 7.52zm-9.619.347c.2.201.649.291 1.188.291.54 0 .782-.104.767-.183h.347c-.016.08.448.202.857.202.41 0 .91-.134 1.057-.282.147-.147.345-1.048-.172-1.568-.004-.01-1.741-1.544-1.741-1.544.102.015.204.026.307.03a.43.43 0 00.157-.023c.152-.066.227-.256.168-.425-.059-.17-.23-.253-.38-.188-.126.055-.366.39-.412.456l-.008.011h-.013l-.008-.01c-.048-.066-.286-.401-.411-.456-.152-.066-.322.018-.381.187l-.002.007c-.057.168.019.356.17.419.05.017.103.024.156.021.1-.003.198-.013.296-.027 0 0-1.738 1.537-1.742 1.558-.532.535-.4 1.322-.2 1.524zm4.276.893h-4.24v.271s1.22.027 1.836 1.701h.568c.616-1.674 1.836-1.699 1.836-1.699v-.273zm-2.627-4.431a.132.132 0 00-.053-.011c-.08-.001-.146.07-.148.16 0 .024.005.048.014.07a.15.15 0 00.08.086c.125.016.25.012.374-.013a1.355 1.355 0 00-.267-.292zm1.065.308c.076-.033.113-.128.083-.213-.03-.084-.114-.125-.19-.092-.1.082-.19.18-.266.292.123.024.249.029.373.013zm-8.418 2.752l-.252-.512-.25.512-.562.082.406.399-.096.562.502-.266.503.266-.096-.563.406-.398-.561-.082zm3.39-7.388l.003 15.066L5.059 8.803l11.166-7.519zm-.449 6.827l-2.016-1.52-.01-.095-.113.001-.002-.001v.002h-.064c-.107.373-.542.652-1.064.652-.506 0-.928-.263-1.05-.618l-.155.002L9.16 8.15l1.07 1.192.903-.527-.214 2.912h3.403l-.31-2.828.693.405 1.07-1.193zm30.155 1.89c-.001.001-.07.025-.268-.052-.143-.056-.182-.122-.183-.15a.115.115 0 00-.227-.031c-.005.025-.032.257.328.396.14.055.242.072.317.072.09 0 .137-.026.159-.043.05-.04.066-.116.027-.167-.04-.05-.104-.063-.153-.024zm6.088-1.198L40.851 16.35l.002-15.066 11.165 7.52zm-9.203-.215s.68.1 1.248-.41.811-1.439.811-1.439-1.227.156-1.672.574c-.556.524-.387 1.275-.387 1.275zm4.417 1.833c0-.427-.205-.793-.645-.95-.14-.05-.386 0-.555.004.005-.216-.005-.708-.172-1.097a3.548 3.548 0 00-.266-.494c-.106-.172-.183-.296-.183-.441l-.002-.006.002-.11c0-.513.027-.732.027-.735a.115.115 0 00-.099-.129.116.116 0 00-.128.1c-.001.009-.03.232-.03.764 0 .47 0 .645-.525 1.174-.163.163-.291.3-.438.458l-.153.164c-.21.225-.447.566-.478.612-.169-.01-.38-.028-.496.02-.368.15-.49.468-.49.835 0 .513.53 1.137 1.103 1.137.402 0 .82-.326.997-.7a1.402 1.402 0 01-.094-1.034.86.86 0 00-.38-.259c-.089-.031-.226-.018-.353-.006.092-.127.232-.312.358-.446l.154-.165c.145-.156.271-.292.432-.453.314-.316.459-.53.528-.745l.053.087c.08.127.169.272.25.463.148.345.157.8.153.999-.172-.01-.364-.02-.477.026-.409.167-.545.52-.545.927 0 .57.549 1.262 1.226 1.262.677 0 1.226-.692 1.226-1.262zm-3.6-.22s-.062.02-.233-.047c-.144-.056-.157-.117-.158-.125a.115.115 0 00-.227-.03c-.004.025-.03.242.302.37.128.05.222.066.29.066.084 0 .13-.025.15-.041.05-.04.068-.118.028-.168-.038-.05-.102-.064-.152-.025zM34.98 8.823a.096.096 0 00-.096.096v2.548c0 .053.043.096.096.096a.096.096 0 00.096-.096V8.919a.096.096 0 00-.096-.096zm5.105-7.539l.002 15.066L28.92 8.803l11.166-7.519zm-1.367 7.78c0 .132.107.24.239.24a.24.24 0 00.239-.24.24.24 0 00-.24-.241.24.24 0 00-.238.24zm-.459-.462c0 .08.064.144.143.144a.144.144 0 000-.288.144.144 0 00-.143.144zm-.239.519a.134.134 0 10.268 0 .134.134 0 00-.134-.135.134.134 0 00-.134.135zm-.392-.933a.153.153 0 10.306 0 .153.153 0 00-.153-.154.153.153 0 00-.153.154zm-.277.952c0 .07.056.125.124.125a.125.125 0 00.124-.125.125.125 0 00-.124-.125.125.125 0 00-.124.125zm-.454 1.382c-.452-.216-.747-.573-.747-.978h.747v-.298c0-.404-.837-1.202-.837-1.616a51.2 51.2 0 00-.057-1.519h.158v-.577h-.956v.577h.158a48.747 48.747 0 00-.058 1.52c0 .413-.836 1.172-.836 1.615v2.5c0 .127.102.23.229.23h1.97a.23.23 0 00.229-.23v-1.224zm2.571-.809h-3.107c0 .417.646.756 1.46.78v1.258c0 .048-.573.053-.573.053a.11.11 0 000 .22h1.329a.11.11 0 000-.22s-.574-.005-.574-.053v-1.257c.817-.024 1.465-.364 1.465-.78zM16.99 18.188l11.166 7.52-11.168 7.546.002-15.066zm2.255 6.005c0 .093.087.169.193.169h.53c.107 0 .194-.076.194-.169v-.163c0-.092-.087-.168-.193-.168h-.53c-.107 0-.194.076-.194.168v.163zm-.46 3.513c0 .107.088.194.194.194h4.393a.195.195 0 00.194-.194V24.71a.195.195 0 00-.194-.195h-.585c-.16-.365-.35-.769-.41-.769h-1.6c-.059 0-.25.404-.41.77H18.98a.195.195 0 00-.193.194v2.996zm1.3-1.585c0-.833.673-1.51 1.502-1.51s1.5.677 1.5 1.51c0 .834-.671 1.51-1.5 1.51-.83 0-1.501-.676-1.501-1.51zm.491 0c0 .562.453 1.017 1.01 1.017.559 0 1.011-.455 1.011-1.017 0-.56-.452-1.016-1.01-1.016s-1.01.455-1.01 1.016zm.676-.202c.12-.24.204-.456.055-.531-.15-.075-.369.06-.488.3-.12.242-.094.498.056.573.15.075.258-.1.377-.342zm-5.028-7.73l.002 15.065-11.168-7.546 11.166-7.52zm-8.44 8.021a65.938 65.938 0 002.853-.094c.26-.014.546-.033.844-.055a1.919 1.919 0 00-.082-.157c-.152-.26-.538-.614-.542-.617l.154-.171c.017.015.416.38.586.67.053.092.095.179.128.257.114-.01.23-.018.346-.027a1.91 1.91 0 00-.06-.112c-.153-.26-.539-.614-.542-.617l.154-.171c.017.015.415.38.585.67.043.074.079.144.108.21l.34-.03-.033-.062c-.153-.26-.539-.614-.543-.617l.155-.171c.016.015.415.38.585.67.032.056.06.108.084.159l.336-.03-.005-.01c-.153-.262-.539-.615-.543-.618l.154-.171c.017.015.416.38.586.67l.058.106c.627-.058 1.173-.113 1.5-.146l-.015-.016c.03-.037.145-.254-.033-.975-.016.001-.224-.674-.375-1.048a.074.074 0 00-.05-.049s-.302-.176-.474.098-.225.69-.574.714c-.348.023-.49-.112-.588-.245a.774.774 0 01-.165-.347c-.036-.151-.042-.359-.157-.403l-.124-.045c-.14-.052-.285.037-.386.131-.1.094-.265.267-.544.404-.28.137-.532.174-.532.174l-.106.112c-.008 0-.008.01-.008.01v.008l.025.045-.113.083-.09-.037h-.008l-.148.08c-.008.001-.007.018-.007.018l.035.05-.125.07-.099-.045h-.016l-.139.089v.009l.045.066-.127.064-.083-.047s-.008-.008-.008 0l-.148.072-.008.01v.008l.029.068-.113.076-.083-.047H9.67l-.008.001-.14.071-.008.01v.008l.028.068-.148.081-.067-.047s-.008-.008-.016 0a.735.735 0 00-.122.105c-.008.01-.008.01.001.018l.029.044c-.03.046-.176.092-.47.25-.294.16-.765.38-.965.7zm7.293.307l-.034-.582v-.009c-.785.08-2.968.257-4.396.374-1.688.139-2.497.092-2.898.095l-.008.403c0 .017.01.025.026.033l.413.059a6.5 6.5 0 001.303.05l5.564-.386c.016 0 .03-.02.03-.037zm32.678-1.348a.282.282 0 00-.099-.227c-.2-.177-.642-.189-.904-.172a4.04 4.04 0 01-.482 1.577c.758-.384 1.485-.865 1.485-1.178zm-6.903-6.98l11.166 7.519-11.167 7.546.002-15.066zm3.398 4.424c-.025.26.353.48.322.803-.032.323-.066.526-.066.526s.422-.38.453-.707c.032-.327-.347-.542-.321-.803.025-.261.065-.525.065-.525s-.428.447-.453.706zm-1.678 1.672c0 1.199.439 2.242 1.087 2.784h2.031a2.3 2.3 0 00.181-.176c.684-.3 2.205-1.043 2.205-1.724a.609.609 0 00-.208-.47c-.29-.256-.81-.27-1.098-.255.002-.053.008-.105.008-.16H43.24c-.009.167-.004.398.054.67.117.551.301.82.303.822a.163.163 0 01-.131.255.16.16 0 01-.13-.067c-.01-.013-.224-.32-.356-.943a2.861 2.861 0 01-.061-.736h-.347zm-.694 2.945c0 .228.585.427 1.447.53h2.7c.862-.103 1.446-.302 1.446-.53h-5.593zm-3.845-1.784c.025.106.042.216.042.33 0 .105-.014.207-.035.305a1.462 1.462 0 01-.625.919 1.438 1.438 0 01-1.887-.266 1.458 1.458 0 010-1.916 1.439 1.439 0 012.19 0c.152.177.26.392.315.628zm-.652-.299a.15.15 0 00-.214-.014l-.422.373a.292.292 0 00-.122-.029c-.027 0-.051.01-.076.016l-.586-.72a.152.152 0 10-.235.192l.612.752c-.004.02-.012.038-.012.06 0 .164.133.298.297.298a.298.298 0 00.297-.299c0-.006-.003-.01-.003-.016l.45-.398a.153.153 0 00.014-.215zm-1.55 2.243v.293h1.584v-.293a1.773 1.773 0 01-1.584 0zm1.584-3.227v-.294H35.83v.294a1.771 1.771 0 011.584 0zm2.67-5.975l.003 15.066-11.168-7.546 11.166-7.52zm-1.409 7.575c0-.186.07-.336-.3-.346a1.802 1.802 0 00-.658-1.064v-.718a.07.07 0 00-.07-.07h-.363v-.682H35.96v.681h-.363a.07.07 0 00-.07.07v.72a1.8 1.8 0 000 2.845v.719c0 .038.032.07.07.07h.363v.681h1.324v-.681h.363a.07.07 0 00.07-.07v-.719a1.8 1.8 0 00.662-1.09c.364-.012.296-.161.296-.346zm-9.754.887l11.166 7.52-11.168 7.546.002-15.066zm1.109 6.25h5.235v-.158a.23.23 0 00-.23-.231h-1.685c-.645 0-.832-.923-1.964-.923-.933 0-1.356.736-1.356 1.154v.158zm-.488 2.417c.021.031.056.05.094.05h.43v.995a.115.115 0 10.23 0v-.995h4.818v.995a.115.115 0 10.23 0v-.995h.3a.114.114 0 00.095-.05.117.117 0 00.013-.106l-.466-1.255c-.004-.011-.014-.018-.021-.028v-.826H30.03v.808a.114.114 0 00-.036.046l-.466 1.255a.117.117 0 00.014.106zm5.563-1.19h-.429l.132.572h-.87l-.058-.573h-.385l.041.573h-.745l-.025-.573h-.344l-.033.573h-.745l.04-.573h-.343l-.099.573h-.822l.132-.573h-.376l-.375 1.01h5.678l-.374-1.01zm-7.692 2.855H25.59v-2.625h1.823v2.626zm-.797-.13a.115.115 0 00-.114-.115.115.115 0 00-.115.115.115.115 0 10.23 0zm.661-2.346h-1.551v2.217h1.551v-2.217zm.877-7.856l.002 15.066L16.99 34.17l11.166-7.52zm-2.768 8.804h-4.321v-3.318h5.035v1.997h.135v-2.127h-5.305v3.577h2.037v.689h-.66v.45h2.552v-.45h-.661v-.689h1.188v-.13zm0-1.321h.554V32.32h-4.715v2.95h4.162v-1.137zm2.162.094h-2.093v2.885h2.093v-2.885zM16.15 17.282L4.982 24.828l.002-15.065 11.166 7.52zm-9.925 1.022h5.13l-.304-1.477c-.014-.07-.072-.125-.148-.155a.114.114 0 00-.018-.087l-1.818-2.698a.346.346 0 00-.147-.218l-.057-.084a.115.115 0 00-.19 0l-.025.037a.345.345 0 00-.262.335c0 .016.002.03.004.046l-1.749 2.582a.114.114 0 00-.01.109.21.21 0 00-.103.133l-.303 1.477zm5.218.43l-.041-.2H6.178l-.041.2c-.053.258.195.493.521.493h4.263c.326 0 .575-.235.522-.492zm-2.713-4.43a.34.34 0 01-.214-.077L6.875 16.65h3.777l-1.663-2.467a.341.341 0 01-.26.12zm35.213 2.565a.173.173 0 00-.178-.168.173.173 0 00-.166.18.173.173 0 10.344-.012zm8.074-7.106l.001 15.065-11.167-7.546 11.166-7.52zm-8.214 7.702c.439-.345 1.317-.584 1.742-.684.356-.084.77-.129 1.193-.129.715 0 1.41.121 1.956.341.317.128.53.24.685.322.176.092.257.133.336.133a.477.477 0 00.143-.027c.024-.008.048-.014.072-.02-.277-.112-.54-.254-.39-.352.282-.182 1.062-.014 1.062-.014s-.473-.592-1.606-.347c-.42.091-.391-.171-1.262-.49a4.565 4.565 0 00-.86-.202c-.14-.02-.254-.51-.399-.52-.21-.015-.537.477-.747.484-.395.014-.852.06-1.192.151-.612.165-1.619.552-1.723.902-.053.18.467.346.99.452zm6.57.406c.286-.173 1.075 0 1.075 0s-.488-.562-1.52-.23c-.41.131-.46-.087-1.32-.433-.86-.347-2.093-.419-3.01-.202-.618.145-1.707.49-1.822.836-.115.346 1.921.707 1.979.62.057-.086.057-.533.057-.533s.015.404.646.836c.63.433 1.878.13 1.505.044-.373-.087-.703-.448-.703-.448s.265.108.312.118c.84.182 2.113-.437 2.399-.218.3.23 1.305.086 1.305.086s-1.19-.303-.904-.476zm-5.636-.317a.173.173 0 00-.172.173c0 .095.077.173.172.173a.173.173 0 00.172-.173.173.173 0 00-.172-.173zm-15.32 1.942l-.688 2.693-1.032.5.038-1.116.076-2.038-.956.038-.274-.896-.614.55-.335 3.73-1.912-1.307.994-.577-.089-1.66-.79.39-.536-1.884 1.236-.201-.05-1.568-1.033-1.346.918-.193 1.147-2.154.726 1.808.727.27-.044.526 1.268-.065-.612-2.577 2.141.923-.487 1.621 1.367-.275.803-2.538 1.873 1.384-1.682 1.231 1.568.116.535 1.461-1.262-.038-.153 1.654 1.262.038.459 1.5-1.644.116-.383 2.73-.994.654-.65-3.538-.915.037-.003.001zm.383-2.73l-.115.96.112.22 1.111-.027-.152-1.5-.998.217.042.13zm-1.874-.347l-.841.039-.259-.936-.697.666v1.231l1.07.077-.248.563.975-.024v-1.616z" fill="#fff"/></svg>