<svg width="62" height="62" fill="none" xmlns="http://www.w3.org/2000/svg"><g clip-path="url(#clip0)" fill="#613654"><path d="M53.348 25.796l2.066-5.002c.81-1.96.085-4.19-1.723-5.3l-4.61-2.833L47.81 7.4a4.28 4.28 0 00-4.51-3.276l-5.395.418-4.119-3.51a4.279 4.279 0 00-5.573 0l-4.12 3.51-5.395-.418A4.28 4.28 0 0014.19 7.4l-1.268 5.26-4.611 2.833a4.279 4.279 0 00-1.723 5.301l2.066 5.002L6.587 30.8a4.278 4.278 0 001.723 5.3l4.61 2.833 1.27 5.26a4.276 4.276 0 003.687 3.263l-4.979 11.152a2.088 2.088 0 00.386 2.309c.59.633 1.462.843 2.276.545l3.219-1.175a.892.892 0 01.678.026l3.316 1.5a2.112 2.112 0 002.928-1.447l.734-3.16a.908.908 0 00-1.77-.41l-.733 3.159a.292.292 0 01-.157.198.293.293 0 01-.253.005l-3.316-1.5a2.7 2.7 0 00-2.05-.077l-3.22 1.175a.289.289 0 01-.324-.078.29.29 0 01-.055-.33L19.9 47.376l2.8-.218-1.764 5.292a.908.908 0 00.574 1.148c.358.11.89 0 1.149-.574l1.868-5.605 1.932 1.647-.839 3.613a.908.908 0 00.68 1.09c.377.09.91-.114 1.09-.679l.626-2.698c.695.678 1.941 1.22 2.983 1.2.932.015 2.145-.415 2.962-1.18l2.306 9.935a2.102 2.102 0 001.144 1.427 2.11 2.11 0 001.829 0l2.985-1.435a.891.891 0 01.685-.038l3.56 1.24a2.09 2.09 0 002.257-.567 2.09 2.09 0 00.375-2.297l-1.797-4.025a.908.908 0 10-1.658.74l1.796 4.025a.289.289 0 01-.053.328.288.288 0 01-.323.081l-3.56-1.24a2.698 2.698 0 00-2.069.116l-2.985 1.434a.292.292 0 01-.256 0 .291.291 0 01-.16-.2l-2.52-10.85 2.143-1.827 1.922 5.765a.908.908 0 101.723-.574l-1.757-5.272 2.518.195 1.849 4.14a.908.908 0 101.658-.74l-1.48-3.315a4.276 4.276 0 003.717-3.265l1.27-5.261 4.61-2.833a4.278 4.278 0 001.723-5.3l-2.066-5.003zm-.607 8.756l-4.718 2.898a1.504 1.504 0 00-.68.934l-1.298 5.383a2.47 2.47 0 01-2.603 1.891l-5.52-.428a1.503 1.503 0 00-1.098.357l-4.215 3.591a2.47 2.47 0 01-3.217 0l-4.215-3.591c-.198-.168-.64-.39-1.098-.357l-5.52.428a2.47 2.47 0 01-2.604-1.891l-1.298-5.383a1.504 1.504 0 00-.679-.934L9.26 34.552a2.47 2.47 0 01-.994-3.06l2.113-5.118a1.504 1.504 0 000-1.155L8.266 20.1a2.47 2.47 0 01.994-3.06l4.718-2.899c.344-.21.585-.542.679-.934l1.299-5.382a2.47 2.47 0 012.602-1.892l5.521.429a1.5 1.5 0 001.098-.357l4.215-3.592a2.47 2.47 0 013.217 0l4.215 3.592c.306.26.697.387 1.098.357l5.52-.429a2.471 2.471 0 012.603 1.892l1.299 5.382c.094.392.336.723.679.935l4.718 2.898a2.47 2.47 0 01.994 3.06l-2.113 5.118a1.503 1.503 0 000 1.155l2.113 5.118a2.47 2.47 0 01-.994 3.06z"/><path d="M49.995 26.373a1.503 1.503 0 010-1.154l2.176-5.27c.285-.69.03-1.475-.606-1.866l-4.858-2.984a1.503 1.503 0 01-.679-.934l-1.337-5.542a1.506 1.506 0 00-1.588-1.154l-5.683.441a1.504 1.504 0 01-1.098-.356l-4.34-3.698a1.506 1.506 0 00-1.962 0l-4.34 3.697a1.503 1.503 0 01-1.097.357l-5.684-.44a1.508 1.508 0 00-1.588 1.153l-1.337 5.542a1.503 1.503 0 01-.679.934l-4.857 2.984a1.507 1.507 0 00-.607 1.867l2.176 5.27c.153.371.153.781 0 1.153l-2.176 5.27c-.285.69-.03 1.476.606 1.867l4.858 2.984c.343.21.584.542.678.934l1.338 5.542a1.506 1.506 0 001.587 1.153l5.684-.44c.403-.032.792.095 1.098.356l4.34 3.698a1.51 1.51 0 001.962 0l4.34-3.698a1.504 1.504 0 011.097-.357l5.684.441a1.51 1.51 0 001.588-1.153l1.337-5.542c.095-.392.336-.723.679-.934l4.857-2.984a1.507 1.507 0 00.607-1.867l-2.176-5.27zm.497-7.117zm-4.736 15.69a3.307 3.307 0 00-1.493 2.056l-1.276 5.29-5.427-.42a3.306 3.306 0 00-2.416.785L31 46.187l-4.142-3.53c-.551-.457-1.489-.876-2.417-.785l-5.426.42-1.276-5.29a3.308 3.308 0 00-1.494-2.056l-4.637-2.849 2.077-5.03a3.307 3.307 0 000-2.54l-2.078-5.032 4.638-2.849a3.307 3.307 0 001.493-2.055l1.277-5.29 5.426.42c.884.07 1.742-.21 2.417-.785L31 5.406l4.143 3.53a3.309 3.309 0 002.416.785l5.426-.42 1.277 5.29a3.308 3.308 0 001.493 2.056l4.638 2.848-2.078 5.031a3.306 3.306 0 000 2.54l2.078 5.031-4.638 2.85z"/><path d="M42.441 23.923c.319-.45.506-1 .506-1.593a2.767 2.767 0 00-2.764-2.764h-4.15c-1.209.02-2.38-1.164-2.107-2.59l.44-2.351a4.211 4.211 0 00-2.268-4.538 1.909 1.909 0 00-2.657 1.108l-.9 2.676a.908.908 0 001.721.58l.9-2.677a.097.097 0 01.056-.06.087.087 0 01.078.002 2.389 2.389 0 011.284 2.576l-.439 2.35c-.487 2.279 1.379 4.791 3.892 4.74h4.15a.949.949 0 010 1.896H37.64a.908.908 0 100 1.816h3.028a.949.949 0 010 1.896H37.64a.908.908 0 100 1.816h2.544a.949.949 0 010 1.896H37.64a.908.908 0 100 1.816h1.262a.928.928 0 010 1.854h-9.736c-2.197 0-3.296-1.403-3.6-1.866V22.75c1.385-.886 2.572-2.391 3.305-4.217a.908.908 0 00-1.685-.676c-.455 1.132-1.132 2.124-1.907 2.83a2.205 2.205 0 00-1.918-1.121h-1.664c-1.216 0-2.205.99-2.205 2.205v4.865a.908.908 0 101.816 0v-4.865a.39.39 0 01.389-.389h1.665c.214 0 .388.174.388.389v12.212a.389.389 0 01-.389.389h-1.664a.389.389 0 01-.389-.389v-3.086a.908.908 0 10-1.816 0v3.087c0 1.215.99 2.204 2.205 2.204h1.665c.884 0 1.646-.524 1.997-1.278.853.669 2.098 1.278 3.807 1.278h9.736a2.746 2.746 0 002.469-3.938 2.767 2.767 0 001.576-2.496c0-.593-.187-1.143-.506-1.593a2.76 2.76 0 000-4.238z"/></g><defs><clipPath id="clip0"><path fill="#fff" d="M0 0h62v62H0z"/></clipPath></defs></svg>