<svg width="69" height="69" fill="none" xmlns="http://www.w3.org/2000/svg"><path d="M50.994 44.445L42.29 42.51v-2.75c3.247-2.344 5.397-6.105 5.54-10.373 2.882-3.04 4.476-6.993 4.476-11.2v-4.833a5.574 5.574 0 00-4.829-5.517A13.952 13.952 0 0034.928 0h-1.873A16.44 16.44 0 0023.01 3.447a16.253 16.253 0 00-6.316 12.914v1.828c0 4.206 1.594 8.16 4.475 11.2a13.333 13.333 0 005.541 10.373v2.75l-8.703 1.933c-6.67 1.482-11.33 7.288-11.33 14.123V69h55.646V58.568c0-6.835-4.659-12.64-11.33-14.123zm-7.727.562l-1.699 7.64L36.32 48.9l5.15-4.293 1.797.4zM34.5 47.519l-5.564-4.638v-1.82a13.263 13.263 0 005.564 1.23c1.988 0 3.869-.45 5.565-1.23v1.82L34.5 47.52zm-13.355-28.6v6.86a13.98 13.98 0 01-2.225-7.59V16.36c0-4.393 1.988-8.46 5.456-11.157a14.199 14.199 0 018.679-2.978h1.873c4.703 0 8.938 2.793 10.791 7.116l.29.674h.733a3.343 3.343 0 013.339 3.339v4.833c0 2.735-.783 5.345-2.226 7.59v-9.084h-1.552a6.37 6.37 0 01-5.312-2.844l-.33-.495h-2.34l-.324.54a10.4 10.4 0 01-8.873 5.024h-7.979zm2.226 10.016v-7.79h5.753c4.158 0 8.084-2.098 10.408-5.518a8.585 8.585 0 006.098 3.267v10.042c0 6.136-4.993 11.129-11.13 11.129-6.136 0-11.129-4.993-11.129-11.13zm4.158 15.673l5.15 4.293-5.248 3.748-1.698-7.641 1.796-.4zm2.609 22.166H20.033v-4.452h-2.226v4.452H8.904v-8.207c0-5.781 3.941-10.696 9.585-11.949l5.072-1.127 2.428 10.925 3.847-2.749 1.287 1.287-.985 11.82zm6.491 0h-4.258l1.055-12.664-1.755-1.755 2.83-2.02 2.828 2.021-1.755 1.755 1.055 12.663zm23.468 0h-8.903v-4.452h-2.226v4.452H38.863l-.985-11.82 1.286-1.287 3.848 2.75L45.44 45.49l5.072 1.127c5.643 1.253 9.585 6.168 9.585 11.95v8.206z" fill="#fff"/><path d="M32 25h-5m15 0h-5" stroke="#fff" stroke-width="2"/></svg>