<svg width="75" height="61" fill="none" xmlns="http://www.w3.org/2000/svg"><g clip-path="url(#clip0)" fill="#fff"><path d="M31.509 56.521C19.092 57.75 8.374 52.121 7.566 43.94c-.806-8.178 8.61-15.805 21.025-17.037 12.418-1.233 23.137 4.399 23.943 12.575.805 8.181-8.607 15.81-21.025 17.043zm24.837-27.153c-1.056-.316-1.78-.533-1.228-1.925 1.198-3.024 1.322-5.632.023-7.493-2.435-3.49-9.097-3.302-16.733-.093 0-.005-2.398 1.053-1.786-.855 1.175-3.79.998-6.963-.83-8.795-4.142-4.16-15.16.157-24.609 9.633C4.108 26.94 0 34.464 0 40.97c0 12.445 15.907 20.01 31.468 20.01 20.399 0 33.968-11.892 33.968-21.332 0-5.705-4.788-8.942-9.09-10.28zM69.892 6.594C64.966 1.114 57.7-.974 50.992.456h-.001a2.867 2.867 0 00-1.81 1.251 2.887 2.887 0 00.848 3.985 2.866 2.866 0 002.161.4 14.101 14.101 0 0113.44 4.363 14.182 14.182 0 013.325 6.531 14.21 14.21 0 01-.376 7.325 2.886 2.886 0 00.871 3.082 2.864 2.864 0 003.169.372 2.879 2.879 0 001.426-1.676l.001-.012c2.103-6.546.774-14.01-4.154-19.483z"/><path d="M62.326 13.444a9.643 9.643 0 00-9.206-2.985 2.467 2.467 0 00-1.609 1.06 2.484 2.484 0 001.658 3.827c.327.053.66.04.982-.039v.002a4.724 4.724 0 015.616 3.646 4.755 4.755 0 01-.129 2.455h.002a2.489 2.489 0 00.15 1.892 2.466 2.466 0 003.326 1.079 2.48 2.48 0 001.228-1.446c1.027-3.19.385-6.823-2.018-9.491zM32.193 41.706c-.435.747-1.394 1.105-2.146.794-.74-.306-.973-1.139-.552-1.871.433-.729 1.357-1.084 2.093-.79.75.274 1.02 1.118.605 1.867zm-3.956 5.097c-1.201 1.922-3.773 2.765-5.711 1.877-1.91-.872-2.473-3.106-1.27-4.98 1.186-1.867 3.671-2.7 5.594-1.89 1.945.832 2.567 3.05 1.386 4.993zm4.512-13.607c-5.909-1.543-12.588 1.412-15.154 6.636-2.614 5.328-.086 11.242 5.882 13.176 6.185 2 13.473-1.065 16.007-6.817 2.5-5.621-.62-11.41-6.735-12.995z"/></g><defs><clipPath id="clip0"><path fill="#fff" d="M0 0h75v61H0z"/></clipPath></defs></svg>