<svg width="49" height="40" fill="none" xmlns="http://www.w3.org/2000/svg"><g clip-path="url(#clip0)"><path d="M20.586 37.063c-8.112.806-15.115-2.886-15.643-8.25-.526-5.363 5.625-10.364 13.736-11.172 8.113-.808 15.117 2.885 15.643 8.246.526 5.365-5.623 10.368-13.736 11.176zm16.227-17.805c-.69-.207-1.163-.35-.803-1.263.783-1.983.864-3.693.015-4.913-1.59-2.288-5.943-2.165-10.932-.061 0-.003-1.567.69-1.166-.561.767-2.485.651-4.566-.543-5.767-2.706-2.728-9.904.103-16.078 6.317C2.684 17.665 0 22.6 0 26.866c0 8.16 10.392 13.121 20.56 13.121 13.326 0 22.192-7.797 22.192-13.988 0-3.74-3.129-5.863-5.94-6.741z" fill="url(#paint0_linear)"/><path d="M45.661 4.324A12.915 12.915 0 0033.314.3h-.002a1.87 1.87 0 00-1.182.82 1.898 1.898 0 00.554 2.614 1.869 1.869 0 001.412.262 9.192 9.192 0 018.78 2.86 9.312 9.312 0 012.173 4.284 9.352 9.352 0 01-.246 4.803h.001a1.901 1.901 0 00.569 2.02 1.87 1.87 0 002.07.245c.443-.228.778-.623.932-1.1V17.1c1.374-4.293.506-9.187-2.714-12.776z" fill="url(#paint1_linear)"/><path d="M40.717 8.816a6.286 6.286 0 00-6.014-1.958 1.609 1.609 0 00-1.051.695 1.632 1.632 0 001.083 2.51c.213.034.431.026.641-.026v.002a3.075 3.075 0 012.942.955 3.13 3.13 0 01.643 3.045h.002c-.132.41-.097.857.098 1.241a1.606 1.606 0 002.173.707c.382-.196.67-.537.801-.948a6.385 6.385 0 00-1.318-6.223z" fill="url(#paint2_linear)"/><path d="M21.032 27.348c-.284.49-.91.725-1.402.52-.483-.2-.635-.746-.36-1.226.282-.478.886-.71 1.367-.519.49.18.666.734.395 1.225zm-2.585 3.342c-.784 1.26-2.465 1.813-3.73 1.231-1.248-.571-1.616-2.037-.83-3.265.775-1.224 2.398-1.77 3.655-1.24 1.27.546 1.677 2 .905 3.274zm2.949-8.922c-3.86-1.012-8.225.926-9.901 4.351-1.708 3.494-.056 7.372 3.843 8.64 4.04 1.312 8.802-.698 10.458-4.47 1.634-3.686-.405-7.481-4.4-8.521z" fill="url(#paint3_linear)"/></g><defs><linearGradient id="paint0_linear" x1="6.124" y1="12.134" x2="5.379" y2="35.85" gradientUnits="userSpaceOnUse"><stop stop-color="#DC5160"/><stop offset="1" stop-color="#B52B3A"/></linearGradient><linearGradient id="paint1_linear" x1="34.288" y1="3.485" x2="33.756" y2="16.186" gradientUnits="userSpaceOnUse"><stop stop-color="#DC5160"/><stop offset="1" stop-color="#B52B3A"/></linearGradient><linearGradient id="paint2_linear" x1="34.663" y1="8.501" x2="34.394" y2="15.023" gradientUnits="userSpaceOnUse"><stop stop-color="#DC5160"/><stop offset="1" stop-color="#B52B3A"/></linearGradient><linearGradient id="paint3_linear" x1="13.05" y1="24.078" x2="12.725" y2="33.512" gradientUnits="userSpaceOnUse"><stop stop-color="#DC5160"/><stop offset="1" stop-color="#B52B3A"/></linearGradient><clipPath id="clip0"><path fill="#fff" d="M0 0h49v40H0z"/></clipPath></defs></svg>