<svg width="75" height="61" fill="none" xmlns="http://www.w3.org/2000/svg"><path fill-rule="evenodd" clip-rule="evenodd" d="M50.993.456c6.707-1.43 13.973.659 18.9 6.138 4.927 5.474 6.256 12.937 4.153 19.483v.012a2.879 2.879 0 01-1.427 1.676 2.864 2.864 0 01-3.169-.372 2.877 2.877 0 01-1.001-1.964c-.03-.377.014-.757.13-1.117v-.001a14.21 14.21 0 00.376-7.325 14.182 14.182 0 00-3.325-6.531 14.101 14.101 0 00-13.44-4.363 2.862 2.862 0 01-2.965-1.183A2.885 2.885 0 0150.991.455h.002zM7.566 43.94c.808 8.18 11.526 13.81 23.943 12.581 12.418-1.233 21.83-8.862 21.025-17.043C51.728 31.3 41.009 25.67 28.59 26.903 16.176 28.135 6.76 35.76 7.566 43.94zm47.552-16.497c-.553 1.392.172 1.61 1.228 1.925 4.302 1.34 9.09 4.576 9.09 10.281 0 9.44-13.57 21.332-33.968 21.332C15.907 60.981 0 53.415 0 40.97c0-6.506 4.108-14.03 11.183-21.13 9.449-9.476 20.467-13.793 24.609-9.633 1.828 1.832 2.005 5.005.83 8.794-.58 1.81 1.544.953 1.767.863a.323.323 0 01.019-.007c7.636-3.21 14.298-3.396 16.733.093 1.299 1.861 1.175 4.469-.023 7.493zm7.208-14a9.643 9.643 0 00-9.206-2.984 2.467 2.467 0 00-1.609 1.06 2.484 2.484 0 001.658 3.827c.327.053.66.04.982-.039v.002a4.724 4.724 0 015.616 3.646 4.754 4.754 0 01-.129 2.455h.002a2.489 2.489 0 00.15 1.892 2.466 2.466 0 003.326 1.079 2.48 2.48 0 001.228-1.446c1.027-3.19.385-6.823-2.018-9.491zM30.046 42.5c.753.311 1.712-.047 2.147-.794.415-.75.146-1.593-.604-1.868-.737-.293-1.661.062-2.094.79-.42.733-.188 1.566.552 1.872zm-7.52 6.18c1.938.888 4.51.045 5.71-1.877 1.181-1.943.559-4.161-1.386-4.994-1.923-.808-4.408.024-5.594 1.89-1.203 1.875-.64 4.11 1.27 4.98zm-4.931-8.848c2.566-5.224 9.245-8.18 15.154-6.636 6.115 1.586 9.236 7.374 6.735 12.995-2.534 5.752-9.822 8.817-16.007 6.817-5.968-1.934-8.496-7.848-5.882-13.176z" fill="#fff"/><path fill-rule="evenodd" clip-rule="evenodd" d="M50.993.456c6.707-1.43 13.973.659 18.9 6.138 4.927 5.474 6.256 12.937 4.153 19.483v.012a2.879 2.879 0 01-1.427 1.676 2.864 2.864 0 01-3.169-.372 2.877 2.877 0 01-1.001-1.964c-.03-.377.014-.757.13-1.117v-.001a14.21 14.21 0 00.376-7.325 14.182 14.182 0 00-3.325-6.531 14.101 14.101 0 00-13.44-4.363 2.862 2.862 0 01-2.965-1.183A2.885 2.885 0 0150.991.455h.002zM7.566 43.94c.808 8.18 11.526 13.81 23.943 12.581 12.418-1.233 21.83-8.862 21.025-17.043C51.728 31.3 41.009 25.67 28.59 26.903 16.176 28.135 6.76 35.76 7.566 43.94zm47.552-16.497c-.553 1.392.172 1.61 1.228 1.925 4.302 1.34 9.09 4.576 9.09 10.281 0 9.44-13.57 21.332-33.968 21.332C15.907 60.981 0 53.415 0 40.97c0-6.506 4.108-14.03 11.183-21.13 9.449-9.476 20.467-13.793 24.609-9.633 1.828 1.832 2.005 5.005.83 8.794-.58 1.81 1.544.953 1.767.863a.323.323 0 01.019-.007c7.636-3.21 14.298-3.396 16.733.093 1.299 1.861 1.175 4.469-.023 7.493zm7.208-14a9.643 9.643 0 00-9.206-2.984 2.467 2.467 0 00-1.609 1.06 2.484 2.484 0 001.658 3.827c.327.053.66.04.982-.039v.002a4.724 4.724 0 015.616 3.646 4.754 4.754 0 01-.129 2.455h.002a2.489 2.489 0 00.15 1.892 2.466 2.466 0 003.326 1.079 2.48 2.48 0 001.228-1.446c1.027-3.19.385-6.823-2.018-9.491zM30.046 42.5c.753.311 1.712-.047 2.147-.794.415-.75.146-1.593-.604-1.868-.737-.293-1.661.062-2.094.79-.42.733-.188 1.566.552 1.872zm-7.52 6.18c1.938.888 4.51.045 5.71-1.877 1.181-1.943.559-4.161-1.386-4.994-1.923-.808-4.408.024-5.594 1.89-1.203 1.875-.64 4.11 1.27 4.98zm-4.931-8.848c2.566-5.224 9.245-8.18 15.154-6.636 6.115 1.586 9.236 7.374 6.735 12.995-2.534 5.752-9.822 8.817-16.007 6.817-5.968-1.934-8.496-7.848-5.882-13.176z" fill="url(#paint0_linear)"/><defs><linearGradient id="paint0_linear" x1="10.744" y1="11.524" x2="9.405" y2="53.633" gradientUnits="userSpaceOnUse"><stop stop-color="#DC5160"/><stop offset="1" stop-color="#B52B3A"/></linearGradient></defs></svg>