<svg width="50" height="50" fill="none" xmlns="http://www.w3.org/2000/svg"><path d="M21.094 10.468v-.123a4.977 4.977 0 00-1.468-3.543 4.521 4.521 0 00-3.22-1.333c-1.172 0-2.276.44-3.125 1.241a4.522 4.522 0 00-3.125-1.241c-1.216 0-2.36.473-3.22 1.333a4.977 4.977 0 00-1.467 3.543v.123a5.31 5.31 0 001.78 3.965l6.032 5.362 6.031-5.361a5.308 5.308 0 001.782-3.966zm-7.813 7.237l-4.994-4.44a3.744 3.744 0 01-1.256-2.797v-.123c0-.92.359-1.786 1.01-2.438a2.972 2.972 0 012.115-.876c.799 0 1.55.311 2.115.876l1.01 1.01 1.01-1.01c1.13-1.129 3.1-1.129 4.23 0a3.425 3.425 0 011.01 2.438v.123a3.746 3.746 0 01-1.256 2.798l-4.994 4.439z" fill="#fff"/><path d="M46.875 7.031H25.781V3.125A2.347 2.347 0 0023.438.781H3.125A2.347 2.347 0 00.781 3.125v17.188a2.347 2.347 0 002.344 2.343h6.666l1.302 1.563H4.688a2.347 2.347 0 00-2.344 2.343v15.625a2.347 2.347 0 002.344 2.344h8.228l3.353 4.024a1.84 1.84 0 001.417.664 1.848 1.848 0 001.845-1.846v-2.842h8.594a2.347 2.347 0 002.344-2.343V28.905h1.562v2.842c0 1.018.828 1.846 1.846 1.846a1.84 1.84 0 001.417-.664l3.353-4.024h8.228a2.347 2.347 0 002.344-2.343V9.375a2.347 2.347 0 00-2.344-2.344zM3.125 21.094a.782.782 0 01-.781-.782V3.125c0-.431.35-.781.781-.781h20.313c.43 0 .78.35.78.781v17.188c0 .43-.35.78-.78.78h-8.594v4.405c0 .242-.346.367-.5.18l-3.822-4.584H3.125zm17.969 3.125h-4.688v-1.563h4.688v1.563zm7.812 17.968c0 .432-.35.782-.781.782H17.969v4.404c0 .242-.346.367-.5.18l-3.822-4.584h-8.96a.782.782 0 01-.78-.782V26.563c0-.432.35-.782.78-.782h7.708l.749.899a1.84 1.84 0 003.233-.899h4.717v.782a2.347 2.347 0 002.343 2.343h5.47v13.282zm18.75-15.624c0 .43-.35.78-.781.78h-8.96l-3.821 4.586c-.155.184-.5.06-.5-.18v-4.405H23.437a.782.782 0 01-.78-.782v-3.906h.78a2.347 2.347 0 002.344-2.343V8.592h21.094c.43 0 .781.35.781.782v17.188z" fill="#fff"/><path d="M19.531 33.594c0 .463.108.899.29 1.294a5.154 5.154 0 00-1.118-.755 3.1 3.1 0 00.828-2.102 3.128 3.128 0 00-3.125-3.125 3.128 3.128 0 00-3.125 3.125c0 .812.319 1.546.828 2.102-.405.202-.78.457-1.117.755.181-.395.29-.831.29-1.294a3.128 3.128 0 00-3.126-3.125 3.128 3.128 0 00-3.125 3.125c0 .833.332 1.585.865 2.146a4.69 4.69 0 00-2.427 4.104v1.562H7.03v-1.562a3.128 3.128 0 013.125-3.125c.492 0 .964.117 1.394.332-.123.357-.214.73-.258 1.12l-.35 3.148 1.553.173.35-3.148a3.58 3.58 0 013.561-3.188 3.58 3.58 0 013.562 3.188l.35 3.148 1.552-.172-.35-3.149a5.155 5.155 0 00-.258-1.12c.43-.215.902-.332 1.394-.332a3.128 3.128 0 013.125 3.125v1.562h1.563v-1.562a4.69 4.69 0 00-2.428-4.104 3.105 3.105 0 00.865-2.146 3.128 3.128 0 00-3.125-3.125 3.128 3.128 0 00-3.125 3.125zm-10.937 0a1.564 1.564 0 013.125 0 1.563 1.563 0 01-3.125 0zm6.25-1.563a1.563 1.563 0 013.125 0c0 .862-.701 1.563-1.563 1.563a1.564 1.564 0 01-1.562-1.563zm9.375 1.563a1.564 1.564 0 01-3.125 0 1.564 1.564 0 013.125 0zm17.187-18.75h-1.422l.189-1.128a3.051 3.051 0 00-.683-2.478 3.05 3.05 0 00-2.332-1.082 2.34 2.34 0 00-2.274 1.775 6.445 6.445 0 01-1.695 2.994l-.23.23a1.55 1.55 0 00-.928-.311h-3.125c-.861 0-1.562.7-1.562 1.562v7.813c0 .861.7 1.562 1.562 1.562h3.125a1.56 1.56 0 001.47-1.051 10.043 10.043 0 004.472 1.051h3.433a3.128 3.128 0 003.125-3.125V17.97a3.128 3.128 0 00-3.125-3.125zm-12.5 9.375v-7.813h3.125l.001 7.813h-3.126zm14.063-1.563c0 .862-.701 1.563-1.563 1.563h-3.433a8.49 8.49 0 01-4.38-1.217V16.73l.7-.7a8.009 8.009 0 002.107-3.72.78.78 0 01.758-.591 1.491 1.491 0 011.474 1.74l-.491 2.947h3.265c.862 0 1.563.701 1.563 1.563v4.687z" fill="#fff"/></svg>