<svg width="67" height="67" fill="none" xmlns="http://www.w3.org/2000/svg"><path d="M60.49 52.707a11.86 11.86 0 00-7.966-9.322l-9.298-3.1v-1.382h-2.161V40.5c-1.15.764-4.407 2.727-7.565 2.727-3.158 0-6.416-1.963-7.564-2.727v-1.596h-2.162v1.382l-9.298 3.1a11.863 11.863 0 00-7.966 9.322L4.127 67h58.745L60.49 52.707zM24.68 42.262c1.286.868 4.997 3.125 8.82 3.125 3.823 0 7.534-2.257 8.82-3.125l1.876.626L33.5 53.585 22.803 42.888l1.878-.626zm7.74 22.577H16.322l.962-9.618-2.15-.215-.984 9.834H6.679l1.963-11.775a9.706 9.706 0 016.518-7.628l.489-.163 16.77 16.77v2.795zm-14.48-20.33l2.57-.857L33.5 56.64l12.99-12.99 2.57.857-15.56 15.56-15.56-15.56zm34.909 20.33l-.983-9.834-2.151.215.962 9.618H34.58v-2.795l16.771-16.771.489.163a9.706 9.706 0 016.518 7.628l1.962 11.776h-7.472z" fill="#583350"/><path d="M14.048 23.774a3.237 3.237 0 00-2.161-3.043v-8.906l5.403 3.86v3.794c-1.304.987-2.161 2.537-2.161 4.294 0 2.773 2.107 5.038 4.8 5.343a11.813 11.813 0 003.004 5.07l4.215 4.215a5.363 5.363 0 003.82 1.583h5.065c1.443 0 2.8-.562 3.82-1.582l4.215-4.215a11.82 11.82 0 003.004-5.07c2.692-.305 4.799-2.57 4.799-5.343 0-1.758-.857-3.308-2.161-4.294v-3.794l7.564-5.404v-3.51L35.986.05 31.34 0 9.726 6.772v13.96a3.235 3.235 0 00-2.162 3.042v4.323h6.484v-4.323zm3.242 0c0-1.407.907-2.596 2.162-3.043v5.051c0 .353.02.703.05 1.052-1.28-.434-2.212-1.634-2.212-3.06zm28.097 2.008a9.662 9.662 0 01-2.849 6.877l-4.214 4.215a3.263 3.263 0 01-2.292.949h-5.065a3.265 3.265 0 01-2.292-.95L24.46 32.66a9.662 9.662 0 01-2.848-6.877v-6.071a54.538 54.538 0 0111.888-1.34c4.973 0 9.232.738 11.887 1.341v6.07zM33.5 16.21c-6.434 0-11.647 1.157-14.049 1.801v-2.078c1.91-.541 7.327-1.885 14.049-1.885 6.705 0 12.136 1.345 14.048 1.885v2.077c-2.4-.643-7.614-1.8-14.048-1.8zm13.998 10.622c.03-.347.05-.697.05-1.05v-5.05a3.238 3.238 0 012.162 3.042 3.235 3.235 0 01-2.212 3.058zM11.887 8.357L31.505 2.16h3.989l19.619 6.196v.812l-6.676 4.77c-1.728-.514-7.513-2.052-14.937-2.052-7.424 0-13.209 1.538-14.937 2.051L11.887 9.17v-.812zm0 17.579H9.726v-2.162c0-.595.485-1.08 1.08-1.08.596 0 1.081.485 1.081 1.08v2.162z" fill="#583350"/><path d="M14.048 30.258h-2.161v6.484h2.161v-6.484zm-4.322 0H7.564v6.484h2.162v-6.484z" fill="#583350"/><path d="M31 24h-5m15 0h-5" stroke="#583350" stroke-width="2"/></svg>