<svg width="46" height="46" fill="none" xmlns="http://www.w3.org/2000/svg"><path d="M12.848 4.162l-3.104-.45L8.355.897 6.967 3.711l-3.104.451 2.246 2.19-.53 3.091 2.776-1.46 2.777 1.46-.53-3.091 2.246-2.19z" fill="#fff"/><path d="M34.544 30.474l-4.985-.554v-2.662a8.538 8.538 0 003.553-6.127l2.435-3.654v-6.72C35.443 4.826 30.533 0 24.602 0c-2.884 0-5.577 1.124-7.583 3.165a10.552 10.552 0 00-3.033 7.627v6.642l2.133 3.656a8.538 8.538 0 003.557 6.168v2.662l-4.986.554a8.526 8.526 0 00-7.592 8.483V46h6.289v-4.492h2.695V46h17.07v-4.492h2.696V46h6.289v-7.043a8.526 8.526 0 00-7.593-8.483zm-7.68.652a2.249 2.249 0 01-2.247 2.246 2.249 2.249 0 01-2.246-2.246v-2.588a8.508 8.508 0 004.492 0v2.588zm-2.247-4.982c-3.22 0-5.84-2.62-5.84-5.84V14.33a6.75 6.75 0 004.043-2.564 6.732 6.732 0 005.39 2.7h2.247v5.84c0 3.22-2.62 5.84-5.84 5.84z" fill="url(#paint0_linear)"/><defs><linearGradient id="paint0_linear" x1="26.098" y1="0" x2="26.098" y2="46" gradientUnits="userSpaceOnUse"><stop stop-color="#EF4021"/><stop offset=".526" stop-color="#7CA843"/><stop offset="1" stop-color="#1D9AD4"/></linearGradient></defs></svg>