<svg width="47" height="51" fill="none" xmlns="http://www.w3.org/2000/svg"><path fill-rule="evenodd" clip-rule="evenodd" d="M12.393 17.675c.16 1.434.882 7.872-4.51 9.03-5.396 1.165-7.403-5.083-6.81-8.01 0 0 .639-6.32 5.015-6.71 3.476-.305 6.037 3.5 6.304 5.68l.001.01zm10.922-9.494c0 4.247-2.411 7.685-5.395 7.685-2.985 0-5.403-3.438-5.403-7.685C12.517 3.933 14.935.5 17.92.5c2.984 0 5.395 3.433 5.395 7.68zm14.533 1.225c-.512 3.228-3.07 7.489-7.065 6.966-3.99-.512-4.891-4.12-4.503-7.74.319-2.96 3.856-7.495 6.69-6.844 2.82.644 5.401 4.394 4.878 7.618zm2.713 6.19c4.76 0 6.039 4.655 6.039 6.2 0 .117.003.262.008.431.052 2.077.195 7.71-5.277 7.83-5.924.129-6.17-4.002-6.17-6.964 0-3.104.63-7.496 5.4-7.496zm-9.778 9.815c3.604 5.163 9.778 9.94 9.778 9.94s4.625 3.618 1.668 10.587c-2.953 6.974-13.762 3.35-13.762 3.35s-3.986-1.285-8.62-.254c-4.624 1.034-8.61.645-8.61.645s-5.41.13-6.953-6.71c-1.308-5.816 3.504-9.397 5.299-10.733.317-.236.54-.402.618-.498.129-.162.449-.436.893-.816 1.337-1.144 3.796-3.249 5.533-6.158 2.321-3.866 9.263-6.967 14.156.647zM18.88 28.692v4.594h-3.744s-3.742.31-5.051 4.552c-.428 2.647.296 4.277.515 4.769l.038.086c.15.356 1.36 2.427 4.397 3.035h7.025V28.742l-3.18-.05zm-.057 14.248h-2.83s-1.972-.102-2.572-2.372c-.31-1.006.046-2.168.202-2.625.143-.457.805-1.515 2.17-1.922h3.03v6.92zm4.958-9.241v8.943s.146 2.226 3.285 3.037h8.084V33.697h-3.49v8.995h-3.329s-1.064-.155-1.264-1.01v-8.036l-3.286.053z" fill="#fff"/></svg>