<svg width="59" height="59" fill="none" xmlns="http://www.w3.org/2000/svg"><path d="M52.705 47.714h1.823a1.152 1.152 0 010 2.303h-4.376A1.152 1.152 0 0149 48.866V44.49a1.152 1.152 0 012.303 0v1.267A27.109 27.109 0 0056.697 29.5c0-14.996-12.2-27.197-27.197-27.197-14.996 0-27.197 12.2-27.197 27.197 0 14.996 12.2 27.197 27.197 27.197 1.11 0 2.225-.068 3.318-.2a1.152 1.152 0 01.278 2.286A29.91 29.91 0 0129.5 59c-7.88 0-15.288-3.069-20.86-8.64C3.07 44.788 0 37.38 0 29.5c0-7.88 3.069-15.288 8.64-20.86C14.212 3.07 21.62 0 29.5 0c7.88 0 15.288 3.069 20.86 8.64C55.932 14.212 59 21.62 59 29.5c0 6.65-2.221 13.033-6.295 18.214z" fill="#613654"/><path d="M12.492 17.39a1.152 1.152 0 00-1.59.357 22.079 22.079 0 00-3.277 14.061 22.046 22.046 0 006.322 13.245c4.288 4.288 9.92 6.432 15.553 6.432 5.633 0 11.265-2.144 15.553-6.432 8.576-8.576 8.576-22.53 0-31.106a22.047 22.047 0 00-13.223-6.32 22.08 22.08 0 00-14.045 3.252 1.152 1.152 0 001.228 1.948c7.824-4.931 17.862-3.801 24.412 2.748 7.678 7.678 7.678 20.171 0 27.85-7.678 7.677-20.171 7.677-27.85 0-6.458-6.46-7.605-16.74-2.726-24.445.34-.538.18-1.25-.357-1.59z" fill="#613654"/><path d="M44.47 30.67h1.42a1.152 1.152 0 000-2.303h-1.42a1.152 1.152 0 000 2.303zm-32.513-1.189c0 .636.516 1.152 1.152 1.152h1.42a1.152 1.152 0 000-2.303h-1.42c-.636 0-1.152.515-1.152 1.151zM30.67 14.53v-1.42a1.152 1.152 0 00-2.303 0v1.42a1.152 1.152 0 002.303 0zm-2.34 29.94v1.42a1.152 1.152 0 002.303 0v-1.42a1.152 1.152 0 00-2.303 0zM23.728 22.1a1.152 1.152 0 00-1.629 1.628l3.903 3.903a3.943 3.943 0 00-.47 1.87 3.972 3.972 0 003.968 3.966 3.972 3.972 0 003.967-3.967c0-.675-.17-1.312-.469-1.87l7.875-7.874a1.152 1.152 0 00-1.629-1.629l-7.875 7.875a3.942 3.942 0 00-1.87-.47c-.675 0-1.311.171-1.868.47l-3.903-3.903zm7.436 7.4c0 .918-.747 1.664-1.664 1.664a1.666 1.666 0 01-1.664-1.664c0-.918.746-1.664 1.664-1.664.918 0 1.664.747 1.664 1.664zM15.573 15.575c.216-.214.339-.511.339-.814 0-.303-.123-.599-.339-.814a1.16 1.16 0 00-.814-.338c-.303 0-.6.123-.814.338a1.161 1.161 0 00-.338.814c0 .304.124.6.338.814.214.214.511.337.814.337.304 0 .6-.123.814-.337zM37.478 3.44a1.156 1.156 0 001.152-1.15c0-.303-.124-.6-.338-.814a1.161 1.161 0 00-.815-.338c-.303 0-.6.124-.814.338a1.16 1.16 0 00-.338.814 1.156 1.156 0 001.152 1.152z" fill="#613654"/></svg>