<svg width="24" height="25" fill="none" xmlns="http://www.w3.org/2000/svg"><g clip-path="url(#clip0)" fill="#613654"><path d="M11.795 6.87c-4.161 0-7.547 3.385-7.547 7.547 0 4.161 3.386 7.547 7.547 7.547 4.162 0 7.548-3.386 7.548-7.547 0-4.162-3.386-7.548-7.548-7.548zm0 14.416a6.877 6.877 0 01-6.869-6.87 6.877 6.877 0 016.87-6.869 6.877 6.877 0 016.869 6.87 6.877 6.877 0 01-6.87 6.869z"/><path d="M20.197 7.96a.85.85 0 00.605-.251l.565-.566c.33-.33.33-.88 0-1.21L19.63 4.197a.864.864 0 00-1.21 0l-.565.565a.862.862 0 00-.09 1.102l-.557.556a9.537 9.537 0 00-3.255-1.416V3.6a1.343 1.343 0 001.168-1.33c0-.74-.602-1.341-1.342-1.341H9.98A1.342 1.342 0 009.807 3.6v1.366A9.587 9.587 0 004.969 7.59a9.591 9.591 0 00-2.828 6.827 9.591 9.591 0 002.828 6.827 9.592 9.592 0 006.826 2.828 9.591 9.591 0 006.827-2.828 9.591 9.591 0 002.828-6.827c0-2.273-.78-4.426-2.213-6.153L19.7 7.8c.144.103.315.16.496.16zm-1.863-2.72l.565-.565a.179.179 0 01.251 0l1.738 1.738a.18.18 0 010 .251l-.566.565a.182.182 0 01-.25 0l-1.738-1.737a.179.179 0 010-.251zM9.317 2.27c0-.366.297-.663.663-.663h3.798a.664.664 0 010 1.327H9.98a.664.664 0 01-.663-.664zm1.168 2.58V3.612h2.789v1.262a9.79 9.79 0 00-2.789-.024zm1.31 18.544c-4.95 0-8.976-4.027-8.976-8.977 0-4.561 3.419-8.339 7.829-8.904.93-.12 1.853-.066 2.783.077 4.171.77 7.341 4.435 7.341 8.827 0 4.95-4.027 8.977-8.977 8.977zm5.966-16.57l.473-.473.978.978-.427.428a19.058 19.058 0 00-1.024-.933z"/><path d="M12.16 9.072a.61.61 0 00-.365-.12.605.605 0 00-.599.493l-.002.013-.65 4.191a1.471 1.471 0 00.913 2.197v3.59c0 .186.151.338.338.338a5.363 5.363 0 005.358-5.357c0-1.39-.53-2.707-1.493-3.71a5.33 5.33 0 00-3.5-1.635zm-.365.932l.47 3.02h-.004a1.516 1.516 0 00-.466-.076 1.47 1.47 0 00-.465.076h-.004l.47-3.02zm-.79 4.413c0-.422.363-.79.79-.791a.81.81 0 01.792.79.8.8 0 01-.792.792.792.792 0 01-.79-.791zm1.13 4.667v-3.238c.473-.111.874-.47 1.04-.927a1.478 1.478 0 00-.122-1.261l-.006-.01-.6-3.866a4.668 4.668 0 014.028 4.635 4.685 4.685 0 01-4.34 4.667z"/></g><defs><clipPath id="clip0"><path fill="#fff" transform="translate(.287 .929)" d="M0 0h23.143v23.143H0z"/></clipPath></defs></svg>