<svg width="53" height="53" fill="none" xmlns="http://www.w3.org/2000/svg"><g clip-path="url(#clip0)" fill="#613654"><path d="M47.828 9.524H43.48V5.176A5.182 5.182 0 0038.305 0H5.18A5.182 5.182 0 00.004 5.176V38.3a5.182 5.182 0 005.176 5.175h4.347v4.348A5.182 5.182 0 0014.703 53h33.125a5.182 5.182 0 005.176-5.176V14.7a5.181 5.181 0 00-5.176-5.175zM5.18 41.406a3.109 3.109 0 01-3.106-3.105V5.176A3.109 3.109 0 015.18 2.07h33.124a3.109 3.109 0 013.106 3.106V38.3a3.109 3.109 0 01-3.105 3.105H5.18zm45.754 6.418a3.109 3.109 0 01-3.106 3.106H14.703a3.109 3.109 0 01-3.105-3.106v-4.348h26.706a5.182 5.182 0 005.176-5.175V11.594h4.348a3.109 3.109 0 013.105 3.105v33.125z"/><path d="M14.725 47.307h-.028a1.035 1.035 0 100 2.07h.028a1.035 1.035 0 100-2.07zm33.102 0H17.699a1.035 1.035 0 000 2.07h30.128a1.035 1.035 0 000-2.07zM11.391 3.623h-.028a1.035 1.035 0 100 2.07h.028a1.035 1.035 0 100-2.07zm-3.003 0H5.176a1.035 1.035 0 100 2.07h3.212a1.035 1.035 0 000-2.07zM30.381 20.82a3.507 3.507 0 00-1.648-2.14l-5.064-2.924a3.372 3.372 0 00-.154-.094l-5.05-2.916a3.524 3.524 0 00-1.948-.583 3.547 3.547 0 00-3.542 3.542v12.071c0 .043.002.084.007.125a3.542 3.542 0 003.538 3.413c.62 0 1.232-.165 1.769-.476l5.226-3.018c.03-.017.058-.036.086-.055l5.095-2.942a3.528 3.528 0 001.337-1.322 3.51 3.51 0 00.348-2.681zm-2.142 1.65a1.46 1.46 0 01-.571.557l-5.19 2.996a1.03 1.03 0 00-.085.055l-5.14 2.968a1.465 1.465 0 01-2.203-1.268.94.94 0 00-.005-.106V15.705a1.474 1.474 0 012.294-1.222c.02.014.04.027.062.039l5.082 2.934.074.046c.017.012.034.022.052.033l5.09 2.939c.34.194.582.509.683.886.102.377.051.77-.143 1.11z"/></g><defs><clipPath id="clip0"><path fill="#fff" d="M0 0h53v53H0z"/></clipPath></defs></svg>