<svg width="23" height="23" fill="none" xmlns="http://www.w3.org/2000/svg"><g clip-path="url(#clip0)" fill="#613654"><path d="M20.297 4.5h-1.793V2.705A2.137 2.137 0 0016.369.572H2.71A2.137 2.137 0 00.574 2.706v13.66c0 1.178.958 2.135 2.135 2.135h1.793v1.793c0 1.177.957 2.135 2.134 2.135h13.66a2.137 2.137 0 002.135-2.135V6.634a2.137 2.137 0 00-2.134-2.135zM2.709 17.646a1.282 1.282 0 01-1.281-1.28V2.706c0-.706.575-1.28 1.28-1.28H16.37c.707 0 1.281.574 1.281 1.28v13.66c0 .707-.574 1.281-1.28 1.281H2.708zm18.869 2.647c0 .706-.575 1.28-1.281 1.28H6.637a1.282 1.282 0 01-1.282-1.28V18.5H16.37a2.137 2.137 0 002.135-2.134V5.353h1.793c.706 0 1.28.574 1.28 1.28v13.661z"/><path d="M6.645 20.08h-.011a.427.427 0 100 .855h.011a.427.427 0 100-.854zm13.652 0H7.872a.427.427 0 100 .855h12.425a.427.427 0 000-.854zM5.27 2.066h-.01a.427.427 0 100 .853h.011a.427.427 0 100-.853zm-1.239 0H2.706a.427.427 0 100 .853h1.325a.427.427 0 000-.853zM13.1 9.158a1.446 1.446 0 00-.68-.883l-2.088-1.206a1.357 1.357 0 00-.063-.039L8.186 5.828a1.463 1.463 0 00-2.264 1.22v4.979a1.46 1.46 0 002.192 1.262l2.155-1.245a.423.423 0 00.035-.022l2.101-1.213a1.455 1.455 0 00.695-1.651zm-.883.68a.602.602 0 01-.236.23l-2.14 1.235a.429.429 0 00-.035.023l-2.12 1.224a.605.605 0 01-.908-.523c0-.015 0-.03-.002-.043V7.048a.608.608 0 01.971-.488l2.096 1.21a.588.588 0 01.052.033l2.1 1.212a.599.599 0 01.222.823z"/></g><defs><clipPath id="clip0"><path fill="#fff" transform="translate(.572 .572)" d="M0 0h21.857v21.857H0z"/></clipPath></defs></svg>