<svg width="56" height="18" fill="none" xmlns="http://www.w3.org/2000/svg"><g clip-path="url(#clip0)"><path d="M23.93 17.74h-4.473L22.255.315h4.474L23.93 17.74zM40.15.742C39.269.389 37.87 0 36.139 0c-4.418 0-7.53 2.373-7.548 5.765-.037 2.502 2.227 3.892 3.92 4.727 1.732.852 2.32 1.409 2.32 2.17-.018 1.166-1.399 1.704-2.687 1.704-1.786 0-2.743-.277-4.197-.926l-.59-.279-.626 3.912c1.05.481 2.983.908 4.99.927 4.694 0 7.75-2.336 7.787-5.95.017-1.984-1.178-3.504-3.756-4.746-1.564-.797-2.523-1.335-2.523-2.15.018-.742.81-1.502 2.577-1.502 1.454-.037 2.523.315 3.333.667l.404.185.609-3.762zm5.946 10.825c.368-1.001 1.786-4.875 1.786-4.875-.019.037.367-1.02.588-1.668l.313 1.501s.847 4.17 1.031 5.042h-3.718zM51.617.315h-3.46c-1.068 0-1.879.315-2.339 1.446L39.174 17.74h4.694l.939-2.614h5.744c.128.612.534 2.614.534 2.614h4.142L51.617.315zm-35.896 0L11.34 12.197l-.479-2.41c-.81-2.78-3.35-5.801-6.185-7.303L8.689 17.72h4.73L20.453.315h-4.73z" fill="#fff"/><path d="M7.272.315H.074L0 .667C5.615 2.113 9.333 5.6 10.861 9.788L9.296 1.78C9.04.667 8.247.352 7.272.315z" fill="#FAA61A"/></g><defs><clipPath id="clip0"><path fill="#fff" d="M0 0h55.227v18H0z"/></clipPath></defs></svg>