<svg width="60" height="60" fill="none" xmlns="http://www.w3.org/2000/svg"><path d="M30 42.305c6.785 0 12.305-5.52 12.305-12.305V12.305C42.305 5.52 36.785 0 30 0S17.695 5.52 17.695 12.305V30c0 6.785 5.52 12.305 12.305 12.305z" fill="#fff"/><path d="M47.578 24.727c-.97 0-1.758.787-1.758 1.757V30c0 8.723-7.097 15.82-15.82 15.82-8.723 0-15.82-7.097-15.82-15.82v-3.516a1.758 1.758 0 00-3.516 0V30c0 10.07 7.737 18.364 17.578 19.255v7.23h-8.789a1.758 1.758 0 000 3.515h21.094a1.758 1.758 0 000-3.516h-8.79v-7.229c9.843-.89 17.58-9.185 17.58-19.255v-3.516c0-.97-.787-1.757-1.758-1.757zm-35.156-7.032c.97 0 1.758-.787 1.758-1.758V7.149a1.758 1.758 0 00-3.516 0v8.79c0 .97.787 1.757 1.758 1.757zM5.39 0c-.97 0-1.757.787-1.757 1.758V21.21a1.758 1.758 0 003.515 0V1.758C7.148.787 6.361 0 5.391 0zm42.188 5.39a1.76 1.76 0 00-1.758 1.758v8.79a1.758 1.758 0 003.516 0v-8.79c0-.97-.787-1.757-1.758-1.757zM54.61 0c-.971 0-1.758.787-1.758 1.758V21.21a1.758 1.758 0 103.515 0V1.758C56.367.787 55.58 0 54.61 0z" fill="#fff"/></svg>