<svg width="60" height="60" fill="none" xmlns="http://www.w3.org/2000/svg"><path fill-rule="evenodd" clip-rule="evenodd" d="M3.633 1.758a1.758 1.758 0 013.515 0V21.21a1.758 1.758 0 01-3.515 0V1.758zM42.305 30c0 6.785-5.52 12.305-12.305 12.305S17.695 36.785 17.695 30V12.305C17.695 5.52 23.215 0 30 0s12.305 5.52 12.305 12.305V30zm3.515-3.516a1.758 1.758 0 013.516 0V30c0 10.07-7.737 18.364-17.578 19.255v7.23h8.789a1.758 1.758 0 010 3.515H19.453a1.758 1.758 0 010-3.516h8.79v-7.229C18.4 48.365 10.663 40.07 10.663 30v-3.516a1.758 1.758 0 013.516 0V30c0 8.723 7.097 15.82 15.82 15.82 8.723 0 15.82-7.097 15.82-15.82v-3.516zm-33.398-8.789c.97 0 1.758-.787 1.758-1.758V7.149a1.758 1.758 0 00-3.516 0v8.79c0 .97.787 1.757 1.758 1.757zM47.578 5.391c-.97 0-1.758.787-1.758 1.757v8.79a1.758 1.758 0 003.516 0v-8.79c0-.97-.787-1.757-1.758-1.757zm5.274-3.633a1.758 1.758 0 013.515 0V21.21a1.758 1.758 0 11-3.515 0V1.758z" fill="url(#paint0_linear)"/><defs><linearGradient id="paint0_linear" x1="7.909" y1="62.211" x2="25.155" y2="-9.5" gradientUnits="userSpaceOnUse"><stop stop-color="#9E0A75"/><stop offset="1" stop-color="#EF712A"/></linearGradient></defs></svg>