<svg width="52" height="46" fill="none" xmlns="http://www.w3.org/2000/svg"><path fill-rule="evenodd" clip-rule="evenodd" d="M.25 16.321C.25 7.447 8.884.25 19.536.25c9.411 0 17.238 5.622 18.935 13.053a23.33 23.33 0 00-2.864-.196c-10.636 0-19.286 7.21-19.286 16.072 0 1.031.129 2.037.354 3.018-1.649-.203-3.192-.637-4.677-1.164L5.071 34l2.543-5.085C3.136 25.977.25 21.439.25 16.321zm10.446-6.428a2.412 2.412 0 104.824-.002 2.412 2.412 0 00-4.824.002zm12.858 0a2.412 2.412 0 104.823-.002 2.412 2.412 0 00-4.823.002zm12.054 6.428c8.874 0 16.071 5.757 16.071 12.857 0 4.112-2.456 7.73-6.21 10.084l2.996 5.988-8.663-3.713c-1.347.293-2.735.499-4.194.499-8.875 0-16.072-5.757-16.072-12.858 0-7.1 7.197-12.857 16.072-12.857zm-7.233 9.643a2.412 2.412 0 004.822 0 2.412 2.412 0 00-4.822 0zm9.643 0a2.412 2.412 0 004.822 0 2.412 2.412 0 00-4.822 0z" fill="#fff"/></svg>