<svg width="52" height="44" fill="none" xmlns="http://www.w3.org/2000/svg"><path fill-rule="evenodd" clip-rule="evenodd" d="M0 16.321C0 7.447 8.634.25 19.286.25c8.226 0 15.24 4.295 18.011 10.338.582 1.27-.543 2.52-1.94 2.52-10.636 0-19.286 7.209-19.286 16.07 0 1.482-1.2 2.808-2.625 2.402-.27-.077-.537-.159-.803-.244a2.52 2.52 0 00-1.763.07l-2.117.906c-1.345.576-2.678-.838-2.024-2.147.356-.713.118-1.574-.515-2.058C2.403 25.177 0 20.99 0 16.32zm10.446-6.428a2.412 2.412 0 104.824-.002 2.412 2.412 0 00-4.824.002zm12.858 0a2.412 2.412 0 104.823-.002 2.412 2.412 0 00-4.823.002zm12.054 6.428c8.874 0 16.071 5.757 16.071 12.857 0 3.588-1.87 6.801-4.842 9.125-.746.584-1.044 1.606-.62 2.453.767 1.533-.795 3.19-2.37 2.515l-3.137-1.345a3.29 3.29 0 00-1.876-.196 18.265 18.265 0 01-3.226.306c-8.875 0-16.072-5.757-16.072-12.858 0-7.1 7.197-12.857 16.072-12.857zm-7.233 9.643a2.412 2.412 0 004.822 0 2.412 2.412 0 00-4.822 0zm9.643 0a2.412 2.412 0 004.822 0 2.412 2.412 0 00-4.822 0z" fill="url(#paint0_linear)"/><defs><linearGradient id="paint0_linear" x1="7.367" y1="8.398" x2="6.387" y2="38.22" gradientUnits="userSpaceOnUse"><stop stop-color="#3BBF78"/><stop offset="1" stop-color="#209A84"/></linearGradient></defs></svg>