<svg width="69" height="60" fill="none" xmlns="http://www.w3.org/2000/svg"><path fill-rule="evenodd" clip-rule="evenodd" d="M0 21.429C0 9.596 11.511 0 25.714 0 38.263 0 48.7 7.496 50.961 17.404c-1.251-.154-2.52-.261-3.818-.261-14.182 0-25.714 9.613-25.714 21.428 0 1.376.171 2.718.471 4.025-2.199-.27-4.256-.849-6.236-1.552L6.43 45l3.39-6.78C3.849 34.303 0 28.251 0 21.429zm13.929-8.572a3.215 3.215 0 006.428 0 3.215 3.215 0 00-6.428 0zm17.142 0a3.215 3.215 0 006.429 0 3.215 3.215 0 00-6.429 0zm16.073 8.572c11.832 0 21.428 7.675 21.428 17.142 0 5.482-3.274 10.308-8.28 13.445L64.286 60l-11.55-4.95c-1.795.39-3.647.664-5.592.664-11.833 0-21.429-7.675-21.429-17.143 0-9.467 9.596-17.142 21.429-17.142zM37.5 34.286a3.215 3.215 0 006.428 0 3.215 3.215 0 00-6.428 0zm12.857 0a3.215 3.215 0 006.428 0 3.215 3.215 0 00-6.428 0z" fill="#3BBF78"/></svg>