<svg width="61" height="61" fill="none" xmlns="http://www.w3.org/2000/svg"><path d="M49.823 43.702c-.804-4.028-4.583-4.713-4.595-4.719-.04-.012.347.085-9.214-2.285v-.324h7.038a2.634 2.634 0 002.631-2.631V20.32c.118-.5.119-1.018 0-1.518v-4.9a.894.894 0 10-1.787 0v2.566a4.64 4.64 0 00-1.592-.584 2.33 2.33 0 00-1.964-1.796c-1.022-.135-1.797-.73-2.303-1.772a1.521 1.521 0 00-1.24-.857 1.517 1.517 0 00-1.372.618c-1.536 2.091-5.806 6.78-13.18 6.78-.562 0-.942-.027-1.075-.032a2.363 2.363 0 00-2.5 2.358v2.054c0 3.282 1.36 6.464 3.735 8.73a11.966 11.966 0 002.581 1.877v.743H17.98a.845.845 0 01-.843-.844v-20.08c0-6.511 5.308-11.876 11.72-11.876h.062c2.297.013 4.95.666 6.757 1.663 1.145.632 1.853.13 2.984.13 2.761 0 4.974 2.838 5.24 5.392 0 .037.005.187.005.761 0 .863.975.929.895.893a.894.894 0 00.893-.894c0-.16 0-.781-.014-.926-.36-3.555-3.392-7.014-7.019-7.014-1.416 0-1.637.36-2.12.093C34.49.754 31.501.015 28.927 0 21.51-.048 15.35 6.133 15.35 13.662v20.081c0 1.45 1.18 2.631 2.631 2.631h7.006v.325l-9.178 2.274a.873.873 0 00-.036.01l-.67.198a.924.924 0 00-.06.02c-1.197.446-3.29 1.625-3.864 4.501-2.72 13.663-2.606 13.08-2.612 13.127-.328 2.317.832 4.17 3.623 4.17h9.664a.894.894 0 100-1.787H18.49v-8.429a.894.894 0 10-1.787 0v8.43h-4.514c-1.187 0-1.877-.383-1.888-1.63-.005-.608-.03-.015 2.63-13.532.4-2.004 1.855-2.841 2.708-3.165l.62-.183 5.27-1.306c5.864 6.907 5.517 6.541 5.855 6.872 1.957 1.909 4.75 1.774 6.588-.385l5.519-6.482 5.25 1.301c.152.07 2.766.53 3.329 3.348 2.636 13.4 2.635 12.921 2.63 13.532-.01 1.221-.67 1.63-1.888 1.63H44.33v-8.43a.893.893 0 10-1.787 0v8.43h-16.52a.894.894 0 100 1.787h22.789c2.208 0 3.655-1.215 3.675-3.403.008-1.022-.053-.534-2.664-13.895zm-7.46-25.974c.746.222 1.322.713 1.533 1.32v1.025c-.211.607-.787 1.1-1.533 1.321v-3.666zm0 5.664v-.165a4.63 4.63 0 001.533-.573v11.09a.844.844 0 01-.844.843h-7.038v-.691a11.831 11.831 0 006.349-10.504zm-18.724 7.281a10.327 10.327 0 01-3.182-7.436c.053-1.946-.129-2.182.182-2.474a.564.564 0 01.424-.155c6.408.386 11.92-2.43 15.558-7.147.981 1.722 2.42 2.259 3.487 2.399a.537.537 0 01.468.53v7.002c0 8.893-10.646 13.286-16.937 7.281zm8.972 14.053c-1.246 1.462-2.989 1.458-4.23-.008l-1.866-2.2h7.975l-1.88 2.208zm3.401-3.996h-11.01l-1.537-1.813 2.63-.652a.904.904 0 00.679-.876v-2.765c2.46.82 5.056.81 7.453.026.016 2.856-.039 2.79.05 3.043.097.278.33.498.628.572l2.647.656-1.54 1.809z" fill="#613654"/></svg>