<svg width="51" height="51" fill="none" xmlns="http://www.w3.org/2000/svg"><g clip-path="url(#clip0)"><path d="M43.9 39.22l-2.07 2.07a8.738 8.738 0 01.882 3.839v5.02a.85.85 0 01-1.7 0v-5.02c0-3.72-2.86-6.754-6.49-7.048l-3.53 12.303a.85.85 0 01-1.634-.469l3.438-11.985a5.21 5.21 0 01-3.347-2.395.85.85 0 011.452-.885 3.528 3.528 0 002.853 1.7.844.844 0 01.326.009 8.725 8.725 0 016.831 3.446l1.787-1.786a1.935 1.935 0 00.15-2.567c-1.348-1.707-1.005-3.77.287-4.99a1.946 1.946 0 00.187-2.611l-1.224-1.539a3.638 3.638 0 01-.641-3.291l.79-2.681a1.93 1.93 0 00-1.121-2.338l-1.044-.428a3.622 3.622 0 01-2.257-3.363v-2.736c0-5.39-4.385-9.775-9.775-9.775h-5.1c-5.39 0-9.775 4.385-9.775 9.775v2.736a3.622 3.622 0 01-2.257 3.363l-1.044.428a1.93 1.93 0 00-1.122 2.338l.79 2.68a3.638 3.638 0 01-.64 3.292L7.677 27.85a1.946 1.946 0 00.187 2.613c1.294 1.22 1.633 3.284.286 4.989a1.935 1.935 0 00.151 2.567l1.786 1.786c1.645-2.145 4.166-3.45 6.972-3.45a3.544 3.544 0 003.552-3.542v-.223a11.369 11.369 0 01-6.374-8.7.85.85 0 011.684-.232c.655 4.753 4.772 8.336 9.578 8.336 5.331 0 9.668-4.337 9.668-9.668v-5.24a9.25 9.25 0 01-4.852-4.042c-4.1 4.762-9.952 7.532-16.151 7.78a.85.85 0 01-.068-1.698c6.121-.245 11.889-3.144 15.72-8.167a.85.85 0 011.466.202 7.57 7.57 0 004.968 4.49.85.85 0 01.614.753c.006.07.004 5.974.003 6.01-.058 7.491-7.29 12.956-14.574 10.817a5.206 5.206 0 01-1.948 3.672l5.154 3.99 3.031-2.346a.85.85 0 011.04 1.344l-3.221 2.494v6.065a.85.85 0 01-1.7 0v-6.065l-5.936-4.595c-.922.304-1.734.266-1.653.266a7.07 7.07 0 00-7.074 7.073v5.02a.85.85 0 01-1.7 0v-5.02c0-1.353.306-2.658.882-3.84l-2.07-2.068c-1.21-1.211-1.53-3.243-.21-4.915A1.924 1.924 0 006.7 31.7a3.657 3.657 0 01-.352-4.908l1.224-1.538c.392-.493.52-1.148.341-1.752l-.79-2.681a3.625 3.625 0 012.107-4.392L10.273 16a1.928 1.928 0 001.202-1.79v-2.736C11.475 5.148 16.623 0 22.95 0h5.1c6.327 0 11.475 5.148 11.475 11.475v2.736c0 .788.471 1.491 1.201 1.79l1.044.428a3.625 3.625 0 012.108 4.392l-.79 2.68a1.939 1.939 0 00.34 1.753l1.225 1.538A3.657 3.657 0 0144.3 31.7a1.925 1.925 0 00-.19 2.607c1.297 1.643 1.022 3.68-.211 4.914zm-24.807 1.668a.85.85 0 10-1.636.462l2.55 9.03a.85.85 0 101.636-.461l-2.55-9.031z" fill="#5A3451"/></g><defs><clipPath id="clip0"><path fill="#fff" d="M0 0h51v51H0z"/></clipPath></defs></svg>