<svg width="47" height="47" fill="none" xmlns="http://www.w3.org/2000/svg"><g clip-path="url(#clip0)"><path d="M40.438 36.06l-1.9 1.9a8.026 8.026 0 01.81 3.526v4.61a.78.78 0 01-1.562 0v-4.61a6.49 6.49 0 00-5.96-6.473l-3.242 11.299a.781.781 0 01-1.5-.43l3.157-11.007a4.785 4.785 0 01-3.074-2.2.78.78 0 011.333-.813 3.24 3.24 0 002.62 1.561.776.776 0 01.3.009 8.013 8.013 0 016.274 3.164l1.64-1.64c.637-.637.697-1.65.138-2.358-1.237-1.567-.923-3.462.264-4.581a1.788 1.788 0 00.172-2.4l-1.124-1.412a3.341 3.341 0 01-.59-3.023l.727-2.462a1.772 1.772 0 00-1.03-2.147l-.96-.393a3.326 3.326 0 01-2.072-3.088v-2.513c0-4.95-4.027-8.977-8.977-8.977H21.2c-4.95 0-8.977 4.027-8.977 8.977v2.513c0 1.36-.814 2.572-2.073 3.088l-.959.393a1.772 1.772 0 00-1.03 2.147l.726 2.462a3.341 3.341 0 01-.59 3.023l-1.123 1.413c-.57.717-.495 1.77.172 2.399 1.189 1.12 1.5 3.016.263 4.582a1.777 1.777 0 00.138 2.357l1.64 1.64a8.018 8.018 0 016.404-3.167 3.254 3.254 0 003.262-3.254v-.205a10.44 10.44 0 01-5.854-7.989.78.78 0 011.546-.213c.602 4.364 4.383 7.655 8.796 7.655 4.896 0 8.88-3.983 8.88-8.879v-4.812a8.495 8.495 0 01-4.457-3.712 20.62 20.62 0 01-14.832 7.145.78.78 0 11-.062-1.56 19.053 19.053 0 0014.437-7.5.781.781 0 011.346.186 6.95 6.95 0 004.562 4.123.782.782 0 01.564.692c.005.064.004 5.486.003 5.52-.054 6.879-6.696 11.898-13.384 9.933a4.781 4.781 0 01-1.79 3.373l4.733 3.664 2.784-2.155a.78.78 0 01.956 1.234l-2.96 2.291v5.57a.78.78 0 01-1.56 0v-5.57l-5.451-4.22c-.847.28-1.593.244-1.519.244a6.492 6.492 0 00-6.496 6.496v4.61a.78.78 0 01-1.561 0v-4.61c0-1.243.28-2.441.81-3.526l-1.9-1.9c-1.112-1.112-1.406-2.978-.194-4.514.575-.728.5-1.757-.175-2.393a3.358 3.358 0 01-.323-4.507l1.124-1.413a1.78 1.78 0 00.313-1.61l-.726-2.46a3.33 3.33 0 011.936-4.035l.959-.393a1.77 1.77 0 001.103-1.643v-2.513C10.66 4.77 15.388.041 21.2.041h4.683c5.811 0 10.539 4.727 10.539 10.538v2.513c0 .724.433 1.369 1.103 1.644l.959.392a3.33 3.33 0 011.936 4.034l-.727 2.462a1.779 1.779 0 00.314 1.61l1.124 1.412a3.358 3.358 0 01-.323 4.507 1.767 1.767 0 00-.175 2.394c1.192 1.509.94 3.38-.194 4.513zm-22.781 1.53a.78.78 0 10-1.503.425l2.342 8.294a.78.78 0 001.502-.424l-2.341-8.294z" fill="#5A3451"/></g><defs><clipPath id="clip0"><path fill="#fff" transform="translate(.123 .04)" d="M0 0h46.837v46.837H0z"/></clipPath></defs></svg>