<svg width="90" height="18" fill="none" xmlns="http://www.w3.org/2000/svg"><path d="M78.476.167a3.438 3.438 0 00-2.05.734 3.424 3.424 0 00-1.286 2.381c-.134 1.313.58 2.652 1.735 3.287 1.32.768 2.648 1.524 3.966 2.297 2.265 1.31 4.532 2.616 6.796 3.927a4.569 4.569 0 001.773-1.841c.517-.99.646-2.17.37-3.25a4.494 4.494 0 00-1.496-2.367c-.377-.317-.817-.544-1.24-.793L80.31.656a3.499 3.499 0 00-1.834-.49zM1.83 1.629a1.541 1.541 0 00-.883.256c-.841.486-.986 1.771-.276 2.434 1.6 1.63 3.218 3.241 4.832 4.857.032 1.831-.011 3.66.017 5.49-.041.886.84 1.657 1.714 1.508.856.011 1.51-.858 1.48-1.671 0-1.783-.003-3.566-.001-5.35 1.586-1.598 3.183-3.184 4.762-4.79.789-.718.564-2.166-.426-2.586-.654-.314-1.458-.104-1.928.433-1.348 1.342-2.68 2.704-4.04 4.033C5.68 4.865 4.308 3.46 2.906 2.081A1.508 1.508 0 001.83 1.63zm37.402.003c-.746.014-1.48.546-1.552 1.33-.07 2.29.011 4.585-.041 6.877-.056 1.257-.864 2.455-2.045 2.914-1.367.606-3.098.078-3.93-1.153-.4-.565-.583-1.256-.609-1.941-.033-2.23.03-4.465-.032-6.694-.09-1.02-1.268-1.569-2.17-1.216-.7.277-1.043 1.055-1.002 1.774.004 2.043-.014 4.086-.005 6.128.033 1.835.78 3.67 2.17 4.893 2.038 1.898 5.346 2.191 7.701.72 1.882-1.122 3.078-3.243 3.128-5.427.002-2.165-.013-4.333-.011-6.5.033-.665-.36-1.341-.987-1.59a1.507 1.507 0 00-.615-.115zm-18.663.044c-.817 0-1.633.091-2.386.43a6.49 6.49 0 00-3.686 3.903c-.47 1.284-.32 2.674-.325 4.013.028 3.306 3.05 6.26 6.364 6.152h.065c3.315.108 6.336-2.846 6.364-6.152-.006-1.339.145-2.73-.325-4.013a6.49 6.49 0 00-3.686-3.904c-.753-.338-1.569-.43-2.385-.429zm0 3.132c1.662.037 3.236 1.46 3.201 3.181-.031 1.072.186 2.232-.337 3.22-.533 1.043-1.655 1.784-2.836 1.788l-.028-.002c-.01 0-.02.003-.029.002-1.181-.004-2.303-.745-2.836-1.788-.523-.988-.306-2.148-.337-3.22-.035-1.72 1.54-3.144 3.201-3.18z" fill="#fff"/><path d="M57.691 1.622a1.478 1.478 0 00-.465.086 1.623 1.623 0 00-1.054 1.634c.007 2.289-.038 4.579.022 6.865.137 3.244 3.12 6.079 6.38 5.97 3.307.181 6.375-2.683 6.518-5.974.03-2.163-.001-4.327.015-6.489-.007-.483.041-1.018-.28-1.419-.403-.618-1.246-.797-1.911-.553-.63.256-1.027.93-1.001 1.6-.004 2.166.007 4.332-.004 6.499-.008 1.174-.752 2.284-1.79 2.812-.935.48-2.112.472-3.031-.04-1.004-.534-1.698-1.615-1.711-2.759-.06-2.229.017-4.461-.037-6.69.006-.887-.81-1.563-1.651-1.542zm-4.177.007a1.315 1.315 0 00-.245.02c-.494-.02-.871.347-1.2.665-1.63 1.647-3.287 3.27-4.913 4.923-.917.88-.908 2.483.023 3.35a714.57 714.57 0 005.174 5.171c.745.778 2.194.427 2.561-.566.199-.6.11-1.328-.38-1.765-1.501-1.513-3.019-3.01-4.517-4.526 1.463-1.48 2.943-2.943 4.41-4.418.355-.353.619-.825.573-1.34.037-.805-.7-1.505-1.486-1.514zm-9.351.006a1.781 1.781 0 00-.663.108c-.619.257-1.014.924-.987 1.585 0 3.722.002 7.442-.002 11.164-.031.662.368 1.33.985 1.587.964.424 2.253-.308 2.193-1.405.01-3.78-.002-7.56.004-11.339.01-.364-.033-.74-.264-1.036-.278-.433-.769-.65-1.266-.664zm36.624 7.198a589.564 589.564 0 01-3.932 2.285 3.428 3.428 0 00-1.65 2.241 3.414 3.414 0 00.456 2.57 3.412 3.412 0 002.13 1.498 3.43 3.43 0 002.496-.391c2.45-1.413 4.901-2.827 7.35-4.243-2.263-1.311-4.53-2.616-6.795-3.927l-.055-.033z" fill="#fff"/></svg>