<svg width="90" height="18" fill="none" xmlns="http://www.w3.org/2000/svg"><path d="M78.478.167a3.438 3.438 0 00-2.05.734 3.424 3.424 0 00-1.286 2.381c-.134 1.313.58 2.652 1.735 3.287 1.32.768 2.648 1.524 3.966 2.297 2.264 1.31 4.532 2.616 6.796 3.927a4.568 4.568 0 001.773-1.841c.517-.99.646-2.17.37-3.25a4.494 4.494 0 00-1.496-2.367c-.377-.317-.817-.544-1.24-.793L80.312.656a3.499 3.499 0 00-1.834-.49zM1.83 1.629a1.54 1.54 0 00-.882.256c-.841.486-.986 1.771-.276 2.434 1.6 1.63 3.218 3.241 4.832 4.857.032 1.831-.011 3.66.017 5.49-.041.886.84 1.657 1.714 1.508.856.011 1.51-.858 1.48-1.671 0-1.783-.003-3.566-.002-5.35 1.586-1.598 3.184-3.184 4.762-4.79.79-.718.565-2.166-.425-2.586-.654-.314-1.458-.104-1.928.433-1.348 1.342-2.68 2.704-4.04 4.033C5.683 4.865 4.31 3.46 2.908 2.081a1.508 1.508 0 00-1.075-.452zm37.403.003c-.746.014-1.48.546-1.552 1.33-.07 2.29.011 4.585-.041 6.877-.056 1.257-.864 2.455-2.045 2.914-1.367.606-3.098.078-3.93-1.153-.401-.565-.583-1.256-.609-1.941-.033-2.23.03-4.465-.031-6.694-.091-1.02-1.269-1.569-2.172-1.216-.7.277-1.041 1.055-1 1.774.003 2.043-.015 4.086-.006 6.128.033 1.835.78 3.67 2.17 4.893 2.038 1.898 5.346 2.191 7.701.72 1.881-1.122 3.077-3.243 3.128-5.427.002-2.165-.013-4.333-.011-6.5.033-.665-.36-1.341-.987-1.59a1.506 1.506 0 00-.615-.115zm-18.663.044c-.817 0-1.633.091-2.386.43A6.49 6.49 0 0014.5 6.008c-.47 1.284-.32 2.674-.325 4.013.028 3.306 3.05 6.26 6.364 6.152h.065c3.315.108 6.336-2.846 6.364-6.152-.005-1.339.145-2.73-.325-4.013a6.49 6.49 0 00-3.686-3.904c-.753-.338-1.569-.43-2.385-.429zm0 3.132c1.662.037 3.236 1.46 3.201 3.181-.031 1.072.186 2.232-.337 3.22-.533 1.043-1.655 1.784-2.836 1.788l-.028-.002c-.01 0-.02.003-.03.002-1.18-.004-2.302-.745-2.835-1.788-.523-.988-.306-2.148-.337-3.22-.035-1.72 1.54-3.144 3.201-3.18z" fill="#DD4F32"/><path d="M57.693 1.622a1.478 1.478 0 00-.465.086 1.623 1.623 0 00-1.055 1.634c.008 2.289-.037 4.579.023 6.865.137 3.244 3.12 6.079 6.38 5.969 3.307.182 6.375-2.682 6.518-5.973.03-2.164-.001-4.327.015-6.489-.007-.483.041-1.018-.28-1.419-.403-.618-1.246-.797-1.911-.553-.63.256-1.027.93-1.001 1.6-.004 2.166.007 4.332-.004 6.499-.008 1.174-.752 2.284-1.79 2.812-.935.48-2.112.471-3.032-.04-1.002-.534-1.697-1.615-1.71-2.759-.06-2.229.017-4.461-.037-6.69.006-.887-.81-1.564-1.651-1.542zm-4.177.007a1.314 1.314 0 00-.245.02c-.494-.02-.871.347-1.2.665-1.63 1.647-3.287 3.27-4.913 4.923-.917.88-.908 2.483.023 3.35a714.554 714.554 0 005.174 5.171c.745.778 2.193.427 2.561-.566.199-.6.11-1.328-.38-1.765-1.501-1.513-3.019-3.01-4.517-4.526 1.463-1.48 2.943-2.944 4.41-4.418.355-.353.619-.825.572-1.34.038-.806-.699-1.505-1.485-1.514zm-9.351.006a1.781 1.781 0 00-.663.108c-.619.257-1.015.923-.987 1.585 0 3.722.002 7.442-.002 11.163-.031.664.368 1.33.985 1.588.964.424 2.253-.308 2.193-1.405.01-3.78-.002-7.56.004-11.339.01-.364-.034-.741-.264-1.036-.278-.433-.769-.65-1.266-.664zm36.624 7.198a591.382 591.382 0 01-3.932 2.285 3.428 3.428 0 00-1.65 2.241 3.415 3.415 0 00.456 2.57 3.412 3.412 0 002.13 1.498 3.43 3.43 0 002.495-.391c2.451-1.413 4.902-2.827 7.352-4.243-2.264-1.311-4.531-2.616-6.796-3.927l-.055-.033z" fill="#489ACF"/></svg>