<svg width="19" height="20" fill="none" xmlns="http://www.w3.org/2000/svg"><g clip-path="url(#clip0)"><path d="M18.04 5.72a2.183 2.183 0 00-1.536-1.535c-1.364-.373-6.82-.373-6.82-.373s-5.457 0-6.821.359c-.732.2-1.336.803-1.536 1.548-.36 1.363-.36 4.188-.36 4.188s0 2.84.36 4.188c.2.746.79 1.333 1.536 1.534 1.378.373 6.82.373 6.82.373s5.457 0 6.821-.358a2.183 2.183 0 001.537-1.535c.359-1.362.359-4.188.359-4.188s.014-2.84-.36-4.201zM7.947 12.517v-5.22l4.538 2.61-4.538 2.61z" fill="#CC1237"/></g><defs><clipPath id="clip0"><path fill="#fff" transform="translate(.395 .786)" d="M0 0h18.595v18.571H0z"/></clipPath></defs></svg>